<?xml version="1.0" encoding="utf-8"?>
<!-- Generator: Adobe Illustrator 24.1.0, SVG Export Plug-In . SVG Version: 6.00 Build 0)  -->
<svg version="1.1" id="Layer_1" xmlns="http://www.w3.org/2000/svg" xmlns:xlink="http://www.w3.org/1999/xlink" x="0px" y="0px"
	 viewBox="0 0 32 32" style="enable-background:new 0 0 32 32;" xml:space="preserve">
<style type="text/css">
	.st0{fill:#FFC900;}
	.st1{fill:#00AA55;}
	.st2{fill:#008EA1;}
	.st3{fill:#B155D9;}
	.st4{fill:#FF5D43;}
	.st5{fill:#FF8300;}
</style>
<g>
	<g>
		<polygon class="st0" points="13.8,12.2 13.8,16 7.2,16 11.6,8.4 11.6,8.4 		"/>
		<polygon class="st1" points="13.8,16 13.8,19.8 11.6,23.6 7.2,16 7.2,16 		"/>
		<polygon class="st2" points="20.4,23.6 11.6,23.6 13.8,19.8 13.8,20.9 17.3,18.3 		"/>
		<polygon class="st3" points="24.7,16 20.4,23.6 20.4,23.6 17.3,18.3 20.5,16 		"/>
		<polygon class="st4" points="24.7,16 24.7,16 20.5,16 20.5,16 17.3,13.7 20.4,8.4 		"/>
		<polygon class="st5" points="20.4,8.4 17.3,13.7 13.8,11.1 13.8,12.2 11.6,8.4 		"/>
	</g>
	<g>
		<path class="st1" d="M10.6,25.3l3.8,6.6c-5.8-0.6-10.7-4.3-13-9.4C0.5,20.5,0,18.3,0,16c0-2.4,0.5-4.6,1.4-6.6L5.2,16L10.6,25.3z"
			/>
		<path class="st0" d="M14.5,0.1l-3.9,6.6L5.2,16l-3.8,6.5C0.5,20.5,0,18.3,0,16c0-2.4,0.5-4.6,1.4-6.6c0.4-1,1-1.9,1.6-2.7
			C5.6,3,9.8,0.5,14.5,0.1z"/>
		<path class="st5" d="M29,6.7H3C5.6,3,9.8,0.5,14.5,0.1C15,0,15.5,0,16,0c0.6,0,1.1,0,1.7,0.1C22.3,0.6,26.4,3,29,6.7z"/>
		<path class="st4" d="M30.6,9.5c0.9,2,1.4,4.2,1.4,6.5c0,2.4-0.5,4.6-1.4,6.6L26.8,16l-5.4-9.4l-3.8-6.6c4.7,0.5,8.7,3,11.3,6.6
			C29.6,7.5,30.2,8.5,30.6,9.5z"/>
		<path class="st3" d="M30.6,9.5c0.9,2,1.4,4.2,1.4,6.5c0,2.4-0.5,4.6-1.4,6.6c-0.4,1-1,1.9-1.6,2.7c-2.6,3.7-6.8,6.1-11.5,6.6
			l3.9-6.6l5.5-9.3L30.6,9.5z"/>
		<path class="st2" d="M29,25.3c-2.6,3.7-6.8,6.1-11.5,6.6C17,32,16.5,32,16,32c-0.6,0-1.1,0-1.7-0.1l-3.8-6.6H29z"/>
	</g>
</g>
</svg>
