<?xml version="1.0" encoding="utf-8"?>
<!-- Generator: Adobe Illustrator 24.1.0, SVG Export Plug-In . SVG Version: 6.00 Build 0)  -->
<svg version="1.1" xmlns="http://www.w3.org/2000/svg" xmlns:xlink="http://www.w3.org/1999/xlink" x="0px" y="0px"
	 viewBox="0 0 305.3 160" style="enable-background:new 0 0 305.3 160;" xml:space="preserve">
<style type="text/css">
	.st0{fill:#33BCE1;}
	.st1{fill:#F8962F;}
	.st2{display:none;}
	.st3{display:inline;}
	.st4{clip-path:url(#SVGID_2_);}
	.st5{clip-path:url(#SVGID_4_);fill:#565656;}
	.st6{display:inline;opacity:0.5;fill:#CCCCCC;}
	.st7{clip-path:url(#SVGID_6_);}
	.st8{clip-path:url(#SVGID_8_);fill:#565656;}
	.st9{fill:#555655;}
	.st10{fill:#999999;}
	.st11{fill:#989898;}
</style>
<g id="Your_design">
	<g>
		<path class="st0" d="M132.6,20.2l3.2-0.7l-3.7,12.4c-1.5,4.9-2.8,10.6-4.1,17c-0.7,3.5-1.1,5.7-1.1,6.7c0,1,0.4,1.5,1.2,1.5
			c0.5,0,1.4-0.3,2.5-1c2-1.2,4-2.7,5.8-4.5l1.6,1.9c-3.7,3.4-6.1,5.4-7.1,6.2c-2.1,1.4-4.1,2.5-6,3.2c-1.2,0.5-2.4,0.7-3.6,0.7
			c-0.8,0-1.5-0.2-1.9-0.6c-0.4-0.4-0.6-1-0.6-1.7c0-0.5,0.1-1.2,0.4-2l2-6.6c-2.8,3.4-6.1,6.2-10,8.6c-2.4,1.5-4.6,2.2-6.5,2.2
			c-1.9,0-3.3-0.7-4.3-2c-1.4-1.8-2.1-4.1-2.1-7c0-3.5,0.9-7.3,2.8-11.5c1.8-4.2,4.3-8.1,7.4-11.5c3.1-3.5,6.3-6,9.8-7.6
			c2.6-1.2,6-1.9,10.2-1.9c1,0,2.1,0.1,3.2,0.2L132.6,20.2z M126.6,27.6c-1.8-0.4-3.2-0.5-4.4-0.5c-2.9,0-5.5,0.8-7.7,2.4
			c-2.2,1.6-4.2,4.5-6.1,8.7c-1.9,4.2-2.8,8.4-2.8,12.5c0,2.2,0.4,3.8,1.1,4.8c0.7,1,1.7,1.5,2.9,1.5c2.2,0,4.7-1.2,7.2-3.6
			c2.6-2.4,4.5-5.9,5.7-10.5L126.6,27.6z"/>
		<path class="st0" d="M142.9,32.3l-2.1-1.7c3.3-3.6,6.2-6.1,8.9-7.6s5-2.3,6.9-2.3c1,0,1.8,0.2,2.4,0.7c0.6,0.5,0.8,1.1,0.8,1.9
			c0,0.9-1.1,4.9-3.2,12c-3.4,11.6-5.2,18.5-5.2,20.9c0,0.5,0.1,0.8,0.3,1.1c0.2,0.3,0.5,0.5,0.7,0.5c1,0,3.7-2,8-6.1l1.9,1.9
			c-4.5,4.2-7.7,6.9-9.8,8.1s-3.7,1.8-5,1.8c-1.1,0-2-0.4-2.7-1.1c-0.7-0.7-1-1.7-1-3c0-4.1,2.4-14,7.3-29.8c0.2-0.7,0.3-1.4,0.3-2
			c0-0.7-0.3-1-0.9-1c-0.7,0-1.4,0.3-2.2,0.8C147.6,27.9,145.8,29.5,142.9,32.3z M162.1,0c1,0,1.8,0.3,2.5,1c0.7,0.7,1,1.5,1,2.6
			c0,1.4-0.5,2.7-1.5,3.8c-1,1.1-2.1,1.6-3.3,1.6c-1,0-1.8-0.3-2.4-1s-1-1.6-1-2.7c0-1.5,0.5-2.7,1.4-3.7S160.8,0,162.1,0z"/>
		<path class="st1" d="M52.6,111.1H30.9V81h21v2.2H33.1v11.1h17.6v2.2H33.1v12.4h19.5V111.1z"/>
		<path class="st0" d="M174.3,62.1h-7.3l3.4-13.1c1.7-6.4,3.1-12.6,4.3-18.4c0.3-1.4,0.4-2.3,0.4-2.7c0-0.8-0.4-1.2-1.1-1.2
			c-0.5,0-1.2,0.3-2.2,1c-1,0.7-2.8,2.3-5.5,5L165,31c3.1-3.4,6.2-5.9,9.3-7.5c3.1-1.7,5.5-2.5,7.2-2.5c0.6,0,1,0.1,1.4,0.4
			c0.3,0.3,0.5,0.6,0.5,1c0,0.4-0.2,1.6-0.6,3.4l-2.1,8.8c3.3-5.2,7-9.6,11.2-13.3c2-1.8,3.7-2.6,5-2.6c1,0,1.8,0.3,2.4,1
			s1,1.4,1,2.2c0,0.9-0.3,1.6-1,2.2c-0.6,0.6-2.2,1.4-4.8,2.2c-2.4,0.8-4.4,1.8-5.9,2.9c-1.5,1.1-3.2,2.9-5,5.2
			c-1.8,2.3-3.1,4.4-3.8,6.1c-0.7,1.7-1.8,5.8-3.3,12.1L174.3,62.1z"/>
		<path class="st0" d="M205,14.2c5.2-1.4,10.2-2.7,15.3-3.5c2.6-0.4,5.1-0.8,7.7-1c2.6-0.2,5.2-0.2,7.7-0.1c2.6,0.1,5.2,0.3,7.7,0.8
			c2.5,0.4,5.1,0.9,7.5,1.7l3.7,1.2l0.9,0.3l0.9,0.4l1.8,0.7l1.8,0.7l0.9,0.4l0.9,0.4l3.4,1.8l0.9,0.5L267,19l1.6,1l1.6,1l0.8,0.5
			l0.8,0.6l3.1,2.3l0.8,0.6l0.7,0.6l1.4,1.3c3.9,3.4,7.3,7.2,10.5,11.3c1.5,2.1,3.1,4.1,4.3,6.4c0.7,1.1,1.4,2.2,2,3.3l1.8,3.4
			c0.6,1.1,1.1,2.3,1.6,3.5c0.5,1.2,1.1,2.3,1.5,3.5l1.3,3.6c0.2,0.6,0.4,1.2,0.6,1.8l0.5,1.9c2.8,9.9,4.1,20.3,2.8,30.7
			c-1.2,10.4-5.2,20.3-11,29c-5.8,8.6-13.6,16-22.4,21.5c-8.9,5.5-18.8,9.3-29,11.3c-10.3,2-20.8,2.2-31.2,1
			c-10.4-1.2-20.5-3.7-30.3-7c-9.8-3.3-19.3-7.5-28.4-12c-19.5-9.5-38.9-22.1-60.9-24.4c-22.2-2.4-44.2,4.5-64.2,13.5
			c-4,1.8-7.9,3.6-11.9,5.4c-2.1,0.9-4,1.9-6.3,1.4c-1.5-0.3-2.9-1-3.9-2.1c-1.7-1.8-2.4-4.5-1.8-6.9c0.8-2.9,3.1-4.4,5.7-5.4
			c2-0.7,4-1.4,5.9-2.2c2.4-0.9,4.8-1.8,7.3-2.7c9.9-3.6,19.1-6.9,29.5-8.7c10.8-1.8,21.8-2.8,32.7-2.3c12.3,0.6,24.7,3.1,36,8.3
			c12.1,5.6,23.7,12.3,35.6,18.5c8.9,4.6,17.9,8.9,27.2,12.3c9.3,3.4,18.9,6.1,28.6,7.5c9.7,1.4,19.7,1.5,29.3-0.1
			c9.7-1.6,19.1-4.9,27.6-9.9c8.5-4.9,15.9-11.7,21.6-19.7c5.6-8,9.6-17.3,11-27.1c0.7-4.9,0.8-9.8,0.4-14.8l-0.4-3.7l-0.2-1.9
			l-0.3-1.8l-0.7-3.7l-0.9-3.6c-2.5-9.6-7.1-18.7-13-26.8c-3-3.9-6.3-7.8-10-11l-1.4-1.2l-0.7-0.6l-0.7-0.6l-3-2.3l-0.7-0.6L269,23
			l-1.6-1l-1.6-1l-0.8-0.5l-0.8-0.4l-3.3-1.7l-0.8-0.4l-0.9-0.4l-1.7-0.7l-1.7-0.7l-0.9-0.4l-0.9-0.3l-3.6-1.1
			c-2.4-0.7-4.8-1.2-7.3-1.5c-2.5-0.4-4.9-0.5-7.4-0.6c-5-0.1-9.9,0.3-14.8,1.4c-4.8,1.1-9.5,3-13.5,5.8c-1.3,0.9-3.2,0.6-4.1-0.8
			c-0.9-1.3-0.6-3.2,0.8-4.1C204.4,14.5,204.7,14.3,205,14.2z"/>
		<path class="st1" d="M24.1,111.1h-2.4l-3-8c-0.3-0.8-0.6-1.5-1-2.2c-0.4-0.7-0.8-1.3-1.3-1.8c-0.5-0.5-1-0.9-1.6-1.2
			s-1.3-0.4-2.2-0.4H2.2v13.6H0V81h13.5c1.3,0,2.5,0.1,3.7,0.3c1.2,0.2,2.2,0.6,3.2,1.2c0.9,0.6,1.7,1.4,2.2,2.4
			c0.5,1,0.8,2.4,0.8,4c0,1-0.1,1.9-0.4,2.8c-0.2,0.9-0.6,1.6-1.1,2.3c-0.5,0.7-1.1,1.3-1.9,1.8c-0.8,0.5-1.7,0.8-2.7,1.1
			c0.6,0.4,1,0.9,1.4,1.3c0.4,0.4,0.7,0.8,0.9,1.3c0.3,0.5,0.5,1,0.7,1.5c0.2,0.5,0.5,1.2,0.7,1.9L24.1,111.1z M2.2,95.3h10.4
			c1.5,0,2.8-0.1,3.8-0.3c1.1-0.2,1.9-0.6,2.6-1.1c0.7-0.5,1.2-1.2,1.5-2c0.3-0.8,0.5-1.8,0.5-3c0-2.1-0.7-3.5-2-4.4
			c-1.3-0.9-3.3-1.3-5.9-1.3H2.2V95.3z"/>
		<path class="st1" d="M70.4,111.6c-2,0-3.8-0.2-5.3-0.6c-1.5-0.4-2.8-1-3.8-1.8c-1-0.8-1.8-1.8-2.4-2.9c-0.5-1.1-0.9-2.4-1-3.8H60
			c0.2,1.4,0.6,2.5,1.2,3.4c0.6,0.9,1.4,1.6,2.2,2.1s1.9,0.9,3,1.1c1.1,0.2,2.3,0.3,3.6,0.3c1.3,0,2.5-0.1,3.6-0.4
			c1.1-0.3,2-0.7,2.7-1.2c0.8-0.5,1.3-1.2,1.7-1.9s0.6-1.6,0.6-2.6c0-1-0.2-1.9-0.5-2.5c-0.3-0.7-0.9-1.3-1.8-1.8
			c-0.8-0.5-1.9-1-3.3-1.4c-1.3-0.4-3-0.8-5-1.2c-1.6-0.4-3.1-0.8-4.2-1.3c-1.2-0.5-2.2-1-2.9-1.7s-1.3-1.4-1.7-2.2
			c-0.4-0.8-0.5-1.8-0.5-2.8c0-1.2,0.2-2.2,0.7-3.2s1.2-1.8,2.1-2.5c0.9-0.7,2-1.2,3.3-1.6c1.3-0.4,2.7-0.6,4.2-0.6
			c1.5,0,2.9,0.2,4.2,0.5c1.3,0.4,2.4,0.9,3.4,1.6s1.7,1.5,2.3,2.5s1,2.1,1.1,3.3h-2.1c-0.2-0.8-0.5-1.6-1-2.3
			c-0.5-0.7-1-1.3-1.8-1.8c-0.7-0.5-1.6-0.9-2.6-1.2c-1-0.3-2.1-0.4-3.4-0.4c-2.7,0-4.7,0.5-6.1,1.5c-1.4,1-2.1,2.3-2.1,4.1
			c0,0.8,0.1,1.5,0.4,2.1c0.3,0.6,0.7,1.1,1.3,1.6c0.6,0.5,1.4,0.9,2.4,1.2c1,0.4,2.3,0.7,3.8,1c0.9,0.2,1.8,0.4,2.7,0.6
			c0.9,0.2,1.8,0.4,2.7,0.7c0.9,0.3,1.7,0.6,2.5,1c0.8,0.4,1.5,0.9,2.1,1.5c0.6,0.6,1.1,1.3,1.4,2.1c0.4,0.8,0.5,1.8,0.5,2.9
			c0,1.3-0.3,2.5-0.8,3.5c-0.5,1.1-1.3,2-2.3,2.8s-2.1,1.4-3.4,1.8C73.4,111.4,71.9,111.6,70.4,111.6z"/>
		<path class="st1" d="M137.7,111.1h-2.6l-3.7-9.7h-14.8c-0.5,1.5-1.1,3.1-1.7,4.8c-0.6,1.7-1.2,3.3-1.8,4.8h-2.3
			c1-2.6,2-5.1,2.9-7.6s1.9-5,2.9-7.4c1-2.5,1.9-4.9,2.9-7.4c1-2.5,1.9-5,2.9-7.6h3.1L137.7,111.1z M130.8,99.7l-7-16.7l-6.6,16.7
			H130.8z"/>
		<path class="st1" d="M108.5,83.2H98v27.9h-2.2V83.2H85.4V81h23.1V83.2z"/>
		<path class="st1" d="M153.9,111.6c-1.8,0-3.3-0.2-4.6-0.6c-1.3-0.4-2.3-0.9-3.2-1.5c-0.8-0.6-1.5-1.4-2-2.3
			c-0.5-0.9-0.9-1.8-1.1-2.7s-0.4-2-0.5-3s-0.1-2.1-0.1-3V81h2.2v17.4c0,2.3,0.2,4.2,0.6,5.6c0.4,1.4,1,2.6,1.8,3.4
			c0.8,0.8,1.8,1.4,2.9,1.6c1.1,0.3,2.5,0.4,3.9,0.4c1.5,0,2.8-0.1,4-0.4s2.1-0.8,2.9-1.7c0.8-0.8,1.4-1.9,1.8-3.4
			c0.4-1.4,0.6-3.3,0.6-5.6V81h2.2v17.5c0,2.1-0.2,3.9-0.5,5.5c-0.3,1.6-1,3-1.8,4.1c-0.9,1.1-2,2-3.5,2.6
			C158,111.3,156.2,111.6,153.9,111.6z"/>
		<path class="st1" d="M197.3,111.1h-2.4l-3-8c-0.3-0.8-0.6-1.5-1-2.2c-0.4-0.7-0.8-1.3-1.3-1.8c-0.5-0.5-1-0.9-1.6-1.2
			c-0.6-0.3-1.3-0.4-2.2-0.4h-10.5v13.6h-2.2V81h13.5c1.3,0,2.5,0.1,3.7,0.3c1.2,0.2,2.2,0.6,3.2,1.2c0.9,0.6,1.7,1.4,2.2,2.4
			c0.5,1,0.8,2.4,0.8,4c0,1-0.1,1.9-0.4,2.8c-0.2,0.9-0.6,1.6-1.1,2.3c-0.5,0.7-1.1,1.3-1.9,1.8c-0.8,0.5-1.7,0.8-2.7,1.1
			c0.6,0.4,1,0.9,1.4,1.3c0.4,0.4,0.7,0.8,0.9,1.3c0.3,0.5,0.5,1,0.7,1.5c0.2,0.5,0.5,1.2,0.7,1.9L197.3,111.1z M175.4,95.3h10.4
			c1.5,0,2.8-0.1,3.8-0.3c1.1-0.2,1.9-0.6,2.6-1.1c0.7-0.5,1.2-1.2,1.5-2c0.3-0.8,0.5-1.8,0.5-3c0-2.1-0.7-3.5-2-4.4
			c-1.3-0.9-3.3-1.3-5.9-1.3h-11.1V95.3z"/>
		<path class="st1" d="M227.8,111.1h-2.6l-3.7-9.7h-14.8c-0.5,1.5-1.1,3.1-1.7,4.8c-0.6,1.7-1.2,3.3-1.8,4.8h-2.3
			c1-2.6,2-5.1,2.9-7.6c1-2.5,1.9-5,2.9-7.4c1-2.5,1.9-4.9,2.9-7.4c1-2.5,1.9-5,2.9-7.6h3.1L227.8,111.1z M220.9,99.7l-7-16.7
			l-6.6,16.7H220.9z"/>
		<path class="st1" d="M255.7,111.1h-2.9l-18.3-27.5v27.5h-2.2V81h3l18.2,27.4V81h2.2V111.1z"/>
		<path class="st1" d="M284,83.2h-10.5v27.9h-2.2V83.2h-10.4V81H284V83.2z"/>
	</g>
</g>
<g id="_x39_9d_logo" class="st2">
	<g class="st3">
		<defs>
			<path id="SVGID_1_" d="M-111,1.1c15.7-27.3,50.3-36.6,77.4-20.9C-6.5-4,2.8,30.9-12.8,58.1C-28.5,85.4-63.2,94.8-90.3,79
				C-117.4,63.3-126.7,28.4-111,1.1z M105.4,1.1c15.7-27.3,50.3-36.6,77.4-20.9C210-4,219.2,30.9,203.6,58.1
				c-15.7,27.3-50.3,36.6-77.4,20.9C99.1,63.3,89.8,28.4,105.4,1.1z M408.4,173.3c-11.2,11.3-25.5,16.9-42.9,16.9
				c-8.4,0-16.2-1.5-23.6-4.5c-7.3-3-13.5-7.1-18.7-12.4c-5.1-5.3-9.2-11.6-12.1-19c-3-7.4-4.4-15.4-4.4-24.2
				c0-8.5,1.5-16.4,4.4-23.7c3-7.4,7.1-13.6,12.4-18.8c5.3-5.2,11.6-9.2,18.9-12.2c7.3-3,15.3-4.5,24-4.5c8.4,0,16.2,1.5,23.3,4.5
				c7.1,3,13.4,7.1,18.6,12.4c5.3,5.3,9.4,11.5,12.4,18.5c3,7,4.4,14.8,4.4,23.2C425.2,147.5,419.6,162,408.4,173.3z M46.3,90.8
				c10.5,18.9,26.1,35.3,46.2,47c16.8,9.8,35,15,53.1,16.3l-54,94.1h80.8l64.4-112.2c0.5,16.2,3.4,31.2,8.5,44.9
				c5.8,15.3,13.8,28.5,24.3,39.6c10.4,11.1,22.8,19.8,37.1,26.1c14.3,6.3,30,9.4,47.1,9.4c16.2,0,29.8-2.6,40.8-7.7
				c11-5.2,21.2-13.5,30.6-25.1v24.9h66.3v-336h-70V33c-9.6-9.4-19.9-16.4-30.8-20.9c-10.9-4.5-23.7-6.8-38.3-6.8
				c-16.5,0-31.8,3.1-45.9,9.4c-10.3,4.6-19.6,10.4-27.9,17.5c0.9-44-21.5-87.1-62-110.7C157.2-112.9,81.3-92.5,47-32.8
				c-0.2,0.4-0.5,0.9-0.7,1.3c-10.5-18.9-26.1-35.3-46.2-47c-59.4-34.5-135.3-14-169.5,45.7c-34.3,59.7-13.9,136.1,45.4,170.5
				c16.8,9.8,35,15,53.1,16.3l-54,94.1H-44l89.6-156C45.8,91.6,46,91.2,46.3,90.8L46.3,90.8z"/>
		</defs>
		<clipPath id="SVGID_2_">
			<use xlink:href="#SVGID_1_"  style="overflow:visible;"/>
		</clipPath>
		<g class="st4">
			<defs>
				<rect id="SVGID_3_" x="-732.8" y="-805.8" width="1770.8" height="1770.8"/>
			</defs>
			<clipPath id="SVGID_4_">
				<use xlink:href="#SVGID_3_"  style="overflow:visible;"/>
			</clipPath>
			<rect x="-197.1" y="-106.3" class="st5" width="699.6" height="373.2"/>
		</g>
	</g>
</g>
<g id="Guides" class="st2">
</g>
<g id="TEMPLATE__x28_delete_x29_" class="st2">
	<path class="st6" d="M-347.3-420V580h1000V-420H-347.3z M452.7,380h-600v-600h600V380z"/>
	<g class="st3">
		<defs>
			<path id="SVGID_5_" d="M-99.8-125.1c2-3.5,6.4-4.6,9.8-2.6c3.4,2,4.6,6.4,2.6,9.9c-2,3.5-6.4,4.6-9.8,2.6
				C-100.6-117.2-101.8-121.6-99.8-125.1z M-71.2-125.1c2-3.5,6.4-4.6,9.8-2.6c3.4,2,4.6,6.4,2.6,9.9c-2,3.5-6.4,4.6-9.8,2.6
				C-72-117.2-73.2-121.6-71.2-125.1z M-27.9-103.2c-1.4,1.4-3.2,2.1-5.4,2.1c-1.1,0-2.1-0.2-3-0.6c-0.9-0.4-1.7-0.9-2.4-1.6
				c-0.7-0.7-1.2-1.5-1.5-2.4c-0.4-0.9-0.6-2-0.6-3.1c0-1.1,0.2-2.1,0.6-3c0.4-0.9,0.9-1.7,1.6-2.4c0.7-0.7,1.5-1.2,2.4-1.5
				c0.9-0.4,1.9-0.6,3-0.6c1.1,0,2.1,0.2,3,0.6c0.9,0.4,1.7,0.9,2.4,1.6c0.7,0.7,1.2,1.5,1.6,2.3c0.4,0.9,0.6,1.9,0.6,2.9
				C-25.8-106.5-26.5-104.7-27.9-103.2z M-26.3-136.4v15.3c-1.2-1.2-2.5-2.1-3.9-2.7c-1.4-0.6-3-0.9-4.9-0.9c-2.1,0-4,0.4-5.8,1.2
				c-1.8,0.8-3.3,1.9-4.6,3.3c-1.3,1.4-2.3,3.1-3.1,5c-0.7,1.9-1.1,4-1.1,6.3c0,2.3,0.4,4.5,1.1,6.4c0.7,1.9,1.8,3.6,3.1,5
				c1.3,1.4,2.9,2.5,4.7,3.3c1.8,0.8,3.8,1.2,6,1.2c2.1,0,3.8-0.3,5.2-1c1.4-0.7,2.7-1.7,3.9-3.2v3.2h8.4v-42.6H-26.3z M-79.3-128.1
				c0.2-0.4,0.4-0.9,0.7-1.3c4.3-7.6,14-10.2,21.5-5.8c7.5,4.4,10.1,14.1,5.8,21.6l-11.4,19.8H-73l6.8-11.9
				c-2.3-0.2-4.6-0.8-6.7-2.1c-2.9-1.7-5.1-4.2-6.4-7.1c-0.2,0.4-0.4,0.9-0.7,1.3l-11.4,19.8h-10.2l6.8-11.9
				c-2.3-0.2-4.6-0.8-6.7-2.1c-7.5-4.4-10.1-14.1-5.8-21.6c4.3-7.6,14-10.2,21.5-5.8C-82.8-133.5-80.6-130.9-79.3-128.1z
				 M-6.6-111.8c0.4-1.7,1.1-2.9,2.3-3.8c1.2-0.9,2.6-1.3,4.3-1.3c1.7,0,3.2,0.5,4.4,1.4c1.2,0.9,2,2.2,2.3,3.7H-6.6z M14.3-114.7
				c-0.8-2-1.9-3.7-3.3-5.1c-1.4-1.4-3-2.6-5-3.4c-1.9-0.8-4-1.2-6.2-1.2c-2.1,0-4.1,0.4-6,1.2c-1.9,0.8-3.5,2-4.9,3.4
				c-1.4,1.4-2.5,3.1-3.3,5c-0.8,1.9-1.2,4-1.2,6.2c0,2.2,0.4,4.3,1.2,6.2c0.8,1.9,1.9,3.6,3.3,5c1.4,1.4,3,2.5,4.9,3.4
				c1.9,0.8,3.9,1.2,6.1,1.2c3.1,0,6-0.9,8.5-2.7c2.4-1.7,4.3-4.1,5.7-7.1H5c-0.9,0.9-1.8,1.5-2.6,1.8c-0.8,0.3-1.7,0.5-2.8,0.5
				c-1.8,0-3.2-0.5-4.4-1.5c-1.2-1-1.9-2.3-2.1-4h22.1C15.7-108.8,15.4-111.8,14.3-114.7z M39.9-115.1c-0.4-5.8-5-9.3-11.3-9.3
				c-6,0-11.5,3.8-11.5,9.6c0,3.5,2,6.4,9.4,8.7c4.4,1.4,5.4,2.2,5.4,3.9c0,1.4-1.5,2.3-3.1,2.3c-1.8,0-3.1-0.9-3.4-2.7h-8.8
				c0.6,6,5.4,9.8,12,9.8c6.7,0,12-3.9,12-10.1c0-4.3-2.3-7.1-9.3-9c-4.1-1.1-5.5-1.9-5.5-3.5c0-1.1,1.1-2,2.6-2
				c1.4,0,2.7,0.5,2.7,2.2H39.9z M47.5-126.6c2.9,0,5.3-2.4,5.3-5.3s-2.4-5.3-5.3-5.3c-2.9,0-5.3,2.4-5.3,5.3S44.6-126.6,47.5-126.6
				z M52-93.8h-8.8v-29.7H52V-93.8z M68.9-117.7c2.7,0,4.9,2.2,4.9,4.9c0,2.7-2.2,4.9-4.9,4.9c-2.7,0-4.9-2.2-4.9-4.9
				C64-115.6,66.2-117.7,68.9-117.7z M75-87.7c-1,1.4-2.9,1.9-4.5,1.9c-1.9,0.1-4.5-0.3-5.7-1.9c-1.2-1.5-1-3.6,0.7-4.6
				c0.5-0.3,1-0.5,1.5-0.6h4.4c1.9,0,4.4,0.5,4.3,2.9C75.8-89.1,75.5-88.3,75-87.7z M66.5-99.6c-3.6-0.6-3.5-2-2.6-2.7
				c8.2,3.1,18.1-0.8,18.2-10.3c0-3.5-1.3-5.7-2.2-6.7c0.7-1.4,1.6-2.2,3.4-2.6l-3.7-6.5c-3.4,0.3-5.6,2.4-6.6,4.5
				c-2-0.8-6.1-0.9-9.3,0.3c-1.6,0.6-3,1.4-4.2,2.5c-1.2,1-2.1,2.3-2.8,3.8c-0.7,1.5-1,3.1-1,4.8c0,2.3,0.7,4.9,2,6.8
				c-3.6,3.5-3.4,8.7,0.3,12c-0.4,0.3-0.8,0.6-1.1,1c-3.3,3.6-1.8,8.7,2.1,11.3c4.8,3.5,13.4,3.7,18.7,1.3
				c9.3-3.8,9.6-17.6-1.2-19.4C73.5-100,70-99,66.5-99.6z M85.4-93.8h8.9v-16.6c0-3.9,1.7-5.8,5-5.8c1.6,0,2.8,0.5,3.5,1.5
				c0.7,1,1.1,2.6,1.1,4.7v16.2h8.9v-18.6c0-1.2-0.1-2.2-0.1-3.1c-0.1-0.9-0.3-1.7-0.5-2.4c-0.2-0.7-0.5-1.3-0.9-1.9
				c-0.4-0.6-0.9-1.1-1.4-1.7c-0.9-0.9-2.1-1.7-3.5-2.2c-1.4-0.5-2.9-0.8-4.4-0.8c-1.9,0-3.5,0.3-4.7,1c-1.2,0.7-2.4,1.7-3.4,3.2
				v-3.1h-8.4V-93.8z M137.8-115.1c-0.4-5.8-5-9.3-11.3-9.3c-6,0-11.5,3.8-11.5,9.6c0,3.5,2,6.4,9.4,8.7c4.4,1.4,5.4,2.2,5.4,3.9
				c0,1.4-1.5,2.3-3.1,2.3c-1.8,0-3.1-0.9-3.4-2.7h-8.8c0.6,6,5.4,9.8,12,9.8c6.7,0,12-3.9,12-10.1c0-4.3-2.3-7.1-9.3-9
				c-4.1-1.1-5.5-1.9-5.5-3.5c0-1.1,1.1-2,2.6-2c1.4,0,2.7,0.5,2.7,2.2H137.8z"/>
		</defs>
		<clipPath id="SVGID_6_">
			<use xlink:href="#SVGID_5_"  style="overflow:visible;"/>
		</clipPath>
		<g class="st7">
			<defs>
				<rect id="SVGID_7_" x="-150.7" y="-277.4" width="330.7" height="330.7"/>
			</defs>
			<clipPath id="SVGID_8_">
				<use xlink:href="#SVGID_7_"  style="overflow:visible;"/>
			</clipPath>
			<rect x="-111.4" y="-139.3" class="st8" width="252.2" height="62.8"/>
		</g>
	</g>
	<g class="st3">
		<path class="st9" d="M-104.3-34.2h7v3.1h-10.3v-16.8h3.3V-34.2z"/>
		<path class="st9" d="M-83-37.2c0,3.8-2.7,6.4-6.4,6.4c-3.6,0-6.4-2.6-6.4-6.4c0-3.8,2.7-6.3,6.4-6.3C-85.7-43.5-83-40.9-83-37.2z
			 M-92.6-37.2c0,2,1.3,3.5,3.2,3.5c1.9,0,3.1-1.5,3.1-3.5c0-2-1.2-3.5-3.1-3.5C-91.3-40.7-92.6-39.2-92.6-37.2z"/>
		<path class="st9" d="M-69.4-40.6h-1.8c0.1,0.4,0.2,0.9,0.2,1.4c0,2.4-2,4.2-4.8,4.2c-0.7,0-1.4-0.1-2-0.3
			c-0.2,0.2-0.3,0.5-0.3,0.9c0,0.6,0.5,1,1.2,1h2.9c2.5,0,4,1.2,4,3.5c0,2.7-2.1,4.2-5.4,4.2c-3.6,0-5.5-1.3-5.5-3.7
			c0-1.1,0.6-1.8,1.2-2.1c-0.7-0.5-1.4-1.4-1.4-2.6c0-1.2,0.5-2,1.2-2.6c-0.5-0.7-0.8-1.5-0.8-2.5c0-2.5,2.1-4.3,4.9-4.3
			c0.6,0,1.2,0.1,1.8,0.3h4.6V-40.6z M-76.6-31c-0.7,0.1-1.2,0.6-1.2,1.4c0,1.1,1,1.7,2.5,1.7c1.4,0,2.3-0.6,2.3-1.7
			c0-0.9-0.7-1.3-1.7-1.3H-76.6z M-77.7-39.2c0,1.1,0.7,1.9,1.8,1.9s1.8-0.8,1.8-1.9c0-1.2-0.7-2-1.8-2
			C-76.9-41.2-77.7-40.4-77.7-39.2z"/>
		<path class="st9" d="M-55.6-37.2c0,3.8-2.7,6.4-6.4,6.4c-3.6,0-6.4-2.6-6.4-6.4c0-3.8,2.7-6.3,6.4-6.3
			C-58.3-43.5-55.6-40.9-55.6-37.2z M-65.1-37.2c0,2,1.3,3.5,3.2,3.5c1.9,0,3.1-1.5,3.1-3.5c0-2-1.2-3.5-3.1-3.5
			C-63.8-40.7-65.1-39.2-65.1-37.2z"/>
		<path class="st9" d="M-44.1-43.3h2.8v2.8h-2.8l0,4.9c0,1.2,0.4,1.8,1.6,1.8c0.6,0,0.9-0.1,1.3-0.2v2.7c-0.4,0.1-1,0.3-2,0.3
			c-2.7,0-4-1.1-4-3.8l0-5.7h-2v-2.8h2l0-3h3.1L-44.1-43.3z"/>
		<path class="st9" d="M-27.8-37.2v1h-8.5c0.1,1.6,1.2,2.7,2.9,2.7c1.2,0,2.1-0.5,2.4-1.4h3c-0.7,2.6-2.6,4.1-5.6,4.1
			c-3.6,0-6-2.5-6-6.3c0-3.7,2.4-6.4,6-6.4C-30.2-43.5-27.8-41.5-27.8-37.2z M-36.2-38.4h5.3c0-1.5-1-2.5-2.6-2.5
			C-35-40.9-36.1-39.9-36.2-38.4z"/>
		<path class="st9" d="M-7.9-39v7.9H-11v-7.2c0-1.4-0.6-2.2-1.7-2.2c-1.2,0-2.1,0.9-2.1,2.8v6.6H-18v-7.2c0-1.4-0.6-2.2-1.7-2.2
			c-1.2,0-2.1,1-2.1,3v6.4h-3.1v-12.2h2.7l0.2,1.6c0.6-1,1.7-1.8,3.2-1.8c1.7,0,2.9,0.8,3.5,2.1c0.6-1.2,1.8-2.1,3.5-2.1
			C-9.2-43.5-7.9-41.7-7.9-39z"/>
		<path class="st9" d="M8-37.2c0,3.6-2.4,6.4-5.7,6.4c-1.8,0-3-0.7-3.6-1.6v6.5h-3.1v-17.3h2.7l0.2,1.6c0.7-1,1.8-1.9,3.9-1.9
			C5.6-43.5,8-40.8,8-37.2z M-1.4-37.2v0.1c0,2.1,1.6,3.3,3.1,3.3c1.7,0,3.1-1.3,3.1-3.4c0-2.1-1.3-3.4-3.1-3.4
			C0.1-40.6-1.4-39.4-1.4-37.2z"/>
		<path class="st9" d="M13.8-31.1h-3.1v-17.5h3.1V-31.1z"/>
		<path class="st9" d="M26.7-39.1v8H24l-0.2-1.5c-0.6,1-1.8,1.8-3.5,1.8c-2.2,0-3.7-1.3-3.7-3.5c0-2.4,1.6-3.3,3.8-3.6l3.1-0.6V-39
			c0-1.2-0.6-1.8-1.7-1.8c-1,0-1.8,0.6-1.8,1.6h-3c0.1-2.5,2-4.3,4.8-4.3S26.7-42.1,26.7-39.1z M21.1-36c-0.8,0.2-1.4,0.6-1.4,1.4
			c0,0.7,0.5,1.2,1.4,1.2c0.8,0,1.5-0.4,1.9-1.1c0.3-0.4,0.4-1,0.4-1.6v-0.4L21.1-36z"/>
		<path class="st9" d="M33.8-43.3h2.8v2.8h-2.8l0,4.9c0,1.2,0.4,1.8,1.6,1.8c0.6,0,0.9-0.1,1.3-0.2v2.7c-0.4,0.1-1,0.3-2,0.3
			c-2.7,0-4-1.1-4-3.8l0-5.7h-2v-2.8h2l0-3h3.1L33.8-43.3z"/>
		<path class="st9" d="M50.1-37.2v1h-8.5c0.1,1.6,1.2,2.7,2.9,2.7c1.2,0,2.1-0.5,2.4-1.4h3c-0.7,2.6-2.6,4.1-5.6,4.1
			c-3.6,0-6-2.5-6-6.3c0-3.7,2.4-6.4,6-6.4C47.7-43.5,50.1-41.5,50.1-37.2z M41.7-38.4H47c0-1.5-1-2.5-2.6-2.5
			C42.9-40.9,41.8-39.9,41.7-38.4z"/>
		<path class="st10" d="M63.2-47.4c-2,2.7-3,5-3,8.6c0,3.6,1,6,3,8.6L61-28.7c-2.2-2.7-3.7-5.7-3.7-10.1s1.5-7.4,3.7-10.1L63.2-47.4
			z"/>
		<path class="st10" d="M71.2-31.1h-3.3v-11.6h-3.5v-2.8c2.6,0,4-0.6,4.4-2.4h2.4V-31.1z"/>
		<path class="st10" d="M85.9-39.5c0,5.4-2.1,8.7-6,8.7s-6-3.4-6-8.7c0-5.4,2.1-8.7,6-8.7S85.9-44.9,85.9-39.5z M77.4-39.5
			c0,3.6,0.9,5.7,2.6,5.7c1.8,0,2.6-2.1,2.6-5.7c0-3.5-0.9-5.6-2.6-5.6C78.2-45.1,77.4-43,77.4-39.5z"/>
		<path class="st10" d="M99.9-39.5c0,5.4-2.1,8.7-6,8.7s-6-3.4-6-8.7c0-5.4,2.1-8.7,6-8.7S99.9-44.9,99.9-39.5z M91.3-39.5
			c0,3.6,0.9,5.7,2.6,5.7c1.8,0,2.6-2.1,2.6-5.7c0-3.5-0.9-5.6-2.6-5.6C92.2-45.1,91.3-43,91.3-39.5z"/>
		<path class="st10" d="M113.9-39.5c0,5.4-2.1,8.7-6,8.7s-6-3.4-6-8.7c0-5.4,2.1-8.7,6-8.7S113.9-44.9,113.9-39.5z M105.3-39.5
			c0,3.6,0.9,5.7,2.6,5.7c1.8,0,2.6-2.1,2.6-5.7c0-3.5-0.9-5.6-2.6-5.6C106.2-45.1,105.3-43,105.3-39.5z"/>
		<path class="st10" d="M130.7-39.6l5.7,8.5h-3.9l-4-6.1l-4,6.1h-3.9l5.6-8.5l-5.5-8.3h3.9l3.9,5.8l3.9-5.8h3.9L130.7-39.6z"/>
		<path class="st10" d="M149.6-31.1h-3.3v-11.6h-3.5v-2.8c2.6,0,4-0.6,4.4-2.4h2.4V-31.1z"/>
		<path class="st10" d="M164.4-39.5c0,5.4-2.1,8.7-6,8.7c-3.8,0-6-3.4-6-8.7c0-5.4,2.1-8.7,6-8.7C162.2-48.2,164.4-44.9,164.4-39.5z
			 M155.8-39.5c0,3.6,0.9,5.7,2.6,5.7c1.8,0,2.6-2.1,2.6-5.7c0-3.5-0.9-5.6-2.6-5.6C156.6-45.1,155.8-43,155.8-39.5z"/>
		<path class="st10" d="M178.3-39.5c0,5.4-2.1,8.7-6,8.7c-3.8,0-6-3.4-6-8.7c0-5.4,2.1-8.7,6-8.7C176.2-48.2,178.3-44.9,178.3-39.5z
			 M169.7-39.5c0,3.6,0.9,5.7,2.6,5.7c1.8,0,2.6-2.1,2.6-5.7c0-3.5-0.9-5.6-2.6-5.6C170.6-45.1,169.7-43,169.7-39.5z"/>
		<path class="st10" d="M192.3-39.5c0,5.4-2.1,8.7-6,8.7c-3.8,0-6-3.4-6-8.7c0-5.4,2.1-8.7,6-8.7C190.2-48.2,192.3-44.9,192.3-39.5z
			 M183.7-39.5c0,3.6,0.9,5.7,2.6,5.7c1.8,0,2.6-2.1,2.6-5.7c0-3.5-0.9-5.6-2.6-5.6C184.6-45.1,183.7-43,183.7-39.5z"/>
		<path class="st10" d="M207.6-37.2c0,3.6-2.4,6.4-5.7,6.4c-1.8,0-3-0.7-3.6-1.6v6.5h-3.1v-17.3h2.7l0.2,1.6c0.7-1,1.8-1.9,3.9-1.9
			C205.2-43.5,207.6-40.8,207.6-37.2z M198.2-37.2v0.1c0,2.1,1.6,3.3,3.1,3.3c1.7,0,3.1-1.3,3.1-3.4c0-2.1-1.3-3.4-3.1-3.4
			C199.7-40.6,198.2-39.4,198.2-37.2z"/>
		<path class="st10" d="M216.7-37.3l3.8,6.2h-3.6l-2.4-3.8l-2.4,3.8h-3.6l3.8-6.2l-3.7-6h3.6l2.2,3.6l2.2-3.6h3.6L216.7-37.3z"/>
		<path class="st10" d="M227.3-38.8c0,4.4-1.6,7.4-3.8,10.1l-2.2-1.5c2-2.7,3-5,3-8.6c0-3.6-1-6-3-8.6l2.2-1.5
			C225.7-46.2,227.3-43.2,227.3-38.8z"/>
	</g>
	<g class="st3">
		<path class="st11" d="M-105.7,23.2h4.5v1.3h-4.5V23.2z"/>
		<path class="st11" d="M-92.5,24.4v4.7H-94V16.9h3.7c2.4,0,4.2,1.1,4.2,3.8c0,2.6-1.8,3.8-4.3,3.8H-92.5z M-90.4,23.2
			c1.8,0,2.8-0.9,2.8-2.6c0-1.8-1-2.6-2.8-2.6h-2.1v5.2H-90.4z"/>
		<path class="st11" d="M-84,16.5h1.4v12.6H-84V16.5z"/>
		<path class="st11" d="M-79.8,23c0-1.5,1.2-2.5,3.2-2.5c2.1,0,3.1,0.9,3.1,3.1V27c0,0.7,0.1,0.9,0.8,1v1.2h-0.2
			c-1.3,0-1.8-0.5-1.9-1.5h0c-0.4,1-1.5,1.6-2.7,1.6c-1.7,0-2.7-0.9-2.7-2.4c0-0.9,0.4-1.7,1.3-2.1c0.9-0.5,2.2-0.6,4.1-0.7v-0.4
			c0-1.5-0.6-2.1-1.8-2.1c-1.2,0-1.7,0.7-1.8,1.4H-79.8z M-74.9,25.3v-0.2c-1.8,0.1-2.9,0.2-3.4,0.6c-0.3,0.2-0.5,0.6-0.5,1
			c0,0.9,0.6,1.3,1.5,1.3C-76.2,28.1-74.9,27.4-74.9,25.3z"/>
		<path class="st11" d="M-65.4,23.2c-0.1-0.9-0.7-1.6-1.9-1.6c-1.5,0-2.3,1.3-2.3,3.3c0,2,0.6,3.3,2.3,3.3c1.6,0,2-1.2,2.1-1.8h1.3
			c-0.2,2-1.6,2.9-3.4,2.9c-2.4,0-3.7-1.7-3.7-4.4c0-2.6,1.4-4.5,3.8-4.5c1.7,0,3.2,0.8,3.3,2.8H-65.4z"/>
		<path class="st11" d="M-58.5,29.3c-2.6,0-3.8-1.9-3.8-4.4c0-2.5,1.3-4.5,3.8-4.5c2.5,0,3.5,2,3.5,4.1v0.7h-5.8
			c0.1,1.7,0.8,2.9,2.4,2.9c1.4,0,1.8-0.8,1.9-1.3h1.4C-55.5,28.4-56.7,29.3-58.5,29.3z M-56.5,24.1c0-1.4-0.6-2.5-2.1-2.5
			c-1.3,0-2.1,1.1-2.3,2.6L-56.5,24.1L-56.5,24.1z"/>
		<path class="st11" d="M-49,20.7h1.4l1.8,5.3c0.3,0.8,0.4,1.3,0.4,1.3h0c0,0,0.1-0.5,0.4-1.3l1.7-5.3h1.4l-3.1,9
			c-0.7,1.9-1.2,2.7-3.1,2.7c-0.3,0-0.6,0-0.9-0.1V31c0.3,0.1,0.6,0.1,0.7,0.1c1.1,0,1.4-0.4,1.8-1.5l0.2-0.4L-49,20.7z"/>
		<path class="st11" d="M-40.5,24.9c0-2.6,1.4-4.4,3.8-4.4c2.5,0,3.8,1.8,3.8,4.4c0,2.6-1.4,4.4-3.8,4.4
			C-39.2,29.3-40.5,27.5-40.5,24.9z M-39,24.9c0,2.1,0.7,3.3,2.3,3.3c1.6,0,2.3-1.2,2.3-3.3c0-2-0.7-3.3-2.3-3.3
			C-38.2,21.6-39,22.8-39,24.9z"/>
		<path class="st11" d="M-29.1,25.9c0,0.6,0,1.3,0.3,1.7c0.3,0.4,0.7,0.6,1.3,0.6c1.6,0,2.3-1,2.3-2.9v-4.6h1.4v8.4h-1.4v-1.4h0
			c-0.4,0.9-1.3,1.6-2.7,1.6c-1.6,0-2.7-0.8-2.7-2.8v-5.9h1.4V25.9z"/>
		<path class="st11" d="M-20.6,20.7h1.4v1.6h0c0.4-0.9,1.4-1.7,2.7-1.7h0.1V22h-0.3c-1.5,0-2.5,0.9-2.5,2.5v4.6h-1.4V20.7z"/>
		<path class="st11" d="M-9.7,16.5h1.4v12.6h-1.4V16.5z"/>
		<path class="st11" d="M-5.8,24.9c0-2.6,1.4-4.4,3.8-4.4c2.5,0,3.8,1.8,3.8,4.4c0,2.6-1.4,4.4-3.8,4.4C-4.6,29.3-5.8,27.5-5.8,24.9
			z M-4.3,24.9c0,2.1,0.7,3.3,2.3,3.3c1.6,0,2.3-1.2,2.3-3.3c0-2-0.7-3.3-2.3-3.3C-3.6,21.6-4.3,22.8-4.3,24.9z"/>
		<path class="st11" d="M3.8,30h1.4c0.2,0.7,0.7,1.2,2.1,1.2c1.6,0,2.4-0.6,2.4-2.4v-1.2h0C9.2,28.3,8.2,29,6.9,29
			c-1.8,0-3.4-1.1-3.4-4.2c0-2.8,1.5-4.3,3.6-4.3c1.4,0,2.2,0.8,2.5,1.5h0v-1.3H11v8.2c0,2.4-1.6,3.4-3.8,3.4
			C5.6,32.3,4,31.7,3.8,30z M9.7,24.4c0-1.7-0.9-2.8-2.4-2.8c-1.5,0-2.2,1.3-2.2,3.2c0,1.9,0.5,3.1,2.3,3.1c1.4,0,2.3-1.2,2.3-2.6
			V24.4z"/>
		<path class="st11" d="M13.5,24.9c0-2.6,1.4-4.4,3.8-4.4c2.5,0,3.8,1.8,3.8,4.4c0,2.6-1.4,4.4-3.8,4.4
			C14.7,29.3,13.5,27.5,13.5,24.9z M15,24.9c0,2.1,0.7,3.3,2.3,3.3c1.6,0,2.3-1.2,2.3-3.3c0-2-0.7-3.3-2.3-3.3
			C15.7,21.6,15,22.8,15,24.9z"/>
		<path class="st11" d="M26.9,20.7h1.5l1.6,5.7c0.1,0.5,0.3,1.1,0.3,1.1h0c0,0,0.2-0.6,0.3-1.1l1.8-5.7h1.5l1.8,5.7
			c0.2,0.5,0.3,1.1,0.3,1.1h0c0,0,0.1-0.6,0.3-1.1l1.7-5.7h1.4l-2.6,8.4h-1.5l-1.5-5c-0.2-0.8-0.5-1.8-0.5-1.8h0c0,0-0.3,1-0.5,1.8
			l-1.6,5h-1.5L26.9,20.7z"/>
		<path class="st11" d="M41.4,17.2h1.5v1.6h-1.5V17.2z M41.4,20.7h1.5v8.4h-1.5V20.7z"/>
		<path class="st11" d="M47.8,18.2v2.4h2.1v1.1h-2.1v5c0,0.9,0.4,1.2,1.3,1.2c0.4,0,0.9-0.1,0.9-0.1v1.2c0,0-0.6,0.1-1.3,0.1
			c-1.6,0-2.3-0.8-2.3-2.2v-5.2h-1.5v-1.1h0.3c1.1,0,1.4-0.3,1.4-1.9v-0.6H47.8z"/>
		<path class="st11" d="M57.4,23.9c0-0.6,0-1.3-0.3-1.7c-0.3-0.4-0.8-0.6-1.3-0.6c-1.6,0-2.3,1-2.3,2.4v5.1H52V16.5h1.4v5.6h0
			c0.4-0.8,1.3-1.6,2.6-1.6c1.6,0,2.7,0.8,2.7,2.8v5.9h-1.4V23.9z"/>
		<path class="st11" d="M61.9,17.2h1.5v1.6h-1.5V17.2z M61.9,20.7h1.5v8.4h-1.5V20.7z"/>
		<path class="st11" d="M71.9,23.9c0-0.6,0-1.3-0.3-1.7c-0.3-0.4-0.8-0.6-1.3-0.6c-1.6,0-2.3,1-2.3,2.4v5.1h-1.4v-8.4h1.4v1.4h0
			c0.4-0.9,1.4-1.6,2.7-1.6c1.6,0,2.7,0.8,2.7,2.8v5.9h-1.4V23.9z"/>
		<path class="st11" d="M82.7,18.2v2.4h2.1v1.1h-2.1v5c0,0.9,0.4,1.2,1.3,1.2c0.4,0,0.9-0.1,0.9-0.1v1.2c0,0-0.6,0.1-1.3,0.1
			c-1.6,0-2.3-0.8-2.3-2.2v-5.2h-1.5v-1.1H80c1.1,0,1.4-0.3,1.4-1.9v-0.6H82.7z"/>
		<path class="st11" d="M92.2,23.9c0-0.6,0-1.3-0.3-1.7c-0.3-0.4-0.8-0.6-1.3-0.6c-1.6,0-2.3,1-2.3,2.4v5.1h-1.4V16.5h1.4v5.6h0
			c0.4-0.8,1.3-1.6,2.6-1.6c1.6,0,2.7,0.8,2.7,2.8v5.9h-1.4V23.9z"/>
		<path class="st11" d="M99.8,29.3c-2.6,0-3.8-1.9-3.8-4.4c0-2.5,1.3-4.5,3.8-4.5c2.5,0,3.5,2,3.5,4.1v0.7h-5.8
			c0.1,1.7,0.8,2.9,2.4,2.9c1.4,0,1.8-0.8,1.9-1.3h1.4C102.9,28.4,101.6,29.3,99.8,29.3z M101.8,24.1c0-1.4-0.6-2.5-2.1-2.5
			c-1.3,0-2.1,1.1-2.3,2.6L101.8,24.1L101.8,24.1z"/>
		<path class="st11" d="M115.2,23.2c-0.1-0.9-0.7-1.6-1.9-1.6c-1.5,0-2.3,1.3-2.3,3.3c0,2,0.6,3.3,2.3,3.3c1.6,0,2-1.2,2.1-1.8h1.3
			c-0.2,2-1.6,2.9-3.4,2.9c-2.4,0-3.7-1.7-3.7-4.4c0-2.6,1.4-4.5,3.8-4.5c1.7,0,3.2,0.8,3.3,2.8H115.2z"/>
		<path class="st11" d="M119,20.7h1.4v1.6h0c0.4-0.9,1.4-1.7,2.7-1.7h0.1V22h-0.3c-1.5,0-2.5,0.9-2.5,2.5v4.6H119V20.7z"/>
		<path class="st11" d="M124.5,24.9c0-2.6,1.4-4.4,3.8-4.4c2.5,0,3.8,1.8,3.8,4.4c0,2.6-1.4,4.4-3.8,4.4
			C125.8,29.3,124.5,27.5,124.5,24.9z M126,24.9c0,2.1,0.7,3.3,2.3,3.3c1.6,0,2.3-1.2,2.3-3.3c0-2-0.7-3.3-2.3-3.3
			C126.7,21.6,126,22.8,126,24.9z"/>
		<path class="st11" d="M134.5,20.7h1.4v1.4h0c0.5-0.9,1.4-1.6,2.7-1.6c1.8,0,3.4,1.1,3.4,4.3c0,3.1-1.6,4.5-3.5,4.5
			c-1.2,0-2.2-0.7-2.5-1.4h0v4.2h-1.4V20.7z M138.3,28.2c1.5,0,2.2-1.2,2.2-3.4c0-1.8-0.5-3.2-2.3-3.2c-1.5,0-2.4,1.3-2.4,2.7v0.9
			C135.9,26.9,136.7,28.2,138.3,28.2z"/>
		<path class="st11" d="M144.4,20.7h1.4v1.4h0c0.5-0.9,1.4-1.6,2.7-1.6c1.8,0,3.4,1.1,3.4,4.3c0,3.1-1.6,4.5-3.5,4.5
			c-1.2,0-2.2-0.7-2.5-1.4h0v4.2h-1.4V20.7z M148.2,28.2c1.5,0,2.2-1.2,2.2-3.4c0-1.8-0.5-3.2-2.3-3.2c-1.5,0-2.4,1.3-2.4,2.7v0.9
			C145.8,26.9,146.6,28.2,148.2,28.2z"/>
		<path class="st11" d="M154.3,17.2h1.5v1.6h-1.5V17.2z M154.3,20.7h1.5v8.4h-1.5V20.7z"/>
		<path class="st11" d="M164.3,23.9c0-0.6,0-1.3-0.3-1.7c-0.3-0.4-0.8-0.6-1.3-0.6c-1.6,0-2.3,1-2.3,2.4v5.1H159v-8.4h1.4v1.4h0
			c0.4-0.9,1.4-1.6,2.7-1.6c1.6,0,2.7,0.8,2.7,2.8v5.9h-1.4V23.9z"/>
		<path class="st11" d="M168.3,30h1.4c0.2,0.7,0.7,1.2,2.1,1.2c1.6,0,2.4-0.6,2.4-2.4v-1.2h0c-0.4,0.8-1.4,1.6-2.7,1.6
			c-1.8,0-3.4-1.1-3.4-4.2c0-2.8,1.5-4.3,3.6-4.3c1.4,0,2.2,0.8,2.5,1.5h0v-1.3h1.4v8.2c0,2.4-1.6,3.4-3.8,3.4
			C170.1,32.3,168.5,31.7,168.3,30z M174.2,24.4c0-1.7-0.9-2.8-2.4-2.8c-1.5,0-2.2,1.3-2.2,3.2c0,1.9,0.5,3.1,2.3,3.1
			c1.4,0,2.3-1.2,2.3-2.6V24.4z"/>
		<path class="st11" d="M182.7,30h1.4c0.2,0.7,0.7,1.2,2.1,1.2c1.6,0,2.4-0.6,2.4-2.4v-1.2h0c-0.4,0.8-1.4,1.6-2.7,1.6
			c-1.8,0-3.4-1.1-3.4-4.2c0-2.8,1.5-4.3,3.6-4.3c1.4,0,2.2,0.8,2.5,1.5h0v-1.3h1.4v8.2c0,2.4-1.6,3.4-3.8,3.4
			C184.6,32.3,182.9,31.7,182.7,30z M188.6,24.4c0-1.7-0.9-2.8-2.4-2.8c-1.5,0-2.2,1.3-2.2,3.2c0,1.9,0.5,3.1,2.3,3.1
			c1.4,0,2.3-1.2,2.3-2.6V24.4z"/>
		<path class="st11" d="M194.5,25.9c0,0.6,0,1.3,0.3,1.7c0.3,0.4,0.7,0.6,1.3,0.6c1.6,0,2.3-1,2.3-2.9v-4.6h1.4v8.4h-1.4v-1.4h0
			c-0.4,0.9-1.3,1.6-2.7,1.6c-1.6,0-2.7-0.8-2.7-2.8v-5.9h1.4V25.9z"/>
		<path class="st11" d="M202.9,17.2h1.5v1.6h-1.5V17.2z M203,20.7h1.5v8.4H203V20.7z"/>
		<path class="st11" d="M214.4,29.1H213v-1.4h0c-0.4,0.8-1.4,1.6-2.7,1.6c-1.8,0-3.4-1.1-3.4-4.4c0-2.9,1.5-4.5,3.6-4.5
			c1.3,0,2.1,0.7,2.4,1.5h0v-5.5h1.4V29.1z M213,24.6c0-1.8-0.9-2.9-2.3-2.9c-1.6,0-2.4,1.3-2.4,3.3c0,1.9,0.6,3.3,2.2,3.3
			c1.5,0,2.4-1.2,2.4-2.7V24.6z"/>
		<path class="st11" d="M220.6,29.3c-2.6,0-3.8-1.9-3.8-4.4c0-2.5,1.3-4.5,3.8-4.5c2.5,0,3.5,2,3.5,4.1v0.7h-5.8
			c0.1,1.7,0.8,2.9,2.4,2.9c1.4,0,1.8-0.8,1.9-1.3h1.4C223.7,28.4,222.4,29.3,220.6,29.3z M222.6,24.1c0-1.4-0.6-2.5-2.1-2.5
			c-1.3,0-2.1,1.1-2.3,2.6L222.6,24.1L222.6,24.1z"/>
		<path class="st11" d="M230.7,22.8c-0.1-0.8-0.7-1.2-1.7-1.2s-1.6,0.6-1.6,1.4c0,0.7,0.4,1,1.3,1.2l1.3,0.2c1.8,0.3,2.4,1,2.4,2.4
			c0,1.7-1.4,2.6-3.3,2.6c-1.7,0-3.2-0.8-3.3-2.6h1.4c0.1,0.7,0.4,1.5,1.9,1.5c1.2,0,1.9-0.5,1.9-1.4c0-0.7-0.2-1-1.3-1.2l-1.3-0.2
			c-1.5-0.2-2.3-0.9-2.3-2.3c0-1.5,1.1-2.6,3.1-2.6c1.8,0,2.9,0.8,3,2.3H230.7z"/>
		<path class="st11" d="M234.2,27.2h2v2h-2V27.2z"/>
		<path class="st11" d="M-105.7,53.2h4.5v1.3h-4.5V53.2z"/>
		<path class="st11" d="M-89.1,46.7c3,0,5.5,2,5.5,6.3c0,4.4-2.5,6.3-5.5,6.3c-3,0-5.5-2-5.5-6.3C-94.6,48.6-92,46.7-89.1,46.7z
			 M-85.1,53c0-3.4-1.6-5.2-4-5.2c-2.3,0-3.9,1.7-3.9,5.2c0,3.3,1.6,5.1,3.9,5.1C-86.8,58.2-85.1,56.3-85.1,53z"/>
		<path class="st11" d="M-79.4,55.9c0,0.6,0,1.3,0.3,1.7c0.3,0.4,0.7,0.6,1.3,0.6c1.6,0,2.3-1,2.3-2.9v-4.6h1.4v8.4h-1.4v-1.4h0
			c-0.4,0.9-1.3,1.6-2.7,1.6c-1.6,0-2.7-0.8-2.7-2.8v-5.9h1.4V55.9z"/>
		<path class="st11" d="M-69.2,48.2v2.4h2.1v1.1h-2.1v5c0,0.9,0.4,1.2,1.3,1.2c0.4,0,0.9-0.1,0.9-0.1v1.2c0,0-0.6,0.1-1.3,0.1
			c-1.6,0-2.3-0.8-2.3-2.2v-5.2h-1.5v-1.1h0.3c1.1,0,1.4-0.3,1.4-1.9v-0.6H-69.2z"/>
		<path class="st11" d="M-65,46.5h1.4v12.6H-65V46.5z"/>
		<path class="st11" d="M-60.4,47.2h1.5v1.6h-1.5V47.2z M-60.4,50.7h1.5v8.4h-1.5V50.7z"/>
		<path class="st11" d="M-50.4,53.9c0-0.6,0-1.3-0.3-1.7c-0.3-0.4-0.8-0.6-1.3-0.6c-1.6,0-2.3,1-2.3,2.4v5.1h-1.4v-8.4h1.4v1.4h0
			c0.4-0.9,1.4-1.6,2.7-1.6c1.6,0,2.7,0.8,2.7,2.8v5.9h-1.4V53.9z"/>
		<path class="st11" d="M-42.8,59.3c-2.6,0-3.8-1.9-3.8-4.4c0-2.5,1.3-4.5,3.8-4.5c2.5,0,3.5,2,3.5,4.1v0.7h-5.8
			c0.1,1.7,0.8,2.9,2.4,2.9c1.4,0,1.8-0.8,1.9-1.3h1.4C-39.7,58.4-41,59.3-42.8,59.3z M-40.8,54.1c0-1.4-0.6-2.5-2.1-2.5
			c-1.3,0-2.1,1.1-2.3,2.6L-40.8,54.1L-40.8,54.1z"/>
		<path class="st11" d="M-32.7,53c0-1.5,1.2-2.5,3.2-2.5c2.1,0,3.1,0.9,3.1,3.1V57c0,0.7,0.1,0.9,0.8,1v1.2h-0.2
			c-1.3,0-1.8-0.5-1.9-1.5h0c-0.4,1-1.5,1.6-2.7,1.6c-1.7,0-2.7-0.9-2.7-2.4c0-0.9,0.4-1.7,1.3-2.1c0.9-0.5,2.2-0.6,4.1-0.7v-0.4
			c0-1.5-0.6-2.1-1.8-2.1c-1.2,0-1.7,0.7-1.8,1.4H-32.7z M-27.8,55.3v-0.2c-1.8,0.1-2.9,0.2-3.4,0.6c-0.3,0.2-0.5,0.6-0.5,1
			c0,0.9,0.6,1.3,1.5,1.3C-29.1,58.1-27.8,57.4-27.8,55.3z"/>
		<path class="st11" d="M-23.4,46.5h1.4v12.6h-1.4V46.5z"/>
		<path class="st11" d="M-18.8,46.5h1.4v12.6h-1.4V46.5z"/>
		<path class="st11" d="M-7.9,59.1h-1.4v-7.3h-1.5v-1.1h1.5v-1.9c0-1.7,1-2.3,2.6-2.3c0.3,0,0.6,0,0.9,0.1v1.2
			c-0.2,0-0.4-0.1-0.8-0.1c-0.8,0-1.2,0.3-1.2,1.3v1.7h2v1.1h-2V59.1z"/>
		<path class="st11" d="M-4.7,54.9c0-2.6,1.4-4.4,3.8-4.4c2.5,0,3.8,1.8,3.8,4.4c0,2.6-1.4,4.4-3.8,4.4C-3.4,59.3-4.7,57.5-4.7,54.9
			z M-3.2,54.9c0,2.1,0.7,3.3,2.3,3.3c1.6,0,2.3-1.2,2.3-3.3c0-2-0.7-3.3-2.3-3.3C-2.5,51.6-3.2,52.8-3.2,54.9z"/>
		<path class="st11" d="M10.6,53.9c0-0.6,0-1.3-0.3-1.7C10,51.8,9.6,51.7,9,51.7c-1.6,0-2.3,1-2.3,2.4v5.1H5.3v-8.4h1.4v1.4h0
			c0.4-0.9,1.4-1.6,2.7-1.6c1.6,0,2.7,0.8,2.7,2.8v5.9h-1.4V53.9z"/>
		<path class="st11" d="M16.9,48.2v2.4H19v1.1h-2.1v5c0,0.9,0.4,1.2,1.3,1.2c0.4,0,0.9-0.1,0.9-0.1v1.2c0,0-0.6,0.1-1.3,0.1
			c-1.6,0-2.3-0.8-2.3-2.2v-5.2H14v-1.1h0.3c1.1,0,1.4-0.3,1.4-1.9v-0.6H16.9z"/>
		<path class="st11" d="M25.4,52.8c-0.1-0.8-0.7-1.2-1.7-1.2S22,52.1,22,52.9c0,0.7,0.4,1,1.3,1.2l1.3,0.2c1.8,0.3,2.4,1,2.4,2.4
			c0,1.7-1.4,2.6-3.3,2.6c-1.7,0-3.2-0.8-3.3-2.6h1.4c0.1,0.7,0.4,1.5,1.9,1.5c1.2,0,1.9-0.5,1.9-1.4c0-0.7-0.2-1-1.3-1.2L23,55.4
			c-1.5-0.2-2.3-0.9-2.3-2.3c0-1.5,1.1-2.6,3.1-2.6c1.8,0,2.9,0.8,3,2.3H25.4z"/>
		<path class="st11" d="M35.3,55.9c0,0.6,0,1.3,0.3,1.7c0.3,0.4,0.7,0.6,1.3,0.6c1.6,0,2.3-1,2.3-2.9v-4.6h1.4v8.4h-1.4v-1.4h0
			c-0.4,0.9-1.3,1.6-2.7,1.6c-1.6,0-2.7-0.8-2.7-2.8v-5.9h1.4V55.9z"/>
		<path class="st11" d="M48,52.8c-0.1-0.8-0.7-1.2-1.7-1.2s-1.6,0.6-1.6,1.4c0,0.7,0.4,1,1.3,1.2l1.3,0.2c1.8,0.3,2.4,1,2.4,2.4
			c0,1.7-1.4,2.6-3.3,2.6c-1.7,0-3.2-0.8-3.3-2.6h1.4c0.1,0.7,0.4,1.5,1.9,1.5c1.2,0,1.9-0.5,1.9-1.4c0-0.7-0.2-1-1.3-1.2l-1.3-0.2
			c-1.5-0.2-2.3-0.9-2.3-2.3c0-1.5,1.1-2.6,3.1-2.6c1.8,0,2.9,0.8,3,2.3H48z"/>
		<path class="st11" d="M55.2,59.3c-2.6,0-3.8-1.9-3.8-4.4c0-2.5,1.3-4.5,3.8-4.5c2.5,0,3.5,2,3.5,4.1v0.7h-5.8
			c0.1,1.7,0.8,2.9,2.4,2.9c1.4,0,1.8-0.8,1.9-1.3h1.4C58.2,58.4,57,59.3,55.2,59.3z M57.2,54.1c0-1.4-0.6-2.5-2.1-2.5
			c-1.3,0-2.1,1.1-2.3,2.6L57.2,54.1L57.2,54.1z"/>
		<path class="st11" d="M67.9,59.1h-1.4v-1.4h0c-0.4,0.8-1.4,1.6-2.7,1.6c-1.8,0-3.4-1.1-3.4-4.4c0-2.9,1.5-4.5,3.6-4.5
			c1.3,0,2.1,0.7,2.4,1.5h0v-5.5h1.4V59.1z M66.5,54.6c0-1.8-0.9-2.9-2.3-2.9c-1.6,0-2.4,1.3-2.4,3.3c0,1.9,0.6,3.3,2.2,3.3
			c1.5,0,2.4-1.2,2.4-2.7V54.6z"/>
		<path class="st11" d="M75.6,47.2h1.5v1.6h-1.5V47.2z M75.6,50.7H77v8.4h-1.5V50.7z"/>
		<path class="st11" d="M85.6,53.9c0-0.6,0-1.3-0.3-1.7c-0.3-0.4-0.8-0.6-1.3-0.6c-1.6,0-2.3,1-2.3,2.4v5.1h-1.4v-8.4h1.4v1.4h0
			c0.4-0.9,1.4-1.6,2.7-1.6c1.6,0,2.7,0.8,2.7,2.8v5.9h-1.4V53.9z"/>
		<path class="st11" d="M93.7,50.7h1.4l1.8,5.3c0.3,0.8,0.4,1.3,0.4,1.3h0c0,0,0.1-0.5,0.4-1.3l1.7-5.3h1.4l-3.1,9
			c-0.7,1.9-1.2,2.7-3.1,2.7c-0.3,0-0.6,0-0.9-0.1V61c0.3,0.1,0.6,0.1,0.7,0.1c1.1,0,1.4-0.4,1.8-1.5l0.2-0.4L93.7,50.7z"/>
		<path class="st11" d="M102.3,54.9c0-2.6,1.4-4.4,3.8-4.4c2.5,0,3.8,1.8,3.8,4.4c0,2.6-1.4,4.4-3.8,4.4
			C103.5,59.3,102.3,57.5,102.3,54.9z M103.7,54.9c0,2.1,0.7,3.3,2.3,3.3c1.6,0,2.3-1.2,2.3-3.3c0-2-0.7-3.3-2.3-3.3
			C104.5,51.6,103.7,52.8,103.7,54.9z"/>
		<path class="st11" d="M113.6,55.9c0,0.6,0,1.3,0.3,1.7c0.3,0.4,0.7,0.6,1.3,0.6c1.6,0,2.3-1,2.3-2.9v-4.6h1.4v8.4h-1.4v-1.4h0
			c-0.4,0.9-1.3,1.6-2.7,1.6c-1.6,0-2.7-0.8-2.7-2.8v-5.9h1.4V55.9z"/>
		<path class="st11" d="M122.1,50.7h1.4v1.6h0c0.4-0.9,1.4-1.7,2.7-1.7h0.1V52h-0.3c-1.5,0-2.5,0.9-2.5,2.5v4.6h-1.4V50.7z"/>
		<path class="st11" d="M139.8,59.1h-1.4v-1.4h0c-0.4,0.8-1.4,1.6-2.7,1.6c-1.8,0-3.4-1.1-3.4-4.4c0-2.9,1.5-4.5,3.6-4.5
			c1.3,0,2.1,0.7,2.4,1.5h0v-5.5h1.4V59.1z M138.4,54.6c0-1.8-0.9-2.9-2.3-2.9c-1.6,0-2.4,1.3-2.4,3.3c0,1.9,0.6,3.3,2.2,3.3
			c1.5,0,2.4-1.2,2.4-2.7V54.6z"/>
		<path class="st11" d="M146.1,59.3c-2.6,0-3.8-1.9-3.8-4.4c0-2.5,1.3-4.5,3.8-4.5c2.5,0,3.5,2,3.5,4.1v0.7h-5.8
			c0.1,1.7,0.8,2.9,2.4,2.9c1.4,0,1.8-0.8,1.9-1.3h1.4C149.1,58.4,147.9,59.3,146.1,59.3z M148.1,54.1c0-1.4-0.6-2.5-2.1-2.5
			c-1.3,0-2.1,1.1-2.3,2.6L148.1,54.1L148.1,54.1z"/>
		<path class="st11" d="M156.1,52.8c-0.1-0.8-0.7-1.2-1.7-1.2s-1.6,0.6-1.6,1.4c0,0.7,0.4,1,1.3,1.2l1.3,0.2c1.8,0.3,2.4,1,2.4,2.4
			c0,1.7-1.4,2.6-3.3,2.6c-1.7,0-3.2-0.8-3.3-2.6h1.4c0.1,0.7,0.4,1.5,1.9,1.5c1.2,0,1.9-0.5,1.9-1.4c0-0.7-0.2-1-1.3-1.2l-1.3-0.2
			c-1.5-0.2-2.3-0.9-2.3-2.3c0-1.5,1.1-2.6,3.1-2.6c1.8,0,2.9,0.8,3,2.3H156.1z"/>
		<path class="st11" d="M160.2,47.2h1.5v1.6h-1.5V47.2z M160.2,50.7h1.5v8.4h-1.5V50.7z"/>
		<path class="st11" d="M164.3,60h1.4c0.2,0.7,0.7,1.2,2.1,1.2c1.6,0,2.4-0.6,2.4-2.4v-1.2h0c-0.4,0.8-1.4,1.6-2.7,1.6
			c-1.8,0-3.4-1.1-3.4-4.2c0-2.8,1.5-4.3,3.6-4.3c1.4,0,2.2,0.8,2.5,1.5h0v-1.3h1.4v8.2c0,2.4-1.6,3.4-3.8,3.4
			C166.2,62.3,164.5,61.7,164.3,60z M170.2,54.4c0-1.7-0.9-2.8-2.4-2.8c-1.5,0-2.2,1.3-2.2,3.2c0,1.9,0.5,3.1,2.3,3.1
			c1.4,0,2.3-1.2,2.3-2.6V54.4z"/>
		<path class="st11" d="M180.1,53.9c0-0.6,0-1.3-0.3-1.7c-0.3-0.4-0.8-0.6-1.3-0.6c-1.6,0-2.3,1-2.3,2.4v5.1h-1.4v-8.4h1.4v1.4h0
			c0.4-0.9,1.4-1.6,2.7-1.6c1.6,0,2.7,0.8,2.7,2.8v5.9h-1.4V53.9z"/>
		<path class="st11" d="M184.1,57.2h2v2h-2V57.2z"/>
		<path class="st11" d="M-105.7,83.2h4.5v1.3h-4.5V83.2z"/>
		<path class="st11" d="M-94,76.9h7.8v1.3h-6.3v4.1h5.8v1.3h-5.8v4.2h6.4v1.3H-94V76.9z"/>
		<path class="st11" d="M-81.5,84.8l-2.7-4.1h1.7l1.8,2.9h0l1.9-2.9h1.6l-2.7,4l2.9,4.4h-1.7l-2.1-3.3h0l-2.1,3.3h-1.6L-81.5,84.8z"
			/>
		<path class="st11" d="M-75,80.7h1.4v1.4h0c0.5-0.9,1.4-1.6,2.7-1.6c1.8,0,3.4,1.1,3.4,4.3c0,3.1-1.6,4.5-3.5,4.5
			c-1.2,0-2.2-0.7-2.5-1.4h0v4.2H-75V80.7z M-71.2,88.2c1.5,0,2.2-1.2,2.2-3.4c0-1.8-0.5-3.2-2.3-3.2c-1.5,0-2.4,1.3-2.4,2.7v0.9
			C-73.6,86.9-72.8,88.2-71.2,88.2z"/>
		<path class="st11" d="M-65.6,84.9c0-2.6,1.4-4.4,3.8-4.4c2.5,0,3.8,1.8,3.8,4.4c0,2.6-1.4,4.4-3.8,4.4
			C-64.3,89.3-65.6,87.5-65.6,84.9z M-64.1,84.9c0,2.1,0.7,3.3,2.3,3.3c1.6,0,2.3-1.2,2.3-3.3c0-2-0.7-3.3-2.3-3.3
			C-63.4,81.6-64.1,82.8-64.1,84.9z"/>
		<path class="st11" d="M-55.6,80.7h1.4v1.6h0c0.4-0.9,1.4-1.7,2.7-1.7h0.1V82h-0.3c-1.5,0-2.5,0.9-2.5,2.5v4.6h-1.4V80.7z"/>
		<path class="st11" d="M-47.2,78.2v2.4h2.1v1.1h-2.1v5c0,0.9,0.4,1.2,1.3,1.2c0.4,0,0.9-0.1,0.9-0.1v1.2c0,0-0.6,0.1-1.3,0.1
			c-1.6,0-2.3-0.8-2.3-2.2v-5.2h-1.5v-1.1h0.3c1.1,0,1.4-0.3,1.4-1.9v-0.6H-47.2z"/>
		<path class="st11" d="M-38.8,83c0-1.5,1.2-2.5,3.2-2.5c2.1,0,3.1,0.9,3.1,3.1V87c0,0.7,0.1,0.9,0.8,1v1.2h-0.2
			c-1.3,0-1.8-0.5-1.9-1.5h0c-0.4,1-1.5,1.6-2.7,1.6c-1.7,0-2.7-0.9-2.7-2.4c0-0.9,0.4-1.7,1.3-2.1c0.9-0.5,2.2-0.6,4.1-0.7v-0.4
			c0-1.5-0.6-2.1-1.8-2.1c-1.2,0-1.7,0.7-1.8,1.4H-38.8z M-33.9,85.3v-0.2c-1.8,0.1-2.9,0.2-3.4,0.6c-0.3,0.2-0.5,0.6-0.5,1
			c0,0.9,0.6,1.3,1.5,1.3C-35.3,88.1-33.9,87.4-33.9,85.3z"/>
		<path class="st11" d="M-24.1,83.9c0-0.6,0-1.3-0.3-1.7c-0.3-0.4-0.8-0.6-1.3-0.6c-1.6,0-2.3,1-2.3,2.4v5.1h-1.4v-8.4h1.4v1.4h0
			c0.4-0.9,1.4-1.6,2.7-1.6c1.6,0,2.7,0.8,2.7,2.8v5.9h-1.4V83.9z"/>
		<path class="st11" d="M-12.8,89.1h-1.4v-1.4h0c-0.4,0.8-1.4,1.6-2.7,1.6c-1.8,0-3.4-1.1-3.4-4.4c0-2.9,1.5-4.5,3.6-4.5
			c1.3,0,2.1,0.7,2.4,1.5h0v-5.5h1.4V89.1z M-14.2,84.6c0-1.8-0.9-2.9-2.3-2.9c-1.6,0-2.4,1.3-2.4,3.3c0,1.9,0.6,3.3,2.2,3.3
			c1.5,0,2.4-1.2,2.4-2.7V84.6z"/>
		<path class="st11" d="M-1,82.8c-0.1-0.8-0.7-1.2-1.7-1.2s-1.6,0.6-1.6,1.4c0,0.7,0.4,1,1.3,1.2l1.3,0.2c1.8,0.3,2.4,1,2.4,2.4
			c0,1.7-1.4,2.6-3.3,2.6c-1.7,0-3.2-0.8-3.3-2.6h1.4c0.1,0.7,0.4,1.5,1.9,1.5c1.2,0,1.9-0.5,1.9-1.4c0-0.7-0.2-1-1.3-1.2l-1.3-0.2
			c-1.5-0.2-2.3-0.9-2.3-2.3c0-1.5,1.1-2.6,3.1-2.6c1.8,0,2.9,0.8,3,2.3H-1z"/>
		<path class="st11" d="M4.4,85.9c0,0.6,0,1.3,0.3,1.7C5,88,5.4,88.1,6,88.1c1.6,0,2.3-1,2.3-2.9v-4.6h1.4v8.4H8.3v-1.4h0
			c-0.4,0.9-1.3,1.6-2.7,1.6c-1.6,0-2.7-0.8-2.7-2.8v-5.9h1.4V85.9z"/>
		<path class="st11" d="M12.9,76.5h1.4v5.6h0c0.5-0.9,1.4-1.6,2.7-1.6c1.8,0,3.4,1.1,3.4,4.3c0,3.1-1.6,4.5-3.5,4.5
			c-1.3,0-2.2-0.7-2.6-1.6h0v1.3h-1.4V76.5z M18.9,84.8c0-1.8-0.5-3.2-2.3-3.2c-1.5,0-2.4,1.3-2.4,2.7v0.9c0,1.7,0.8,3,2.4,3
			C18.2,88.2,18.9,87,18.9,84.8z"/>
		<path class="st11" d="M22.8,80.7h1.4v1.4h0c0.4-0.9,1.4-1.6,2.7-1.6c1.3,0,2.2,0.6,2.5,1.7h0c0.3-0.9,1.4-1.7,2.8-1.7
			c1.6,0,2.7,0.8,2.7,2.8v5.9h-1.4v-5.2c0-0.6,0-1.3-0.3-1.7c-0.3-0.4-0.8-0.5-1.3-0.5c-1.6,0-2.3,1-2.3,2.4v5.1h-1.4v-5.2
			c0-0.6,0-1.2-0.3-1.7c-0.3-0.4-0.8-0.6-1.3-0.6c-1.6,0-2.3,1-2.3,2.4v5.1h-1.4V80.7z"/>
		<path class="st11" d="M37.9,77.2h1.5v1.6h-1.5V77.2z M38,80.7h1.5v8.4H38V80.7z"/>
		<path class="st11" d="M44.4,78.2v2.4h2.1v1.1h-2.1v5c0,0.9,0.4,1.2,1.3,1.2c0.4,0,0.9-0.1,0.9-0.1v1.2c0,0-0.6,0.1-1.3,0.1
			c-1.6,0-2.3-0.8-2.3-2.2v-5.2h-1.5v-1.1h0.3c1.1,0,1.4-0.3,1.4-1.9v-0.6H44.4z"/>
		<path class="st11" d="M53.1,76.5h1.4v12.6h-1.4V76.5z"/>
		<path class="st11" d="M56.9,84.9c0-2.6,1.4-4.4,3.8-4.4c2.5,0,3.8,1.8,3.8,4.4c0,2.6-1.4,4.4-3.8,4.4
			C58.2,89.3,56.9,87.5,56.9,84.9z M58.4,84.9c0,2.1,0.7,3.3,2.3,3.3c1.6,0,2.3-1.2,2.3-3.3c0-2-0.7-3.3-2.3-3.3
			C59.2,81.6,58.4,82.8,58.4,84.9z"/>
		<path class="st11" d="M66.5,90h1.4c0.2,0.7,0.7,1.2,2.1,1.2c1.6,0,2.4-0.6,2.4-2.4v-1.2h0C71.9,88.3,71,89,69.7,89
			c-1.8,0-3.4-1.1-3.4-4.2c0-2.8,1.5-4.3,3.6-4.3c1.4,0,2.2,0.8,2.5,1.5h0v-1.3h1.4v8.2c0,2.4-1.6,3.4-3.8,3.4
			C68.4,92.3,66.7,91.7,66.5,90z M72.4,84.4c0-1.7-0.9-2.8-2.4-2.8c-1.5,0-2.2,1.3-2.2,3.2c0,1.9,0.5,3.1,2.3,3.1
			c1.4,0,2.3-1.2,2.3-2.6V84.4z"/>
		<path class="st11" d="M76.2,84.9c0-2.6,1.4-4.4,3.8-4.4c2.5,0,3.8,1.8,3.8,4.4c0,2.6-1.4,4.4-3.8,4.4
			C77.5,89.3,76.2,87.5,76.2,84.9z M77.7,84.9c0,2.1,0.7,3.3,2.3,3.3c1.6,0,2.3-1.2,2.3-3.3c0-2-0.7-3.3-2.3-3.3
			C78.5,81.6,77.7,82.8,77.7,84.9z"/>
		<path class="st11" d="M90.4,82.8c-0.1-0.8-0.7-1.2-1.7-1.2s-1.6,0.6-1.6,1.4c0,0.7,0.4,1,1.3,1.2l1.3,0.2c1.8,0.3,2.4,1,2.4,2.4
			c0,1.7-1.4,2.6-3.3,2.6c-1.7,0-3.2-0.8-3.3-2.6h1.4c0.1,0.7,0.4,1.5,1.9,1.5c1.2,0,1.9-0.5,1.9-1.4c0-0.7-0.2-1-1.3-1.2l-1.3-0.2
			c-1.5-0.2-2.3-0.9-2.3-2.3c0-1.5,1.1-2.6,3.1-2.6c1.8,0,2.9,0.8,3,2.3H90.4z"/>
		<path class="st11" d="M98.7,83c0-1.5,1.2-2.5,3.2-2.5c2.1,0,3.1,0.9,3.1,3.1V87c0,0.7,0.1,0.9,0.8,1v1.2h-0.2
			c-1.3,0-1.8-0.5-1.9-1.5h0c-0.4,1-1.5,1.6-2.7,1.6c-1.7,0-2.7-0.9-2.7-2.4c0-0.9,0.4-1.7,1.3-2.1c0.9-0.5,2.2-0.6,4.1-0.7v-0.4
			c0-1.5-0.6-2.1-1.8-2.1c-1.2,0-1.7,0.7-1.8,1.4H98.7z M103.6,85.3v-0.2c-1.8,0.1-2.9,0.2-3.4,0.6c-0.3,0.2-0.5,0.6-0.5,1
			c0,0.9,0.6,1.3,1.5,1.3C102.2,88.1,103.6,87.4,103.6,85.3z"/>
		<path class="st11" d="M109.8,78.2v2.4h2.1v1.1h-2.1v5c0,0.9,0.4,1.2,1.3,1.2c0.4,0,0.9-0.1,0.9-0.1v1.2c0,0-0.6,0.1-1.3,0.1
			c-1.6,0-2.3-0.8-2.3-2.2v-5.2h-1.5v-1.1h0.3c1.1,0,1.4-0.3,1.4-1.9v-0.6H109.8z"/>
		<path class="st11" d="M120.3,80.4h-2.4v-1h0.4c0.8,0,1.4-0.2,1.7-0.6c0.4-0.4,0.5-0.8,0.5-1.6h1.2v11.9h-1.5V80.4z"/>
		<path class="st11" d="M129.3,77.1c2.6,0,4.3,2,4.3,6.1c0,4.1-1.7,6.1-4.3,6.1c-2.6,0-4.2-2-4.2-6.1
			C125,79.1,126.7,77.1,129.3,77.1z M132,83.3c0-3.3-1-5-2.7-5c-1.7,0-2.7,1.6-2.7,5c0,3.3,1,4.9,2.7,4.9
			C130.9,88.2,132,86.5,132,83.3z"/>
		<path class="st11" d="M140.2,77.1c2.6,0,4.3,2,4.3,6.1c0,4.1-1.7,6.1-4.3,6.1c-2.6,0-4.2-2-4.2-6.1
			C136,79.1,137.7,77.1,140.2,77.1z M142.9,83.3c0-3.3-1-5-2.7-5c-1.7,0-2.7,1.6-2.7,5c0,3.3,1,4.9,2.7,4.9
			C141.9,88.2,142.9,86.5,142.9,83.3z"/>
		<path class="st11" d="M151.2,77.1c2.6,0,4.3,2,4.3,6.1c0,4.1-1.7,6.1-4.3,6.1c-2.6,0-4.2-2-4.2-6.1
			C146.9,79.1,148.6,77.1,151.2,77.1z M153.9,83.3c0-3.3-1-5-2.7-5c-1.7,0-2.7,1.6-2.7,5c0,3.3,1,4.9,2.7,4.9
			C152.8,88.2,153.9,86.5,153.9,83.3z"/>
		<path class="st11" d="M158.2,80.7h1.4v1.4h0c0.5-0.9,1.4-1.6,2.7-1.6c1.8,0,3.4,1.1,3.4,4.3c0,3.1-1.6,4.5-3.5,4.5
			c-1.2,0-2.2-0.7-2.5-1.4h0v4.2h-1.4V80.7z M162,88.2c1.5,0,2.2-1.2,2.2-3.4c0-1.8-0.5-3.2-2.3-3.2c-1.5,0-2.4,1.3-2.4,2.7v0.9
			C159.6,86.9,160.4,88.2,162,88.2z"/>
		<path class="st11" d="M169.7,84.8l-2.7-4.1h1.7l1.8,2.9h0l1.9-2.9h1.6l-2.7,4l2.9,4.4h-1.7l-2.1-3.3h0l-2.1,3.3h-1.6L169.7,84.8z"
			/>
		<path class="st11" d="M184.9,82.8c-0.1-0.8-0.7-1.2-1.7-1.2s-1.6,0.6-1.6,1.4c0,0.7,0.4,1,1.3,1.2l1.3,0.2c1.8,0.3,2.4,1,2.4,2.4
			c0,1.7-1.4,2.6-3.3,2.6c-1.7,0-3.2-0.8-3.3-2.6h1.4c0.1,0.7,0.4,1.5,1.9,1.5c1.2,0,1.9-0.5,1.9-1.4c0-0.7-0.2-1-1.3-1.2l-1.3-0.2
			c-1.5-0.2-2.3-0.9-2.3-2.3c0-1.5,1.1-2.6,3.1-2.6c1.8,0,2.9,0.8,3,2.3H184.9z"/>
		<path class="st11" d="M195.8,92.1h-1.4v-4.3h0c-0.4,0.8-1.3,1.5-2.6,1.5c-1.8,0-3.4-1.1-3.4-4.4c0-2.9,1.5-4.5,3.6-4.5
			c1.3,0,2.1,0.7,2.4,1.5h0v-1.3h1.4V92.1z M194.4,85.5v-0.9c0-1.8-0.9-2.9-2.3-2.9c-1.6,0-2.4,1.3-2.4,3.3c0,1.9,0.6,3.3,2.2,3.3
			C193.5,88.2,194.4,87,194.4,85.5z"/>
		<path class="st11" d="M200.3,85.9c0,0.6,0,1.3,0.3,1.7c0.3,0.4,0.7,0.6,1.3,0.6c1.6,0,2.3-1,2.3-2.9v-4.6h1.4v8.4h-1.4v-1.4h0
			c-0.4,0.9-1.3,1.6-2.7,1.6c-1.6,0-2.7-0.8-2.7-2.8v-5.9h1.4V85.9z"/>
		<path class="st11" d="M208.4,83c0-1.5,1.2-2.5,3.2-2.5c2.1,0,3.1,0.9,3.1,3.1V87c0,0.7,0.1,0.9,0.8,1v1.2h-0.2
			c-1.3,0-1.8-0.5-1.9-1.5h0c-0.4,1-1.5,1.6-2.7,1.6c-1.7,0-2.7-0.9-2.7-2.4c0-0.9,0.4-1.7,1.3-2.1c0.9-0.5,2.2-0.6,4.1-0.7v-0.4
			c0-1.5-0.6-2.1-1.8-2.1c-1.2,0-1.7,0.7-1.8,1.4H208.4z M213.3,85.3v-0.2c-1.8,0.1-2.9,0.2-3.4,0.6c-0.3,0.2-0.5,0.6-0.5,1
			c0,0.9,0.6,1.3,1.5,1.3C212,88.1,213.3,87.4,213.3,85.3z"/>
		<path class="st11" d="M217.7,80.7h1.4v1.6h0c0.4-0.9,1.4-1.7,2.7-1.7h0.1V82h-0.3c-1.5,0-2.5,0.9-2.5,2.5v4.6h-1.4V80.7z"/>
		<path class="st11" d="M227,89.3c-2.6,0-3.8-1.9-3.8-4.4c0-2.5,1.3-4.5,3.8-4.5c2.5,0,3.5,2,3.5,4.1v0.7h-5.8
			c0.1,1.7,0.8,2.9,2.4,2.9c1.4,0,1.8-0.8,1.9-1.3h1.4C230.1,88.4,228.9,89.3,227,89.3z M229,84.1c0-1.4-0.6-2.5-2.1-2.5
			c-1.3,0-2.1,1.1-2.3,2.6L229,84.1L229,84.1z"/>
		<path class="st11" d="M239.2,78.2v2.4h2.1v1.1h-2.1v5c0,0.9,0.4,1.2,1.3,1.2c0.4,0,0.9-0.1,0.9-0.1v1.2c0,0-0.6,0.1-1.3,0.1
			c-1.6,0-2.3-0.8-2.3-2.2v-5.2h-1.5v-1.1h0.3c1.1,0,1.4-0.3,1.4-1.9v-0.6H239.2z"/>
		<path class="st11" d="M242.8,84.9c0-2.6,1.4-4.4,3.8-4.4c2.5,0,3.8,1.8,3.8,4.4c0,2.6-1.4,4.4-3.8,4.4
			C244.1,89.3,242.8,87.5,242.8,84.9z M244.3,84.9c0,2.1,0.7,3.3,2.3,3.3c1.6,0,2.3-1.2,2.3-3.3c0-2-0.7-3.3-2.3-3.3
			C245.1,81.6,244.3,82.8,244.3,84.9z"/>
		<path class="st11" d="M252.5,80.7h2v2h-2V80.7z M252.5,89.1v-2h2v2H252.5z"/>
		<path class="st11" d="M-87.7,113.2h4.5v1.3h-4.5V113.2z"/>
		<path class="st11" d="M-77.2,119.2v-1.3h0.3c2.6,0,3-0.7,3-2.5v-8.5h1.5v8.7c0,2.6-1.4,3.6-4.1,3.6H-77.2z"/>
		<path class="st11" d="M-67.5,114.4v4.7H-69v-12.2h3.7c2.4,0,4.2,1.1,4.2,3.8c0,2.6-1.8,3.8-4.3,3.8H-67.5z M-65.4,113.2
			c1.8,0,2.8-0.9,2.8-2.6c0-1.8-1-2.6-2.8-2.6h-2.1v5.2H-65.4z"/>
		<path class="st11" d="M-57.6,113.1c0,3.2,1.4,5.1,3.9,5.1c2.3,0,3.7-1.3,3.7-3.7v-0.2h-3.5v-1.3h5v6.2h-1.3v-1.8H-50
			c-0.6,1.1-1.8,2-3.8,2c-3.1,0-5.4-2-5.4-6.3c0-4,2.4-6.4,5.6-6.4c2.5,0,4.3,1.3,4.6,3.4h-1.6c-0.2-1.4-1.5-2.2-3.1-2.2
			C-56.3,107.9-57.6,110-57.6,113.1z"/>
		<path class="st11" d="M-45.5,117.1h1.8L-45,121h-1L-45.5,117.1z"/>
		<path class="st11" d="M-35.4,114.4v4.7h-1.5v-12.2h3.7c2.4,0,4.2,1.1,4.2,3.8c0,2.6-1.8,3.8-4.3,3.8H-35.4z M-33.3,113.2
			c1.8,0,2.8-0.9,2.8-2.6c0-1.8-1-2.6-2.8-2.6h-2.1v5.2H-33.3z"/>
		<path class="st11" d="M-26.5,106.9h1.9l5.4,9.1c0.4,0.7,0.6,1.2,0.6,1.2h0v-10.3h1.4v12.2H-19l-5.4-9.1c-0.5-0.8-0.6-1.2-0.6-1.2
			h0v10.3h-1.4V106.9z"/>
		<path class="st11" d="M-12.6,113.1c0,3.2,1.4,5.1,3.9,5.1c2.3,0,3.7-1.3,3.7-3.7v-0.2h-3.5v-1.3h5v6.2h-1.3v-1.8H-5
			c-0.6,1.1-1.8,2-3.8,2c-3.1,0-5.4-2-5.4-6.3c0-4,2.4-6.4,5.6-6.4c2.5,0,4.3,1.3,4.6,3.4h-1.6c-0.2-1.4-1.5-2.2-3.1-2.2
			C-11.3,107.9-12.6,110-12.6,113.1z"/>
		<path class="st11" d="M-0.6,110.7h2v2h-2V110.7z M-0.6,119.1v-2h2v2H-0.6z"/>
		<path class="st11" d="M12.6,112.8c-0.1-0.8-0.7-1.2-1.7-1.2s-1.6,0.6-1.6,1.4c0,0.7,0.4,1,1.3,1.2l1.3,0.2c1.8,0.3,2.4,1,2.4,2.4
			c0,1.7-1.4,2.6-3.3,2.6c-1.7,0-3.2-0.8-3.3-2.6h1.4c0.1,0.7,0.4,1.5,1.9,1.5c1.2,0,1.9-0.5,1.9-1.4c0-0.7-0.2-1-1.3-1.2l-1.3-0.2
			c-1.5-0.2-2.3-0.9-2.3-2.3c0-1.5,1.1-2.6,3.1-2.6c1.8,0,2.9,0.8,3,2.3H12.6z"/>
		<path class="st11" d="M19.8,119.3c-2.6,0-3.8-1.9-3.8-4.4c0-2.5,1.3-4.5,3.8-4.5c2.5,0,3.5,2,3.5,4.1v0.7h-5.8
			c0.1,1.7,0.8,2.9,2.4,2.9c1.4,0,1.8-0.8,1.9-1.3h1.4C22.9,118.4,21.6,119.3,19.8,119.3z M21.8,114.1c0-1.4-0.6-2.5-2.1-2.5
			c-1.3,0-2.1,1.1-2.3,2.6L21.8,114.1L21.8,114.1z"/>
		<path class="st11" d="M27.5,108.2v2.4h2.1v1.1h-2.1v5c0,0.9,0.4,1.2,1.3,1.2c0.4,0,0.9-0.1,0.9-0.1v1.2c0,0-0.6,0.1-1.3,0.1
			c-1.6,0-2.3-0.8-2.3-2.2v-5.2h-1.5v-1.1h0.3c1.1,0,1.4-0.3,1.4-1.9v-0.6H27.5z"/>
		<path class="st11" d="M38,108.2v2.4h2.1v1.1H38v5c0,0.9,0.4,1.2,1.3,1.2c0.4,0,0.9-0.1,0.9-0.1v1.2c0,0-0.6,0.1-1.3,0.1
			c-1.6,0-2.3-0.8-2.3-2.2v-5.2H35v-1.1h0.3c1.1,0,1.4-0.3,1.4-1.9v-0.6H38z"/>
		<path class="st11" d="M41.6,114.9c0-2.6,1.4-4.4,3.8-4.4c2.5,0,3.8,1.8,3.8,4.4c0,2.6-1.4,4.4-3.8,4.4
			C42.9,119.3,41.6,117.5,41.6,114.9z M43.1,114.9c0,2.1,0.7,3.3,2.3,3.3c1.6,0,2.3-1.2,2.3-3.3c0-2-0.7-3.3-2.3-3.3
			C43.8,111.6,43.1,112.8,43.1,114.9z"/>
		<path class="st11" d="M56.1,110.7h1.4v1.4h0c0.4-0.9,1.4-1.6,2.7-1.6c1.3,0,2.2,0.6,2.5,1.7h0c0.3-0.9,1.4-1.7,2.8-1.7
			c1.6,0,2.7,0.8,2.7,2.8v5.9h-1.4v-5.2c0-0.6,0-1.3-0.3-1.7c-0.3-0.4-0.8-0.5-1.3-0.5c-1.6,0-2.3,1-2.3,2.4v5.1h-1.4v-5.2
			c0-0.6,0-1.2-0.3-1.7c-0.3-0.4-0.8-0.6-1.3-0.6c-1.6,0-2.3,1-2.3,2.4v5.1h-1.4V110.7z"/>
		<path class="st11" d="M70.9,113c0-1.5,1.2-2.5,3.2-2.5c2.1,0,3.1,0.9,3.1,3.1v3.4c0,0.7,0.1,0.9,0.8,1v1.2h-0.2
			c-1.3,0-1.8-0.5-1.9-1.5h0c-0.4,1-1.5,1.6-2.7,1.6c-1.7,0-2.7-0.9-2.7-2.4c0-0.9,0.4-1.7,1.3-2.1c0.9-0.5,2.2-0.6,4.1-0.7v-0.4
			c0-1.5-0.6-2.1-1.8-2.1c-1.2,0-1.7,0.7-1.8,1.4H70.9z M75.8,115.3v-0.2c-1.8,0.1-2.9,0.2-3.4,0.6c-0.3,0.2-0.5,0.6-0.5,1
			c0,0.9,0.6,1.3,1.5,1.3C74.5,118.1,75.8,117.4,75.8,115.3z"/>
		<path class="st11" d="M81.9,114.8l-2.7-4.1H81l1.8,2.9h0l1.9-2.9h1.6l-2.7,4l2.9,4.4h-1.7l-2.1-3.3h0l-2.1,3.3h-1.6L81.9,114.8z"
			/>
		<path class="st11" d="M88.5,107.2H90v1.6h-1.5V107.2z M88.5,110.7H90v8.4h-1.5V110.7z"/>
		<path class="st11" d="M93.2,110.7h1.4v1.4h0c0.4-0.9,1.4-1.6,2.7-1.6c1.3,0,2.2,0.6,2.5,1.7h0c0.3-0.9,1.4-1.7,2.8-1.7
			c1.6,0,2.7,0.8,2.7,2.8v5.9h-1.4v-5.2c0-0.6,0-1.3-0.3-1.7c-0.3-0.4-0.8-0.5-1.3-0.5c-1.6,0-2.3,1-2.3,2.4v5.1h-1.4v-5.2
			c0-0.6,0-1.2-0.3-1.7c-0.3-0.4-0.8-0.6-1.3-0.6c-1.6,0-2.3,1-2.3,2.4v5.1h-1.4V110.7z"/>
		<path class="st11" d="M109.7,115.9c0,0.6,0,1.3,0.3,1.7c0.3,0.4,0.7,0.6,1.3,0.6c1.6,0,2.3-1,2.3-2.9v-4.6h1.4v8.4h-1.4v-1.4h0
			c-0.4,0.9-1.3,1.6-2.7,1.6c-1.6,0-2.7-0.8-2.7-2.8v-5.9h1.4V115.9z"/>
		<path class="st11" d="M118.2,110.7h1.4v1.4h0c0.4-0.9,1.4-1.6,2.7-1.6c1.3,0,2.2,0.6,2.5,1.7h0c0.3-0.9,1.4-1.7,2.8-1.7
			c1.6,0,2.7,0.8,2.7,2.8v5.9h-1.4v-5.2c0-0.6,0-1.3-0.3-1.7c-0.3-0.4-0.8-0.5-1.3-0.5c-1.6,0-2.3,1-2.3,2.4v5.1h-1.4v-5.2
			c0-0.6,0-1.2-0.3-1.7c-0.3-0.4-0.8-0.6-1.3-0.6c-1.6,0-2.3,1-2.3,2.4v5.1h-1.4V110.7z"/>
		<path class="st11" d="M144.7,122.1h-1.4v-4.3h0c-0.4,0.8-1.3,1.5-2.6,1.5c-1.8,0-3.4-1.1-3.4-4.4c0-2.9,1.5-4.5,3.6-4.5
			c1.3,0,2.1,0.7,2.4,1.5h0v-1.3h1.4V122.1z M143.3,115.5v-0.9c0-1.8-0.9-2.9-2.3-2.9c-1.6,0-2.4,1.3-2.4,3.3c0,1.9,0.6,3.3,2.2,3.3
			C142.4,118.2,143.3,117,143.3,115.5z"/>
		<path class="st11" d="M149.2,115.9c0,0.6,0,1.3,0.3,1.7c0.3,0.4,0.7,0.6,1.3,0.6c1.6,0,2.3-1,2.3-2.9v-4.6h1.4v8.4h-1.4v-1.4h0
			c-0.4,0.9-1.3,1.6-2.7,1.6c-1.6,0-2.7-0.8-2.7-2.8v-5.9h1.4V115.9z"/>
		<path class="st11" d="M157.3,113c0-1.5,1.2-2.5,3.2-2.5c2.1,0,3.1,0.9,3.1,3.1v3.4c0,0.7,0.1,0.9,0.8,1v1.2h-0.2
			c-1.3,0-1.8-0.5-1.9-1.5h0c-0.4,1-1.5,1.6-2.7,1.6c-1.7,0-2.7-0.9-2.7-2.4c0-0.9,0.4-1.7,1.3-2.1c0.9-0.5,2.2-0.6,4.1-0.7v-0.4
			c0-1.5-0.6-2.1-1.8-2.1c-1.2,0-1.7,0.7-1.8,1.4H157.3z M162.2,115.3v-0.2c-1.8,0.1-2.9,0.2-3.4,0.6c-0.3,0.2-0.5,0.6-0.5,1
			c0,0.9,0.6,1.3,1.5,1.3C160.8,118.1,162.2,117.4,162.2,115.3z"/>
		<path class="st11" d="M166.6,106.5h1.4v12.6h-1.4V106.5z"/>
		<path class="st11" d="M171.2,107.2h1.5v1.6h-1.5V107.2z M171.2,110.7h1.5v8.4h-1.5V110.7z"/>
		<path class="st11" d="M177.6,108.2v2.4h2.1v1.1h-2.1v5c0,0.9,0.4,1.2,1.3,1.2c0.4,0,0.9-0.1,0.9-0.1v1.2c0,0-0.6,0.1-1.3,0.1
			c-1.6,0-2.3-0.8-2.3-2.2v-5.2h-1.5v-1.1h0.3c1.1,0,1.4-0.3,1.4-1.9v-0.6H177.6z"/>
		<path class="st11" d="M181.1,110.7h1.4l1.8,5.3c0.3,0.8,0.4,1.3,0.4,1.3h0c0,0,0.1-0.5,0.4-1.3l1.7-5.3h1.4l-3.1,9
			c-0.7,1.9-1.2,2.7-3.1,2.7c-0.3,0-0.6,0-0.9-0.1V121c0.3,0.1,0.6,0.1,0.7,0.1c1.1,0,1.4-0.4,1.8-1.5l0.2-0.4L181.1,110.7z"/>
		<path class="st11" d="M188.9,117.2h2v2h-2V117.2z"/>
		<path class="st11" d="M-87.7,143.2h4.5v1.3h-4.5V143.2z"/>
		<path class="st11" d="M-74.5,144.4v4.7h-1.5v-12.2h3.7c2.4,0,4.2,1.1,4.2,3.8c0,2.6-1.8,3.8-4.3,3.8H-74.5z M-72.4,143.2
			c1.8,0,2.8-0.9,2.8-2.6c0-1.8-1-2.6-2.8-2.6h-2.1v5.2H-72.4z"/>
		<path class="st11" d="M-65.6,136.9h3.8c3.3,0,5.9,1.6,5.9,6c0,4.3-2.4,6.3-5.7,6.3h-3.9V136.9z M-61.8,147.8
			c2.6,0,4.4-1.3,4.4-4.9c0-3.4-1.8-4.7-4.3-4.7h-2.4v9.7H-61.8z"/>
		<path class="st11" d="M-51.5,149.1H-53v-12.2h7.3v1.3h-5.8v4.4h5.3v1.3h-5.3V149.1z"/>
		<path class="st11" d="M-87.7,173.2h4.5v1.3h-4.5V173.2z"/>
		<path class="st11" d="M-75.9,166.9h7.8v1.3h-6.3v4.1h5.8v1.3h-5.8v4.2h6.4v1.3h-7.9V166.9z"/>
		<path class="st11" d="M-63.5,174.4v4.7H-65v-12.2h3.7c2.4,0,4.2,1.1,4.2,3.8c0,2.6-1.8,3.8-4.3,3.8H-63.5z M-61.4,173.2
			c1.8,0,2.8-0.9,2.8-2.6c0-1.8-1-2.6-2.8-2.6h-2.1v5.2H-61.4z"/>
		<path class="st11" d="M-48,170.2c-0.1-1.2-0.8-2.3-2.5-2.3c-1.7,0-2.6,0.9-2.6,2.1c0,1.1,0.6,1.8,2,2l1.7,0.3
			c2.4,0.4,3.2,1.6,3.2,3.3c0,2.2-1.5,3.7-4.5,3.7c-2.8,0-4.4-1.5-4.6-3.7h1.6c0.2,1.3,1.1,2.5,3.1,2.5c2.2,0,2.9-1.1,2.9-2.4
			c0-1.1-0.6-1.8-2.1-2l-1.7-0.3c-2.4-0.4-3.2-1.7-3.2-3.3c0-2,1.6-3.4,4.1-3.4c2.6,0,3.9,1.4,4,3.5H-48z"/>
		<path class="st11" d="M-43.7,170.7h2v2h-2V170.7z M-43.7,179.1v-2h2v2H-43.7z"/>
		<path class="st11" d="M-31.6,179.3c-2.6,0-3.8-1.9-3.8-4.4c0-2.5,1.3-4.5,3.8-4.5c2.5,0,3.5,2,3.5,4.1v0.7h-5.8
			c0.1,1.7,0.8,2.9,2.4,2.9c1.4,0,1.8-0.8,1.9-1.3h1.4C-28.5,178.4-29.8,179.3-31.6,179.3z M-29.6,174.1c0-1.4-0.6-2.5-2.1-2.5
			c-1.3,0-2.1,1.1-2.3,2.6L-29.6,174.1L-29.6,174.1z"/>
		<path class="st11" d="M-24.1,174.8l-2.7-4.1h1.7l1.8,2.9h0l1.9-2.9h1.6l-2.7,4l2.9,4.4h-1.7l-2.1-3.3h0l-2.1,3.3H-27L-24.1,174.8z
			"/>
		<path class="st11" d="M-17.6,170.7h1.4v1.4h0c0.5-0.9,1.4-1.6,2.7-1.6c1.8,0,3.4,1.1,3.4,4.3c0,3.1-1.6,4.5-3.5,4.5
			c-1.2,0-2.2-0.7-2.5-1.4h0v4.2h-1.4V170.7z M-13.8,178.2c1.5,0,2.2-1.2,2.2-3.4c0-1.8-0.5-3.2-2.3-3.2c-1.5,0-2.4,1.3-2.4,2.7v0.9
			C-16.2,176.9-15.4,178.2-13.8,178.2z"/>
		<path class="st11" d="M-8.2,174.9c0-2.6,1.4-4.4,3.8-4.4c2.5,0,3.8,1.8,3.8,4.4c0,2.6-1.4,4.4-3.8,4.4
			C-6.9,179.3-8.2,177.5-8.2,174.9z M-6.7,174.9c0,2.1,0.7,3.3,2.3,3.3c1.6,0,2.3-1.2,2.3-3.3c0-2-0.7-3.3-2.3-3.3
			C-6,171.6-6.7,172.8-6.7,174.9z"/>
		<path class="st11" d="M1.8,170.7h1.4v1.6h0c0.4-0.9,1.4-1.7,2.7-1.7H6v1.5H5.7c-1.5,0-2.5,0.9-2.5,2.5v4.6H1.8V170.7z"/>
		<path class="st11" d="M10.2,168.2v2.4h2.1v1.1h-2.1v5c0,0.9,0.4,1.2,1.3,1.2c0.4,0,0.9-0.1,0.9-0.1v1.2c0,0-0.6,0.1-1.3,0.1
			c-1.6,0-2.3-0.8-2.3-2.2v-5.2H7.2v-1.1h0.3c1.1,0,1.4-0.3,1.4-1.9v-0.6H10.2z"/>
		<path class="st11" d="M23.3,173.9h-2.7v5.2h-1.5v-12.2h4.4c0.9,0,1.7,0.2,2.4,0.5c1,0.5,1.6,1.5,1.6,2.9c0,2.3-1.5,3.1-2.6,3.4v0
			l2.7,5.4h-1.7L23.3,173.9z M23.4,172.7c1.4,0,2.5-0.7,2.5-2.4c0-1.5-1-2.2-2.4-2.2h-2.9v4.6H23.4z"/>
		<path class="st11" d="M31.2,173.1c0,3.2,1.4,5.1,3.9,5.1c2.3,0,3.7-1.3,3.7-3.7v-0.2h-3.5v-1.3h5v6.2h-1.3v-1.8h-0.1
			c-0.6,1.1-1.8,2-3.8,2c-3.1,0-5.4-2-5.4-6.3c0-4,2.4-6.4,5.6-6.4c2.5,0,4.3,1.3,4.6,3.4h-1.6c-0.2-1.4-1.5-2.2-3.1-2.2
			C32.6,167.9,31.2,170,31.2,173.1z"/>
		<path class="st11" d="M43.6,179.1v-12.2h4.8c2.1,0,3.8,1,3.8,3c0,1.5-0.8,2.4-2.2,2.7v0c1.5,0.3,2.6,1.5,2.6,2.9
			c0,2.8-2.1,3.6-4.5,3.6H43.6z M48.2,172c1.3,0,2.5-0.5,2.5-2c0-1.3-0.9-1.9-2.3-1.9h-3.2v4H48.2z M48.1,177.9c1.8,0,3-0.6,3-2.4
			c0-1.6-1.2-2.2-3.1-2.2h-2.8v4.7H48.1z"/>
		<path class="st11" d="M61.8,181.2c-0.9-1.8-2.1-4.1-2.1-7.3c0-3.2,1.2-5.5,2.1-7.3h1.1c-0.9,2-1.7,4.1-1.7,7.3
			c0,3.3,0.8,5.4,1.7,7.3H61.8z"/>
		<path class="st11" d="M71.9,179.1h-1.4v-1.4h0c-0.4,0.8-1.4,1.6-2.7,1.6c-1.8,0-3.4-1.1-3.4-4.4c0-2.9,1.5-4.5,3.6-4.5
			c1.3,0,2.1,0.7,2.4,1.5h0v-5.5h1.4V179.1z M70.5,174.6c0-1.8-0.9-2.9-2.3-2.9c-1.6,0-2.4,1.3-2.4,3.3c0,1.9,0.6,3.3,2.2,3.3
			c1.5,0,2.4-1.2,2.4-2.7V174.6z"/>
		<path class="st11" d="M75,167.2h1.5v1.6H75V167.2z M75,170.7h1.5v8.4H75V170.7z"/>
		<path class="st11" d="M79.1,180h1.4c0.2,0.7,0.7,1.2,2.1,1.2c1.6,0,2.4-0.6,2.4-2.4v-1.2h0c-0.4,0.8-1.4,1.6-2.7,1.6
			c-1.8,0-3.4-1.1-3.4-4.2c0-2.8,1.5-4.3,3.6-4.3c1.4,0,2.2,0.8,2.5,1.5h0v-1.3h1.4v8.2c0,2.4-1.6,3.4-3.8,3.4
			C80.9,182.3,79.3,181.7,79.1,180z M85,174.4c0-1.7-0.9-2.8-2.4-2.8c-1.5,0-2.2,1.3-2.2,3.2c0,1.9,0.5,3.1,2.3,3.1
			c1.4,0,2.3-1.2,2.3-2.6V174.4z"/>
		<path class="st11" d="M89.5,167.2H91v1.6h-1.5V167.2z M89.6,170.7H91v8.4h-1.5V170.7z"/>
		<path class="st11" d="M96,168.2v2.4H98v1.1H96v5c0,0.9,0.4,1.2,1.3,1.2c0.4,0,0.9-0.1,0.9-0.1v1.2c0,0-0.6,0.1-1.3,0.1
			c-1.6,0-2.3-0.8-2.3-2.2v-5.2H93v-1.1h0.3c1.1,0,1.4-0.3,1.4-1.9v-0.6H96z"/>
		<path class="st11" d="M100.5,173c0-1.5,1.2-2.5,3.2-2.5c2.1,0,3.1,0.9,3.1,3.1v3.4c0,0.7,0.1,0.9,0.8,1v1.2h-0.2
			c-1.3,0-1.8-0.5-1.9-1.5h0c-0.4,1-1.5,1.6-2.7,1.6c-1.7,0-2.7-0.9-2.7-2.4c0-0.9,0.4-1.7,1.3-2.1c0.9-0.5,2.2-0.6,4.1-0.7v-0.4
			c0-1.5-0.6-2.1-1.8-2.1c-1.2,0-1.7,0.7-1.8,1.4H100.5z M105.4,175.3v-0.2c-1.8,0.1-2.9,0.2-3.4,0.6c-0.3,0.2-0.5,0.6-0.5,1
			c0,0.9,0.6,1.3,1.5,1.3C104,178.1,105.4,177.4,105.4,175.3z"/>
		<path class="st11" d="M109.8,166.5h1.4v12.6h-1.4V166.5z"/>
		<path class="st11" d="M115.2,173.8c0-3.3-0.8-5.4-1.7-7.3h1.1c0.9,1.8,2.1,4.1,2.1,7.3c0,3.2-1.2,5.5-2.1,7.3h-1.1
			C114.4,179.2,115.2,177.1,115.2,173.8z"/>
		<path class="st11" d="M124.1,173c0-1.5,1.2-2.5,3.2-2.5c2.1,0,3.1,0.9,3.1,3.1v3.4c0,0.7,0.1,0.9,0.8,1v1.2h-0.2
			c-1.3,0-1.8-0.5-1.9-1.5h0c-0.4,1-1.5,1.6-2.7,1.6c-1.7,0-2.7-0.9-2.7-2.4c0-0.9,0.4-1.7,1.3-2.1c0.9-0.5,2.2-0.6,4.1-0.7v-0.4
			c0-1.5-0.6-2.1-1.8-2.1c-1.2,0-1.7,0.7-1.8,1.4H124.1z M128.9,175.3v-0.2c-1.8,0.1-2.9,0.2-3.4,0.6c-0.3,0.2-0.5,0.6-0.5,1
			c0,0.9,0.6,1.3,1.5,1.3C127.6,178.1,128.9,177.4,128.9,175.3z"/>
		<path class="st11" d="M138.7,173.9c0-0.6,0-1.3-0.3-1.7c-0.3-0.4-0.8-0.6-1.3-0.6c-1.6,0-2.3,1-2.3,2.4v5.1h-1.4v-8.4h1.4v1.4h0
			c0.4-0.9,1.4-1.6,2.7-1.6c1.6,0,2.7,0.8,2.7,2.8v5.9h-1.4V173.9z"/>
		<path class="st11" d="M150,179.1h-1.4v-1.4h0c-0.4,0.8-1.4,1.6-2.7,1.6c-1.8,0-3.4-1.1-3.4-4.4c0-2.9,1.5-4.5,3.6-4.5
			c1.3,0,2.1,0.7,2.4,1.5h0v-5.5h1.4V179.1z M148.6,174.6c0-1.8-0.9-2.9-2.3-2.9c-1.6,0-2.4,1.3-2.4,3.3c0,1.9,0.6,3.3,2.2,3.3
			c1.5,0,2.4-1.2,2.4-2.7V174.6z"/>
		<path class="st11" d="M158.9,173c0,3.2,1.4,5.1,3.9,5.1c2.2,0,3.1-1.5,3.2-2.8h1.5c-0.2,2.3-2,4.1-4.7,4.1c-3.2,0-5.4-2.1-5.4-6.3
			c0-4,2.3-6.3,5.5-6.3c2.1,0,4.4,1.1,4.7,3.8h-1.6c-0.2-1.2-1.2-2.6-3.1-2.6C160.3,167.9,158.9,170,158.9,173z"/>
		<path class="st11" d="M170.3,166.9h2.3l3.1,8.8c0.4,1.1,0.5,1.6,0.5,1.6h0c0,0,0.2-0.5,0.5-1.6l3.2-8.8h2.2v12.2h-1.5v-10.5h0
			c0,0-0.2,0.6-0.7,1.9l-3.1,8.6h-1.4l-3-8.6c-0.4-1.3-0.7-1.9-0.7-1.9h0v10.5h-1.4V166.9z"/>
		<path class="st11" d="M188.5,173.9l-4.3-7h1.7l3.3,5.7h0l3.4-5.7h1.6l-4.3,6.9v5.3h-1.5V173.9z"/>
		<path class="st11" d="M197.8,179.1h-1.5v-12.2h1.5v6.3l5.7-6.3h1.8l-4.7,5.1l5,7.1h-1.8l-4.3-6l-1.8,2V179.1z"/>
		<path class="st11" d="M214.4,181.2c-0.9-1.8-2.1-4.1-2.1-7.3c0-3.2,1.2-5.5,2.1-7.3h1.1c-0.9,2-1.7,4.1-1.7,7.3
			c0,3.3,0.8,5.4,1.7,7.3H214.4z"/>
		<path class="st11" d="M217.7,170.7h1.4v1.4h0c0.5-0.9,1.4-1.6,2.7-1.6c1.8,0,3.4,1.1,3.4,4.3c0,3.1-1.6,4.5-3.5,4.5
			c-1.2,0-2.2-0.7-2.5-1.4h0v4.2h-1.4V170.7z M221.5,178.2c1.5,0,2.2-1.2,2.2-3.4c0-1.8-0.5-3.2-2.3-3.2c-1.5,0-2.4,1.3-2.4,2.7v0.9
			C219.1,176.9,219.9,178.2,221.5,178.2z"/>
		<path class="st11" d="M227.7,170.7h1.4v1.6h0c0.4-0.9,1.4-1.7,2.7-1.7h0.1v1.5h-0.3c-1.5,0-2.5,0.9-2.5,2.5v4.6h-1.4V170.7z"/>
		<path class="st11" d="M234.1,167.2h1.5v1.6h-1.5V167.2z M234.1,170.7h1.5v8.4h-1.5V170.7z"/>
		<path class="st11" d="M244.1,173.9c0-0.6,0-1.3-0.3-1.7c-0.3-0.4-0.8-0.6-1.3-0.6c-1.6,0-2.3,1-2.3,2.4v5.1h-1.4v-8.4h1.4v1.4h0
			c0.4-0.9,1.4-1.6,2.7-1.6c1.6,0,2.7,0.8,2.7,2.8v5.9h-1.4V173.9z"/>
		<path class="st11" d="M250.4,168.2v2.4h2.1v1.1h-2.1v5c0,0.9,0.4,1.2,1.3,1.2c0.4,0,0.9-0.1,0.9-0.1v1.2c0,0-0.6,0.1-1.3,0.1
			c-1.6,0-2.3-0.8-2.3-2.2v-5.2h-1.5v-1.1h0.3c1.1,0,1.4-0.3,1.4-1.9v-0.6H250.4z"/>
		<path class="st11" d="M255.7,173.8c0-3.3-0.8-5.4-1.7-7.3h1.1c0.9,1.8,2.1,4.1,2.1,7.3c0,3.2-1.2,5.5-2.1,7.3H254
			C254.9,179.2,255.7,177.1,255.7,173.8z"/>
		<path class="st11" d="M263.7,170.7h1.5l1.8,5.4c0.2,0.7,0.4,1.3,0.4,1.3h0c0,0,0.2-0.6,0.4-1.3l1.9-5.4h1.4l-2.9,8.4h-1.5
			L263.7,170.7z"/>
		<path class="st11" d="M276.2,179.3c-2.6,0-3.8-1.9-3.8-4.4c0-2.5,1.3-4.5,3.8-4.5c2.5,0,3.5,2,3.5,4.1v0.7h-5.8
			c0.1,1.7,0.8,2.9,2.4,2.9c1.4,0,1.8-0.8,1.9-1.3h1.4C279.2,178.4,278,179.3,276.2,179.3z M278.2,174.1c0-1.4-0.6-2.5-2.1-2.5
			c-1.3,0-2.1,1.1-2.3,2.6L278.2,174.1L278.2,174.1z"/>
		<path class="st11" d="M282,170.7h1.4v1.6h0c0.4-0.9,1.4-1.7,2.7-1.7h0.1v1.5h-0.3c-1.5,0-2.5,0.9-2.5,2.5v4.6H282V170.7z"/>
		<path class="st11" d="M292.4,172.8c-0.1-0.8-0.7-1.2-1.7-1.2s-1.6,0.6-1.6,1.4c0,0.7,0.4,1,1.3,1.2l1.3,0.2c1.8,0.3,2.4,1,2.4,2.4
			c0,1.7-1.4,2.6-3.3,2.6c-1.7,0-3.2-0.8-3.3-2.6h1.4c0.1,0.7,0.4,1.5,1.9,1.5c1.2,0,1.9-0.5,1.9-1.4c0-0.7-0.2-1-1.3-1.2l-1.3-0.2
			c-1.5-0.2-2.3-0.9-2.3-2.3c0-1.5,1.1-2.6,3.1-2.6c1.8,0,2.9,0.8,3,2.3H292.4z"/>
		<path class="st11" d="M296.5,167.2h1.5v1.6h-1.5V167.2z M296.5,170.7h1.5v8.4h-1.5V170.7z"/>
		<path class="st11" d="M300.4,174.9c0-2.6,1.4-4.4,3.8-4.4c2.5,0,3.8,1.8,3.8,4.4c0,2.6-1.4,4.4-3.8,4.4
			C301.7,179.3,300.4,177.5,300.4,174.9z M301.9,174.9c0,2.1,0.7,3.3,2.3,3.3c1.6,0,2.3-1.2,2.3-3.3c0-2-0.7-3.3-2.3-3.3
			C302.6,171.6,301.9,172.8,301.9,174.9z"/>
		<path class="st11" d="M315.7,173.9c0-0.6,0-1.3-0.3-1.7c-0.3-0.4-0.8-0.6-1.3-0.6c-1.6,0-2.3,1-2.3,2.4v5.1h-1.4v-8.4h1.4v1.4h0
			c0.4-0.9,1.4-1.6,2.7-1.6c1.6,0,2.7,0.8,2.7,2.8v5.9h-1.4V173.9z"/>
		<path class="st11" d="M324.4,172.8c-0.1-0.8-0.7-1.2-1.7-1.2s-1.6,0.6-1.6,1.4c0,0.7,0.4,1,1.3,1.2l1.3,0.2c1.8,0.3,2.4,1,2.4,2.4
			c0,1.7-1.4,2.6-3.3,2.6c-1.7,0-3.2-0.8-3.3-2.6h1.4c0.1,0.7,0.4,1.5,1.9,1.5c1.2,0,1.9-0.5,1.9-1.4c0-0.7-0.2-1-1.3-1.2l-1.3-0.2
			c-1.5-0.2-2.3-0.9-2.3-2.3c0-1.5,1.1-2.6,3.1-2.6c1.8,0,2.9,0.8,3,2.3H324.4z"/>
		<path class="st11" d="M328,177.2h2v2h-2V177.2z"/>
	</g>
</g>
</svg>
