<?xml version="1.0" encoding="utf-8"?>
<!-- Generator: Adobe Illustrator 24.1.0, SVG Export Plug-In . SVG Version: 6.00 Build 0)  -->
<svg version="1.1" id="Layer_1" xmlns="http://www.w3.org/2000/svg" xmlns:xlink="http://www.w3.org/1999/xlink" x="0px" y="0px"
	 viewBox="0 0 32 32" style="enable-background:new 0 0 32 32;" xml:space="preserve">
<style type="text/css">
	.st0{fill:#182232;}
	.st1{fill:url(#SVGID_1_);}
</style>
<circle class="st0" cx="16" cy="16" r="16"/>
<radialGradient id="SVGID_1_" cx="16.08" cy="15.82" r="16.0411" fx="15.6848" fy="15.5126" gradientUnits="userSpaceOnUse">
	<stop  offset="0" style="stop-color:#02DDEC"/>
	<stop  offset="1" style="stop-color:#016E9F"/>
</radialGradient>
<path class="st1" d="M24.2,14.6c0.4,0,1.3-0.1,1.6-0.4c0.5-0.5,0.6-1-0.4-2.1c-0.5-0.5-1.2-1.1-2-1.5c1-1.9,1.5-3.6,1.8-4.8
	c0,0-0.5,1.9-2.2,4.6c-0.7-0.3-1.5-0.6-2-0.7c-0.6-0.1-1.5-0.3-2.5-0.4c-0.2-0.4-1.2-2.2-2-3.3c-1-1.2-1.4-1.6-2.4-2.1
	c0,0-1.4-0.4-2.2,1.1s-0.7,3-0.7,3s0,0.2,0,0.5c-0.8-1.4-1.5-1.4-1.5-1.4c-1.5,0.1-1.7,2.5-1.7,3.8c0,0,0,0.1,0,0.1
	c-4,0.1-5.2,0.9-5.2,0.9s0.6-0.3,3.9-0.3c0.4,0,0.9,0,1.3,0C8.2,12.8,8.6,14,8.6,14c0.1,0.5,0.4,1.2,0.7,1.9c-0.4,0.7-3.2,5.4-2.2,7
	c1.1,1.7,3.8,0.5,3.8,0.5s0.5-0.2,1.4-0.7c-0.4,0.7-0.8,1.8-0.1,2.3c1,0.7,3.2-0.4,3.3-0.5c0,0,0.3-0.2,0.7-0.4
	c0.5,0.8,1.1,1.8,1.7,2.5c1,1.1,0.9,1.2,1.8,1.6c0,0-1-1-2-2.6c-0.4-0.6-0.7-1.3-1-1.8c0.8-0.6,2-1.6,2.9-2.8
	c0.1-0.2,0.2-0.3,0.4-0.5l0.4,0.1C26.5,20.7,27,19,27,19C27.8,17.2,25.8,15.6,24.2,14.6z M24.1,12.6c0,0,1.4,1.5-0.6,1.6
	c-0.6-0.3-1.1-0.5-1.1-0.5s-0.2-0.1-0.6-0.2c0.4-0.6,0.7-1.2,1-1.7C23.4,12,23.8,12.3,24.1,12.6z M14.7,19.4
	c-0.1-0.2-0.1-0.4-0.2-0.6c-0.5-1.7-1.1-3.6-1.4-5.6c0-0.3-0.1-0.7-0.1-1c1.3,0.2,2.6,0.5,4,0.9c1.2,0.4,2.2,0.8,3.2,1.2
	c-1.2,1.4-2.6,2.8-4.3,4.2C15.8,18.5,15.3,18.9,14.7,19.4z M22.4,11.4c-0.3,0.5-0.7,1-1.1,1.6c0-0.1-0.1-0.2-0.1-0.2
	c-0.6-0.9-1.4-1.5-1.4-1.5s0.6,0.7,1.1,1.8c-1.6-0.6-4.4-1.4-7.9-1.8c0-0.2,0-0.4,0-0.5c0.5-0.3,1.1-0.6,1.8-0.7
	C17.5,9.5,20.4,10.3,22.4,11.4z M14.7,6.5c0.7,0.1,1.5,0.7,2.6,2.6c-1,0-2.1,0.1-3.3,0.4c-0.4,0.1-0.8,0.3-1.1,0.5
	c0.1-1.2,0.2-2.2,0.5-2.4C13.4,7.6,14,6.4,14.7,6.5z M10.3,8.6c0.3-0.2,0.7,0.3,1,0.7c0,0.6,0.1,1.3,0.1,1.7c0,0-0.1,0-0.1,0
	C10.5,11,9.9,11,9.3,11C9.3,9.1,9.8,8.9,10.3,8.6z M9.3,11.7c0.6,0,1.2,0.1,1.8,0.2c-0.6,1.1-0.8,2.2-0.7,2.9c0,0,0.2-1.4,1.1-2.6
	c0.2,1.2,0.6,3.2,0.9,4c0.4,1,1.2,3.4,1.2,3.4s0.1,0.2,0.2,0.5c-0.1,0.1-0.3,0.2-0.4,0.3c-1.5-0.8-2.3-2.4-2.5-2.7
	c-0.3-0.5-1.4-2.9-1.6-5.5C9.3,11.8,9.3,11.7,9.3,11.7z M10,21.3c0,0-2.6,0.3-0.2-4.3l0-0.1c0.1,0.3,0.3,0.5,0.4,0.7
	c0.4,0.7,1.5,1.9,1.5,1.9c0.1,0.1,0.5,0.5,1.3,0.9C12,21,10.9,21.4,10,21.3z M14.5,23.6c-1.7,0.3-1.9-0.2-1.3-1.4
	c0.4-0.3,0.8-0.6,1.3-0.9c0.3,0.6,0.6,1.3,0.8,1.5c0.1,0.1,0.1,0.2,0.2,0.3C15.2,23.4,14.8,23.5,14.5,23.6z M16.1,22.8
	C16,22.6,16,22.5,16,22.5s-0.3-0.6-0.6-1.5c1.9,0,2.8-0.8,2.8-0.8c-1,0.5-2.3,0.4-2.3,0.4c-0.2,0-0.3,0-0.4,0c1-0.8,2.1-1.8,3.3-3.1
	c0.9-1,1.6-1.9,2.3-2.9c0.1,0.1,0.3,0.1,0.4,0.2c0,0.2,0,0.4,0,0.7c-0.2,2.3-1.6,3.8-2.1,4.4C18.9,20.4,17.5,21.9,16.1,22.8z
	 M23.2,19.2c-0.9,0.4-2,0.4-2.7,0.4c0.7-1.1,0.8-1.7,1.2-2.5c0.2-0.5,0.2-1.2,0.2-1.9c1,0.6,1.7,1.2,2,1.7
	C24.5,18.1,24.4,18.7,23.2,19.2z"/>
</svg>
