<?xml version="1.0" encoding="utf-8"?>
<!-- Generator: Adobe Illustrator 24.1.0, SVG Export Plug-In . SVG Version: 6.00 Build 0)  -->
<svg version="1.1" id="Layer_1" xmlns="http://www.w3.org/2000/svg" xmlns:xlink="http://www.w3.org/1999/xlink" x="0px" y="0px"
	 viewBox="0 0 32 32" style="enable-background:new 0 0 32 32;" xml:space="preserve">
<style type="text/css">
	.st0{fill:url(#SVGID_1_);}
	.st1{fill:url(#SVGID_2_);}
	.st2{fill:url(#SVGID_3_);}
	.st3{fill:url(#SVGID_4_);}
	.st4{fill:url(#SVGID_5_);}
</style>
<g>
	
		<linearGradient id="SVGID_1_" gradientUnits="userSpaceOnUse" x1="-2.393442e-02" y1="17.9807" x2="29.2394" y2="17.9807" gradientTransform="matrix(1 0 0 -1 0 34)">
		<stop  offset="0" style="stop-color:#CC1A1D"/>
		<stop  offset="0.5028" style="stop-color:#E05E49"/>
		<stop  offset="1" style="stop-color:#C21A1D"/>
	</linearGradient>
	<path class="st0" d="M24,19.1c-0.4-0.4-1-0.3-1.3,0.1c-1.5,2-4.3,3.3-6.7,3.3c-3.6,0-6.5-2.9-6.5-6.5s2.9-6.5,6.5-6.5
		c2.4,0,5.1,1.3,6.6,3.2c0.3,0.4,1,0.4,1.3,0l4.7-5.3c0.3-0.3,0.3-0.8,0-1.1c-3.2-4.1-8.4-6.7-14.1-6.2C6.7,0.7,0.4,7.3,0,15.1
		C-0.5,24.4,6.9,32,16,32c5.4,0,10.2-2.7,13.1-6.9c0.2-0.3,0.2-0.8-0.1-1.1L24,19.1z"/>
</g>
<g>
	
		<linearGradient id="SVGID_2_" gradientUnits="userSpaceOnUse" x1="3.2491" y1="10.2292" x2="21.8717" y2="15.1863" gradientTransform="matrix(1 0 0 -1 0 34)">
		<stop  offset="0" style="stop-color:#F1D6AD"/>
		<stop  offset="0.4749" style="stop-color:#E7B56D"/>
		<stop  offset="0.7822" style="stop-color:#C69154"/>
		<stop  offset="1" style="stop-color:#AD7540"/>
	</linearGradient>
	<path class="st1" d="M16.7,19.4l-1.4,0.5c-3.2,5.9-6.9,8-6.9,8s-1.5-0.6-2.5-1.5L7,25.6H5.1c0,0-2.2-1.2-2.9-4.2
		c0,0,4.2-0.4,7.7-4.9l0.9-0.2L16.7,19.4z"/>
	
		<linearGradient id="SVGID_3_" gradientUnits="userSpaceOnUse" x1="16.2767" y1="23.7813" x2="18.1524" y2="22.9775" gradientTransform="matrix(1 0 0 -1 0 34)">
		<stop  offset="0" style="stop-color:#0A8DD5"/>
		<stop  offset="0.5051" style="stop-color:#0A6BB1"/>
		<stop  offset="1" style="stop-color:#09468A"/>
	</linearGradient>
	<path class="st2" d="M19.8,6.8c-0.2,0.6-3.6,8.9-3.6,8.9l-2-0.9l4.1-8.4c0,0,0.2-0.5,1-0.4C19.3,6.1,19.9,6.3,19.8,6.8z"/>
	
		<linearGradient id="SVGID_4_" gradientUnits="userSpaceOnUse" x1="17.3956" y1="12.9909" x2="9.6251" y2="5.8232" gradientTransform="matrix(1 0 0 -1 0 34)">
		<stop  offset="0" style="stop-color:#E7B56D"/>
		<stop  offset="0.5852" style="stop-color:#C69154"/>
		<stop  offset="1" style="stop-color:#AD7540"/>
	</linearGradient>
	<path class="st3" d="M17.8,20.3c-0.3,1.1-1.5,5.4-4.7,7.6c0,0-1,0.3-2.3,0.2l0.3-0.4L10.6,28c0,0-1.5,0.2-2.2-0.1
		c0,0,3.6-2.1,6.9-8c0.1,0.1,0.2,0.1,0.2,0.1L17.8,20.3z"/>
	<linearGradient id="SVGID_5_" gradientUnits="userSpaceOnUse" x1="11.1526" y1="18.9299" x2="17.545" y2="15.8991">
		<stop  offset="0" style="stop-color:#0A8DD5"/>
		<stop  offset="0.2058" style="stop-color:#0A88D0"/>
		<stop  offset="0.4637" style="stop-color:#0A79C0"/>
		<stop  offset="0.7482" style="stop-color:#0961A7"/>
		<stop  offset="1" style="stop-color:#09468A"/>
	</linearGradient>
	<path class="st4" d="M18.3,16.8c0,0,0.2,0.1,0.3,0.3c0,0,0,0.1,0,0.1c-0.1,0.6-0.4,3-0.4,3h-0.4L15.4,20c0,0-0.1,0-0.1,0
		c0,0-0.1,0-0.1-0.1c-0.1-0.1-0.3-0.2-0.6-0.3c-0.5-0.3-4.2-2.7-4.7-3.1c0,0-0.1,0-0.1,0s-0.2-0.1,0-0.3s1.3-1.9,1.3-1.9
		s0.3-0.4,0.9-0.1c0.6,0.2,2.1,0.8,2.1,0.8l2,0.9"/>
</g>
</svg>
