<?xml version="1.0" encoding="utf-8"?>
<!-- Generator: Adobe Illustrator 24.1.0, SVG Export Plug-In . SVG Version: 6.00 Build 0)  -->
<svg version="1.1" id="Layer_1" xmlns="http://www.w3.org/2000/svg" xmlns:xlink="http://www.w3.org/1999/xlink" x="0px" y="0px"
	 viewBox="0 0 32 32" style="enable-background:new 0 0 32 32;" xml:space="preserve">
<style type="text/css">
	.st0{fill:#EA4335;}
	.st1{fill:#34A853;}
	.st2{fill:#FBBC05;}
	.st3{fill:#4285F4;}
</style>
<path class="st0" d="M30.2,8.7H16c-4.1,0-7.3,3.3-7.3,7.3c0,1.3,0.3,2.7,0.9,3.7L2.5,7.4C5.4,2.9,10.3,0,16,0
	C22.2,0,27.6,3.5,30.2,8.7z"/>
<path class="st1" d="M22.4,19.7L15.3,32C6.8,31.6,0,24.6,0,16c0-3.2,0.9-6.2,2.5-8.6l7.1,12.3l0,0c1.3,2.2,3.6,3.7,6.4,3.7
	C18.7,23.3,21.1,21.9,22.4,19.7z"/>
<path class="st2" d="M32,16c0,8.8-7.2,16-16,16c-0.3,0-0.5,0-0.7,0l7.1-12.3c0.6-1.1,1-2.3,1-3.7c0-4.1-3.3-7.3-7.3-7.3h14.2
	C31.4,10.9,32,13.4,32,16z"/>
<ellipse class="st3" cx="16" cy="16" rx="5.8" ry="5.8"/>
</svg>
