<?xml version="1.0" encoding="utf-8"?>
<!-- Generator: Adobe Illustrator 24.1.0, SVG Export Plug-In . SVG Version: 6.00 Build 0)  -->
<svg version="1.1" id="Layer_1" xmlns="http://www.w3.org/2000/svg" xmlns:xlink="http://www.w3.org/1999/xlink" x="0px" y="0px"
	 viewBox="0 0 32 32" style="enable-background:new 0 0 32 32;" xml:space="preserve">
<style type="text/css">
	.st0{fill:#579CF6;}
	.st1{fill:#FEFEFE;}
</style>
<circle class="st0" cx="16" cy="16" r="16"/>
<path class="st1" d="M25.8,15.6c-0.8-0.7-1.8-1-2.9-1.1c-0.1,0-0.2,0-0.2-0.2c-0.1-0.5-0.2-0.9-0.3-1.4c-1.1-3.1-4.3-5-7.5-4.4
	c-2.6,0.5-4.3,1.9-5.3,4.3C9.5,13,9.5,13,9.4,13c-0.4,0-0.7,0.1-1.1,0.2c-1.2,0.4-2.2,1.1-2.8,2.2c-2,3.4-0.1,7.1,3,8
	c0.4,0.1,0.7,0.2,1.2,0.2H23c0.3,0,0.4-0.1,0.6-0.1C27.1,22.8,28.8,18.5,25.8,15.6z M18.2,16.3v3.8h-4.4v-3.8h-2.3l4.5-4.5l4.5,4.5
	H18.2z"/>
<g id="Arrow_26">
</g>
</svg>
