<?xml version="1.0" encoding="utf-8"?>
<!-- Generator: Adobe Illustrator 24.1.0, SVG Export Plug-In . SVG Version: 6.00 Build 0)  -->
<svg version="1.1" xmlns="http://www.w3.org/2000/svg" xmlns:xlink="http://www.w3.org/1999/xlink" x="0px" y="0px"
	 viewBox="0 0 416.8 82.5" style="enable-background:new 0 0 416.8 82.5;" xml:space="preserve">
<style type="text/css">
	.st0{fill:#333333;}
	.st1{display:none;}
	.st2{display:inline;}
	.st3{clip-path:url(#SVGID_2_);}
	.st4{clip-path:url(#SVGID_4_);fill:#565656;}
	.st5{display:inline;opacity:0.5;fill:#CCCCCC;}
	.st6{clip-path:url(#SVGID_6_);}
	.st7{clip-path:url(#SVGID_8_);fill:#565656;}
	.st8{fill:#555655;}
	.st9{fill:#999999;}
	.st10{fill:#989898;}
</style>
<g id="Your_design">
	<path class="st0" d="M142.5,79.4c-0.1-1.2,0-2.4,0-3.6c-0.2-2.7-0.3-5.3-0.7-8c-1.3-8.8-3.8-17.1-9.6-24.1c-2.5-3-4.9-6.3-7-9.6
		c-2.1-3.1-3.8-6.4-3.9-10.4c0-0.7-0.1-1.4-0.3-2.1c-0.5-1.7-1.6-3.2-3.5-3.8c-1.9-0.6-3-1.9-4-3.3c-0.3-0.5-0.6-1-0.9-1.5
		c-0.9-1.5-1.7-3-2.3-4.6c-0.5-1.2-0.7-2.4-0.8-3.7c-0.1-0.9,0-1.9-0.6-2.6c-0.3-0.3-0.6-0.4-1-0.5c-0.8-0.2-1.7-0.1-2.6-0.2
		c-0.3,0-0.7,0-0.9,0.1c-0.5,0.2-0.6,0.8-0.7,1.3c-0.4,2.5-0.5,5-0.4,7.5c0.1,2.3,0.4,4.6,1,6.7c0.3,1.1,0.8,2.2,1.3,3.2
		c0.3,0.5,0.5,0.9,0.6,1.4c0.2,0.6,0.3,1.2,0.4,1.9c0.1,2.7,1,5.3,3.3,6.8c0.7,0.5,1.5,0.8,2.3,1.1c0.5,0.2,1,0.3,1.4,0.5
		c0.2,0.1,0.4,0.3,0.6,0.5c7.7,9.3,14.8,19.1,19.7,30.3c2.3,5.2,4.2,10.6,3.5,16.3c-0.3,2.6,0.5,3.1,2.6,3.4
		C142.6,82.8,142.6,81.3,142.5,79.4z M113.4,27.7C113.3,27.7,113.3,27.7,113.4,27.7c-1.3-0.1-2.5-0.9-2.9-2c-0.5-1.3,0-2.4,0.8-3.2
		c0.6-0.6,1.4-1,2.3-1c0.8,0,1.6,0.2,2.2,0.9c0,0,0,0,0.1,0.1c0.1,0.1,0.2,0.2,0.2,0.3c1.2,1.7,0.3,4.2-1.6,4.9
		c-0.2,0.1-0.4,0.1-0.7,0.1c-0.1,0-0.1,0-0.2,0H113.4z"/>
	<path class="st0" d="M123.4,2.9c-0.1-0.5-0.3-1.1-0.7-1.3c-0.3-0.1-0.6-0.1-0.9-0.1c-0.8,0.1-1.8,0-2.6,0.2c-0.4,0.1-0.7,0.2-1,0.5
		c-0.6,0.7-0.5,1.7-0.6,2.6c-0.2,1.3-0.4,2.5-0.8,3.7c-0.4,1.2-1,2.3-1.6,3.3c1.1,1.8,1.8,2.9,3.3,3.4c1.7,0.6,3.1,1.7,4.1,3.1
		c0.1-0.4,0.3-0.8,0.4-1.2c0.7-2.2,0.9-4.5,1-6.7C124,7.8,123.9,5.3,123.4,2.9z M111.5,34.2l-0.3-0.1c-1.2-0.4-2.1-0.8-3-1.4
		c-1.5-1-2.7-2.3-3.5-4c-0.7,1.9-1.8,3.6-2.9,5.4c-2.2,3.3-4.5,6.5-7,9.6c-5.8,7-8.4,15.3-9.6,24.1c-0.4,2.7-0.6,5.3-0.7,8
		c0,1.2,0,2.4,0,3.6c-0.1,1.9,0,3.4,2.6,3c2.1-0.3,3-0.8,2.6-3.4c-0.7-5.7,1.2-11.1,3.5-16.3C97.8,52.3,104.3,43,111.5,34.2z"/>
	<path class="st0" d="M114.5,24.5c0,0.2-0.1,0.3-0.2,0.5c-0.2,0.3-0.5,0.7-0.8,0.7c-0.3,0.1-0.7-0.1-0.9-0.3
		c-0.3-0.3-0.4-0.8-0.3-1.2c0.3-0.8,1.8-1.1,2.1-0.2C114.5,24.1,114.5,24.3,114.5,24.5z"/>
	<path class="st0" d="M81.4,52c5.3-0.8,10.7-1.2,16-1.5c5.3-0.3,10.7-0.5,16-0.6c5.3-0.1,10.7-0.1,16,0.1c5,0.1,10,0.4,15,0.9
		c0.6,0.1,1,0.6,1,1.2l0,0c0,0.6-0.4,1.2-1,1.2c-5,0.5-10,0.7-15,0.9c-5.3,0.1-10.7,0.2-16,0.1c-5.3-0.1-10.7-0.3-16-0.6
		C92,53.2,86.7,52.7,81.4,52z"/>
	<g>
		<path class="st0" d="M10.2,29.9V51c0,11.6,6.9,15.3,16.7,15.3c10,0,21.5-2.4,22.9-11.3c1.7,2.8,2.3,5.3,2.3,7.5
			c0,9.2-13.3,12.1-25.2,12.1C12.6,74.6,0,68.8,0,52.4V28.6C0,12.1,12.6,6.4,26.9,6.4c12.6,0,25,3.5,25,13c0,1.9-0.7,4.1-2.1,6.6
			c-1.1-8.1-12.9-11.3-22.9-11.3C17.1,14.7,10.2,18.3,10.2,29.9z"/>
		<path class="st0" d="M73.3,34.4v39.8c0,0-9.8,0-9.8-5.4V25.3c2.4,1.2,4.6,1.7,6.4,1.7c4,0,7.7-2,13-2c6.5,0,11.8,2.4,11.8,8.1
			c0,3.5-2.1,6.2-3.5,7.9c0-5.5-4.6-8-10-8C77.3,33.1,73.3,34.4,73.3,34.4z"/>
		<path class="st0" d="M149.4,15.7c0-9.8,10.6-15.7,21.2-15.7c9.2,0,17.2,3,17.2,8.9c0,2.3-1.2,4.4-3.5,6.4c0-5-6.9-7.4-13.5-7.4
			c-6.3,0-11.6,3.5-11.6,9.5v10.5h17.2c0,0-0.1,7.8-5.8,7.8h-11.4v38.4c0,0-9.8,0-9.8-5.3V15.7z"/>
		<path class="st0" d="M182,16.1c2.1,0,9.8,0.2,9.8,8.3v3.5H211c0,0-0.1,7.8-5.8,7.8h-13.5v20.6c0,6.4,2.1,10.5,9.2,10.5
			c6,0,11.5-2.9,11.5-9.8c2.1,2.7,3.3,5.1,3.3,7.6c0,6.1-6.5,10.1-16,10.1c-11.1,0-17.8-5.8-17.8-15.7V16.1z"/>
		<path class="st0" d="M238.9,24.8c10.6,0,18,2.9,18,9.2c0,2.2-0.9,5-3.2,8c0-6.1-5.8-9.2-14.4-9.2c-7.4,0-10.1,2.1-10.1,6.7
			c0,9.8,30-1.8,30,20.3c0,9-6.6,14.7-20.4,14.7c-11,0-19.1-3.2-19.1-9.7c0-2.3,1-5,3.6-8.1c0.2,7.4,7.3,9.9,15.4,9.9
			c5.9,0,10.4-2.3,10.4-7.2c0-11.7-30,0.5-30-19.5C219.3,30,226.2,24.8,238.9,24.8z"/>
		<path class="st0" d="M309.8,73.2c0,0-3.8,0.9-5.4,0.9c-11.8,0-4.6-20.9-26-23.4v23.4c0,0-9.8,0-9.8-5.3V2.9c0,0,9.8,0,9.8,5.3
			v34.8c7-0.5,10.4-4.7,14.9-13.4c1.2-2.2,3.7-4.2,8.4-4.2c1.5,0,3.2,0.3,4.7,0.7c-4.5,6.3-8.7,17.9-17.4,20.2
			C304.1,50.7,305.1,65,309.8,73.2z"/>
		<path class="st0" d="M315.9,8.2h7c1.1,0,2.7,1.2,2.7,2.3v7.1h-6.9c-1.4,0-2.8-1-2.8-2.2V8.2z M315.9,25.5c0.4,0,9.8,0,9.8,5.3
			v43.3c0,0-9.8,0-9.8-5.3V25.5z"/>
		<path class="st0" d="M337.4,2.9c0.6,0,9.8,0.1,9.8,5.3v49c0,5.3,0.8,13.9,6.6,13.9c-2.2,2.5-4.6,3-6.6,3c-6.7,0-9.8-6.4-9.8-13.9
			V2.9z"/>
		<path class="st0" d="M359.4,2.9c0.6,0,9.8,0.1,9.8,5.3v49c0,5.3,0.8,13.9,6.6,13.9c-2.2,2.5-4.6,3-6.6,3c-6.7,0-9.8-6.4-9.8-13.9
			V2.9z"/>
		<path class="st0" d="M379.4,34c0,0,0-7.8,5.8-7.8h31.2c-0.7,2.5-1,5.1-1.8,7.7c-4,13.9-21.7,23-25.7,31.9h27.8c0,0,0,7.8-5.9,7.8
			h-32.2c-0.4-1.7-0.4-2.5-0.4-3.3c0-15,20.4-22,26.5-36.2H379.4z"/>
	</g>
</g>
<g id="_x39_9d_logo" class="st1">
	<g class="st2">
		<defs>
			<path id="SVGID_1_" d="M-55.3-37.7C-39.6-64.9-5-74.3,22.2-58.5C49.3-42.8,58.6-7.9,42.9,19.4C27.2,46.6-7.4,56-34.5,40.2
				C-61.6,24.5-70.9-10.4-55.3-37.7z M161.1-37.7c15.7-27.3,50.3-36.6,77.4-20.9c27.1,15.7,36.4,50.6,20.7,77.9
				C243.7,46.6,209,56,181.9,40.2C154.8,24.5,145.5-10.4,161.1-37.7z M464.1,134.5c-11.2,11.3-25.5,16.9-42.9,16.9
				c-8.4,0-16.2-1.5-23.6-4.5c-7.3-3-13.5-7.1-18.7-12.4c-5.1-5.3-9.2-11.6-12.1-19c-3-7.4-4.4-15.4-4.4-24.2
				c0-8.5,1.5-16.4,4.4-23.7c3-7.4,7.1-13.6,12.4-18.8c5.3-5.2,11.6-9.2,18.9-12.2c7.3-3,15.3-4.5,24-4.5c8.4,0,16.2,1.5,23.3,4.5
				c7.1,3,13.4,7.1,18.6,12.4c5.3,5.3,9.4,11.5,12.4,18.5c3,7,4.4,14.8,4.4,23.2C480.9,108.7,475.3,123.2,464.1,134.5z M102,52
				c10.5,18.9,26.1,35.3,46.2,47c16.8,9.8,35,15,53.1,16.3l-54,94.1h80.8l64.4-112.2c0.5,16.2,3.4,31.2,8.5,44.9
				c5.8,15.3,13.8,28.5,24.3,39.6s22.8,19.8,37.1,26.1c14.3,6.3,30,9.4,47.1,9.4c16.2,0,29.8-2.6,40.8-7.7
				c11-5.2,21.2-13.5,30.6-25.1v24.9h66.3v-336h-70V-5.8c-9.6-9.4-19.9-16.4-30.8-20.9c-10.9-4.5-23.7-6.8-38.3-6.8
				c-16.5,0-31.8,3.1-45.9,9.4c-10.3,4.6-19.6,10.4-27.9,17.5c0.9-44-21.5-87.1-62-110.7c-59.4-34.5-135.3-14-169.5,45.7
				c-0.2,0.4-0.5,0.9-0.7,1.3c-10.5-18.9-26.1-35.3-46.2-47c-59.4-34.5-135.3-14-169.5,45.7C-147.9-11.8-127.6,64.5-68.2,99
				c16.8,9.8,35,15,53.1,16.3l-54,94.1h80.8l89.6-156C101.5,52.9,101.8,52.4,102,52L102,52z"/>
		</defs>
		<clipPath id="SVGID_2_">
			<use xlink:href="#SVGID_1_"  style="overflow:visible;"/>
		</clipPath>
		<g class="st3">
			<defs>
				<rect id="SVGID_3_" x="-677.1" y="-844.5" width="1770.8" height="1770.8"/>
			</defs>
			<clipPath id="SVGID_4_">
				<use xlink:href="#SVGID_3_"  style="overflow:visible;"/>
			</clipPath>
			<rect x="-141.4" y="-145.1" class="st4" width="699.6" height="373.2"/>
		</g>
	</g>
</g>
<g id="Guides">
</g>
<g id="TEMPLATE__x28_delete_x29_" class="st1">
	<path class="st5" d="M-291.6-458.8v1000h1000v-1000H-291.6z M508.4,341.2h-600v-600h600V341.2z"/>
	<g class="st2">
		<defs>
			<path id="SVGID_5_" d="M-44.1-163.8c2-3.5,6.4-4.6,9.8-2.6c3.4,2,4.6,6.4,2.6,9.9c-2,3.5-6.4,4.6-9.8,2.6
				C-44.9-156-46.1-160.4-44.1-163.8z M-15.5-163.8c2-3.5,6.4-4.6,9.8-2.6c3.4,2,4.6,6.4,2.6,9.9c-2,3.5-6.4,4.6-9.8,2.6
				C-16.3-156-17.5-160.4-15.5-163.8z M27.8-142c-1.4,1.4-3.2,2.1-5.4,2.1c-1.1,0-2.1-0.2-3-0.6c-0.9-0.4-1.7-0.9-2.4-1.6
				c-0.7-0.7-1.2-1.5-1.5-2.4c-0.4-0.9-0.6-2-0.6-3.1c0-1.1,0.2-2.1,0.6-3c0.4-0.9,0.9-1.7,1.6-2.4c0.7-0.7,1.5-1.2,2.4-1.5
				c0.9-0.4,1.9-0.6,3-0.6c1.1,0,2.1,0.2,3,0.6c0.9,0.4,1.7,0.9,2.4,1.6c0.7,0.7,1.2,1.5,1.6,2.3c0.4,0.9,0.6,1.9,0.6,2.9
				C29.9-145.3,29.2-143.4,27.8-142z M29.4-175.2v15.3c-1.2-1.2-2.5-2.1-3.9-2.7c-1.4-0.6-3-0.9-4.9-0.9c-2.1,0-4,0.4-5.8,1.2
				c-1.8,0.8-3.3,1.9-4.6,3.3c-1.3,1.4-2.3,3.1-3.1,5c-0.7,1.9-1.1,4-1.1,6.3c0,2.3,0.4,4.5,1.1,6.4c0.7,1.9,1.8,3.6,3.1,5
				c1.3,1.4,2.9,2.5,4.7,3.3c1.8,0.8,3.8,1.2,6,1.2c2.1,0,3.8-0.3,5.2-1c1.4-0.7,2.7-1.7,3.9-3.2v3.2h8.4v-42.6H29.4z M-23.6-166.8
				c0.2-0.4,0.4-0.9,0.7-1.3c4.3-7.6,14-10.2,21.5-5.8c7.5,4.4,10.1,14.1,5.8,21.6L-7-132.5h-10.2l6.8-11.9
				c-2.3-0.2-4.6-0.8-6.7-2.1c-2.9-1.7-5.1-4.2-6.4-7.1c-0.2,0.4-0.4,0.9-0.7,1.3l-11.4,19.8h-10.2l6.8-11.9
				c-2.3-0.2-4.6-0.8-6.7-2.1c-7.5-4.4-10.1-14.1-5.8-21.6c4.3-7.6,14-10.2,21.5-5.8C-27.1-172.2-24.9-169.7-23.6-166.8z
				 M49.1-150.5c0.4-1.7,1.1-2.9,2.3-3.8c1.2-0.9,2.6-1.3,4.3-1.3c1.7,0,3.2,0.5,4.4,1.4c1.2,0.9,2,2.2,2.3,3.7H49.1z M70-153.4
				c-0.8-2-1.9-3.7-3.3-5.1c-1.4-1.4-3-2.6-5-3.4c-1.9-0.8-4-1.2-6.2-1.2c-2.1,0-4.1,0.4-6,1.2c-1.9,0.8-3.5,2-4.9,3.4
				c-1.4,1.4-2.5,3.1-3.3,5c-0.8,1.9-1.2,4-1.2,6.2c0,2.2,0.4,4.3,1.2,6.2c0.8,1.9,1.9,3.6,3.3,5c1.4,1.4,3,2.5,4.9,3.4
				c1.9,0.8,3.9,1.2,6.1,1.2c3.1,0,6-0.9,8.5-2.7c2.4-1.7,4.3-4.1,5.7-7.1h-9.2c-0.9,0.9-1.8,1.5-2.6,1.8c-0.8,0.3-1.7,0.5-2.8,0.5
				c-1.8,0-3.2-0.5-4.4-1.5c-1.2-1-1.9-2.3-2.1-4H71C71.4-147.6,71.2-150.6,70-153.4z M95.6-153.8c-0.4-5.8-5-9.3-11.3-9.3
				c-6,0-11.5,3.8-11.5,9.6c0,3.5,2,6.4,9.4,8.7c4.4,1.4,5.4,2.2,5.4,3.9c0,1.4-1.5,2.3-3.1,2.3c-1.8,0-3.1-0.9-3.4-2.7h-8.8
				c0.6,6,5.4,9.8,12,9.8c6.7,0,12-3.9,12-10.1c0-4.3-2.3-7.1-9.3-9c-4.1-1.1-5.5-1.9-5.5-3.5c0-1.1,1.1-2,2.6-2
				c1.4,0,2.7,0.5,2.7,2.2H95.6z M103.3-165.3c2.9,0,5.3-2.4,5.3-5.3s-2.4-5.3-5.3-5.3c-2.9,0-5.3,2.4-5.3,5.3
				S100.4-165.3,103.3-165.3z M107.7-132.5h-8.8v-29.7h8.8V-132.5z M124.6-156.5c2.7,0,4.9,2.2,4.9,4.9c0,2.7-2.2,4.9-4.9,4.9
				c-2.7,0-4.9-2.2-4.9-4.9C119.7-154.3,121.9-156.5,124.6-156.5z M130.8-126.4c-1,1.4-2.9,1.9-4.5,1.9c-1.9,0.1-4.5-0.3-5.7-1.9
				c-1.2-1.5-1-3.6,0.7-4.6c0.5-0.3,1-0.5,1.5-0.6h4.4c1.9,0,4.4,0.5,4.3,2.9C131.5-127.9,131.2-127,130.8-126.4z M122.2-138.4
				c-3.6-0.6-3.5-2-2.6-2.7c8.2,3.1,18.1-0.8,18.2-10.3c0-3.5-1.3-5.7-2.2-6.7c0.7-1.4,1.6-2.2,3.4-2.6l-3.7-6.5
				c-3.4,0.3-5.6,2.4-6.6,4.5c-2-0.8-6.1-0.9-9.3,0.3c-1.6,0.6-3,1.4-4.2,2.5c-1.2,1-2.1,2.3-2.8,3.8c-0.7,1.5-1,3.1-1,4.8
				c0,2.3,0.7,4.9,2,6.8c-3.6,3.5-3.4,8.7,0.3,12c-0.4,0.3-0.8,0.6-1.1,1c-3.3,3.6-1.8,8.7,2.1,11.3c4.8,3.5,13.4,3.7,18.7,1.3
				c9.3-3.8,9.6-17.6-1.2-19.4C129.2-138.8,125.8-137.8,122.2-138.4z M141.2-132.5h8.9v-16.6c0-3.9,1.7-5.8,5-5.8
				c1.6,0,2.8,0.5,3.5,1.5c0.7,1,1.1,2.6,1.1,4.7v16.2h8.9v-18.6c0-1.2-0.1-2.2-0.1-3.1c-0.1-0.9-0.3-1.7-0.5-2.4
				c-0.2-0.7-0.5-1.3-0.9-1.9c-0.4-0.6-0.9-1.1-1.4-1.7c-0.9-0.9-2.1-1.7-3.5-2.2c-1.4-0.5-2.9-0.8-4.4-0.8c-1.9,0-3.5,0.3-4.7,1
				c-1.2,0.7-2.4,1.7-3.4,3.2v-3.1h-8.4V-132.5z M193.5-153.8c-0.4-5.8-5-9.3-11.3-9.3c-6,0-11.5,3.8-11.5,9.6c0,3.5,2,6.4,9.4,8.7
				c4.4,1.4,5.4,2.2,5.4,3.9c0,1.4-1.5,2.3-3.1,2.3c-1.8,0-3.1-0.9-3.4-2.7h-8.8c0.6,6,5.4,9.8,12,9.8c6.7,0,12-3.9,12-10.1
				c0-4.3-2.3-7.1-9.3-9c-4.1-1.1-5.5-1.9-5.5-3.5c0-1.1,1.1-2,2.6-2c1.4,0,2.7,0.5,2.7,2.2H193.5z"/>
		</defs>
		<clipPath id="SVGID_6_">
			<use xlink:href="#SVGID_5_"  style="overflow:visible;"/>
		</clipPath>
		<g class="st6">
			<defs>
				<rect id="SVGID_7_" x="-94.9" y="-316.2" width="330.7" height="330.7"/>
			</defs>
			<clipPath id="SVGID_8_">
				<use xlink:href="#SVGID_7_"  style="overflow:visible;"/>
			</clipPath>
			<rect x="-55.7" y="-178.1" class="st7" width="252.2" height="62.8"/>
		</g>
	</g>
	<g class="st2">
		<path class="st8" d="M-48.6-72.9h7v3.1h-10.3v-16.8h3.3V-72.9z"/>
		<path class="st8" d="M-27.3-76c0,3.8-2.7,6.4-6.4,6.4c-3.6,0-6.4-2.6-6.4-6.4c0-3.8,2.7-6.3,6.4-6.3C-30-82.3-27.3-79.7-27.3-76z
			 M-36.8-76c0,2,1.3,3.5,3.2,3.5c1.9,0,3.1-1.5,3.1-3.5c0-2-1.2-3.5-3.1-3.5C-35.5-79.5-36.8-78-36.8-76z"/>
		<path class="st8" d="M-13.7-79.4h-1.8c0.1,0.4,0.2,0.9,0.2,1.4c0,2.4-2,4.2-4.8,4.2c-0.7,0-1.4-0.1-2-0.3
			c-0.2,0.2-0.3,0.5-0.3,0.9c0,0.6,0.5,1,1.2,1h2.9c2.5,0,4,1.2,4,3.5c0,2.7-2.1,4.2-5.4,4.2c-3.6,0-5.5-1.3-5.5-3.7
			c0-1.1,0.6-1.8,1.2-2.1c-0.7-0.5-1.4-1.4-1.4-2.6c0-1.2,0.5-2,1.2-2.6C-24.7-76.2-25-77-25-78c0-2.5,2.1-4.3,4.9-4.3
			c0.6,0,1.2,0.1,1.8,0.3h4.6V-79.4z M-20.9-69.8c-0.7,0.1-1.2,0.6-1.2,1.4c0,1.1,1,1.7,2.5,1.7c1.4,0,2.3-0.6,2.3-1.7
			c0-0.9-0.7-1.3-1.7-1.3H-20.9z M-21.9-78c0,1.1,0.7,1.9,1.8,1.9s1.8-0.8,1.8-1.9c0-1.2-0.7-2-1.8-2C-21.2-79.9-21.9-79.2-21.9-78z
			"/>
		<path class="st8" d="M0.2-76c0,3.8-2.7,6.4-6.4,6.4c-3.6,0-6.4-2.6-6.4-6.4c0-3.8,2.7-6.3,6.4-6.3C-2.6-82.3,0.2-79.7,0.2-76z
			 M-9.4-76c0,2,1.3,3.5,3.2,3.5c1.9,0,3.1-1.5,3.1-3.5c0-2-1.2-3.5-3.1-3.5C-8.1-79.5-9.4-78-9.4-76z"/>
		<path class="st8" d="M11.7-82h2.8v2.8h-2.8l0,4.9c0,1.2,0.4,1.8,1.6,1.8c0.6,0,0.9-0.1,1.3-0.2v2.7c-0.4,0.1-1,0.3-2,0.3
			c-2.7,0-4-1.1-4-3.8l0-5.7h-2V-82h2l0-3h3.1L11.7-82z"/>
		<path class="st8" d="M28-76v1h-8.5c0.1,1.6,1.2,2.7,2.9,2.7c1.2,0,2.1-0.5,2.4-1.4h3c-0.7,2.6-2.6,4.1-5.6,4.1c-3.6,0-6-2.5-6-6.3
			c0-3.7,2.4-6.4,6-6.4C25.6-82.3,28-80.3,28-76z M19.5-77.2h5.3c0-1.5-1-2.5-2.6-2.5C20.7-79.7,19.7-78.6,19.5-77.2z"/>
		<path class="st8" d="M47.8-77.8v7.9h-3.1v-7.2c0-1.4-0.6-2.2-1.7-2.2c-1.2,0-2.1,0.9-2.1,2.8v6.6h-3.1v-7.2c0-1.4-0.6-2.2-1.7-2.2
			c-1.2,0-2.1,1-2.1,3v6.4h-3.1V-82h2.7l0.2,1.6c0.6-1,1.7-1.8,3.2-1.8c1.7,0,2.9,0.8,3.5,2.1c0.6-1.2,1.8-2.1,3.5-2.1
			C46.5-82.3,47.8-80.5,47.8-77.8z"/>
		<path class="st8" d="M63.7-76c0,3.6-2.4,6.4-5.7,6.4c-1.8,0-3-0.7-3.6-1.6v6.5h-3.1V-82h2.7l0.2,1.6c0.7-1,1.8-1.9,3.9-1.9
			C61.3-82.3,63.7-79.5,63.7-76z M54.3-76v0.1c0,2.1,1.6,3.3,3.1,3.3c1.7,0,3.1-1.3,3.1-3.4c0-2.1-1.3-3.4-3.1-3.4
			C55.8-79.4,54.3-78.2,54.3-76z"/>
		<path class="st8" d="M69.5-69.9h-3.1v-17.5h3.1V-69.9z"/>
		<path class="st8" d="M82.4-77.9v8h-2.7l-0.2-1.5c-0.6,1-1.8,1.8-3.5,1.8c-2.2,0-3.7-1.3-3.7-3.5c0-2.4,1.6-3.3,3.8-3.6l3.1-0.6
			v-0.5c0-1.2-0.6-1.8-1.7-1.8c-1,0-1.8,0.6-1.8,1.6h-3c0.1-2.5,2-4.3,4.8-4.3S82.4-80.8,82.4-77.9z M76.9-74.7
			c-0.8,0.2-1.4,0.6-1.4,1.4c0,0.7,0.5,1.2,1.4,1.2c0.8,0,1.5-0.4,1.9-1.1c0.3-0.4,0.4-1,0.4-1.6v-0.4L76.9-74.7z"/>
		<path class="st8" d="M89.6-82h2.8v2.8h-2.8l0,4.9c0,1.2,0.4,1.8,1.6,1.8c0.6,0,0.9-0.1,1.3-0.2v2.7c-0.4,0.1-1,0.3-2,0.3
			c-2.7,0-4-1.1-4-3.8l0-5.7h-2V-82h2l0-3h3.1L89.6-82z"/>
		<path class="st8" d="M105.9-76v1h-8.5c0.1,1.6,1.2,2.7,2.9,2.7c1.2,0,2.1-0.5,2.4-1.4h3c-0.7,2.6-2.6,4.1-5.6,4.1
			c-3.6,0-6-2.5-6-6.3c0-3.7,2.4-6.4,6-6.4C103.5-82.3,105.9-80.3,105.9-76z M97.4-77.2h5.3c0-1.5-1-2.5-2.6-2.5
			C98.6-79.7,97.6-78.6,97.4-77.2z"/>
		<path class="st9" d="M119-86.2c-2,2.7-3,5-3,8.6c0,3.6,1,6,3,8.6l-2.2,1.5c-2.2-2.7-3.7-5.7-3.7-10.1s1.5-7.4,3.7-10.1L119-86.2z"
			/>
		<path class="st9" d="M126.9-69.9h-3.3v-11.6h-3.5v-2.8c2.6,0,4-0.6,4.4-2.4h2.4V-69.9z"/>
		<path class="st9" d="M141.7-78.3c0,5.4-2.1,8.7-6,8.7s-6-3.4-6-8.7c0-5.4,2.1-8.7,6-8.7S141.7-83.6,141.7-78.3z M133.1-78.3
			c0,3.6,0.9,5.7,2.6,5.7c1.8,0,2.6-2.1,2.6-5.7c0-3.5-0.9-5.6-2.6-5.6C134-83.9,133.1-81.8,133.1-78.3z"/>
		<path class="st9" d="M155.7-78.3c0,5.4-2.1,8.7-6,8.7s-6-3.4-6-8.7c0-5.4,2.1-8.7,6-8.7S155.7-83.6,155.7-78.3z M147.1-78.3
			c0,3.6,0.9,5.7,2.6,5.7c1.8,0,2.6-2.1,2.6-5.7c0-3.5-0.9-5.6-2.6-5.6C147.9-83.9,147.1-81.8,147.1-78.3z"/>
		<path class="st9" d="M169.6-78.3c0,5.4-2.1,8.7-6,8.7s-6-3.4-6-8.7c0-5.4,2.1-8.7,6-8.7S169.6-83.6,169.6-78.3z M161-78.3
			c0,3.6,0.9,5.7,2.6,5.7c1.8,0,2.6-2.1,2.6-5.7c0-3.5-0.9-5.6-2.6-5.6C161.9-83.9,161-81.8,161-78.3z"/>
		<path class="st9" d="M186.4-78.4l5.7,8.5h-3.9l-4-6.1l-4,6.1h-3.9l5.6-8.5l-5.5-8.3h3.9l3.9,5.8l3.9-5.8h3.9L186.4-78.4z"/>
		<path class="st9" d="M205.4-69.9H202v-11.6h-3.5v-2.8c2.6,0,4-0.6,4.4-2.4h2.4V-69.9z"/>
		<path class="st9" d="M220.1-78.3c0,5.4-2.1,8.7-6,8.7c-3.8,0-6-3.4-6-8.7c0-5.4,2.1-8.7,6-8.7C218-87,220.1-83.6,220.1-78.3z
			 M211.5-78.3c0,3.6,0.9,5.7,2.6,5.7c1.8,0,2.6-2.1,2.6-5.7c0-3.5-0.9-5.6-2.6-5.6C212.4-83.9,211.5-81.8,211.5-78.3z"/>
		<path class="st9" d="M234.1-78.3c0,5.4-2.1,8.7-6,8.7c-3.8,0-6-3.4-6-8.7c0-5.4,2.1-8.7,6-8.7C231.9-87,234.1-83.6,234.1-78.3z
			 M225.5-78.3c0,3.6,0.9,5.7,2.6,5.7c1.8,0,2.6-2.1,2.6-5.7c0-3.5-0.9-5.6-2.6-5.6C226.3-83.9,225.5-81.8,225.5-78.3z"/>
		<path class="st9" d="M248-78.3c0,5.4-2.1,8.7-6,8.7c-3.8,0-6-3.4-6-8.7c0-5.4,2.1-8.7,6-8.7C245.9-87,248-83.6,248-78.3z
			 M239.4-78.3c0,3.6,0.9,5.7,2.6,5.7c1.8,0,2.6-2.1,2.6-5.7c0-3.5-0.9-5.6-2.6-5.6C240.3-83.9,239.4-81.8,239.4-78.3z"/>
		<path class="st9" d="M263.3-76c0,3.6-2.4,6.4-5.7,6.4c-1.8,0-3-0.7-3.6-1.6v6.5h-3.1V-82h2.7l0.2,1.6c0.7-1,1.8-1.9,3.9-1.9
			C260.9-82.3,263.3-79.5,263.3-76z M253.9-76v0.1c0,2.1,1.6,3.3,3.1,3.3c1.7,0,3.1-1.3,3.1-3.4c0-2.1-1.3-3.4-3.1-3.4
			C255.5-79.4,253.9-78.2,253.9-76z"/>
		<path class="st9" d="M272.4-76.1l3.8,6.2h-3.6l-2.4-3.8l-2.4,3.8h-3.6l3.8-6.2l-3.7-6h3.6l2.2,3.6l2.2-3.6h3.6L272.4-76.1z"/>
		<path class="st9" d="M283-77.6c0,4.4-1.6,7.4-3.8,10.1l-2.2-1.5c2-2.7,3-5,3-8.6c0-3.6-1-6-3-8.6l2.2-1.5
			C281.5-85,283-82,283-77.6z"/>
	</g>
	<g class="st2">
		<path class="st10" d="M-50-15.6h4.5v1.3H-50V-15.6z"/>
		<path class="st10" d="M-36.8-14.3v4.7h-1.5v-12.2h3.7c2.4,0,4.2,1.1,4.2,3.8c0,2.6-1.8,3.8-4.3,3.8H-36.8z M-34.7-15.5
			c1.8,0,2.8-0.9,2.8-2.6c0-1.8-1-2.6-2.8-2.6h-2.1v5.2H-34.7z"/>
		<path class="st10" d="M-28.3-22.3h1.4v12.6h-1.4V-22.3z"/>
		<path class="st10" d="M-24.1-15.8c0-1.5,1.2-2.5,3.2-2.5c2.1,0,3.1,0.9,3.1,3.1v3.4c0,0.7,0.1,0.9,0.8,1v1.2h-0.2
			c-1.3,0-1.8-0.5-1.9-1.5h0c-0.4,1-1.5,1.6-2.7,1.6c-1.7,0-2.7-0.9-2.7-2.4c0-0.9,0.4-1.7,1.3-2.1c0.9-0.5,2.2-0.6,4.1-0.7v-0.4
			c0-1.5-0.6-2.1-1.8-2.1c-1.2,0-1.7,0.7-1.8,1.4H-24.1z M-19.2-13.5v-0.2c-1.8,0.1-2.9,0.2-3.4,0.6c-0.3,0.2-0.5,0.6-0.5,1
			c0,0.9,0.6,1.3,1.5,1.3C-20.5-10.7-19.2-11.4-19.2-13.5z"/>
		<path class="st10" d="M-9.7-15.6c-0.1-0.9-0.7-1.6-1.9-1.6c-1.5,0-2.3,1.3-2.3,3.3c0,2,0.6,3.3,2.3,3.3c1.6,0,2-1.2,2.1-1.8h1.3
			c-0.2,2-1.6,2.9-3.4,2.9c-2.4,0-3.7-1.7-3.7-4.4c0-2.6,1.4-4.5,3.8-4.5c1.7,0,3.2,0.8,3.3,2.8H-9.7z"/>
		<path class="st10" d="M-2.8-9.5c-2.6,0-3.8-1.9-3.8-4.4c0-2.5,1.3-4.5,3.8-4.5c2.5,0,3.5,2,3.5,4.1v0.7h-5.8
			c0.1,1.7,0.8,2.9,2.4,2.9c1.4,0,1.8-0.8,1.9-1.3h1.4C0.3-10.4-1-9.5-2.8-9.5z M-0.8-14.7c0-1.4-0.6-2.5-2.1-2.5
			c-1.3,0-2.1,1.1-2.3,2.6L-0.8-14.7L-0.8-14.7z"/>
		<path class="st10" d="M6.7-18.1h1.4l1.8,5.3c0.3,0.8,0.4,1.3,0.4,1.3h0c0,0,0.1-0.5,0.4-1.3l1.7-5.3H14l-3.1,9
			c-0.7,1.9-1.2,2.7-3.1,2.7c-0.3,0-0.6,0-0.9-0.1v-1.2c0.3,0.1,0.6,0.1,0.7,0.1c1.1,0,1.4-0.4,1.8-1.5l0.2-0.4L6.7-18.1z"/>
		<path class="st10" d="M15.3-13.9c0-2.6,1.4-4.4,3.8-4.4c2.5,0,3.8,1.8,3.8,4.4c0,2.6-1.4,4.4-3.8,4.4
			C16.5-9.5,15.3-11.2,15.3-13.9z M16.8-13.9c0,2.1,0.7,3.3,2.3,3.3c1.6,0,2.3-1.2,2.3-3.3c0-2-0.7-3.3-2.3-3.3
			C17.5-17.2,16.8-15.9,16.8-13.9z"/>
		<path class="st10" d="M26.6-12.9c0,0.6,0,1.3,0.3,1.7c0.3,0.4,0.7,0.6,1.3,0.6c1.6,0,2.3-1,2.3-2.9v-4.6H32v8.4h-1.4v-1.4h0
			c-0.4,0.9-1.3,1.6-2.7,1.6c-1.6,0-2.7-0.8-2.7-2.8v-5.9h1.4V-12.9z"/>
		<path class="st10" d="M35.1-18.1h1.4v1.6h0c0.4-0.9,1.4-1.7,2.7-1.7h0.1v1.5h-0.3c-1.5,0-2.5,0.9-2.5,2.5v4.6h-1.4V-18.1z"/>
		<path class="st10" d="M46.1-22.3h1.4v12.6h-1.4V-22.3z"/>
		<path class="st10" d="M49.9-13.9c0-2.6,1.4-4.4,3.8-4.4c2.5,0,3.8,1.8,3.8,4.4c0,2.6-1.4,4.4-3.8,4.4
			C51.2-9.5,49.9-11.2,49.9-13.9z M51.4-13.9c0,2.1,0.7,3.3,2.3,3.3c1.6,0,2.3-1.2,2.3-3.3c0-2-0.7-3.3-2.3-3.3
			C52.1-17.2,51.4-15.9,51.4-13.9z"/>
		<path class="st10" d="M59.5-8.8h1.4c0.2,0.7,0.7,1.2,2.1,1.2c1.6,0,2.4-0.6,2.4-2.4v-1.2h0c-0.4,0.8-1.4,1.6-2.7,1.6
			c-1.8,0-3.4-1.1-3.4-4.2c0-2.8,1.5-4.3,3.6-4.3c1.4,0,2.2,0.8,2.5,1.5h0v-1.3h1.4v8.2c0,2.4-1.6,3.4-3.8,3.4
			C61.3-6.5,59.7-7.1,59.5-8.8z M65.4-14.3c0-1.7-0.9-2.8-2.4-2.8c-1.5,0-2.2,1.3-2.2,3.2c0,1.9,0.5,3.1,2.3,3.1
			c1.4,0,2.3-1.2,2.3-2.6V-14.3z"/>
		<path class="st10" d="M69.2-13.9c0-2.6,1.4-4.4,3.8-4.4c2.5,0,3.8,1.8,3.8,4.4c0,2.6-1.4,4.4-3.8,4.4
			C70.5-9.5,69.2-11.2,69.2-13.9z M70.7-13.9c0,2.1,0.7,3.3,2.3,3.3c1.6,0,2.3-1.2,2.3-3.3c0-2-0.7-3.3-2.3-3.3
			C71.4-17.2,70.7-15.9,70.7-13.9z"/>
		<path class="st10" d="M82.6-18.1h1.5l1.6,5.7c0.1,0.5,0.3,1.1,0.3,1.1h0c0,0,0.2-0.6,0.3-1.1l1.8-5.7h1.5l1.8,5.7
			c0.2,0.5,0.3,1.1,0.3,1.1h0c0,0,0.1-0.6,0.3-1.1l1.7-5.7h1.4l-2.6,8.4h-1.5l-1.5-5c-0.2-0.8-0.5-1.8-0.5-1.8h0c0,0-0.3,1-0.5,1.8
			l-1.6,5h-1.5L82.6-18.1z"/>
		<path class="st10" d="M97.1-21.6h1.5v1.6h-1.5V-21.6z M97.2-18.1h1.5v8.4h-1.5V-18.1z"/>
		<path class="st10" d="M103.6-20.5v2.4h2.1v1.1h-2.1v5c0,0.9,0.4,1.2,1.3,1.2c0.4,0,0.9-0.1,0.9-0.1v1.2c0,0-0.6,0.1-1.3,0.1
			c-1.6,0-2.3-0.8-2.3-2.2V-17h-1.5v-1.1h0.3c1.1,0,1.4-0.3,1.4-1.9v-0.6H103.6z"/>
		<path class="st10" d="M113.1-14.9c0-0.6,0-1.3-0.3-1.7c-0.3-0.4-0.8-0.6-1.3-0.6c-1.6,0-2.3,1-2.3,2.4v5.1h-1.4v-12.6h1.4v5.6h0
			c0.4-0.8,1.3-1.6,2.6-1.6c1.6,0,2.7,0.8,2.7,2.8v5.9h-1.4V-14.9z"/>
		<path class="st10" d="M117.6-21.6h1.5v1.6h-1.5V-21.6z M117.6-18.1h1.5v8.4h-1.5V-18.1z"/>
		<path class="st10" d="M127.6-14.9c0-0.6,0-1.3-0.3-1.7c-0.3-0.4-0.8-0.6-1.3-0.6c-1.6,0-2.3,1-2.3,2.4v5.1h-1.4v-8.4h1.4v1.4h0
			c0.4-0.9,1.4-1.6,2.7-1.6c1.6,0,2.7,0.8,2.7,2.8v5.9h-1.4V-14.9z"/>
		<path class="st10" d="M138.4-20.5v2.4h2.1v1.1h-2.1v5c0,0.9,0.4,1.2,1.3,1.2c0.4,0,0.9-0.1,0.9-0.1v1.2c0,0-0.6,0.1-1.3,0.1
			c-1.6,0-2.3-0.8-2.3-2.2V-17h-1.5v-1.1h0.3c1.1,0,1.4-0.3,1.4-1.9v-0.6H138.4z"/>
		<path class="st10" d="M148-14.9c0-0.6,0-1.3-0.3-1.7c-0.3-0.4-0.8-0.6-1.3-0.6c-1.6,0-2.3,1-2.3,2.4v5.1h-1.4v-12.6h1.4v5.6h0
			c0.4-0.8,1.3-1.6,2.6-1.6c1.6,0,2.7,0.8,2.7,2.8v5.9H148V-14.9z"/>
		<path class="st10" d="M155.6-9.5c-2.6,0-3.8-1.9-3.8-4.4c0-2.5,1.3-4.5,3.8-4.5c2.5,0,3.5,2,3.5,4.1v0.7h-5.8
			c0.1,1.7,0.8,2.9,2.4,2.9c1.4,0,1.8-0.8,1.9-1.3h1.4C158.6-10.4,157.4-9.5,155.6-9.5z M157.6-14.7c0-1.4-0.6-2.5-2.1-2.5
			c-1.3,0-2.1,1.1-2.3,2.6L157.6-14.7L157.6-14.7z"/>
		<path class="st10" d="M170.9-15.6c-0.1-0.9-0.7-1.6-1.9-1.6c-1.5,0-2.3,1.3-2.3,3.3c0,2,0.6,3.3,2.3,3.3c1.6,0,2-1.2,2.1-1.8h1.3
			c-0.2,2-1.6,2.9-3.4,2.9c-2.4,0-3.7-1.7-3.7-4.4c0-2.6,1.4-4.5,3.8-4.5c1.7,0,3.2,0.8,3.3,2.8H170.9z"/>
		<path class="st10" d="M174.7-18.1h1.4v1.6h0c0.4-0.9,1.4-1.7,2.7-1.7h0.1v1.5h-0.3c-1.5,0-2.5,0.9-2.5,2.5v4.6h-1.4V-18.1z"/>
		<path class="st10" d="M180.2-13.9c0-2.6,1.4-4.4,3.8-4.4c2.5,0,3.8,1.8,3.8,4.4c0,2.6-1.4,4.4-3.8,4.4
			C181.5-9.5,180.2-11.2,180.2-13.9z M181.7-13.9c0,2.1,0.7,3.3,2.3,3.3c1.6,0,2.3-1.2,2.3-3.3c0-2-0.7-3.3-2.3-3.3
			C182.5-17.2,181.7-15.9,181.7-13.9z"/>
		<path class="st10" d="M190.2-18.1h1.4v1.4h0c0.5-0.9,1.4-1.6,2.7-1.6c1.8,0,3.4,1.1,3.4,4.3c0,3.1-1.6,4.5-3.5,4.5
			c-1.2,0-2.2-0.7-2.5-1.4h0v4.2h-1.4V-18.1z M194-10.6c1.5,0,2.2-1.2,2.2-3.4c0-1.8-0.5-3.2-2.3-3.2c-1.5,0-2.4,1.3-2.4,2.7v0.9
			C191.6-11.9,192.4-10.6,194-10.6z"/>
		<path class="st10" d="M200.1-18.1h1.4v1.4h0c0.5-0.9,1.4-1.6,2.7-1.6c1.8,0,3.4,1.1,3.4,4.3c0,3.1-1.6,4.5-3.5,4.5
			c-1.2,0-2.2-0.7-2.5-1.4h0v4.2h-1.4V-18.1z M203.9-10.6c1.5,0,2.2-1.2,2.2-3.4c0-1.8-0.5-3.2-2.3-3.2c-1.5,0-2.4,1.3-2.4,2.7v0.9
			C201.5-11.9,202.3-10.6,203.9-10.6z"/>
		<path class="st10" d="M210-21.6h1.5v1.6H210V-21.6z M210.1-18.1h1.5v8.4h-1.5V-18.1z"/>
		<path class="st10" d="M220.1-14.9c0-0.6,0-1.3-0.3-1.7c-0.3-0.4-0.8-0.6-1.3-0.6c-1.6,0-2.3,1-2.3,2.4v5.1h-1.4v-8.4h1.4v1.4h0
			c0.4-0.9,1.4-1.6,2.7-1.6c1.6,0,2.7,0.8,2.7,2.8v5.9h-1.4V-14.9z"/>
		<path class="st10" d="M224-8.8h1.4c0.2,0.7,0.7,1.2,2.1,1.2c1.6,0,2.4-0.6,2.4-2.4v-1.2h0c-0.4,0.8-1.4,1.6-2.7,1.6
			c-1.8,0-3.4-1.1-3.4-4.2c0-2.8,1.5-4.3,3.6-4.3c1.4,0,2.2,0.8,2.5,1.5h0v-1.3h1.4v8.2c0,2.4-1.6,3.4-3.8,3.4
			C225.9-6.5,224.2-7.1,224-8.8z M230-14.3c0-1.7-0.9-2.8-2.4-2.8c-1.5,0-2.2,1.3-2.2,3.2c0,1.9,0.5,3.1,2.3,3.1
			c1.4,0,2.3-1.2,2.3-2.6V-14.3z"/>
		<path class="st10" d="M238.5-8.8h1.4c0.2,0.7,0.7,1.2,2.1,1.2c1.6,0,2.4-0.6,2.4-2.4v-1.2h0c-0.4,0.8-1.4,1.6-2.7,1.6
			c-1.8,0-3.4-1.1-3.4-4.2c0-2.8,1.5-4.3,3.6-4.3c1.4,0,2.2,0.8,2.5,1.5h0v-1.3h1.4v8.2c0,2.4-1.6,3.4-3.8,3.4
			C240.3-6.5,238.7-7.1,238.5-8.8z M244.4-14.3c0-1.7-0.9-2.8-2.4-2.8c-1.5,0-2.2,1.3-2.2,3.2c0,1.9,0.5,3.1,2.3,3.1
			c1.4,0,2.3-1.2,2.3-2.6V-14.3z"/>
		<path class="st10" d="M250.2-12.9c0,0.6,0,1.3,0.3,1.7c0.3,0.4,0.7,0.6,1.3,0.6c1.6,0,2.3-1,2.3-2.9v-4.6h1.4v8.4h-1.4v-1.4h0
			c-0.4,0.9-1.3,1.6-2.7,1.6c-1.6,0-2.7-0.8-2.7-2.8v-5.9h1.4V-12.9z"/>
		<path class="st10" d="M258.7-21.6h1.5v1.6h-1.5V-21.6z M258.7-18.1h1.5v8.4h-1.5V-18.1z"/>
		<path class="st10" d="M270.1-9.7h-1.4v-1.4h0c-0.4,0.8-1.4,1.6-2.7,1.6c-1.8,0-3.4-1.1-3.4-4.4c0-2.9,1.5-4.5,3.6-4.5
			c1.3,0,2.1,0.7,2.4,1.5h0v-5.5h1.4V-9.7z M268.7-14.2c0-1.8-0.9-2.9-2.3-2.9c-1.6,0-2.4,1.3-2.4,3.3c0,1.9,0.6,3.3,2.2,3.3
			c1.5,0,2.4-1.2,2.4-2.7V-14.2z"/>
		<path class="st10" d="M276.3-9.5c-2.6,0-3.8-1.9-3.8-4.4c0-2.5,1.3-4.5,3.8-4.5c2.5,0,3.5,2,3.5,4.1v0.7H274
			c0.1,1.7,0.8,2.9,2.4,2.9c1.4,0,1.8-0.8,1.9-1.3h1.4C279.4-10.4,278.1-9.5,276.3-9.5z M278.3-14.7c0-1.4-0.6-2.5-2.1-2.5
			c-1.3,0-2.1,1.1-2.3,2.6L278.3-14.7L278.3-14.7z"/>
		<path class="st10" d="M286.4-16c-0.1-0.8-0.7-1.2-1.7-1.2s-1.6,0.6-1.6,1.4c0,0.7,0.4,1,1.3,1.2l1.3,0.2c1.8,0.3,2.4,1,2.4,2.4
			c0,1.7-1.4,2.6-3.3,2.6c-1.7,0-3.2-0.8-3.3-2.6h1.4c0.1,0.7,0.4,1.5,1.9,1.5c1.2,0,1.9-0.5,1.9-1.4c0-0.7-0.2-1-1.3-1.2l-1.3-0.2
			c-1.5-0.2-2.3-0.9-2.3-2.3c0-1.5,1.1-2.6,3.1-2.6c1.8,0,2.9,0.8,3,2.3H286.4z"/>
		<path class="st10" d="M289.9-11.6h2v2h-2V-11.6z"/>
		<path class="st10" d="M-50,14.4h4.5v1.3H-50V14.4z"/>
		<path class="st10" d="M-33.4,7.9c3,0,5.5,2,5.5,6.3c0,4.4-2.5,6.3-5.5,6.3c-3,0-5.5-2-5.5-6.3C-38.8,9.9-36.3,7.9-33.4,7.9z
			 M-29.4,14.3c0-3.4-1.6-5.2-4-5.2c-2.3,0-3.9,1.7-3.9,5.2c0,3.3,1.6,5.1,3.9,5.1C-31.1,19.4-29.4,17.6-29.4,14.3z"/>
		<path class="st10" d="M-23.7,17.1c0,0.6,0,1.3,0.3,1.7c0.3,0.4,0.7,0.6,1.3,0.6c1.6,0,2.3-1,2.3-2.9v-4.6h1.4v8.4h-1.4v-1.4h0
			c-0.4,0.9-1.3,1.6-2.7,1.6c-1.6,0-2.7-0.8-2.7-2.8v-5.9h1.4V17.1z"/>
		<path class="st10" d="M-13.4,9.5v2.4h2.1V13h-2.1v5c0,0.9,0.4,1.2,1.3,1.2c0.4,0,0.9-0.1,0.9-0.1v1.2c0,0-0.6,0.1-1.3,0.1
			c-1.6,0-2.3-0.8-2.3-2.2V13h-1.5v-1.1h0.3c1.1,0,1.4-0.3,1.4-1.9V9.5H-13.4z"/>
		<path class="st10" d="M-9.2,7.7h1.4v12.6h-1.4V7.7z"/>
		<path class="st10" d="M-4.7,8.4h1.5V10h-1.5V8.4z M-4.6,11.9h1.5v8.4h-1.5V11.9z"/>
		<path class="st10" d="M5.3,15.1c0-0.6,0-1.3-0.3-1.7c-0.3-0.4-0.8-0.6-1.3-0.6c-1.6,0-2.3,1-2.3,2.4v5.1H0v-8.4h1.4v1.4h0
			c0.4-0.9,1.4-1.6,2.7-1.6c1.6,0,2.7,0.8,2.7,2.8v5.9H5.3V15.1z"/>
		<path class="st10" d="M12.9,20.5c-2.6,0-3.8-1.9-3.8-4.4c0-2.5,1.3-4.5,3.8-4.5c2.5,0,3.5,2,3.5,4.1v0.7h-5.8
			c0.1,1.7,0.8,2.9,2.4,2.9c1.4,0,1.8-0.8,1.9-1.3h1.4C16,19.6,14.7,20.5,12.9,20.5z M14.9,15.3c0-1.4-0.6-2.5-2.1-2.5
			c-1.3,0-2.1,1.1-2.3,2.6L14.9,15.3L14.9,15.3z"/>
		<path class="st10" d="M23,14.2c0-1.5,1.2-2.5,3.2-2.5c2.1,0,3.1,0.9,3.1,3.1v3.4c0,0.7,0.1,0.9,0.8,1v1.2h-0.2
			c-1.3,0-1.8-0.5-1.9-1.5h0c-0.4,1-1.5,1.6-2.7,1.6c-1.7,0-2.7-0.9-2.7-2.4c0-0.9,0.4-1.7,1.3-2.1c0.9-0.5,2.2-0.6,4.1-0.7v-0.4
			c0-1.5-0.6-2.1-1.8-2.1c-1.2,0-1.7,0.7-1.8,1.4H23z M27.9,16.5v-0.2c-1.8,0.1-2.9,0.2-3.4,0.6c-0.3,0.2-0.5,0.6-0.5,1
			c0,0.9,0.6,1.3,1.5,1.3C26.6,19.3,27.9,18.6,27.9,16.5z"/>
		<path class="st10" d="M32.4,7.7h1.4v12.6h-1.4V7.7z"/>
		<path class="st10" d="M36.9,7.7h1.4v12.6h-1.4V7.7z"/>
		<path class="st10" d="M47.8,20.3h-1.4V13h-1.5v-1.1h1.5V10c0-1.7,1-2.3,2.6-2.3c0.3,0,0.6,0,0.9,0.1v1.2c-0.2,0-0.4-0.1-0.8-0.1
			c-0.8,0-1.2,0.3-1.2,1.3v1.7h2V13h-2V20.3z"/>
		<path class="st10" d="M51,16.1c0-2.6,1.4-4.4,3.8-4.4c2.5,0,3.8,1.8,3.8,4.4c0,2.6-1.4,4.4-3.8,4.4C52.3,20.5,51,18.8,51,16.1z
			 M52.5,16.1c0,2.1,0.7,3.3,2.3,3.3c1.6,0,2.3-1.2,2.3-3.3c0-2-0.7-3.3-2.3-3.3C53.3,12.8,52.5,14.1,52.5,16.1z"/>
		<path class="st10" d="M66.4,15.1c0-0.6,0-1.3-0.3-1.7c-0.3-0.4-0.8-0.6-1.3-0.6c-1.6,0-2.3,1-2.3,2.4v5.1H61v-8.4h1.4v1.4h0
			c0.4-0.9,1.4-1.6,2.7-1.6c1.6,0,2.7,0.8,2.7,2.8v5.9h-1.4V15.1z"/>
		<path class="st10" d="M72.7,9.5v2.4h2.1V13h-2.1v5c0,0.9,0.4,1.2,1.3,1.2c0.4,0,0.9-0.1,0.9-0.1v1.2c0,0-0.6,0.1-1.3,0.1
			c-1.6,0-2.3-0.8-2.3-2.2V13h-1.5v-1.1H70c1.1,0,1.4-0.3,1.4-1.9V9.5H72.7z"/>
		<path class="st10" d="M81.1,14c-0.1-0.8-0.7-1.2-1.7-1.2s-1.6,0.6-1.6,1.4c0,0.7,0.4,1,1.3,1.2l1.3,0.2c1.8,0.3,2.4,1,2.4,2.4
			c0,1.7-1.4,2.6-3.3,2.6c-1.7,0-3.2-0.8-3.3-2.6h1.4c0.1,0.7,0.4,1.5,1.9,1.5c1.2,0,1.9-0.5,1.9-1.4c0-0.7-0.2-1-1.3-1.2l-1.3-0.2
			c-1.5-0.2-2.3-0.9-2.3-2.3c0-1.5,1.1-2.6,3.1-2.6c1.8,0,2.9,0.8,3,2.3H81.1z"/>
		<path class="st10" d="M91.1,17.1c0,0.6,0,1.3,0.3,1.7c0.3,0.4,0.7,0.6,1.3,0.6c1.6,0,2.3-1,2.3-2.9v-4.6h1.4v8.4H95v-1.4h0
			c-0.4,0.9-1.3,1.6-2.7,1.6c-1.6,0-2.7-0.8-2.7-2.8v-5.9h1.4V17.1z"/>
		<path class="st10" d="M103.7,14c-0.1-0.8-0.7-1.2-1.7-1.2s-1.6,0.6-1.6,1.4c0,0.7,0.4,1,1.3,1.2l1.3,0.2c1.8,0.3,2.4,1,2.4,2.4
			c0,1.7-1.4,2.6-3.3,2.6c-1.7,0-3.2-0.8-3.3-2.6h1.4c0.1,0.7,0.4,1.5,1.9,1.5c1.2,0,1.9-0.5,1.9-1.4c0-0.7-0.2-1-1.3-1.2l-1.3-0.2
			c-1.5-0.2-2.3-0.9-2.3-2.3c0-1.5,1.1-2.6,3.1-2.6c1.8,0,2.9,0.8,3,2.3H103.7z"/>
		<path class="st10" d="M110.9,20.5c-2.6,0-3.8-1.9-3.8-4.4c0-2.5,1.3-4.5,3.8-4.5c2.5,0,3.5,2,3.5,4.1v0.7h-5.8
			c0.1,1.7,0.8,2.9,2.4,2.9c1.4,0,1.8-0.8,1.9-1.3h1.4C114,19.6,112.7,20.5,110.9,20.5z M112.9,15.3c0-1.4-0.6-2.5-2.1-2.5
			c-1.3,0-2.1,1.1-2.3,2.6L112.9,15.3L112.9,15.3z"/>
		<path class="st10" d="M123.6,20.3h-1.4v-1.4h0c-0.4,0.8-1.4,1.6-2.7,1.6c-1.8,0-3.4-1.1-3.4-4.4c0-2.9,1.5-4.5,3.6-4.5
			c1.3,0,2.1,0.7,2.4,1.5h0V7.7h1.4V20.3z M122.2,15.8c0-1.8-0.9-2.9-2.3-2.9c-1.6,0-2.4,1.3-2.4,3.3c0,1.9,0.6,3.3,2.2,3.3
			c1.5,0,2.4-1.2,2.4-2.7V15.8z"/>
		<path class="st10" d="M131.3,8.4h1.5V10h-1.5V8.4z M131.3,11.9h1.5v8.4h-1.5V11.9z"/>
		<path class="st10" d="M141.3,15.1c0-0.6,0-1.3-0.3-1.7c-0.3-0.4-0.8-0.6-1.3-0.6c-1.6,0-2.3,1-2.3,2.4v5.1h-1.4v-8.4h1.4v1.4h0
			c0.4-0.9,1.4-1.6,2.7-1.6c1.6,0,2.7,0.8,2.7,2.8v5.9h-1.4V15.1z"/>
		<path class="st10" d="M149.5,11.9h1.4l1.8,5.3c0.3,0.8,0.4,1.3,0.4,1.3h0c0,0,0.1-0.5,0.4-1.3l1.7-5.3h1.4l-3.1,9
			c-0.7,1.9-1.2,2.7-3.1,2.7c-0.3,0-0.6,0-0.9-0.1v-1.2c0.3,0.1,0.6,0.1,0.7,0.1c1.1,0,1.4-0.4,1.8-1.5l0.2-0.4L149.5,11.9z"/>
		<path class="st10" d="M158,16.1c0-2.6,1.4-4.4,3.8-4.4c2.5,0,3.8,1.8,3.8,4.4c0,2.6-1.4,4.4-3.8,4.4C159.3,20.5,158,18.8,158,16.1
			z M159.5,16.1c0,2.1,0.7,3.3,2.3,3.3c1.6,0,2.3-1.2,2.3-3.3c0-2-0.7-3.3-2.3-3.3C160.2,12.8,159.5,14.1,159.5,16.1z"/>
		<path class="st10" d="M169.4,17.1c0,0.6,0,1.3,0.3,1.7c0.3,0.4,0.7,0.6,1.3,0.6c1.6,0,2.3-1,2.3-2.9v-4.6h1.4v8.4h-1.4v-1.4h0
			c-0.4,0.9-1.3,1.6-2.7,1.6c-1.6,0-2.7-0.8-2.7-2.8v-5.9h1.4V17.1z"/>
		<path class="st10" d="M177.9,11.9h1.4v1.6h0c0.4-0.9,1.4-1.7,2.7-1.7h0.1v1.5h-0.3c-1.5,0-2.5,0.9-2.5,2.5v4.6h-1.4V11.9z"/>
		<path class="st10" d="M195.6,20.3h-1.4v-1.4h0c-0.4,0.8-1.4,1.6-2.7,1.6c-1.8,0-3.4-1.1-3.4-4.4c0-2.9,1.5-4.5,3.6-4.5
			c1.3,0,2.1,0.7,2.4,1.5h0V7.7h1.4V20.3z M194.2,15.8c0-1.8-0.9-2.9-2.3-2.9c-1.6,0-2.4,1.3-2.4,3.3c0,1.9,0.6,3.3,2.2,3.3
			c1.5,0,2.4-1.2,2.4-2.7V15.8z"/>
		<path class="st10" d="M201.8,20.5c-2.6,0-3.8-1.9-3.8-4.4c0-2.5,1.3-4.5,3.8-4.5c2.5,0,3.5,2,3.5,4.1v0.7h-5.8
			c0.1,1.7,0.8,2.9,2.4,2.9c1.4,0,1.8-0.8,1.9-1.3h1.4C204.8,19.6,203.6,20.5,201.8,20.5z M203.8,15.3c0-1.4-0.6-2.5-2.1-2.5
			c-1.3,0-2.1,1.1-2.3,2.6L203.8,15.3L203.8,15.3z"/>
		<path class="st10" d="M211.9,14c-0.1-0.8-0.7-1.2-1.7-1.2s-1.6,0.6-1.6,1.4c0,0.7,0.4,1,1.3,1.2l1.3,0.2c1.8,0.3,2.4,1,2.4,2.4
			c0,1.7-1.4,2.6-3.3,2.6c-1.7,0-3.2-0.8-3.3-2.6h1.4c0.1,0.7,0.4,1.5,1.9,1.5c1.2,0,1.9-0.5,1.9-1.4c0-0.7-0.2-1-1.3-1.2l-1.3-0.2
			c-1.5-0.2-2.3-0.9-2.3-2.3c0-1.5,1.1-2.6,3.1-2.6c1.8,0,2.9,0.8,3,2.3H211.9z"/>
		<path class="st10" d="M215.9,8.4h1.5V10h-1.5V8.4z M216,11.9h1.5v8.4H216V11.9z"/>
		<path class="st10" d="M220.1,21.2h1.4c0.2,0.7,0.7,1.2,2.1,1.2c1.6,0,2.4-0.6,2.4-2.4v-1.2h0c-0.4,0.8-1.4,1.6-2.7,1.6
			c-1.8,0-3.4-1.1-3.4-4.2c0-2.8,1.5-4.3,3.6-4.3c1.4,0,2.2,0.8,2.5,1.5h0v-1.3h1.4v8.2c0,2.4-1.6,3.4-3.8,3.4
			C221.9,23.5,220.3,22.9,220.1,21.2z M226,15.7c0-1.7-0.9-2.8-2.4-2.8c-1.5,0-2.2,1.3-2.2,3.2c0,1.9,0.5,3.1,2.3,3.1
			c1.4,0,2.3-1.2,2.3-2.6V15.7z"/>
		<path class="st10" d="M235.9,15.1c0-0.6,0-1.3-0.3-1.7c-0.3-0.4-0.8-0.6-1.3-0.6c-1.6,0-2.3,1-2.3,2.4v5.1h-1.4v-8.4h1.4v1.4h0
			c0.4-0.9,1.4-1.6,2.7-1.6c1.6,0,2.7,0.8,2.7,2.8v5.9h-1.4V15.1z"/>
		<path class="st10" d="M239.8,18.4h2v2h-2V18.4z"/>
		<path class="st10" d="M-50,44.4h4.5v1.3H-50V44.4z"/>
		<path class="st10" d="M-38.3,38.1h7.8v1.3h-6.3v4.1h5.8v1.3h-5.8V49h6.4v1.3h-7.9V38.1z"/>
		<path class="st10" d="M-25.7,46l-2.7-4.1h1.7l1.8,2.9h0l1.9-2.9h1.6l-2.7,4l2.9,4.4h-1.7l-2.1-3.3h0l-2.1,3.3h-1.6L-25.7,46z"/>
		<path class="st10" d="M-19.2,41.9h1.4v1.4h0c0.5-0.9,1.4-1.6,2.7-1.6c1.8,0,3.4,1.1,3.4,4.3c0,3.1-1.6,4.5-3.5,4.5
			c-1.2,0-2.2-0.7-2.5-1.4h0v4.2h-1.4V41.9z M-15.4,49.4c1.5,0,2.2-1.2,2.2-3.4c0-1.8-0.5-3.2-2.3-3.2c-1.5,0-2.4,1.3-2.4,2.7v0.9
			C-17.8,48.1-17,49.4-15.4,49.4z"/>
		<path class="st10" d="M-9.9,46.1c0-2.6,1.4-4.4,3.8-4.4c2.5,0,3.8,1.8,3.8,4.4c0,2.6-1.4,4.4-3.8,4.4C-8.6,50.5-9.9,48.8-9.9,46.1
			z M-8.4,46.1c0,2.1,0.7,3.3,2.3,3.3c1.6,0,2.3-1.2,2.3-3.3c0-2-0.7-3.3-2.3-3.3C-7.6,42.8-8.4,44.1-8.4,46.1z"/>
		<path class="st10" d="M0.1,41.9h1.4v1.6h0c0.4-0.9,1.4-1.7,2.7-1.7h0.1v1.5H4c-1.5,0-2.5,0.9-2.5,2.5v4.6H0.1V41.9z"/>
		<path class="st10" d="M8.5,39.5v2.4h2.1V43H8.5v5c0,0.9,0.4,1.2,1.3,1.2c0.4,0,0.9-0.1,0.9-0.1v1.2c0,0-0.6,0.1-1.3,0.1
			c-1.6,0-2.3-0.8-2.3-2.2V43H5.6v-1.1h0.3c1.1,0,1.4-0.3,1.4-1.9v-0.6H8.5z"/>
		<path class="st10" d="M16.9,44.2c0-1.5,1.2-2.5,3.2-2.5c2.1,0,3.1,0.9,3.1,3.1v3.4c0,0.7,0.1,0.9,0.8,1v1.2h-0.2
			c-1.3,0-1.8-0.5-1.9-1.5h0c-0.4,1-1.5,1.6-2.7,1.6c-1.7,0-2.7-0.9-2.7-2.4c0-0.9,0.4-1.7,1.3-2.1c0.9-0.5,2.2-0.6,4.1-0.7v-0.4
			c0-1.5-0.6-2.1-1.8-2.1c-1.2,0-1.7,0.7-1.8,1.4H16.9z M21.8,46.5v-0.2c-1.8,0.1-2.9,0.2-3.4,0.6c-0.3,0.2-0.5,0.6-0.5,1
			c0,0.9,0.6,1.3,1.5,1.3C20.5,49.3,21.8,48.6,21.8,46.5z"/>
		<path class="st10" d="M31.6,45.1c0-0.6,0-1.3-0.3-1.7c-0.3-0.4-0.8-0.6-1.3-0.6c-1.6,0-2.3,1-2.3,2.4v5.1h-1.4v-8.4h1.4v1.4h0
			c0.4-0.9,1.4-1.6,2.7-1.6c1.6,0,2.7,0.8,2.7,2.8v5.9h-1.4V45.1z"/>
		<path class="st10" d="M42.9,50.3h-1.4v-1.4h0c-0.4,0.8-1.4,1.6-2.7,1.6c-1.8,0-3.4-1.1-3.4-4.4c0-2.9,1.5-4.5,3.6-4.5
			c1.3,0,2.1,0.7,2.4,1.5h0v-5.5h1.4V50.3z M41.5,45.8c0-1.8-0.9-2.9-2.3-2.9c-1.6,0-2.4,1.3-2.4,3.3c0,1.9,0.6,3.3,2.2,3.3
			c1.5,0,2.4-1.2,2.4-2.7V45.8z"/>
		<path class="st10" d="M54.7,44c-0.1-0.8-0.7-1.2-1.7-1.2s-1.6,0.6-1.6,1.4c0,0.7,0.4,1,1.3,1.2l1.3,0.2c1.8,0.3,2.4,1,2.4,2.4
			c0,1.7-1.4,2.6-3.3,2.6c-1.7,0-3.2-0.8-3.3-2.6h1.4c0.1,0.7,0.4,1.5,1.9,1.5c1.2,0,1.9-0.5,1.9-1.4c0-0.7-0.2-1-1.3-1.2l-1.3-0.2
			c-1.5-0.2-2.3-0.9-2.3-2.3c0-1.5,1.1-2.6,3.1-2.6c1.8,0,2.9,0.8,3,2.3H54.7z"/>
		<path class="st10" d="M60.1,47.1c0,0.6,0,1.3,0.3,1.7c0.3,0.4,0.7,0.6,1.3,0.6c1.6,0,2.3-1,2.3-2.9v-4.6h1.4v8.4h-1.4v-1.4h0
			c-0.4,0.9-1.3,1.6-2.7,1.6c-1.6,0-2.7-0.8-2.7-2.8v-5.9h1.4V47.1z"/>
		<path class="st10" d="M68.6,37.7H70v5.6h0c0.5-0.9,1.4-1.6,2.7-1.6c1.8,0,3.4,1.1,3.4,4.3c0,3.1-1.6,4.5-3.5,4.5
			c-1.3,0-2.2-0.7-2.6-1.6h0v1.3h-1.4V37.7z M74.6,46c0-1.8-0.5-3.2-2.3-3.2c-1.5,0-2.4,1.3-2.4,2.7v0.9c0,1.7,0.8,3,2.4,3
			C73.9,49.4,74.6,48.2,74.6,46z"/>
		<path class="st10" d="M78.5,41.9h1.4v1.4h0c0.4-0.9,1.4-1.6,2.7-1.6c1.3,0,2.2,0.6,2.5,1.7h0c0.3-0.9,1.4-1.7,2.8-1.7
			c1.6,0,2.7,0.8,2.7,2.8v5.9h-1.4v-5.2c0-0.6,0-1.3-0.3-1.7c-0.3-0.4-0.8-0.5-1.3-0.5c-1.6,0-2.3,1-2.3,2.4v5.1h-1.4v-5.2
			c0-0.6,0-1.2-0.3-1.7c-0.3-0.4-0.8-0.6-1.3-0.6c-1.6,0-2.3,1-2.3,2.4v5.1h-1.4V41.9z"/>
		<path class="st10" d="M93.7,38.4h1.5V40h-1.5V38.4z M93.7,41.9h1.5v8.4h-1.5V41.9z"/>
		<path class="st10" d="M100.1,39.5v2.4h2.1V43h-2.1v5c0,0.9,0.4,1.2,1.3,1.2c0.4,0,0.9-0.1,0.9-0.1v1.2c0,0-0.6,0.1-1.3,0.1
			c-1.6,0-2.3-0.8-2.3-2.2V43h-1.5v-1.1h0.3c1.1,0,1.4-0.3,1.4-1.9v-0.6H100.1z"/>
		<path class="st10" d="M108.8,37.7h1.4v12.6h-1.4V37.7z"/>
		<path class="st10" d="M112.7,46.1c0-2.6,1.4-4.4,3.8-4.4c2.5,0,3.8,1.8,3.8,4.4c0,2.6-1.4,4.4-3.8,4.4
			C113.9,50.5,112.7,48.8,112.7,46.1z M114.1,46.1c0,2.1,0.7,3.3,2.3,3.3c1.6,0,2.3-1.2,2.3-3.3c0-2-0.7-3.3-2.3-3.3
			C114.9,42.8,114.1,44.1,114.1,46.1z"/>
		<path class="st10" d="M122.3,51.2h1.4c0.2,0.7,0.7,1.2,2.1,1.2c1.6,0,2.4-0.6,2.4-2.4v-1.2h0c-0.4,0.8-1.4,1.6-2.7,1.6
			c-1.8,0-3.4-1.1-3.4-4.2c0-2.8,1.5-4.3,3.6-4.3c1.4,0,2.2,0.8,2.5,1.5h0v-1.3h1.4v8.2c0,2.4-1.6,3.4-3.8,3.4
			C124.1,53.5,122.4,52.9,122.3,51.2z M128.2,45.7c0-1.7-0.9-2.8-2.4-2.8c-1.5,0-2.2,1.3-2.2,3.2c0,1.9,0.5,3.1,2.3,3.1
			c1.4,0,2.3-1.2,2.3-2.6V45.7z"/>
		<path class="st10" d="M131.9,46.1c0-2.6,1.4-4.4,3.8-4.4c2.5,0,3.8,1.8,3.8,4.4c0,2.6-1.4,4.4-3.8,4.4
			C133.2,50.5,131.9,48.8,131.9,46.1z M133.4,46.1c0,2.1,0.7,3.3,2.3,3.3c1.6,0,2.3-1.2,2.3-3.3c0-2-0.7-3.3-2.3-3.3
			C134.2,42.8,133.4,44.1,133.4,46.1z"/>
		<path class="st10" d="M146.2,44c-0.1-0.8-0.7-1.2-1.7-1.2s-1.6,0.6-1.6,1.4c0,0.7,0.4,1,1.3,1.2l1.3,0.2c1.8,0.3,2.4,1,2.4,2.4
			c0,1.7-1.4,2.6-3.3,2.6c-1.7,0-3.2-0.8-3.3-2.6h1.4c0.1,0.7,0.4,1.5,1.9,1.5c1.2,0,1.9-0.5,1.9-1.4c0-0.7-0.2-1-1.3-1.2l-1.3-0.2
			c-1.5-0.2-2.3-0.9-2.3-2.3c0-1.5,1.1-2.6,3.1-2.6c1.8,0,2.9,0.8,3,2.3H146.2z"/>
		<path class="st10" d="M154.4,44.2c0-1.5,1.2-2.5,3.2-2.5c2.1,0,3.1,0.9,3.1,3.1v3.4c0,0.7,0.1,0.9,0.8,1v1.2h-0.2
			c-1.3,0-1.8-0.5-1.9-1.5h0c-0.4,1-1.5,1.6-2.7,1.6c-1.7,0-2.7-0.9-2.7-2.4c0-0.9,0.4-1.7,1.3-2.1c0.9-0.5,2.2-0.6,4.1-0.7v-0.4
			c0-1.5-0.6-2.1-1.8-2.1c-1.2,0-1.7,0.7-1.8,1.4H154.4z M159.3,46.5v-0.2c-1.8,0.1-2.9,0.2-3.4,0.6c-0.3,0.2-0.5,0.6-0.5,1
			c0,0.9,0.6,1.3,1.5,1.3C158,49.3,159.3,48.6,159.3,46.5z"/>
		<path class="st10" d="M165.5,39.5v2.4h2.1V43h-2.1v5c0,0.9,0.4,1.2,1.3,1.2c0.4,0,0.9-0.1,0.9-0.1v1.2c0,0-0.6,0.1-1.3,0.1
			c-1.6,0-2.3-0.8-2.3-2.2V43h-1.5v-1.1h0.3c1.1,0,1.4-0.3,1.4-1.9v-0.6H165.5z"/>
		<path class="st10" d="M176,41.6h-2.4v-1h0.4c0.8,0,1.4-0.2,1.7-0.6c0.4-0.4,0.5-0.8,0.5-1.6h1.2v11.9H176V41.6z"/>
		<path class="st10" d="M185,38.3c2.6,0,4.3,2,4.3,6.1c0,4.1-1.7,6.1-4.3,6.1c-2.6,0-4.2-2-4.2-6.1C180.7,40.3,182.4,38.3,185,38.3z
			 M187.7,44.5c0-3.3-1-5-2.7-5c-1.7,0-2.7,1.6-2.7,5c0,3.3,1,4.9,2.7,4.9C186.7,49.4,187.7,47.7,187.7,44.5z"/>
		<path class="st10" d="M195.9,38.3c2.6,0,4.3,2,4.3,6.1c0,4.1-1.7,6.1-4.3,6.1c-2.6,0-4.2-2-4.2-6.1
			C191.7,40.3,193.4,38.3,195.9,38.3z M198.7,44.5c0-3.3-1-5-2.7-5c-1.7,0-2.7,1.6-2.7,5c0,3.3,1,4.9,2.7,4.9
			C197.6,49.4,198.7,47.7,198.7,44.5z"/>
		<path class="st10" d="M206.9,38.3c2.6,0,4.3,2,4.3,6.1c0,4.1-1.7,6.1-4.3,6.1c-2.6,0-4.2-2-4.2-6.1
			C202.7,40.3,204.3,38.3,206.9,38.3z M209.6,44.5c0-3.3-1-5-2.7-5c-1.7,0-2.7,1.6-2.7,5c0,3.3,1,4.9,2.7,4.9
			C208.6,49.4,209.6,47.7,209.6,44.5z"/>
		<path class="st10" d="M213.9,41.9h1.4v1.4h0c0.5-0.9,1.4-1.6,2.7-1.6c1.8,0,3.4,1.1,3.4,4.3c0,3.1-1.6,4.5-3.5,4.5
			c-1.2,0-2.2-0.7-2.5-1.4h0v4.2h-1.4V41.9z M217.8,49.4c1.5,0,2.2-1.2,2.2-3.4c0-1.8-0.5-3.2-2.3-3.2c-1.5,0-2.4,1.3-2.4,2.7v0.9
			C215.3,48.1,216.2,49.4,217.8,49.4z"/>
		<path class="st10" d="M225.4,46l-2.7-4.1h1.7l1.8,2.9h0l1.9-2.9h1.6l-2.7,4l2.9,4.4h-1.7l-2.1-3.3h0l-2.1,3.3h-1.6L225.4,46z"/>
		<path class="st10" d="M240.7,44c-0.1-0.8-0.7-1.2-1.7-1.2s-1.6,0.6-1.6,1.4c0,0.7,0.4,1,1.3,1.2l1.3,0.2c1.8,0.3,2.4,1,2.4,2.4
			c0,1.7-1.4,2.6-3.3,2.6c-1.7,0-3.2-0.8-3.3-2.6h1.4c0.1,0.7,0.4,1.5,1.9,1.5c1.2,0,1.9-0.5,1.9-1.4c0-0.7-0.2-1-1.3-1.2l-1.3-0.2
			c-1.5-0.2-2.3-0.9-2.3-2.3c0-1.5,1.1-2.6,3.1-2.6c1.8,0,2.9,0.8,3,2.3H240.7z"/>
		<path class="st10" d="M251.6,53.3h-1.4v-4.3h0c-0.4,0.8-1.3,1.5-2.6,1.5c-1.8,0-3.4-1.1-3.4-4.4c0-2.9,1.5-4.5,3.6-4.5
			c1.3,0,2.1,0.7,2.4,1.5h0v-1.3h1.4V53.3z M250.2,46.7v-0.9c0-1.8-0.9-2.9-2.3-2.9c-1.6,0-2.4,1.3-2.4,3.3c0,1.9,0.6,3.3,2.2,3.3
			C249.2,49.4,250.2,48.2,250.2,46.7z"/>
		<path class="st10" d="M256,47.1c0,0.6,0,1.3,0.3,1.7c0.3,0.4,0.7,0.6,1.3,0.6c1.6,0,2.3-1,2.3-2.9v-4.6h1.4v8.4H260v-1.4h0
			c-0.4,0.9-1.3,1.6-2.7,1.6c-1.6,0-2.7-0.8-2.7-2.8v-5.9h1.4V47.1z"/>
		<path class="st10" d="M264.1,44.2c0-1.5,1.2-2.5,3.2-2.5c2.1,0,3.1,0.9,3.1,3.1v3.4c0,0.7,0.1,0.9,0.8,1v1.2H271
			c-1.3,0-1.8-0.5-1.9-1.5h0c-0.4,1-1.5,1.6-2.7,1.6c-1.7,0-2.7-0.9-2.7-2.4c0-0.9,0.4-1.7,1.3-2.1c0.9-0.5,2.2-0.6,4.1-0.7v-0.4
			c0-1.5-0.6-2.1-1.8-2.1c-1.2,0-1.7,0.7-1.8,1.4H264.1z M269,46.5v-0.2c-1.8,0.1-2.9,0.2-3.4,0.6c-0.3,0.2-0.5,0.6-0.5,1
			c0,0.9,0.6,1.3,1.5,1.3C267.7,49.3,269,48.6,269,46.5z"/>
		<path class="st10" d="M273.5,41.9h1.4v1.6h0c0.4-0.9,1.4-1.7,2.7-1.7h0.1v1.5h-0.3c-1.5,0-2.5,0.9-2.5,2.5v4.6h-1.4V41.9z"/>
		<path class="st10" d="M282.8,50.5c-2.6,0-3.8-1.9-3.8-4.4c0-2.5,1.3-4.5,3.8-4.5c2.5,0,3.5,2,3.5,4.1v0.7h-5.8
			c0.1,1.7,0.8,2.9,2.4,2.9c1.4,0,1.8-0.8,1.9-1.3h1.4C285.8,49.6,284.6,50.5,282.8,50.5z M284.8,45.3c0-1.4-0.6-2.5-2.1-2.5
			c-1.3,0-2.1,1.1-2.3,2.6L284.8,45.3L284.8,45.3z"/>
		<path class="st10" d="M295,39.5v2.4h2.1V43H295v5c0,0.9,0.4,1.2,1.3,1.2c0.4,0,0.9-0.1,0.9-0.1v1.2c0,0-0.6,0.1-1.3,0.1
			c-1.6,0-2.3-0.8-2.3-2.2V43H292v-1.1h0.3c1.1,0,1.4-0.3,1.4-1.9v-0.6H295z"/>
		<path class="st10" d="M298.6,46.1c0-2.6,1.4-4.4,3.8-4.4c2.5,0,3.8,1.8,3.8,4.4c0,2.6-1.4,4.4-3.8,4.4
			C299.9,50.5,298.6,48.8,298.6,46.1z M300.1,46.1c0,2.1,0.7,3.3,2.3,3.3c1.6,0,2.3-1.2,2.3-3.3c0-2-0.7-3.3-2.3-3.3
			C300.8,42.8,300.1,44.1,300.1,46.1z"/>
		<path class="st10" d="M308.2,41.9h2v2h-2V41.9z M308.2,50.3v-2h2v2H308.2z"/>
		<path class="st10" d="M-32,74.4h4.5v1.3H-32V74.4z"/>
		<path class="st10" d="M-21.5,80.4v-1.3h0.3c2.6,0,3-0.7,3-2.5v-8.5h1.5v8.7c0,2.6-1.4,3.6-4.1,3.6H-21.5z"/>
		<path class="st10" d="M-11.8,75.7v4.7h-1.5V68.1h3.7c2.4,0,4.2,1.1,4.2,3.8c0,2.6-1.8,3.8-4.3,3.8H-11.8z M-9.7,74.5
			c1.8,0,2.8-0.9,2.8-2.6c0-1.8-1-2.6-2.8-2.6h-2.1v5.2H-9.7z"/>
		<path class="st10" d="M-1.9,74.3c0,3.2,1.4,5.1,3.9,5.1c2.3,0,3.7-1.3,3.7-3.7v-0.2H2.1v-1.3h5v6.2H5.8v-1.8H5.8
			c-0.6,1.1-1.8,2-3.8,2c-3.1,0-5.4-2-5.4-6.3c0-4,2.4-6.4,5.6-6.4c2.5,0,4.3,1.3,4.6,3.4H5.2c-0.2-1.4-1.5-2.2-3.1-2.2
			C-0.5,69.1-1.9,71.2-1.9,74.3z"/>
		<path class="st10" d="M10.2,78.4H12l-1.3,3.8h-1L10.2,78.4z"/>
		<path class="st10" d="M20.4,75.7v4.7h-1.5V68.1h3.7c2.4,0,4.2,1.1,4.2,3.8c0,2.6-1.8,3.8-4.3,3.8H20.4z M22.4,74.5
			c1.8,0,2.8-0.9,2.8-2.6c0-1.8-1-2.6-2.8-2.6h-2.1v5.2H22.4z"/>
		<path class="st10" d="M29.2,68.1h1.9l5.4,9.1c0.4,0.7,0.6,1.2,0.6,1.2h0V68.1h1.4v12.2h-1.9l-5.4-9.1c-0.5-0.8-0.6-1.2-0.6-1.2h0
			v10.3h-1.4V68.1z"/>
		<path class="st10" d="M43.1,74.3c0,3.2,1.4,5.1,3.9,5.1c2.3,0,3.7-1.3,3.7-3.7v-0.2h-3.5v-1.3h5v6.2h-1.3v-1.8h-0.1
			c-0.6,1.1-1.8,2-3.8,2c-3.1,0-5.4-2-5.4-6.3c0-4,2.4-6.4,5.6-6.4c2.5,0,4.3,1.3,4.6,3.4h-1.6c-0.2-1.4-1.5-2.2-3.1-2.2
			C44.5,69.1,43.1,71.2,43.1,74.3z"/>
		<path class="st10" d="M55.1,71.9h2v2h-2V71.9z M55.1,80.3v-2h2v2H55.1z"/>
		<path class="st10" d="M68.4,74c-0.1-0.8-0.7-1.2-1.7-1.2S65,73.4,65,74.1c0,0.7,0.4,1,1.3,1.2l1.3,0.2c1.8,0.3,2.4,1,2.4,2.4
			c0,1.7-1.4,2.6-3.3,2.6c-1.7,0-3.2-0.8-3.3-2.6h1.4c0.1,0.7,0.4,1.5,1.9,1.5c1.2,0,1.9-0.5,1.9-1.4c0-0.7-0.2-1-1.3-1.2L66,76.6
			c-1.5-0.2-2.3-0.9-2.3-2.3c0-1.5,1.1-2.6,3.1-2.6c1.8,0,2.9,0.8,3,2.3H68.4z"/>
		<path class="st10" d="M75.6,80.5c-2.6,0-3.8-1.9-3.8-4.4c0-2.5,1.3-4.5,3.8-4.5c2.5,0,3.5,2,3.5,4.1v0.7h-5.8
			c0.1,1.7,0.8,2.9,2.4,2.9c1.4,0,1.8-0.8,1.9-1.3h1.4C78.6,79.6,77.4,80.5,75.6,80.5z M77.6,75.3c0-1.4-0.6-2.5-2.1-2.5
			c-1.3,0-2.1,1.1-2.3,2.6L77.6,75.3L77.6,75.3z"/>
		<path class="st10" d="M83.2,69.5v2.4h2.1V73h-2.1v5c0,0.9,0.4,1.2,1.3,1.2c0.4,0,0.9-0.1,0.9-0.1v1.2c0,0-0.6,0.1-1.3,0.1
			c-1.6,0-2.3-0.8-2.3-2.2V73h-1.5v-1.1h0.3c1.1,0,1.4-0.3,1.4-1.9v-0.6H83.2z"/>
		<path class="st10" d="M93.7,69.5v2.4h2.1V73h-2.1v5c0,0.9,0.4,1.2,1.3,1.2c0.4,0,0.9-0.1,0.9-0.1v1.2c0,0-0.6,0.1-1.3,0.1
			c-1.6,0-2.3-0.8-2.3-2.2V73h-1.5v-1.1H91c1.1,0,1.4-0.3,1.4-1.9v-0.6H93.7z"/>
		<path class="st10" d="M97.3,76.1c0-2.6,1.4-4.4,3.8-4.4c2.5,0,3.8,1.8,3.8,4.4c0,2.6-1.4,4.4-3.8,4.4
			C98.6,80.5,97.3,78.8,97.3,76.1z M98.8,76.1c0,2.1,0.7,3.3,2.3,3.3c1.6,0,2.3-1.2,2.3-3.3c0-2-0.7-3.3-2.3-3.3
			C99.6,72.8,98.8,74.1,98.8,76.1z"/>
		<path class="st10" d="M111.8,71.9h1.4v1.4h0c0.4-0.9,1.4-1.6,2.7-1.6c1.3,0,2.2,0.6,2.5,1.7h0c0.3-0.9,1.4-1.7,2.8-1.7
			c1.6,0,2.7,0.8,2.7,2.8v5.9h-1.4v-5.2c0-0.6,0-1.3-0.3-1.7c-0.3-0.4-0.8-0.5-1.3-0.5c-1.6,0-2.3,1-2.3,2.4v5.1h-1.4v-5.2
			c0-0.6,0-1.2-0.3-1.7c-0.3-0.4-0.8-0.6-1.3-0.6c-1.6,0-2.3,1-2.3,2.4v5.1h-1.4V71.9z"/>
		<path class="st10" d="M126.7,74.2c0-1.5,1.2-2.5,3.2-2.5c2.1,0,3.1,0.9,3.1,3.1v3.4c0,0.7,0.1,0.9,0.8,1v1.2h-0.2
			c-1.3,0-1.8-0.5-1.9-1.5h0c-0.4,1-1.5,1.6-2.7,1.6c-1.7,0-2.7-0.9-2.7-2.4c0-0.9,0.4-1.7,1.3-2.1c0.9-0.5,2.2-0.6,4.1-0.7v-0.4
			c0-1.5-0.6-2.1-1.8-2.1c-1.2,0-1.7,0.7-1.8,1.4H126.7z M131.6,76.5v-0.2c-1.8,0.1-2.9,0.2-3.4,0.6c-0.3,0.2-0.5,0.6-0.5,1
			c0,0.9,0.6,1.3,1.5,1.3C130.2,79.3,131.6,78.6,131.6,76.5z"/>
		<path class="st10" d="M137.7,76l-2.7-4.1h1.7l1.8,2.9h0l1.9-2.9h1.6l-2.7,4l2.9,4.4h-1.7l-2.1-3.3h0l-2.1,3.3h-1.6L137.7,76z"/>
		<path class="st10" d="M144.2,68.4h1.5V70h-1.5V68.4z M144.3,71.9h1.5v8.4h-1.5V71.9z"/>
		<path class="st10" d="M148.9,71.9h1.4v1.4h0c0.4-0.9,1.4-1.6,2.7-1.6c1.3,0,2.2,0.6,2.5,1.7h0c0.3-0.9,1.4-1.7,2.8-1.7
			c1.6,0,2.7,0.8,2.7,2.8v5.9h-1.4v-5.2c0-0.6,0-1.3-0.3-1.7c-0.3-0.4-0.8-0.5-1.3-0.5c-1.6,0-2.3,1-2.3,2.4v5.1h-1.4v-5.2
			c0-0.6,0-1.2-0.3-1.7c-0.3-0.4-0.8-0.6-1.3-0.6c-1.6,0-2.3,1-2.3,2.4v5.1h-1.4V71.9z"/>
		<path class="st10" d="M165.5,77.1c0,0.6,0,1.3,0.3,1.7c0.3,0.4,0.7,0.6,1.3,0.6c1.6,0,2.3-1,2.3-2.9v-4.6h1.4v8.4h-1.4v-1.4h0
			c-0.4,0.9-1.3,1.6-2.7,1.6c-1.6,0-2.7-0.8-2.7-2.8v-5.9h1.4V77.1z"/>
		<path class="st10" d="M174,71.9h1.4v1.4h0c0.4-0.9,1.4-1.6,2.7-1.6c1.3,0,2.2,0.6,2.5,1.7h0c0.3-0.9,1.4-1.7,2.8-1.7
			c1.6,0,2.7,0.8,2.7,2.8v5.9h-1.4v-5.2c0-0.6,0-1.3-0.3-1.7c-0.3-0.4-0.8-0.5-1.3-0.5c-1.6,0-2.3,1-2.3,2.4v5.1h-1.4v-5.2
			c0-0.6,0-1.2-0.3-1.7c-0.3-0.4-0.8-0.6-1.3-0.6c-1.6,0-2.3,1-2.3,2.4v5.1H174V71.9z"/>
		<path class="st10" d="M200.4,83.3H199v-4.3h0c-0.4,0.8-1.3,1.5-2.6,1.5c-1.8,0-3.4-1.1-3.4-4.4c0-2.9,1.5-4.5,3.6-4.5
			c1.3,0,2.1,0.7,2.4,1.5h0v-1.3h1.4V83.3z M199,76.7v-0.9c0-1.8-0.9-2.9-2.3-2.9c-1.6,0-2.4,1.3-2.4,3.3c0,1.9,0.6,3.3,2.2,3.3
			C198.1,79.4,199,78.2,199,76.7z"/>
		<path class="st10" d="M204.9,77.1c0,0.6,0,1.3,0.3,1.7c0.3,0.4,0.7,0.6,1.3,0.6c1.6,0,2.3-1,2.3-2.9v-4.6h1.4v8.4h-1.4v-1.4h0
			c-0.4,0.9-1.3,1.6-2.7,1.6c-1.6,0-2.7-0.8-2.7-2.8v-5.9h1.4V77.1z"/>
		<path class="st10" d="M213,74.2c0-1.5,1.2-2.5,3.2-2.5c2.1,0,3.1,0.9,3.1,3.1v3.4c0,0.7,0.1,0.9,0.8,1v1.2h-0.2
			c-1.3,0-1.8-0.5-1.9-1.5h0c-0.4,1-1.5,1.6-2.7,1.6c-1.7,0-2.7-0.9-2.7-2.4c0-0.9,0.4-1.7,1.3-2.1c0.9-0.5,2.2-0.6,4.1-0.7v-0.4
			c0-1.5-0.6-2.1-1.8-2.1c-1.2,0-1.7,0.7-1.8,1.4H213z M217.9,76.5v-0.2c-1.8,0.1-2.9,0.2-3.4,0.6c-0.3,0.2-0.5,0.6-0.5,1
			c0,0.9,0.6,1.3,1.5,1.3C216.6,79.3,217.9,78.6,217.9,76.5z"/>
		<path class="st10" d="M222.3,67.7h1.4v12.6h-1.4V67.7z"/>
		<path class="st10" d="M226.9,68.4h1.5V70h-1.5V68.4z M226.9,71.9h1.5v8.4h-1.5V71.9z"/>
		<path class="st10" d="M233.3,69.5v2.4h2.1V73h-2.1v5c0,0.9,0.4,1.2,1.3,1.2c0.4,0,0.9-0.1,0.9-0.1v1.2c0,0-0.6,0.1-1.3,0.1
			c-1.6,0-2.3-0.8-2.3-2.2V73h-1.5v-1.1h0.3c1.1,0,1.4-0.3,1.4-1.9v-0.6H233.3z"/>
		<path class="st10" d="M236.9,71.9h1.4l1.8,5.3c0.3,0.8,0.4,1.3,0.4,1.3h0c0,0,0.1-0.5,0.4-1.3l1.7-5.3h1.4l-3.1,9
			c-0.7,1.9-1.2,2.7-3.1,2.7c-0.3,0-0.6,0-0.9-0.1v-1.2c0.3,0.1,0.6,0.1,0.7,0.1c1.1,0,1.4-0.4,1.8-1.5l0.2-0.4L236.9,71.9z"/>
		<path class="st10" d="M244.6,78.4h2v2h-2V78.4z"/>
		<path class="st10" d="M-32,104.4h4.5v1.3H-32V104.4z"/>
		<path class="st10" d="M-18.7,105.7v4.7h-1.5V98.1h3.7c2.4,0,4.2,1.1,4.2,3.8c0,2.6-1.8,3.8-4.3,3.8H-18.7z M-16.7,104.5
			c1.8,0,2.8-0.9,2.8-2.6c0-1.8-1-2.6-2.8-2.6h-2.1v5.2H-16.7z"/>
		<path class="st10" d="M-9.8,98.1h3.8c3.3,0,5.9,1.6,5.9,6c0,4.3-2.4,6.3-5.7,6.3h-3.9V98.1z M-6.1,109.1c2.6,0,4.4-1.3,4.4-4.9
			c0-3.4-1.8-4.7-4.3-4.7h-2.4v9.7H-6.1z"/>
		<path class="st10" d="M4.2,110.3H2.8V98.1h7.3v1.3H4.2v4.4h5.3v1.3H4.2V110.3z"/>
		<path class="st10" d="M-32,134.4h4.5v1.3H-32V134.4z"/>
		<path class="st10" d="M-20.2,128.1h7.8v1.3h-6.3v4.1h5.8v1.3h-5.8v4.2h6.4v1.3h-7.9V128.1z"/>
		<path class="st10" d="M-7.7,135.7v4.7h-1.5v-12.2h3.7c2.4,0,4.2,1.1,4.2,3.8c0,2.6-1.8,3.8-4.3,3.8H-7.7z M-5.7,134.5
			c1.8,0,2.8-0.9,2.8-2.6c0-1.8-1-2.6-2.8-2.6h-2.1v5.2H-5.7z"/>
		<path class="st10" d="M7.7,131.4c-0.1-1.2-0.8-2.3-2.5-2.3c-1.7,0-2.6,0.9-2.6,2.1c0,1.1,0.6,1.8,2,2l1.7,0.3
			c2.4,0.4,3.2,1.6,3.2,3.3c0,2.2-1.5,3.7-4.5,3.7c-2.8,0-4.4-1.5-4.6-3.7h1.6c0.2,1.3,1.1,2.5,3.1,2.5c2.2,0,2.9-1.1,2.9-2.4
			c0-1.1-0.6-1.8-2.1-2l-1.7-0.3c-2.4-0.4-3.2-1.7-3.2-3.3c0-2,1.6-3.4,4.1-3.4c2.6,0,3.9,1.4,4,3.5H7.7z"/>
		<path class="st10" d="M12,131.9h2v2h-2V131.9z M12,140.3v-2h2v2H12z"/>
		<path class="st10" d="M24.2,140.5c-2.6,0-3.8-1.9-3.8-4.4c0-2.5,1.3-4.5,3.8-4.5c2.5,0,3.5,2,3.5,4.1v0.7h-5.8
			c0.1,1.7,0.8,2.9,2.4,2.9c1.4,0,1.8-0.8,1.9-1.3h1.4C27.2,139.6,26,140.5,24.2,140.5z M26.2,135.3c0-1.4-0.6-2.5-2.1-2.5
			c-1.3,0-2.1,1.1-2.3,2.6L26.2,135.3L26.2,135.3z"/>
		<path class="st10" d="M31.7,136l-2.7-4.1h1.7l1.8,2.9h0l1.9-2.9H36l-2.7,4l2.9,4.4h-1.7l-2.1-3.3h0l-2.1,3.3h-1.6L31.7,136z"/>
		<path class="st10" d="M38.2,131.9h1.4v1.4h0c0.5-0.9,1.4-1.6,2.7-1.6c1.8,0,3.4,1.1,3.4,4.3c0,3.1-1.6,4.5-3.5,4.5
			c-1.2,0-2.2-0.7-2.5-1.4h0v4.2h-1.4V131.9z M42,139.4c1.5,0,2.2-1.2,2.2-3.4c0-1.8-0.5-3.2-2.3-3.2c-1.5,0-2.4,1.3-2.4,2.7v0.9
			C39.6,138.1,40.4,139.4,42,139.4z"/>
		<path class="st10" d="M47.5,136.1c0-2.6,1.4-4.4,3.8-4.4c2.5,0,3.8,1.8,3.8,4.4c0,2.6-1.4,4.4-3.8,4.4
			C48.8,140.5,47.5,138.8,47.5,136.1z M49,136.1c0,2.1,0.7,3.3,2.3,3.3c1.6,0,2.3-1.2,2.3-3.3c0-2-0.7-3.3-2.3-3.3
			C49.8,132.8,49,134.1,49,136.1z"/>
		<path class="st10" d="M57.5,131.9h1.4v1.6h0c0.4-0.9,1.4-1.7,2.7-1.7h0.1v1.5h-0.3c-1.5,0-2.5,0.9-2.5,2.5v4.6h-1.4V131.9z"/>
		<path class="st10" d="M65.9,129.5v2.4H68v1.1h-2.1v5c0,0.9,0.4,1.2,1.3,1.2c0.4,0,0.9-0.1,0.9-0.1v1.2c0,0-0.6,0.1-1.3,0.1
			c-1.6,0-2.3-0.8-2.3-2.2V133H63v-1.1h0.3c1.1,0,1.4-0.3,1.4-1.9v-0.6H65.9z"/>
		<path class="st10" d="M79,135.1h-2.7v5.2h-1.5v-12.2h4.4c0.9,0,1.7,0.2,2.4,0.5c1,0.5,1.6,1.5,1.6,2.9c0,2.3-1.5,3.1-2.6,3.4v0
			l2.7,5.4h-1.7L79,135.1z M79.1,133.9c1.4,0,2.5-0.7,2.5-2.4c0-1.5-1-2.2-2.4-2.2h-2.9v4.6H79.1z"/>
		<path class="st10" d="M86.9,134.3c0,3.2,1.4,5.1,3.9,5.1c2.3,0,3.7-1.3,3.7-3.7v-0.2H91v-1.3h5v6.2h-1.3v-1.8h-0.1
			c-0.6,1.1-1.8,2-3.8,2c-3.1,0-5.4-2-5.4-6.3c0-4,2.4-6.4,5.6-6.4c2.5,0,4.3,1.3,4.6,3.4H94c-0.2-1.4-1.5-2.2-3.1-2.2
			C88.3,129.1,86.9,131.2,86.9,134.3z"/>
		<path class="st10" d="M99.4,140.3v-12.2h4.8c2.1,0,3.8,1,3.8,3c0,1.5-0.8,2.4-2.2,2.7v0c1.5,0.3,2.6,1.5,2.6,2.9
			c0,2.8-2.1,3.6-4.5,3.6H99.4z M103.9,133.2c1.3,0,2.5-0.5,2.5-2c0-1.3-0.9-1.9-2.3-1.9h-3.2v4H103.9z M103.8,139.1
			c1.8,0,3-0.6,3-2.4c0-1.6-1.2-2.2-3.1-2.2h-2.8v4.7H103.8z"/>
		<path class="st10" d="M117.6,142.4c-0.9-1.8-2.1-4.1-2.1-7.3c0-3.2,1.2-5.5,2.1-7.3h1.1c-0.9,2-1.7,4.1-1.7,7.3
			c0,3.3,0.8,5.4,1.7,7.3H117.6z"/>
		<path class="st10" d="M127.6,140.3h-1.4v-1.4h0c-0.4,0.8-1.4,1.6-2.7,1.6c-1.8,0-3.4-1.1-3.4-4.4c0-2.9,1.5-4.5,3.6-4.5
			c1.3,0,2.1,0.7,2.4,1.5h0v-5.5h1.4V140.3z M126.2,135.8c0-1.8-0.9-2.9-2.3-2.9c-1.6,0-2.4,1.3-2.4,3.3c0,1.9,0.6,3.3,2.2,3.3
			c1.5,0,2.4-1.2,2.4-2.7V135.8z"/>
		<path class="st10" d="M130.7,128.4h1.5v1.6h-1.5V128.4z M130.8,131.9h1.5v8.4h-1.5V131.9z"/>
		<path class="st10" d="M134.8,141.2h1.4c0.2,0.7,0.7,1.2,2.1,1.2c1.6,0,2.4-0.6,2.4-2.4v-1.2h0c-0.4,0.8-1.4,1.6-2.7,1.6
			c-1.8,0-3.4-1.1-3.4-4.2c0-2.8,1.5-4.3,3.6-4.3c1.4,0,2.2,0.8,2.5,1.5h0v-1.3h1.4v8.2c0,2.4-1.6,3.4-3.8,3.4
			C136.7,143.5,135,142.9,134.8,141.2z M140.8,135.7c0-1.7-0.9-2.8-2.4-2.8c-1.5,0-2.2,1.3-2.2,3.2c0,1.9,0.5,3.1,2.3,3.1
			c1.4,0,2.3-1.2,2.3-2.6V135.7z"/>
		<path class="st10" d="M145.3,128.4h1.5v1.6h-1.5V128.4z M145.3,131.9h1.5v8.4h-1.5V131.9z"/>
		<path class="st10" d="M151.7,129.5v2.4h2.1v1.1h-2.1v5c0,0.9,0.4,1.2,1.3,1.2c0.4,0,0.9-0.1,0.9-0.1v1.2c0,0-0.6,0.1-1.3,0.1
			c-1.6,0-2.3-0.8-2.3-2.2V133h-1.5v-1.1h0.3c1.1,0,1.4-0.3,1.4-1.9v-0.6H151.7z"/>
		<path class="st10" d="M156.2,134.2c0-1.5,1.2-2.5,3.2-2.5c2.1,0,3.1,0.9,3.1,3.1v3.4c0,0.7,0.1,0.9,0.8,1v1.2h-0.2
			c-1.3,0-1.8-0.5-1.9-1.5h0c-0.4,1-1.5,1.6-2.7,1.6c-1.7,0-2.7-0.9-2.7-2.4c0-0.9,0.4-1.7,1.3-2.1c0.9-0.5,2.2-0.6,4.1-0.7v-0.4
			c0-1.5-0.6-2.1-1.8-2.1c-1.2,0-1.7,0.7-1.8,1.4H156.2z M161.1,136.5v-0.2c-1.8,0.1-2.9,0.2-3.4,0.6c-0.3,0.2-0.5,0.6-0.5,1
			c0,0.9,0.6,1.3,1.5,1.3C159.8,139.3,161.1,138.6,161.1,136.5z"/>
		<path class="st10" d="M165.5,127.7h1.4v12.6h-1.4V127.7z"/>
		<path class="st10" d="M170.9,135.1c0-3.3-0.8-5.4-1.7-7.3h1.1c0.9,1.8,2.1,4.1,2.1,7.3c0,3.2-1.2,5.5-2.1,7.3h-1.1
			C170.1,140.4,170.9,138.3,170.9,135.1z"/>
		<path class="st10" d="M179.8,134.2c0-1.5,1.2-2.5,3.2-2.5c2.1,0,3.1,0.9,3.1,3.1v3.4c0,0.7,0.1,0.9,0.8,1v1.2h-0.2
			c-1.3,0-1.8-0.5-1.9-1.5h0c-0.4,1-1.5,1.6-2.7,1.6c-1.7,0-2.7-0.9-2.7-2.4c0-0.9,0.4-1.7,1.3-2.1c0.9-0.5,2.2-0.6,4.1-0.7v-0.4
			c0-1.5-0.6-2.1-1.8-2.1c-1.2,0-1.7,0.7-1.8,1.4H179.8z M184.7,136.5v-0.2c-1.8,0.1-2.9,0.2-3.4,0.6c-0.3,0.2-0.5,0.6-0.5,1
			c0,0.9,0.6,1.3,1.5,1.3C183.4,139.3,184.7,138.6,184.7,136.5z"/>
		<path class="st10" d="M194.5,135.1c0-0.6,0-1.3-0.3-1.7c-0.3-0.4-0.8-0.6-1.3-0.6c-1.6,0-2.3,1-2.3,2.4v5.1h-1.4v-8.4h1.4v1.4h0
			c0.4-0.9,1.4-1.6,2.7-1.6c1.6,0,2.7,0.8,2.7,2.8v5.9h-1.4V135.1z"/>
		<path class="st10" d="M205.8,140.3h-1.4v-1.4h0c-0.4,0.8-1.4,1.6-2.7,1.6c-1.8,0-3.4-1.1-3.4-4.4c0-2.9,1.5-4.5,3.6-4.5
			c1.3,0,2.1,0.7,2.4,1.5h0v-5.5h1.4V140.3z M204.4,135.8c0-1.8-0.9-2.9-2.3-2.9c-1.6,0-2.4,1.3-2.4,3.3c0,1.9,0.6,3.3,2.2,3.3
			c1.5,0,2.4-1.2,2.4-2.7V135.8z"/>
		<path class="st10" d="M214.6,134.2c0,3.2,1.4,5.1,3.9,5.1c2.2,0,3.1-1.5,3.2-2.8h1.5c-0.2,2.3-2,4.1-4.7,4.1
			c-3.2,0-5.4-2.1-5.4-6.3c0-4,2.3-6.3,5.5-6.3c2.1,0,4.4,1.1,4.7,3.8h-1.6c-0.2-1.2-1.2-2.6-3.1-2.6
			C216,129.1,214.6,131.2,214.6,134.2z"/>
		<path class="st10" d="M226.1,128.1h2.3l3.1,8.8c0.4,1.1,0.5,1.6,0.5,1.6h0c0,0,0.2-0.5,0.5-1.6l3.2-8.8h2.2v12.2h-1.5v-10.5h0
			c0,0-0.2,0.6-0.7,1.9l-3.1,8.6h-1.4l-3-8.6c-0.4-1.3-0.7-1.9-0.7-1.9h0v10.5h-1.4V128.1z"/>
		<path class="st10" d="M244.3,135.1l-4.3-7h1.7l3.3,5.7h0l3.4-5.7h1.6l-4.3,6.9v5.3h-1.5V135.1z"/>
		<path class="st10" d="M253.5,140.3h-1.5v-12.2h1.5v6.3l5.7-6.3h1.8l-4.7,5.1l5,7.1h-1.8l-4.3-6l-1.8,2V140.3z"/>
		<path class="st10" d="M270.1,142.4c-0.9-1.8-2.1-4.1-2.1-7.3c0-3.2,1.2-5.5,2.1-7.3h1.1c-0.9,2-1.7,4.1-1.7,7.3
			c0,3.3,0.8,5.4,1.7,7.3H270.1z"/>
		<path class="st10" d="M273.5,131.9h1.4v1.4h0c0.5-0.9,1.4-1.6,2.7-1.6c1.8,0,3.4,1.1,3.4,4.3c0,3.1-1.6,4.5-3.5,4.5
			c-1.2,0-2.2-0.7-2.5-1.4h0v4.2h-1.4V131.9z M277.3,139.4c1.5,0,2.2-1.2,2.2-3.4c0-1.8-0.5-3.2-2.3-3.2c-1.5,0-2.4,1.3-2.4,2.7v0.9
			C274.9,138.1,275.7,139.4,277.3,139.4z"/>
		<path class="st10" d="M283.4,131.9h1.4v1.6h0c0.4-0.9,1.4-1.7,2.7-1.7h0.1v1.5h-0.3c-1.5,0-2.5,0.9-2.5,2.5v4.6h-1.4V131.9z"/>
		<path class="st10" d="M289.8,128.4h1.5v1.6h-1.5V128.4z M289.8,131.9h1.5v8.4h-1.5V131.9z"/>
		<path class="st10" d="M299.8,135.1c0-0.6,0-1.3-0.3-1.7c-0.3-0.4-0.8-0.6-1.3-0.6c-1.6,0-2.3,1-2.3,2.4v5.1h-1.4v-8.4h1.4v1.4h0
			c0.4-0.9,1.4-1.6,2.7-1.6c1.6,0,2.7,0.8,2.7,2.8v5.9h-1.4V135.1z"/>
		<path class="st10" d="M306.1,129.5v2.4h2.1v1.1h-2.1v5c0,0.9,0.4,1.2,1.3,1.2c0.4,0,0.9-0.1,0.9-0.1v1.2c0,0-0.6,0.1-1.3,0.1
			c-1.6,0-2.3-0.8-2.3-2.2V133h-1.5v-1.1h0.3c1.1,0,1.4-0.3,1.4-1.9v-0.6H306.1z"/>
		<path class="st10" d="M311.4,135.1c0-3.3-0.8-5.4-1.7-7.3h1.1c0.9,1.8,2.1,4.1,2.1,7.3c0,3.2-1.2,5.5-2.1,7.3h-1.1
			C310.6,140.4,311.4,138.3,311.4,135.1z"/>
		<path class="st10" d="M319.5,131.9h1.5l1.8,5.4c0.2,0.7,0.4,1.3,0.4,1.3h0c0,0,0.2-0.6,0.4-1.3l1.9-5.4h1.4l-2.9,8.4h-1.5
			L319.5,131.9z"/>
		<path class="st10" d="M331.9,140.5c-2.6,0-3.8-1.9-3.8-4.4c0-2.5,1.3-4.5,3.8-4.5c2.5,0,3.5,2,3.5,4.1v0.7h-5.8
			c0.1,1.7,0.8,2.9,2.4,2.9c1.4,0,1.8-0.8,1.9-1.3h1.4C335,139.6,333.7,140.5,331.9,140.5z M333.9,135.3c0-1.4-0.6-2.5-2.1-2.5
			c-1.3,0-2.1,1.1-2.3,2.6L333.9,135.3L333.9,135.3z"/>
		<path class="st10" d="M337.7,131.9h1.4v1.6h0c0.4-0.9,1.4-1.7,2.7-1.7h0.1v1.5h-0.3c-1.5,0-2.5,0.9-2.5,2.5v4.6h-1.4V131.9z"/>
		<path class="st10" d="M348.1,134c-0.1-0.8-0.7-1.2-1.7-1.2s-1.6,0.6-1.6,1.4c0,0.7,0.4,1,1.3,1.2l1.3,0.2c1.8,0.3,2.4,1,2.4,2.4
			c0,1.7-1.4,2.6-3.3,2.6c-1.7,0-3.2-0.8-3.3-2.6h1.4c0.1,0.7,0.4,1.5,1.9,1.5c1.2,0,1.9-0.5,1.9-1.4c0-0.7-0.2-1-1.3-1.2l-1.3-0.2
			c-1.5-0.2-2.3-0.9-2.3-2.3c0-1.5,1.1-2.6,3.1-2.6c1.8,0,2.9,0.8,3,2.3H348.1z"/>
		<path class="st10" d="M352.2,128.4h1.5v1.6h-1.5V128.4z M352.3,131.9h1.5v8.4h-1.5V131.9z"/>
		<path class="st10" d="M356.1,136.1c0-2.6,1.4-4.4,3.8-4.4c2.5,0,3.8,1.8,3.8,4.4c0,2.6-1.4,4.4-3.8,4.4
			C357.4,140.5,356.1,138.8,356.1,136.1z M357.6,136.1c0,2.1,0.7,3.3,2.3,3.3c1.6,0,2.3-1.2,2.3-3.3c0-2-0.7-3.3-2.3-3.3
			C358.4,132.8,357.6,134.1,357.6,136.1z"/>
		<path class="st10" d="M371.5,135.1c0-0.6,0-1.3-0.3-1.7c-0.3-0.4-0.8-0.6-1.3-0.6c-1.6,0-2.3,1-2.3,2.4v5.1h-1.4v-8.4h1.4v1.4h0
			c0.4-0.9,1.4-1.6,2.7-1.6c1.6,0,2.7,0.8,2.7,2.8v5.9h-1.4V135.1z"/>
		<path class="st10" d="M380.2,134c-0.1-0.8-0.7-1.2-1.7-1.2s-1.6,0.6-1.6,1.4c0,0.7,0.4,1,1.3,1.2l1.3,0.2c1.8,0.3,2.4,1,2.4,2.4
			c0,1.7-1.4,2.6-3.3,2.6c-1.7,0-3.2-0.8-3.3-2.6h1.4c0.1,0.7,0.4,1.5,1.9,1.5c1.2,0,1.9-0.5,1.9-1.4c0-0.7-0.2-1-1.3-1.2l-1.3-0.2
			c-1.5-0.2-2.3-0.9-2.3-2.3c0-1.5,1.1-2.6,3.1-2.6c1.8,0,2.9,0.8,3,2.3H380.2z"/>
		<path class="st10" d="M383.7,138.4h2v2h-2V138.4z"/>
	</g>
</g>
</svg>
