<?xml version="1.0" encoding="utf-8"?>
<!-- Generator: Adobe Illustrator 24.1.0, SVG Export Plug-In . SVG Version: 6.00 Build 0)  -->
<svg version="1.1" id="Layer_1" xmlns="http://www.w3.org/2000/svg" xmlns:xlink="http://www.w3.org/1999/xlink" x="0px" y="0px"
	 viewBox="0 0 474 107.47" style="enable-background:new 0 0 474 107.47;" xml:space="preserve">
<style type="text/css">
	.st0{fill:#4D4D4D;}
	.st1{fill:url(#SVGID_1_);}
	.st2{fill:#333333;}
</style>
<g>
	<g>
		<path class="st0" d="M50.57,0v62.06c-0.74-1.56-1.78-3.13-3.11-4.69c-1.33-1.56-2.94-2.94-4.82-4.14
			c-1.89-1.19-4.03-2.16-6.42-2.89c-2.39-0.74-5.01-1.11-7.86-1.11c-4.04,0-7.79,0.74-11.23,2.21c-3.45,1.47-6.44,3.47-8.97,6
			s-4.53,5.56-6,9.1c-1.47,3.54-2.2,7.38-2.2,11.52c0,2.88,0.6,6.39,1.33,9.02c2.41-0.71,4.83-1.58,7.34-2.25
			c-0.6-1.99-1.09-4.67-1.09-6.9c0-3.04,0.55-5.84,1.66-8.41c1.1-2.58,2.62-4.81,4.55-6.69c1.93-1.89,4.2-3.38,6.82-4.48
			c2.62-1.11,5.45-1.66,8.48-1.66c3.04,0,5.86,0.55,8.48,1.66c2.62,1.1,4.9,2.62,6.83,4.55c1.93,1.93,3.45,4.18,4.55,6.75
			c0.79,1.86,1.38,4.54,1.61,6.59c2.54-0.39,5.04-0.86,7.64-1.22L58.15,0H50.57z"/>
		<path class="st0" d="M114.56,50.48L114,61.92c-0.65-1.47-1.61-2.96-2.9-4.48s-2.87-2.9-4.76-4.14c-1.88-1.24-4.02-2.23-6.41-2.96
			c-2.39-0.74-4.96-1.11-7.72-1.11c-3.95,0-7.68,0.76-11.17,2.28s-6.55,3.61-9.17,6.27c-2.62,2.67-4.69,5.77-6.21,9.31
			c-0.9,2.1-1.6,4.73-1.96,6.98c2.58-0.33,5.17-0.77,7.8-1.06c0.26-1.1,0.69-2.48,1.13-3.5c1.1-2.58,2.62-4.81,4.55-6.69
			c1.93-1.89,4.2-3.38,6.82-4.48c2.62-1.11,5.45-1.66,8.49-1.66c3.03,0,5.86,0.55,8.48,1.66c2.62,1.1,4.89,2.62,6.82,4.55
			c1.93,1.93,3.45,4.18,4.55,6.75l0.13,0.32c3.06-0.13,6.01-0.35,9.11-0.43V50.48H114.56z"/>
		<path class="st0" d="M174.19,53.79c-3.17-3.04-7.47-4.56-12.89-4.56c-5.52,0-10.25,1.43-14.21,4.28
			c-3.95,2.85-6.94,6.57-8.96,11.17l-0.69-14.2h-6.48v19.26c1.93-0.02,3.85-0.02,5.79-0.02c1.04,0,2-0.34,3.03-0.33
			c0.08-0.21,0.26-0.64,0.35-0.85c1.06-2.39,2.53-4.46,4.41-6.21c1.89-1.74,4.07-3.1,6.55-4.06c2.48-0.97,5.2-1.45,8.14-1.45
			c4.04,0.18,7.08,1.38,9.1,3.58c2.02,2.21,3.12,4.88,3.31,8l0.01,2.22c2.55,0.15,5.07,0.32,7.58,0.5l-0.01-5.33
			C179.05,60.82,177.37,56.82,174.19,53.79z"/>
		<path class="st0" d="M222.81,50.89c-3.13-1.1-6.44-1.66-9.93-1.66c-4.05,0-7.84,0.76-11.38,2.28c-3.54,1.52-6.62,3.56-9.24,6.14
			c-2.62,2.57-4.69,5.63-6.2,9.17c-0.59,1.37-1.16,3.15-1.52,4.59c2.56,0.21,5.1,0.38,7.62,0.62c0.21-0.72,0.57-1.76,0.86-2.46
			c1.1-2.62,2.62-4.87,4.55-6.75c1.93-1.89,4.21-3.38,6.83-4.48c2.62-1.11,5.44-1.66,8.48-1.66c5.24,0,9.74,1.52,13.51,4.55
			c0.83-1.01,1.66-1.95,2.48-2.83c0.83-0.87,1.61-1.81,2.35-2.82C228.74,53.56,225.93,51.99,222.81,50.89z"/>
		<path class="st0" d="M274.04,54.61c-4.46-3.67-9.73-5.51-15.79-5.51c-3.96,0-7.68,0.75-11.17,2.27c-3.5,1.52-6.55,3.59-9.17,6.21
			s-4.69,5.7-6.21,9.24c-1.32,3.08-2.08,6.58-2.25,9.98c2.54,0.43,5.08,0.91,7.56,1.37l0.01-0.4c0-2.85,0.55-5.54,1.66-8.07
			c1.1-2.53,2.62-4.76,4.55-6.69s4.18-3.46,6.75-4.62c2.58-1.14,5.33-1.72,8.28-1.72c3.49,0,6.66,0.9,9.51,2.69
			c2.85,1.79,5.06,4.25,6.62,7.38c-2.67,1.01-5.56,2.13-8.69,3.38c-3.12,1.24-6.29,2.53-9.51,3.86s-6.44,2.64-9.65,3.93
			c-1.04,0.41-2.41,0.96-3.41,1.37c3.1,0.63,5.98,1.36,8.97,2.05l0,0c3.03-1.23,6.61-2.68,9.67-3.91c4-1.6,7.91-3.17,11.73-4.68
			c3.81-1.52,7.28-2.88,10.41-4.07C281.77,62.98,278.49,58.29,274.04,54.61z"/>
	</g>
	
		<linearGradient id="SVGID_1_" gradientUnits="userSpaceOnUse" x1="379.668" y1="1078.295" x2="379.668" y2="987.9735" gradientTransform="matrix(1 0 0 1 0 -971.06)">
		<stop  offset="0" style="stop-color:#92298D"/>
		<stop  offset="1" style="stop-color:#672F8F"/>
	</linearGradient>
	<path class="st1" d="M474.37,48.65c-2.69-3.21-6.08-5.73-9.6-7.91c-1.75-1.11-3.58-2.06-5.39-3.06c-1.8-1.03-3.68-1.89-5.55-2.79
		c-7.49-3.51-15.39-6.2-23.51-8.01c-16.22-3.62-33.38-3.74-49.73,0.37c-2.02,0.58-4.06,1.12-6.07,1.74c-1.99,0.7-4,1.37-5.97,2.12
		c-1.21,0.47-2.41,0.98-3.6,1.49c-2.42-4.34-5.64-7.68-9.7-9.99c-4.33-2.46-9.31-3.69-14.95-3.69c-6.73,0-13.09,1.4-19.09,4.19
		c-0.8,0.37-1.59,0.76-2.38,1.17c-2.04,1.04-4.03,2.21-5.9,3.51c-3.28,2.29-6.28,5.08-8.31,8.56c-2.16,3.72-3.05,8.74-2.3,12.99
		c0.78,4.38,3.72,8.27,8.12,9.39c4.98,1.26,10.3,0.12,15.15-1.2c4.25-1.16,8.23-2.84,12.11-4.58c1.06-0.48,2.12-0.97,3.16-1.48
		c1.89-0.91,3.76-1.85,5.59-2.81c3.41-1.78,6.73-3.63,10.03-5.45c0.02,0.44,0.05,0.88,0.05,1.33c0,7.66-1.7,15.91-5.09,24.76
		c-3.39,8.85-7.54,16.13-12.46,21.82c-3.98,4.55-7.8,7.76-11.45,9.62c-3.65,1.87-7.36,2.8-11.14,2.8c-6.31,0-10.98-2.28-14.01-6.83
		c-3.03-4.56-4.54-9.78-4.54-15.68c0-6.02,1.02-12.34,3.05-18.94c-2.79-3.9-4.43-8.64-4.43-13.75c0-1.52,0.15-3.01,0.43-4.45
		c-2.27,3.22-4.36,6.74-6.27,10.59c-3.83,7.71-5.75,15.52-5.75,23.44c0,4.5,1.06,9.12,3.19,13.86c2.12,4.73,5.37,8.55,9.74,11.45
		c4.37,2.9,9.85,4.35,16.42,4.35c9.05,0,17.84-2.63,26.35-7.88c8.52-5.26,15.4-12.88,20.65-22.87c3.87-7.35,6.31-14.45,7.33-21.3
		l2.62-0.67c1.24-0.2,2.12-0.31,2.64-0.31c1.03,0,1.93,0.35,2.68,1.05s1.12,1.52,1.12,2.45s-0.67,3.75-2.02,8.46l-11.41,39.12h9.4
		l3.1-10.32c1.29-4.19,2.92-8.07,4.89-11.64c3.73-6.68,7.26-12.18,10.6-16.5s6.53-7.42,9.59-9.28c1.65-0.98,3.05-1.47,4.19-1.47
		c0.77,0,1.43,0.26,1.98,0.77c0.54,0.52,0.81,1.19,0.81,2.02c0,1.76-0.44,4.19-1.32,7.3l-7.29,25.15c-1.4,4.87-2.1,8.31-2.1,10.33
		c0,1.55,0.45,2.79,1.36,3.72c0.9,0.93,2.13,1.4,3.69,1.4c1.91,0,4.08-0.8,6.52-2.41c2.79-1.92,8.35-8.02,12.44-13.22
		c0.5,3.54,1.96,6.84,4.41,9.88c3.08,3.84,7.65,5.75,13.7,5.75c8.95,0,18.37-4.89,28.26-14.67l-1.32-1.79
		c-5.43,4.19-9.54,6.91-12.3,8.15c-2.77,1.25-5.66,1.87-8.66,1.87c-3.78,0-6.98-1.31-9.59-3.92c-2.61-2.62-3.92-5.79-3.92-9.51
		c0-1.35,0.13-3.06,0.39-5.13c8.49-0.98,15.06-2.33,19.72-4.03c7.04-2.54,12.37-5.88,15.99-10.02c2.74-3.16,4.11-6.47,4.11-9.94
		c0-2.43-1.06-4.55-3.18-6.36s-5.38-2.72-9.78-2.72c-6.16,0-12.12,1.81-17.89,5.44c-5.78,3.62-10.57,8.68-14.4,15.17
		c-3.68,6.23-5.57,12.32-5.72,18.29c-2.99,3.84-8.47,10.13-10.48,11.72c-0.72,0.52-1.32,0.77-1.78,0.77c-0.37,0-0.72-0.19-1.05-0.58
		c-0.34-0.39-0.51-0.86-0.51-1.44c0-0.67,0.44-2.53,1.32-5.58l7.61-26.32c1.19-4.14,1.79-7.48,1.79-10.02
		c0-2.17-0.68-3.96-2.02-5.35c-1.35-1.4-3.06-2.1-5.13-2.1c-3.83,0-7.82,1.84-11.99,5.51c-4.17,3.68-10.13,11.34-17.89,22.98
		l8.3-28.49l-21.15,3.79c0.14-1.53,0.22-3.06,0.22-4.56c0-3.65-0.63-7.21-1.88-10.68c1.12-0.54,2.25-1.07,3.38-1.56
		c1.84-0.79,3.71-1.49,5.56-2.24c1.89-0.66,3.8-1.25,5.7-1.89c15.38-4.53,31.95-5.14,47.9-2.26c7.98,1.44,15.83,3.76,23.34,6.91
		c1.87,0.81,3.76,1.58,5.57,2.52c1.82,0.91,3.67,1.78,5.43,2.8c3.54,2,6.93,4.31,9.66,7.31c0.14,0.16,0.39,0.18,0.56,0.04
		C474.5,49.08,474.51,48.82,474.37,48.65z M345.56,41.88c-1.56,0.75-3.13,1.48-4.7,2.2c-2.97,1.36-5.96,2.66-9,3.86
		c-4.04,1.59-8.18,3.02-12.48,3.62c-2.59,0.36-5.43,0.35-7.55-1.17c-2.46-1.77-3.25-5.19-2.74-8.18c0.85-4.88,4.55-8.79,8.59-11.66
		c2.92-2.07,6.61-4.08,10.54-5.5c8.54-3.08,18.24-3.39,23.74,4.43c1.63,2.32,2.81,4.83,3.57,7.53
		C352.2,38.64,348.89,40.29,345.56,41.88z M444.04,58.98c4.76-4.5,9.27-6.76,13.51-6.76c2.02,0,3.58,0.55,4.7,1.63
		c1.11,1.09,1.67,2.49,1.67,4.2c0,2.9-1.28,5.94-3.85,9.12c-2.56,3.18-6.4,5.91-11.52,8.19c-3.89,1.71-8.91,2.92-15.06,3.65
		C435.75,70.16,439.27,63.48,444.04,58.98z"/>
	<path class="st2" d="M58.16,74.37v31.26h-7.58v-5.65c0-1.01,0.04-2,0.13-2.96c0.09-0.97,0.14-1.91,0.14-2.83
		c-1.84,3.4-4.69,6.34-8.55,8.82c-3.86,2.49-8.55,3.73-14.06,3.73c-4.23,0-8.07-0.76-11.52-2.28c-3.45-1.51-6.41-3.56-8.89-6.13
		c-2.48-2.58-4.42-5.61-5.79-9.11c-0.37-0.95-0.7-1.91-0.97-2.89c2.41-0.71,4.87-1.41,7.38-2.08c0.21,0.71,0.47,1.4,0.76,2.08
		c1.1,2.57,2.62,4.83,4.55,6.76s4.2,3.44,6.82,4.55c2.62,1.1,5.45,1.65,8.48,1.65c3.04,0,5.86-0.55,8.48-1.65
		c2.62-1.11,4.9-2.62,6.83-4.55s3.45-4.19,4.55-6.76s1.66-5.38,1.66-8.41c0-0.82-0.04-1.63-0.13-2.42
		C52.99,75.11,55.56,74.73,58.16,74.37z"/>
	<path class="st2" d="M121.58,69.34v36.29H114v-5.65c0-1.01,0.02-1.98,0.07-2.9c0.04-0.91,0.07-1.79,0.07-2.61
		c-0.65,1.56-1.61,3.05-2.9,4.48c-1.29,1.42-2.87,2.73-4.76,3.93c-1.88,1.19-4.02,2.13-6.41,2.82s-5.01,1.04-7.86,1.04
		c-4.14,0-7.98-0.76-11.51-2.28c-3.54-1.51-6.58-3.56-9.11-6.13c-2.53-2.58-4.53-5.59-5.99-9.04c-1.48-3.44-2.21-7.1-2.21-10.96
		c0-1.6,0.13-3.17,0.38-4.71c2.58-0.33,5.18-0.64,7.81-0.93c-0.41,1.66-0.61,3.4-0.61,5.23c0,3.03,0.56,5.84,1.66,8.41
		c1.1,2.57,2.62,4.83,4.55,6.76s4.2,3.44,6.82,4.55c2.62,1.1,5.45,1.65,8.49,1.65c3.03,0,5.86-0.55,8.48-1.65
		c2.62-1.11,4.89-2.62,6.82-4.55s3.45-4.19,4.55-6.76c1.11-2.57,1.66-5.38,1.66-8.41c0-2.94-0.55-5.69-1.66-8.27
		C115.41,69.52,118.49,69.42,121.58,69.34z"/>
	<path class="st2" d="M139.87,69.17c-0.89,2.22-1.33,4.63-1.33,7.23v29.23h-7.58V69.19c1.93-0.02,3.87-0.03,5.81-0.03
		C137.81,69.16,138.85,69.16,139.87,69.17z"/>
	<path class="st2" d="M179.23,70.63v35h-7.58V70.14C174.19,70.29,176.72,70.45,179.23,70.63z"/>
	<path class="st2" d="M231.07,100.39c-2.48,2.03-5.26,3.59-8.34,4.69c-3.08,1.11-6.37,1.66-9.86,1.66c-4.05,0-7.84-0.76-11.38-2.28
		c-3.54-1.51-6.62-3.56-9.24-6.13c-2.62-2.58-4.69-5.61-6.2-9.11c-1.52-3.49-2.28-7.21-2.28-11.16c0-2.43,0.29-4.77,0.86-7.03
		c2.56,0.21,5.1,0.43,7.62,0.67c-0.59,2.01-0.89,4.13-0.89,6.36c0,2.94,0.55,5.7,1.65,8.27c1.1,2.57,2.62,4.83,4.55,6.76
		c1.93,1.93,4.21,3.44,6.83,4.55c2.62,1.1,5.44,1.65,8.48,1.65c5.24,0,9.74-1.52,13.51-4.55L231.07,100.39z"/>
	<path class="st2" d="M279.06,99.02c-2.67,2.39-5.79,4.27-9.38,5.65c-3.58,1.38-7.31,2.07-11.17,2.07c-4.04,0-7.84-0.76-11.37-2.28
		c-3.54-1.51-6.62-3.56-9.24-6.13c-2.62-2.58-4.69-5.61-6.21-9.11c-1.52-3.49-2.27-7.21-2.27-11.16c0-0.51,0.01-1.02,0.04-1.52
		c2.54,0.43,5.06,0.88,7.54,1.34c0.01,1.43,0.15,2.69,0.41,3.76c1.93-0.81,3.95-1.64,6.06-2.49c3.1,0.63,6.14,1.29,9.13,1.98
		c-0.93,0.38-1.85,0.75-2.77,1.13c-3.96,1.61-7.64,3.1-11.04,4.48c1.66,3.77,4.21,6.81,7.66,9.1c3.44,2.3,7.37,3.45,11.79,3.45
		c2.94,0,5.74-0.5,8.41-1.52c2.66-1.01,4.92-2.39,6.76-4.13L279.06,99.02z"/>
</g>
</svg>
