<?xml version="1.0" encoding="utf-8"?>
<!-- Generator: Adobe Illustrator 24.1.0, SVG Export Plug-In . SVG Version: 6.00 Build 0)  -->
<svg version="1.1" id="Layer_1" xmlns="http://www.w3.org/2000/svg" xmlns:xlink="http://www.w3.org/1999/xlink" x="0px" y="0px"
	 viewBox="0 0 32 32" style="enable-background:new 0 0 32 32;" xml:space="preserve">
<style type="text/css">
	.st0{fill:#EAEAEA;}
	.st1{fill:#404040;}
	.st2{fill:#C0D53C;}
	.st3{fill:#DEE99A;}
	.st4{fill:#F5957E;}
	.st5{fill:#34C5F1;}
	.st6{fill:#ADE1FB;}
	.st7{fill:#E9122B;}
	.st8{fill:#FFF11E;}
</style>
<g>
	<circle class="st0" cx="16" cy="16" r="16"/>
	<path class="st1" d="M30.1,16c0,0.4,0,0.7,0,1.1c0,0.4-0.1,0.7-0.1,1.1c-0.1,0.7-0.3,1.5-0.5,2.1c-0.1,0.4-0.2,0.7-0.4,1.1
		c-0.3,0.7-0.7,1.5-1.1,2.1c-2.5,4-6.9,6.7-12,6.7c-5.1,0-9.5-2.7-12-6.7c-0.4-0.7-0.8-1.4-1.1-2.1c-0.1-0.4-0.3-0.7-0.4-1.1
		c-0.2-0.7-0.4-1.4-0.5-2.1c-0.1-0.7-0.2-1.4-0.2-2.1C1.9,8.2,8.2,1.9,16,1.9c5.1,0,9.5,2.7,12,6.7c0.4,0.7,0.8,1.4,1.1,2.1
		c0.1,0.4,0.3,0.7,0.4,1.1c0.2,0.7,0.4,1.4,0.5,2.1c0.1,0.4,0.1,0.7,0.1,1.1C30.1,15.3,30.1,15.6,30.1,16z"/>
	<path class="st2" d="M23,23h-6c-0.3,0-0.5-0.2-0.5-0.5v-1c0-0.3,0.2-0.5,0.5-0.5h6c0.3,0,0.5,0.2,0.5,0.5v1
		C23.5,22.8,23.3,23,23,23z"/>
	<path class="st2" d="M23,20h-6c-0.3,0-0.5-0.2-0.5-0.5v-1c0-0.3,0.2-0.5,0.5-0.5h6c0.3,0,0.5,0.2,0.5,0.5v1
		C23.5,19.8,23.3,20,23,20z"/>
	<path class="st3" d="M23,17h-6c-0.3,0-0.5-0.2-0.5-0.5v-1c0-0.3,0.2-0.5,0.5-0.5h6c0.3,0,0.5,0.2,0.5,0.5v1
		C23.5,16.8,23.3,17,23,17z"/>
	<path class="st4" d="M15,14H9c-0.3,0-0.5-0.2-0.5-0.5v-1C8.5,12.2,8.7,12,9,12h6c0.3,0,0.5,0.2,0.5,0.5v1C15.5,13.8,15.3,14,15,14z
		"/>
	<path class="st5" d="M28.2,21c-0.3,0.7-0.6,1.4-1,2H25c-0.3,0-0.5-0.2-0.5-0.5v-1c0-0.3,0.2-0.5,0.5-0.5H28.2z"/>
	<path class="st5" d="M29.1,18c-0.1,0.7-0.3,1.4-0.5,2H25c-0.3,0-0.5-0.2-0.5-0.5v-1c0-0.3,0.2-0.5,0.5-0.5H29.1z"/>
	<path class="st6" d="M29.2,16c0,0.3,0,0.7,0,1H25c-0.3,0-0.5-0.2-0.5-0.5v-1c0-0.3,0.2-0.5,0.5-0.5h4.2
		C29.2,15.3,29.2,15.7,29.2,16z"/>
	<path class="st6" d="M29.1,14H25c-0.3,0-0.5-0.2-0.5-0.5v-1c0-0.3,0.2-0.5,0.5-0.5h3.6C28.8,12.6,29,13.3,29.1,14z"/>
	<path class="st6" d="M28.2,11H25c-0.3,0-0.5-0.2-0.5-0.5v-1C24.5,9.2,24.7,9,25,9h2.2C27.6,9.6,28,10.3,28.2,11z"/>
	<path class="st7" d="M15,23H9c-0.3,0-0.5-0.2-0.5-0.5v-1C8.5,21.2,8.7,21,9,21h6c0.3,0,0.5,0.2,0.5,0.5v1C15.5,22.8,15.3,23,15,23z
		"/>
	<path class="st7" d="M15,20H9c-0.3,0-0.5-0.2-0.5-0.5v-1C8.5,18.2,8.7,18,9,18h6c0.3,0,0.5,0.2,0.5,0.5v1C15.5,19.8,15.3,20,15,20z
		"/>
	<path class="st4" d="M15,17H9c-0.3,0-0.5-0.2-0.5-0.5v-1C8.5,15.2,8.7,15,9,15h6c0.3,0,0.5,0.2,0.5,0.5v1C15.5,16.8,15.3,17,15,17z
		"/>
	<path class="st8" d="M7.5,21.5v1C7.5,22.8,7.3,23,7,23H4.8c-0.4-0.6-0.7-1.3-1-2H7C7.3,21,7.5,21.2,7.5,21.5z"/>
	<path class="st8" d="M7.5,18.5v1C7.5,19.8,7.3,20,7,20H3.4c-0.2-0.6-0.4-1.3-0.5-2H7C7.3,18,7.5,18.2,7.5,18.5z"/>
</g>
</svg>
