<?xml version="1.0" encoding="utf-8"?>
<!-- Generator: Adobe Illustrator 24.1.0, SVG Export Plug-In . SVG Version: 6.00 Build 0)  -->
<svg version="1.1" id="Layer_1" xmlns="http://www.w3.org/2000/svg" xmlns:xlink="http://www.w3.org/1999/xlink" x="0px" y="0px"
	 viewBox="0 0 32 32" style="enable-background:new 0 0 32 32;" xml:space="preserve">
<style type="text/css">
	.st0{fill:#9D150F;}
</style>
<path class="st0" d="M30,8.2c-1.5-2.6-3.6-4.8-6.2-6.2c-2.3-1.3-5-2-7.8-2c-3.1,0-6.1,0.9-8.5,2.5C5.2,3.9,3.3,5.9,2,8.3
	c-1.2,2.3-2,4.9-2,7.7c0,3,0.8,5.7,2.2,8.1C3.3,26,4.9,27.7,6.7,29c2.6,1.9,5.8,3,9.3,3c3.1,0,6.1-0.9,8.5-2.5
	c2.3-1.4,4.1-3.4,5.4-5.7c1.3-2.3,2-5,2-7.8C32,13.2,31.3,10.5,30,8.2z M19,7.8c1.2-0.3,2.4-0.8,3.7-1c1.1-0.2,2.2,1.3,1.8,2.4
	c-0.2,0.5,0,1-0.3,1.4c0.1,0.4-0.2,0.7-0.2,1c-0.1,0.5-0.4,0.5-0.6,0c-0.5-0.3-1-0.7-1.4-1c-0.4-0.1-0.7-0.2-0.8-0.6
	c-0.8-0.5-1.4-1.3-2.3-1.7C18.7,8.1,18.7,7.9,19,7.8z M9.3,25.3c-1.4,0.6-2.1-0.7-3.1-1.2c-0.9-0.5-0.8-1.1-0.5-1.9
	c0.4-0.9,0.8-1.8,1.2-2.6c0.3-0.5,0.5-0.5,0.9-0.1c0.9,1,1.9,1.9,2.8,2.9c0.5,0,0.6,0.4,0.8,0.6c0.2,0.6,1,0.6,1.3,1.1
	C11.7,24.8,10.5,24.9,9.3,25.3z M26.8,20.2c-0.6,1.5-0.5,3.3-1.7,4.7c-0.3,0.5-0.6,0.2-1,0.2c-0.6,0-1.3,0-1.9-0.2
	c-0.2,0-0.3,0-0.4-0.2c-0.3,0.1-0.5-0.1-0.6-0.2c-0.8-1.3-2.1-2.1-2.9-3.4c-0.4-0.6-1-1-1.4-1.5c-1.4-1.4-2.7-2.8-4-4.2
	c-1.2-1.3-2.4-2.5-3.5-3.8c-0.8-0.3-1.2-1-1.6-1.7C6.9,9.2,6.3,8.3,5.4,7.7C5.1,7.5,5.1,7.2,5.5,7c1.7-0.7,1.7-0.8,3.1,0.3
	c2.9,2.2,5.9,4.1,8.8,6.1c1.5,1,2.9,2,4.4,3.1c1.1,0.8,2.2,1.4,3.3,2c0.5,0.3,0.8,0.9,1.4,1C26.9,19.7,26.9,19.9,26.8,20.2z"/>
</svg>
