<?xml version="1.0" encoding="utf-8"?>
<!-- Generator: Adobe Illustrator 24.1.0, SVG Export Plug-In . SVG Version: 6.00 Build 0)  -->
<svg version="1.1" id="Layer_1" xmlns="http://www.w3.org/2000/svg" xmlns:xlink="http://www.w3.org/1999/xlink" x="0px" y="0px"
	 viewBox="0 0 598.4 471.9" style="enable-background:new 0 0 598.4 471.9;" xml:space="preserve">
<style type="text/css">
	.st0{fill:#FFFFFF;}
	.st1{display:none;}
	.st2{display:inline;}
	.st3{clip-path:url(#SVGID_2_);}
	.st4{clip-path:url(#SVGID_4_);fill:#565656;}
	.st5{display:inline;opacity:0.5;fill:#CCCCCC;enable-background:new    ;}
	.st6{clip-path:url(#SVGID_6_);}
	.st7{clip-path:url(#SVGID_8_);fill:#565656;}
	.st8{fill:#555655;}
	.st9{fill:#999999;}
	.st10{fill:#989898;}
</style>
<g id="Your_design">
	<path class="st0" d="M160.2,91.7c-5.4,7-11,13.8-16.9,20.4c-5.9,6.6-12,13-18.9,18.7c-3.5,2.8-7.1,5.5-11.3,7.4
		c-2.1,0.9-4.5,1.7-7.2,1.4c-1.3-0.2-2.7-0.7-3.7-1.6c-1.1-0.9-1.9-2.3-2.1-3.6c-0.3-1.4-0.2-2.6,0-3.8c0.2-1.2,0.6-2.3,1-3.4
		c0.8-2.2,1.8-4.2,3-6.2c2.3-3.9,4.9-7.5,7.7-11c5.6-6.9,11.8-13.3,18.3-19.3c6.6-5.9,13.6-11.5,21.2-16.2c3.8-2.3,7.8-4.5,12.1-6.1
		c2.2-0.8,4.4-1.4,6.8-1.7c1.2-0.1,2.4-0.2,3.7,0c1.3,0.1,2.5,0.4,3.7,1c1.2,0.6,2.4,1.4,3.2,2.4c0.9,1,1.5,2.1,2,3.3
		c0.9,2.3,1.2,4.7,1.3,7.1c0.1,4.7-0.6,9.2-1.7,13.5c-2.2,8.7-5.6,17-9.4,25c-3.9,8-8.3,15.7-13,23.2c-9.6,14.9-20.5,28.9-32.4,42
		c-11.9,13.1-24.8,25.3-38.5,36.5c-3.4,2.8-6.8,5.5-10.5,8.3c-3.7,2.5-7.5,4.9-11.4,7.1c-1.9,1.1-3.9,2.1-6,3.1
		c-2.1,1-4.2,1.9-6.5,2.5c-1.2,0.3-2.4,0.6-4,0.5c-0.8-0.1-1.7-0.2-2.6-0.8c-0.9-0.6-1.6-1.7-1.8-2.6c-0.4-1.8-0.1-3.2,0.2-4.4
		c0.3-1.2,0.8-2.3,1.3-3.4c2-4.3,4.3-8,6.9-11.7l0.5-0.7l0.6-0.7l1.1-1.3l2.2-2.5c1.5-1.7,2.9-3.3,4.4-5c6-6.6,12.2-12.9,18.8-18.8
		c6.6-6,13.4-11.6,20.7-16.8c7.2-5.2,14.8-9.9,22.9-13.8c8.1-3.9,16.6-7,25.6-8.6l3.4-0.5l1.7-0.2l1.7-0.1l3.4-0.2
		c1.1,0,2.3,0.1,3.4,0.1c2.3,0,4.6,0.4,6.9,0.6c0.3,0.1,0.5,0,1,0.1c0.4,0.1,0.7,0.2,1,0.3c0.6,0.2,1.3,0.5,1.8,0.8
		c1.2,0.6,2.3,1.4,3.2,2.3c1.9,1.8,3.4,4.1,4.2,6.4c0.9,2.4,1.1,4.9,1.2,7.3c0.1,4.8-0.9,9.4-2.3,13.7c-1.4,4.4-3.1,8.6-5,12.6
		c-1.9,4.1-4.1,8-6.3,11.8c-4.5,7.7-9.5,15-14.7,22.2c-5.2,7.2-10.7,14.1-16.3,20.9c-5.7,6.8-11.2,13.6-17,20.2
		c-2.9,3.3-5.7,6.7-8.7,10l-8.8,9.9c-11.8,13.1-24,25.9-36.6,38.3C56,339.7,43,351.7,29.1,362.8l-2.6,2l-1.3,1
		c-0.5,0.3-0.9,0.7-1.5,1.1c-2,1.3-3.9,2.4-6,3.4c-2.1,1-4.3,1.9-6.8,2.5c-1.2,0.3-2.6,0.5-4.1,0.3c-0.7,0-1.5-0.3-2.3-0.5
		c-0.4-0.2-0.8-0.4-1.2-0.6c-0.4-0.3-0.7-0.5-1-0.9c-1.3-1.3-1.8-2.9-2.1-4.3c-0.1-0.7-0.2-1.4-0.2-2l0.1-1.9c0.2-2.5,0.8-4.8,1.4-7
		c0.3-1.1,0.7-2.2,1-3.3l1.2-3.2c0.8-2.1,1.7-4.2,2.7-6.3c3.9-8.3,9.3-15.6,14.9-22.4c5.6-6.9,11.5-13.5,17.6-19.9
		c12.3-12.8,25.4-24.7,38.9-36c13.6-11.3,27.7-22,42.2-32.1c14.5-10.1,29.4-19.6,44.8-28.3c3.9-2.2,7.7-4.3,11.6-6.4l11.7-6.1
		c7.8-4.1,15.6-8.3,24-11.6c4.2-1.7,8.5-3.1,12.9-4.1c2.2-0.5,4.5-0.9,6.8-1.2c2.3-0.2,4.6-0.4,6.9-0.4c4.6,0.1,9.4,0.9,13.8,2.5
		c1.1,0.4,2.2,0.9,3.3,1.4c1,0.5,2.1,1.1,3.1,1.7c1,0.6,2,1.2,2.9,1.9c0.9,0.7,1.9,1.4,2.7,2.1c3.4,2.6,6.9,4.9,10.6,6.1
		c1.9,0.6,3.7,0.9,5.7,0.9c1.9,0,3.9-0.4,6-0.9c4-1,8.2-2.7,12.9-3.5c4.7-0.7,9.4-0.5,13.9,0.1c4.5,0.6,8.8,1.6,13.1,2.5
		c4.3,0.9,8.5,1.5,12.8,1.9c8.6,0.6,17.3,0.1,25.8-1.4c8.5-1.6,16.9-4.1,24.9-7.4c8-3.4,15.7-7.5,23.1-12.3
		c7.3-4.8,14.3-10.1,21-15.7c6.6-5.7,13.2-11.6,18.5-18.5c2.7-3.4,5.1-7.1,6.9-11.1c1.8-4,3.1-8.2,3.5-12.6
		c0.4-4.4-0.3-8.8-2.1-12.9c-1.7-4-4.7-7.6-8.7-9.5c-2-0.9-4.2-1.4-6.3-1.5c-2.2-0.1-4.4,0.3-6.5,0.9c-4.2,1.2-8.1,3.3-11.8,5.6
		c-7.5,4.5-14.8,9.4-22,14.5c-14.3,10.3-27.9,21.4-41.4,32.6c-13.5,11.3-26.8,22.8-39.8,34.5c-13,11.8-26,23.7-38.7,35.8
		c-6.4,6.1-12.7,12.1-19,18.3c-6.3,6.1-12.4,12.4-18.5,18.7c-12.2,12.6-24.3,25.5-37.6,37.3c-3.3,2.9-6.7,5.8-10.2,8.5
		c-1.7,1.4-3.5,2.7-5.3,4.1l-5.3,3.9c-3.6,2.6-7.2,5.2-11,7.6c-3.8,2.4-7.8,4.6-12.1,6.3c-4.3,1.7-8.8,3-13.6,3.1
		c-2.5,0.1-5-0.3-7.4-1.1c-2.4-0.9-4.7-2.4-6.4-4.4c-0.9-1-1.6-2.2-2.1-3.5s-0.8-2.7-0.7-4.1c0-2.8,1-5.3,2.2-7.4
		c2.5-4.3,5.9-7.5,9.6-10.3c14.8-10.5,33-16.1,51.1-15.4c9.1,0.3,18,2.2,26.5,4.8c4.3,1.3,8.5,2.9,12.6,4.3
		c4.1,1.5,8.2,2.9,12.4,4.1c8.3,2.5,16.8,4.4,25.4,5.2c8.5,0.8,17.2,0.4,25.9-0.5c8.6-0.9,17.3-2.4,25.9-4c2.1-0.4,4.4-0.8,6.4-1.2
		c2.1-0.4,4.2-1,6.3-1.5c4.2-1.1,8.4-2.5,12.8-3.5c4.4-1,9.1-1.6,13.8-1.3c1.2,0.1,2.4,0.2,3.5,0.4l1.7,0.3l1.7,0.5
		c2.3,0.6,4.4,1.4,6.5,2.2c4.2,1.6,8.1,3.4,12.1,4.5c2,0.5,4,0.9,6.1,1c2.1,0.1,4.2,0.1,6.3,0.1c4.2-0.2,8.4-0.9,12.2-2.3
		c1.9-0.7,3.7-1.6,5.4-2.8c1.9-1.3,3.8-2.4,5.8-3.5c3.9-2.2,7.7-4.3,11.4-6.5c3.6-2.3,7.3-4.8,10.9-7.3c14.3-10,27.9-21.1,40.9-32.8
		c13-11.8,25.3-24.3,36.8-37.4c11.6-13.1,22.4-26.9,32.7-41.1c10.2-14.2,19.8-28.9,28.2-44.3c1.1-1.9,2-3.8,2.9-5.7
		c0.4-0.9,0.8-1.9,1-2.8c0.1-0.4,0.2-0.9,0.3-1.3c0.1-0.3,0-0.7,0-0.5c0,0.1,0.2,0.3,0.4,0.5c0.2,0.2,0.4,0.1,0.3,0.1
		c0,0-0.1,0-0.2,0c-0.1,0.1-0.3,0.1-0.4,0.2c-0.7,0.3-1.5,0.8-2.2,1.4c-1.5,1.3-3,2.8-4.6,4.4c-1.7,1.7-3.3,3.1-4.8,4.6
		c-1.6,1.5-3.1,3.1-4.7,4.6c-3.1,3.1-6.1,6.3-9.1,9.5c-12.1,12.8-23.8,25.8-35.4,39c-5.8,6.6-11.6,13.2-17.3,19.9l-17.1,20.1
		l-34.3,40.1c-11.5,13.3-22.7,26.9-34,40.4l-33.8,40.5l-8.5,10.1l-8.4,10.2l-16.8,20.4l-33.6,40.7c-11.2,13.6-22.3,27.1-32.7,41.3
		c-2.6,3.5-5.5,7.1-8.5,10.4c-3,3.3-6.1,6.6-9.9,9.4c-1,0.7-2,1.3-3.1,1.9c-1.1,0.5-2.3,1.1-3.8,1.3c-0.7,0.1-1.5,0.1-2.3,0
		c-0.4,0-0.8-0.1-1.2-0.3c-0.4-0.1-0.8-0.3-1.1-0.4c-1.3-0.5-2.5-1.6-3.4-2.8c-0.9-1.3-1.3-2.7-1.4-4.1c-0.2-1.4,0-2.6,0.1-3.9
		c0.4-2.4,1.2-4.7,2.1-6.8c1.8-4.3,4.1-8.1,6.5-11.9c2.4-3.8,5.1-7.4,7.7-10.9c5.3-7.1,10.6-14.1,16.1-21
		c5.5-6.9,11.1-13.7,16.8-20.4c5.8-6.7,11.7-13.2,17.7-19.6c12.1-12.9,24.5-25.4,37.5-37.3c13-12,26.3-23.5,40.3-34.3
		c14-10.8,28.5-20.9,43.7-29.9c7.6-4.5,15.4-8.8,23.4-12.6c2-0.9,4-1.9,6-2.8l6-2.7c4-1.8,8-3.6,12.2-5.3c2.1-0.8,4.2-1.6,6.3-2.3
		c2.1-0.7,4.3-1.4,6.5-1.9c4.4-1,9.2-1.6,14.1-0.4c2.4,0.6,4.6,1.9,6.5,3.5c1.9,1.6,3.3,3.6,4.4,5.7c2.2,4.2,3.2,8.7,4,13.1
		c0.4,2.2,0.7,4.4,1,6.5c0.2,1.1,0.4,2.1,0.6,3.2c0.3,1,0.5,2.1,0.7,3.1c1.2,4.1,2.7,8.2,5.7,11c1.5,1.4,3.4,2.3,5.4,2.6
		c2,0.3,4.2,0,6.2-0.6c2.1-0.6,4-1.6,5.9-2.7c1.9-1.1,3.7-2.4,5.3-3.9c-3.1,3.1-6.7,5.9-10.9,7.6c-2.1,0.8-4.4,1.3-6.7,1.1
		c-2.3-0.2-4.6-1.2-6.4-2.7c-1.8-1.5-3.2-3.4-4.3-5.4l-0.8-1.5l-0.7-1.6c-0.5-1-0.8-2.1-1.2-3.2c-0.3-1.1-0.6-2.2-0.9-3.3
		c-0.3-1.1-0.5-2.2-0.7-3.3l-1.3-6.5c-0.9-4.2-2.1-8.4-4.1-11.9c-1-1.8-2.3-3.3-3.8-4.5c-1.5-1.2-3.2-2.1-5.1-2.6
		c-3.8-0.9-8-0.4-12,0.7c-2,0.5-4.1,1.2-6.1,1.9c-2.1,0.7-4.1,1.4-6.1,2.3c-4,1.6-8,3.4-12,5.3l-6,2.7c-2,0.9-4,1.8-6,2.7
		c-7.9,3.7-15.6,7.8-23.2,12.1c-15.1,8.8-29.6,18.7-43.5,29.4c-13.9,10.7-27.1,22.2-40,34.2s-25.2,24.4-37.2,37.2
		c-6,6.4-11.9,12.9-17.6,19.6c-5.7,6.7-11.3,13.5-16.7,20.3c-5.4,6.9-10.7,13.9-16,20.9c-2.6,3.5-5.2,7-7.5,10.7
		c-2.3,3.6-4.5,7.4-6.1,11.2c-0.8,1.9-1.5,3.9-1.8,5.8c-0.3,1.9-0.2,3.7,0.6,4.8c0.4,0.5,0.9,1,1.6,1.3c0.4,0.2,0.6,0.2,0.9,0.3
		c0.3,0,0.7,0,1,0c1.5-0.2,3.3-1.2,5-2.4c3.3-2.4,6.3-5.5,9.2-8.8c2.9-3.2,5.6-6.6,8.2-10.1c10.3-14.3,21.6-27.9,32.7-41.5
		l33.6-40.7l16.8-20.4l8.4-10.2l8.5-10.1l33.9-40.5c11.3-13.5,22.5-27.1,34-40.4l34.3-40.1l17.2-20.1c5.8-6.6,11.5-13.3,17.4-19.9
		c11.6-13.2,23.4-26.3,35.5-39.1c3-3.2,6.1-6.4,9.2-9.5c1.6-1.6,3.1-3.1,4.7-4.7c1.6-1.6,3.3-3.1,4.7-4.5c1.5-1.6,3.1-3.2,5-4.7
		c1-0.8,2-1.5,3.3-2.1c0.3-0.2,0.8-0.3,1.2-0.4c0.5-0.1,0.9-0.2,1.5-0.1c0.5,0,1.2,0.2,1.9,0.6c0.7,0.4,1.2,1.1,1.4,1.7
		c0.5,1.2,0.3,2,0.3,2.8c-0.1,0.7-0.2,1.4-0.4,2c-0.3,1.2-0.8,2.3-1.2,3.4c-0.9,2.1-2,4.2-3.1,6.1c-8.4,15.6-18.1,30.4-28.5,44.8
		c-10.3,14.3-21.3,28.2-33,41.5c-11.7,13.3-24.1,25.9-37.2,37.8c-13.1,11.9-26.9,23.1-41.4,33.2c-3.6,2.5-7.3,5-11.1,7.4
		c-3.8,2.4-7.7,4.5-11.5,6.6c-1.9,1.1-3.7,2.2-5.5,3.4c-1.9,1.3-4.1,2.4-6.3,3.3c-4.4,1.7-9.1,2.4-13.6,2.6
		c-2.3,0.1-4.6,0.1-6.9-0.1c-2.4-0.1-4.7-0.5-7-1.1c-4.5-1.2-8.6-3-12.6-4.6c-2-0.8-4-1.6-6-2.1l-1.5-0.4l-1.5-0.3
		c-1-0.2-2-0.3-3-0.4c-4.1-0.3-8.3,0.3-12.4,1.2c-4.2,0.9-8.3,2.2-12.6,3.4c-2.1,0.6-4.3,1.1-6.5,1.6c-2.3,0.5-4.4,0.8-6.5,1.2
		c-8.7,1.6-17.4,3.1-26.3,4c-8.9,0.9-17.8,1.3-26.8,0.5c-9-0.8-17.7-2.8-26.3-5.4c-4.3-1.3-8.5-2.7-12.6-4.2l-6.2-2.2
		c-2.1-0.7-4.1-1.4-6.2-2c-8.3-2.5-16.7-4.3-25.3-4.6c-17.1-0.7-34.3,4.7-48.2,14.5c-3.3,2.4-6.4,5.4-8.3,8.8
		c-1,1.7-1.6,3.5-1.6,5.1c0,1.6,0.6,3.1,1.7,4.5c2.2,2.8,6.1,4,9.9,3.8c4-0.2,8.1-1.3,11.9-2.8c3.9-1.6,7.6-3.6,11.2-6
		c3.6-2.3,7.1-4.9,10.6-7.5l5.3-4c1.7-1.3,3.5-2.6,5.1-4c3.4-2.7,6.7-5.5,10-8.4c13-11.6,25-24.4,37.2-37.1
		c6.1-6.3,12.3-12.7,18.7-18.8c6.4-6.1,12.8-12.1,19.2-18.1c25.8-24,52.3-47.2,80-69.1c6.9-5.5,13.9-10.9,20.9-16.2
		c7-5.3,14.1-10.5,21.4-15.5c7.3-4.9,14.7-9.7,22.4-14c3.9-2.2,7.9-4.1,12.2-5.2c2.1-0.5,4.4-0.8,6.6-0.7c2.2,0.1,4.4,0.7,6.4,1.7
		c4,2,6.9,5.6,8.7,9.6c1.8,4,2.6,8.5,2.3,12.9c-0.3,4.4-1.4,8.8-3.1,12.8c-1.7,4.1-4.1,7.9-6.7,11.4c-5.3,7.1-11.8,13.2-18.3,19.1
		c-6.6,5.9-13.5,11.4-20.8,16.4c-7.3,5-15,9.4-23.2,13c-8.1,3.6-16.6,6.4-25.4,8.3c-8.8,1.8-17.8,2.6-26.7,2.1
		c-4.5-0.3-9-0.9-13.3-1.7c-4.4-0.8-8.6-1.7-12.9-2.2c-4.2-0.5-8.5-0.6-12.5,0c-4,0.7-8,2.4-12.5,3.6c-2.2,0.6-4.6,1.1-7.1,1.1
		c-2.5,0.1-5-0.3-7.3-1c-4.7-1.5-8.6-4.2-12.2-6.9c-0.9-0.7-1.7-1.3-2.6-1.9c-0.8-0.6-1.7-1.1-2.6-1.7c-0.9-0.5-1.8-1-2.7-1.4
		c-0.9-0.4-1.9-0.9-2.8-1.2c-3.8-1.4-7.9-2.2-12.1-2.2c-2.1-0.1-4.1,0.1-6.2,0.3c-2.1,0.3-4.1,0.6-6.2,1.1
		c-4.1,0.9-8.2,2.3-12.2,3.9c-8,3.2-15.7,7.2-23.5,11.3l-11.7,6.1c-3.9,2.1-7.7,4.1-11.5,6.3c-15.2,8.6-30,18.1-44.4,28.1
		c-14.4,10-28.4,20.6-41.8,31.8c-13.4,11.3-26.4,23-38.5,35.6c-6,6.3-11.8,12.8-17.4,19.6c-5.5,6.7-10.6,13.7-14.3,21.4
		c-1.7,3.8-3.4,7.9-4.6,11.9c-0.6,2-1,4-1.2,6l0,1.4c0,0.4,0.1,0.9,0.1,1.2c0.2,0.8,0.4,1.3,0.7,1.6c0.4,0.5,2.1,0.8,3.9,0.3
		c1.8-0.4,3.7-1.2,5.6-2.1c1.9-0.9,3.7-2,5.4-3.1c0.4-0.2,0.8-0.6,1.2-0.9l1.3-1l2.6-2c13.6-10.9,26.5-22.8,39-35.1
		c12.5-12.3,24.6-25,36.4-38l8.8-9.8c2.9-3.3,5.7-6.6,8.6-10c5.8-6.6,11.3-13.4,17-20.1c5.6-6.8,11-13.6,16.1-20.7
		c5.2-7.1,10.1-14.3,14.5-21.7c2.2-3.8,4.3-7.5,6.1-11.4c1.9-3.9,3.5-7.9,4.8-11.9c1.3-4,2.1-8.2,2.1-12.2c-0.1-2-0.3-3.9-0.9-5.7
		s-1.6-3.3-2.9-4.5c-0.6-0.6-1.4-1.1-2.2-1.5c-0.4-0.2-0.8-0.4-1.2-0.5c-0.2-0.1-0.4-0.1-0.5-0.2l-0.7-0.1c-2.1-0.2-4.1-0.6-6.3-0.6
		c-1.1,0-2.1-0.1-3.2-0.1l-3.2,0.2l-1.6,0.1l-1.6,0.2l-3.2,0.4c-8.4,1.4-16.6,4.4-24.3,8.1c-7.8,3.7-15.2,8.4-22.3,13.4
		c-7.1,5-13.8,10.6-20.3,16.4c-6.5,5.8-12.6,12-18.5,18.5c-1.5,1.6-2.9,3.2-4.3,4.9l-2.1,2.5l-1,1.3l-0.5,0.6l-0.4,0.6
		c-2.4,3.5-4.8,7.2-6.5,11c-0.4,0.9-0.8,1.9-1,2.8c-0.3,0.9-0.3,1.8-0.2,2.1c0,0.1,0,0,0,0.1c0,0,0.2,0.1,0.5,0.1
		c0.7,0.1,1.6-0.1,2.5-0.3c1.9-0.5,3.9-1.3,5.8-2.2c1.9-0.9,3.8-1.9,5.7-3c3.8-2.1,7.5-4.4,11.1-6.8c3.4-2.5,6.9-5.3,10.2-8
		c13.6-11,26.3-23.1,38.1-36c11.8-12.9,22.7-26.7,32.1-41.4c4.7-7.3,9.1-14.9,12.9-22.7c3.8-7.8,7.1-15.9,9.3-24.2
		c1-4.2,1.8-8.4,1.7-12.6c-0.1-2.1-0.3-4.1-1.1-5.8c-0.7-1.8-1.8-3.2-3.4-3.9c-0.8-0.4-1.7-0.6-2.6-0.7c-0.9-0.1-1.9-0.1-2.9,0
		c-2,0.2-4,0.8-6,1.5c-4,1.4-7.8,3.5-11.5,5.7c-7.4,4.5-14.3,9.9-20.8,15.7c-6.5,5.8-12.6,12.1-18.1,18.8c-2.7,3.4-5.3,6.9-7.5,10.6
		c-1.1,1.8-2.1,3.7-2.8,5.7c-0.4,1-0.7,1.9-0.8,2.9s-0.2,1.9-0.1,2.7c0.2,0.8,0.5,1.5,1.1,1.9c0.6,0.5,1.4,0.9,2.2,1
		c1.7,0.3,3.7-0.3,5.6-1.1c3.8-1.7,7.3-4.3,10.7-7c6.7-5.5,12.8-11.8,18.7-18.3c5.9-6.5,11.5-13.2,16.9-20.1l0,0
		c0.4-0.5,1.2-0.6,1.7-0.2C160.5,90.4,160.6,91.2,160.2,91.7z"/>
	<path class="st0" d="M283,251.1c23.3-23.5,47.4-45.9,72-67.9c6.1-5.5,12.3-11,18.5-16.4l9.3-8.1c3.1-2.7,6.2-5.4,9.4-8.1l18.8-16
		l19-15.8c25.5-20.8,51.3-41.3,77.7-61.1l9.9-7.4l4.9-3.7l5-3.6l20-14.5c6.6-4.9,13.4-9.5,20.2-14.3l20.2-14.2
		c0.2-0.2,0.5-0.1,0.7,0.1c0.2,0.2,0.1,0.5-0.1,0.7l0,0l-20.1,14.4c-6.7,4.8-13.4,9.5-20,14.5l-19.8,14.7l-5,3.7l-4.9,3.8l-9.8,7.5
		c-26.1,20-51.7,40.7-76.9,61.8l-18.8,15.9l-18.6,16.2c-3.1,2.7-6.2,5.4-9.3,8.1l-9.2,8.2c-6.2,5.4-12.2,11-18.3,16.6
		c-24.2,22.2-48.1,44.9-71,68.4l0,0c-1,1.1-2.7,1.1-3.8,0.1S282,252.2,283,251.1C283,251.1,283,251.1,283,251.1z"/>
</g>
<g id="_x39_9d_logo" class="st1">
	<g class="st2">
		<g>
			<defs>
				<path id="SVGID_1_" d="M4.1,140.6c15.7-27.3,50.3-36.6,77.4-20.9c27.1,15.7,36.4,50.6,20.8,77.9c-15.7,27.3-50.3,36.6-77.5,20.9
					C-2.2,202.7-11.5,167.8,4.1,140.6z M220.6,140.6c15.7-27.3,50.3-36.6,77.4-20.9c27.1,15.7,36.4,50.6,20.8,77.9
					c-15.7,27.3-50.3,36.6-77.4,20.9C214.2,202.7,204.9,167.8,220.6,140.6z M523.5,312.7c-11.2,11.3-25.5,16.9-42.9,16.9
					c-8.4,0-16.3-1.5-23.6-4.5c-7.3-3-13.5-7.1-18.7-12.4c-5.1-5.3-9.2-11.6-12.1-19c-3-7.4-4.4-15.4-4.4-24.2
					c0-8.5,1.5-16.4,4.4-23.7c3-7.4,7.1-13.6,12.4-18.8c5.3-5.2,11.6-9.2,18.9-12.2c7.3-3,15.3-4.5,24-4.5c8.4,0,16.2,1.5,23.3,4.5
					c7.1,3,13.4,7.1,18.7,12.4c5.3,5.3,9.4,11.5,12.4,18.5c3,7.1,4.4,14.8,4.4,23.2C540.4,286.9,534.8,301.5,523.5,312.7z
					 M161.4,230.2c10.6,18.9,26.1,35.3,46.2,47c16.8,9.8,35,15,53.1,16.3l-54,94.1h80.8L352,275.4c0.5,16.2,3.4,31.2,8.5,44.9
					c5.8,15.3,13.9,28.5,24.3,39.6s22.8,19.8,37.1,26c14.3,6.3,30,9.4,47.1,9.4c16.2,0,29.8-2.6,40.8-7.7
					c11-5.2,21.2-13.5,30.6-25.1v24.9h66.3v-336h-70v121.1c-9.6-9.4-19.9-16.4-30.8-20.9c-10.9-4.5-23.6-6.8-38.3-6.8
					c-16.5,0-31.8,3.1-46,9.4c-10.3,4.6-19.6,10.4-27.9,17.6c0.9-44-21.5-87.1-62-110.7c-59.4-34.5-135.3-14-169.5,45.7
					c-0.3,0.4-0.5,0.9-0.7,1.3c-10.5-18.9-26.1-35.3-46.2-47C55.9,26.5-20,47-54.3,106.7c-34.3,59.7-13.9,136.1,45.4,170.5
					c16.8,9.8,35,15,53.1,16.3l-54,94.1h80.8l89.6-156C160.9,231.1,161.2,230.6,161.4,230.2L161.4,230.2z"/>
			</defs>
			<clipPath id="SVGID_2_">
				<use xlink:href="#SVGID_1_"  style="overflow:visible;"/>
			</clipPath>
			<g class="st3">
				<g>
					<defs>
						<rect id="SVGID_3_" x="-617.7" y="-666.3" width="1770.8" height="1770.8"/>
					</defs>
					<clipPath id="SVGID_4_">
						<use xlink:href="#SVGID_3_"  style="overflow:visible;"/>
					</clipPath>
					<rect x="-82" y="33.2" class="st4" width="699.7" height="373.2"/>
				</g>
			</g>
		</g>
	</g>
</g>
<g id="Guides" class="st1">
</g>
<g id="TEMPLATE__x28_delete_x29_" class="st1">
	<path class="st5" d="M-232.2-280.5v1000h1000v-1000L-232.2-280.5L-232.2-280.5z M567.8,519.5h-600v-600h600V519.5z"/>
	<g class="st2">
		<g>
			<defs>
				<path id="SVGID_5_" d="M15.3,14.4c2-3.5,6.4-4.6,9.8-2.7c3.4,2,4.6,6.4,2.6,9.9c-2,3.5-6.4,4.6-9.8,2.6
					C14.5,22.3,13.4,17.9,15.3,14.4z M43.9,14.4c2-3.5,6.4-4.6,9.8-2.7c3.4,2,4.6,6.4,2.6,9.9c-2,3.5-6.4,4.6-9.8,2.6
					C43.1,22.3,42,17.9,43.9,14.4z M87.2,36.2c-1.4,1.4-3.2,2.1-5.4,2.1c-1.1,0-2.1-0.2-3-0.6s-1.7-0.9-2.4-1.6
					c-0.7-0.7-1.2-1.5-1.5-2.4s-0.6-2-0.6-3.1c0-1.1,0.2-2.1,0.6-3c0.4-0.9,0.9-1.7,1.6-2.4c0.7-0.6,1.5-1.2,2.4-1.5
					s1.9-0.6,3.1-0.6c1.1,0,2.1,0.2,3,0.6c0.9,0.4,1.7,0.9,2.4,1.6c0.7,0.7,1.2,1.5,1.6,2.4s0.6,1.9,0.6,2.9
					C89.3,33,88.6,34.8,87.2,36.2z M88.9,3.1v15.4c-1.2-1.2-2.5-2.1-3.9-2.6c-1.4-0.6-3-0.9-4.8-0.9c-2.1,0-4,0.4-5.8,1.2
					c-1.8,0.8-3.3,1.9-4.7,3.3c-1.3,1.4-2.3,3.1-3.1,5c-0.8,1.9-1.1,4-1.1,6.3c0,2.3,0.4,4.5,1.1,6.4c0.7,1.9,1.8,3.6,3.1,5
					s2.9,2.5,4.7,3.3c1.8,0.8,3.8,1.2,6,1.2c2.1,0,3.8-0.3,5.2-1c1.4-0.7,2.7-1.7,3.9-3.2v3.2h8.4V3.1H88.9z M35.9,11.4
					c0.2-0.4,0.4-0.9,0.7-1.3c4.3-7.6,14-10.2,21.5-5.8c7.5,4.4,10.1,14.1,5.8,21.6L52.4,45.7H42.2L49,33.8
					c-2.3-0.2-4.6-0.8-6.7-2.1c-2.9-1.7-5.1-4.2-6.4-7.1c-0.2,0.4-0.4,0.9-0.7,1.3L23.8,45.7H13.6l6.9-11.9
					c-2.3-0.2-4.6-0.8-6.7-2.1C6.2,27.3,3.6,17.7,7.9,10.1c4.3-7.6,14-10.2,21.5-5.8C32.4,6,34.5,8.5,35.9,11.4z M108.5,27.7
					c0.3-1.7,1.1-2.9,2.3-3.8c1.2-0.9,2.6-1.3,4.3-1.3c1.7,0,3.2,0.5,4.4,1.4c1.2,1,2,2.2,2.3,3.7L108.5,27.7L108.5,27.7z
					 M129.5,24.8c-0.8-2-1.9-3.7-3.3-5.1c-1.4-1.4-3.1-2.6-5-3.4c-1.9-0.8-4-1.3-6.2-1.3c-2.1,0-4.1,0.4-6,1.3
					c-1.9,0.8-3.5,2-4.9,3.4c-1.4,1.4-2.5,3.1-3.3,5s-1.2,4-1.2,6.2s0.4,4.3,1.2,6.2c0.8,1.9,1.9,3.6,3.3,5c1.4,1.4,3,2.5,4.9,3.3
					c1.9,0.8,3.9,1.2,6.1,1.2c3.2,0,6-0.9,8.5-2.7c2.4-1.7,4.3-4.1,5.7-7.1h-9.2c-0.9,0.9-1.8,1.5-2.6,1.8s-1.7,0.5-2.8,0.5
					c-1.8,0-3.3-0.5-4.4-1.5c-1.2-1-1.9-2.3-2.1-4h22.1C130.9,30.6,130.6,27.6,129.5,24.8z M155,24.4c-0.4-5.8-4.9-9.3-11.3-9.3
					c-6,0-11.4,3.8-11.4,9.6c0,3.5,2,6.4,9.4,8.7c4.4,1.4,5.4,2.2,5.4,3.9c0,1.4-1.5,2.3-3.1,2.3c-1.8,0-3.1-0.8-3.4-2.7h-8.8
					c0.6,6,5.4,9.8,12,9.8c6.7,0,12-3.9,12-10.1c0-4.3-2.3-7.1-9.3-9c-4.1-1.1-5.5-1.9-5.5-3.5c0-1.1,1.1-2,2.6-2
					c1.4,0,2.7,0.5,2.7,2.2C146.3,24.4,155,24.4,155,24.4z M162.7,12.9c2.9,0,5.3-2.4,5.3-5.3s-2.4-5.3-5.3-5.3
					c-2.9,0-5.3,2.4-5.3,5.3S159.8,12.9,162.7,12.9z M167.1,45.7h-8.9V16h8.9V45.7z M184,21.7c2.7,0,4.9,2.2,4.9,4.9
					s-2.2,4.9-4.9,4.9s-4.9-2.2-4.9-4.9C179.2,23.9,181.4,21.7,184,21.7z M190.2,51.8c-1,1.4-2.9,1.9-4.5,1.9
					c-1.9,0.1-4.4-0.3-5.7-1.9c-1.2-1.5-0.9-3.6,0.7-4.6c0.5-0.3,1-0.5,1.5-0.5h4.4c1.9,0,4.4,0.5,4.3,2.9
					C190.9,50.4,190.6,51.2,190.2,51.8z M181.6,39.9c-3.6-0.6-3.5-2-2.6-2.7c8.2,3.1,18.1-0.8,18.2-10.3c0-3.5-1.3-5.7-2.2-6.7
					c0.8-1.4,1.6-2.1,3.4-2.6l-3.7-6.4c-3.4,0.3-5.6,2.4-6.6,4.5c-2-0.8-6.1-0.9-9.3,0.3c-1.6,0.6-3,1.3-4.3,2.4
					c-1.2,1-2.1,2.3-2.8,3.8c-0.7,1.5-1,3.1-1,4.8c0,2.3,0.7,4.9,2,6.8c-3.6,3.5-3.4,8.8,0.3,12c-0.4,0.3-0.8,0.6-1.1,1
					c-3.3,3.6-1.8,8.7,2.1,11.3c4.8,3.5,13.4,3.7,18.7,1.3c9.3-3.8,9.6-17.6-1.2-19.4C188.6,39.4,185.2,40.4,181.6,39.9z
					 M200.6,45.7h8.9V29.1c0-3.9,1.7-5.8,5-5.8c1.6,0,2.8,0.5,3.5,1.5s1.1,2.5,1.1,4.7v16.2h8.9V27.1c0-1.2-0.1-2.2-0.1-3.1
					c-0.1-0.9-0.3-1.7-0.5-2.4c-0.2-0.7-0.5-1.3-0.9-1.9c-0.4-0.6-0.9-1.1-1.4-1.7c-0.9-1-2.1-1.7-3.5-2.2c-1.4-0.5-2.9-0.8-4.4-0.8
					c-1.9,0-3.4,0.3-4.7,1c-1.2,0.6-2.4,1.7-3.4,3.2V16h-8.4L200.6,45.7L200.6,45.7z M252.9,24.4c-0.4-5.8-4.9-9.3-11.3-9.3
					c-6,0-11.4,3.8-11.4,9.6c0,3.5,2,6.4,9.4,8.7c4.4,1.4,5.4,2.2,5.4,3.9c0,1.4-1.5,2.3-3.1,2.3c-1.8,0-3.1-0.8-3.4-2.7h-8.8
					c0.6,6,5.4,9.8,12,9.8c6.7,0,12-3.9,12-10.1c0-4.3-2.3-7.1-9.3-9c-4.1-1.1-5.5-1.9-5.5-3.5c0-1.1,1.1-2,2.6-2
					c1.4,0,2.7,0.5,2.7,2.2C244.3,24.4,252.9,24.4,252.9,24.4z"/>
			</defs>
			<clipPath id="SVGID_6_">
				<use xlink:href="#SVGID_5_"  style="overflow:visible;"/>
			</clipPath>
			<g class="st6">
				<g>
					<defs>
						<rect id="SVGID_7_" x="-35.5" y="-138" width="330.7" height="330.7"/>
					</defs>
					<clipPath id="SVGID_8_">
						<use xlink:href="#SVGID_7_"  style="overflow:visible;"/>
					</clipPath>
					<rect x="3.8" y="0.1" class="st7" width="252.2" height="62.8"/>
				</g>
			</g>
		</g>
	</g>
	<g class="st2">
		<path class="st8" d="M10.8,105.3h7v3.1H7.5V91.6h3.3C10.8,91.6,10.8,105.3,10.8,105.3z"/>
		<path class="st8" d="M32.2,102.3c0,3.8-2.7,6.4-6.4,6.4c-3.6,0-6.4-2.6-6.4-6.4c0-3.8,2.7-6.3,6.4-6.3
			C29.4,95.9,32.2,98.5,32.2,102.3z M22.6,102.3c0,2,1.3,3.5,3.2,3.5c1.9,0,3.1-1.5,3.1-3.5c0-2-1.3-3.5-3.1-3.5
			C23.9,98.8,22.6,100.3,22.6,102.3z"/>
		<path class="st8" d="M45.7,98.8h-1.8c0.1,0.4,0.2,0.9,0.2,1.4c0,2.4-2,4.2-4.8,4.2c-0.7,0-1.4-0.1-2-0.3c-0.2,0.2-0.3,0.5-0.3,0.9
			c0,0.6,0.5,1,1.2,1h2.9c2.5,0,4,1.2,4,3.5c0,2.7-2.1,4.2-5.4,4.2c-3.6,0-5.5-1.3-5.5-3.7c0-1.1,0.6-1.8,1.2-2.1
			c-0.7-0.5-1.4-1.4-1.4-2.6c0-1.2,0.5-2,1.3-2.6c-0.5-0.7-0.8-1.5-0.8-2.5c0-2.5,2.1-4.3,4.9-4.3c0.6,0,1.2,0.1,1.8,0.3h4.6
			L45.7,98.8L45.7,98.8z M38.5,108.4c-0.7,0.1-1.3,0.6-1.3,1.4c0,1.1,1,1.7,2.5,1.7c1.4,0,2.3-0.6,2.3-1.7c0-0.9-0.7-1.3-1.7-1.3
			L38.5,108.4L38.5,108.4z M37.5,100.3c0,1.1,0.7,1.9,1.8,1.9s1.8-0.8,1.8-1.9c0-1.2-0.7-2-1.8-2C38.2,98.3,37.5,99.1,37.5,100.3z"
			/>
		<path class="st8" d="M59.6,102.3c0,3.8-2.7,6.4-6.4,6.4c-3.7,0-6.4-2.6-6.4-6.4c0-3.8,2.7-6.3,6.4-6.3
			C56.8,95.9,59.6,98.5,59.6,102.3z M50,102.3c0,2,1.3,3.5,3.2,3.5c1.9,0,3.1-1.5,3.1-3.5c0-2-1.3-3.5-3.1-3.5
			C51.3,98.8,50,100.3,50,102.3z"/>
		<path class="st8" d="M71.1,96.2h2.8V99H71l0,4.9c0,1.3,0.4,1.8,1.6,1.8c0.6,0,0.9-0.1,1.3-0.2v2.7c-0.4,0.1-1,0.3-2,0.3
			c-2.7,0-4-1.1-4-3.8l0.1-5.7h-2v-2.8h2l0-2.9h3.1L71.1,96.2z"/>
		<path class="st8" d="M87.4,102.3v1h-8.5c0.1,1.6,1.2,2.7,2.9,2.7c1.2,0,2.1-0.5,2.4-1.4h3c-0.7,2.6-2.6,4.1-5.6,4.1
			c-3.6,0-6.1-2.5-6.1-6.3c0-3.7,2.4-6.4,6.1-6.4C85,95.9,87.4,97.9,87.4,102.3z M78.9,101.1h5.3c0-1.5-1-2.5-2.6-2.5
			C80.1,98.5,79.1,99.6,78.9,101.1z"/>
		<path class="st8" d="M107.2,100.5v7.9h-3.1v-7.2c0-1.4-0.6-2.2-1.7-2.2c-1.2,0-2.1,0.9-2.1,2.8v6.6h-3.1v-7.2
			c0-1.4-0.6-2.2-1.7-2.2c-1.2,0-2.1,1-2.1,3v6.4h-3.1V96.2h2.7l0.2,1.6c0.6-1,1.7-1.8,3.2-1.8c1.7,0,2.9,0.8,3.5,2.1
			c0.6-1.2,1.8-2.1,3.5-2.1C105.9,95.9,107.2,97.7,107.2,100.5z"/>
		<path class="st8" d="M123.1,102.3c0,3.6-2.4,6.4-5.7,6.4c-1.8,0-3-0.7-3.7-1.6v6.5h-3.1V96.2h2.7l0.2,1.6c0.7-1,1.8-1.9,3.9-1.9
			C120.7,95.9,123.1,98.7,123.1,102.3z M113.7,102.2v0.1c0,2.1,1.6,3.3,3.1,3.3c1.7,0,3.1-1.3,3.1-3.4c0-2.1-1.3-3.4-3.1-3.4
			C115.3,98.9,113.7,100,113.7,102.2z"/>
		<path class="st8" d="M128.9,108.4h-3.1V90.8h3.1V108.4z"/>
		<path class="st8" d="M141.9,100.4v8h-2.7l-0.2-1.5c-0.6,1-1.8,1.8-3.5,1.8c-2.2,0-3.7-1.3-3.7-3.5c0-2.4,1.6-3.3,3.8-3.7l3.1-0.6
			v-0.5c0-1.2-0.6-1.8-1.7-1.8c-1,0-1.8,0.6-1.8,1.6h-3c0.1-2.5,2-4.3,4.9-4.3S141.9,97.4,141.9,100.4z M136.3,103.5
			c-0.8,0.2-1.4,0.6-1.4,1.4c0,0.7,0.5,1.2,1.4,1.2c0.8,0,1.5-0.4,1.9-1.1c0.3-0.4,0.4-1,0.4-1.6V103L136.3,103.5z"/>
		<path class="st8" d="M149,96.2h2.8V99h-2.8l-0.1,4.9c0,1.3,0.4,1.8,1.6,1.8c0.6,0,0.9-0.1,1.3-0.2v2.7c-0.4,0.1-1,0.3-2,0.3
			c-2.7,0-4-1.1-4-3.8l0.1-5.7h-2v-2.8h2l0-2.9h3.2L149,96.2z"/>
		<path class="st8" d="M165.3,102.3v1h-8.5c0.1,1.6,1.2,2.7,2.9,2.7c1.2,0,2.1-0.5,2.4-1.4h3c-0.7,2.6-2.6,4.1-5.6,4.1
			c-3.6,0-6.1-2.5-6.1-6.3c0-3.7,2.4-6.4,6.1-6.4C162.9,95.9,165.3,97.9,165.3,102.3z M156.9,101.1h5.3c0-1.5-1-2.5-2.6-2.5
			C158,98.5,157,99.6,156.9,101.1z"/>
		<path class="st9" d="M178.4,92.1c-2,2.7-3,5-3,8.6c0,3.6,1,5.9,3,8.6l-2.2,1.5c-2.2-2.7-3.7-5.7-3.7-10.1s1.5-7.4,3.7-10.1
			L178.4,92.1z"/>
		<path class="st9" d="M186.4,108.4h-3.3V96.7h-3.5V94c2.6,0,4-0.6,4.4-2.4h2.4V108.4z"/>
		<path class="st9" d="M201.1,99.9c0,5.4-2.1,8.7-6,8.7s-5.9-3.4-5.9-8.7c0-5.3,2.1-8.7,5.9-8.7S201.1,94.6,201.1,99.9z M192.5,99.9
			c0,3.6,0.9,5.7,2.6,5.7c1.8,0,2.6-2.1,2.6-5.7c0-3.5-0.9-5.6-2.6-5.6C193.4,94.3,192.5,96.4,192.5,99.9z"/>
		<path class="st9" d="M215.1,99.9c0,5.4-2.1,8.7-6,8.7s-5.9-3.4-5.9-8.7c0-5.3,2.1-8.7,5.9-8.7S215.1,94.6,215.1,99.9z M206.5,99.9
			c0,3.6,0.9,5.7,2.6,5.7c1.8,0,2.6-2.1,2.6-5.7c0-3.5-0.9-5.6-2.6-5.6C207.3,94.3,206.5,96.4,206.5,99.9z"/>
		<path class="st9" d="M229,99.9c0,5.4-2.1,8.7-6,8.7s-5.9-3.4-5.9-8.7c0-5.3,2.1-8.7,5.9-8.7S229,94.6,229,99.9z M220.4,99.9
			c0,3.6,0.9,5.7,2.6,5.7c1.8,0,2.6-2.1,2.6-5.7c0-3.5-0.9-5.6-2.6-5.6C221.3,94.3,220.4,96.4,220.4,99.9z"/>
		<path class="st9" d="M245.8,99.8l5.7,8.5h-3.9l-4-6.1l-4,6.1h-3.9l5.6-8.5l-5.5-8.3h3.9l3.9,5.8l3.9-5.8h3.9L245.8,99.8z"/>
		<path class="st9" d="M264.8,108.4h-3.3V96.7h-3.5V94c2.6,0,4-0.6,4.4-2.4h2.4L264.8,108.4L264.8,108.4z"/>
		<path class="st9" d="M279.5,99.9c0,5.4-2.1,8.7-6,8.7s-6-3.4-6-8.7c0-5.3,2.1-8.7,6-8.7C277.4,91.3,279.5,94.6,279.5,99.9z
			 M270.9,99.9c0,3.6,0.9,5.7,2.6,5.7c1.8,0,2.6-2.1,2.6-5.7c0-3.5-0.9-5.6-2.6-5.6C271.8,94.3,270.9,96.4,270.9,99.9z"/>
		<path class="st9" d="M293.5,99.9c0,5.4-2.1,8.7-6,8.7s-6-3.4-6-8.7c0-5.3,2.1-8.7,6-8.7C291.3,91.3,293.5,94.6,293.5,99.9z
			 M284.9,99.9c0,3.6,0.9,5.7,2.6,5.7c1.8,0,2.6-2.1,2.6-5.7c0-3.5-0.9-5.6-2.6-5.6C285.8,94.3,284.9,96.4,284.9,99.9z"/>
		<path class="st9" d="M307.5,99.9c0,5.4-2.1,8.7-6,8.7s-6-3.4-6-8.7c0-5.3,2.1-8.7,6-8.7C305.3,91.3,307.5,94.6,307.5,99.9z
			 M298.9,99.9c0,3.6,0.9,5.7,2.6,5.7c1.8,0,2.6-2.1,2.6-5.7c0-3.5-0.9-5.6-2.6-5.6C299.7,94.3,298.9,96.4,298.9,99.9z"/>
		<path class="st9" d="M322.7,102.3c0,3.6-2.4,6.4-5.7,6.4c-1.8,0-3-0.7-3.6-1.6v6.5h-3.1V96.2h2.7l0.2,1.6c0.7-1,1.8-1.9,3.9-1.9
			C320.3,95.9,322.7,98.7,322.7,102.3z M313.4,102.2v0.1c0,2.1,1.6,3.3,3.1,3.3c1.7,0,3.1-1.3,3.1-3.4c0-2.1-1.3-3.4-3.1-3.4
			C314.9,98.9,313.4,100,313.4,102.2z"/>
		<path class="st9" d="M331.8,102.2l3.8,6.2H332l-2.4-3.8l-2.4,3.8h-3.6l3.8-6.2l-3.7-6h3.6l2.2,3.6l2.2-3.6h3.6L331.8,102.2z"/>
		<path class="st9" d="M342.5,100.7c0,4.4-1.6,7.4-3.8,10.1l-2.2-1.5c2-2.7,3-5,3-8.6c0-3.6-1-5.9-3-8.6l2.2-1.5
			C340.9,93.3,342.5,96.3,342.5,100.7z"/>
	</g>
	<g class="st2">
		<path class="st10" d="M9.4,162.7h4.4v1.3H9.4V162.7z"/>
		<path class="st10" d="M22.6,163.9v4.7h-1.5v-12.3h3.7c2.4,0,4.2,1.1,4.2,3.8c0,2.6-1.8,3.8-4.3,3.8L22.6,163.9L22.6,163.9z
			 M24.7,162.7c1.8,0,2.8-0.9,2.8-2.6c0-1.8-1-2.6-2.8-2.6h-2.1v5.2H24.7z"/>
		<path class="st10" d="M31.1,155.9h1.4v12.6h-1.4V155.9z"/>
		<path class="st10" d="M35.3,162.4c0-1.5,1.2-2.5,3.2-2.5c2.1,0,3.1,0.9,3.1,3.1v3.4c0,0.7,0.1,0.9,0.8,1v1.2h-0.2
			c-1.3,0-1.8-0.5-1.9-1.5h0c-0.5,1-1.5,1.6-2.7,1.6c-1.7,0-2.7-0.9-2.7-2.4c0-0.9,0.4-1.7,1.3-2.1c0.9-0.5,2.2-0.6,4.1-0.7v-0.4
			c0-1.5-0.6-2.1-1.8-2.1c-1.3,0-1.7,0.7-1.8,1.4L35.3,162.4L35.3,162.4z M40.2,164.7v-0.2c-1.8,0.1-2.9,0.2-3.4,0.6
			c-0.3,0.2-0.5,0.6-0.5,1c0,0.9,0.6,1.3,1.5,1.3C38.9,167.5,40.2,166.8,40.2,164.7z"/>
		<path class="st10" d="M49.7,162.7c-0.1-0.9-0.7-1.6-1.9-1.6c-1.5,0-2.3,1.3-2.3,3.3c0,1.9,0.6,3.3,2.3,3.3c1.6,0,2-1.2,2.1-1.8
			h1.3c-0.2,1.9-1.6,2.9-3.4,2.9c-2.4,0-3.8-1.7-3.8-4.4c0-2.6,1.4-4.5,3.8-4.5c1.7,0,3.2,0.8,3.3,2.8H49.7z"/>
		<path class="st10" d="M56.6,168.8c-2.6,0-3.8-1.9-3.8-4.4c0-2.5,1.3-4.5,3.8-4.5c2.5,0,3.5,1.9,3.5,4.1v0.7h-5.8
			c0.1,1.7,0.8,2.9,2.4,2.9c1.4,0,1.8-0.8,1.9-1.3H60C59.7,167.8,58.4,168.8,56.6,168.8z M58.6,163.5c0-1.4-0.6-2.5-2.1-2.5
			c-1.3,0-2.1,1.1-2.3,2.6L58.6,163.5L58.6,163.5z"/>
		<path class="st10" d="M66.1,160.1h1.4l1.8,5.3c0.3,0.8,0.4,1.3,0.4,1.3h0.1c0,0,0.1-0.5,0.4-1.3l1.7-5.3h1.4l-3.1,9
			c-0.7,1.9-1.2,2.7-3.1,2.7c-0.3,0-0.6-0.1-0.9-0.1v-1.2c0.3,0.1,0.6,0.1,0.7,0.1c1.1,0,1.4-0.4,1.8-1.5l0.2-0.4L66.1,160.1z"/>
		<path class="st10" d="M74.7,164.3c0-2.6,1.4-4.4,3.8-4.4c2.5,0,3.8,1.8,3.8,4.4c0,2.6-1.4,4.4-3.8,4.4
			C76,168.8,74.7,167,74.7,164.3z M76.2,164.3c0,2.1,0.7,3.3,2.3,3.3c1.6,0,2.3-1.3,2.3-3.3c0-2.1-0.7-3.3-2.3-3.3
			C76.9,161,76.2,162.3,76.2,164.3z"/>
		<path class="st10" d="M86.1,165.3c0,0.6,0,1.3,0.3,1.7c0.3,0.4,0.7,0.6,1.3,0.6c1.6,0,2.3-1,2.3-2.9v-4.6h1.4v8.4H90v-1.4h0
			c-0.4,0.9-1.3,1.6-2.7,1.6c-1.6,0-2.7-0.8-2.7-2.8v-5.9H86L86.1,165.3L86.1,165.3z"/>
		<path class="st10" d="M94.6,160.1h1.4v1.6h0c0.4-0.9,1.4-1.8,2.7-1.8h0.1v1.5h-0.3c-1.5,0-2.5,0.9-2.5,2.5v4.6h-1.4L94.6,160.1
			L94.6,160.1z"/>
		<path class="st10" d="M105.5,155.9h1.4v12.6h-1.4V155.9z"/>
		<path class="st10" d="M109.3,164.3c0-2.6,1.4-4.4,3.8-4.4c2.5,0,3.8,1.8,3.8,4.4c0,2.6-1.4,4.4-3.8,4.4
			C110.6,168.8,109.3,167,109.3,164.3z M110.8,164.3c0,2.1,0.7,3.3,2.3,3.3c1.6,0,2.3-1.3,2.3-3.3c0-2.1-0.7-3.3-2.3-3.3
			C111.6,161,110.8,162.3,110.8,164.3z"/>
		<path class="st10" d="M118.9,169.4h1.4c0.2,0.7,0.7,1.2,2.1,1.2c1.6,0,2.4-0.6,2.4-2.4v-1.3h0c-0.4,0.8-1.4,1.6-2.7,1.6
			c-1.8,0-3.4-1.1-3.4-4.2c0-2.8,1.5-4.3,3.6-4.3c1.4,0,2.2,0.8,2.5,1.5h0v-1.3h1.4v8.2c0,2.4-1.6,3.4-3.8,3.4
			C120.8,171.8,119.1,171.2,118.9,169.4z M124.8,163.9c0-1.7-0.9-2.8-2.4-2.8c-1.5,0-2.2,1.3-2.2,3.2c0,1.9,0.5,3.1,2.3,3.1
			c1.4,0,2.3-1.2,2.3-2.6L124.8,163.9L124.8,163.9z"/>
		<path class="st10" d="M128.6,164.3c0-2.6,1.4-4.4,3.8-4.4c2.5,0,3.8,1.8,3.8,4.4c0,2.6-1.4,4.4-3.8,4.4
			C129.9,168.8,128.6,167,128.6,164.3z M130.1,164.3c0,2.1,0.7,3.3,2.3,3.3c1.6,0,2.3-1.3,2.3-3.3c0-2.1-0.7-3.3-2.3-3.3
			C130.9,161,130.1,162.3,130.1,164.3z"/>
		<path class="st10" d="M142,160.1h1.5l1.6,5.7c0.1,0.5,0.3,1.1,0.3,1.1h0c0,0,0.2-0.6,0.3-1.1l1.8-5.7h1.5l1.8,5.7
			c0.2,0.5,0.3,1.1,0.3,1.1h0c0,0,0.1-0.6,0.3-1.1l1.7-5.7h1.4l-2.6,8.4h-1.5l-1.5-5c-0.2-0.8-0.5-1.8-0.5-1.8h0c0,0-0.3,1-0.5,1.8
			l-1.6,5h-1.5L142,160.1z"/>
		<path class="st10" d="M156.5,156.7h1.5v1.6h-1.5V156.7z M156.6,160.1h1.5v8.4h-1.5V160.1z"/>
		<path class="st10" d="M163,157.7v2.4h2.1v1.1H163v5c0,0.9,0.4,1.3,1.3,1.3c0.4,0,0.9-0.1,0.9-0.1v1.2c0,0-0.6,0.1-1.3,0.1
			c-1.6,0-2.3-0.8-2.3-2.2v-5.2H160v-1.1h0.3c1.1,0,1.4-0.3,1.4-1.9v-0.6H163z"/>
		<path class="st10" d="M172.5,163.4c0-0.6,0-1.3-0.3-1.7c-0.3-0.4-0.8-0.6-1.3-0.6c-1.6,0-2.3,1-2.3,2.4v5.1h-1.4V156h1.4v5.6h0
			c0.4-0.8,1.3-1.6,2.6-1.6c1.6,0,2.7,0.8,2.7,2.8v5.9h-1.4V163.4z"/>
		<path class="st10" d="M177,156.7h1.5v1.6H177V156.7z M177.1,160.1h1.5v8.4h-1.5V160.1z"/>
		<path class="st10" d="M187,163.4c0-0.6,0-1.3-0.3-1.7c-0.3-0.4-0.8-0.6-1.3-0.6c-1.6,0-2.3,1-2.3,2.4v5.1h-1.4v-8.4h1.4v1.4h0
			c0.4-0.9,1.4-1.6,2.7-1.6c1.6,0,2.7,0.8,2.7,2.8v5.9H187V163.4z"/>
		<path class="st10" d="M197.9,157.7v2.4h2.1v1.1h-2.1v5c0,0.9,0.4,1.3,1.3,1.3c0.4,0,0.9-0.1,0.9-0.1v1.2c0,0-0.6,0.1-1.3,0.1
			c-1.6,0-2.3-0.8-2.3-2.2v-5.2h-1.5v-1.1h0.3c1.1,0,1.4-0.3,1.4-1.9v-0.6H197.9z"/>
		<path class="st10" d="M207.4,163.4c0-0.6,0-1.3-0.3-1.7c-0.3-0.4-0.8-0.6-1.3-0.6c-1.6,0-2.3,1-2.3,2.4v5.1H202V156h1.4v5.6h0
			c0.4-0.8,1.3-1.6,2.6-1.6c1.6,0,2.7,0.8,2.7,2.8v5.9h-1.4V163.4z"/>
		<path class="st10" d="M215,168.8c-2.6,0-3.8-1.9-3.8-4.4c0-2.5,1.3-4.5,3.8-4.5c2.5,0,3.5,1.9,3.5,4.1v0.7h-5.8
			c0.1,1.7,0.8,2.9,2.4,2.9c1.4,0,1.8-0.8,1.9-1.3h1.4C218,167.8,216.8,168.8,215,168.8z M217,163.5c0-1.4-0.6-2.5-2.1-2.5
			c-1.3,0-2.1,1.1-2.3,2.6L217,163.5L217,163.5L217,163.5z"/>
		<path class="st10" d="M230.4,162.7c-0.1-0.9-0.7-1.6-1.9-1.6c-1.5,0-2.3,1.3-2.3,3.3c0,1.9,0.6,3.3,2.3,3.3c1.6,0,2-1.2,2.1-1.8
			h1.3c-0.2,1.9-1.6,2.9-3.4,2.9c-2.4,0-3.8-1.7-3.8-4.4c0-2.6,1.4-4.5,3.8-4.5c1.7,0,3.2,0.8,3.3,2.8H230.4z"/>
		<path class="st10" d="M234.1,160.1h1.4v1.6h0c0.4-0.9,1.4-1.8,2.7-1.8h0.1v1.5h-0.3c-1.5,0-2.5,0.9-2.5,2.5v4.6h-1.4L234.1,160.1
			L234.1,160.1z"/>
		<path class="st10" d="M239.6,164.3c0-2.6,1.4-4.4,3.8-4.4c2.5,0,3.8,1.8,3.8,4.4c0,2.6-1.4,4.4-3.8,4.4
			C240.9,168.8,239.6,167,239.6,164.3z M241.1,164.3c0,2.1,0.7,3.3,2.3,3.3c1.6,0,2.3-1.3,2.3-3.3c0-2.1-0.7-3.3-2.3-3.3
			C241.9,161,241.1,162.3,241.1,164.3z"/>
		<path class="st10" d="M249.6,160.1h1.4v1.4h0c0.5-0.9,1.4-1.6,2.7-1.6c1.8,0,3.4,1.1,3.4,4.3c0,3.1-1.6,4.6-3.5,4.6
			c-1.2,0-2.2-0.7-2.5-1.4h0v4.2h-1.4V160.1z M253.4,167.6c1.5,0,2.2-1.2,2.2-3.4c0-1.8-0.5-3.1-2.3-3.1c-1.5,0-2.4,1.3-2.4,2.7v0.9
			C251,166.3,251.8,167.6,253.4,167.6z"/>
		<path class="st10" d="M259.6,160.1h1.4v1.4h0c0.5-0.9,1.4-1.6,2.7-1.6c1.8,0,3.4,1.1,3.4,4.3c0,3.1-1.6,4.6-3.5,4.6
			c-1.2,0-2.2-0.7-2.5-1.4h0v4.2h-1.4V160.1z M263.4,167.6c1.5,0,2.2-1.2,2.2-3.4c0-1.8-0.5-3.1-2.3-3.1c-1.5,0-2.4,1.3-2.4,2.7v0.9
			C261,166.3,261.8,167.6,263.4,167.6z"/>
		<path class="st10" d="M269.5,156.7h1.5v1.6h-1.5V156.7z M269.5,160.1h1.5v8.4h-1.5V160.1z"/>
		<path class="st10" d="M279.5,163.4c0-0.6,0-1.3-0.3-1.7c-0.3-0.4-0.8-0.6-1.3-0.6c-1.6,0-2.3,1-2.3,2.4v5.1h-1.4v-8.4h1.4v1.4h0
			c0.4-0.9,1.4-1.6,2.7-1.6c1.6,0,2.7,0.8,2.7,2.8v5.9h-1.4V163.4z"/>
		<path class="st10" d="M283.5,169.4h1.4c0.2,0.7,0.7,1.2,2.1,1.2c1.6,0,2.4-0.6,2.4-2.4v-1.3h0c-0.4,0.8-1.4,1.6-2.7,1.6
			c-1.8,0-3.4-1.1-3.4-4.2c0-2.8,1.5-4.3,3.5-4.3c1.4,0,2.2,0.8,2.5,1.5h0v-1.3h1.4v8.2c0,2.4-1.5,3.4-3.8,3.4
			C285.3,171.8,283.6,171.2,283.5,169.4z M289.4,163.9c0-1.7-0.9-2.8-2.4-2.8c-1.5,0-2.2,1.3-2.2,3.2c0,1.9,0.5,3.1,2.3,3.1
			c1.4,0,2.3-1.2,2.3-2.6L289.4,163.9L289.4,163.9z"/>
		<path class="st10" d="M297.9,169.4h1.4c0.2,0.7,0.7,1.2,2.1,1.2c1.6,0,2.4-0.6,2.4-2.4v-1.3h0c-0.4,0.8-1.4,1.6-2.7,1.6
			c-1.8,0-3.4-1.1-3.4-4.2c0-2.8,1.5-4.3,3.5-4.3c1.4,0,2.2,0.8,2.5,1.5h0v-1.3h1.4v8.2c0,2.4-1.5,3.4-3.8,3.4
			C299.7,171.8,298.1,171.2,297.9,169.4z M303.8,163.9c0-1.7-0.9-2.8-2.4-2.8c-1.5,0-2.2,1.3-2.2,3.2c0,1.9,0.5,3.1,2.3,3.1
			c1.4,0,2.3-1.2,2.3-2.6L303.8,163.9L303.8,163.9z"/>
		<path class="st10" d="M309.6,165.3c0,0.6,0,1.3,0.3,1.7c0.3,0.4,0.7,0.6,1.3,0.6c1.6,0,2.3-1,2.3-2.9v-4.6h1.4v8.4h-1.4v-1.4h0
			c-0.4,0.9-1.3,1.6-2.7,1.6c-1.6,0-2.7-0.8-2.7-2.8v-5.9h1.4L309.6,165.3L309.6,165.3z"/>
		<path class="st10" d="M318.1,156.7h1.5v1.6h-1.5V156.7z M318.1,160.1h1.5v8.4h-1.5V160.1z"/>
		<path class="st10" d="M329.5,168.6h-1.4v-1.4h0c-0.5,0.8-1.4,1.6-2.7,1.6c-1.8,0-3.4-1.1-3.4-4.4c0-2.9,1.5-4.5,3.6-4.5
			c1.3,0,2.1,0.7,2.4,1.5h0V156h1.4L329.5,168.6L329.5,168.6z M328.1,164c0-1.8-0.9-2.9-2.3-2.9c-1.6,0-2.4,1.3-2.4,3.3
			c0,1.9,0.6,3.3,2.2,3.3c1.5,0,2.4-1.2,2.4-2.7L328.1,164L328.1,164z"/>
		<path class="st10" d="M335.8,168.8c-2.6,0-3.8-1.9-3.8-4.4c0-2.5,1.3-4.5,3.8-4.5c2.5,0,3.5,1.9,3.5,4.1v0.7h-5.8
			c0.1,1.7,0.8,2.9,2.4,2.9c1.4,0,1.8-0.8,1.9-1.3h1.4C338.8,167.8,337.6,168.8,335.8,168.8z M337.8,163.5c0-1.4-0.6-2.5-2.1-2.5
			c-1.3,0-2.1,1.1-2.3,2.6L337.8,163.5L337.8,163.5z"/>
		<path class="st10" d="M345.8,162.2c-0.1-0.8-0.7-1.2-1.7-1.2s-1.6,0.6-1.6,1.4c0,0.7,0.4,1,1.3,1.1l1.3,0.2c1.8,0.3,2.4,1,2.4,2.4
			c0,1.7-1.4,2.6-3.3,2.6c-1.8,0-3.2-0.8-3.3-2.6h1.4c0.1,0.7,0.4,1.5,1.9,1.5c1.1,0,1.9-0.5,1.9-1.4c0-0.7-0.2-1-1.3-1.2l-1.3-0.2
			c-1.5-0.2-2.3-0.9-2.3-2.3c0-1.5,1.1-2.6,3.1-2.6c1.8,0,2.9,0.9,3,2.3L345.8,162.2L345.8,162.2z"/>
		<path class="st10" d="M349.4,166.6h2v1.9h-2V166.6z"/>
		<path class="st10" d="M9.4,192.7h4.4v1.3H9.4V192.7z"/>
		<path class="st10" d="M26.1,186.1c3,0,5.5,1.9,5.5,6.3c0,4.4-2.5,6.3-5.5,6.3c-3,0-5.5-2-5.5-6.3
			C20.6,188.1,23.1,186.1,26.1,186.1z M30,192.5c0-3.4-1.6-5.2-4-5.2c-2.3,0-3.9,1.7-3.9,5.2c0,3.4,1.6,5.1,3.9,5.1
			C28.4,197.6,30,195.8,30,192.5z"/>
		<path class="st10" d="M35.7,195.3c0,0.6,0,1.3,0.3,1.7c0.3,0.4,0.7,0.6,1.3,0.6c1.6,0,2.3-1,2.3-2.9v-4.6h1.4v8.4h-1.4v-1.4h0
			c-0.4,0.9-1.3,1.6-2.7,1.6c-1.6,0-2.7-0.8-2.7-2.8v-5.9h1.4L35.7,195.3L35.7,195.3z"/>
		<path class="st10" d="M46,187.7v2.4h2.1v1.1H46v5c0,0.9,0.4,1.3,1.3,1.3c0.4,0,0.9-0.1,0.9-0.1v1.2c0,0-0.6,0.1-1.3,0.1
			c-1.7,0-2.3-0.8-2.3-2.2v-5.2H43v-1.1h0.3c1.1,0,1.4-0.3,1.4-1.9v-0.6H46z"/>
		<path class="st10" d="M50.2,185.9h1.4v12.6h-1.4V185.9z"/>
		<path class="st10" d="M54.8,186.7h1.5v1.6h-1.5V186.7z M54.8,190.1h1.5v8.4h-1.5V190.1z"/>
		<path class="st10" d="M64.8,193.4c0-0.6,0-1.3-0.3-1.7c-0.3-0.4-0.8-0.6-1.3-0.6c-1.6,0-2.3,1-2.3,2.4v5.1h-1.4v-8.4h1.4v1.4h0
			c0.4-0.9,1.4-1.6,2.7-1.6c1.6,0,2.7,0.8,2.7,2.8v5.9h-1.4L64.8,193.4L64.8,193.4z"/>
		<path class="st10" d="M72.3,198.8c-2.6,0-3.8-1.9-3.8-4.4c0-2.5,1.3-4.5,3.8-4.5c2.5,0,3.5,1.9,3.5,4.1v0.7H70
			c0.1,1.7,0.8,2.9,2.4,2.9c1.4,0,1.8-0.8,1.9-1.3h1.4C75.4,197.8,74.2,198.8,72.3,198.8z M74.3,193.5c0-1.4-0.6-2.5-2.1-2.5
			c-1.3,0-2.1,1.1-2.3,2.6L74.3,193.5L74.3,193.5z"/>
		<path class="st10" d="M82.4,192.4c0-1.5,1.2-2.5,3.2-2.5c2.1,0,3.1,0.9,3.1,3.1v3.4c0,0.7,0.1,0.9,0.8,1v1.2h-0.2
			c-1.3,0-1.8-0.5-1.9-1.5h0c-0.4,1-1.5,1.6-2.7,1.6c-1.7,0-2.7-0.9-2.7-2.4c0-0.9,0.4-1.7,1.3-2.1c0.9-0.5,2.2-0.6,4.1-0.7v-0.4
			c0-1.5-0.6-2.1-1.8-2.1c-1.3,0-1.7,0.7-1.8,1.4L82.4,192.4L82.4,192.4z M87.3,194.7v-0.2c-1.8,0.1-2.9,0.2-3.4,0.6
			c-0.3,0.2-0.5,0.6-0.5,1c0,0.9,0.6,1.3,1.5,1.3C86,197.5,87.3,196.8,87.3,194.7z"/>
		<path class="st10" d="M91.8,185.9h1.4v12.6h-1.4V185.9z"/>
		<path class="st10" d="M96.4,185.9h1.4v12.6h-1.4V185.9z"/>
		<path class="st10" d="M107.2,198.6h-1.4v-7.3h-1.5v-1.1h1.5v-1.9c0-1.7,1-2.3,2.6-2.3c0.3,0,0.6,0,0.9,0.1v1.2
			c-0.2,0-0.4-0.1-0.8-0.1c-0.8,0-1.2,0.3-1.2,1.3v1.7h2v1.1h-2L107.2,198.6L107.2,198.6z"/>
		<path class="st10" d="M110.4,194.3c0-2.6,1.4-4.4,3.8-4.4c2.5,0,3.8,1.8,3.8,4.4c0,2.6-1.4,4.4-3.8,4.4
			C111.7,198.8,110.4,197,110.4,194.3z M111.9,194.3c0,2.1,0.7,3.3,2.3,3.3c1.6,0,2.3-1.3,2.3-3.3c0-2.1-0.7-3.3-2.3-3.3
			C112.7,191,111.9,192.3,111.9,194.3z"/>
		<path class="st10" d="M125.8,193.4c0-0.6,0-1.3-0.3-1.7c-0.3-0.4-0.8-0.6-1.3-0.6c-1.6,0-2.3,1-2.3,2.4v5.1h-1.4v-8.4h1.4v1.4h0
			c0.4-0.9,1.4-1.6,2.7-1.6c1.6,0,2.7,0.8,2.7,2.8v5.9h-1.4C125.8,198.6,125.8,193.4,125.8,193.4z"/>
		<path class="st10" d="M132.1,187.7v2.4h2.1v1.1h-2.1v5c0,0.9,0.4,1.3,1.3,1.3c0.4,0,0.9-0.1,0.9-0.1v1.2c0,0-0.6,0.1-1.3,0.1
			c-1.6,0-2.3-0.8-2.3-2.2v-5.2h-1.5v-1.1h0.3c1.1,0,1.4-0.3,1.4-1.9v-0.6H132.1z"/>
		<path class="st10" d="M140.5,192.2c-0.1-0.8-0.7-1.2-1.7-1.2s-1.6,0.6-1.6,1.4c0,0.7,0.4,1,1.3,1.1l1.3,0.2c1.8,0.3,2.4,1,2.4,2.4
			c0,1.7-1.4,2.6-3.3,2.6c-1.8,0-3.2-0.8-3.3-2.6h1.4c0.1,0.7,0.4,1.5,1.9,1.5c1.1,0,1.9-0.5,1.9-1.4c0-0.7-0.2-1-1.3-1.2l-1.3-0.2
			c-1.5-0.2-2.3-0.9-2.3-2.3c0-1.5,1.1-2.6,3.1-2.6c1.8,0,2.9,0.9,3,2.3L140.5,192.2L140.5,192.2z"/>
		<path class="st10" d="M150.5,195.3c0,0.6,0,1.3,0.3,1.7c0.3,0.4,0.7,0.6,1.3,0.6c1.6,0,2.3-1,2.3-2.9v-4.6h1.4v8.4h-1.4v-1.4h0
			c-0.4,0.9-1.3,1.6-2.7,1.6c-1.6,0-2.7-0.8-2.7-2.8v-5.9h1.4L150.5,195.3L150.5,195.3z"/>
		<path class="st10" d="M163.1,192.2c-0.1-0.8-0.7-1.2-1.7-1.2s-1.6,0.6-1.6,1.4c0,0.7,0.4,1,1.3,1.1l1.3,0.2c1.8,0.3,2.4,1,2.4,2.4
			c0,1.7-1.4,2.6-3.3,2.6c-1.8,0-3.2-0.8-3.3-2.6h1.4c0.1,0.7,0.4,1.5,1.9,1.5c1.1,0,1.9-0.5,1.9-1.4c0-0.7-0.2-1-1.3-1.2l-1.3-0.2
			c-1.5-0.2-2.3-0.9-2.3-2.3c0-1.5,1.1-2.6,3.1-2.6c1.8,0,2.9,0.9,3,2.3L163.1,192.2L163.1,192.2z"/>
		<path class="st10" d="M170.3,198.8c-2.6,0-3.8-1.9-3.8-4.4c0-2.5,1.3-4.5,3.8-4.5c2.5,0,3.5,1.9,3.5,4.1v0.7H168
			c0.1,1.7,0.8,2.9,2.4,2.9c1.4,0,1.8-0.8,1.9-1.3h1.4C173.4,197.8,172.1,198.8,170.3,198.8z M172.3,193.5c0-1.4-0.6-2.5-2.1-2.5
			c-1.3,0-2.1,1.1-2.3,2.6L172.3,193.5L172.3,193.5L172.3,193.5z"/>
		<path class="st10" d="M183.1,198.6h-1.4v-1.4h-0.1c-0.4,0.8-1.4,1.6-2.7,1.6c-1.8,0-3.4-1.1-3.4-4.4c0-2.9,1.5-4.5,3.6-4.5
			c1.3,0,2.1,0.7,2.4,1.5h0V186h1.4L183.1,198.6L183.1,198.6z M181.7,194c0-1.8-0.9-2.9-2.3-2.9c-1.6,0-2.4,1.3-2.4,3.3
			c0,1.9,0.6,3.3,2.2,3.3c1.5,0,2.4-1.2,2.4-2.7V194z"/>
		<path class="st10" d="M190.7,186.7h1.5v1.6h-1.5V186.7z M190.7,190.1h1.5v8.4h-1.5V190.1z"/>
		<path class="st10" d="M200.7,193.4c0-0.6,0-1.3-0.3-1.7c-0.3-0.4-0.8-0.6-1.3-0.6c-1.6,0-2.3,1-2.3,2.4v5.1h-1.4v-8.4h1.4v1.4h0
			c0.4-0.9,1.4-1.6,2.7-1.6c1.6,0,2.7,0.8,2.7,2.8v5.9h-1.4V193.4z"/>
		<path class="st10" d="M208.9,190.1h1.4l1.8,5.3c0.3,0.8,0.4,1.3,0.4,1.3h0.1c0,0,0.1-0.5,0.4-1.3l1.7-5.3h1.4l-3.1,9
			c-0.7,1.9-1.2,2.7-3.1,2.7c-0.3,0-0.6-0.1-0.9-0.1v-1.2c0.3,0.1,0.6,0.1,0.7,0.1c1.1,0,1.4-0.4,1.8-1.5l0.2-0.4L208.9,190.1z"/>
		<path class="st10" d="M217.4,194.3c0-2.6,1.4-4.4,3.8-4.4c2.5,0,3.8,1.8,3.8,4.4c0,2.6-1.4,4.4-3.8,4.4
			C218.7,198.8,217.4,197,217.4,194.3z M218.9,194.3c0,2.1,0.7,3.3,2.3,3.3c1.6,0,2.3-1.3,2.3-3.3c0-2.1-0.7-3.3-2.3-3.3
			C219.6,191,218.9,192.3,218.9,194.3z"/>
		<path class="st10" d="M228.8,195.3c0,0.6,0,1.3,0.3,1.7c0.3,0.4,0.7,0.6,1.3,0.6c1.6,0,2.3-1,2.3-2.9v-4.6h1.4v8.4h-1.4v-1.4h0
			c-0.4,0.9-1.3,1.6-2.7,1.6c-1.6,0-2.7-0.8-2.7-2.8v-5.9h1.4L228.8,195.3L228.8,195.3z"/>
		<path class="st10" d="M237.3,190.1h1.4v1.6h0c0.4-0.9,1.4-1.8,2.7-1.8h0.1v1.5h-0.3c-1.5,0-2.5,0.9-2.5,2.5v4.6h-1.4L237.3,190.1
			L237.3,190.1z"/>
		<path class="st10" d="M255,198.6h-1.4v-1.4h-0.1c-0.4,0.8-1.4,1.6-2.7,1.6c-1.8,0-3.4-1.1-3.4-4.4c0-2.9,1.5-4.5,3.6-4.5
			c1.3,0,2.1,0.7,2.4,1.5h0V186h1.4L255,198.6L255,198.6z M253.6,194c0-1.8-0.9-2.9-2.3-2.9c-1.6,0-2.4,1.3-2.4,3.3
			c0,1.9,0.6,3.3,2.2,3.3c1.5,0,2.4-1.2,2.4-2.7V194z"/>
		<path class="st10" d="M261.2,198.8c-2.6,0-3.8-1.9-3.8-4.4c0-2.5,1.3-4.5,3.8-4.5c2.5,0,3.5,1.9,3.5,4.1v0.7h-5.8
			c0.1,1.7,0.8,2.9,2.4,2.9c1.4,0,1.8-0.8,1.9-1.3h1.4C264.3,197.8,263,198.8,261.2,198.8z M263.2,193.5c0-1.4-0.6-2.5-2.1-2.5
			c-1.3,0-2.1,1.1-2.3,2.6L263.2,193.5L263.2,193.5z"/>
		<path class="st10" d="M271.3,192.2c-0.1-0.8-0.7-1.2-1.7-1.2s-1.6,0.6-1.6,1.4c0,0.7,0.4,1,1.3,1.1l1.3,0.2c1.8,0.3,2.4,1,2.4,2.4
			c0,1.7-1.4,2.6-3.3,2.6c-1.8,0-3.2-0.8-3.3-2.6h1.4c0.1,0.7,0.4,1.5,1.9,1.5c1.1,0,1.9-0.5,1.9-1.4c0-0.7-0.2-1-1.3-1.2l-1.3-0.2
			c-1.5-0.2-2.3-0.9-2.3-2.3c0-1.5,1.1-2.6,3.1-2.6c1.8,0,2.9,0.9,3,2.3L271.3,192.2L271.3,192.2z"/>
		<path class="st10" d="M275.4,186.7h1.5v1.6h-1.5V186.7z M275.4,190.1h1.5v8.4h-1.5V190.1z"/>
		<path class="st10" d="M279.5,199.4h1.4c0.2,0.7,0.7,1.2,2.1,1.2c1.6,0,2.4-0.6,2.4-2.4v-1.3h0c-0.4,0.8-1.4,1.6-2.7,1.6
			c-1.8,0-3.4-1.1-3.4-4.2c0-2.8,1.5-4.3,3.5-4.3c1.4,0,2.2,0.8,2.5,1.5h0v-1.3h1.4v8.2c0,2.4-1.5,3.4-3.8,3.4
			C281.3,201.8,279.7,201.2,279.5,199.4z M285.4,193.9c0-1.7-0.9-2.8-2.4-2.8c-1.5,0-2.2,1.3-2.2,3.2c0,1.9,0.5,3.1,2.3,3.1
			c1.4,0,2.3-1.2,2.3-2.6L285.4,193.9L285.4,193.9z"/>
		<path class="st10" d="M295.3,193.4c0-0.6,0-1.3-0.3-1.7c-0.3-0.4-0.8-0.6-1.3-0.6c-1.6,0-2.3,1-2.3,2.4v5.1h-1.4v-8.4h1.4v1.4h0
			c0.4-0.9,1.4-1.6,2.7-1.6c1.6,0,2.7,0.8,2.7,2.8v5.9h-1.4V193.4z"/>
		<path class="st10" d="M299.2,196.6h2v1.9h-2V196.6z"/>
		<path class="st10" d="M9.4,222.7h4.4v1.3H9.4V222.7z"/>
		<path class="st10" d="M21.2,216.3H29v1.3h-6.3v4.1h5.8v1.3h-5.8v4.2h6.4v1.3h-7.9V216.3z"/>
		<path class="st10" d="M33.7,224.2l-2.7-4.1h1.7l1.8,2.9h0l1.9-2.9H38l-2.7,4l2.9,4.4h-1.7l-2.1-3.3h0l-2.1,3.3h-1.6L33.7,224.2z"
			/>
		<path class="st10" d="M40.2,220.1h1.4v1.4h0c0.5-0.9,1.4-1.6,2.7-1.6c1.8,0,3.4,1.1,3.4,4.3c0,3.1-1.6,4.6-3.5,4.6
			c-1.2,0-2.2-0.7-2.5-1.4h0v4.2h-1.4C40.2,231.6,40.2,220.1,40.2,220.1z M44,227.6c1.5,0,2.2-1.2,2.2-3.4c0-1.8-0.5-3.1-2.3-3.1
			c-1.5,0-2.4,1.3-2.4,2.7v0.9C41.6,226.3,42.4,227.6,44,227.6z"/>
		<path class="st10" d="M49.5,224.3c0-2.6,1.4-4.4,3.8-4.4c2.5,0,3.8,1.8,3.8,4.4c0,2.6-1.4,4.4-3.8,4.4
			C50.8,228.8,49.5,227,49.5,224.3z M51,224.3c0,2.1,0.7,3.3,2.3,3.3c1.6,0,2.3-1.3,2.3-3.3c0-2.1-0.7-3.3-2.3-3.3
			C51.8,221,51,222.3,51,224.3z"/>
		<path class="st10" d="M59.5,220.1h1.4v1.6h0c0.4-0.9,1.4-1.8,2.7-1.8h0.1v1.5h-0.3c-1.5,0-2.5,0.9-2.5,2.5v4.6h-1.4L59.5,220.1
			L59.5,220.1z"/>
		<path class="st10" d="M67.9,217.7v2.4H70v1.1h-2.1v5c0,0.9,0.4,1.3,1.3,1.3c0.4,0,0.9-0.1,0.9-0.1v1.2c0,0-0.6,0.1-1.3,0.1
			c-1.7,0-2.3-0.8-2.3-2.2v-5.2H65v-1.1h0.3c1.1,0,1.4-0.3,1.4-1.9v-0.6H67.9z"/>
		<path class="st10" d="M76.3,222.4c0-1.5,1.2-2.5,3.2-2.5c2.1,0,3.1,0.9,3.1,3.1v3.4c0,0.7,0.1,0.9,0.8,1v1.2h-0.2
			c-1.3,0-1.8-0.5-1.9-1.5h0c-0.4,1-1.5,1.6-2.7,1.6c-1.7,0-2.7-0.9-2.7-2.4c0-0.9,0.4-1.7,1.3-2.1c0.9-0.5,2.2-0.6,4.1-0.7v-0.4
			c0-1.5-0.6-2.1-1.8-2.1c-1.3,0-1.7,0.7-1.8,1.4L76.3,222.4L76.3,222.4z M81.2,224.7v-0.2c-1.8,0.1-2.9,0.2-3.4,0.6
			c-0.3,0.2-0.5,0.6-0.5,1c0,0.9,0.6,1.3,1.5,1.3C79.9,227.5,81.2,226.8,81.2,224.7z"/>
		<path class="st10" d="M91,223.4c0-0.6,0-1.3-0.3-1.7c-0.3-0.4-0.8-0.6-1.3-0.6c-1.6,0-2.3,1-2.3,2.4v5.1h-1.4v-8.4H87v1.4h0
			c0.4-0.9,1.4-1.6,2.7-1.6c1.6,0,2.7,0.8,2.7,2.8v5.9H91C91,228.6,91,223.4,91,223.4z"/>
		<path class="st10" d="M102.3,228.6h-1.4v-1.4h-0.1c-0.4,0.8-1.4,1.6-2.7,1.6c-1.8,0-3.4-1.1-3.4-4.4c0-2.9,1.5-4.5,3.6-4.5
			c1.3,0,2.1,0.7,2.4,1.5h0V216h1.4L102.3,228.6L102.3,228.6z M100.9,224c0-1.8-0.9-2.9-2.3-2.9c-1.6,0-2.3,1.3-2.3,3.3
			c0,1.9,0.6,3.3,2.2,3.3c1.5,0,2.4-1.2,2.4-2.7V224z"/>
		<path class="st10" d="M114.2,222.2c-0.1-0.8-0.7-1.2-1.7-1.2s-1.7,0.6-1.7,1.4c0,0.7,0.4,1,1.3,1.1l1.3,0.2c1.8,0.3,2.4,1,2.4,2.4
			c0,1.7-1.4,2.6-3.3,2.6c-1.8,0-3.2-0.8-3.3-2.6h1.4c0.1,0.7,0.4,1.5,1.9,1.5c1.2,0,1.9-0.5,1.9-1.4c0-0.7-0.2-1-1.3-1.2l-1.3-0.2
			c-1.5-0.2-2.3-0.9-2.3-2.3c0-1.5,1.1-2.6,3.1-2.6c1.8,0,2.9,0.9,3,2.3L114.2,222.2L114.2,222.2z"/>
		<path class="st10" d="M119.5,225.3c0,0.6,0,1.3,0.3,1.7c0.3,0.4,0.7,0.6,1.3,0.6c1.6,0,2.3-1,2.3-2.9v-4.6h1.4v8.4h-1.4v-1.4h0
			c-0.4,0.9-1.3,1.6-2.7,1.6c-1.6,0-2.7-0.8-2.7-2.8v-5.9h1.4L119.5,225.3L119.5,225.3z"/>
		<path class="st10" d="M128,215.9h1.4v5.6h0c0.5-0.9,1.4-1.6,2.7-1.6c1.8,0,3.4,1.1,3.4,4.3c0,3.1-1.6,4.6-3.5,4.6
			c-1.3,0-2.2-0.7-2.6-1.6h0v1.3H128L128,215.9L128,215.9z M134.1,224.2c0-1.8-0.5-3.1-2.3-3.1c-1.5,0-2.4,1.3-2.4,2.7v0.9
			c0,1.7,0.8,3,2.4,3C133.3,227.6,134.1,226.4,134.1,224.2z"/>
		<path class="st10" d="M137.9,220.1h1.4v1.4h0c0.4-0.9,1.4-1.6,2.7-1.6c1.3,0,2.2,0.6,2.5,1.8h0c0.3-0.9,1.4-1.8,2.8-1.8
			c1.6,0,2.7,0.8,2.7,2.8v5.9h-1.4v-5.2c0-0.6,0-1.3-0.3-1.7c-0.3-0.4-0.8-0.5-1.3-0.5c-1.6,0-2.3,1-2.3,2.4v5.1h-1.4v-5.2
			c0-0.6,0-1.3-0.3-1.7c-0.3-0.4-0.8-0.6-1.3-0.6c-1.6,0-2.3,1-2.3,2.4v5.1H138L137.9,220.1L137.9,220.1z"/>
		<path class="st10" d="M153.1,216.7h1.5v1.6h-1.5V216.7z M153.1,220.1h1.5v8.4h-1.5V220.1z"/>
		<path class="st10" d="M159.5,217.7v2.4h2.1v1.1h-2.1v5c0,0.9,0.4,1.3,1.3,1.3c0.4,0,0.9-0.1,0.9-0.1v1.2c0,0-0.6,0.1-1.3,0.1
			c-1.6,0-2.3-0.8-2.3-2.2v-5.2h-1.5v-1.1h0.3c1.1,0,1.4-0.3,1.4-1.9v-0.6H159.5z"/>
		<path class="st10" d="M168.2,215.9h1.4v12.6h-1.4V215.9z"/>
		<path class="st10" d="M172.1,224.3c0-2.6,1.4-4.4,3.8-4.4c2.5,0,3.8,1.8,3.8,4.4c0,2.6-1.4,4.4-3.8,4.4
			C173.4,228.8,172.1,227,172.1,224.3z M173.6,224.3c0,2.1,0.7,3.3,2.3,3.3c1.6,0,2.3-1.3,2.3-3.3c0-2.1-0.7-3.3-2.3-3.3
			C174.3,221,173.6,222.3,173.6,224.3z"/>
		<path class="st10" d="M181.7,229.4h1.4c0.2,0.7,0.7,1.2,2.1,1.2c1.6,0,2.4-0.6,2.4-2.4v-1.3h0c-0.4,0.8-1.4,1.6-2.7,1.6
			c-1.8,0-3.4-1.1-3.4-4.2c0-2.8,1.5-4.3,3.6-4.3c1.4,0,2.2,0.8,2.5,1.5h0v-1.3h1.4v8.2c0,2.4-1.6,3.4-3.8,3.4
			C183.5,231.8,181.9,231.2,181.7,229.4z M187.6,223.9c0-1.7-0.9-2.8-2.4-2.8c-1.5,0-2.2,1.3-2.2,3.2c0,1.9,0.5,3.1,2.3,3.1
			c1.4,0,2.3-1.2,2.3-2.6L187.6,223.9L187.6,223.9z"/>
		<path class="st10" d="M191.4,224.3c0-2.6,1.4-4.4,3.8-4.4c2.5,0,3.8,1.8,3.8,4.4c0,2.6-1.4,4.4-3.8,4.4
			C192.6,228.8,191.4,227,191.4,224.3z M192.9,224.3c0,2.1,0.7,3.3,2.3,3.3c1.6,0,2.3-1.3,2.3-3.3c0-2.1-0.7-3.3-2.3-3.3
			C193.6,221,192.9,222.3,192.9,224.3z"/>
		<path class="st10" d="M205.6,222.2c-0.1-0.8-0.7-1.2-1.7-1.2s-1.6,0.6-1.6,1.4c0,0.7,0.4,1,1.3,1.1l1.3,0.2c1.8,0.3,2.4,1,2.4,2.4
			c0,1.7-1.4,2.6-3.3,2.6c-1.8,0-3.2-0.8-3.3-2.6h1.4c0.1,0.7,0.4,1.5,1.9,1.5c1.1,0,1.9-0.5,1.9-1.4c0-0.7-0.2-1-1.3-1.2l-1.3-0.2
			c-1.5-0.2-2.3-0.9-2.3-2.3c0-1.5,1.1-2.6,3.1-2.6c1.8,0,2.9,0.9,3,2.3L205.6,222.2L205.6,222.2z"/>
		<path class="st10" d="M213.8,222.4c0-1.5,1.2-2.5,3.2-2.5c2.1,0,3.1,0.9,3.1,3.1v3.4c0,0.7,0.1,0.9,0.8,1v1.2h-0.2
			c-1.3,0-1.8-0.5-1.9-1.5h0c-0.4,1-1.5,1.6-2.7,1.6c-1.7,0-2.7-0.9-2.7-2.4c0-0.9,0.4-1.7,1.3-2.1c0.9-0.5,2.2-0.6,4.1-0.7v-0.4
			c0-1.5-0.6-2.1-1.8-2.1c-1.3,0-1.7,0.7-1.8,1.4L213.8,222.4L213.8,222.4z M218.7,224.7v-0.2c-1.8,0.1-2.9,0.2-3.4,0.6
			c-0.3,0.2-0.5,0.6-0.5,1c0,0.9,0.6,1.3,1.5,1.3C217.4,227.5,218.7,226.8,218.7,224.7z"/>
		<path class="st10" d="M224.9,217.7v2.4h2.1v1.1h-2.1v5c0,0.9,0.4,1.3,1.3,1.3c0.4,0,0.9-0.1,0.9-0.1v1.2c0,0-0.6,0.1-1.3,0.1
			c-1.6,0-2.3-0.8-2.3-2.2v-5.2H222v-1.1h0.3c1.1,0,1.4-0.3,1.4-1.9v-0.6H224.9z"/>
		<path class="st10" d="M235.4,219.8h-2.4v-1h0.4c0.8,0,1.4-0.2,1.7-0.6c0.4-0.4,0.5-0.8,0.5-1.6h1.2v11.9h-1.5L235.4,219.8
			L235.4,219.8z"/>
		<path class="st10" d="M244.4,216.5c2.6,0,4.3,2,4.3,6.1c0,4.1-1.7,6.1-4.3,6.1c-2.6,0-4.2-2-4.2-6.1
			C240.2,218.6,241.9,216.5,244.4,216.5z M247.1,222.7c0-3.3-1-5-2.7-5c-1.7,0-2.7,1.6-2.7,5c0,3.3,1,4.9,2.7,4.9
			C246.1,227.6,247.1,225.9,247.1,222.7z"/>
		<path class="st10" d="M255.4,216.5c2.6,0,4.3,2,4.3,6.1c0,4.1-1.7,6.1-4.3,6.1c-2.6,0-4.2-2-4.2-6.1
			C251.1,218.6,252.8,216.5,255.4,216.5z M258.1,222.7c0-3.3-1-5-2.7-5c-1.7,0-2.7,1.6-2.7,5c0,3.3,1,4.9,2.7,4.9
			C257,227.6,258.1,225.9,258.1,222.7z"/>
		<path class="st10" d="M266.3,216.5c2.6,0,4.3,2,4.3,6.1c0,4.1-1.7,6.1-4.3,6.1c-2.6,0-4.2-2-4.2-6.1
			C262.1,218.6,263.8,216.5,266.3,216.5z M269,222.7c0-3.3-1-5-2.7-5c-1.7,0-2.7,1.6-2.7,5c0,3.3,1,4.9,2.7,4.9
			C268,227.6,269,225.9,269,222.7z"/>
		<path class="st10" d="M273.4,220.1h1.4v1.4h0c0.5-0.9,1.4-1.6,2.7-1.6c1.8,0,3.4,1.1,3.4,4.3c0,3.1-1.6,4.6-3.5,4.6
			c-1.2,0-2.2-0.7-2.5-1.4h0v4.2h-1.4L273.4,220.1L273.4,220.1z M277.2,227.6c1.5,0,2.2-1.2,2.2-3.4c0-1.8-0.5-3.1-2.3-3.1
			c-1.5,0-2.4,1.3-2.4,2.7v0.9C274.8,226.3,275.6,227.6,277.2,227.6z"/>
		<path class="st10" d="M284.8,224.2l-2.7-4.1h1.7l1.8,2.9h0l1.9-2.9h1.6l-2.7,4l2.9,4.4h-1.7l-2.1-3.3h0l-2.1,3.3h-1.6L284.8,224.2
			z"/>
		<path class="st10" d="M300.1,222.2c-0.1-0.8-0.7-1.2-1.7-1.2s-1.6,0.6-1.6,1.4c0,0.7,0.4,1,1.3,1.1l1.3,0.2c1.8,0.3,2.4,1,2.4,2.4
			c0,1.7-1.4,2.6-3.3,2.6c-1.8,0-3.2-0.8-3.3-2.6h1.4c0.1,0.7,0.4,1.5,1.9,1.5c1.1,0,1.9-0.5,1.9-1.4c0-0.7-0.2-1-1.3-1.2l-1.3-0.2
			c-1.5-0.2-2.3-0.9-2.3-2.3c0-1.5,1.1-2.6,3.1-2.6c1.8,0,2.9,0.9,3,2.3L300.1,222.2L300.1,222.2z"/>
		<path class="st10" d="M311,231.6h-1.4v-4.3h0c-0.4,0.8-1.3,1.5-2.6,1.5c-1.8,0-3.4-1.1-3.4-4.4c0-2.9,1.5-4.5,3.6-4.5
			c1.3,0,2.1,0.7,2.5,1.5h0v-1.3h1.4L311,231.6L311,231.6z M309.6,224.9V224c0-1.8-0.9-2.9-2.3-2.9c-1.6,0-2.4,1.3-2.4,3.3
			c0,1.9,0.6,3.3,2.2,3.3C308.7,227.6,309.6,226.4,309.6,224.9z"/>
		<path class="st10" d="M315.5,225.3c0,0.6,0,1.3,0.3,1.7c0.3,0.4,0.7,0.6,1.3,0.6c1.6,0,2.3-1,2.3-2.9v-4.6h1.4v8.4h-1.4v-1.4h0
			c-0.4,0.9-1.3,1.6-2.7,1.6c-1.6,0-2.7-0.8-2.7-2.8v-5.9h1.4L315.5,225.3L315.5,225.3z"/>
		<path class="st10" d="M323.6,222.4c0-1.5,1.2-2.5,3.2-2.5c2.1,0,3.1,0.9,3.1,3.1v3.4c0,0.7,0.1,0.9,0.8,1v1.2h-0.2
			c-1.3,0-1.8-0.5-1.9-1.5h0c-0.5,1-1.5,1.6-2.7,1.6c-1.7,0-2.7-0.9-2.7-2.4c0-0.9,0.4-1.7,1.3-2.1c0.9-0.5,2.2-0.6,4.1-0.7v-0.4
			c0-1.5-0.6-2.1-1.8-2.1c-1.3,0-1.7,0.7-1.8,1.4L323.6,222.4L323.6,222.4z M328.5,224.7v-0.2c-1.8,0.1-2.9,0.2-3.4,0.6
			c-0.3,0.2-0.5,0.6-0.5,1c0,0.9,0.6,1.3,1.5,1.3C327.1,227.5,328.5,226.8,328.5,224.7z"/>
		<path class="st10" d="M332.9,220.1h1.4v1.6h0c0.4-0.9,1.4-1.8,2.7-1.8h0.1v1.5h-0.3c-1.5,0-2.5,0.9-2.5,2.5v4.6h-1.4L332.9,220.1
			L332.9,220.1z"/>
		<path class="st10" d="M342.2,228.8c-2.6,0-3.8-1.9-3.8-4.4c0-2.5,1.3-4.5,3.8-4.5c2.5,0,3.5,1.9,3.5,4.1v0.7h-5.8
			c0.1,1.7,0.8,2.9,2.4,2.9c1.4,0,1.8-0.8,1.9-1.3h1.4C345.3,227.8,344,228.8,342.2,228.8z M344.2,223.5c0-1.4-0.6-2.5-2.1-2.5
			c-1.3,0-2.1,1.1-2.3,2.6L344.2,223.5L344.2,223.5z"/>
		<path class="st10" d="M354.4,217.7v2.4h2.1v1.1h-2.1v5c0,0.9,0.4,1.3,1.3,1.3c0.4,0,0.9-0.1,0.9-0.1v1.2c0,0-0.6,0.1-1.3,0.1
			c-1.6,0-2.3-0.8-2.3-2.2v-5.2h-1.5v-1.1h0.3c1.1,0,1.4-0.3,1.4-1.9v-0.6H354.4z"/>
		<path class="st10" d="M358,224.3c0-2.6,1.4-4.4,3.8-4.4c2.5,0,3.8,1.8,3.8,4.4c0,2.6-1.4,4.4-3.8,4.4
			C359.3,228.8,358,227,358,224.3z M359.5,224.3c0,2.1,0.7,3.3,2.3,3.3c1.6,0,2.3-1.3,2.3-3.3c0-2.1-0.7-3.3-2.3-3.3
			C360.2,221,359.5,222.3,359.5,224.3z"/>
		<path class="st10" d="M367.6,220.1h2v2h-2V220.1z M367.6,228.6v-2h2v2H367.6z"/>
		<path class="st10" d="M27.5,252.7h4.4v1.3h-4.5C27.5,254,27.5,252.7,27.5,252.7z"/>
		<path class="st10" d="M38,258.6v-1.3h0.3c2.6,0,3-0.7,3-2.5v-8.6h1.5v8.7c0,2.6-1.4,3.6-4.2,3.6L38,258.6L38,258.6z"/>
		<path class="st10" d="M47.6,253.9v4.7h-1.5v-12.3h3.7c2.4,0,4.2,1.1,4.2,3.8c0,2.6-1.8,3.8-4.3,3.8L47.6,253.9L47.6,253.9z
			 M49.7,252.7c1.8,0,2.8-0.9,2.8-2.6c0-1.8-1-2.6-2.8-2.6h-2.1v5.2H49.7z"/>
		<path class="st10" d="M57.5,252.6c0,3.3,1.4,5.1,3.9,5.1c2.3,0,3.7-1.3,3.7-3.7v-0.2h-3.5v-1.3h5v6.2h-1.3v-1.8h-0.1
			c-0.6,1.1-1.8,2-3.8,2c-3.1,0-5.4-2-5.4-6.3c0-4,2.4-6.4,5.6-6.4c2.5,0,4.3,1.3,4.6,3.4h-1.6c-0.2-1.4-1.5-2.2-3.1-2.2
			C58.9,247.3,57.5,249.4,57.5,252.6z"/>
		<path class="st10" d="M69.6,256.6h1.8l-1.3,3.8h-1L69.6,256.6z"/>
		<path class="st10" d="M79.8,253.9v4.7h-1.5v-12.3H82c2.4,0,4.2,1.1,4.2,3.8c0,2.6-1.8,3.8-4.3,3.8L79.8,253.9L79.8,253.9z
			 M81.8,252.7c1.8,0,2.8-0.9,2.8-2.6c0-1.8-1-2.6-2.8-2.6h-2.1v5.2H81.8z"/>
		<path class="st10" d="M88.7,246.3h1.9l5.4,9.1c0.4,0.7,0.6,1.2,0.6,1.2h0.1v-10.3h1.4v12.3h-1.9l-5.4-9.1
			c-0.5-0.8-0.6-1.2-0.6-1.2h0v10.3h-1.4L88.7,246.3L88.7,246.3z"/>
		<path class="st10" d="M102.5,252.6c0,3.3,1.4,5.1,3.9,5.1c2.3,0,3.7-1.3,3.7-3.7v-0.2h-3.5v-1.3h5v6.2h-1.3v-1.8h-0.1
			c-0.6,1.1-1.8,2-3.8,2c-3.1,0-5.4-2-5.4-6.3c0-4,2.4-6.4,5.6-6.4c2.5,0,4.3,1.3,4.6,3.4h-1.6c-0.2-1.4-1.5-2.2-3.1-2.2
			C103.9,247.3,102.5,249.4,102.5,252.6z"/>
		<path class="st10" d="M114.6,250.1h2v2h-2V250.1z M114.6,258.6v-2h2v2H114.6z"/>
		<path class="st10" d="M127.8,252.2c-0.1-0.8-0.7-1.2-1.7-1.2s-1.7,0.6-1.7,1.4c0,0.7,0.4,1,1.3,1.1l1.3,0.2c1.8,0.3,2.4,1,2.4,2.4
			c0,1.7-1.4,2.6-3.3,2.6c-1.8,0-3.2-0.8-3.3-2.6h1.4c0.1,0.7,0.4,1.5,1.9,1.5c1.2,0,1.9-0.5,1.9-1.4c0-0.7-0.2-1-1.3-1.2l-1.3-0.2
			c-1.5-0.2-2.3-0.9-2.3-2.3c0-1.5,1.1-2.6,3.1-2.6c1.8,0,2.9,0.9,3,2.3L127.8,252.2L127.8,252.2z"/>
		<path class="st10" d="M135,258.8c-2.6,0-3.8-1.9-3.8-4.4c0-2.5,1.3-4.5,3.8-4.5c2.5,0,3.5,1.9,3.5,4.1v0.7h-5.8
			c0.1,1.7,0.8,2.9,2.4,2.9c1.4,0,1.8-0.8,1.9-1.3h1.4C138,257.8,136.8,258.8,135,258.8z M137,253.5c0-1.4-0.6-2.5-2.1-2.5
			c-1.3,0-2.1,1.1-2.3,2.6L137,253.5L137,253.5L137,253.5z"/>
		<path class="st10" d="M142.6,247.7v2.4h2.1v1.1h-2.1v5c0,0.9,0.4,1.3,1.3,1.3c0.4,0,0.9-0.1,0.9-0.1v1.2c0,0-0.6,0.1-1.3,0.1
			c-1.6,0-2.3-0.8-2.3-2.2v-5.2h-1.5v-1.1h0.3c1.1,0,1.4-0.3,1.4-1.9v-0.6L142.6,247.7L142.6,247.7z"/>
		<path class="st10" d="M153.1,247.7v2.4h2.1v1.1h-2.1v5c0,0.9,0.4,1.3,1.3,1.3c0.4,0,0.9-0.1,0.9-0.1v1.2c0,0-0.6,0.1-1.3,0.1
			c-1.6,0-2.3-0.8-2.3-2.2v-5.2h-1.5v-1.1h0.3c1.1,0,1.4-0.3,1.4-1.9v-0.6L153.1,247.7L153.1,247.7z"/>
		<path class="st10" d="M156.7,254.3c0-2.6,1.4-4.4,3.8-4.4c2.5,0,3.8,1.8,3.8,4.4c0,2.6-1.4,4.4-3.8,4.4
			C158,258.8,156.7,257,156.7,254.3z M158.2,254.3c0,2.1,0.7,3.3,2.3,3.3c1.6,0,2.3-1.3,2.3-3.3c0-2.1-0.7-3.3-2.3-3.3
			C159,251,158.2,252.3,158.2,254.3z"/>
		<path class="st10" d="M171.2,250.1h1.4v1.4h0c0.4-0.9,1.4-1.6,2.7-1.6c1.3,0,2.2,0.6,2.5,1.8h0c0.3-0.9,1.4-1.8,2.8-1.8
			c1.6,0,2.7,0.8,2.7,2.8v5.9h-1.4v-5.2c0-0.6,0-1.3-0.3-1.7c-0.3-0.4-0.8-0.5-1.3-0.5c-1.6,0-2.3,1-2.3,2.4v5.1h-1.4v-5.2
			c0-0.6,0-1.3-0.3-1.7c-0.3-0.4-0.8-0.6-1.3-0.6c-1.6,0-2.3,1-2.3,2.4v5.1h-1.4L171.2,250.1L171.2,250.1z"/>
		<path class="st10" d="M186.1,252.4c0-1.5,1.2-2.5,3.2-2.5c2.1,0,3.1,0.9,3.1,3.1v3.4c0,0.7,0.1,0.9,0.8,1v1.2H193
			c-1.3,0-1.8-0.5-1.9-1.5h0c-0.4,1-1.5,1.6-2.7,1.6c-1.7,0-2.7-0.9-2.7-2.4c0-0.9,0.4-1.7,1.3-2.1c0.9-0.5,2.2-0.6,4.1-0.7v-0.4
			c0-1.5-0.6-2.1-1.8-2.1c-1.3,0-1.7,0.7-1.8,1.4L186.1,252.4L186.1,252.4z M191,254.7v-0.2c-1.8,0.1-2.9,0.2-3.4,0.6
			c-0.3,0.2-0.5,0.6-0.5,1c0,0.9,0.6,1.3,1.5,1.3C189.7,257.5,191,256.8,191,254.7z"/>
		<path class="st10" d="M197.1,254.2l-2.7-4.1h1.7l1.8,2.9h0l1.9-2.9h1.6l-2.7,4l2.9,4.4H200l-2.1-3.3h-0.1l-2.1,3.3h-1.6
			L197.1,254.2z"/>
		<path class="st10" d="M203.7,246.7h1.5v1.6h-1.5V246.7z M203.7,250.1h1.5v8.4h-1.5V250.1z"/>
		<path class="st10" d="M208.3,250.1h1.4v1.4h0c0.4-0.9,1.4-1.6,2.7-1.6c1.3,0,2.2,0.6,2.5,1.8h0c0.3-0.9,1.4-1.8,2.8-1.8
			c1.6,0,2.7,0.8,2.7,2.8v5.9H219v-5.2c0-0.6,0-1.3-0.3-1.7c-0.3-0.4-0.8-0.5-1.3-0.5c-1.6,0-2.3,1-2.3,2.4v5.1h-1.4v-5.2
			c0-0.6,0-1.3-0.3-1.7c-0.3-0.4-0.8-0.6-1.3-0.6c-1.6,0-2.3,1-2.3,2.4v5.1h-1.4L208.3,250.1L208.3,250.1z"/>
		<path class="st10" d="M224.9,255.3c0,0.6,0,1.3,0.3,1.7c0.3,0.4,0.7,0.6,1.3,0.6c1.6,0,2.3-1,2.3-2.9v-4.6h1.4v8.4h-1.4v-1.4h0
			c-0.4,0.9-1.3,1.6-2.7,1.6c-1.6,0-2.7-0.8-2.7-2.8v-5.9h1.4L224.9,255.3L224.9,255.3z"/>
		<path class="st10" d="M233.4,250.1h1.4v1.4h0c0.4-0.9,1.4-1.6,2.7-1.6c1.3,0,2.2,0.6,2.5,1.8h0c0.3-0.9,1.4-1.8,2.8-1.8
			c1.6,0,2.7,0.8,2.7,2.8v5.9H244v-5.2c0-0.6,0-1.3-0.3-1.7c-0.3-0.4-0.8-0.5-1.3-0.5c-1.6,0-2.3,1-2.3,2.4v5.1h-1.4v-5.2
			c0-0.6,0-1.3-0.3-1.7c-0.3-0.4-0.8-0.6-1.3-0.6c-1.6,0-2.3,1-2.3,2.4v5.1h-1.4L233.4,250.1L233.4,250.1z"/>
		<path class="st10" d="M259.9,261.6h-1.4v-4.3h0c-0.4,0.8-1.3,1.5-2.6,1.5c-1.8,0-3.4-1.1-3.4-4.4c0-2.9,1.5-4.5,3.6-4.5
			c1.3,0,2.1,0.7,2.5,1.5h0v-1.3h1.4L259.9,261.6L259.9,261.6z M258.4,254.9V254c0-1.8-0.9-2.9-2.3-2.9c-1.6,0-2.4,1.3-2.4,3.3
			c0,1.9,0.6,3.3,2.2,3.3C257.5,257.6,258.4,256.5,258.4,254.9z"/>
		<path class="st10" d="M264.3,255.3c0,0.6,0,1.3,0.3,1.7c0.3,0.4,0.7,0.6,1.3,0.6c1.6,0,2.3-1,2.3-2.9v-4.6h1.4v8.4h-1.4v-1.4h0
			c-0.4,0.9-1.3,1.6-2.7,1.6c-1.6,0-2.7-0.8-2.7-2.8v-5.9h1.4L264.3,255.3L264.3,255.3z"/>
		<path class="st10" d="M272.4,252.4c0-1.5,1.2-2.5,3.2-2.5c2.1,0,3.1,0.9,3.1,3.1v3.4c0,0.7,0.1,0.9,0.8,1v1.2h-0.2
			c-1.3,0-1.8-0.5-1.9-1.5h0c-0.5,1-1.5,1.6-2.7,1.6c-1.7,0-2.7-0.9-2.7-2.4c0-0.9,0.4-1.7,1.3-2.1c0.9-0.5,2.2-0.6,4.1-0.7v-0.4
			c0-1.5-0.6-2.1-1.8-2.1c-1.3,0-1.7,0.7-1.8,1.4L272.4,252.4L272.4,252.4z M277.3,254.7v-0.2c-1.8,0.1-2.9,0.2-3.4,0.6
			c-0.3,0.2-0.5,0.6-0.5,1c0,0.9,0.6,1.3,1.5,1.3C276,257.5,277.3,256.8,277.3,254.7z"/>
		<path class="st10" d="M281.8,245.9h1.4v12.6h-1.4V245.9z"/>
		<path class="st10" d="M286.3,246.7h1.5v1.6h-1.5V246.7z M286.3,250.1h1.5v8.4h-1.5V250.1z"/>
		<path class="st10" d="M292.7,247.7v2.4h2.1v1.1h-2.1v5c0,0.9,0.4,1.3,1.3,1.3c0.4,0,0.9-0.1,0.9-0.1v1.2c0,0-0.6,0.1-1.3,0.1
			c-1.6,0-2.3-0.8-2.3-2.2v-5.2h-1.5v-1.1h0.3c1.1,0,1.4-0.3,1.4-1.9v-0.6L292.7,247.7L292.7,247.7z"/>
		<path class="st10" d="M296.3,250.1h1.4l1.8,5.3c0.3,0.8,0.4,1.3,0.4,1.3h0c0,0,0.1-0.5,0.4-1.3l1.7-5.3h1.4l-3.1,9
			c-0.7,1.9-1.2,2.7-3.1,2.7c-0.3,0-0.6,0-0.9-0.1v-1.2c0.3,0.1,0.6,0.1,0.7,0.1c1.1,0,1.4-0.4,1.8-1.5l0.2-0.5L296.3,250.1z"/>
		<path class="st10" d="M304,256.6h2v2h-2V256.6z"/>
		<path class="st10" d="M27.5,282.7h4.4v1.3h-4.5C27.5,284,27.5,282.7,27.5,282.7z"/>
		<path class="st10" d="M40.7,283.9v4.7h-1.5v-12.3h3.7c2.4,0,4.2,1.1,4.2,3.8c0,2.6-1.8,3.8-4.3,3.8L40.7,283.9L40.7,283.9z
			 M42.8,282.7c1.8,0,2.8-0.9,2.8-2.6c0-1.8-1-2.6-2.8-2.6h-2.1v5.2L42.8,282.7L42.8,282.7z"/>
		<path class="st10" d="M49.6,276.3h3.8c3.3,0,5.9,1.6,5.9,6c0,4.3-2.4,6.3-5.8,6.3h-3.9L49.6,276.3L49.6,276.3z M53.4,287.3
			c2.6,0,4.4-1.3,4.4-5c0-3.4-1.8-4.7-4.3-4.7h-2.4v9.7L53.4,287.3L53.4,287.3z"/>
		<path class="st10" d="M63.7,288.6h-1.5v-12.3h7.3v1.3h-5.8v4.4H69v1.3h-5.3L63.7,288.6L63.7,288.6z"/>
		<path class="st10" d="M27.5,312.7h4.4v1.3h-4.5C27.5,314,27.5,312.7,27.5,312.7z"/>
		<path class="st10" d="M39.2,306.3H47v1.3h-6.3v4.1h5.8v1.3h-5.8v4.2h6.4v1.3h-7.9C39.2,318.6,39.2,306.3,39.2,306.3z"/>
		<path class="st10" d="M51.7,313.9v4.7h-1.5v-12.3h3.7c2.4,0,4.2,1.1,4.2,3.8c0,2.6-1.8,3.8-4.3,3.8L51.7,313.9L51.7,313.9z
			 M53.8,312.7c1.8,0,2.8-0.9,2.8-2.6c0-1.8-1-2.6-2.8-2.6h-2.1v5.2L53.8,312.7L53.8,312.7z"/>
		<path class="st10" d="M67.1,309.6c-0.1-1.2-0.8-2.3-2.5-2.3c-1.7,0-2.6,0.9-2.6,2.1c0,1.1,0.6,1.8,2,2l1.7,0.3
			c2.4,0.4,3.2,1.6,3.2,3.4c0,2.2-1.5,3.7-4.4,3.7c-2.8,0-4.5-1.5-4.6-3.7h1.5c0.2,1.3,1.1,2.5,3.1,2.5c2.2,0,2.9-1.1,2.9-2.4
			c0-1.1-0.6-1.8-2.1-2l-1.7-0.3c-2.4-0.5-3.3-1.7-3.3-3.3c0-2,1.6-3.4,4.2-3.4c2.6,0,3.9,1.4,4.1,3.5L67.1,309.6L67.1,309.6z"/>
		<path class="st10" d="M71.4,310.1h2v2h-2V310.1z M71.4,318.6v-2h2v2H71.4z"/>
		<path class="st10" d="M83.6,318.8c-2.6,0-3.8-1.9-3.8-4.4c0-2.5,1.3-4.5,3.8-4.5c2.5,0,3.5,2,3.5,4.1v0.7h-5.8
			c0.1,1.7,0.8,2.9,2.4,2.9c1.4,0,1.8-0.8,1.9-1.3h1.4C86.6,317.8,85.4,318.8,83.6,318.8z M85.6,313.5c0-1.4-0.6-2.5-2.1-2.5
			c-1.3,0-2.1,1.1-2.3,2.6L85.6,313.5L85.6,313.5z"/>
		<path class="st10" d="M91.1,314.2l-2.7-4.1h1.7l1.8,3h0l1.9-3h1.6l-2.7,4l2.9,4.4H94l-2.1-3.3h-0.1l-2.1,3.3h-1.6L91.1,314.2z"/>
		<path class="st10" d="M97.6,310.1H99v1.4h0c0.5-0.9,1.4-1.6,2.7-1.6c1.8,0,3.4,1.1,3.4,4.3c0,3.1-1.6,4.5-3.5,4.5
			c-1.2,0-2.2-0.7-2.5-1.4h0v4.2h-1.4V310.1z M101.4,317.6c1.5,0,2.2-1.2,2.2-3.4c0-1.8-0.5-3.1-2.3-3.1c-1.5,0-2.4,1.3-2.4,2.7v0.9
			C99,316.3,99.8,317.6,101.4,317.6z"/>
		<path class="st10" d="M106.9,314.3c0-2.6,1.4-4.4,3.8-4.4c2.5,0,3.8,1.8,3.8,4.4c0,2.6-1.4,4.4-3.8,4.4
			C108.2,318.8,106.9,317,106.9,314.3z M108.4,314.3c0,2.1,0.7,3.3,2.3,3.3c1.6,0,2.3-1.3,2.3-3.3c0-2-0.7-3.3-2.3-3.3
			C109.2,311,108.4,312.3,108.4,314.3z"/>
		<path class="st10" d="M116.9,310.1h1.4v1.6h0c0.4-0.9,1.4-1.8,2.7-1.8h0.1v1.5h-0.3c-1.5,0-2.5,0.9-2.5,2.5v4.6h-1.4L116.9,310.1
			L116.9,310.1z"/>
		<path class="st10" d="M125.3,307.7v2.5h2.1v1.1h-2.1v5c0,0.9,0.4,1.3,1.3,1.3c0.4,0,0.9-0.1,0.9-0.1v1.2c0,0-0.6,0.1-1.3,0.1
			c-1.7,0-2.3-0.8-2.3-2.2v-5.2h-1.5v-1.1h0.3c1.1,0,1.4-0.3,1.4-1.9v-0.6L125.3,307.7L125.3,307.7z"/>
		<path class="st10" d="M138.4,313.4h-2.7v5.2h-1.5v-12.3h4.4c0.9,0,1.7,0.2,2.4,0.5c1,0.5,1.6,1.5,1.6,2.9c0,2.3-1.5,3.1-2.6,3.4v0
			l2.7,5.4h-1.7L138.4,313.4z M138.5,312.1c1.4,0,2.5-0.7,2.5-2.4c0-1.5-1-2.2-2.4-2.2h-2.9v4.6H138.5z"/>
		<path class="st10" d="M146.4,312.5c0,3.3,1.4,5.1,3.9,5.1c2.3,0,3.7-1.3,3.7-3.7v-0.2h-3.5v-1.3h5v6.2h-1.3v-1.8H154
			c-0.6,1.1-1.8,2-3.8,2c-3.1,0-5.4-2-5.4-6.3c0-4,2.4-6.4,5.6-6.4c2.5,0,4.3,1.3,4.6,3.4h-1.6c-0.2-1.4-1.5-2.2-3.1-2.2
			C147.7,307.3,146.4,309.4,146.4,312.5z"/>
		<path class="st10" d="M158.8,318.6v-12.3h4.8c2.1,0,3.8,1,3.8,3c0,1.5-0.8,2.4-2.2,2.7v0c1.5,0.3,2.6,1.5,2.6,3
			c0,2.8-2.1,3.5-4.5,3.5H158.8z M163.3,311.5c1.3,0,2.5-0.5,2.5-2c0-1.3-0.9-1.9-2.3-1.9h-3.3v4H163.3z M163.2,317.4
			c1.8,0,3-0.6,3-2.5c0-1.6-1.1-2.2-3.1-2.2h-2.9v4.7H163.2z"/>
		<path class="st10" d="M177,320.6c-0.9-1.8-2.1-4.1-2.1-7.4c0-3.3,1.2-5.5,2.1-7.4h1.1c-0.9,2-1.8,4.1-1.8,7.4
			c0,3.3,0.8,5.4,1.8,7.4H177z"/>
		<path class="st10" d="M187,318.6h-1.4v-1.4h-0.1c-0.4,0.8-1.4,1.6-2.7,1.6c-1.8,0-3.4-1.1-3.4-4.4c0-2.9,1.5-4.5,3.6-4.5
			c1.3,0,2.1,0.7,2.4,1.5h0V306h1.4L187,318.6L187,318.6z M185.6,314c0-1.8-0.9-3-2.3-3c-1.6,0-2.4,1.3-2.4,3.3
			c0,1.9,0.6,3.3,2.2,3.3c1.5,0,2.4-1.2,2.4-2.7V314z"/>
		<path class="st10" d="M190.1,306.7h1.5v1.5h-1.5V306.7z M190.2,310.1h1.5v8.4h-1.5V310.1z"/>
		<path class="st10" d="M194.3,319.4h1.4c0.2,0.7,0.7,1.2,2.1,1.2c1.6,0,2.4-0.6,2.4-2.5v-1.3h0c-0.4,0.8-1.4,1.5-2.7,1.5
			c-1.8,0-3.4-1.1-3.4-4.2c0-2.8,1.5-4.3,3.6-4.3c1.4,0,2.2,0.8,2.5,1.5h0v-1.3h1.4v8.2c0,2.4-1.6,3.4-3.8,3.4
			C196.1,321.8,194.5,321.2,194.3,319.4z M200.2,313.9c0-1.7-0.9-2.8-2.4-2.8c-1.5,0-2.2,1.3-2.2,3.2c0,1.9,0.5,3.1,2.3,3.1
			c1.4,0,2.3-1.2,2.3-2.6L200.2,313.9L200.2,313.9z"/>
		<path class="st10" d="M204.7,306.7h1.5v1.5h-1.5V306.7z M204.7,310.1h1.5v8.4h-1.5V310.1z"/>
		<path class="st10" d="M211.1,307.7v2.5h2.1v1.1h-2.1v5c0,0.9,0.4,1.3,1.3,1.3c0.4,0,0.9-0.1,0.9-0.1v1.2c0,0-0.6,0.1-1.3,0.1
			c-1.6,0-2.3-0.8-2.3-2.2v-5.2h-1.5v-1.1h0.3c1.1,0,1.4-0.3,1.4-1.9v-0.6L211.1,307.7L211.1,307.7z"/>
		<path class="st10" d="M215.6,312.4c0-1.5,1.2-2.5,3.2-2.5c2.1,0,3.1,0.9,3.1,3.1v3.4c0,0.7,0.1,0.9,0.8,1v1.2h-0.2
			c-1.3,0-1.8-0.5-1.9-1.5h0c-0.4,1-1.5,1.6-2.7,1.6c-1.7,0-2.7-0.9-2.7-2.4c0-0.9,0.4-1.7,1.3-2.1c0.9-0.5,2.2-0.6,4.1-0.7v-0.4
			c0-1.5-0.6-2.1-1.8-2.1c-1.3,0-1.7,0.7-1.8,1.4L215.6,312.4L215.6,312.4z M220.5,314.7v-0.2c-1.8,0.1-2.9,0.2-3.4,0.6
			c-0.3,0.2-0.5,0.6-0.5,1c0,0.9,0.6,1.3,1.5,1.3C219.2,317.5,220.5,316.8,220.5,314.7z"/>
		<path class="st10" d="M224.9,306h1.4v12.6h-1.4V306z"/>
		<path class="st10" d="M230.4,313.3c0-3.3-0.8-5.4-1.8-7.4h1.1c0.9,1.8,2.1,4.1,2.1,7.4c0,3.2-1.2,5.5-2.1,7.4h-1.1
			C229.5,318.7,230.4,316.5,230.4,313.3z"/>
		<path class="st10" d="M239.2,312.4c0-1.5,1.2-2.5,3.2-2.5c2.1,0,3.1,0.9,3.1,3.1v3.4c0,0.7,0.1,0.9,0.8,1v1.2h-0.2
			c-1.3,0-1.8-0.5-1.9-1.5h0c-0.4,1-1.5,1.6-2.7,1.6c-1.7,0-2.7-0.9-2.7-2.4c0-0.9,0.4-1.7,1.3-2.1c0.9-0.5,2.2-0.6,4.1-0.7v-0.4
			c0-1.5-0.6-2.1-1.8-2.1c-1.3,0-1.7,0.7-1.8,1.4L239.2,312.4L239.2,312.4z M244.1,314.7v-0.2c-1.8,0.1-2.9,0.2-3.4,0.6
			c-0.3,0.2-0.5,0.6-0.5,1c0,0.9,0.6,1.3,1.5,1.3C242.8,317.5,244.1,316.8,244.1,314.7z"/>
		<path class="st10" d="M253.9,313.4c0-0.6,0-1.3-0.3-1.7c-0.3-0.4-0.8-0.6-1.3-0.6c-1.6,0-2.3,1-2.3,2.4v5.1h-1.4v-8.4h1.4v1.4h0
			c0.4-0.9,1.4-1.6,2.7-1.6c1.6,0,2.7,0.8,2.7,2.8v5.9h-1.4V313.4z"/>
		<path class="st10" d="M265.2,318.6h-1.4v-1.4h0c-0.5,0.8-1.4,1.6-2.7,1.6c-1.8,0-3.4-1.1-3.4-4.4c0-2.9,1.5-4.5,3.6-4.5
			c1.3,0,2.1,0.7,2.4,1.5h0V306h1.4L265.2,318.6L265.2,318.6z M263.8,314c0-1.8-0.9-3-2.3-3c-1.6,0-2.4,1.3-2.4,3.3
			c0,1.9,0.6,3.3,2.2,3.3c1.5,0,2.4-1.2,2.4-2.7L263.8,314L263.8,314z"/>
		<path class="st10" d="M274,312.5c0,3.2,1.4,5.1,3.9,5.1c2.2,0,3.1-1.5,3.2-2.9h1.5c-0.2,2.3-2,4.1-4.7,4.1c-3.2,0-5.4-2.1-5.4-6.3
			c0-4,2.3-6.3,5.5-6.3c2.1,0,4.4,1.1,4.7,3.8h-1.6c-0.2-1.3-1.2-2.6-3.1-2.6C275.4,307.4,274,309.4,274,312.5z"/>
		<path class="st10" d="M285.5,306.3h2.3l3.1,8.8c0.4,1.1,0.5,1.6,0.5,1.6h0c0,0,0.2-0.5,0.5-1.6l3.1-8.8h2.2v12.3h-1.5v-10.5h0
			c0,0-0.2,0.6-0.7,1.9l-3.1,8.6h-1.4l-3-8.6c-0.4-1.3-0.7-1.9-0.7-1.9h0v10.5h-1.4L285.5,306.3L285.5,306.3z"/>
		<path class="st10" d="M303.7,313.3l-4.3-7h1.7l3.3,5.6h0l3.4-5.6h1.6l-4.3,6.9v5.3h-1.5L303.7,313.3L303.7,313.3z"/>
		<path class="st10" d="M313,318.6h-1.5v-12.3h1.5v6.3l5.7-6.3h1.8l-4.7,5.1l5,7.1H319l-4.3-6l-1.8,2L313,318.6L313,318.6z"/>
		<path class="st10" d="M329.6,320.6c-0.9-1.8-2.1-4.1-2.1-7.4c0-3.3,1.2-5.5,2.1-7.4h1.1c-0.9,2-1.8,4.1-1.8,7.4
			c0,3.3,0.8,5.4,1.8,7.4H329.6z"/>
		<path class="st10" d="M332.9,310.1h1.4v1.4h0c0.5-0.9,1.4-1.6,2.7-1.6c1.8,0,3.4,1.1,3.4,4.3c0,3.1-1.6,4.5-3.5,4.5
			c-1.2,0-2.2-0.7-2.5-1.4h0v4.2h-1.4L332.9,310.1L332.9,310.1z M336.7,317.6c1.5,0,2.2-1.2,2.2-3.4c0-1.8-0.5-3.1-2.3-3.1
			c-1.5,0-2.4,1.3-2.4,2.7v0.9C334.3,316.3,335.1,317.6,336.7,317.6z"/>
		<path class="st10" d="M342.8,310.1h1.4v1.6h0c0.4-0.9,1.4-1.8,2.7-1.8h0.1v1.5h-0.3c-1.5,0-2.5,0.9-2.5,2.5v4.6h-1.4L342.8,310.1
			L342.8,310.1z"/>
		<path class="st10" d="M349.2,306.7h1.5v1.5h-1.5V306.7z M349.2,310.1h1.5v8.4h-1.5V310.1z"/>
		<path class="st10" d="M359.2,313.4c0-0.6,0-1.3-0.3-1.7c-0.3-0.4-0.8-0.6-1.3-0.6c-1.6,0-2.3,1-2.3,2.4v5.1h-1.4v-8.4h1.4v1.4h0
			c0.4-0.9,1.4-1.6,2.7-1.6c1.6,0,2.7,0.8,2.7,2.8v5.9h-1.4V313.4z"/>
		<path class="st10" d="M365.5,307.7v2.5h2.1v1.1h-2.1v5c0,0.9,0.4,1.3,1.3,1.3c0.4,0,0.9-0.1,0.9-0.1v1.2c0,0-0.6,0.1-1.3,0.1
			c-1.6,0-2.3-0.8-2.3-2.2v-5.2h-1.5v-1.1h0.3c1.1,0,1.4-0.3,1.4-1.9v-0.6L365.5,307.7L365.5,307.7z"/>
		<path class="st10" d="M370.9,313.3c0-3.3-0.8-5.4-1.8-7.4h1.1c0.9,1.8,2.1,4.1,2.1,7.4c0,3.2-1.2,5.5-2.1,7.4h-1.1
			C370,318.7,370.9,316.5,370.9,313.3z"/>
		<path class="st10" d="M378.9,310.1h1.5l1.8,5.4c0.2,0.7,0.4,1.3,0.4,1.3h0c0,0,0.2-0.6,0.4-1.3l1.9-5.4h1.4l-2.9,8.4h-1.5
			L378.9,310.1z"/>
		<path class="st10" d="M391.3,318.8c-2.6,0-3.8-1.9-3.8-4.4c0-2.5,1.3-4.5,3.8-4.5c2.5,0,3.5,2,3.5,4.1v0.7H389
			c0.1,1.7,0.8,2.9,2.4,2.9c1.4,0,1.8-0.8,1.9-1.3h1.4C394.4,317.8,393.1,318.8,391.3,318.8z M393.3,313.5c0-1.4-0.6-2.5-2.1-2.5
			c-1.3,0-2.1,1.1-2.3,2.6L393.3,313.5L393.3,313.5z"/>
		<path class="st10" d="M397.1,310.1h1.4v1.6h0c0.4-0.9,1.4-1.8,2.7-1.8h0.1v1.5h-0.3c-1.5,0-2.5,0.9-2.5,2.5v4.6h-1.4L397.1,310.1
			L397.1,310.1z"/>
		<path class="st10" d="M407.6,312.2c-0.1-0.8-0.7-1.2-1.7-1.2s-1.6,0.6-1.6,1.4c0,0.7,0.4,1,1.3,1.1l1.3,0.2c1.8,0.3,2.4,1,2.4,2.5
			c0,1.7-1.4,2.6-3.3,2.6c-1.8,0-3.2-0.8-3.3-2.6h1.4c0.1,0.7,0.4,1.5,1.9,1.5c1.1,0,1.9-0.5,1.9-1.4c0-0.7-0.2-1-1.3-1.2l-1.3-0.2
			c-1.5-0.2-2.3-0.9-2.3-2.3c0-1.5,1.1-2.6,3.1-2.6c1.8,0,2.9,0.9,3,2.3L407.6,312.2L407.6,312.2z"/>
		<path class="st10" d="M411.6,306.7h1.5v1.5h-1.5V306.7z M411.7,310.1h1.5v8.4h-1.5V310.1z"/>
		<path class="st10" d="M415.5,314.3c0-2.6,1.4-4.4,3.8-4.4c2.5,0,3.8,1.8,3.8,4.4c0,2.6-1.4,4.4-3.8,4.4
			C416.8,318.8,415.5,317,415.5,314.3z M417,314.3c0,2.1,0.7,3.3,2.3,3.3c1.6,0,2.3-1.3,2.3-3.3c0-2-0.7-3.3-2.3-3.3
			C417.8,311,417,312.3,417,314.3z"/>
		<path class="st10" d="M430.9,313.4c0-0.6,0-1.3-0.3-1.7c-0.3-0.4-0.8-0.6-1.3-0.6c-1.6,0-2.3,1-2.3,2.4v5.1h-1.4v-8.4h1.4v1.4h0
			c0.4-0.9,1.4-1.6,2.7-1.6c1.6,0,2.7,0.8,2.7,2.8v5.9h-1.4V313.4z"/>
		<path class="st10" d="M439.6,312.2c-0.1-0.8-0.7-1.2-1.7-1.2s-1.6,0.6-1.6,1.4c0,0.7,0.4,1,1.3,1.1l1.3,0.2c1.8,0.3,2.4,1,2.4,2.5
			c0,1.7-1.4,2.6-3.3,2.6c-1.8,0-3.2-0.8-3.3-2.6h1.4c0.1,0.7,0.4,1.5,1.9,1.5c1.1,0,1.9-0.5,1.9-1.4c0-0.7-0.2-1-1.3-1.2l-1.3-0.2
			c-1.5-0.2-2.3-0.9-2.3-2.3c0-1.5,1.1-2.6,3.1-2.6c1.8,0,2.9,0.9,3,2.3L439.6,312.2L439.6,312.2z"/>
		<path class="st10" d="M443.1,316.6h2v2h-2V316.6z"/>
	</g>
</g>
</svg>
