<?xml version="1.0" encoding="utf-8"?>
<!-- Generator: Adobe Illustrator 24.1.0, SVG Export Plug-In . SVG Version: 6.00 Build 0)  -->
<svg version="1.1" id="Layer_1" xmlns="http://www.w3.org/2000/svg" xmlns:xlink="http://www.w3.org/1999/xlink" x="0px" y="0px"
	 viewBox="0 0 32 32" style="enable-background:new 0 0 32 32;" xml:space="preserve">
<style type="text/css">
	.st0{fill:#F7941E;}
	.st1{fill:#2C2255;}
</style>
<path class="st0" d="M17.3,31.9c-0.4,0-0.9,0.1-1.3,0.1c-7.4,0-13.6-5-15.4-11.8c-0.1-0.5-0.2-1-0.3-1.6C0.1,18,0.1,17.4,0,16.8
	c0-0.3,0-0.5,0-0.8c0-0.3,0-0.5,0-0.8c0-0.6,0.1-1.2,0.2-1.8c0.1-0.5,0.2-1,0.3-1.6C2.4,5.1,8.6,0.1,16,0.1c0.4,0,0.9,0,1.3,0.1
	C10.5,0.7,4.9,5.5,3.2,11.9c-0.1,0.5-0.2,1-0.3,1.6c-0.1,0.6-0.2,1.2-0.2,1.8c0,0.3,0,0.5,0,0.8c0,0.3,0,0.5,0,0.8
	c0,0.6,0.1,1.2,0.2,1.8c0.1,0.5,0.2,1,0.3,1.6C4.9,26.5,10.5,31.3,17.3,31.9z"/>
<path class="st1" d="M4.3,21h26.9c-2,5.9-7.2,10.1-13.5,10.1c-0.4,0-0.8,0-1.2-0.1C10.8,30.5,6.1,26.5,4.3,21z"/>
<path class="st1" d="M3.5,17H32c0,0.5-0.1,1.1-0.2,1.6c0,0.1,0,0.3-0.1,0.4h-28c0-0.1-0.1-0.3-0.1-0.4C3.6,18.1,3.5,17.5,3.5,17z"/>
<path class="st1" d="M31.2,11H4.3c1.8-5.5,6.6-9.5,12.2-10c0.4,0,0.8-0.1,1.2-0.1C24,0.9,29.2,5.1,31.2,11z"/>
<path class="st1" d="M32,15H3.5c0-0.5,0.1-1.1,0.2-1.6c0-0.1,0-0.3,0.1-0.4h28c0,0.1,0.1,0.3,0.1,0.4C31.9,13.9,31.9,14.5,32,15z"/>
</svg>
