<?xml version="1.0" encoding="utf-8"?>
<!-- Generator: Adobe Illustrator 24.1.0, SVG Export Plug-In . SVG Version: 6.00 Build 0)  -->
<svg version="1.1" id="Layer_1" xmlns="http://www.w3.org/2000/svg" xmlns:xlink="http://www.w3.org/1999/xlink" x="0px" y="0px"
	 viewBox="0 0 32 32" style="enable-background:new 0 0 32 32;" xml:space="preserve">
<style type="text/css">
	.st0{fill:#3177BD;}
</style>
<g>
	<path class="st0" d="M31.6,18.2c0.1-0.7,0.2-1.4,0.2-2.2s0-1.5-0.2-2.2c-0.1-0.6-0.2-1.1-0.3-1.7C29.6,5.2,23.3,0,15.8,0
		S2,5.2,0.2,12.1c4.8-4.2,8.9-5.7,15.5-5c3.4,0.4,6,1.9,7.4,4.5H8.4c0.7-1.2,1.7-2.2,2.9-2.9c-5.4,0.8-9.6,5.4-9.6,11.1
		C1.6,23,3,26,5.2,28c0,0,0,0,0,0c0.5,0.4,0.9,0.8,1.5,1.1c0.1,0.1,0.2,0.1,0.3,0.2C9.5,31,12.5,32,15.8,32c6.5,0,12.1-3.9,14.6-9.5
		h-9c-1.5,1.3-3.5,2.1-5.6,2.1s-4.1-0.8-5.6-2.1c-1.3-1.1-2.3-2.6-2.7-4.3H31.6z"/>
</g>
</svg>
