<?xml version="1.0" encoding="utf-8"?>
<!-- Generator: Adobe Illustrator 24.1.0, SVG Export Plug-In . SVG Version: 6.00 Build 0)  -->
<svg version="1.1" id="Layer_1" xmlns="http://www.w3.org/2000/svg" xmlns:xlink="http://www.w3.org/1999/xlink" x="0px" y="0px"
	 viewBox="0 0 32 32" style="enable-background:new 0 0 32 32;" xml:space="preserve">
<style type="text/css">
	.st0{fill:#EAD38B;}
	.st1{fill:#FFE792;}
	.st2{fill:#39B4E6;}
	.st3{fill:#FBD13F;}
	.st4{fill:#FFFFFF;}
</style>
<path class="st0" d="M28.1,5.5H16l-2.9-2.8h-6C9.7,1.1,12.7,0,16,0C20.8,0,25.2,2.2,28.1,5.5z"/>
<path class="st1" d="M32,16c0,4.3-1.7,8.2-4.4,11c-1.6,1.7-3.6,3-5.9,3.9c-1.8,0.7-3.7,1-5.7,1s-4-0.4-5.7-1.1C8,30.1,6,28.8,4.4,27
	C1.7,24.2,0,20.3,0,16c0-2.7,0.7-5.3,1.9-7.5h10.5l3.6-3h12.1C30.5,8.4,32,12,32,16z"/>
<path class="st2" d="M27.6,20.3V27c-1.6,1.7-3.6,3-5.9,3.9v-8.2H10.3v8.2C8,30.1,6,28.8,4.4,27v-6.8c0-1.8,1.5-3.3,3.3-3.3h16.6
	C26.1,17,27.6,18.5,27.6,20.3z"/>
<path class="st3" d="M13.1,2.7h-6C6.2,3.3,5.4,4,4.6,4.8c-0.5,0.5-0.9,1-1.3,1.5C2.7,7,2.3,7.7,1.9,8.5h10.5l3.6-3L13.1,2.7z
	 M12.6,6.3H5.3V4.8h7.3V6.3z"/>
<rect x="6.8" y="4.8" class="st4" width="5.7" height="1.5"/>
<rect x="5.3" y="4.8" class="st2" width="1.5" height="1.5"/>
</svg>
