<?xml version="1.0" encoding="utf-8"?>
<!-- Generator: Adobe Illustrator 24.1.0, SVG Export Plug-In . SVG Version: 6.00 Build 0)  -->
<svg version="1.1" id="Layer_1" xmlns="http://www.w3.org/2000/svg" xmlns:xlink="http://www.w3.org/1999/xlink" x="0px" y="0px"
	 viewBox="0 0 760 523" style="enable-background:new 0 0 760 523;" xml:space="preserve">
<style type="text/css">
	.st0{fill:url(#SVGID_1_);}
	.st1{fill:#006837;}
	.st2{fill:#22B573;}
	.st3{fill:#333333;}
	.st4{fill:#6C63FF;}
	.st5{opacity:0.1;enable-background:new    ;}
	.st6{fill:#8C6239;}
	.st7{fill:#3FA9F5;}
	.st8{fill:#534741;}
	.st9{fill:#FDA57D;}
	.st10{fill:#443D3A;}
	.st11{fill:#38312F;}
	.st12{fill:#535461;}
	.st13{fill:#FFFFFF;}
	.st14{fill:#EEEEEE;}
	.st15{fill:#A56A53;}
</style>
<g>
	<linearGradient id="SVGID_1_" gradientUnits="userSpaceOnUse" x1="213.8474" y1="331.4448" x2="637.4339" y2="184.4862">
		<stop  offset="0" style="stop-color:#9E1F63"/>
		<stop  offset="1" style="stop-color:#EF4136"/>
	</linearGradient>
	<path class="st0" d="M444.02,87.81l120,27.97c86.31,20.12,118.47,126.12,57.9,190.81l-84.22,89.94l-84.22,89.94
		c-60.57,64.69-168.46,39.54-194.19-45.26L223.5,323.3l-35.78-117.91c-25.73-84.8,49.99-165.66,136.29-145.55L444.02,87.81z"/>
	<g>
		<path class="st1" d="M177.58,385.69c-5.46,20.81-24.61,33.81-24.61,33.81s-10.29-20.73-4.82-41.54
			c5.46-20.81,24.61-33.81,24.61-33.81S183.05,364.88,177.58,385.69z"/>
		<path class="st2" d="M169.29,381.29c-15.3,15.12-17.02,38.2-17.02,38.2s23.1-1.43,38.41-16.55c15.3-15.12,17.02-38.2,17.02-38.2
			S184.6,366.17,169.29,381.29z"/>
		<path class="st3" d="M128.62,413.41h59.87c6.57,0,11.89,5.32,11.89,11.89v11.81c0,6.57-5.32,11.89-11.89,11.89h-59.87
			c-6.57,0-11.89-5.32-11.89-11.89V425.3C116.73,418.73,122.05,413.41,128.62,413.41z"/>
		<path class="st4" d="M628.23,392.68c-8.41,0-15.22,6.82-15.22,15.22c0,8.41,6.82,15.22,15.22,15.22c8.41,0,15.22-6.82,15.22-15.22
			S636.64,392.68,628.23,392.68z M628.23,417.27c-5.17,0-9.37-4.19-9.37-9.37s4.19-9.37,9.37-9.37s9.37,4.19,9.37,9.37l0,0
			C637.6,413.08,633.4,417.27,628.23,417.27z"/>
		<path class="st5" d="M628.23,392.68c-8.41,0-15.22,6.82-15.22,15.22c0,8.41,6.82,15.22,15.22,15.22c8.41,0,15.22-6.82,15.22-15.22
			S636.64,392.68,628.23,392.68z M628.23,417.27c-5.17,0-9.37-4.19-9.37-9.37s4.19-9.37,9.37-9.37s9.37,4.19,9.37,9.37l0,0
			C637.6,413.08,633.4,417.27,628.23,417.27z"/>
		<path class="st4" d="M569.68,380.97h58.55l0,0v57.95c0,4.21-3.42,7.63-7.63,7.63l0,0h-43.3c-4.21,0-7.63-3.42-7.63-7.63l0,0
			V380.97L569.68,380.97z"/>
		<rect x="0.12" y="446.55" class="st6" width="760" height="25.76"/>
		<path class="st7" d="M390.77,387.97c38.25,0,100.78-11.4,130.49-30.99c-3.22-17.59-10.62-46.05-17.64-71.53
			c-8.94-32.44-65.35-54.93-99-54.93h-32.43c-33.75,0-90.25,22.62-99.07,55.2c-6.73,24.83-13.9,52.1-17.48,68.1
			C286.26,375.34,350.51,387.97,390.77,387.97z"/>
		<circle class="st8" cx="388.79" cy="121.8" r="90.94"/>
		<path class="st5" d="M359.44,184.24h58.27l0,0v46.61c0,16.09-13.04,29.13-29.13,29.13h0c-16.09,0-29.13-13.04-29.13-29.13
			L359.44,184.24L359.44,184.24z"/>
		<path class="st9" d="M367.8,186.34h41.55c4.62,0,8.36,3.53,8.36,7.89v36.1c0,15.18-13.04,27.49-29.13,27.49h0
			c-16.09,0-29.13-12.31-29.13-27.49v-36.1C359.44,189.87,363.19,186.34,367.8,186.34z"/>
		<path class="st5" d="M359.55,220.78c18.78,8.26,39.45,8.33,58.27,0.19v-8.43h-58.27V220.78z"/>
		<circle class="st9" cx="388.79" cy="139.92" r="83.52"/>
		<path class="st5" d="M329.3,63.96c0,0,35.2,71.45,134.49,29.94l-23.11-36.25L399.7,42.94L329.3,63.96z"/>
		<path class="st10" d="M329.3,62.91c0,0,35.2,71.45,134.49,29.94L440.67,56.6L399.7,41.89L329.3,62.91z"/>
		<path class="st11" d="M328.99,58.08c2.37-7.35,6.47-14.02,11.96-19.45c16.43-16.24,43.36-19.67,57.17-38.18
			c3.32,5.14,0.75,13.04-4.95,15.25c13.22-0.09,28.57-1.24,36.05-12.14c3.78,8.79,2.15,18.97-4.17,26.14
			c11.73,0.53,24.25,8.49,25.01,20.21c0.51,7.81-4.39,15.2-10.81,19.68c-6.42,4.48-14.18,6.53-21.82,8.22
			C395.13,82.71,314.44,103.32,328.99,58.08z"/>
		<ellipse class="st9" cx="305.24" cy="139.84" rx="7.77" ry="14.57"/>
		<ellipse class="st9" cx="472.3" cy="139.84" rx="7.77" ry="14.57"/>
		<path class="st12" d="M253.19,263.87H522.7c11.59,0,20.99,9.4,20.99,20.99v140.69c0,11.59-9.4,20.99-20.99,20.99H253.19
			c-11.59,0-20.99-9.4-20.99-20.99V284.86C232.2,273.27,241.6,263.87,253.19,263.87z"/>
		<circle class="st13" cx="387.94" cy="355.21" r="10.54"/>
		<rect x="32.32" y="472.31" class="st8" width="695.59" height="10.54"/>
		<rect x="32.32" y="472.31" class="st5" width="695.59" height="3.51"/>
		<path class="st5" d="M617.69,380.97v54.16c0,6.31-5.11,11.42-11.42,11.42h5.86c6.31,0,11.42-5.11,11.42-11.42v-54.16H617.69z"/>
		<path class="st14" d="M581.23,337.32c-0.99,0.17-2.1,0.44-2.59,1.31c-0.77,1.39,0.62,2.96,1.89,3.92c2.35,1.77,4.82,3.5,6.41,5.97
			s2.1,5.91,0.35,8.27c-2.28,3.09-7.71,3.75-8.23,7.55c-0.34,2.44,1.77,4.52,3.91,5.74c5.27,3.02,12.07,3.83,15.89,8.55
			c1.58-3.25,5.12-5.13,8.64-5.93c3.52-0.8,7.18-0.74,10.76-1.29c1.15-0.18,2.45-0.53,2.97-1.57c1-2.03-1.85-4.46-0.87-6.49
			c0.75-1.55,2.94-1.43,4.55-2.05c2.61-1.01,3.69-4.37,2.95-7.07c-0.74-2.7-2.83-4.81-5.04-6.54c-5.93-4.66-13.07-7.4-20.28-9.38
			c-3.36-0.92-7.3-2.36-10.78-2.49C588.4,335.7,584.56,336.75,581.23,337.32z"/>
		<g>
			<path class="st15" d="M364.28,186.34c4.05,0.51,8.03,0.96,12.01,1.32c2,0.13,3.98,0.34,5.97,0.41c0.99,0.07,1.98,0.11,2.98,0.14
				c0.99,0.04,1.98,0.09,2.98,0.07c3.97,0.1,7.93-0.06,11.89-0.35c3.98-0.27,7.89-0.96,11.93-1.59c-0.91,0.45-1.84,0.87-2.78,1.28
				c-0.47,0.21-0.94,0.41-1.42,0.6l-1.46,0.49c-0.98,0.3-1.96,0.63-2.95,0.89c-1,0.24-2,0.44-3.01,0.66
				c-4.04,0.74-8.16,1.15-12.26,1.03c-1.03,0-2.05-0.08-3.07-0.14c-1.02-0.07-2.05-0.1-3.06-0.25c-2.03-0.24-4.06-0.52-6.07-0.93
				C371.96,189.17,368,188.05,364.28,186.34z"/>
		</g>
		<circle class="st8" cx="352.96" cy="140.18" r="5.87"/>
		<circle class="st8" cx="423.76" cy="139.79" r="5.87"/>
	</g>
</g>
</svg>
