<?xml version="1.0" encoding="utf-8"?>
<!-- Generator: Adobe Illustrator 24.1.0, SVG Export Plug-In . SVG Version: 6.00 Build 0)  -->
<svg version="1.1" id="Layer_1" xmlns="http://www.w3.org/2000/svg" xmlns:xlink="http://www.w3.org/1999/xlink" x="0px" y="0px"
	 viewBox="0 0 368 201" style="enable-background:new 0 0 368 201;" xml:space="preserve">
<style type="text/css">
	.st0{fill:#333333;}
	.st1{fill:url(#SVGID_1_);}
	.st2{fill:url(#SVGID_2_);}
</style>
<g>
	<path class="st0" d="M28.86,171.26h-1.08v-17.61H1.54v17.61H0.46v-33.85h1.08v15.16h26.24v-15.16h1.08V171.26z"/>
	<path class="st0" d="M71.65,154.34c0,12.9-4.17,17.51-16.09,17.51c-11.97,0-16.14-4.61-16.14-17.51c0-12.9,4.17-17.51,16.14-17.51
		C67.47,136.82,71.65,141.44,71.65,154.34z M40.54,154.34c0,12.17,3.88,16.38,15.01,16.38c11.09,0,14.96-4.22,14.96-16.38
		c0-12.17-3.87-16.38-14.96-16.38C44.42,137.95,40.54,142.17,40.54,154.34z"/>
	<path class="st0" d="M108.94,171.26l-4.81-10.69c-1.52-3.29-3.92-4.51-7.41-4.51c-6.62,0-11.68-0.1-13.49-0.19v15.4h-1.08v-33.85
		c4.41-0.34,7.46-0.39,13.98-0.39c9.17,0,12.46,2.01,12.46,9.52c0,6.13-2.5,8.39-8.09,9.03v0.2c2.26,0.54,3.78,2.4,4.76,4.66
		l4.95,10.84H108.94z M96.13,154.93c8.29-0.1,11.33-1.81,11.33-8.39c0-6.67-3.04-8.39-11.33-8.39c-6.13,0-11.04,0.05-12.9,0.15
		v16.63H96.13z"/>
	<path class="st0" d="M119.74,171.26v-33.85h1.08v33.85H119.74z"/>
	<path class="st0" d="M158.79,171.26h-28.89v-1.13l27.08-31.59h-26.88v-1.13h28.4v1.13l-27.13,31.59h27.42V171.26z"/>
	<path class="st0" d="M199.56,154.34c0,13.29-4.46,17.56-17.12,17.56c-12.61,0-17.07-4.27-17.07-17.56
		c0-13.29,4.46-17.56,17.07-17.56C195.1,136.77,199.56,141.04,199.56,154.34z M170.57,154.34c0,10.01,2.94,13.2,11.87,13.2
		c8.93,0,11.87-3.19,11.87-13.2c0-10.01-2.94-13.2-11.87-13.2C173.51,141.14,170.57,144.33,170.57,154.34z"/>
	<path class="st0" d="M241.41,169.35c0,1.27-0.69,1.91-1.96,1.91h-5.05c-1.13,0-1.77-0.49-2.26-1.52l-15.5-23.06
		c-0.83-1.23-1.96-3.29-2.55-4.71h-1.08c0.15,1.57,0.2,3.19,0.2,4.71v24.58h-4.96v-31.94c0-1.27,0.69-1.91,2.01-1.91h4.86
		c1.18,0,1.81,0.49,2.3,1.52l15.11,22.47c0.93,1.37,2.01,3.34,2.94,5.05h1.18c-0.05-1.77-0.15-3.48-0.15-5.25v-23.79h4.91V169.35z"
		/>
	<path class="st0" d="M256.43,164c0,2.31,1.42,3.14,4.37,3.14h16.04l0.2,3.78c-5.59,0.39-11.38,0.44-17.07,0.44
		c-6.03,0-8.49-2.84-8.49-6.67v-27.27h4.95V164z"/>
	<path class="st0" d="M283.42,171.26v-33.85h4.95v33.85H283.42z"/>
	<path class="st0" d="M331.74,169.35c0,1.27-0.69,1.91-1.96,1.91h-5.05c-1.13,0-1.77-0.49-2.26-1.52l-15.5-23.06
		c-0.83-1.23-1.96-3.29-2.55-4.71h-1.08c0.15,1.57,0.2,3.19,0.2,4.71v24.58h-4.95v-31.94c0-1.27,0.69-1.91,2.01-1.91h4.86
		c1.18,0,1.81,0.49,2.3,1.52l15.11,22.47c0.93,1.37,2.01,3.34,2.94,5.05h1.18c-0.05-1.77-0.15-3.48-0.15-5.25v-23.79h4.9V169.35z"/>
	<path class="st0" d="M368.44,170.97c-5.89,0.39-12.46,0.39-18.69,0.39c-4.95,0-8.09-2.35-8.14-6.08V143.4
		c0.05-3.73,3.24-6.08,8.14-6.08c6.23,0,12.8,0,18.69,0.39l-0.2,3.83h-17.66c-2.65,0-3.97,0.83-3.97,3.14v6.77h19.13v3.97h-19.13
		v8.63c0,2.3,1.32,3.14,3.97,3.14h17.66L368.44,170.97z"/>
</g>
<g>
	<path class="st0" d="M277.91,71.13c-1.26,12.44-6.48,23.24-15.67,32.42c-10.67,10.67-23.53,15.99-38.6,15.99
		c-15.07,0-27.92-5.32-38.58-15.99c-10.53-10.53-15.87-23.22-15.99-38.05L183,65.35c0.09,11.07,4.06,20.55,11.93,28.41
		c7.95,7.95,17.52,11.93,28.72,11.93c11.25,0,20.84-3.98,28.77-11.93c6.83-6.84,10.72-14.91,11.65-24.2L277.91,71.13z"/>
	<linearGradient id="SVGID_1_" gradientUnits="userSpaceOnUse" x1="223.9932" y1="49.5468" x2="227.4061" y2="0.6291">
		<stop  offset="0" style="stop-color:#F69125"/>
		<stop  offset="1" style="stop-color:#F6EB0F"/>
	</linearGradient>
	<path class="st1" d="M278.24,54.72c0,0.73-0.02,1.47-0.05,2.18l-13.87-2.12v-0.07c0-11.25-3.96-20.84-11.89-28.75
		c-7.93-7.93-17.53-11.91-28.77-11.91c-11.25,0-20.82,3.98-28.75,11.91c-6.59,6.57-10.44,14.3-11.55,23.17l-14.04,0.27
		c1.11-12.8,6.38-23.91,15.77-33.29c10.67-10.67,23.51-15.99,38.58-15.99c15.07,0,27.93,5.32,38.6,15.99
		C272.91,26.78,278.24,39.65,278.24,54.72z"/>
	<path class="st0" d="M336.32,75.19c-6.31-1.08-12.59-2.22-18.86-3.41l-18.91-2.99l-18.94-2.59l-1.71-0.19l-13.84-1.57l-3.43-0.39
		c-0.63-0.05-1.28-0.1-1.91-0.17c-5.72-0.48-11.4-0.97-17.1-1.52l-19.04-1.19l-19.06-0.75l-15.49-0.17l-3.58-0.03L183,60.23
		l-13.92,0.15l-3.7,0.03l-19.06,0.75l-19.04,1.19l-19.01,1.67l-18.98,2.15L70.34,68.8l-18.91,2.97c-6.26,1.21-12.54,2.34-18.86,3.43
		c6.16-1.71,12.34-3.38,18.53-4.97l18.72-4.3l18.87-3.58l19.01-2.92c6.36-0.78,12.73-1.55,19.09-2.27l19.18-1.62l19.21-0.94
		l4.1-0.07l14.04-0.27l1.11-0.02l3.99,0.07l15.26,0.27l19.21,0.96l19.18,1.62c5.61,0.63,11.25,1.3,16.86,2
		c0.75,0.09,1.48,0.17,2.24,0.27l3.12,0.48l13.87,2.12l2.01,0.31l18.87,3.58l18.72,4.32C323.99,71.82,330.16,73.49,336.32,75.19z"/>
	<g>
		<path class="st0" d="M168.55,1.54c-12.12,2.78-19.64,9.15-19.66,29.28l-0.12,71.43l8.62-0.43l0.12-71
			c0.02-15.9,3.86-23.99,11.71-28.09L168.55,1.54z"/>
	</g>
	<g>
		<path class="st0" d="M90.28,117.5c12.12-2.78,19.64-9.15,19.66-29.28l0.12-71.43l-8.62,0.43l-0.12,71
			c-0.02,15.9-3.86,23.99-11.71,28.09L90.28,117.5z"/>
	</g>
	<linearGradient id="SVGID_2_" gradientUnits="userSpaceOnUse" x1="223.6962" y1="51.648" x2="225.9514" y2="19.3244">
		<stop  offset="0" style="stop-color:#F69125"/>
		<stop  offset="1" style="stop-color:#F6EB0F"/>
	</linearGradient>
	<path class="st2" d="M258.95,54.03c-5.61-0.7-11.25-1.37-16.86-2l-19.18-1.62l-19.21-0.96l-15.26-0.27
		c2.66-16.96,17.34-29.95,35.05-29.95C242.86,19.24,258.6,34.75,258.95,54.03z"/>
</g>
<g>
	<path class="st0" d="M4.91,197.8c-0.68,0-1.29-0.09-1.8-0.28s-0.94-0.44-1.27-0.76s-0.6-0.72-0.81-1.19s-0.35-0.98-0.43-1.5
		c-0.08-0.53-0.12-1.11-0.12-1.76v-5.84c0-0.7,0.04-1.32,0.12-1.86c0.08-0.55,0.23-1.05,0.43-1.53c0.21-0.47,0.48-0.86,0.81-1.17
		c0.33-0.31,0.76-0.55,1.27-0.72s1.12-0.26,1.8-0.26c1.49,0,2.56,0.4,3.2,1.21s0.97,1.99,0.97,3.55V187H6.89v-1.17
		c0-0.25,0-0.45,0-0.59c0-0.14-0.01-0.32-0.02-0.53s-0.03-0.38-0.05-0.5c-0.03-0.12-0.06-0.26-0.1-0.42
		c-0.04-0.16-0.1-0.28-0.16-0.37c-0.07-0.09-0.15-0.19-0.25-0.29c-0.1-0.1-0.21-0.18-0.34-0.23s-0.28-0.09-0.45-0.12
		c-0.17-0.03-0.37-0.05-0.58-0.05c-0.32,0-0.6,0.03-0.84,0.1c-0.24,0.07-0.44,0.18-0.59,0.33c-0.15,0.15-0.28,0.31-0.37,0.49
		c-0.1,0.18-0.17,0.41-0.21,0.69s-0.08,0.56-0.09,0.82c-0.02,0.26-0.02,0.59-0.02,0.97v6.54c0,1.24,0.16,2.11,0.47,2.59
		S4.13,196,4.93,196c0.31,0,0.57-0.03,0.79-0.1s0.41-0.18,0.55-0.33c0.14-0.15,0.26-0.31,0.34-0.48c0.09-0.17,0.15-0.39,0.19-0.67
		c0.04-0.28,0.06-0.54,0.07-0.78c0.01-0.24,0.01-0.55,0.01-0.94v-1.22h2.18v1.23c0,0.63-0.04,1.2-0.12,1.7
		c-0.08,0.5-0.22,0.97-0.41,1.4c-0.19,0.44-0.45,0.8-0.76,1.08s-0.71,0.51-1.2,0.67S5.55,197.8,4.91,197.8z"/>
	<path class="st0" d="M22.65,197.8c-0.82,0-1.53-0.12-2.12-0.37c-0.59-0.25-1.06-0.61-1.4-1.09c-0.35-0.48-0.6-1.04-0.76-1.68
		s-0.24-1.38-0.24-2.23v-6.26c0-1.72,0.35-3.03,1.05-3.91s1.86-1.33,3.47-1.33c1.6,0,2.76,0.45,3.46,1.34
		c0.7,0.89,1.06,2.2,1.06,3.9v6.27c0,1.72-0.35,3.04-1.06,3.97C25.39,197.34,24.24,197.8,22.65,197.8z M21.52,195.79
		c0.3,0.14,0.67,0.21,1.12,0.21s0.83-0.07,1.12-0.21c0.3-0.14,0.52-0.35,0.67-0.64s0.26-0.6,0.31-0.94
		c0.06-0.34,0.08-0.77,0.08-1.27v-7.24c0-0.5-0.03-0.91-0.08-1.25c-0.06-0.33-0.16-0.64-0.31-0.92c-0.15-0.28-0.38-0.48-0.67-0.61
		c-0.3-0.13-0.67-0.19-1.12-0.19s-0.83,0.06-1.12,0.19s-0.52,0.33-0.67,0.61c-0.15,0.28-0.26,0.58-0.31,0.92
		c-0.06,0.33-0.08,0.75-0.08,1.25v7.24c0,0.51,0.03,0.93,0.08,1.27c0.06,0.34,0.16,0.66,0.31,0.94
		C21,195.43,21.23,195.65,21.52,195.79z"/>
	<path class="st0" d="M36.59,197.62v-16.53h1.57l4.7,10.98v-10.98h1.92v16.53H43.3l-4.77-11.3v11.3H36.59z"/>
	<path class="st0" d="M62.11,200.96c-0.86-0.43-1.85-1.49-2.98-3.17c-0.04,0-0.1,0-0.19,0c-0.09,0-0.15,0-0.2,0
		c-1.61,0-2.77-0.46-3.47-1.38s-1.06-2.25-1.06-3.98v-6.26c0-1.72,0.35-3.02,1.06-3.91c0.7-0.89,1.86-1.34,3.47-1.34
		c1.6,0,2.76,0.45,3.47,1.34c0.71,0.89,1.06,2.2,1.06,3.9v6.27c0,2.64-0.81,4.3-2.42,4.98c0.68,0.88,1.23,1.45,1.63,1.73
		L62.11,200.96z M57.62,195.79c0.3,0.14,0.67,0.21,1.12,0.21s0.83-0.07,1.12-0.21s0.52-0.35,0.68-0.64s0.26-0.6,0.32-0.95
		c0.06-0.35,0.08-0.77,0.08-1.27v-7.24c0-0.5-0.03-0.92-0.08-1.25c-0.06-0.34-0.16-0.64-0.32-0.92c-0.16-0.28-0.38-0.48-0.68-0.61
		s-0.67-0.19-1.12-0.19s-0.83,0.06-1.12,0.19s-0.52,0.33-0.68,0.61c-0.16,0.28-0.26,0.58-0.32,0.92s-0.08,0.75-0.08,1.25v7.24
		c0,0.5,0.03,0.92,0.08,1.27s0.16,0.66,0.32,0.95S57.32,195.65,57.62,195.79z"/>
	<path class="st0" d="M78.8,197.53c-0.52,0.18-1.13,0.27-1.83,0.27s-1.32-0.09-1.84-0.27s-0.95-0.43-1.27-0.75
		c-0.33-0.32-0.59-0.72-0.78-1.22c-0.2-0.5-0.33-1.02-0.4-1.58c-0.07-0.56-0.11-1.2-0.11-1.94v-10.96h2.19v11.07
		c0,0.47,0.01,0.88,0.04,1.23s0.09,0.69,0.18,1.04c0.09,0.35,0.22,0.63,0.37,0.84c0.16,0.21,0.37,0.39,0.64,0.52s0.6,0.2,0.98,0.2
		s0.7-0.07,0.97-0.2c0.27-0.14,0.48-0.31,0.64-0.53c0.16-0.22,0.28-0.5,0.37-0.84c0.09-0.35,0.15-0.69,0.18-1.04
		c0.03-0.35,0.04-0.75,0.04-1.23v-11.07h2.19v10.96c0,0.74-0.04,1.38-0.11,1.94c-0.07,0.56-0.21,1.08-0.4,1.58
		c-0.2,0.5-0.46,0.9-0.78,1.22C79.74,197.09,79.32,197.34,78.8,197.53z"/>
	<path class="st0" d="M90.95,197.62v-16.53h6.4v1.71h-4.1v5.46h3.33v1.65h-3.33v6.06h4.15v1.66H90.95z"/>
	<path class="st0" d="M106.42,197.62v-16.53h3.32c1.68,0,2.9,0.34,3.68,1.03c0.78,0.68,1.17,1.8,1.17,3.35
		c0,2.13-0.68,3.41-2.04,3.86l2.36,8.3h-2.23l-2.17-7.76h-1.78v7.76H106.42z M108.72,188.21h0.87c1,0,1.72-0.2,2.15-0.59
		c0.43-0.4,0.64-1.11,0.64-2.15c0-1-0.18-1.71-0.55-2.11c-0.37-0.41-1.07-0.61-2.09-0.61h-1.02V188.21z"/>
	<path class="st0" d="M135.98,197.62v-16.53h1.57l4.7,10.98v-10.98h1.92v16.53h-1.48l-4.77-11.3v11.3H135.98z"/>
	<path class="st0" d="M153.91,197.62v-16.53h6.4v1.71h-4.1v5.46h3.33v1.65h-3.33v6.06h4.15v1.66H153.91z"/>
	<path class="st0" d="M171.5,197.62l-2.7-16.53h1.93l1.76,11.89l2.23-11.84h1.64l2.24,11.89l1.73-11.94h1.88l-2.65,16.53h-1.68
		l-2.3-12.25l-2.33,12.25H171.5z"/>
	<path class="st0" d="M204.92,197.62v-14.83h-3.02v-1.71h8.24v1.71h-2.91v14.83H204.92z"/>
	<path class="st0" d="M218.54,197.62v-16.53h6.4v1.71h-4.1v5.46h3.33v1.65h-3.33v6.06H225v1.66H218.54z"/>
	<path class="st0" d="M234.01,197.62v-16.53h3.32c1.68,0,2.9,0.34,3.68,1.03s1.17,1.8,1.17,3.35c0,2.13-0.68,3.41-2.04,3.86
		l2.36,8.3h-2.23l-2.17-7.76h-1.78v7.76H234.01z M236.31,188.21h0.87c1,0,1.72-0.2,2.15-0.59c0.43-0.4,0.64-1.11,0.64-2.15
		c0-1-0.18-1.71-0.55-2.11c-0.37-0.41-1.07-0.61-2.09-0.61h-1.02V188.21z"/>
	<path class="st0" d="M251.76,197.62v-16.53h3.32c1.68,0,2.9,0.34,3.68,1.03c0.78,0.68,1.17,1.8,1.17,3.35
		c0,2.13-0.68,3.41-2.04,3.86l2.36,8.3h-2.23l-2.17-7.76h-1.78v7.76H251.76z M254.06,188.21h0.87c1,0,1.72-0.2,2.15-0.59
		c0.43-0.4,0.64-1.11,0.64-2.15c0-1-0.18-1.71-0.55-2.11c-0.37-0.41-1.07-0.61-2.09-0.61h-1.02V188.21z"/>
	<path class="st0" d="M269.61,197.62v-16.53h2.26v16.53H269.61z"/>
	<path class="st0" d="M283.4,197.62v-14.83h-3.02v-1.71h8.24v1.71h-2.91v14.83H283.4z"/>
	<path class="st0" d="M301.24,197.8c-0.82,0-1.53-0.12-2.12-0.37c-0.59-0.25-1.06-0.61-1.4-1.09c-0.35-0.48-0.6-1.04-0.76-1.68
		s-0.24-1.38-0.24-2.23v-6.26c0-1.72,0.35-3.03,1.05-3.91c0.7-0.89,1.86-1.33,3.47-1.33c1.6,0,2.76,0.45,3.46,1.34
		c0.7,0.89,1.06,2.2,1.06,3.9v6.27c0,1.72-0.35,3.04-1.06,3.97C303.99,197.34,302.84,197.8,301.24,197.8z M300.12,195.79
		c0.3,0.14,0.67,0.21,1.12,0.21s0.83-0.07,1.12-0.21c0.3-0.14,0.52-0.35,0.67-0.64c0.15-0.29,0.26-0.6,0.31-0.94
		c0.06-0.34,0.08-0.77,0.08-1.27v-7.24c0-0.5-0.03-0.91-0.08-1.25c-0.06-0.33-0.16-0.64-0.31-0.92c-0.15-0.28-0.38-0.48-0.67-0.61
		c-0.3-0.13-0.67-0.19-1.12-0.19s-0.83,0.06-1.12,0.19c-0.3,0.13-0.52,0.33-0.67,0.61c-0.15,0.28-0.26,0.58-0.31,0.92
		c-0.06,0.33-0.08,0.75-0.08,1.25v7.24c0,0.51,0.03,0.93,0.08,1.27s0.16,0.66,0.31,0.94C299.6,195.43,299.82,195.65,300.12,195.79z"
		/>
	<path class="st0" d="M315.19,197.62v-16.53h3.32c1.68,0,2.9,0.34,3.68,1.03c0.78,0.68,1.17,1.8,1.17,3.35
		c0,2.13-0.68,3.41-2.04,3.86l2.36,8.3h-2.23l-2.17-7.76h-1.78v7.76H315.19z M317.49,188.21h0.87c1,0,1.72-0.2,2.15-0.59
		c0.43-0.4,0.64-1.11,0.64-2.15c0-1-0.18-1.71-0.55-2.11c-0.37-0.41-1.07-0.61-2.09-0.61h-1.02V188.21z"/>
	<path class="st0" d="M333.05,197.62v-16.53h2.26v16.53H333.05z"/>
	<path class="st0" d="M345.14,197.62v-16.53h6.4v1.71h-4.1v5.46h3.33v1.65h-3.33v6.06h4.15v1.66H345.14z"/>
	<path class="st0" d="M364.49,197.8c-1.39,0-2.45-0.43-3.18-1.29c-0.73-0.86-1.14-2.03-1.22-3.52l2.05-0.56
		c0.15,2.37,0.93,3.55,2.34,3.55c0.59,0,1.04-0.16,1.35-0.49s0.46-0.81,0.46-1.45c0-0.35-0.04-0.67-0.12-0.97
		c-0.08-0.29-0.22-0.57-0.41-0.84c-0.19-0.27-0.37-0.49-0.54-0.66s-0.41-0.41-0.72-0.7l-2.77-2.46c-0.56-0.51-0.97-1.04-1.22-1.6
		c-0.26-0.56-0.38-1.25-0.38-2.06c0-1.2,0.35-2.13,1.04-2.8s1.64-1.01,2.85-1.02c1.32-0.02,2.31,0.32,2.97,1.02
		c0.66,0.7,1.05,1.79,1.19,3.26l-1.94,0.54c-0.03-0.36-0.06-0.68-0.11-0.96s-0.12-0.56-0.23-0.84s-0.24-0.51-0.39-0.69
		c-0.15-0.18-0.36-0.32-0.61-0.42c-0.25-0.1-0.55-0.14-0.88-0.12c-1.22,0.09-1.82,0.69-1.82,1.81c0,0.49,0.08,0.89,0.25,1.22
		c0.17,0.33,0.45,0.67,0.84,1.03l2.79,2.46c0.72,0.65,1.3,1.35,1.73,2.09s0.64,1.59,0.64,2.53c0,1.21-0.37,2.17-1.1,2.88
		S365.67,197.8,364.49,197.8z"/>
</g>
</svg>
