<?xml version="1.0" encoding="utf-8"?>
<!-- Generator: Adobe Illustrator 24.1.0, SVG Export Plug-In . SVG Version: 6.00 Build 0)  -->
<svg version="1.1" xmlns="http://www.w3.org/2000/svg" xmlns:xlink="http://www.w3.org/1999/xlink" x="0px" y="0px"
	 viewBox="0 0 368 200.7" style="enable-background:new 0 0 368 200.7;" xml:space="preserve">
<style type="text/css">
	.st0{fill:#333333;}
	.st1{fill:url(#SVGID_1_);}
	.st2{fill:url(#SVGID_2_);}
	.st3{display:none;}
	.st4{display:inline;}
	.st5{clip-path:url(#SVGID_4_);}
	.st6{clip-path:url(#SVGID_6_);fill:#565656;}
	.st7{display:inline;opacity:0.5;fill:#CCCCCC;}
	.st8{clip-path:url(#SVGID_8_);}
	.st9{clip-path:url(#SVGID_10_);fill:#565656;}
	.st10{fill:#555655;}
	.st11{fill:#999999;}
	.st12{fill:#989898;}
</style>
<g id="Your_design">
	<g>
		<path class="st0" d="M28.4,171.1h-1.1v-17.6H1.1v17.6H0v-33.8h1.1v15.2h26.2v-15.2h1.1V171.1z"/>
		<path class="st0" d="M71.2,154.2c0,12.9-4.2,17.5-16.1,17.5c-12,0-16.1-4.6-16.1-17.5c0-12.9,4.2-17.5,16.1-17.5
			C67,136.7,71.2,141.3,71.2,154.2z M40.1,154.2c0,12.2,3.9,16.4,15,16.4c11.1,0,15-4.2,15-16.4c0-12.2-3.9-16.4-15-16.4
			C44,137.8,40.1,142,40.1,154.2z"/>
		<path class="st0" d="M108.5,171.1l-4.8-10.7c-1.5-3.3-3.9-4.5-7.4-4.5c-6.6,0-11.7-0.1-13.5-0.2v15.4h-1.1v-33.8
			c4.4-0.3,7.5-0.4,14-0.4c9.2,0,12.5,2,12.5,9.5c0,6.1-2.5,8.4-8.1,9v0.2c2.3,0.5,3.8,2.4,4.8,4.7l5,10.8H108.5z M95.7,154.8
			c8.3-0.1,11.3-1.8,11.3-8.4c0-6.7-3-8.4-11.3-8.4c-6.1,0-11,0-12.9,0.1v16.6H95.7z"/>
		<path class="st0" d="M119.3,171.1v-33.8h1.1v33.8H119.3z"/>
		<path class="st0" d="M158.3,171.1h-28.9V170l27.1-31.6h-26.9v-1.1H158v1.1L130.9,170h27.4V171.1z"/>
		<path class="st0" d="M199.1,154.2c0,13.3-4.5,17.6-17.1,17.6c-12.6,0-17.1-4.3-17.1-17.6c0-13.3,4.5-17.6,17.1-17.6
			C194.6,136.6,199.1,140.9,199.1,154.2z M170.1,154.2c0,10,2.9,13.2,11.9,13.2s11.9-3.2,11.9-13.2c0-10-2.9-13.2-11.9-13.2
			S170.1,144.2,170.1,154.2z"/>
		<path class="st0" d="M241,169.2c0,1.3-0.7,1.9-2,1.9h-5.1c-1.1,0-1.8-0.5-2.3-1.5l-15.5-23.1c-0.8-1.2-2-3.3-2.5-4.7h-1.1
			c0.1,1.6,0.2,3.2,0.2,4.7v24.6h-5v-31.9c0-1.3,0.7-1.9,2-1.9h4.9c1.2,0,1.8,0.5,2.3,1.5l15.1,22.5c0.9,1.4,2,3.3,2.9,5.1h1.2
			c0-1.8-0.1-3.5-0.1-5.2v-23.8h4.9V169.2z"/>
		<path class="st0" d="M256,163.9c0,2.3,1.4,3.1,4.4,3.1h16l0.2,3.8c-5.6,0.4-11.4,0.4-17.1,0.4c-6,0-8.5-2.8-8.5-6.7v-27.3h5V163.9
			z"/>
		<path class="st0" d="M283,171.1v-33.8h5v33.8H283z"/>
		<path class="st0" d="M331.3,169.2c0,1.3-0.7,1.9-2,1.9h-5.1c-1.1,0-1.8-0.5-2.3-1.5l-15.5-23.1c-0.8-1.2-2-3.3-2.5-4.7h-1.1
			c0.1,1.6,0.2,3.2,0.2,4.7v24.6h-5v-31.9c0-1.3,0.7-1.9,2-1.9h4.9c1.2,0,1.8,0.5,2.3,1.5l15.1,22.5c0.9,1.4,2,3.3,2.9,5.1h1.2
			c0-1.8-0.1-3.5-0.1-5.2v-23.8h4.9V169.2z"/>
		<path class="st0" d="M368,170.8c-5.9,0.4-12.5,0.4-18.7,0.4c-5,0-8.1-2.4-8.1-6.1v-21.9c0-3.7,3.2-6.1,8.1-6.1
			c6.2,0,12.8,0,18.7,0.4l-0.2,3.8h-17.7c-2.6,0-4,0.8-4,3.1v6.8h19.1v4h-19.1v8.6c0,2.3,1.3,3.1,4,3.1h17.7L368,170.8z"/>
	</g>
	<g>
		<path class="st0" d="M277.5,71c-1.3,12.4-6.5,23.2-15.7,32.4c-10.7,10.7-23.5,16-38.6,16c-15.1,0-27.9-5.3-38.6-16
			c-10.5-10.5-15.9-23.2-16-38.1l13.9-0.2c0.1,11.1,4.1,20.5,11.9,28.4c8,8,17.5,11.9,28.7,11.9c11.2,0,20.8-4,28.8-11.9
			c6.8-6.8,10.7-14.9,11.7-24.2L277.5,71z"/>
		<linearGradient id="SVGID_1_" gradientUnits="userSpaceOnUse" x1="223.5365" y1="49.4182" x2="226.9494" y2="0.5005">
			<stop  offset="0" style="stop-color:#F79225"/>
			<stop  offset="1" style="stop-color:#F6EC13"/>
		</linearGradient>
		<path class="st1" d="M277.8,54.6c0,0.7,0,1.5-0.1,2.2l-13.9-2.1v-0.1c0-11.2-4-20.8-11.9-28.8c-7.9-7.9-17.5-11.9-28.8-11.9
			c-11.2,0-20.8,4-28.8,11.9c-6.6,6.6-10.4,14.3-11.6,23.2l-14,0.3c1.1-12.8,6.4-23.9,15.8-33.3c10.7-10.7,23.5-16,38.6-16
			c15.1,0,27.9,5.3,38.6,16C272.5,26.7,277.8,39.5,277.8,54.6z"/>
		<path class="st0" d="M335.9,75.1c-6.3-1.1-12.6-2.2-18.9-3.4l-18.9-3l-18.9-2.6l-1.7-0.2l-13.8-1.6l-3.4-0.4
			c-0.6-0.1-1.3-0.1-1.9-0.2c-5.7-0.5-11.4-1-17.1-1.5l-19-1.2l-19.1-0.8l-15.5-0.2l-3.6,0l-1.5,0l-13.9,0.2l-3.7,0L145.9,61
			l-19,1.2l-19,1.7l-19,2.2l-18.9,2.6l-18.9,3c-6.3,1.2-12.5,2.3-18.9,3.4c6.2-1.7,12.3-3.4,18.5-5l18.7-4.3l18.9-3.6l19-2.9
			c6.4-0.8,12.7-1.6,19.1-2.3l19.2-1.6l19.2-0.9l4.1-0.1l14-0.3l1.1,0l4,0.1l15.3,0.3l19.2,1l19.2,1.6c5.6,0.6,11.2,1.3,16.9,2
			c0.8,0.1,1.5,0.2,2.2,0.3l3.1,0.5l13.9,2.1l2,0.3l18.9,3.6l18.7,4.3C323.5,71.7,329.7,73.4,335.9,75.1z"/>
		<g>
			<path class="st0" d="M168.1,1.4c-12.1,2.8-19.6,9.1-19.7,29.3l-0.1,71.4l8.6-0.4l0.1-71c0-15.9,3.9-24,11.7-28.1L168.1,1.4z"/>
		</g>
		<g>
			<path class="st0" d="M89.8,117.4c12.1-2.8,19.6-9.1,19.7-29.3l0.1-71.4l-8.6,0.4l-0.1,71c0,15.9-3.9,24-11.7,28.1L89.8,117.4z"/>
		</g>
		<linearGradient id="SVGID_2_" gradientUnits="userSpaceOnUse" x1="223.2395" y1="51.5194" x2="225.4946" y2="19.1958">
			<stop  offset="0" style="stop-color:#F79225"/>
			<stop  offset="1" style="stop-color:#F6EC13"/>
		</linearGradient>
		<path class="st2" d="M258.5,53.9c-5.6-0.7-11.2-1.4-16.9-2l-19.2-1.6l-19.2-1L188,49.1c2.7-17,17.3-29.9,35.1-29.9
			C242.4,19.1,258.1,34.6,258.5,53.9z"/>
	</g>
	<g>
		<path class="st0" d="M4.5,197.7c-0.7,0-1.3-0.1-1.8-0.3c-0.5-0.2-0.9-0.4-1.3-0.8s-0.6-0.7-0.8-1.2c-0.2-0.5-0.4-1-0.4-1.5
			S0,192.8,0,192.2v-5.8c0-0.7,0-1.3,0.1-1.9s0.2-1.1,0.4-1.5c0.2-0.5,0.5-0.9,0.8-1.2c0.3-0.3,0.8-0.5,1.3-0.7
			c0.5-0.2,1.1-0.3,1.8-0.3c1.5,0,2.6,0.4,3.2,1.2s1,2,1,3.5v1.3H6.4v-1.2c0-0.3,0-0.5,0-0.6c0-0.1,0-0.3,0-0.5c0-0.2,0-0.4-0.1-0.5
			c0-0.1-0.1-0.3-0.1-0.4s-0.1-0.3-0.2-0.4c-0.1-0.1-0.1-0.2-0.2-0.3s-0.2-0.2-0.3-0.2c-0.1,0-0.3-0.1-0.4-0.1c-0.2,0-0.4,0-0.6,0
			c-0.3,0-0.6,0-0.8,0.1c-0.2,0.1-0.4,0.2-0.6,0.3c-0.2,0.1-0.3,0.3-0.4,0.5c-0.1,0.2-0.2,0.4-0.2,0.7s-0.1,0.6-0.1,0.8s0,0.6,0,1
			v6.5c0,1.2,0.2,2.1,0.5,2.6s0.9,0.7,1.7,0.7c0.3,0,0.6,0,0.8-0.1s0.4-0.2,0.5-0.3c0.1-0.2,0.3-0.3,0.3-0.5
			c0.1-0.2,0.1-0.4,0.2-0.7c0-0.3,0.1-0.5,0.1-0.8s0-0.6,0-0.9v-1.2h2.2v1.2c0,0.6,0,1.2-0.1,1.7c-0.1,0.5-0.2,1-0.4,1.4
			c-0.2,0.4-0.4,0.8-0.8,1.1s-0.7,0.5-1.2,0.7S5.1,197.7,4.5,197.7z"/>
		<path class="st0" d="M22.2,197.7c-0.8,0-1.5-0.1-2.1-0.4s-1.1-0.6-1.4-1.1c-0.3-0.5-0.6-1-0.8-1.7c-0.2-0.6-0.2-1.4-0.2-2.2V186
			c0-1.7,0.4-3,1.1-3.9s1.9-1.3,3.5-1.3c1.6,0,2.8,0.4,3.5,1.3c0.7,0.9,1.1,2.2,1.1,3.9v6.3c0,1.7-0.4,3-1.1,4
			C24.9,197.2,23.8,197.7,22.2,197.7z M21.1,195.7c0.3,0.1,0.7,0.2,1.1,0.2s0.8-0.1,1.1-0.2s0.5-0.4,0.7-0.6
			c0.2-0.3,0.3-0.6,0.3-0.9c0.1-0.3,0.1-0.8,0.1-1.3v-7.2c0-0.5,0-0.9-0.1-1.2c-0.1-0.3-0.2-0.6-0.3-0.9c-0.2-0.3-0.4-0.5-0.7-0.6
			c-0.3-0.1-0.7-0.2-1.1-0.2s-0.8,0.1-1.1,0.2c-0.3,0.1-0.5,0.3-0.7,0.6s-0.3,0.6-0.3,0.9c-0.1,0.3-0.1,0.7-0.1,1.2v7.2
			c0,0.5,0,0.9,0.1,1.3c0.1,0.3,0.2,0.7,0.3,0.9C20.5,195.3,20.8,195.5,21.1,195.7z"/>
		<path class="st0" d="M36.1,197.5V181h1.6l4.7,11v-11h1.9v16.5h-1.5l-4.8-11.3v11.3H36.1z"/>
		<path class="st0" d="M61.7,200.8c-0.9-0.4-1.9-1.5-3-3.2c0,0-0.1,0-0.2,0s-0.2,0-0.2,0c-1.6,0-2.8-0.5-3.5-1.4
			c-0.7-0.9-1.1-2.2-1.1-4V186c0-1.7,0.4-3,1.1-3.9c0.7-0.9,1.9-1.3,3.5-1.3c1.6,0,2.8,0.4,3.5,1.3c0.7,0.9,1.1,2.2,1.1,3.9v6.3
			c0,2.6-0.8,4.3-2.4,5c0.7,0.9,1.2,1.5,1.6,1.7L61.7,200.8z M57.2,195.7c0.3,0.1,0.7,0.2,1.1,0.2c0.5,0,0.8-0.1,1.1-0.2
			c0.3-0.1,0.5-0.4,0.7-0.6c0.2-0.3,0.3-0.6,0.3-0.9c0.1-0.3,0.1-0.8,0.1-1.3v-7.2c0-0.5,0-0.9-0.1-1.3c-0.1-0.3-0.2-0.6-0.3-0.9
			s-0.4-0.5-0.7-0.6c-0.3-0.1-0.7-0.2-1.1-0.2c-0.5,0-0.8,0.1-1.1,0.2c-0.3,0.1-0.5,0.3-0.7,0.6s-0.3,0.6-0.3,0.9
			c-0.1,0.3-0.1,0.8-0.1,1.3v7.2c0,0.5,0,0.9,0.1,1.3c0.1,0.3,0.2,0.7,0.3,0.9C56.6,195.3,56.9,195.5,57.2,195.7z"/>
		<path class="st0" d="M78.3,197.4c-0.5,0.2-1.1,0.3-1.8,0.3s-1.3-0.1-1.8-0.3s-0.9-0.4-1.3-0.7c-0.3-0.3-0.6-0.7-0.8-1.2
			c-0.2-0.5-0.3-1-0.4-1.6s-0.1-1.2-0.1-1.9v-11h2.2V192c0,0.5,0,0.9,0,1.2s0.1,0.7,0.2,1c0.1,0.3,0.2,0.6,0.4,0.8
			c0.2,0.2,0.4,0.4,0.6,0.5c0.3,0.1,0.6,0.2,1,0.2c0.4,0,0.7-0.1,1-0.2c0.3-0.1,0.5-0.3,0.6-0.5c0.2-0.2,0.3-0.5,0.4-0.8
			c0.1-0.3,0.2-0.7,0.2-1c0-0.3,0-0.8,0-1.2V181h2.2v11c0,0.7,0,1.4-0.1,1.9c-0.1,0.6-0.2,1.1-0.4,1.6c-0.2,0.5-0.5,0.9-0.8,1.2
			C79.3,197,78.9,197.2,78.3,197.4z"/>
		<path class="st0" d="M90.5,197.5V181h6.4v1.7h-4.1v5.5h3.3v1.6h-3.3v6.1h4.1v1.7H90.5z"/>
		<path class="st0" d="M106,197.5V181h3.3c1.7,0,2.9,0.3,3.7,1c0.8,0.7,1.2,1.8,1.2,3.4c0,2.1-0.7,3.4-2,3.9l2.4,8.3h-2.2l-2.2-7.8
			h-1.8v7.8H106z M108.3,188.1h0.9c1,0,1.7-0.2,2.1-0.6c0.4-0.4,0.6-1.1,0.6-2.1c0-1-0.2-1.7-0.6-2.1s-1.1-0.6-2.1-0.6h-1V188.1z"/>
		<path class="st0" d="M135.5,197.5V181h1.6l4.7,11v-11h1.9v16.5h-1.5l-4.8-11.3v11.3H135.5z"/>
		<path class="st0" d="M153.4,197.5V181h6.4v1.7h-4.1v5.5h3.3v1.6h-3.3v6.1h4.1v1.7H153.4z"/>
		<path class="st0" d="M171,197.5l-2.7-16.5h1.9l1.8,11.9l2.2-11.8h1.6l2.2,11.9l1.7-11.9h1.9l-2.7,16.5h-1.7l-2.3-12.2l-2.3,12.2
			H171z"/>
		<path class="st0" d="M204.5,197.5v-14.8h-3V181h8.2v1.7h-2.9v14.8H204.5z"/>
		<path class="st0" d="M218.1,197.5V181h6.4v1.7h-4.1v5.5h3.3v1.6h-3.3v6.1h4.1v1.7H218.1z"/>
		<path class="st0" d="M233.6,197.5V181h3.3c1.7,0,2.9,0.3,3.7,1s1.2,1.8,1.2,3.4c0,2.1-0.7,3.4-2,3.9l2.4,8.3h-2.2l-2.2-7.8h-1.8
			v7.8H233.6z M235.9,188.1h0.9c1,0,1.7-0.2,2.1-0.6c0.4-0.4,0.6-1.1,0.6-2.1c0-1-0.2-1.7-0.6-2.1s-1.1-0.6-2.1-0.6h-1V188.1z"/>
		<path class="st0" d="M251.3,197.5V181h3.3c1.7,0,2.9,0.3,3.7,1c0.8,0.7,1.2,1.8,1.2,3.4c0,2.1-0.7,3.4-2,3.9l2.4,8.3h-2.2
			l-2.2-7.8h-1.8v7.8H251.3z M253.6,188.1h0.9c1,0,1.7-0.2,2.1-0.6c0.4-0.4,0.6-1.1,0.6-2.1c0-1-0.2-1.7-0.6-2.1
			c-0.4-0.4-1.1-0.6-2.1-0.6h-1V188.1z"/>
		<path class="st0" d="M269.2,197.5V181h2.3v16.5H269.2z"/>
		<path class="st0" d="M282.9,197.5v-14.8h-3V181h8.2v1.7h-2.9v14.8H282.9z"/>
		<path class="st0" d="M300.8,197.7c-0.8,0-1.5-0.1-2.1-0.4c-0.6-0.2-1.1-0.6-1.4-1.1s-0.6-1-0.8-1.7s-0.2-1.4-0.2-2.2V186
			c0-1.7,0.4-3,1.1-3.9c0.7-0.9,1.9-1.3,3.5-1.3c1.6,0,2.8,0.4,3.5,1.3c0.7,0.9,1.1,2.2,1.1,3.9v6.3c0,1.7-0.4,3-1.1,4
			C303.5,197.2,302.4,197.7,300.8,197.7z M299.7,195.7c0.3,0.1,0.7,0.2,1.1,0.2c0.5,0,0.8-0.1,1.1-0.2s0.5-0.4,0.7-0.6
			c0.2-0.3,0.3-0.6,0.3-0.9c0.1-0.3,0.1-0.8,0.1-1.3v-7.2c0-0.5,0-0.9-0.1-1.2c-0.1-0.3-0.2-0.6-0.3-0.9s-0.4-0.5-0.7-0.6
			c-0.3-0.1-0.7-0.2-1.1-0.2c-0.5,0-0.8,0.1-1.1,0.2c-0.3,0.1-0.5,0.3-0.7,0.6s-0.3,0.6-0.3,0.9c-0.1,0.3-0.1,0.7-0.1,1.2v7.2
			c0,0.5,0,0.9,0.1,1.3c0.1,0.3,0.2,0.7,0.3,0.9C299.1,195.3,299.4,195.5,299.7,195.7z"/>
		<path class="st0" d="M314.7,197.5V181h3.3c1.7,0,2.9,0.3,3.7,1c0.8,0.7,1.2,1.8,1.2,3.4c0,2.1-0.7,3.4-2,3.9l2.4,8.3H321l-2.2-7.8
			H317v7.8H314.7z M317,188.1h0.9c1,0,1.7-0.2,2.1-0.6c0.4-0.4,0.6-1.1,0.6-2.1c0-1-0.2-1.7-0.6-2.1c-0.4-0.4-1.1-0.6-2.1-0.6h-1
			V188.1z"/>
		<path class="st0" d="M332.6,197.5V181h2.3v16.5H332.6z"/>
		<path class="st0" d="M344.7,197.5V181h6.4v1.7H347v5.5h3.3v1.6H347v6.1h4.1v1.7H344.7z"/>
		<path class="st0" d="M364,197.7c-1.4,0-2.4-0.4-3.2-1.3c-0.7-0.9-1.1-2-1.2-3.5l2.1-0.6c0.1,2.4,0.9,3.5,2.3,3.5
			c0.6,0,1-0.2,1.4-0.5c0.3-0.3,0.5-0.8,0.5-1.5c0-0.4,0-0.7-0.1-1c-0.1-0.3-0.2-0.6-0.4-0.8s-0.4-0.5-0.5-0.7
			c-0.2-0.2-0.4-0.4-0.7-0.7l-2.8-2.5c-0.6-0.5-1-1-1.2-1.6c-0.3-0.6-0.4-1.2-0.4-2.1c0-1.2,0.3-2.1,1-2.8c0.7-0.7,1.6-1,2.8-1
			c1.3,0,2.3,0.3,3,1c0.7,0.7,1.1,1.8,1.2,3.3l-1.9,0.5c0-0.4-0.1-0.7-0.1-1s-0.1-0.6-0.2-0.8c-0.1-0.3-0.2-0.5-0.4-0.7
			c-0.2-0.2-0.4-0.3-0.6-0.4c-0.3-0.1-0.5-0.1-0.9-0.1c-1.2,0.1-1.8,0.7-1.8,1.8c0,0.5,0.1,0.9,0.2,1.2s0.4,0.7,0.8,1l2.8,2.5
			c0.7,0.7,1.3,1.3,1.7,2.1c0.4,0.7,0.6,1.6,0.6,2.5c0,1.2-0.4,2.2-1.1,2.9S365.2,197.7,364,197.7z"/>
	</g>
</g>
<g id="_x39_9d_logo" class="st3">
	<g class="st4">
		<defs>
			<path id="SVGID_3_" d="M-79.7-2.3C-64-29.6-29.4-39-2.2-23.2C24.9-7.5,34.1,27.4,18.5,54.7C2.8,82-31.8,91.3-58.9,75.6
				C-86,59.8-95.3,24.9-79.7-2.3z M136.7-2.3c15.7-27.3,50.3-36.6,77.4-20.9c27.1,15.7,36.4,50.6,20.7,77.9
				c-15.7,27.3-50.3,36.6-77.4,20.9C130.4,59.8,121.1,24.9,136.7-2.3z M439.7,169.8c-11.2,11.3-25.5,16.9-42.9,16.9
				c-8.4,0-16.2-1.5-23.6-4.5c-7.3-3-13.5-7.1-18.7-12.4c-5.1-5.3-9.2-11.6-12.1-19c-3-7.4-4.4-15.4-4.4-24.2
				c0-8.5,1.5-16.4,4.4-23.7c3-7.4,7.1-13.6,12.4-18.8c5.3-5.2,11.6-9.2,18.9-12.2c7.3-3,15.3-4.5,24-4.5c8.4,0,16.2,1.5,23.3,4.5
				c7.1,3,13.4,7.1,18.6,12.4c5.3,5.3,9.4,11.5,12.4,18.5c3,7,4.4,14.8,4.4,23.2C456.5,144,450.9,158.6,439.7,169.8z M77.6,87.3
				c10.5,18.9,26.1,35.3,46.2,47c16.8,9.8,35,15,53.1,16.3l-54,94.1h80.8l64.4-112.2c0.5,16.2,3.4,31.2,8.5,44.9
				c5.8,15.3,13.8,28.5,24.3,39.6c10.4,11.1,22.8,19.8,37.1,26.1c14.3,6.3,30,9.4,47.1,9.4c16.2,0,29.8-2.6,40.8-7.7
				c11-5.2,21.2-13.5,30.6-25.1v24.9h66.3v-336h-70V29.5c-9.6-9.4-19.9-16.4-30.8-20.9c-10.9-4.5-23.7-6.8-38.3-6.8
				c-16.5,0-31.8,3.1-45.9,9.4c-10.3,4.6-19.6,10.4-27.9,17.5c0.9-44-21.5-87.1-62-110.7c-59.4-34.5-135.3-14-169.5,45.7
				c-0.2,0.4-0.5,0.9-0.7,1.3c-10.5-18.9-26.1-35.3-46.2-47c-59.4-34.5-135.3-14-169.5,45.7C-172.4,23.5-152,99.8-92.6,134.3
				c16.8,9.8,35,15,53.1,16.3l-54,94.1h80.8l89.6-156C77.1,88.2,77.4,87.7,77.6,87.3L77.6,87.3z"/>
		</defs>
		<clipPath id="SVGID_4_">
			<use xlink:href="#SVGID_3_"  style="overflow:visible;"/>
		</clipPath>
		<g class="st5">
			<defs>
				<rect id="SVGID_5_" x="-701.5" y="-809.2" width="1770.8" height="1770.8"/>
			</defs>
			<clipPath id="SVGID_6_">
				<use xlink:href="#SVGID_5_"  style="overflow:visible;"/>
			</clipPath>
			<rect x="-165.8" y="-109.7" class="st6" width="699.6" height="373.2"/>
		</g>
	</g>
</g>
<g id="Guides">
</g>
<g id="TEMPLATE__x28_delete_x29_" class="st3">
	<path class="st7" d="M-316-423.4v1000H684v-1000H-316z M484,376.6h-600v-600h600V376.6z"/>
	<g class="st4">
		<defs>
			<path id="SVGID_7_" d="M-68.5-128.5c2-3.5,6.4-4.6,9.8-2.6c3.4,2,4.6,6.4,2.6,9.9c-2,3.5-6.4,4.6-9.8,2.6
				C-69.3-120.6-70.5-125.1-68.5-128.5z M-39.9-128.5c2-3.5,6.4-4.6,9.8-2.6c3.4,2,4.6,6.4,2.6,9.9c-2,3.5-6.4,4.6-9.8,2.6
				C-40.7-120.6-41.9-125.1-39.9-128.5z M3.4-106.7c-1.4,1.4-3.2,2.1-5.4,2.1c-1.1,0-2.1-0.2-3-0.6c-0.9-0.4-1.7-0.9-2.4-1.6
				c-0.7-0.7-1.2-1.5-1.5-2.4c-0.4-0.9-0.6-2-0.6-3.1c0-1.1,0.2-2.1,0.6-3c0.4-0.9,0.9-1.7,1.6-2.4c0.7-0.7,1.5-1.2,2.4-1.5
				c0.9-0.4,1.9-0.6,3-0.6c1.1,0,2.1,0.2,3,0.6c0.9,0.4,1.7,0.9,2.4,1.6c0.7,0.7,1.2,1.5,1.6,2.3c0.4,0.9,0.6,1.9,0.6,2.9
				C5.5-110,4.8-108.1,3.4-106.7z M5-139.8v15.3c-1.2-1.2-2.5-2.1-3.9-2.7c-1.4-0.6-3-0.9-4.9-0.9c-2.1,0-4,0.4-5.8,1.2
				c-1.8,0.8-3.3,1.9-4.6,3.3c-1.3,1.4-2.3,3.1-3.1,5c-0.7,1.9-1.1,4-1.1,6.3c0,2.3,0.4,4.5,1.1,6.4c0.7,1.9,1.8,3.6,3.1,5
				c1.3,1.4,2.9,2.5,4.7,3.3c1.8,0.8,3.8,1.2,6,1.2c2.1,0,3.8-0.3,5.2-1c1.4-0.7,2.7-1.7,3.9-3.2v3.2h8.4v-42.6H5z M-48-131.5
				c0.2-0.4,0.4-0.9,0.7-1.3c4.3-7.6,14-10.2,21.5-5.8c7.5,4.4,10.1,14.1,5.8,21.6l-11.4,19.8h-10.2l6.8-11.9
				c-2.3-0.2-4.6-0.8-6.7-2.1c-2.9-1.7-5.1-4.2-6.4-7.1c-0.2,0.4-0.4,0.9-0.7,1.3L-60-97.2h-10.2l6.8-11.9c-2.3-0.2-4.6-0.8-6.7-2.1
				c-7.5-4.4-10.1-14.1-5.8-21.6c4.3-7.6,14-10.2,21.5-5.8C-51.5-136.9-49.3-134.4-48-131.5z M24.7-115.2c0.4-1.7,1.1-2.9,2.3-3.8
				c1.2-0.9,2.6-1.3,4.3-1.3c1.7,0,3.2,0.5,4.4,1.4c1.2,0.9,2,2.2,2.3,3.7H24.7z M45.6-118.1c-0.8-2-1.9-3.7-3.3-5.1
				c-1.4-1.4-3-2.6-5-3.4c-1.9-0.8-4-1.2-6.2-1.2c-2.1,0-4.1,0.4-6,1.2c-1.9,0.8-3.5,2-4.9,3.4c-1.4,1.4-2.5,3.1-3.3,5
				c-0.8,1.9-1.2,4-1.2,6.2c0,2.2,0.4,4.3,1.2,6.2c0.8,1.9,1.9,3.6,3.3,5c1.4,1.4,3,2.5,4.9,3.4c1.9,0.8,3.9,1.2,6.1,1.2
				c3.1,0,6-0.9,8.5-2.7c2.4-1.7,4.3-4.1,5.7-7.1h-9.2c-0.9,0.9-1.8,1.5-2.6,1.8c-0.8,0.3-1.7,0.5-2.8,0.5c-1.8,0-3.2-0.5-4.4-1.5
				c-1.2-1-1.9-2.3-2.1-4h22.1C47-112.3,46.8-115.3,45.6-118.1z M71.2-118.5c-0.4-5.8-5-9.3-11.3-9.3c-6,0-11.5,3.8-11.5,9.6
				c0,3.5,2,6.4,9.4,8.7c4.4,1.4,5.4,2.2,5.4,3.9c0,1.4-1.5,2.3-3.1,2.3c-1.8,0-3.1-0.9-3.4-2.7H48c0.6,6,5.4,9.8,12,9.8
				c6.7,0,12-3.9,12-10.1c0-4.3-2.3-7.1-9.3-9c-4.1-1.1-5.5-1.9-5.5-3.5c0-1.1,1.1-2,2.6-2c1.4,0,2.7,0.5,2.7,2.2H71.2z M78.9-130
				c2.9,0,5.3-2.4,5.3-5.3s-2.4-5.3-5.3-5.3c-2.9,0-5.3,2.4-5.3,5.3S76-130,78.9-130z M83.3-97.2h-8.8v-29.7h8.8V-97.2z
				 M100.2-121.2c2.7,0,4.9,2.2,4.9,4.9c0,2.7-2.2,4.9-4.9,4.9c-2.7,0-4.9-2.2-4.9-4.9C95.3-119,97.5-121.2,100.2-121.2z
				 M106.4-91.1c-1,1.4-2.9,1.9-4.5,1.9c-1.9,0.1-4.5-0.3-5.7-1.9c-1.2-1.5-1-3.6,0.7-4.6c0.5-0.3,1-0.5,1.5-0.6h4.4
				c1.9,0,4.4,0.5,4.3,2.9C107.1-92.5,106.8-91.7,106.4-91.1z M97.8-103.1c-3.6-0.6-3.5-2-2.6-2.7c8.2,3.1,18.1-0.8,18.2-10.3
				c0-3.5-1.3-5.7-2.2-6.7c0.7-1.4,1.6-2.2,3.4-2.6l-3.7-6.5c-3.4,0.3-5.6,2.4-6.6,4.5c-2-0.8-6.1-0.9-9.3,0.3
				c-1.6,0.6-3,1.4-4.2,2.5c-1.2,1-2.1,2.3-2.8,3.8c-0.7,1.5-1,3.1-1,4.8c0,2.3,0.7,4.9,2,6.8c-3.6,3.5-3.4,8.7,0.3,12
				c-0.4,0.3-0.8,0.6-1.1,1c-3.3,3.6-1.8,8.7,2.1,11.3c4.8,3.5,13.4,3.7,18.7,1.3c9.3-3.8,9.6-17.6-1.2-19.4
				C104.8-103.5,101.4-102.5,97.8-103.1z M116.8-97.2h8.9v-16.6c0-3.9,1.7-5.8,5-5.8c1.6,0,2.8,0.5,3.5,1.5c0.7,1,1.1,2.6,1.1,4.7
				v16.2h8.9v-18.6c0-1.2-0.1-2.2-0.1-3.1c-0.1-0.9-0.3-1.7-0.5-2.4c-0.2-0.7-0.5-1.3-0.9-1.9c-0.4-0.6-0.9-1.1-1.4-1.7
				c-0.9-0.9-2.1-1.7-3.5-2.2c-1.4-0.5-2.9-0.8-4.4-0.8c-1.9,0-3.5,0.3-4.7,1c-1.2,0.7-2.4,1.7-3.4,3.2v-3.1h-8.4V-97.2z
				 M169.1-118.5c-0.4-5.8-5-9.3-11.3-9.3c-6,0-11.5,3.8-11.5,9.6c0,3.5,2,6.4,9.4,8.7c4.4,1.4,5.4,2.2,5.4,3.9
				c0,1.4-1.5,2.3-3.1,2.3c-1.8,0-3.1-0.9-3.4-2.7H146c0.6,6,5.4,9.8,12,9.8c6.7,0,12-3.9,12-10.1c0-4.3-2.3-7.1-9.3-9
				c-4.1-1.1-5.5-1.9-5.5-3.5c0-1.1,1.1-2,2.6-2c1.4,0,2.7,0.5,2.7,2.2H169.1z"/>
		</defs>
		<clipPath id="SVGID_8_">
			<use xlink:href="#SVGID_7_"  style="overflow:visible;"/>
		</clipPath>
		<g class="st8">
			<defs>
				<rect id="SVGID_9_" x="-119.3" y="-280.9" width="330.7" height="330.7"/>
			</defs>
			<clipPath id="SVGID_10_">
				<use xlink:href="#SVGID_9_"  style="overflow:visible;"/>
			</clipPath>
			<rect x="-80.1" y="-142.8" class="st9" width="252.2" height="62.8"/>
		</g>
	</g>
	<g class="st4">
		<path class="st10" d="M-73-37.6h7v3.1h-10.3v-16.8h3.3V-37.6z"/>
		<path class="st10" d="M-51.7-40.6c0,3.8-2.7,6.4-6.4,6.4c-3.6,0-6.4-2.6-6.4-6.4c0-3.8,2.7-6.3,6.4-6.3
			C-54.4-47-51.7-44.4-51.7-40.6z M-61.2-40.6c0,2,1.3,3.5,3.2,3.5c1.9,0,3.1-1.5,3.1-3.5c0-2-1.2-3.5-3.1-3.5
			C-59.9-44.1-61.2-42.7-61.2-40.6z"/>
		<path class="st10" d="M-38.1-44.1h-1.8c0.1,0.4,0.2,0.9,0.2,1.4c0,2.4-2,4.2-4.8,4.2c-0.7,0-1.4-0.1-2-0.3
			c-0.2,0.2-0.3,0.5-0.3,0.9c0,0.6,0.5,1,1.2,1h2.9c2.5,0,4,1.2,4,3.5c0,2.7-2.1,4.2-5.4,4.2c-3.6,0-5.5-1.3-5.5-3.7
			c0-1.1,0.6-1.8,1.2-2.1c-0.7-0.5-1.4-1.4-1.4-2.6c0-1.2,0.5-2,1.2-2.6c-0.5-0.7-0.8-1.5-0.8-2.5c0-2.5,2.1-4.3,4.9-4.3
			c0.6,0,1.2,0.1,1.8,0.3h4.6V-44.1z M-45.3-34.5c-0.7,0.1-1.2,0.6-1.2,1.4c0,1.1,1,1.7,2.5,1.7c1.4,0,2.3-0.6,2.3-1.7
			c0-0.9-0.7-1.3-1.7-1.3H-45.3z M-46.3-42.7c0,1.1,0.7,1.9,1.8,1.9s1.8-0.8,1.8-1.9c0-1.2-0.7-2-1.8-2
			C-45.6-44.6-46.3-43.8-46.3-42.7z"/>
		<path class="st10" d="M-24.2-40.6c0,3.8-2.7,6.4-6.4,6.4c-3.6,0-6.4-2.6-6.4-6.4c0-3.8,2.7-6.3,6.4-6.3
			C-27-47-24.2-44.4-24.2-40.6z M-33.8-40.6c0,2,1.3,3.5,3.2,3.5c1.9,0,3.1-1.5,3.1-3.5c0-2-1.2-3.5-3.1-3.5
			C-32.5-44.1-33.8-42.7-33.8-40.6z"/>
		<path class="st10" d="M-12.7-46.7h2.8v2.8h-2.8l0,4.9c0,1.2,0.4,1.8,1.6,1.8c0.6,0,0.9-0.1,1.3-0.2v2.7c-0.4,0.1-1,0.3-2,0.3
			c-2.7,0-4-1.1-4-3.8l0-5.7h-2v-2.8h2l0-3h3.1L-12.7-46.7z"/>
		<path class="st10" d="M3.6-40.6v1h-8.5c0.1,1.6,1.2,2.7,2.9,2.7c1.2,0,2.1-0.5,2.4-1.4h3c-0.7,2.6-2.6,4.1-5.6,4.1
			c-3.6,0-6-2.5-6-6.3c0-3.7,2.4-6.4,6-6.4C1.1-47,3.6-45,3.6-40.6z M-4.9-41.8h5.3c0-1.5-1-2.5-2.6-2.5
			C-3.7-44.4-4.7-43.3-4.9-41.8z"/>
		<path class="st10" d="M23.4-42.4v7.9h-3.1v-7.2c0-1.4-0.6-2.2-1.7-2.2c-1.2,0-2.1,0.9-2.1,2.8v6.6h-3.1v-7.2
			c0-1.4-0.6-2.2-1.7-2.2c-1.2,0-2.1,1-2.1,3v6.4H6.4v-12.2h2.7l0.2,1.6c0.6-1,1.7-1.8,3.2-1.8c1.7,0,2.9,0.8,3.5,2.1
			c0.6-1.2,1.8-2.1,3.5-2.1C22.1-47,23.4-45.2,23.4-42.4z"/>
		<path class="st10" d="M39.3-40.6c0,3.6-2.4,6.4-5.7,6.4c-1.8,0-3-0.7-3.6-1.6v6.5h-3.1v-17.3h2.7l0.2,1.6c0.7-1,1.8-1.9,3.9-1.9
			C36.9-47,39.3-44.2,39.3-40.6z M29.9-40.7v0.1c0,2.1,1.6,3.3,3.1,3.3c1.7,0,3.1-1.3,3.1-3.4c0-2.1-1.3-3.4-3.1-3.4
			C31.4-44,29.9-42.9,29.9-40.7z"/>
		<path class="st10" d="M45.1-34.5H42v-17.5h3.1V-34.5z"/>
		<path class="st10" d="M58-42.5v8h-2.7L55.2-36c-0.6,1-1.8,1.8-3.5,1.8c-2.2,0-3.7-1.3-3.7-3.5c0-2.4,1.6-3.3,3.8-3.6l3.1-0.6v-0.5
			c0-1.2-0.6-1.8-1.7-1.8c-1,0-1.8,0.6-1.8,1.6h-3c0.1-2.5,2-4.3,4.8-4.3S58-45.5,58-42.5z M52.5-39.4c-0.8,0.2-1.4,0.6-1.4,1.4
			c0,0.7,0.5,1.2,1.4,1.2c0.8,0,1.5-0.4,1.9-1.1c0.3-0.4,0.4-1,0.4-1.6v-0.4L52.5-39.4z"/>
		<path class="st10" d="M65.2-46.7h2.8v2.8h-2.8l0,4.9c0,1.2,0.4,1.8,1.6,1.8c0.6,0,0.9-0.1,1.3-0.2v2.7c-0.4,0.1-1,0.3-2,0.3
			c-2.7,0-4-1.1-4-3.8l0-5.7h-2v-2.8h2l0-3h3.1L65.2-46.7z"/>
		<path class="st10" d="M81.5-40.6v1H73c0.1,1.6,1.2,2.7,2.9,2.7c1.2,0,2.1-0.5,2.4-1.4h3c-0.7,2.6-2.6,4.1-5.6,4.1
			c-3.6,0-6-2.5-6-6.3c0-3.7,2.4-6.4,6-6.4C79-47,81.5-45,81.5-40.6z M73-41.8h5.3c0-1.5-1-2.5-2.6-2.5C74.2-44.4,73.2-43.3,73-41.8
			z"/>
		<path class="st11" d="M94.6-50.9c-2,2.7-3,5-3,8.6c0,3.6,1,6,3,8.6l-2.2,1.5c-2.2-2.7-3.7-5.7-3.7-10.1s1.5-7.4,3.7-10.1
			L94.6-50.9z"/>
		<path class="st11" d="M102.5-34.5h-3.3v-11.6h-3.5V-49c2.6,0,4-0.6,4.4-2.4h2.4V-34.5z"/>
		<path class="st11" d="M117.3-43c0,5.4-2.1,8.7-6,8.7s-6-3.4-6-8.7c0-5.4,2.1-8.7,6-8.7S117.3-48.3,117.3-43z M108.7-43
			c0,3.6,0.9,5.7,2.6,5.7c1.8,0,2.6-2.1,2.6-5.7c0-3.5-0.9-5.6-2.6-5.6C109.6-48.6,108.7-46.5,108.7-43z"/>
		<path class="st11" d="M131.2-43c0,5.4-2.1,8.7-6,8.7s-6-3.4-6-8.7c0-5.4,2.1-8.7,6-8.7S131.2-48.3,131.2-43z M122.7-43
			c0,3.6,0.9,5.7,2.6,5.7c1.8,0,2.6-2.1,2.6-5.7c0-3.5-0.9-5.6-2.6-5.6C123.5-48.6,122.7-46.5,122.7-43z"/>
		<path class="st11" d="M145.2-43c0,5.4-2.1,8.7-6,8.7s-6-3.4-6-8.7c0-5.4,2.1-8.7,6-8.7S145.2-48.3,145.2-43z M136.6-43
			c0,3.6,0.9,5.7,2.6,5.7c1.8,0,2.6-2.1,2.6-5.7c0-3.5-0.9-5.6-2.6-5.6C137.5-48.6,136.6-46.5,136.6-43z"/>
		<path class="st11" d="M162-43.1l5.7,8.5h-3.9l-4-6.1l-4,6.1h-3.9l5.6-8.5l-5.5-8.3h3.9l3.9,5.8l3.9-5.8h3.9L162-43.1z"/>
		<path class="st11" d="M181-34.5h-3.3v-11.6h-3.5V-49c2.6,0,4-0.6,4.4-2.4h2.4V-34.5z"/>
		<path class="st11" d="M195.7-43c0,5.4-2.1,8.7-6,8.7c-3.8,0-6-3.4-6-8.7c0-5.4,2.1-8.7,6-8.7C193.6-51.7,195.7-48.3,195.7-43z
			 M187.1-43c0,3.6,0.9,5.7,2.6,5.7c1.8,0,2.6-2.1,2.6-5.7c0-3.5-0.9-5.6-2.6-5.6C188-48.6,187.1-46.5,187.1-43z"/>
		<path class="st11" d="M209.7-43c0,5.4-2.1,8.7-6,8.7c-3.8,0-6-3.4-6-8.7c0-5.4,2.1-8.7,6-8.7C207.5-51.7,209.7-48.3,209.7-43z
			 M201.1-43c0,3.6,0.9,5.7,2.6,5.7c1.8,0,2.6-2.1,2.6-5.7c0-3.5-0.9-5.6-2.6-5.6C201.9-48.6,201.1-46.5,201.1-43z"/>
		<path class="st11" d="M223.6-43c0,5.4-2.1,8.7-6,8.7c-3.8,0-6-3.4-6-8.7c0-5.4,2.1-8.7,6-8.7C221.5-51.7,223.6-48.3,223.6-43z
			 M215-43c0,3.6,0.9,5.7,2.6,5.7c1.8,0,2.6-2.1,2.6-5.7c0-3.5-0.9-5.6-2.6-5.6C215.9-48.6,215-46.5,215-43z"/>
		<path class="st11" d="M238.9-40.6c0,3.6-2.4,6.4-5.7,6.4c-1.8,0-3-0.7-3.6-1.6v6.5h-3.1v-17.3h2.7l0.2,1.6c0.7-1,1.8-1.9,3.9-1.9
			C236.5-47,238.9-44.2,238.9-40.6z M229.5-40.7v0.1c0,2.1,1.6,3.3,3.1,3.3c1.7,0,3.1-1.3,3.1-3.4c0-2.1-1.3-3.4-3.1-3.4
			C231.1-44,229.5-42.9,229.5-40.7z"/>
		<path class="st11" d="M248-40.7l3.8,6.2h-3.6l-2.4-3.8l-2.4,3.8h-3.6l3.8-6.2l-3.7-6h3.6l2.2,3.6l2.2-3.6h3.6L248-40.7z"/>
		<path class="st11" d="M258.6-42.2c0,4.4-1.6,7.4-3.8,10.1l-2.2-1.5c2-2.7,3-5,3-8.6c0-3.6-1-6-3-8.6l2.2-1.5
			C257.1-49.6,258.6-46.7,258.6-42.2z"/>
	</g>
	<g class="st4">
		<path class="st12" d="M-74.4,19.8h4.5v1.3h-4.5V19.8z"/>
		<path class="st12" d="M-61.2,21v4.7h-1.5V13.4h3.7c2.4,0,4.2,1.1,4.2,3.8c0,2.6-1.8,3.8-4.3,3.8H-61.2z M-59.1,19.8
			c1.8,0,2.8-0.9,2.8-2.6c0-1.8-1-2.6-2.8-2.6h-2.1v5.2H-59.1z"/>
		<path class="st12" d="M-52.7,13h1.4v12.6h-1.4V13z"/>
		<path class="st12" d="M-48.5,19.5c0-1.5,1.2-2.5,3.2-2.5c2.1,0,3.1,0.9,3.1,3.1v3.4c0,0.7,0.1,0.9,0.8,1v1.2h-0.2
			c-1.3,0-1.8-0.5-1.9-1.5h0c-0.4,1-1.5,1.6-2.7,1.6c-1.7,0-2.7-0.9-2.7-2.4c0-0.9,0.4-1.7,1.3-2.1c0.9-0.5,2.2-0.6,4.1-0.7v-0.4
			c0-1.5-0.6-2.1-1.8-2.1c-1.2,0-1.7,0.7-1.8,1.4H-48.5z M-43.6,21.8v-0.2c-1.8,0.1-2.9,0.2-3.4,0.6c-0.3,0.2-0.5,0.6-0.5,1
			c0,0.9,0.6,1.3,1.5,1.3C-44.9,24.6-43.6,23.9-43.6,21.8z"/>
		<path class="st12" d="M-34.1,19.8c-0.1-0.9-0.7-1.6-1.9-1.6c-1.5,0-2.3,1.3-2.3,3.3c0,2,0.6,3.3,2.3,3.3c1.6,0,2-1.2,2.1-1.8h1.3
			c-0.2,2-1.6,2.9-3.4,2.9c-2.4,0-3.7-1.7-3.7-4.4c0-2.6,1.4-4.5,3.8-4.5c1.7,0,3.2,0.8,3.3,2.8H-34.1z"/>
		<path class="st12" d="M-27.2,25.9c-2.6,0-3.8-1.9-3.8-4.4c0-2.5,1.3-4.5,3.8-4.5c2.5,0,3.5,2,3.5,4.1v0.7h-5.8
			c0.1,1.7,0.8,2.9,2.4,2.9c1.4,0,1.8-0.8,1.9-1.3h1.4C-24.1,24.9-25.4,25.9-27.2,25.9z M-25.2,20.6c0-1.4-0.6-2.5-2.1-2.5
			c-1.3,0-2.1,1.1-2.3,2.6L-25.2,20.6L-25.2,20.6z"/>
		<path class="st12" d="M-17.7,17.2h1.4l1.8,5.3c0.3,0.8,0.4,1.3,0.4,1.3h0c0,0,0.1-0.5,0.4-1.3l1.7-5.3h1.4l-3.1,9
			c-0.7,1.9-1.2,2.7-3.1,2.7c-0.3,0-0.6,0-0.9-0.1v-1.2c0.3,0.1,0.6,0.1,0.7,0.1c1.1,0,1.4-0.4,1.8-1.5l0.2-0.4L-17.7,17.2z"/>
		<path class="st12" d="M-9.1,21.4c0-2.6,1.4-4.4,3.8-4.4c2.5,0,3.8,1.8,3.8,4.4c0,2.6-1.4,4.4-3.8,4.4C-7.9,25.9-9.1,24.1-9.1,21.4
			z M-7.7,21.4c0,2.1,0.7,3.3,2.3,3.3c1.6,0,2.3-1.2,2.3-3.3c0-2-0.7-3.3-2.3-3.3C-6.9,18.1-7.7,19.4-7.7,21.4z"/>
		<path class="st12" d="M2.2,22.4c0,0.6,0,1.3,0.3,1.7c0.3,0.4,0.7,0.6,1.3,0.6c1.6,0,2.3-1,2.3-2.9v-4.6h1.4v8.4H6.2v-1.4h0
			c-0.4,0.9-1.3,1.6-2.7,1.6c-1.6,0-2.7-0.8-2.7-2.8v-5.9h1.4V22.4z"/>
		<path class="st12" d="M10.7,17.2h1.4v1.6h0c0.4-0.9,1.4-1.7,2.7-1.7h0.1v1.5h-0.3c-1.5,0-2.5,0.9-2.5,2.5v4.6h-1.4V17.2z"/>
		<path class="st12" d="M21.7,13h1.4v12.6h-1.4V13z"/>
		<path class="st12" d="M25.5,21.4c0-2.6,1.4-4.4,3.8-4.4c2.5,0,3.8,1.8,3.8,4.4c0,2.6-1.4,4.4-3.8,4.4
			C26.8,25.9,25.5,24.1,25.5,21.4z M27,21.4c0,2.1,0.7,3.3,2.3,3.3c1.6,0,2.3-1.2,2.3-3.3c0-2-0.7-3.3-2.3-3.3
			C27.7,18.1,27,19.4,27,21.4z"/>
		<path class="st12" d="M35.1,26.5h1.4c0.2,0.7,0.7,1.2,2.1,1.2c1.6,0,2.4-0.6,2.4-2.4V24h0c-0.4,0.8-1.4,1.6-2.7,1.6
			c-1.8,0-3.4-1.1-3.4-4.2c0-2.8,1.5-4.3,3.6-4.3c1.4,0,2.2,0.8,2.5,1.5h0v-1.3h1.4v8.2c0,2.4-1.6,3.4-3.8,3.4
			C36.9,28.8,35.3,28.2,35.1,26.5z M41,21c0-1.7-0.9-2.8-2.4-2.8c-1.5,0-2.2,1.3-2.2,3.2c0,1.9,0.5,3.1,2.3,3.1
			c1.4,0,2.3-1.2,2.3-2.6V21z"/>
		<path class="st12" d="M44.8,21.4c0-2.6,1.4-4.4,3.8-4.4c2.5,0,3.8,1.8,3.8,4.4c0,2.6-1.4,4.4-3.8,4.4
			C46.1,25.9,44.8,24.1,44.8,21.4z M46.3,21.4c0,2.1,0.7,3.3,2.3,3.3c1.6,0,2.3-1.2,2.3-3.3c0-2-0.7-3.3-2.3-3.3
			C47,18.1,46.3,19.4,46.3,21.4z"/>
		<path class="st12" d="M58.2,17.2h1.5l1.6,5.7c0.1,0.5,0.3,1.1,0.3,1.1h0c0,0,0.2-0.6,0.3-1.1l1.8-5.7h1.5l1.8,5.7
			c0.2,0.5,0.3,1.1,0.3,1.1h0c0,0,0.1-0.6,0.3-1.1l1.7-5.7h1.4L68,25.7h-1.5l-1.5-5c-0.2-0.8-0.5-1.8-0.5-1.8h0c0,0-0.3,1-0.5,1.8
			l-1.6,5h-1.5L58.2,17.2z"/>
		<path class="st12" d="M72.7,13.7h1.5v1.6h-1.5V13.7z M72.7,17.2h1.5v8.4h-1.5V17.2z"/>
		<path class="st12" d="M79.1,14.8v2.4h2.1v1.1h-2.1v5c0,0.9,0.4,1.2,1.3,1.2c0.4,0,0.9-0.1,0.9-0.1v1.2c0,0-0.6,0.1-1.3,0.1
			c-1.6,0-2.3-0.8-2.3-2.2v-5.2h-1.5v-1.1h0.3c1.1,0,1.4-0.3,1.4-1.9v-0.6H79.1z"/>
		<path class="st12" d="M88.7,20.4c0-0.6,0-1.3-0.3-1.7c-0.3-0.4-0.8-0.6-1.3-0.6c-1.6,0-2.3,1-2.3,2.4v5.1h-1.4V13h1.4v5.6h0
			c0.4-0.8,1.3-1.6,2.6-1.6c1.6,0,2.7,0.8,2.7,2.8v5.9h-1.4V20.4z"/>
		<path class="st12" d="M93.2,13.7h1.5v1.6h-1.5V13.7z M93.2,17.2h1.5v8.4h-1.5V17.2z"/>
		<path class="st12" d="M103.2,20.5c0-0.6,0-1.3-0.3-1.7c-0.3-0.4-0.8-0.6-1.3-0.6c-1.6,0-2.3,1-2.3,2.4v5.1h-1.4v-8.4h1.4v1.4h0
			c0.4-0.9,1.4-1.6,2.7-1.6c1.6,0,2.7,0.8,2.7,2.8v5.9h-1.4V20.5z"/>
		<path class="st12" d="M114,14.8v2.4h2.1v1.1H114v5c0,0.9,0.4,1.2,1.3,1.2c0.4,0,0.9-0.1,0.9-0.1v1.2c0,0-0.6,0.1-1.3,0.1
			c-1.6,0-2.3-0.8-2.3-2.2v-5.2h-1.5v-1.1h0.3c1.1,0,1.4-0.3,1.4-1.9v-0.6H114z"/>
		<path class="st12" d="M123.6,20.4c0-0.6,0-1.3-0.3-1.7c-0.3-0.4-0.8-0.6-1.3-0.6c-1.6,0-2.3,1-2.3,2.4v5.1h-1.4V13h1.4v5.6h0
			c0.4-0.8,1.3-1.6,2.6-1.6c1.6,0,2.7,0.8,2.7,2.8v5.9h-1.4V20.4z"/>
		<path class="st12" d="M131.2,25.9c-2.6,0-3.8-1.9-3.8-4.4c0-2.5,1.3-4.5,3.8-4.5c2.5,0,3.5,2,3.5,4.1v0.7h-5.8
			c0.1,1.7,0.8,2.9,2.4,2.9c1.4,0,1.8-0.8,1.9-1.3h1.4C134.2,24.9,133,25.9,131.2,25.9z M133.2,20.6c0-1.4-0.6-2.5-2.1-2.5
			c-1.3,0-2.1,1.1-2.3,2.6L133.2,20.6L133.2,20.6z"/>
		<path class="st12" d="M146.5,19.8c-0.1-0.9-0.7-1.6-1.9-1.6c-1.5,0-2.3,1.3-2.3,3.3c0,2,0.6,3.3,2.3,3.3c1.6,0,2-1.2,2.1-1.8h1.3
			c-0.2,2-1.6,2.9-3.4,2.9c-2.4,0-3.7-1.7-3.7-4.4c0-2.6,1.4-4.5,3.8-4.5c1.7,0,3.2,0.8,3.3,2.8H146.5z"/>
		<path class="st12" d="M150.3,17.2h1.4v1.6h0c0.4-0.9,1.4-1.7,2.7-1.7h0.1v1.5h-0.3c-1.5,0-2.5,0.9-2.5,2.5v4.6h-1.4V17.2z"/>
		<path class="st12" d="M155.8,21.4c0-2.6,1.4-4.4,3.8-4.4c2.5,0,3.8,1.8,3.8,4.4c0,2.6-1.4,4.4-3.8,4.4
			C157.1,25.9,155.8,24.1,155.8,21.4z M157.3,21.4c0,2.1,0.7,3.3,2.3,3.3c1.6,0,2.3-1.2,2.3-3.3c0-2-0.7-3.3-2.3-3.3
			C158.1,18.1,157.3,19.4,157.3,21.4z"/>
		<path class="st12" d="M165.8,17.2h1.4v1.4h0c0.5-0.9,1.4-1.6,2.7-1.6c1.8,0,3.4,1.1,3.4,4.3c0,3.1-1.6,4.5-3.5,4.5
			c-1.2,0-2.2-0.7-2.5-1.4h0v4.2h-1.4V17.2z M169.6,24.7c1.5,0,2.2-1.2,2.2-3.4c0-1.8-0.5-3.2-2.3-3.2c-1.5,0-2.4,1.3-2.4,2.7v0.9
			C167.2,23.4,168,24.7,169.6,24.7z"/>
		<path class="st12" d="M175.7,17.2h1.4v1.4h0c0.5-0.9,1.4-1.6,2.7-1.6c1.8,0,3.4,1.1,3.4,4.3c0,3.1-1.6,4.5-3.5,4.5
			c-1.2,0-2.2-0.7-2.5-1.4h0v4.2h-1.4V17.2z M179.5,24.7c1.5,0,2.2-1.2,2.2-3.4c0-1.8-0.5-3.2-2.3-3.2c-1.5,0-2.4,1.3-2.4,2.7v0.9
			C177.1,23.4,177.9,24.7,179.5,24.7z"/>
		<path class="st12" d="M185.6,13.7h1.5v1.6h-1.5V13.7z M185.7,17.2h1.5v8.4h-1.5V17.2z"/>
		<path class="st12" d="M195.7,20.5c0-0.6,0-1.3-0.3-1.7c-0.3-0.4-0.8-0.6-1.3-0.6c-1.6,0-2.3,1-2.3,2.4v5.1h-1.4v-8.4h1.4v1.4h0
			c0.4-0.9,1.4-1.6,2.7-1.6c1.6,0,2.7,0.8,2.7,2.8v5.9h-1.4V20.5z"/>
		<path class="st12" d="M199.6,26.5h1.4c0.2,0.7,0.7,1.2,2.1,1.2c1.6,0,2.4-0.6,2.4-2.4V24h0c-0.4,0.8-1.4,1.6-2.7,1.6
			c-1.8,0-3.4-1.1-3.4-4.2c0-2.8,1.5-4.3,3.6-4.3c1.4,0,2.2,0.8,2.5,1.5h0v-1.3h1.4v8.2c0,2.4-1.6,3.4-3.8,3.4
			C201.5,28.8,199.8,28.2,199.6,26.5z M205.5,21c0-1.7-0.9-2.8-2.4-2.8c-1.5,0-2.2,1.3-2.2,3.2c0,1.9,0.5,3.1,2.3,3.1
			c1.4,0,2.3-1.2,2.3-2.6V21z"/>
		<path class="st12" d="M214.1,26.5h1.4c0.2,0.7,0.7,1.2,2.1,1.2c1.6,0,2.4-0.6,2.4-2.4V24h0c-0.4,0.8-1.4,1.6-2.7,1.6
			c-1.8,0-3.4-1.1-3.4-4.2c0-2.8,1.5-4.3,3.6-4.3c1.4,0,2.2,0.8,2.5,1.5h0v-1.3h1.4v8.2c0,2.4-1.6,3.4-3.8,3.4
			C215.9,28.8,214.2,28.2,214.1,26.5z M220,21c0-1.7-0.9-2.8-2.4-2.8c-1.5,0-2.2,1.3-2.2,3.2c0,1.9,0.5,3.1,2.3,3.1
			c1.4,0,2.3-1.2,2.3-2.6V21z"/>
		<path class="st12" d="M225.8,22.4c0,0.6,0,1.3,0.3,1.7c0.3,0.4,0.7,0.6,1.3,0.6c1.6,0,2.3-1,2.3-2.9v-4.6h1.4v8.4h-1.4v-1.4h0
			c-0.4,0.9-1.3,1.6-2.7,1.6c-1.6,0-2.7-0.8-2.7-2.8v-5.9h1.4V22.4z"/>
		<path class="st12" d="M234.3,13.7h1.5v1.6h-1.5V13.7z M234.3,17.2h1.5v8.4h-1.5V17.2z"/>
		<path class="st12" d="M245.7,25.7h-1.4v-1.4h0c-0.4,0.8-1.4,1.6-2.7,1.6c-1.8,0-3.4-1.1-3.4-4.4c0-2.9,1.5-4.5,3.6-4.5
			c1.3,0,2.1,0.7,2.4,1.5h0V13h1.4V25.7z M244.3,21.1c0-1.8-0.9-2.9-2.3-2.9c-1.6,0-2.4,1.3-2.4,3.3c0,1.9,0.6,3.3,2.2,3.3
			c1.5,0,2.4-1.2,2.4-2.7V21.1z"/>
		<path class="st12" d="M251.9,25.9c-2.6,0-3.8-1.9-3.8-4.4c0-2.5,1.3-4.5,3.8-4.5c2.5,0,3.5,2,3.5,4.1v0.7h-5.8
			c0.1,1.7,0.8,2.9,2.4,2.9c1.4,0,1.8-0.8,1.9-1.3h1.4C255,24.9,253.7,25.9,251.9,25.9z M253.9,20.6c0-1.4-0.6-2.5-2.1-2.5
			c-1.3,0-2.1,1.1-2.3,2.6L253.9,20.6L253.9,20.6z"/>
		<path class="st12" d="M262,19.3c-0.1-0.8-0.7-1.2-1.7-1.2s-1.6,0.6-1.6,1.4c0,0.7,0.4,1,1.3,1.2l1.3,0.2c1.8,0.3,2.4,1,2.4,2.4
			c0,1.7-1.4,2.6-3.3,2.6c-1.7,0-3.2-0.8-3.3-2.6h1.4c0.1,0.7,0.4,1.5,1.9,1.5c1.2,0,1.9-0.5,1.9-1.4c0-0.7-0.2-1-1.3-1.2l-1.3-0.2
			c-1.5-0.2-2.3-0.9-2.3-2.3c0-1.5,1.1-2.6,3.1-2.6c1.8,0,2.9,0.8,3,2.3H262z"/>
		<path class="st12" d="M265.5,23.7h2v2h-2V23.7z"/>
		<path class="st12" d="M-74.4,49.8h4.5v1.3h-4.5V49.8z"/>
		<path class="st12" d="M-57.8,43.2c3,0,5.5,2,5.5,6.3c0,4.4-2.5,6.3-5.5,6.3c-3,0-5.5-2-5.5-6.3C-63.2,45.2-60.7,43.2-57.8,43.2z
			 M-53.8,49.6c0-3.4-1.6-5.2-4-5.2c-2.3,0-3.9,1.7-3.9,5.2c0,3.3,1.6,5.1,3.9,5.1C-55.5,54.7-53.8,52.9-53.8,49.6z"/>
		<path class="st12" d="M-48.1,52.4c0,0.6,0,1.3,0.3,1.7c0.3,0.4,0.7,0.6,1.3,0.6c1.6,0,2.3-1,2.3-2.9v-4.6h1.4v8.4h-1.4v-1.4h0
			c-0.4,0.9-1.3,1.6-2.7,1.6c-1.6,0-2.7-0.8-2.7-2.8v-5.9h1.4V52.4z"/>
		<path class="st12" d="M-37.8,44.8v2.4h2.1v1.1h-2.1v5c0,0.9,0.4,1.2,1.3,1.2c0.4,0,0.9-0.1,0.9-0.1v1.2c0,0-0.6,0.1-1.3,0.1
			c-1.6,0-2.3-0.8-2.3-2.2v-5.2h-1.5v-1.1h0.3c1.1,0,1.4-0.3,1.4-1.9v-0.6H-37.8z"/>
		<path class="st12" d="M-33.6,43h1.4v12.6h-1.4V43z"/>
		<path class="st12" d="M-29.1,43.7h1.5v1.6h-1.5V43.7z M-29,47.2h1.5v8.4H-29V47.2z"/>
		<path class="st12" d="M-19.1,50.5c0-0.6,0-1.3-0.3-1.7c-0.3-0.4-0.8-0.6-1.3-0.6c-1.6,0-2.3,1-2.3,2.4v5.1h-1.4v-8.4h1.4v1.4h0
			c0.4-0.9,1.4-1.6,2.7-1.6c1.6,0,2.7,0.8,2.7,2.8v5.9h-1.4V50.5z"/>
		<path class="st12" d="M-11.5,55.9c-2.6,0-3.8-1.9-3.8-4.4c0-2.5,1.3-4.5,3.8-4.5C-9,47-8,49-8,51.1v0.7h-5.8
			c0.1,1.7,0.8,2.9,2.4,2.9c1.4,0,1.8-0.8,1.9-1.3h1.4C-8.4,54.9-9.7,55.9-11.5,55.9z M-9.5,50.6c0-1.4-0.6-2.5-2.1-2.5
			c-1.3,0-2.1,1.1-2.3,2.6L-9.5,50.6L-9.5,50.6z"/>
		<path class="st12" d="M-1.4,49.5c0-1.5,1.2-2.5,3.2-2.5c2.1,0,3.1,0.9,3.1,3.1v3.4c0,0.7,0.1,0.9,0.8,1v1.2H5.5
			c-1.3,0-1.8-0.5-1.9-1.5h0c-0.4,1-1.5,1.6-2.7,1.6c-1.7,0-2.7-0.9-2.7-2.4c0-0.9,0.4-1.7,1.3-2.1c0.9-0.5,2.2-0.6,4.1-0.7v-0.4
			c0-1.5-0.6-2.1-1.8-2.1c-1.2,0-1.7,0.7-1.8,1.4H-1.4z M3.5,51.8v-0.2c-1.8,0.1-2.9,0.2-3.4,0.6c-0.3,0.2-0.5,0.6-0.5,1
			c0,0.9,0.6,1.3,1.5,1.3C2.2,54.6,3.5,53.9,3.5,51.8z"/>
		<path class="st12" d="M7.9,43h1.4v12.6H7.9V43z"/>
		<path class="st12" d="M12.5,43H14v12.6h-1.4V43z"/>
		<path class="st12" d="M23.4,55.7H22v-7.3h-1.5v-1.1H22v-1.9c0-1.7,1-2.3,2.6-2.3c0.3,0,0.6,0,0.9,0.1v1.2c-0.2,0-0.4-0.1-0.8-0.1
			c-0.8,0-1.2,0.3-1.2,1.3v1.7h2v1.1h-2V55.7z"/>
		<path class="st12" d="M26.6,51.4c0-2.6,1.4-4.4,3.8-4.4c2.5,0,3.8,1.8,3.8,4.4c0,2.6-1.4,4.4-3.8,4.4
			C27.9,55.9,26.6,54.1,26.6,51.4z M28.1,51.4c0,2.1,0.7,3.3,2.3,3.3c1.6,0,2.3-1.2,2.3-3.3c0-2-0.7-3.3-2.3-3.3
			C28.9,48.1,28.1,49.4,28.1,51.4z"/>
		<path class="st12" d="M42,50.5c0-0.6,0-1.3-0.3-1.7c-0.3-0.4-0.8-0.6-1.3-0.6c-1.6,0-2.3,1-2.3,2.4v5.1h-1.4v-8.4H38v1.4h0
			c0.4-0.9,1.4-1.6,2.7-1.6c1.6,0,2.7,0.8,2.7,2.8v5.9H42V50.5z"/>
		<path class="st12" d="M48.3,44.8v2.4h2.1v1.1h-2.1v5c0,0.9,0.4,1.2,1.3,1.2c0.4,0,0.9-0.1,0.9-0.1v1.2c0,0-0.6,0.1-1.3,0.1
			c-1.6,0-2.3-0.8-2.3-2.2v-5.2h-1.5v-1.1h0.3c1.1,0,1.4-0.3,1.4-1.9v-0.6H48.3z"/>
		<path class="st12" d="M56.7,49.3c-0.1-0.8-0.7-1.2-1.7-1.2s-1.6,0.6-1.6,1.4c0,0.7,0.4,1,1.3,1.2l1.3,0.2c1.8,0.3,2.4,1,2.4,2.4
			c0,1.7-1.4,2.6-3.3,2.6c-1.7,0-3.2-0.8-3.3-2.6h1.4c0.1,0.7,0.4,1.5,1.9,1.5c1.2,0,1.9-0.5,1.9-1.4c0-0.7-0.2-1-1.3-1.2l-1.3-0.2
			C52.8,51.7,52,51,52,49.6c0-1.5,1.1-2.6,3.1-2.6c1.8,0,2.9,0.8,3,2.3H56.7z"/>
		<path class="st12" d="M66.6,52.4c0,0.6,0,1.3,0.3,1.7c0.3,0.4,0.7,0.6,1.3,0.6c1.6,0,2.3-1,2.3-2.9v-4.6H72v8.4h-1.4v-1.4h0
			c-0.4,0.9-1.3,1.6-2.7,1.6c-1.6,0-2.7-0.8-2.7-2.8v-5.9h1.4V52.4z"/>
		<path class="st12" d="M79.3,49.3c-0.1-0.8-0.7-1.2-1.7-1.2S76,48.7,76,49.5c0,0.7,0.4,1,1.3,1.2l1.3,0.2c1.8,0.3,2.4,1,2.4,2.4
			c0,1.7-1.4,2.6-3.3,2.6c-1.7,0-3.2-0.8-3.3-2.6h1.4c0.1,0.7,0.4,1.5,1.9,1.5c1.2,0,1.9-0.5,1.9-1.4c0-0.7-0.2-1-1.3-1.2l-1.3-0.2
			c-1.5-0.2-2.3-0.9-2.3-2.3c0-1.5,1.1-2.6,3.1-2.6c1.8,0,2.9,0.8,3,2.3H79.3z"/>
		<path class="st12" d="M86.5,55.9c-2.6,0-3.8-1.9-3.8-4.4c0-2.5,1.3-4.5,3.8-4.5c2.5,0,3.5,2,3.5,4.1v0.7h-5.8
			c0.1,1.7,0.8,2.9,2.4,2.9c1.4,0,1.8-0.8,1.9-1.3h1.4C89.5,54.9,88.3,55.9,86.5,55.9z M88.5,50.6c0-1.4-0.6-2.5-2.1-2.5
			c-1.3,0-2.1,1.1-2.3,2.6L88.5,50.6L88.5,50.6z"/>
		<path class="st12" d="M99.2,55.7h-1.4v-1.4h0c-0.4,0.8-1.4,1.6-2.7,1.6c-1.8,0-3.4-1.1-3.4-4.4c0-2.9,1.5-4.5,3.6-4.5
			c1.3,0,2.1,0.7,2.4,1.5h0V43h1.4V55.7z M97.8,51.1c0-1.8-0.9-2.9-2.3-2.9c-1.6,0-2.4,1.3-2.4,3.3c0,1.9,0.6,3.3,2.2,3.3
			c1.5,0,2.4-1.2,2.4-2.7V51.1z"/>
		<path class="st12" d="M106.9,43.7h1.5v1.6h-1.5V43.7z M106.9,47.2h1.5v8.4h-1.5V47.2z"/>
		<path class="st12" d="M116.9,50.5c0-0.6,0-1.3-0.3-1.7c-0.3-0.4-0.8-0.6-1.3-0.6c-1.6,0-2.3,1-2.3,2.4v5.1h-1.4v-8.4h1.4v1.4h0
			c0.4-0.9,1.4-1.6,2.7-1.6c1.6,0,2.7,0.8,2.7,2.8v5.9h-1.4V50.5z"/>
		<path class="st12" d="M125,47.2h1.4l1.8,5.3c0.3,0.8,0.4,1.3,0.4,1.3h0c0,0,0.1-0.5,0.4-1.3l1.7-5.3h1.4l-3.1,9
			c-0.7,1.9-1.2,2.7-3.1,2.7c-0.3,0-0.6,0-0.9-0.1v-1.2c0.3,0.1,0.6,0.1,0.7,0.1c1.1,0,1.4-0.4,1.8-1.5l0.2-0.4L125,47.2z"/>
		<path class="st12" d="M133.6,51.4c0-2.6,1.4-4.4,3.8-4.4c2.5,0,3.8,1.8,3.8,4.4c0,2.6-1.4,4.4-3.8,4.4
			C134.9,55.9,133.6,54.1,133.6,51.4z M135.1,51.4c0,2.1,0.7,3.3,2.3,3.3c1.6,0,2.3-1.2,2.3-3.3c0-2-0.7-3.3-2.3-3.3
			C135.8,48.1,135.1,49.4,135.1,51.4z"/>
		<path class="st12" d="M145,52.4c0,0.6,0,1.3,0.3,1.7c0.3,0.4,0.7,0.6,1.3,0.6c1.6,0,2.3-1,2.3-2.9v-4.6h1.4v8.4h-1.4v-1.4h0
			c-0.4,0.9-1.3,1.6-2.7,1.6c-1.6,0-2.7-0.8-2.7-2.8v-5.9h1.4V52.4z"/>
		<path class="st12" d="M153.5,47.2h1.4v1.6h0c0.4-0.9,1.4-1.7,2.7-1.7h0.1v1.5h-0.3c-1.5,0-2.5,0.9-2.5,2.5v4.6h-1.4V47.2z"/>
		<path class="st12" d="M171.2,55.7h-1.4v-1.4h0c-0.4,0.8-1.4,1.6-2.7,1.6c-1.8,0-3.4-1.1-3.4-4.4c0-2.9,1.5-4.5,3.6-4.5
			c1.3,0,2.1,0.7,2.4,1.5h0V43h1.4V55.7z M169.8,51.1c0-1.8-0.9-2.9-2.3-2.9c-1.6,0-2.4,1.3-2.4,3.3c0,1.9,0.6,3.3,2.2,3.3
			c1.5,0,2.4-1.2,2.4-2.7V51.1z"/>
		<path class="st12" d="M177.4,55.9c-2.6,0-3.8-1.9-3.8-4.4c0-2.5,1.3-4.5,3.8-4.5c2.5,0,3.5,2,3.5,4.1v0.7H175
			c0.1,1.7,0.8,2.9,2.4,2.9c1.4,0,1.8-0.8,1.9-1.3h1.4C180.4,54.9,179.2,55.9,177.4,55.9z M179.4,50.6c0-1.4-0.6-2.5-2.1-2.5
			c-1.3,0-2.1,1.1-2.3,2.6L179.4,50.6L179.4,50.6z"/>
		<path class="st12" d="M187.4,49.3c-0.1-0.8-0.7-1.2-1.7-1.2s-1.6,0.6-1.6,1.4c0,0.7,0.4,1,1.3,1.2l1.3,0.2c1.8,0.3,2.4,1,2.4,2.4
			c0,1.7-1.4,2.6-3.3,2.6c-1.7,0-3.2-0.8-3.3-2.6h1.4c0.1,0.7,0.4,1.5,1.9,1.5c1.2,0,1.9-0.5,1.9-1.4c0-0.7-0.2-1-1.3-1.2l-1.3-0.2
			c-1.5-0.2-2.3-0.9-2.3-2.3c0-1.5,1.1-2.6,3.1-2.6c1.8,0,2.9,0.8,3,2.3H187.4z"/>
		<path class="st12" d="M191.5,43.7h1.5v1.6h-1.5V43.7z M191.6,47.2h1.5v8.4h-1.5V47.2z"/>
		<path class="st12" d="M195.7,56.5h1.4c0.2,0.7,0.7,1.2,2.1,1.2c1.6,0,2.4-0.6,2.4-2.4V54h0c-0.4,0.8-1.4,1.6-2.7,1.6
			c-1.8,0-3.4-1.1-3.4-4.2c0-2.8,1.5-4.3,3.6-4.3c1.4,0,2.2,0.8,2.5,1.5h0v-1.3h1.4v8.2c0,2.4-1.6,3.4-3.8,3.4
			C197.5,58.8,195.8,58.2,195.7,56.5z M201.6,51c0-1.7-0.9-2.8-2.4-2.8c-1.5,0-2.2,1.3-2.2,3.2c0,1.9,0.5,3.1,2.3,3.1
			c1.4,0,2.3-1.2,2.3-2.6V51z"/>
		<path class="st12" d="M211.5,50.5c0-0.6,0-1.3-0.3-1.7c-0.3-0.4-0.8-0.6-1.3-0.6c-1.6,0-2.3,1-2.3,2.4v5.1h-1.4v-8.4h1.4v1.4h0
			c0.4-0.9,1.4-1.6,2.7-1.6c1.6,0,2.7,0.8,2.7,2.8v5.9h-1.4V50.5z"/>
		<path class="st12" d="M215.4,53.7h2v2h-2V53.7z"/>
		<path class="st12" d="M-74.4,79.8h4.5v1.3h-4.5V79.8z"/>
		<path class="st12" d="M-62.7,73.4h7.8v1.3h-6.3v4.1h5.8v1.3h-5.8v4.2h6.4v1.3h-7.9V73.4z"/>
		<path class="st12" d="M-50.1,81.3l-2.7-4.1h1.7l1.8,2.9h0l1.9-2.9h1.6l-2.7,4l2.9,4.4h-1.7l-2.1-3.3h0l-2.1,3.3H-53L-50.1,81.3z"
			/>
		<path class="st12" d="M-43.6,77.2h1.4v1.4h0c0.5-0.9,1.4-1.6,2.7-1.6c1.8,0,3.4,1.1,3.4,4.3c0,3.1-1.6,4.5-3.5,4.5
			c-1.2,0-2.2-0.7-2.5-1.4h0v4.2h-1.4V77.2z M-39.8,84.7c1.5,0,2.2-1.2,2.2-3.4c0-1.8-0.5-3.2-2.3-3.2c-1.5,0-2.4,1.3-2.4,2.7v0.9
			C-42.2,83.4-41.4,84.7-39.8,84.7z"/>
		<path class="st12" d="M-34.3,81.4c0-2.6,1.4-4.4,3.8-4.4c2.5,0,3.8,1.8,3.8,4.4c0,2.6-1.4,4.4-3.8,4.4
			C-33,85.9-34.3,84.1-34.3,81.4z M-32.8,81.4c0,2.1,0.7,3.3,2.3,3.3c1.6,0,2.3-1.2,2.3-3.3c0-2-0.7-3.3-2.3-3.3
			C-32.1,78.1-32.8,79.4-32.8,81.4z"/>
		<path class="st12" d="M-24.3,77.2h1.4v1.6h0c0.4-0.9,1.4-1.7,2.7-1.7h0.1v1.5h-0.3c-1.5,0-2.5,0.9-2.5,2.5v4.6h-1.4V77.2z"/>
		<path class="st12" d="M-15.9,74.8v2.4h2.1v1.1h-2.1v5c0,0.9,0.4,1.2,1.3,1.2c0.4,0,0.9-0.1,0.9-0.1v1.2c0,0-0.6,0.1-1.3,0.1
			c-1.6,0-2.3-0.8-2.3-2.2v-5.2h-1.5v-1.1h0.3c1.1,0,1.4-0.3,1.4-1.9v-0.6H-15.9z"/>
		<path class="st12" d="M-7.5,79.5c0-1.5,1.2-2.5,3.2-2.5c2.1,0,3.1,0.9,3.1,3.1v3.4c0,0.7,0.1,0.9,0.8,1v1.2h-0.2
			c-1.3,0-1.8-0.5-1.9-1.5h0c-0.4,1-1.5,1.6-2.7,1.6c-1.7,0-2.7-0.9-2.7-2.4c0-0.9,0.4-1.7,1.3-2.1c0.9-0.5,2.2-0.6,4.1-0.7v-0.4
			c0-1.5-0.6-2.1-1.8-2.1c-1.2,0-1.7,0.7-1.8,1.4H-7.5z M-2.6,81.8v-0.2c-1.8,0.1-2.9,0.2-3.4,0.6c-0.3,0.2-0.5,0.6-0.5,1
			c0,0.9,0.6,1.3,1.5,1.3C-3.9,84.6-2.6,83.9-2.6,81.8z"/>
		<path class="st12" d="M7.2,80.5c0-0.6,0-1.3-0.3-1.7c-0.3-0.4-0.8-0.6-1.3-0.6c-1.6,0-2.3,1-2.3,2.4v5.1H1.8v-8.4h1.4v1.4h0
			C3.6,77.8,4.6,77,5.9,77c1.6,0,2.7,0.8,2.7,2.8v5.9H7.2V80.5z"/>
		<path class="st12" d="M18.5,85.7h-1.4v-1.4h0c-0.4,0.8-1.4,1.6-2.7,1.6c-1.8,0-3.4-1.1-3.4-4.4c0-2.9,1.5-4.5,3.6-4.5
			c1.3,0,2.1,0.7,2.4,1.5h0V73h1.4V85.7z M17.1,81.1c0-1.8-0.9-2.9-2.3-2.9c-1.6,0-2.4,1.3-2.4,3.3c0,1.9,0.6,3.3,2.2,3.3
			c1.5,0,2.4-1.2,2.4-2.7V81.1z"/>
		<path class="st12" d="M30.3,79.3c-0.1-0.8-0.7-1.2-1.7-1.2S27,78.7,27,79.5c0,0.7,0.4,1,1.3,1.2l1.3,0.2c1.8,0.3,2.4,1,2.4,2.4
			c0,1.7-1.4,2.6-3.3,2.6c-1.7,0-3.2-0.8-3.3-2.6h1.4c0.1,0.7,0.4,1.5,1.9,1.5c1.2,0,1.9-0.5,1.9-1.4c0-0.7-0.2-1-1.3-1.2l-1.3-0.2
			c-1.5-0.2-2.3-0.9-2.3-2.3c0-1.5,1.1-2.6,3.1-2.6c1.8,0,2.9,0.8,3,2.3H30.3z"/>
		<path class="st12" d="M35.7,82.4c0,0.6,0,1.3,0.3,1.7c0.3,0.4,0.7,0.6,1.3,0.6c1.6,0,2.3-1,2.3-2.9v-4.6H41v8.4h-1.4v-1.4h0
			c-0.4,0.9-1.3,1.6-2.7,1.6c-1.6,0-2.7-0.8-2.7-2.8v-5.9h1.4V82.4z"/>
		<path class="st12" d="M44.2,73h1.4v5.6h0c0.5-0.9,1.4-1.6,2.7-1.6c1.8,0,3.4,1.1,3.4,4.3c0,3.1-1.6,4.5-3.5,4.5
			c-1.3,0-2.2-0.7-2.6-1.6h0v1.3h-1.4V73z M50.2,81.3c0-1.8-0.5-3.2-2.3-3.2c-1.5,0-2.4,1.3-2.4,2.7v0.9c0,1.7,0.8,3,2.4,3
			C49.5,84.7,50.2,83.5,50.2,81.3z"/>
		<path class="st12" d="M54.1,77.2h1.4v1.4h0c0.4-0.9,1.4-1.6,2.7-1.6c1.3,0,2.2,0.6,2.5,1.7h0c0.3-0.9,1.4-1.7,2.8-1.7
			c1.6,0,2.7,0.8,2.7,2.8v5.9h-1.4v-5.2c0-0.6,0-1.3-0.3-1.7c-0.3-0.4-0.8-0.5-1.3-0.5c-1.6,0-2.3,1-2.3,2.4v5.1h-1.4v-5.2
			c0-0.6,0-1.2-0.3-1.7c-0.3-0.4-0.8-0.6-1.3-0.6c-1.6,0-2.3,1-2.3,2.4v5.1h-1.4V77.2z"/>
		<path class="st12" d="M69.3,73.7h1.5v1.6h-1.5V73.7z M69.3,77.2h1.5v8.4h-1.5V77.2z"/>
		<path class="st12" d="M75.7,74.8v2.4h2.1v1.1h-2.1v5c0,0.9,0.4,1.2,1.3,1.2c0.4,0,0.9-0.1,0.9-0.1v1.2c0,0-0.6,0.1-1.3,0.1
			c-1.6,0-2.3-0.8-2.3-2.2v-5.2h-1.5v-1.1H73c1.1,0,1.4-0.3,1.4-1.9v-0.6H75.7z"/>
		<path class="st12" d="M84.4,73h1.4v12.6h-1.4V73z"/>
		<path class="st12" d="M88.2,81.4c0-2.6,1.4-4.4,3.8-4.4c2.5,0,3.8,1.8,3.8,4.4c0,2.6-1.4,4.4-3.8,4.4
			C89.5,85.9,88.2,84.1,88.2,81.4z M89.7,81.4c0,2.1,0.7,3.3,2.3,3.3c1.6,0,2.3-1.2,2.3-3.3c0-2-0.7-3.3-2.3-3.3
			C90.5,78.1,89.7,79.4,89.7,81.4z"/>
		<path class="st12" d="M97.8,86.5h1.4c0.2,0.7,0.7,1.2,2.1,1.2c1.6,0,2.4-0.6,2.4-2.4V84h0c-0.4,0.8-1.4,1.6-2.7,1.6
			c-1.8,0-3.4-1.1-3.4-4.2c0-2.8,1.5-4.3,3.6-4.3c1.4,0,2.2,0.8,2.5,1.5h0v-1.3h1.4v8.2c0,2.4-1.6,3.4-3.8,3.4
			C99.7,88.8,98,88.2,97.8,86.5z M103.8,81c0-1.7-0.9-2.8-2.4-2.8c-1.5,0-2.2,1.3-2.2,3.2c0,1.9,0.5,3.1,2.3,3.1
			c1.4,0,2.3-1.2,2.3-2.6V81z"/>
		<path class="st12" d="M107.5,81.4c0-2.6,1.4-4.4,3.8-4.4c2.5,0,3.8,1.8,3.8,4.4c0,2.6-1.4,4.4-3.8,4.4
			C108.8,85.9,107.5,84.1,107.5,81.4z M109,81.4c0,2.1,0.7,3.3,2.3,3.3c1.6,0,2.3-1.2,2.3-3.3c0-2-0.7-3.3-2.3-3.3
			C109.8,78.1,109,79.4,109,81.4z"/>
		<path class="st12" d="M121.8,79.3c-0.1-0.8-0.7-1.2-1.7-1.2s-1.6,0.6-1.6,1.4c0,0.7,0.4,1,1.3,1.2l1.3,0.2c1.8,0.3,2.4,1,2.4,2.4
			c0,1.7-1.4,2.6-3.3,2.6c-1.7,0-3.2-0.8-3.3-2.6h1.4c0.1,0.7,0.4,1.5,1.9,1.5c1.2,0,1.9-0.5,1.9-1.4c0-0.7-0.2-1-1.3-1.2l-1.3-0.2
			c-1.5-0.2-2.3-0.9-2.3-2.3c0-1.5,1.1-2.6,3.1-2.6c1.8,0,2.9,0.8,3,2.3H121.8z"/>
		<path class="st12" d="M130,79.5c0-1.5,1.2-2.5,3.2-2.5c2.1,0,3.1,0.9,3.1,3.1v3.4c0,0.7,0.1,0.9,0.8,1v1.2h-0.2
			c-1.3,0-1.8-0.5-1.9-1.5h0c-0.4,1-1.5,1.6-2.7,1.6c-1.7,0-2.7-0.9-2.7-2.4c0-0.9,0.4-1.7,1.3-2.1c0.9-0.5,2.2-0.6,4.1-0.7v-0.4
			c0-1.5-0.6-2.1-1.8-2.1c-1.2,0-1.7,0.7-1.8,1.4H130z M134.9,81.8v-0.2c-1.8,0.1-2.9,0.2-3.4,0.6c-0.3,0.2-0.5,0.6-0.5,1
			c0,0.9,0.6,1.3,1.5,1.3C133.6,84.6,134.9,83.9,134.9,81.8z"/>
		<path class="st12" d="M141.1,74.8v2.4h2.1v1.1h-2.1v5c0,0.9,0.4,1.2,1.3,1.2c0.4,0,0.9-0.1,0.9-0.1v1.2c0,0-0.6,0.1-1.3,0.1
			c-1.6,0-2.3-0.8-2.3-2.2v-5.2h-1.5v-1.1h0.3c1.1,0,1.4-0.3,1.4-1.9v-0.6H141.1z"/>
		<path class="st12" d="M151.6,76.9h-2.4v-1h0.4c0.8,0,1.4-0.2,1.7-0.6c0.4-0.4,0.5-0.8,0.5-1.6h1.2v11.9h-1.5V76.9z"/>
		<path class="st12" d="M160.6,73.6c2.6,0,4.3,2,4.3,6.1c0,4.1-1.7,6.1-4.3,6.1c-2.6,0-4.2-2-4.2-6.1
			C156.3,75.6,158,73.6,160.6,73.6z M163.3,79.8c0-3.3-1-5-2.7-5c-1.7,0-2.7,1.6-2.7,5c0,3.3,1,4.9,2.7,4.9
			C162.2,84.7,163.3,83,163.3,79.8z"/>
		<path class="st12" d="M171.5,73.6c2.6,0,4.3,2,4.3,6.1c0,4.1-1.7,6.1-4.3,6.1c-2.6,0-4.2-2-4.2-6.1
			C167.3,75.6,169,73.6,171.5,73.6z M174.3,79.8c0-3.3-1-5-2.7-5c-1.7,0-2.7,1.6-2.7,5c0,3.3,1,4.9,2.7,4.9
			C173.2,84.7,174.3,83,174.3,79.8z"/>
		<path class="st12" d="M182.5,73.6c2.6,0,4.3,2,4.3,6.1c0,4.1-1.7,6.1-4.3,6.1c-2.6,0-4.2-2-4.2-6.1
			C178.3,75.6,179.9,73.6,182.5,73.6z M185.2,79.8c0-3.3-1-5-2.7-5c-1.7,0-2.7,1.6-2.7,5c0,3.3,1,4.9,2.7,4.9
			C184.2,84.7,185.2,83,185.2,79.8z"/>
		<path class="st12" d="M189.5,77.2h1.4v1.4h0c0.5-0.9,1.4-1.6,2.7-1.6c1.8,0,3.4,1.1,3.4,4.3c0,3.1-1.6,4.5-3.5,4.5
			c-1.2,0-2.2-0.7-2.5-1.4h0v4.2h-1.4V77.2z M193.4,84.7c1.5,0,2.2-1.2,2.2-3.4c0-1.8-0.5-3.2-2.3-3.2c-1.5,0-2.4,1.3-2.4,2.7v0.9
			C190.9,83.4,191.8,84.7,193.4,84.7z"/>
		<path class="st12" d="M201,81.3l-2.7-4.1h1.7l1.8,2.9h0l1.9-2.9h1.6l-2.7,4l2.9,4.4h-1.7l-2.1-3.3h0l-2.1,3.3h-1.6L201,81.3z"/>
		<path class="st12" d="M216.3,79.3c-0.1-0.8-0.7-1.2-1.7-1.2s-1.6,0.6-1.6,1.4c0,0.7,0.4,1,1.3,1.2l1.3,0.2c1.8,0.3,2.4,1,2.4,2.4
			c0,1.7-1.4,2.6-3.3,2.6c-1.7,0-3.2-0.8-3.3-2.6h1.4c0.1,0.7,0.4,1.5,1.9,1.5c1.2,0,1.9-0.5,1.9-1.4c0-0.7-0.2-1-1.3-1.2l-1.3-0.2
			c-1.5-0.2-2.3-0.9-2.3-2.3c0-1.5,1.1-2.6,3.1-2.6c1.8,0,2.9,0.8,3,2.3H216.3z"/>
		<path class="st12" d="M227.2,88.7h-1.4v-4.3h0c-0.4,0.8-1.3,1.5-2.6,1.5c-1.8,0-3.4-1.1-3.4-4.4c0-2.9,1.5-4.5,3.6-4.5
			c1.3,0,2.1,0.7,2.4,1.5h0v-1.3h1.4V88.7z M225.8,82v-0.9c0-1.8-0.9-2.9-2.3-2.9c-1.6,0-2.4,1.3-2.4,3.3c0,1.9,0.6,3.3,2.2,3.3
			C224.8,84.7,225.8,83.5,225.8,82z"/>
		<path class="st12" d="M231.6,82.4c0,0.6,0,1.3,0.3,1.7c0.3,0.4,0.7,0.6,1.3,0.6c1.6,0,2.3-1,2.3-2.9v-4.6h1.4v8.4h-1.4v-1.4h0
			c-0.4,0.9-1.3,1.6-2.7,1.6c-1.6,0-2.7-0.8-2.7-2.8v-5.9h1.4V82.4z"/>
		<path class="st12" d="M239.7,79.5c0-1.5,1.2-2.5,3.2-2.5c2.1,0,3.1,0.9,3.1,3.1v3.4c0,0.7,0.1,0.9,0.8,1v1.2h-0.2
			c-1.3,0-1.8-0.5-1.9-1.5h0c-0.4,1-1.5,1.6-2.7,1.6c-1.7,0-2.7-0.9-2.7-2.4c0-0.9,0.4-1.7,1.3-2.1c0.9-0.5,2.2-0.6,4.1-0.7v-0.4
			c0-1.5-0.6-2.1-1.8-2.1c-1.2,0-1.7,0.7-1.8,1.4H239.7z M244.6,81.8v-0.2c-1.8,0.1-2.9,0.2-3.4,0.6c-0.3,0.2-0.5,0.6-0.5,1
			c0,0.9,0.6,1.3,1.5,1.3C243.3,84.6,244.6,83.9,244.6,81.8z"/>
		<path class="st12" d="M249.1,77.2h1.4v1.6h0c0.4-0.9,1.4-1.7,2.7-1.7h0.1v1.5H253c-1.5,0-2.5,0.9-2.5,2.5v4.6h-1.4V77.2z"/>
		<path class="st12" d="M258.4,85.9c-2.6,0-3.8-1.9-3.8-4.4c0-2.5,1.3-4.5,3.8-4.5c2.5,0,3.5,2,3.5,4.1v0.7H256
			c0.1,1.7,0.8,2.9,2.4,2.9c1.4,0,1.8-0.8,1.9-1.3h1.4C261.4,84.9,260.2,85.9,258.4,85.9z M260.4,80.6c0-1.4-0.6-2.5-2.1-2.5
			c-1.3,0-2.1,1.1-2.3,2.6L260.4,80.6L260.4,80.6z"/>
		<path class="st12" d="M270.6,74.8v2.4h2.1v1.1h-2.1v5c0,0.9,0.4,1.2,1.3,1.2c0.4,0,0.9-0.1,0.9-0.1v1.2c0,0-0.6,0.1-1.3,0.1
			c-1.6,0-2.3-0.8-2.3-2.2v-5.2h-1.5v-1.1h0.3c1.1,0,1.4-0.3,1.4-1.9v-0.6H270.6z"/>
		<path class="st12" d="M274.2,81.4c0-2.6,1.4-4.4,3.8-4.4c2.5,0,3.8,1.8,3.8,4.4c0,2.6-1.4,4.4-3.8,4.4
			C275.4,85.9,274.2,84.1,274.2,81.4z M275.7,81.4c0,2.1,0.7,3.3,2.3,3.3c1.6,0,2.3-1.2,2.3-3.3c0-2-0.7-3.3-2.3-3.3
			C276.4,78.1,275.7,79.4,275.7,81.4z"/>
		<path class="st12" d="M283.8,77.2h2v2h-2V77.2z M283.8,85.7v-2h2v2H283.8z"/>
		<path class="st12" d="M-56.4,109.8h4.5v1.3h-4.5V109.8z"/>
		<path class="st12" d="M-45.9,115.7v-1.3h0.3c2.6,0,3-0.7,3-2.5v-8.5h1.5v8.7c0,2.6-1.4,3.6-4.1,3.6H-45.9z"/>
		<path class="st12" d="M-36.2,111v4.7h-1.5v-12.2h3.7c2.4,0,4.2,1.1,4.2,3.8c0,2.6-1.8,3.8-4.3,3.8H-36.2z M-34.1,109.8
			c1.8,0,2.8-0.9,2.8-2.6c0-1.8-1-2.6-2.8-2.6h-2.1v5.2H-34.1z"/>
		<path class="st12" d="M-26.3,109.6c0,3.2,1.4,5.1,3.9,5.1c2.3,0,3.7-1.3,3.7-3.7v-0.2h-3.5v-1.3h5v6.2h-1.3v-1.8h-0.1
			c-0.6,1.1-1.8,2-3.8,2c-3.1,0-5.4-2-5.4-6.3c0-4,2.4-6.4,5.6-6.4c2.5,0,4.3,1.3,4.6,3.4h-1.6c-0.2-1.4-1.5-2.2-3.1-2.2
			C-24.9,104.4-26.3,106.5-26.3,109.6z"/>
		<path class="st12" d="M-14.2,113.7h1.8l-1.3,3.8h-1L-14.2,113.7z"/>
		<path class="st12" d="M-4.1,111v4.7h-1.5v-12.2h3.7c2.4,0,4.2,1.1,4.2,3.8c0,2.6-1.8,3.8-4.3,3.8H-4.1z M-2,109.8
			c1.8,0,2.8-0.9,2.8-2.6c0-1.8-1-2.6-2.8-2.6h-2.1v5.2H-2z"/>
		<path class="st12" d="M4.8,103.4h1.9l5.4,9.1c0.4,0.7,0.6,1.2,0.6,1.2h0v-10.3h1.4v12.2h-1.9l-5.4-9.1c-0.5-0.8-0.6-1.2-0.6-1.2h0
			v10.3H4.8V103.4z"/>
		<path class="st12" d="M18.7,109.6c0,3.2,1.4,5.1,3.9,5.1c2.3,0,3.7-1.3,3.7-3.7v-0.2h-3.5v-1.3h5v6.2h-1.3v-1.8h-0.1
			c-0.6,1.1-1.8,2-3.8,2c-3.1,0-5.4-2-5.4-6.3c0-4,2.4-6.4,5.6-6.4c2.5,0,4.3,1.3,4.6,3.4h-1.6c-0.2-1.4-1.5-2.2-3.1-2.2
			C20.1,104.4,18.7,106.5,18.7,109.6z"/>
		<path class="st12" d="M30.7,107.2h2v2h-2V107.2z M30.7,115.7v-2h2v2H30.7z"/>
		<path class="st12" d="M44,109.3c-0.1-0.8-0.7-1.2-1.7-1.2s-1.6,0.6-1.6,1.4c0,0.7,0.4,1,1.3,1.2l1.3,0.2c1.8,0.3,2.4,1,2.4,2.4
			c0,1.7-1.4,2.6-3.3,2.6c-1.7,0-3.2-0.8-3.3-2.6h1.4c0.1,0.7,0.4,1.5,1.9,1.5c1.2,0,1.9-0.5,1.9-1.4c0-0.7-0.2-1-1.3-1.2l-1.3-0.2
			c-1.5-0.2-2.3-0.9-2.3-2.3c0-1.5,1.1-2.6,3.1-2.6c1.8,0,2.9,0.8,3,2.3H44z"/>
		<path class="st12" d="M51.1,115.9c-2.6,0-3.8-1.9-3.8-4.4c0-2.5,1.3-4.5,3.8-4.5c2.5,0,3.5,2,3.5,4.1v0.7h-5.8
			c0.1,1.7,0.8,2.9,2.4,2.9c1.4,0,1.8-0.8,1.9-1.3h1.4C54.2,114.9,53,115.9,51.1,115.9z M53.1,110.6c0-1.4-0.6-2.5-2.1-2.5
			c-1.3,0-2.1,1.1-2.3,2.6L53.1,110.6L53.1,110.6z"/>
		<path class="st12" d="M58.8,104.8v2.4h2.1v1.1h-2.1v5c0,0.9,0.4,1.2,1.3,1.2c0.4,0,0.9-0.1,0.9-0.1v1.2c0,0-0.6,0.1-1.3,0.1
			c-1.6,0-2.3-0.8-2.3-2.2v-5.2h-1.5v-1.1h0.3c1.1,0,1.4-0.3,1.4-1.9v-0.6H58.8z"/>
		<path class="st12" d="M69.3,104.8v2.4h2.1v1.1h-2.1v5c0,0.9,0.4,1.2,1.3,1.2c0.4,0,0.9-0.1,0.9-0.1v1.2c0,0-0.6,0.1-1.3,0.1
			c-1.6,0-2.3-0.8-2.3-2.2v-5.2h-1.5v-1.1h0.3c1.1,0,1.4-0.3,1.4-1.9v-0.6H69.3z"/>
		<path class="st12" d="M72.9,111.4c0-2.6,1.4-4.4,3.8-4.4c2.5,0,3.8,1.8,3.8,4.4c0,2.6-1.4,4.4-3.8,4.4
			C74.2,115.9,72.9,114.1,72.9,111.4z M74.4,111.4c0,2.1,0.7,3.3,2.3,3.3c1.6,0,2.3-1.2,2.3-3.3c0-2-0.7-3.3-2.3-3.3
			C75.1,108.1,74.4,109.4,74.4,111.4z"/>
		<path class="st12" d="M87.4,107.2h1.4v1.4h0c0.4-0.9,1.4-1.6,2.7-1.6c1.3,0,2.2,0.6,2.5,1.7h0c0.3-0.9,1.4-1.7,2.8-1.7
			c1.6,0,2.7,0.8,2.7,2.8v5.9h-1.4v-5.2c0-0.6,0-1.3-0.3-1.7c-0.3-0.4-0.8-0.5-1.3-0.5c-1.6,0-2.3,1-2.3,2.4v5.1h-1.4v-5.2
			c0-0.6,0-1.2-0.3-1.7c-0.3-0.4-0.8-0.6-1.3-0.6c-1.6,0-2.3,1-2.3,2.4v5.1h-1.4V107.2z"/>
		<path class="st12" d="M102.3,109.5c0-1.5,1.2-2.5,3.2-2.5c2.1,0,3.1,0.9,3.1,3.1v3.4c0,0.7,0.1,0.9,0.8,1v1.2h-0.2
			c-1.3,0-1.8-0.5-1.9-1.5h0c-0.4,1-1.5,1.6-2.7,1.6c-1.7,0-2.7-0.9-2.7-2.4c0-0.9,0.4-1.7,1.3-2.1c0.9-0.5,2.2-0.6,4.1-0.7v-0.4
			c0-1.5-0.6-2.1-1.8-2.1c-1.2,0-1.7,0.7-1.8,1.4H102.3z M107.2,111.8v-0.2c-1.8,0.1-2.9,0.2-3.4,0.6c-0.3,0.2-0.5,0.6-0.5,1
			c0,0.9,0.6,1.3,1.5,1.3C105.8,114.6,107.2,113.9,107.2,111.8z"/>
		<path class="st12" d="M113.3,111.3l-2.7-4.1h1.7l1.8,2.9h0l1.9-2.9h1.6l-2.7,4l2.9,4.4h-1.7l-2.1-3.3h0l-2.1,3.3h-1.6L113.3,111.3
			z"/>
		<path class="st12" d="M119.8,103.7h1.5v1.6h-1.5V103.7z M119.9,107.2h1.5v8.4h-1.5V107.2z"/>
		<path class="st12" d="M124.5,107.2h1.4v1.4h0c0.4-0.9,1.4-1.6,2.7-1.6c1.3,0,2.2,0.6,2.5,1.7h0c0.3-0.9,1.4-1.7,2.8-1.7
			c1.6,0,2.7,0.8,2.7,2.8v5.9h-1.4v-5.2c0-0.6,0-1.3-0.3-1.7c-0.3-0.4-0.8-0.5-1.3-0.5c-1.6,0-2.3,1-2.3,2.4v5.1h-1.4v-5.2
			c0-0.6,0-1.2-0.3-1.7c-0.3-0.4-0.8-0.6-1.3-0.6c-1.6,0-2.3,1-2.3,2.4v5.1h-1.4V107.2z"/>
		<path class="st12" d="M141.1,112.4c0,0.6,0,1.3,0.3,1.7c0.3,0.4,0.7,0.6,1.3,0.6c1.6,0,2.3-1,2.3-2.9v-4.6h1.4v8.4H145v-1.4h0
			c-0.4,0.9-1.3,1.6-2.7,1.6c-1.6,0-2.7-0.8-2.7-2.8v-5.9h1.4V112.4z"/>
		<path class="st12" d="M149.6,107.2h1.4v1.4h0c0.4-0.9,1.4-1.6,2.7-1.6c1.3,0,2.2,0.6,2.5,1.7h0c0.3-0.9,1.4-1.7,2.8-1.7
			c1.6,0,2.7,0.8,2.7,2.8v5.9h-1.4v-5.2c0-0.6,0-1.3-0.3-1.7c-0.3-0.4-0.8-0.5-1.3-0.5c-1.6,0-2.3,1-2.3,2.4v5.1h-1.4v-5.2
			c0-0.6,0-1.2-0.3-1.7c-0.3-0.4-0.8-0.6-1.3-0.6c-1.6,0-2.3,1-2.3,2.4v5.1h-1.4V107.2z"/>
		<path class="st12" d="M176,118.7h-1.4v-4.3h0c-0.4,0.8-1.3,1.5-2.6,1.5c-1.8,0-3.4-1.1-3.4-4.4c0-2.9,1.5-4.5,3.6-4.5
			c1.3,0,2.1,0.7,2.4,1.5h0v-1.3h1.4V118.7z M174.6,112v-0.9c0-1.8-0.9-2.9-2.3-2.9c-1.6,0-2.4,1.3-2.4,3.3c0,1.9,0.6,3.3,2.2,3.3
			C173.7,114.7,174.6,113.5,174.6,112z"/>
		<path class="st12" d="M180.5,112.4c0,0.6,0,1.3,0.3,1.7c0.3,0.4,0.7,0.6,1.3,0.6c1.6,0,2.3-1,2.3-2.9v-4.6h1.4v8.4h-1.4v-1.4h0
			c-0.4,0.9-1.3,1.6-2.7,1.6c-1.6,0-2.7-0.8-2.7-2.8v-5.9h1.4V112.4z"/>
		<path class="st12" d="M188.6,109.5c0-1.5,1.2-2.5,3.2-2.5c2.1,0,3.1,0.9,3.1,3.1v3.4c0,0.7,0.1,0.9,0.8,1v1.2h-0.2
			c-1.3,0-1.8-0.5-1.9-1.5h0c-0.4,1-1.5,1.6-2.7,1.6c-1.7,0-2.7-0.9-2.7-2.4c0-0.9,0.4-1.7,1.3-2.1c0.9-0.5,2.2-0.6,4.1-0.7v-0.4
			c0-1.5-0.6-2.1-1.8-2.1c-1.2,0-1.7,0.7-1.8,1.4H188.6z M193.5,111.8v-0.2c-1.8,0.1-2.9,0.2-3.4,0.6c-0.3,0.2-0.5,0.6-0.5,1
			c0,0.9,0.6,1.3,1.5,1.3C192.2,114.6,193.5,113.9,193.5,111.8z"/>
		<path class="st12" d="M197.9,103h1.4v12.6h-1.4V103z"/>
		<path class="st12" d="M202.5,103.7h1.5v1.6h-1.5V103.7z M202.5,107.2h1.5v8.4h-1.5V107.2z"/>
		<path class="st12" d="M208.9,104.8v2.4h2.1v1.1h-2.1v5c0,0.9,0.4,1.2,1.3,1.2c0.4,0,0.9-0.1,0.9-0.1v1.2c0,0-0.6,0.1-1.3,0.1
			c-1.6,0-2.3-0.8-2.3-2.2v-5.2H206v-1.1h0.3c1.1,0,1.4-0.3,1.4-1.9v-0.6H208.9z"/>
		<path class="st12" d="M212.5,107.2h1.4l1.8,5.3c0.3,0.8,0.4,1.3,0.4,1.3h0c0,0,0.1-0.5,0.4-1.3l1.7-5.3h1.4l-3.1,9
			c-0.7,1.9-1.2,2.7-3.1,2.7c-0.3,0-0.6,0-0.9-0.1v-1.2c0.3,0.1,0.6,0.1,0.7,0.1c1.1,0,1.4-0.4,1.8-1.5l0.2-0.4L212.5,107.2z"/>
		<path class="st12" d="M220.2,113.7h2v2h-2V113.7z"/>
		<path class="st12" d="M-56.4,139.8h4.5v1.3h-4.5V139.8z"/>
		<path class="st12" d="M-43.1,141v4.7h-1.5v-12.2h3.7c2.4,0,4.2,1.1,4.2,3.8c0,2.6-1.8,3.8-4.3,3.8H-43.1z M-41.1,139.8
			c1.8,0,2.8-0.9,2.8-2.6c0-1.8-1-2.6-2.8-2.6h-2.1v5.2H-41.1z"/>
		<path class="st12" d="M-34.2,133.4h3.8c3.3,0,5.9,1.6,5.9,6c0,4.3-2.4,6.3-5.7,6.3h-3.9V133.4z M-30.5,144.4
			c2.6,0,4.4-1.3,4.4-4.9c0-3.4-1.8-4.7-4.3-4.7h-2.4v9.7H-30.5z"/>
		<path class="st12" d="M-20.2,145.7h-1.5v-12.2h7.3v1.3h-5.8v4.4h5.3v1.3h-5.3V145.7z"/>
		<path class="st12" d="M-56.4,169.8h4.5v1.3h-4.5V169.8z"/>
		<path class="st12" d="M-44.6,163.4h7.8v1.3h-6.3v4.1h5.8v1.3h-5.8v4.2h6.4v1.3h-7.9V163.4z"/>
		<path class="st12" d="M-32.1,171v4.7h-1.5v-12.2h3.7c2.4,0,4.2,1.1,4.2,3.8c0,2.6-1.8,3.8-4.3,3.8H-32.1z M-30.1,169.8
			c1.8,0,2.8-0.9,2.8-2.6c0-1.8-1-2.6-2.8-2.6h-2.1v5.2H-30.1z"/>
		<path class="st12" d="M-16.7,166.7c-0.1-1.2-0.8-2.3-2.5-2.3c-1.7,0-2.6,0.9-2.6,2.1c0,1.1,0.6,1.8,2,2l1.7,0.3
			c2.4,0.4,3.2,1.6,3.2,3.3c0,2.2-1.5,3.7-4.5,3.7c-2.8,0-4.4-1.5-4.6-3.7h1.6c0.2,1.3,1.1,2.5,3.1,2.5c2.2,0,2.9-1.1,2.9-2.4
			c0-1.1-0.6-1.8-2.1-2l-1.7-0.3c-2.4-0.4-3.2-1.7-3.2-3.3c0-2,1.6-3.4,4.1-3.4c2.6,0,3.9,1.4,4,3.5H-16.7z"/>
		<path class="st12" d="M-12.4,167.2h2v2h-2V167.2z M-12.4,175.7v-2h2v2H-12.4z"/>
		<path class="st12" d="M-0.2,175.9c-2.6,0-3.8-1.9-3.8-4.4c0-2.5,1.3-4.5,3.8-4.5c2.5,0,3.5,2,3.5,4.1v0.7h-5.8
			c0.1,1.7,0.8,2.9,2.4,2.9c1.4,0,1.8-0.8,1.9-1.3h1.4C2.8,174.9,1.6,175.9-0.2,175.9z M1.8,170.6c0-1.4-0.6-2.5-2.1-2.5
			c-1.3,0-2.1,1.1-2.3,2.6L1.8,170.6L1.8,170.6z"/>
		<path class="st12" d="M7.3,171.3l-2.7-4.1h1.7l1.8,2.9h0l1.9-2.9h1.6l-2.7,4l2.9,4.4h-1.7l-2.1-3.3h0l-2.1,3.3H4.4L7.3,171.3z"/>
		<path class="st12" d="M13.8,167.2h1.4v1.4h0c0.5-0.9,1.4-1.6,2.7-1.6c1.8,0,3.4,1.1,3.4,4.3c0,3.1-1.6,4.5-3.5,4.5
			c-1.2,0-2.2-0.7-2.5-1.4h0v4.2h-1.4V167.2z M17.6,174.7c1.5,0,2.2-1.2,2.2-3.4c0-1.8-0.5-3.2-2.3-3.2c-1.5,0-2.4,1.3-2.4,2.7v0.9
			C15.2,173.4,16,174.7,17.6,174.7z"/>
		<path class="st12" d="M23.1,171.4c0-2.6,1.4-4.4,3.8-4.4c2.5,0,3.8,1.8,3.8,4.4c0,2.6-1.4,4.4-3.8,4.4
			C24.4,175.9,23.1,174.1,23.1,171.4z M24.6,171.4c0,2.1,0.7,3.3,2.3,3.3c1.6,0,2.3-1.2,2.3-3.3c0-2-0.7-3.3-2.3-3.3
			C25.4,168.1,24.6,169.4,24.6,171.4z"/>
		<path class="st12" d="M33.1,167.2h1.4v1.6h0c0.4-0.9,1.4-1.7,2.7-1.7h0.1v1.5H37c-1.5,0-2.5,0.9-2.5,2.5v4.6h-1.4V167.2z"/>
		<path class="st12" d="M41.5,164.8v2.4h2.1v1.1h-2.1v5c0,0.9,0.4,1.2,1.3,1.2c0.4,0,0.9-0.1,0.9-0.1v1.2c0,0-0.6,0.1-1.3,0.1
			c-1.6,0-2.3-0.8-2.3-2.2v-5.2h-1.5v-1.1h0.3c1.1,0,1.4-0.3,1.4-1.9v-0.6H41.5z"/>
		<path class="st12" d="M54.6,170.5h-2.7v5.2h-1.5v-12.2h4.4c0.9,0,1.7,0.2,2.4,0.5c1,0.5,1.6,1.5,1.6,2.9c0,2.3-1.5,3.1-2.6,3.4v0
			l2.7,5.4h-1.7L54.6,170.5z M54.7,169.2c1.4,0,2.5-0.7,2.5-2.4c0-1.5-1-2.2-2.4-2.2h-2.9v4.6H54.7z"/>
		<path class="st12" d="M62.5,169.6c0,3.2,1.4,5.1,3.9,5.1c2.3,0,3.7-1.3,3.7-3.7v-0.2h-3.5v-1.3h5v6.2h-1.3v-1.8h-0.1
			c-0.6,1.1-1.8,2-3.8,2c-3.1,0-5.4-2-5.4-6.3c0-4,2.4-6.4,5.6-6.4c2.5,0,4.3,1.3,4.6,3.4h-1.6c-0.2-1.4-1.5-2.2-3.1-2.2
			C63.9,164.4,62.5,166.5,62.5,169.6z"/>
		<path class="st12" d="M75,175.7v-12.2h4.8c2.1,0,3.8,1,3.8,3c0,1.5-0.8,2.4-2.2,2.7v0c1.5,0.3,2.6,1.5,2.6,2.9
			c0,2.8-2.1,3.6-4.5,3.6H75z M79.5,168.6c1.3,0,2.5-0.5,2.5-2c0-1.3-0.9-1.9-2.3-1.9h-3.2v4H79.5z M79.4,174.5c1.8,0,3-0.6,3-2.4
			c0-1.6-1.2-2.2-3.1-2.2h-2.8v4.7H79.4z"/>
		<path class="st12" d="M93.2,177.7c-0.9-1.8-2.1-4.1-2.1-7.3c0-3.2,1.2-5.5,2.1-7.3h1.1c-0.9,2-1.7,4.1-1.7,7.3
			c0,3.3,0.8,5.4,1.7,7.3H93.2z"/>
		<path class="st12" d="M103.2,175.7h-1.4v-1.4h0c-0.4,0.8-1.4,1.6-2.7,1.6c-1.8,0-3.4-1.1-3.4-4.4c0-2.9,1.5-4.5,3.6-4.5
			c1.3,0,2.1,0.7,2.4,1.5h0V163h1.4V175.7z M101.8,171.1c0-1.8-0.9-2.9-2.3-2.9c-1.6,0-2.4,1.3-2.4,3.3c0,1.9,0.6,3.3,2.2,3.3
			c1.5,0,2.4-1.2,2.4-2.7V171.1z"/>
		<path class="st12" d="M106.3,163.7h1.5v1.6h-1.5V163.7z M106.4,167.2h1.5v8.4h-1.5V167.2z"/>
		<path class="st12" d="M110.4,176.5h1.4c0.2,0.7,0.7,1.2,2.1,1.2c1.6,0,2.4-0.6,2.4-2.4V174h0c-0.4,0.8-1.4,1.6-2.7,1.6
			c-1.8,0-3.4-1.1-3.4-4.2c0-2.8,1.5-4.3,3.6-4.3c1.4,0,2.2,0.8,2.5,1.5h0v-1.3h1.4v8.2c0,2.4-1.6,3.4-3.8,3.4
			C112.3,178.8,110.6,178.2,110.4,176.5z M116.3,171c0-1.7-0.9-2.8-2.4-2.8c-1.5,0-2.2,1.3-2.2,3.2c0,1.9,0.5,3.1,2.3,3.1
			c1.4,0,2.3-1.2,2.3-2.6V171z"/>
		<path class="st12" d="M120.9,163.7h1.5v1.6h-1.5V163.7z M120.9,167.2h1.5v8.4h-1.5V167.2z"/>
		<path class="st12" d="M127.3,164.8v2.4h2.1v1.1h-2.1v5c0,0.9,0.4,1.2,1.3,1.2c0.4,0,0.9-0.1,0.9-0.1v1.2c0,0-0.6,0.1-1.3,0.1
			c-1.6,0-2.3-0.8-2.3-2.2v-5.2h-1.5v-1.1h0.3c1.1,0,1.4-0.3,1.4-1.9v-0.6H127.3z"/>
		<path class="st12" d="M131.8,169.5c0-1.5,1.2-2.5,3.2-2.5c2.1,0,3.1,0.9,3.1,3.1v3.4c0,0.7,0.1,0.9,0.8,1v1.2h-0.2
			c-1.3,0-1.8-0.5-1.9-1.5h0c-0.4,1-1.5,1.6-2.7,1.6c-1.7,0-2.7-0.9-2.7-2.4c0-0.9,0.4-1.7,1.3-2.1c0.9-0.5,2.2-0.6,4.1-0.7v-0.4
			c0-1.5-0.6-2.1-1.8-2.1c-1.2,0-1.7,0.7-1.8,1.4H131.8z M136.7,171.8v-0.2c-1.8,0.1-2.9,0.2-3.4,0.6c-0.3,0.2-0.5,0.6-0.5,1
			c0,0.9,0.6,1.3,1.5,1.3C135.4,174.6,136.7,173.9,136.7,171.8z"/>
		<path class="st12" d="M141.1,163h1.4v12.6h-1.4V163z"/>
		<path class="st12" d="M146.5,170.4c0-3.3-0.8-5.4-1.7-7.3h1.1c0.9,1.8,2.1,4.1,2.1,7.3c0,3.2-1.2,5.5-2.1,7.3h-1.1
			C145.7,175.8,146.5,173.6,146.5,170.4z"/>
		<path class="st12" d="M155.4,169.5c0-1.5,1.2-2.5,3.2-2.5c2.1,0,3.1,0.9,3.1,3.1v3.4c0,0.7,0.1,0.9,0.8,1v1.2h-0.2
			c-1.3,0-1.8-0.5-1.9-1.5h0c-0.4,1-1.5,1.6-2.7,1.6c-1.7,0-2.7-0.9-2.7-2.4c0-0.9,0.4-1.7,1.3-2.1c0.9-0.5,2.2-0.6,4.1-0.7v-0.4
			c0-1.5-0.6-2.1-1.8-2.1c-1.2,0-1.7,0.7-1.8,1.4H155.4z M160.3,171.8v-0.2c-1.8,0.1-2.9,0.2-3.4,0.6c-0.3,0.2-0.5,0.6-0.5,1
			c0,0.9,0.6,1.3,1.5,1.3C159,174.6,160.3,173.9,160.3,171.8z"/>
		<path class="st12" d="M170.1,170.5c0-0.6,0-1.3-0.3-1.7c-0.3-0.4-0.8-0.6-1.3-0.6c-1.6,0-2.3,1-2.3,2.4v5.1h-1.4v-8.4h1.4v1.4h0
			c0.4-0.9,1.4-1.6,2.7-1.6c1.6,0,2.7,0.8,2.7,2.8v5.9h-1.4V170.5z"/>
		<path class="st12" d="M181.4,175.7H180v-1.4h0c-0.4,0.8-1.4,1.6-2.7,1.6c-1.8,0-3.4-1.1-3.4-4.4c0-2.9,1.5-4.5,3.6-4.5
			c1.3,0,2.1,0.7,2.4,1.5h0V163h1.4V175.7z M180,171.1c0-1.8-0.9-2.9-2.3-2.9c-1.6,0-2.4,1.3-2.4,3.3c0,1.9,0.6,3.3,2.2,3.3
			c1.5,0,2.4-1.2,2.4-2.7V171.1z"/>
		<path class="st12" d="M190.2,169.6c0,3.2,1.4,5.1,3.9,5.1c2.2,0,3.1-1.5,3.2-2.8h1.5c-0.2,2.3-2,4.1-4.7,4.1
			c-3.2,0-5.4-2.1-5.4-6.3c0-4,2.3-6.3,5.5-6.3c2.1,0,4.4,1.1,4.7,3.8h-1.6c-0.2-1.2-1.2-2.6-3.1-2.6
			C191.6,164.4,190.2,166.5,190.2,169.6z"/>
		<path class="st12" d="M201.7,163.4h2.3l3.1,8.8c0.4,1.1,0.5,1.6,0.5,1.6h0c0,0,0.2-0.5,0.5-1.6l3.2-8.8h2.2v12.2H212v-10.5h0
			c0,0-0.2,0.6-0.7,1.9l-3.1,8.6h-1.4l-3-8.6c-0.4-1.3-0.7-1.9-0.7-1.9h0v10.5h-1.4V163.4z"/>
		<path class="st12" d="M219.9,170.4l-4.3-7h1.7l3.3,5.7h0l3.4-5.7h1.6l-4.3,6.9v5.3h-1.5V170.4z"/>
		<path class="st12" d="M229.1,175.7h-1.5v-12.2h1.5v6.3l5.7-6.3h1.8l-4.7,5.1l5,7.1h-1.8l-4.3-6l-1.8,2V175.7z"/>
		<path class="st12" d="M245.7,177.7c-0.9-1.8-2.1-4.1-2.1-7.3c0-3.2,1.2-5.5,2.1-7.3h1.1c-0.9,2-1.7,4.1-1.7,7.3
			c0,3.3,0.8,5.4,1.7,7.3H245.7z"/>
		<path class="st12" d="M249.1,167.2h1.4v1.4h0c0.5-0.9,1.4-1.6,2.7-1.6c1.8,0,3.4,1.1,3.4,4.3c0,3.1-1.6,4.5-3.5,4.5
			c-1.2,0-2.2-0.7-2.5-1.4h0v4.2h-1.4V167.2z M252.9,174.7c1.5,0,2.2-1.2,2.2-3.4c0-1.8-0.5-3.2-2.3-3.2c-1.5,0-2.4,1.3-2.4,2.7v0.9
			C250.5,173.4,251.3,174.7,252.9,174.7z"/>
		<path class="st12" d="M259,167.2h1.4v1.6h0c0.4-0.9,1.4-1.7,2.7-1.7h0.1v1.5h-0.3c-1.5,0-2.5,0.9-2.5,2.5v4.6H259V167.2z"/>
		<path class="st12" d="M265.4,163.7h1.5v1.6h-1.5V163.7z M265.4,167.2h1.5v8.4h-1.5V167.2z"/>
		<path class="st12" d="M275.4,170.5c0-0.6,0-1.3-0.3-1.7c-0.3-0.4-0.8-0.6-1.3-0.6c-1.6,0-2.3,1-2.3,2.4v5.1H270v-8.4h1.4v1.4h0
			c0.4-0.9,1.4-1.6,2.7-1.6c1.6,0,2.7,0.8,2.7,2.8v5.9h-1.4V170.5z"/>
		<path class="st12" d="M281.7,164.8v2.4h2.1v1.1h-2.1v5c0,0.9,0.4,1.2,1.3,1.2c0.4,0,0.9-0.1,0.9-0.1v1.2c0,0-0.6,0.1-1.3,0.1
			c-1.6,0-2.3-0.8-2.3-2.2v-5.2h-1.5v-1.1h0.3c1.1,0,1.4-0.3,1.4-1.9v-0.6H281.7z"/>
		<path class="st12" d="M287,170.4c0-3.3-0.8-5.4-1.7-7.3h1.1c0.9,1.8,2.1,4.1,2.1,7.3c0,3.2-1.2,5.5-2.1,7.3h-1.1
			C286.2,175.8,287,173.6,287,170.4z"/>
		<path class="st12" d="M295.1,167.2h1.5l1.8,5.4c0.2,0.7,0.4,1.3,0.4,1.3h0c0,0,0.2-0.6,0.4-1.3l1.9-5.4h1.4l-2.9,8.4H298
			L295.1,167.2z"/>
		<path class="st12" d="M307.5,175.9c-2.6,0-3.8-1.9-3.8-4.4c0-2.5,1.3-4.5,3.8-4.5c2.5,0,3.5,2,3.5,4.1v0.7h-5.8
			c0.1,1.7,0.8,2.9,2.4,2.9c1.4,0,1.8-0.8,1.9-1.3h1.4C310.6,174.9,309.3,175.9,307.5,175.9z M309.5,170.6c0-1.4-0.6-2.5-2.1-2.5
			c-1.3,0-2.1,1.1-2.3,2.6L309.5,170.6L309.5,170.6z"/>
		<path class="st12" d="M313.3,167.2h1.4v1.6h0c0.4-0.9,1.4-1.7,2.7-1.7h0.1v1.5h-0.3c-1.5,0-2.5,0.9-2.5,2.5v4.6h-1.4V167.2z"/>
		<path class="st12" d="M323.7,169.3c-0.1-0.8-0.7-1.2-1.7-1.2s-1.6,0.6-1.6,1.4c0,0.7,0.4,1,1.3,1.2l1.3,0.2c1.8,0.3,2.4,1,2.4,2.4
			c0,1.7-1.4,2.6-3.3,2.6c-1.7,0-3.2-0.8-3.3-2.6h1.4c0.1,0.7,0.4,1.5,1.9,1.5c1.2,0,1.9-0.5,1.9-1.4c0-0.7-0.2-1-1.3-1.2l-1.3-0.2
			c-1.5-0.2-2.3-0.9-2.3-2.3c0-1.5,1.1-2.6,3.1-2.6c1.8,0,2.9,0.8,3,2.3H323.7z"/>
		<path class="st12" d="M327.8,163.7h1.5v1.6h-1.5V163.7z M327.9,167.2h1.5v8.4h-1.5V167.2z"/>
		<path class="st12" d="M331.7,171.4c0-2.6,1.4-4.4,3.8-4.4c2.5,0,3.8,1.8,3.8,4.4c0,2.6-1.4,4.4-3.8,4.4
			C333,175.9,331.7,174.1,331.7,171.4z M333.2,171.4c0,2.1,0.7,3.3,2.3,3.3c1.6,0,2.3-1.2,2.3-3.3c0-2-0.7-3.3-2.3-3.3
			C334,168.1,333.2,169.4,333.2,171.4z"/>
		<path class="st12" d="M347.1,170.5c0-0.6,0-1.3-0.3-1.7c-0.3-0.4-0.8-0.6-1.3-0.6c-1.6,0-2.3,1-2.3,2.4v5.1h-1.4v-8.4h1.4v1.4h0
			c0.4-0.9,1.4-1.6,2.7-1.6c1.6,0,2.7,0.8,2.7,2.8v5.9h-1.4V170.5z"/>
		<path class="st12" d="M355.8,169.3c-0.1-0.8-0.7-1.2-1.7-1.2s-1.6,0.6-1.6,1.4c0,0.7,0.4,1,1.3,1.2l1.3,0.2c1.8,0.3,2.4,1,2.4,2.4
			c0,1.7-1.4,2.6-3.3,2.6c-1.7,0-3.2-0.8-3.3-2.6h1.4c0.1,0.7,0.4,1.5,1.9,1.5c1.2,0,1.9-0.5,1.9-1.4c0-0.7-0.2-1-1.3-1.2l-1.3-0.2
			c-1.5-0.2-2.3-0.9-2.3-2.3c0-1.5,1.1-2.6,3.1-2.6c1.8,0,2.9,0.8,3,2.3H355.8z"/>
		<path class="st12" d="M359.3,173.7h2v2h-2V173.7z"/>
	</g>
</g>
</svg>
