<?xml version="1.0" encoding="utf-8"?>
<!-- Generator: Adobe Illustrator 24.1.0, SVG Export Plug-In . SVG Version: 6.00 Build 0)  -->
<svg version="1.1" id="Layer_1" xmlns="http://www.w3.org/2000/svg" xmlns:xlink="http://www.w3.org/1999/xlink" x="0px" y="0px"
	 viewBox="0 0 610 449" style="enable-background:new 0 0 610 449;" xml:space="preserve">
<style type="text/css">
	.st0{fill:none;stroke:#414042;stroke-width:5;stroke-linecap:round;stroke-miterlimit:10;stroke-dasharray:15;}
	.st1{fill:url(#SVGID_1_);}
	.st2{fill:#3FA9F5;}
	.st3{fill:#D0CDE1;}
	.st4{fill:#414042;}
</style>
<g>
	<circle class="st0" cx="372.34" cy="224.36" r="221.74"/>
	<g>
		<linearGradient id="SVGID_1_" gradientUnits="userSpaceOnUse" x1="-3.2747" y1="309.0423" x2="590.7253" y2="147.0423">
			<stop  offset="0" style="stop-color:#9E1F63"/>
			<stop  offset="1" style="stop-color:#EF4136"/>
		</linearGradient>
		<polygon class="st1" points="604.49,155.06 470.26,414.76 127.82,349.89 127.15,349.77 107.74,346.09 20.52,329.56 0.45,325.77 
			28.25,269.31 32.94,259.79 37.35,250.86 37.75,250.05 45.13,235.06 76.32,171.72 77.89,168.54 80.06,164.12 80.56,163.11 
			81.68,160.84 88.01,148 99.38,124.9 101.36,120.88 110.36,102.61 144.17,33.96 		"/>
		<path class="st2" d="M296.53,136.39c-31.64-31.64-82.95-31.64-114.59,0s-31.64,82.95,0,114.59l114.59,114.59l114.59-114.59
			c31.65-31.63,31.67-82.94,0.03-114.59s-82.94-31.67-114.59-0.03C296.55,136.37,296.54,136.38,296.53,136.39z"/>
		<polygon class="st3" points="443.87,253.87 443.07,253.07 445.08,251.06 443.07,249.05 443.87,248.25 446.68,251.06 		"/>
		<path class="st4" d="M338.87,358.87l-0.8-0.8l4.77-4.77l0.8,0.8L338.87,358.87z M348.42,349.32l-0.8-0.8l4.77-4.77l0.8,0.8
			L348.42,349.32z M357.97,339.78l-0.8-0.8l4.77-4.77l0.8,0.8L357.97,339.78z M367.51,330.23l-0.8-0.8l4.77-4.77l0.8,0.8
			L367.51,330.23z M377.06,320.69l-0.8-0.8l4.77-4.77l0.8,0.8L377.06,320.69z M386.6,311.14l-0.8-0.8l4.77-4.77l0.8,0.8
			L386.6,311.14z M396.15,301.6l-0.8-0.8l4.77-4.77l0.8,0.8L396.15,301.6z M405.69,292.05l-0.8-0.8l4.77-4.77l0.8,0.8L405.69,292.05
			z M415.24,282.51l-0.8-0.8l4.77-4.77l0.8,0.8L415.24,282.51z M424.78,272.96l-0.8-0.8l4.77-4.77l0.8,0.8L424.78,272.96z
			 M434.33,263.42l-0.8-0.8l4.77-4.77l0.8,0.8L434.33,263.42z"/>
		<polygon class="st4" points="331.29,366.45 328.48,363.64 329.28,362.84 331.29,364.85 333.3,362.84 334.1,363.64 		"/>
		<path class="st4" d="M323.71,358.87l-4.77-4.77l0.8-0.8l4.77,4.77L323.71,358.87z M314.16,349.32l-4.77-4.77l0.8-0.8l4.77,4.77
			L314.16,349.32z M304.62,339.78l-4.77-4.77l0.8-0.8l4.77,4.77L304.62,339.78z M295.07,330.23l-4.77-4.77l0.8-0.8l4.77,4.77
			L295.07,330.23z M285.53,320.69l-4.77-4.77l0.8-0.8l4.77,4.77L285.53,320.69z M275.98,311.14l-4.77-4.77l0.8-0.8l4.77,4.77
			L275.98,311.14z M266.44,301.6l-4.77-4.77l0.8-0.8l4.77,4.77L266.44,301.6z M256.89,292.05l-4.77-4.77l0.8-0.8l4.77,4.77
			L256.89,292.05z M247.35,282.51l-4.77-4.77l0.8-0.8l4.77,4.77L247.35,282.51z M237.8,272.96l-4.77-4.77l0.8-0.8l4.77,4.77
			L237.8,272.96z M228.25,263.42l-4.77-4.77l0.8-0.8l4.77,4.77L228.25,263.42z"/>
		<polygon class="st3" points="218.71,253.87 215.9,251.06 218.71,248.25 219.51,249.05 217.5,251.06 219.51,253.07 		"/>
		<path class="st4" d="M224.28,244.28l-0.8-0.8l4.77-4.77l0.8,0.8L224.28,244.28z M233.83,234.73l-0.8-0.8l4.77-4.77l0.8,0.8
			L233.83,234.73z M243.38,225.19l-0.8-0.8l4.77-4.77l0.8,0.8L243.38,225.19z M252.92,215.64l-0.8-0.8l4.77-4.77l0.8,0.8
			L252.92,215.64z M262.47,206.1l-0.8-0.8l4.77-4.77l0.8,0.8L262.47,206.1z M272.01,196.55l-0.8-0.8l4.77-4.77l0.8,0.8
			L272.01,196.55z M281.56,187.01l-0.8-0.8l4.77-4.77l0.8,0.8L281.56,187.01z M291.1,177.46l-0.8-0.8l4.77-4.77l0.8,0.8
			L291.1,177.46z M300.65,167.92l-0.8-0.8l4.77-4.77l0.8,0.8L300.65,167.92z M310.19,158.37l-0.8-0.8l4.77-4.77l0.8,0.8
			L310.19,158.37z M319.74,148.82l-0.8-0.8l4.77-4.77l0.8,0.8L319.74,148.82z"/>
		<polygon class="st4" points="333.3,139.28 331.29,137.27 329.28,139.28 328.48,138.48 331.29,135.67 334.1,138.48 		"/>
		<path class="st4" d="M438.3,244.28l-4.77-4.77l0.8-0.8l4.77,4.77L438.3,244.28z M428.75,234.73l-4.77-4.77l0.8-0.8l4.77,4.77
			L428.75,234.73z M419.21,225.19l-4.77-4.77l0.8-0.8l4.77,4.77L419.21,225.19z M409.66,215.64l-4.77-4.77l0.8-0.8l4.77,4.77
			L409.66,215.64z M400.12,206.1l-4.77-4.77l0.8-0.8l4.77,4.77L400.12,206.1z M390.57,196.55l-4.77-4.77l0.8-0.8l4.77,4.77
			L390.57,196.55z M381.03,187.01l-4.77-4.77l0.8-0.8l4.77,4.77L381.03,187.01z M371.48,177.46l-4.77-4.77l0.8-0.8l4.77,4.77
			L371.48,177.46z M361.94,167.92l-4.77-4.77l0.8-0.8l4.77,4.77L361.94,167.92z M352.39,158.37l-4.77-4.77l0.8-0.8l4.77,4.77
			L352.39,158.37z M342.84,148.82l-4.77-4.77l0.8-0.8l4.77,4.77L342.84,148.82z"/>
		<path class="st4" d="M272.28,275.34c-2.3-0.05-4.62-0.19-6.91-0.44l0.12-1.13c2.26,0.24,4.55,0.38,6.82,0.43L272.28,275.34z
			 M279.21,275.19l-0.07-1.13c2.26-0.14,4.55-0.39,6.79-0.72l0.17,1.12C283.82,274.8,281.5,275.05,279.21,275.19z M258.52,273.89
			c-2.26-0.43-4.53-0.97-6.74-1.59l0.31-1.09c2.18,0.62,4.42,1.14,6.64,1.57L258.52,273.89z M292.9,273.15l-0.26-1.1
			c2.21-0.52,4.42-1.15,6.57-1.86l0.35,1.08C297.38,271.99,295.14,272.62,292.9,273.15z M245.2,270.13
			c-2.15-0.81-4.3-1.72-6.37-2.71l0.49-1.02c2.05,0.98,4.16,1.88,6.28,2.68L245.2,270.13z M306.04,268.83l-0.45-1.04
			c2.09-0.89,4.16-1.88,6.16-2.95l0.53,1C310.27,266.92,308.16,267.92,306.04,268.83z M232.72,264.17
			c-1.98-1.16-3.94-2.43-5.81-3.76l0.66-0.93c1.85,1.31,3.78,2.56,5.73,3.7L232.72,264.17z M318.27,262.33l-0.62-0.95
			c1.9-1.23,3.78-2.56,5.57-3.95l0.7,0.9C322.1,259.73,320.2,261.08,318.27,262.33z M221.43,256.18c-1.75-1.48-3.47-3.06-5.1-4.69
			l0.8-0.8c1.61,1.61,3.3,3.16,5.03,4.62L221.43,256.18z M329.21,253.84l-0.77-0.84c0.82-0.76,1.65-1.55,2.45-2.35
			c0.8-0.8,1.6-1.64,2.38-2.48l0.84,0.77c-0.79,0.86-1.6,1.7-2.41,2.52C330.88,252.27,330.04,253.08,329.21,253.84L329.21,253.84z
			 M211.64,246.4c-1.49-1.76-2.92-3.6-4.25-5.47l0.93-0.66c1.31,1.85,2.72,3.66,4.19,5.4L211.64,246.4z M338.57,243.65l-0.9-0.7
			c1.39-1.8,2.72-3.67,3.95-5.57l0.95,0.62C341.33,239.93,339.98,241.83,338.57,243.65L338.57,243.65z M203.63,235.11
			c-1.17-1.98-2.26-4.04-3.25-6.12l1.02-0.49c0.98,2.04,2.06,4.07,3.21,6.03L203.63,235.11z M346.08,232.04l-1-0.53
			c1.06-2,2.05-4.07,2.94-6.16l1.04,0.45C348.17,227.91,347.16,230.01,346.08,232.04z M197.65,222.62
			c-0.81-2.15-1.54-4.37-2.17-6.58l1.09-0.31c0.62,2.18,1.34,4.36,2.14,6.49L197.65,222.62z M351.51,219.31l-1.08-0.35
			c0.71-2.15,1.33-4.36,1.86-6.57l1.1,0.26C352.86,214.88,352.23,217.13,351.51,219.31z M193.89,209.3
			c-0.44-2.26-0.78-4.56-1.02-6.85l1.13-0.12c0.24,2.26,0.58,4.53,1.01,6.76L193.89,209.3z M354.7,205.84l-1.12-0.17
			c0.33-2.24,0.58-4.53,0.72-6.79l1.13,0.07C355.28,201.25,355.04,203.57,354.7,205.84z M192.42,195.54
			c-0.01-0.59-0.02-1.18-0.02-1.77c0-1.71,0.05-3.44,0.16-5.15l1.13,0.07c-0.11,1.68-0.16,3.39-0.16,5.08
			c0,0.58,0.01,1.17,0.02,1.75L192.42,195.54z M354.44,192.06c-0.05-2.27-0.19-4.56-0.43-6.82l1.13-0.12
			c0.24,2.29,0.39,4.61,0.44,6.91L354.44,192.06z M194.41,181.89l-1.12-0.17c0.34-2.27,0.78-4.56,1.31-6.8l1.1,0.26
			C195.18,177.4,194.74,179.65,194.41,181.89z M353,178.49c-0.43-2.23-0.96-4.46-1.57-6.65l1.09-0.31c0.62,2.21,1.16,4.48,1.6,6.74
			L353,178.49z M197.55,168.61l-1.08-0.35c0.72-2.19,1.54-4.37,2.44-6.48l1.04,0.44C199.06,164.31,198.26,166.46,197.55,168.61z
			 M349.29,165.35c-0.8-2.12-1.7-4.24-2.68-6.28l1.02-0.49c0.99,2.08,1.91,4.22,2.72,6.37L349.29,165.35z M202.89,156.06l-1-0.53
			c1.08-2.03,2.26-4.04,3.5-5.97l0.95,0.62C205.12,152.08,203.95,154.06,202.89,156.06z M343.41,153.04
			c-1.15-1.96-2.4-3.89-3.71-5.74l0.93-0.66c1.33,1.88,2.6,3.84,3.76,5.82L343.41,153.04z M210.29,144.6l-0.9-0.69
			c1.4-1.81,2.91-3.6,4.47-5.29l0.84,0.77C213.16,141.06,211.67,142.82,210.29,144.6z M335.51,141.9c-1.46-1.73-3.02-3.42-4.62-5.03
			l-0.06-0.06l0.8-0.81l0.08,0.08c1.62,1.62,3.19,3.33,4.68,5.09L335.51,141.9z M219.52,134.55l-0.77-0.83
			c1.7-1.56,3.48-3.07,5.29-4.48l0.7,0.9C222.95,131.52,221.19,133.01,219.52,134.55z M325.8,132.19c-1.74-1.46-3.55-2.87-5.4-4.17
			l0.66-0.93c1.87,1.33,3.72,2.75,5.48,4.23L325.8,132.19z M230.31,126.18l-0.62-0.95c1.93-1.25,3.94-2.43,5.97-3.52l0.53,1
			C234.19,123.78,232.21,124.95,230.31,126.18z M314.66,124.31c-1.96-1.15-3.98-2.22-6.03-3.2l0.49-1.03
			c2.08,0.99,4.13,2.08,6.12,3.24L314.66,124.31z M242.35,119.76l-0.45-1.04c2.11-0.9,4.29-1.73,6.48-2.45l0.36,1.08
			C246.59,118.06,244.44,118.87,242.35,119.76z M302.35,118.44c-2.12-0.8-4.3-1.51-6.49-2.13l0.31-1.09
			c2.21,0.62,4.43,1.35,6.58,2.16L302.35,118.44z M255.32,115.49l-0.26-1.1c2.24-0.53,4.53-0.97,6.8-1.31l0.17,1.12
			C259.78,114.53,257.52,114.97,255.32,115.49L255.32,115.49z M289.21,114.75c-2.23-0.43-4.5-0.76-6.76-1l0.12-1.13
			c2.29,0.24,4.59,0.58,6.85,1.01L289.21,114.75z M268.81,113.47l-0.07-1.13c2.3-0.15,4.62-0.2,6.92-0.15l-0.02,1.14
			C273.37,113.27,271.08,113.33,268.81,113.47L268.81,113.47z"/>
		<path class="st4" d="M386.87,275.34c-2.3-0.05-4.62-0.19-6.91-0.44l0.12-1.13c2.26,0.24,4.55,0.38,6.82,0.43L386.87,275.34z
			 M393.8,275.19l-0.07-1.13c2.26-0.14,4.55-0.39,6.79-0.72l0.17,1.12C398.41,274.8,396.09,275.05,393.8,275.19L393.8,275.19z
			 M373.11,273.89c-2.26-0.43-4.53-0.97-6.74-1.59l0.31-1.09c2.18,0.62,4.42,1.14,6.64,1.57L373.11,273.89z M407.49,273.15
			l-0.26-1.1c2.21-0.52,4.42-1.15,6.57-1.86l0.35,1.08C411.97,271.99,409.73,272.62,407.49,273.15L407.49,273.15z M359.79,270.13
			c-2.15-0.81-4.29-1.72-6.37-2.71l0.49-1.02c2.05,0.98,4.16,1.88,6.28,2.68L359.79,270.13z M420.63,268.83l-0.45-1.04
			c2.09-0.89,4.16-1.88,6.16-2.95l0.53,1C424.85,266.92,422.75,267.92,420.63,268.83L420.63,268.83z M347.31,264.17
			c-1.98-1.16-3.94-2.43-5.81-3.76l0.66-0.93c1.85,1.31,3.78,2.56,5.73,3.7L347.31,264.17z M432.86,262.33l-0.62-0.95
			c1.9-1.23,3.78-2.56,5.57-3.95l0.7,0.9C436.69,259.73,434.78,261.08,432.86,262.33z M336.02,256.18c-1.75-1.48-3.47-3.05-5.1-4.68
			l0.8-0.8c1.61,1.61,3.3,3.16,5.03,4.62L336.02,256.18z M443.8,253.84l-0.77-0.84c0.82-0.76,1.65-1.55,2.45-2.35
			c0.81-0.81,1.61-1.64,2.38-2.48l0.84,0.77c-0.78,0.85-1.59,1.7-2.41,2.52C445.47,252.27,444.63,253.08,443.8,253.84L443.8,253.84z
			 M326.23,246.4c-1.49-1.76-2.92-3.6-4.25-5.47l0.93-0.66c1.31,1.85,2.72,3.66,4.19,5.4L326.23,246.4z M453.16,243.65l-0.9-0.7
			c1.39-1.8,2.72-3.67,3.95-5.57l0.95,0.62C455.92,239.93,454.57,241.83,453.16,243.65L453.16,243.65z M318.22,235.11
			c-1.17-1.98-2.26-4.04-3.25-6.12l1.02-0.49c0.98,2.05,2.06,4.08,3.21,6.03L318.22,235.11z M460.67,232.04l-1-0.53
			c1.06-2,2.05-4.07,2.94-6.16l1.04,0.45C462.76,227.91,461.75,230.01,460.67,232.04z M312.24,222.62
			c-0.81-2.15-1.54-4.37-2.17-6.58l1.09-0.31c0.62,2.18,1.34,4.37,2.14,6.49L312.24,222.62z M466.1,219.31l-1.08-0.35
			c0.71-2.15,1.33-4.36,1.85-6.57l1.1,0.26C467.45,214.88,466.82,217.13,466.1,219.31L466.1,219.31z M308.48,209.3
			c-0.44-2.26-0.78-4.56-1.02-6.85l1.13-0.12c0.24,2.26,0.58,4.53,1.01,6.76L308.48,209.3z M469.29,205.84l-1.12-0.17
			c0.33-2.24,0.58-4.53,0.72-6.79l1.13,0.07C469.87,201.25,469.63,203.57,469.29,205.84z M307.01,195.54
			c-0.01-0.59-0.02-1.18-0.02-1.77c0-1.71,0.05-3.44,0.16-5.15l1.13,0.07c-0.11,1.69-0.16,3.39-0.16,5.08
			c0,0.58,0.01,1.17,0.02,1.75L307.01,195.54z M469.03,192.06c-0.05-2.27-0.19-4.57-0.43-6.82l1.13-0.12
			c0.24,2.28,0.39,4.61,0.44,6.91L469.03,192.06z M309,181.89l-1.12-0.17c0.34-2.28,0.78-4.57,1.31-6.8l1.11,0.26
			C309.77,177.39,309.34,179.65,309,181.89z M467.59,178.49c-0.43-2.23-0.96-4.46-1.57-6.65l1.09-0.31c0.62,2.21,1.16,4.48,1.6,6.74
			L467.59,178.49z M312.14,168.62l-1.08-0.35c0.72-2.19,1.54-4.37,2.44-6.48l1.04,0.44C313.66,164.31,312.85,166.46,312.14,168.62z
			 M463.88,165.35c-0.8-2.12-1.7-4.24-2.68-6.28l1.02-0.49c0.99,2.08,1.91,4.22,2.72,6.37L463.88,165.35z M317.48,156.06l-1-0.53
			c1.08-2.03,2.26-4.04,3.5-5.97l0.95,0.62C319.71,152.08,318.54,154.06,317.48,156.06z M458,153.04c-1.15-1.96-2.4-3.89-3.71-5.74
			l0.93-0.66c1.33,1.88,2.6,3.83,3.76,5.82L458,153.04z M324.88,144.6l-0.9-0.69c1.41-1.82,2.91-3.6,4.47-5.29l0.84,0.77
			C327.75,141.06,326.27,142.81,324.88,144.6L324.88,144.6z M450.1,141.9c-1.46-1.73-3.02-3.42-4.62-5.03l-0.06-0.06l0.8-0.81
			l0.07,0.07c1.63,1.63,3.2,3.34,4.69,5.1L450.1,141.9z M334.11,134.55l-0.77-0.83c1.69-1.56,3.47-3.07,5.29-4.48l0.7,0.9
			C337.54,131.53,335.78,133.01,334.11,134.55z M440.39,132.19c-1.74-1.46-3.55-2.87-5.4-4.17l0.66-0.93
			c1.87,1.33,3.72,2.75,5.48,4.23L440.39,132.19z M344.9,126.18l-0.62-0.95c1.93-1.25,3.94-2.43,5.97-3.52l0.53,1
			C348.78,123.78,346.8,124.95,344.9,126.18z M429.25,124.31c-1.95-1.15-3.98-2.22-6.03-3.2l0.49-1.03
			c2.08,0.99,4.14,2.08,6.12,3.24L429.25,124.31z M356.94,119.76l-0.45-1.04c2.11-0.9,4.29-1.73,6.48-2.45l0.36,1.08
			C361.18,118.06,359.03,118.87,356.94,119.76z M416.94,118.44c-2.12-0.8-4.3-1.51-6.49-2.13l0.31-1.09
			c2.22,0.62,4.43,1.35,6.58,2.16L416.94,118.44z M369.91,115.49l-0.26-1.1c2.24-0.53,4.53-0.97,6.8-1.31l0.17,1.12
			C374.37,114.53,372.11,114.97,369.91,115.49z M403.8,114.75c-2.23-0.43-4.5-0.76-6.76-1l0.12-1.13c2.29,0.24,4.59,0.58,6.85,1.01
			L403.8,114.75z M383.4,113.47l-0.07-1.13c2.3-0.15,4.62-0.2,6.92-0.15l-0.02,1.14C387.96,113.27,385.67,113.33,383.4,113.47
			L383.4,113.47z"/>
		<rect x="51.65" y="365.32" class="st3" width="3.41" height="1.14"/>
		<path class="st4" d="M600.23,366.46h-6.81v-1.14h6.81V366.46z M586.6,366.46h-6.81v-1.14h6.81V366.46z M572.97,366.46h-6.81v-1.14
			h6.81V366.46z M559.35,366.46h-6.82v-1.14h6.82V366.46z M545.72,366.46h-6.81v-1.14h6.81V366.46z M532.09,366.46h-6.81v-1.14h6.81
			V366.46z M518.46,366.46h-6.81v-1.14h6.81V366.46z M504.83,366.46h-6.82v-1.14h6.82V366.46z M491.2,366.46h-6.81v-1.14h6.81
			V366.46z M477.57,366.46h-6.81v-1.14h6.81V366.46z M463.94,366.46h-6.82v-1.14h6.82V366.46z M450.31,366.46h-6.81v-1.14h6.81
			V366.46z M436.68,366.46h-6.81v-1.14h6.81V366.46z M423.05,366.46h-6.81v-1.14h6.81V366.46z M409.42,366.46h-6.82v-1.14h6.82
			V366.46z M395.79,366.46h-6.81v-1.14h6.81V366.46z M382.16,366.46h-6.81v-1.14h6.81V366.46z M368.53,366.46h-6.82v-1.14h6.82
			V366.46z M354.9,366.46h-6.81v-1.14h6.81V366.46z M341.28,366.46h-6.81v-1.14h6.81V366.46z M327.65,366.46h-6.81v-1.14h6.81
			V366.46z M314.02,366.46h-6.82v-1.14h6.82L314.02,366.46z M300.39,366.46h-6.81v-1.14h6.81V366.46z M286.76,366.46h-6.81v-1.14
			h6.81V366.46z M273.13,366.46h-6.81v-1.14h6.81V366.46z M259.5,366.46h-6.81v-1.14h6.81V366.46z M245.87,366.46h-6.81v-1.14h6.81
			L245.87,366.46z M232.24,366.46h-6.81v-1.14h6.81V366.46z M218.61,366.46h-6.81v-1.14h6.81V366.46z M204.98,366.46h-6.81v-1.14
			h6.81V366.46z M191.35,366.46h-6.81v-1.14h6.81V366.46z M177.72,366.46h-6.81v-1.14h6.81V366.46z M164.09,366.46h-6.81v-1.14h6.81
			V366.46z M150.46,366.46h-6.81v-1.14h6.81V366.46z M136.83,366.46h-6.81v-1.14h6.81V366.46z M123.2,366.46h-6.81v-1.14h6.81
			V366.46z M109.58,366.46h-6.81v-1.14h6.81L109.58,366.46z M95.95,366.46h-6.81v-1.14h6.81V366.46z M82.32,366.46H75.5v-1.14h6.81
			V366.46z M68.69,366.46h-6.81v-1.14h6.81V366.46z"/>
		<rect x="607.05" y="365.32" class="st3" width="3.41" height="1.14"/>
	</g>
</g>
</svg>
