<?xml version="1.0" encoding="utf-8"?>
<!-- Generator: Adobe Illustrator 24.1.0, SVG Export Plug-In . SVG Version: 6.00 Build 0)  -->
<svg version="1.1" id="Layer_1" xmlns="http://www.w3.org/2000/svg" xmlns:xlink="http://www.w3.org/1999/xlink" x="0px" y="0px"
	 viewBox="0 0 32 32" style="enable-background:new 0 0 32 32;" xml:space="preserve">
<style type="text/css">
	.st0{fill:#F77C1C;}
	.st1{fill:#1C0B01;}
</style>
<circle class="st0" cx="16" cy="16" r="16"/>
<circle class="st1" cx="16" cy="16" r="14.3"/>
<g>
	<path class="st0" d="M11.4,18.6L10,23.1H8.1l4.8-14.2h2.2l4.8,14.2h-2l-1.5-4.5H11.4z M16.1,17.2l-1.4-4.1
		c-0.3-0.9-0.5-1.8-0.7-2.6h0c-0.2,0.8-0.4,1.7-0.7,2.6l-1.4,4.1H16.1z"/>
	<path class="st0" d="M23.9,10.1c0,0.6-0.4,1.1-1.2,1.1c-0.7,0-1.1-0.5-1.1-1.1c0-0.7,0.5-1.2,1.2-1.2C23.5,8.9,23.9,9.4,23.9,10.1z
		 M21.9,23.1V12.9h1.8v10.2H21.9z"/>
</g>
</svg>
