<?xml version="1.0" encoding="utf-8"?>
<!-- Generator: Adobe Illustrator 24.1.0, SVG Export Plug-In . SVG Version: 6.00 Build 0)  -->
<svg version="1.1" id="Layer_1" xmlns="http://www.w3.org/2000/svg" xmlns:xlink="http://www.w3.org/1999/xlink" x="0px" y="0px"
	 viewBox="0 0 370 143" style="enable-background:new 0 0 370 143;" xml:space="preserve">
<style type="text/css">
	.st0{fill:#333333;}
	.st1{fill:#F9CC3D;}
</style>
<path class="st0" d="M92.7,56.1c0,5.4-2.1,10.1-6.4,14.2c-4.6,4.4-10.5,6.6-17.7,6.6h-7.4v21.7h-4.5v-63h11.8c6.6,0,12.3,2,17,6.1
	C90.4,45.7,92.7,50.5,92.7,56.1z M88.1,56.1c0-5.3-1.9-9.9-5.7-13.7c-3.8-3.8-8.4-5.7-13.8-5.7h-7.4v39.1h7.4c5.4,0,10-1.9,13.8-5.8
	C86.2,66.2,88.1,61.6,88.1,56.1z"/>
<path class="st0" d="M141.4,98.6H137v-7.3c-4.4,5.8-10.3,8.7-17.7,8.7c-6.1,0-11.3-2.2-15.7-6.5c-4.4-4.4-6.5-9.6-6.5-15.6
	c0-6.1,2.2-11.4,6.5-15.7c4.4-4.3,9.6-6.5,15.6-6.5c6.1,0,11.4,2.2,15.7,6.5c4.3,4.3,6.5,9.6,6.5,15.7V98.6z M137,77.9
	c0-5.9-1.7-10.9-5.2-15c-3.5-4.1-7.6-6.2-12.5-6.2c-4.8,0-9,2.1-12.4,6.2c-3.5,4.1-5.2,9.2-5.2,15s1.7,10.9,5.2,15
	c3.5,4.1,7.6,6.2,12.4,6.2c4.9,0,9.1-2.1,12.5-6.2C135.2,88.7,137,83.7,137,77.9z"/>
<path class="st0" d="M162.1,90.5c0,2.5-0.9,4.6-2.6,6.4c-1.8,1.8-3.9,2.7-6.4,2.7c-2.5,0-4.6-0.9-6.4-2.7c-1.8-1.8-2.7-3.9-2.7-6.4
	V57.1h0.9v33.4c0,2.2,0.8,4.1,2.4,5.8c1.6,1.6,3.5,2.4,5.8,2.4c1.2,0,2.2-0.8,3.1-2.4c0.9-1.6,1.3-3.5,1.3-5.8V57.1h4.6V90.5z"/>
<path class="st0" d="M171.8,98.6h-4.5v-63h4.5V98.6z"/>
<path class="st0" d="M225.1,77.2c0,6.1-2.2,11.3-6.7,15.7c-4.5,4.4-9.9,6.6-16.2,6.6c-6.3,0-11.7-2.2-16.2-6.5
	c-4.5-4.4-6.7-9.6-6.7-15.7c0-4.6,1.4-8.8,4.1-12.6c2.7-3.8,6.3-6.5,10.6-8.2l0.4,0.9c-4.2,1.5-7.7,4.1-10.3,7.7
	c-2.7,3.6-4,7.7-4,12.2c0,5.8,2.2,10.8,6.7,15c4.5,4.2,9.6,6.3,15.4,6.3c5,0,9.3-2.1,12.8-6.3c3.6-4.2,5.4-9.2,5.4-15.1
	c0-5.7-1.6-10.5-4.8-14.2c-3.2-3.8-7.3-5.9-12.4-6.5c-3.5-0.4-6.3-1.7-8.4-3.7c-2.1-2.1-3-4.6-2.9-7.7c0.1-2.8,1.2-5.2,3.1-7.3
	c1.9-2,4.3-3,7.1-3c2.8,0,5.2,1,7.3,3c2,2,3,4.4,3,7.3c0,1.7-0.4,3.2-1.2,4.8l-0.5-0.2c0.8-1.4,1.1-2.9,1.1-4.5
	c0-2.6-0.9-4.9-2.8-6.8c-1.9-1.9-4.1-2.8-6.7-2.8c-1.7,0-3.2,0.8-4.4,2.3c-1.2,1.5-1.8,3.6-1.8,6.2c0,5.1,2.5,7.9,7.6,8.4
	c6.1,0.6,11.3,3.4,15.3,8.2C223.1,65.5,225.1,71,225.1,77.2z"/>
<path class="st0" d="M238.7,58.1h-3.3v40.5h-4.5V58.1h-3.5v-0.9h3.5v-11h4.5v11h3.3V58.1z"/>
<path class="st0" d="M259,90.5c0,2.5-0.9,4.6-2.6,6.4c-1.8,1.8-3.9,2.7-6.4,2.7c-2.5,0-4.6-0.9-6.4-2.7c-1.8-1.8-2.7-3.9-2.7-6.4
	V57.1h0.9v33.4c0,2.2,0.8,4.1,2.4,5.8c1.6,1.6,3.5,2.4,5.8,2.4c1.2,0,2.2-0.8,3.1-2.4c0.9-1.6,1.3-3.5,1.3-5.8V57.1h4.6V90.5z"/>
<path class="st0" d="M307.4,77.9c0,6.1-2.2,11.3-6.5,15.6c-4.3,4.4-9.6,6.5-15.7,6.5c-6.1,0-11.3-2.2-15.6-6.5s-6.5-9.6-6.5-15.6
	c0-6.1,2.2-11.4,6.5-15.7c4.4-4.3,9.6-6.5,15.6-6.5c7.5,0,13.4,2.9,17.7,8.8v-29h4.5V77.9z M302.9,77.9c0-5.9-1.7-10.9-5.2-15
	c-3.5-4.1-7.6-6.2-12.5-6.2c-4.8,0-9,2.1-12.4,6.2c-3.5,4.1-5.2,9.2-5.2,15s1.7,10.9,5.2,15c3.5,4.1,7.6,6.2,12.4,6.2
	c4.9,0,9.1-2.1,12.5-6.2C301.2,88.7,302.9,83.7,302.9,77.9z"/>
<path class="st0" d="M316,51.7c0,1.5-0.8,2.3-2.4,2.3c-1.4,0-2.1-0.8-2.1-2.3c0-1.5,0.7-2.3,2.1-2.3C315.2,49.5,316,50.2,316,51.7z
	 M316,98.6h-4.5V57.1h4.5V98.6z"/>
<path class="st0" d="M364.5,78c0,6.1-2.2,11.3-6.5,15.6c-4.3,4.3-9.5,6.5-15.6,6.5c-6.1,0-11.3-2.2-15.6-6.5
	c-4.3-4.3-6.5-9.5-6.5-15.6c0-6.1,2.2-11.4,6.5-15.6c4.3-4.3,9.5-6.4,15.6-6.4c6.1,0,11.4,2.1,15.6,6.4
	C362.3,66.6,364.5,71.8,364.5,78z M360,78c0-5.9-1.7-10.9-5.1-15c-3.4-4.1-7.6-6.2-12.5-6.2c-4.8,0-9,2.1-12.4,6.2
	c-3.4,4.1-5.1,9.1-5.1,15c0,5.8,1.7,10.8,5.1,14.9c3.4,4.1,7.5,6.2,12.4,6.2c4.8,0,9-2.1,12.4-6.2C358.3,88.7,360,83.8,360,78z"/>
<path class="st1" d="M369.7,99.6l-2.1,1.6c0.2,0.7,1.6,6.1-1.5,10.9c-2.1,3.2-5,4.3-6,4.7c-1.6,0.6-3.2,1.2-4.8,1.8
	c-4,1.6-8.1,3.2-11.3,6.4c-21.8-12.4-49.4-16.6-82.3-12.6c-8.1,1-18,3.8-49.9,9.8c-19.4,3.6-29.1,5.4-34.4,6.2
	c-31.9,4.4-58.2,7.7-85.6-3.6c-10.4-4.3-9.6-4.1-24.3-12.6c-11-6.3-22-12-33.9-14.6V3.9l-4.5-4.1c0,0,0,96.1,0,96.2
	c0,0.4-1.1-0.2-3.2-0.6c-0.6-0.1-3.2-0.6-6.6-0.4c-2.9,0.1-5.5,0.6-7.5,1.3c0,0-2.1,0.8-3.9,1.9c-0.6,0.4-1.1,0.8-1.1,0.8
	c-1,0.8-4.4,3.4-6,8.2c-0.6,1.7-0.8,3.4-0.8,5.2c0,4.6,1.7,8.6,5,12c3.3,3.4,7.4,5.1,12.1,5.1c4.6,0,8.4-1.7,11.8-5.1
	s4.8-7.4,4.8-12v-13c11.9,3,21.7,8.8,32.7,15.1c12.2,7,13.8,8.5,24.5,12.7c22,8.7,41.5,8.6,49.3,8.5c12-0.2,24.3-2,35.7-3.6
	c5.6-0.8,10-1.6,11.7-1.9c12.9-2.3,22.2-4.8,24.9-5.3c36.8-7.6,55.5-11.4,67.9-11.6c14.2-0.2,35.6,1.9,62,13.9
	c-2.3,3.5-3.4,8.2-1.4,12.2c0.2,0.3,2.6,4.3,6.8,4.1c2.2-0.1,4.8-1.3,5.8-3.6c1.8-4.3-2.7-10.5-6.9-13.2c-0.1-0.1-0.2-0.1-0.3-0.2
	c1.4-1,2.9-2,4.6-3c0.8-0.5,1.7-0.9,2.5-1.3c2.4-1,4.8-1.9,7.3-2.8c2.1-0.8,4.1-1.8,5.6-3.6c1.5-1.8,2.1-3.7,2.6-5.2
	C370.3,106.2,370.1,102.3,369.7,99.6z M29.2,112.3c0,4.3-1.3,7.8-3.2,10.7c-1.9,2.8-6,4.2-8.8,4.2c-4.4,0-8.2-1.4-11.3-4.2
	c-3-2.8-4.6-6.4-4.6-10.7c0-2.3,0.4-4.4,1.3-6.3c0.2-0.5,1.2-2.5,3.2-4.5c1.8-1.7,4-3,6.3-3.7c2.6-0.8,5.7-1.2,8.4-1.1
	c1.5,0,3.2,0.3,4.7,0.6c0.4,0.1,4,0.5,4,0.8C29.2,103,29.2,107.6,29.2,112.3z M348.2,131.1c0.5,0.5,4.3,4.7,2.9,7.5
	c-0.8,1.6-2.8,1.8-3.2,1.9c-2.2,0.2-4.1-1.3-4.8-2.6c-1.5-3-0.5-6.8,1.4-9.5C345.5,128.8,346.8,129.6,348.2,131.1z"/>
</svg>
