<?xml version="1.0" encoding="utf-8"?>
<!-- Generator: Adobe Illustrator 24.1.0, SVG Export Plug-In . SVG Version: 6.00 Build 0)  -->
<svg version="1.1" xmlns="http://www.w3.org/2000/svg" xmlns:xlink="http://www.w3.org/1999/xlink" x="0px" y="0px"
	 viewBox="0 0 271.5 286.1" style="enable-background:new 0 0 271.5 286.1;" xml:space="preserve">
<style type="text/css">
	.st0{fill:#333333;}
	.st1{display:none;}
	.st2{display:inline;}
	.st3{clip-path:url(#SVGID_2_);}
	.st4{clip-path:url(#SVGID_4_);fill:#565656;}
	.st5{display:inline;opacity:0.5;fill:#CCCCCC;}
	.st6{clip-path:url(#SVGID_6_);}
	.st7{clip-path:url(#SVGID_8_);fill:#565656;}
	.st8{fill:#555655;}
	.st9{fill:#999999;}
	.st10{fill:#989898;}
</style>
<g id="Your_design">
	<g>
		<g>
			<path class="st0" d="M271.7,36.5c-8.2-6.9-14.8-15.5-19.5-25.2l-5.4-11.2v152.3l3.4,3.4c1.7,1.7,3.2,3.4,4.7,5.2
				c5.5,6.6,10.2,14,13.9,21.8l3,6.2V36.6L271.7,36.5z"/>
			<path class="st0" d="M112,36.5v84c0,11.6-4.5,22.5-12.7,30.8l0,0c-8.6,8.7-20.3,13.2-32.6,12.7c-10.4-0.4-20.4-4.7-28-11.8
				c-9.5-9-14.4-21.5-13.5-34.6c0.6-9.2,4.2-18,10.2-25.1C43.7,82.5,55.7,77,68.5,77C50.2,77,33,59.1,20.1,72.1
				C7.1,85,0,102.2,0,120.5s7.1,35.5,20.1,48.4C33,181.9,50.2,189,68.5,189c18.3,0,35.5-7.1,48.4-20.1l0,0c1.7-1.7,3.3-3.4,4.7-5.3
				c9.9-12.2,15.3-27.3,15.3-43.2V0l-5.4,11.3C126.9,21,120.2,29.6,112,36.5z"/>
			<path class="st0" d="M190.1,60.4L190.1,60.4L147,103.5v17c0,7.6-1.2,15-3.6,22l46.7-46.7l46.7,46.7v-35.4L190.1,60.4L190.1,60.4z
				"/>
		</g>
		<g>
			<g>
				<path class="st0" d="M17.5,242.6c0,3-0.8,5.3-2.4,6.9c-1.7,1.7-3.7,2.6-6.2,2.6s-4.5-0.9-6.2-2.6c-1.7-1.7-2.5-3.6-2.5-5.6
					l1.8-0.7c0.4,2.2,1.2,3.8,2.5,4.8c1.1,0.9,2.3,1.4,3.6,1.4c0.2,0,0.5,0,0.7-0.1c1.7,0,3.1-0.6,4.3-1.8c1.1-1.1,1.6-2.8,1.6-5.4
					v-38.4h2.7V242.6z"/>
				<path class="st0" d="M41.3,219.7c4.5,0,8.4,1.6,11.6,4.8c3.2,3.2,4.8,7.1,4.8,11.6c0,4.5-1.6,8.4-4.8,11.6s-7.1,4.8-11.6,4.8
					c-4.5,0-8.4-1.6-11.6-4.8c-3.2-3.2-4.8-7.1-4.8-11.6c0-4.5,1.6-8.4,4.8-11.6C32.9,221.3,36.7,219.7,41.3,219.7z M31.7,226.6
					c-2.6,2.6-4,5.8-4,9.6c0,3.7,1.3,6.9,4,9.6c2.6,2.6,5.8,4,9.6,4c3.7,0,6.9-1.3,9.6-4c2.6-2.6,4-5.8,4-9.6c0-3.7-1.3-6.9-4-9.6
					c-2.7-2.6-5.8-4-9.6-4C37.5,222.6,34.3,223.9,31.7,226.6z"/>
				<path class="st0" d="M64.8,203.9h2.7v20c2.3-2.2,5-3.3,8.2-3.3c3.5,0,6.3,1.1,8.5,3.3c2.2,2.2,3.3,4.9,3.3,8.2v19.6h-2.7v-19.4
					c0-2.5-0.9-4.6-2.7-6.4c-1.8-1.8-3.9-2.6-6.4-2.6s-4.6,0.9-6.4,2.6c-0.8,0.8-1.4,1.6-1.8,2.5v23.3h-2.7V203.9z"/>
				<path class="st0" d="M99.2,228.9v22.8h-2.7v-29.3h2.7v1.9c2.5-2.4,5.3-3.6,8.5-3.6c3.5,0,6.3,1.1,8.5,3.3
					c2.2,2.2,3.3,4.9,3.3,8.2v19.6h-2.7v-19.4c0-2.5-0.9-4.6-2.7-6.4c-1.8-1.8-3.9-2.6-6.4-2.6c-2.5,0-4.6,0.9-6.4,2.6
					C100.4,226.9,99.6,227.9,99.2,228.9z"/>
				<path class="st0" d="M168.1,244.6v-40.6h2.7v40.6c0.5,0.9,1,1.6,1.7,2.3c1.8,1.7,3.9,2.6,6.4,2.6s4.6-0.9,6.4-2.6
					c1.8-1.8,2.7-3.9,2.7-6.4v-36.5h2.7v36.8c-0.1,3.1-1.2,5.8-3.4,8c-2.3,2.3-5.1,3.5-8.4,3.5c-3.2,0-6-1.1-8.3-3.4
					c-0.4-0.4-0.8-0.8-1.1-1.2c-0.3,0.4-0.7,0.8-1.1,1.2c-2.3,2.3-5.1,3.4-8.3,3.4c-3.3,0-6-1.2-8.3-3.5c-2.3-2.2-3.4-4.9-3.5-8
					v-36.8h2.7v36.5c0,2.5,0.9,4.6,2.7,6.4c1.8,1.8,3.9,2.6,6.4,2.6c2.5,0,4.6-0.9,6.4-2.6C167.1,246.2,167.6,245.4,168.1,244.6z"/>
				<path class="st0" d="M202.3,246.2c2.5,2.3,5.5,3.5,9,3.5c3.7,0,6.9-1.3,9.6-4c0.3-0.3,0.7-0.7,1-1l2.8,1
					c-0.5,0.7-1.1,1.4-1.8,2.1c-3.2,3.2-7.1,4.8-11.6,4.8c-4.5,0-8.4-1.6-11.6-4.8c-3.2-3.2-4.8-7.1-4.8-11.6
					c0-4.5,1.6-8.4,4.8-11.6c3.2-3.2,7.1-4.8,11.6-4.8c3.9,0,7.3,1.2,10.2,3.5c0.5,0.4,1,0.8,1.4,1.3c0.2,0.2,0.3,0.4,0.5,0.5l-2,2
					L202.3,246.2z M219.5,225.3c-2.3-1.8-5-2.7-8.1-2.7c-3.7,0-6.9,1.3-9.6,4c-2.6,2.6-4,5.8-4,9.6c0,3.1,0.9,5.8,2.7,8.1
					L219.5,225.3z"/>
				<path class="st0" d="M234.6,203.9v47.8h-2.7v-47.8H234.6z"/>
				<path class="st0" d="M246.2,203.9v47.8h-2.7v-47.8H246.2z"/>
				<path class="st0" d="M263.3,236.6c-2.3-1.2-3.9-2.3-4.8-3.2c-1.4-1.4-2.1-3-2.1-5c0-2,0.7-3.6,2.1-5c1.4-1.4,3-2.1,5-2.1
					c2,0,3.6,0.6,4.8,1.9c1.2,1.3,1.9,2.7,1.9,4.3v0.1l-2.3,0.9c-0.2-1.5-0.7-2.6-1.4-3.4c-0.7-0.8-1.7-1.1-2.9-1.1
					c-1.2,0-2.2,0.4-3.1,1.3c-0.9,0.8-1.3,1.9-1.3,3.1c0,1.2,0.4,2.2,1.3,3.1c0.5,0.5,1.6,1.3,3.2,2.3c2.6,1.4,4.4,2.6,5.4,3.7
					c1.7,1.7,2.5,3.8,2.5,6.1c0,2.4-0.8,4.5-2.5,6.2c-1.7,1.7-3.7,2.6-6.2,2.6c-2.4,0-4.5-0.9-6.2-2.6c-1.7-1.7-2.5-3.6-2.5-5.6
					l2.7-0.7c0,1.8,0.6,3.2,1.8,4.4c1.2,1.2,2.6,1.8,4.3,1.8c1.7,0,3.1-0.6,4.3-1.8c1.2-1.2,1.8-2.6,1.8-4.3c0-1.7-0.6-3.1-1.8-4.2
					C266.5,238.8,265.2,237.9,263.3,236.6z"/>
			</g>
			<g>
				<rect x="0.3" y="260.5" class="st0" width="271.3" height="2"/>
			</g>
			<g>
				<path class="st0" d="M0.3,286v-14.3h3.5c0.6,0,1.2,0.1,1.7,0.2c0.6,0.2,1.1,0.4,1.5,0.8c0.4,0.3,0.8,0.8,1,1.3
					c0.3,0.5,0.4,1.1,0.4,1.9c0,0.5-0.1,1.1-0.3,1.6c-0.2,0.5-0.4,1-0.8,1.4c-0.4,0.4-0.8,0.7-1.4,1c-0.6,0.3-1.3,0.4-2.1,0.4H1.7
					v5.7H0.3z M1.7,279h2.1c0.6,0,1.2-0.1,1.6-0.3c0.4-0.2,0.8-0.5,1-0.8c0.2-0.3,0.4-0.6,0.5-1c0.1-0.4,0.1-0.7,0.1-1
					c0-0.4-0.1-0.7-0.2-1.1c-0.1-0.4-0.3-0.7-0.6-0.9c-0.3-0.3-0.6-0.5-1-0.7c-0.4-0.2-0.9-0.2-1.4-0.2H1.7V279z"/>
				<path class="st0" d="M24.7,286v-14.3h3.5c0.6,0,1.2,0.1,1.7,0.2c0.6,0.2,1.1,0.4,1.5,0.8c0.4,0.3,0.8,0.8,1,1.3
					c0.3,0.5,0.4,1.1,0.4,1.9c0,0.8-0.2,1.6-0.5,2.3c-0.4,0.7-1,1.3-1.8,1.7c0.1,0.2,0.3,0.5,0.5,0.8c0.2,0.3,0.4,0.7,0.7,1.1
					c0.2,0.4,0.5,0.8,0.7,1.2c0.3,0.4,0.5,0.8,0.7,1.2c0.2,0.4,0.5,0.7,0.7,1.1c0.2,0.3,0.4,0.6,0.5,0.8h-1.7
					c-0.1-0.2-0.2-0.4-0.4-0.7c-0.2-0.3-0.4-0.6-0.6-0.9c-0.2-0.3-0.4-0.7-0.7-1.1c-0.2-0.4-0.5-0.8-0.7-1.1
					c-0.2-0.4-0.4-0.7-0.6-1.1c-0.2-0.3-0.4-0.6-0.5-0.9c-0.1,0-0.3,0-0.4,0c-0.1,0-0.3,0-0.4,0H26v5.7H24.7z M26,279h2.1
					c0.6,0,1.2-0.1,1.6-0.3c0.4-0.2,0.8-0.5,1-0.8c0.2-0.3,0.4-0.6,0.5-1c0.1-0.4,0.1-0.7,0.1-1c0-0.4-0.1-0.7-0.2-1.1
					c-0.1-0.3-0.3-0.7-0.6-0.9c-0.3-0.3-0.6-0.5-1-0.7c-0.4-0.2-0.9-0.2-1.4-0.2H26V279z"/>
				<path class="st0" d="M48.8,278.9c0-1,0.2-1.9,0.6-2.8c0.4-0.9,0.9-1.7,1.6-2.3c0.7-0.7,1.4-1.2,2.3-1.6c0.9-0.4,1.8-0.6,2.8-0.6
					c1,0,1.9,0.2,2.8,0.6c0.9,0.4,1.7,0.9,2.3,1.6c0.7,0.7,1.2,1.4,1.6,2.3c0.4,0.9,0.6,1.8,0.6,2.8c0,1-0.2,1.9-0.6,2.8
					c-0.4,0.9-0.9,1.7-1.6,2.3c-0.7,0.7-1.4,1.2-2.3,1.6c-0.9,0.4-1.8,0.6-2.8,0.6c-1,0-1.9-0.2-2.8-0.6c-0.9-0.4-1.7-0.9-2.3-1.6
					c-0.7-0.7-1.2-1.4-1.6-2.3C49,280.8,48.8,279.9,48.8,278.9z M50.2,278.9c0,0.8,0.2,1.6,0.5,2.3c0.3,0.7,0.7,1.4,1.3,1.9
					c0.5,0.5,1.2,1,1.9,1.3c0.7,0.3,1.5,0.5,2.3,0.5c0.8,0,1.6-0.2,2.3-0.5c0.7-0.3,1.4-0.7,1.9-1.3c0.5-0.5,1-1.2,1.3-1.9
					c0.3-0.7,0.5-1.5,0.5-2.3c0-0.8-0.2-1.6-0.5-2.3c-0.3-0.7-0.7-1.4-1.3-1.9c-0.5-0.5-1.2-1-1.9-1.3c-0.7-0.3-1.5-0.5-2.3-0.5
					c-0.8,0-1.6,0.2-2.3,0.5c-0.7,0.3-1.3,0.7-1.9,1.3c-0.5,0.5-1,1.2-1.3,1.9C50.3,277.3,50.2,278,50.2,278.9z"/>
				<path class="st0" d="M79.8,271.7h3.3c1.4,0,2.7,0.2,3.7,0.7c1,0.4,1.8,1,2.4,1.7c0.6,0.7,1.1,1.5,1.4,2.3
					c0.3,0.9,0.4,1.7,0.4,2.5c0,1.1-0.2,2.1-0.6,2.9c-0.4,0.9-0.9,1.6-1.6,2.2c-0.7,0.6-1.4,1.1-2.3,1.4c-0.9,0.3-1.8,0.5-2.8,0.5
					h-4V271.7z M83.7,284.7c0.8,0,1.6-0.1,2.3-0.4c0.7-0.3,1.4-0.6,1.9-1.1s1-1.1,1.3-1.8c0.3-0.7,0.5-1.5,0.5-2.4
					c0-0.8-0.1-1.6-0.4-2.3c-0.3-0.7-0.7-1.3-1.2-1.8c-0.5-0.5-1.2-0.9-1.9-1.2s-1.6-0.4-2.5-0.4h-2.4v11.6H83.7z"/>
				<path class="st0" d="M112.4,286.1c-0.7,0-1.4-0.1-2-0.4c-0.6-0.2-1.2-0.6-1.6-1c-0.5-0.4-0.8-0.9-1.1-1.6
					c-0.3-0.6-0.4-1.3-0.4-2.1v-9.4h1.4v9.3c0,0.6,0.1,1.1,0.3,1.6c0.2,0.5,0.4,0.9,0.8,1.2c0.3,0.3,0.7,0.6,1.2,0.8
					c0.5,0.2,0.9,0.3,1.5,0.3c0.5,0,1-0.1,1.5-0.3c0.5-0.2,0.8-0.4,1.2-0.8c0.3-0.3,0.6-0.7,0.8-1.2c0.2-0.5,0.3-1,0.3-1.6v-9.3h1.4
					v9.4c0,0.8-0.1,1.5-0.4,2.1c-0.3,0.6-0.6,1.1-1.1,1.6c-0.5,0.4-1,0.8-1.6,1C113.7,286,113.1,286.1,112.4,286.1z"/>
				<path class="st0" d="M145,285c-0.4,0.3-1,0.5-1.7,0.8c-0.7,0.2-1.5,0.4-2.5,0.4c-1.1,0-2.1-0.2-3-0.6c-0.9-0.4-1.6-0.9-2.3-1.6
					c-0.6-0.7-1.1-1.4-1.4-2.3c-0.3-0.9-0.5-1.8-0.5-2.8c0-1.1,0.2-2,0.6-2.9c0.4-0.9,0.9-1.7,1.6-2.3c0.7-0.7,1.4-1.2,2.3-1.5
					c0.9-0.4,1.8-0.6,2.9-0.6c0.4,0,0.7,0,1.1,0.1c0.4,0,0.7,0.1,1,0.2c0.3,0.1,0.6,0.2,0.9,0.3s0.5,0.3,0.7,0.4
					c-0.1,0.1-0.1,0.2-0.2,0.3c0,0.1-0.1,0.1-0.1,0.2c0,0.1-0.1,0.2-0.1,0.2c-0.1,0.1-0.1,0.2-0.2,0.4c-0.4-0.3-0.9-0.5-1.5-0.6
					c-0.6-0.1-1.1-0.2-1.6-0.2c-0.8,0-1.6,0.2-2.4,0.5c-0.7,0.3-1.4,0.8-1.9,1.3c-0.5,0.6-1,1.2-1.3,1.9c-0.3,0.7-0.5,1.5-0.5,2.3
					c0,0.8,0.1,1.5,0.4,2.2c0.3,0.7,0.7,1.3,1.2,1.9c0.5,0.5,1.1,1,1.9,1.3c0.7,0.3,1.5,0.5,2.4,0.5c0.4,0,0.8,0,1.1-0.1
					c0.4-0.1,0.7-0.1,1-0.2c0.3-0.1,0.6-0.2,0.8-0.3c0.2-0.1,0.4-0.2,0.5-0.3L145,285z"/>
				<path class="st0" d="M168.8,271.7v1.3H165v13h-1.4v-13h-3.8v-1.3H168.8z"/>
				<path class="st0" d="M185.1,271.7h1.4V286h-1.4V271.7z"/>
				<path class="st0" d="M202.9,278.9c0-1,0.2-1.9,0.6-2.8c0.4-0.9,0.9-1.7,1.6-2.3c0.7-0.7,1.4-1.2,2.3-1.6
					c0.9-0.4,1.8-0.6,2.8-0.6s1.9,0.2,2.8,0.6c0.9,0.4,1.7,0.9,2.3,1.6c0.7,0.7,1.2,1.4,1.6,2.3c0.4,0.9,0.6,1.8,0.6,2.8
					c0,1-0.2,1.9-0.6,2.8c-0.4,0.9-0.9,1.7-1.6,2.3c-0.7,0.7-1.4,1.2-2.3,1.6c-0.9,0.4-1.8,0.6-2.8,0.6s-1.9-0.2-2.8-0.6
					c-0.9-0.4-1.7-0.9-2.3-1.6c-0.7-0.7-1.2-1.4-1.6-2.3C203.1,280.8,202.9,279.9,202.9,278.9z M204.2,278.9c0,0.8,0.2,1.6,0.5,2.3
					c0.3,0.7,0.7,1.4,1.3,1.9c0.5,0.5,1.2,1,1.9,1.3c0.7,0.3,1.5,0.5,2.3,0.5c0.8,0,1.6-0.2,2.3-0.5c0.7-0.3,1.4-0.7,1.9-1.3
					c0.5-0.5,1-1.2,1.3-1.9c0.3-0.7,0.5-1.5,0.5-2.3c0-0.8-0.2-1.6-0.5-2.3c-0.3-0.7-0.7-1.4-1.3-1.9c-0.5-0.5-1.2-1-1.9-1.3
					c-0.7-0.3-1.5-0.5-2.3-0.5c-0.8,0-1.6,0.2-2.3,0.5c-0.7,0.3-1.3,0.7-1.9,1.3c-0.5,0.5-1,1.2-1.3,1.9
					C204.4,277.3,204.2,278,204.2,278.9z"/>
				<path class="st0" d="M246,271.7v14.9c-0.4-0.5-0.9-1-1.4-1.7c-0.6-0.6-1.2-1.3-1.8-2.1s-1.3-1.5-2-2.2c-0.7-0.8-1.4-1.5-2-2.2
					c-0.7-0.7-1.2-1.4-1.8-2c-0.5-0.6-1-1.2-1.3-1.6c0-0.1-0.1-0.1-0.2-0.2c-0.1-0.1-0.2-0.2-0.2-0.3l0.1,0.6V286h-1.4v-14.9
					c0.4,0.5,0.9,1.1,1.4,1.7c0.6,0.6,1.2,1.3,1.8,2c0.7,0.7,1.3,1.5,2,2.2c0.7,0.8,1.4,1.5,2,2.2c0.6,0.7,1.2,1.4,1.8,2
					c0.6,0.6,1,1.2,1.4,1.6c0,0.1,0.1,0.1,0.2,0.2c0.1,0.1,0.2,0.2,0.2,0.3l-0.1-0.7v-11H246z"/>
				<path class="st0" d="M271,272.5l-0.5,1.1c-0.5-0.2-1-0.3-1.5-0.5c-0.6-0.1-1.1-0.2-1.6-0.2c-0.5,0-0.9,0.1-1.3,0.2
					c-0.4,0.1-0.7,0.3-1,0.5c-0.3,0.2-0.5,0.5-0.6,0.7c-0.1,0.3-0.2,0.6-0.2,0.9c0,0.4,0.1,0.7,0.3,1c0.2,0.3,0.5,0.5,0.8,0.7
					c0.3,0.2,0.7,0.4,1.2,0.5c0.4,0.2,0.9,0.3,1.3,0.5c0.5,0.2,0.9,0.4,1.3,0.6c0.4,0.2,0.8,0.5,1.2,0.8c0.3,0.3,0.6,0.7,0.8,1.1
					c0.2,0.4,0.3,1,0.3,1.6c0,0.6-0.1,1.2-0.3,1.7c-0.2,0.5-0.6,0.9-1,1.3c-0.4,0.4-0.9,0.6-1.6,0.8c-0.6,0.2-1.3,0.3-2.1,0.3
					c-0.6,0-1.1,0-1.5-0.2c-0.5-0.1-0.9-0.2-1.3-0.4c-0.4-0.1-0.7-0.3-1-0.4c-0.3-0.1-0.5-0.3-0.6-0.4l0.6-1.2
					c0.2,0.1,0.5,0.3,0.8,0.4c0.3,0.1,0.6,0.3,0.9,0.4c0.3,0.1,0.7,0.2,1,0.3c0.3,0.1,0.7,0.1,1,0.1c0.4,0,0.8-0.1,1.2-0.2
					c0.4-0.1,0.8-0.3,1.2-0.5c0.4-0.2,0.7-0.5,0.9-0.9c0.2-0.4,0.4-0.8,0.4-1.3c0-0.6-0.2-1.1-0.5-1.5c-0.4-0.4-0.8-0.7-1.4-1
					c-0.5-0.3-1.1-0.5-1.8-0.7c-0.6-0.2-1.2-0.5-1.8-0.7c-0.5-0.3-1-0.6-1.4-1.1c-0.4-0.4-0.5-1-0.5-1.7c0-0.5,0.1-0.9,0.3-1.4
					c0.2-0.4,0.5-0.8,0.8-1.2s0.8-0.6,1.4-0.8c0.5-0.2,1.1-0.3,1.8-0.3c0.4,0,0.8,0,1.1,0.1c0.4,0.1,0.8,0.1,1.1,0.2
					c0.3,0.1,0.7,0.2,0.9,0.3C270.6,272.3,270.8,272.4,271,272.5z"/>
			</g>
		</g>
	</g>
</g>
<g id="_x39_9d_logo" class="st1">
	<g class="st2">
		<defs>
			<path id="SVGID_1_" d="M-127.8,64.4c15.7-27.3,50.3-36.6,77.4-20.9c27.1,15.7,36.4,50.6,20.7,77.9
				c-15.7,27.3-50.3,36.6-77.4,20.9C-134.1,126.6-143.4,91.7-127.8,64.4z M88.7,64.4c15.7-27.3,50.3-36.6,77.4-20.9
				c27.1,15.7,36.4,50.6,20.7,77.9c-15.7,27.3-50.3,36.6-77.4,20.9C82.3,126.6,73,91.7,88.7,64.4z M391.7,236.6
				c-11.2,11.3-25.5,16.9-42.9,16.9c-8.4,0-16.2-1.5-23.6-4.5c-7.3-3-13.5-7.1-18.7-12.4c-5.1-5.3-9.2-11.6-12.1-19
				c-3-7.4-4.4-15.4-4.4-24.2c0-8.5,1.5-16.4,4.4-23.7c3-7.4,7.1-13.6,12.4-18.8c5.3-5.2,11.6-9.2,18.9-12.2c7.3-3,15.3-4.5,24-4.5
				c8.4,0,16.2,1.5,23.3,4.5c7.1,3,13.4,7.1,18.6,12.4c5.3,5.3,9.4,11.5,12.4,18.5c3,7,4.4,14.8,4.4,23.2
				C408.5,210.8,402.9,225.3,391.7,236.6z M29.5,154.1c10.5,18.9,26.1,35.3,46.2,47c16.8,9.8,35,15,53.1,16.3l-54,94.1h80.8
				l64.4-112.2c0.5,16.2,3.4,31.2,8.5,44.9c5.8,15.3,13.8,28.5,24.3,39.6c10.4,11.1,22.8,19.8,37.1,26.1c14.3,6.3,30,9.4,47.1,9.4
				c16.2,0,29.8-2.6,40.8-7.7c11-5.2,21.2-13.5,30.6-25.1v24.9h66.3v-336h-70V96.3c-9.6-9.4-19.9-16.4-30.8-20.9
				c-10.9-4.5-23.7-6.8-38.3-6.8c-16.5,0-31.8,3.1-45.9,9.4c-10.3,4.6-19.6,10.4-27.9,17.5c0.9-44-21.5-87.1-62-110.7
				c-59.4-34.5-135.3-14-169.5,45.7c-0.2,0.4-0.5,0.9-0.7,1.3C19,12.9,3.4-3.5-16.6-15.2c-59.4-34.5-135.3-14-169.5,45.7
				c-34.3,59.7-13.9,136.1,45.4,170.5c16.8,9.8,35,15,53.1,16.3l-54,94.1h80.8l89.6-156C29.1,154.9,29.3,154.5,29.5,154.1
				L29.5,154.1z"/>
		</defs>
		<clipPath id="SVGID_2_">
			<use xlink:href="#SVGID_1_"  style="overflow:visible;"/>
		</clipPath>
		<g class="st3">
			<defs>
				<rect id="SVGID_3_" x="-749.5" y="-742.5" width="1770.8" height="1770.8"/>
			</defs>
			<clipPath id="SVGID_4_">
				<use xlink:href="#SVGID_3_"  style="overflow:visible;"/>
			</clipPath>
			<rect x="-213.9" y="-43" class="st4" width="699.6" height="373.2"/>
		</g>
	</g>
</g>
<g id="Guides">
</g>
<g id="TEMPLATE__x28_delete_x29_" class="st1">
	<path class="st5" d="M-364.1-356.7v1000h1000v-1000H-364.1z M435.9,443.3h-600v-600h600V443.3z"/>
	<g class="st2">
		<defs>
			<path id="SVGID_5_" d="M-116.6-61.8c2-3.5,6.4-4.6,9.8-2.6c3.4,2,4.6,6.4,2.6,9.9c-2,3.5-6.4,4.6-9.8,2.6
				C-117.4-53.9-118.5-58.3-116.6-61.8z M-88-61.8c2-3.5,6.4-4.6,9.8-2.6c3.4,2,4.6,6.4,2.6,9.9c-2,3.5-6.4,4.6-9.8,2.6
				C-88.8-53.9-90-58.3-88-61.8z M-44.7-39.9c-1.4,1.4-3.2,2.1-5.4,2.1c-1.1,0-2.1-0.2-3-0.6c-0.9-0.4-1.7-0.9-2.4-1.6
				c-0.7-0.7-1.2-1.5-1.5-2.4c-0.4-0.9-0.6-2-0.6-3.1c0-1.1,0.2-2.1,0.6-3c0.4-0.9,0.9-1.7,1.6-2.4c0.7-0.7,1.5-1.2,2.4-1.5
				c0.9-0.4,1.9-0.6,3-0.6c1.1,0,2.1,0.2,3,0.6c0.9,0.4,1.7,0.9,2.4,1.6c0.7,0.7,1.2,1.5,1.6,2.3c0.4,0.9,0.6,1.9,0.6,2.9
				C-42.6-43.2-43.3-41.4-44.7-39.9z M-43-73.1v15.3c-1.2-1.2-2.5-2.1-3.9-2.7c-1.4-0.6-3-0.9-4.9-0.9c-2.1,0-4,0.4-5.8,1.2
				c-1.8,0.8-3.3,1.9-4.6,3.3c-1.3,1.4-2.3,3.1-3.1,5c-0.7,1.9-1.1,4-1.1,6.3c0,2.3,0.4,4.5,1.1,6.4c0.7,1.9,1.8,3.6,3.1,5
				c1.3,1.4,2.9,2.5,4.7,3.3c1.8,0.8,3.8,1.2,6,1.2c2.1,0,3.8-0.3,5.2-1c1.4-0.7,2.7-1.7,3.9-3.2v3.2h8.4v-42.6H-43z M-96-64.8
				c0.2-0.4,0.4-0.9,0.7-1.3c4.3-7.6,14-10.2,21.5-5.8c7.5,4.4,10.1,14.1,5.8,21.6l-11.4,19.8h-10.2l6.8-11.9
				c-2.3-0.2-4.6-0.8-6.7-2.1c-2.9-1.7-5.1-4.2-6.4-7.1c-0.2,0.4-0.4,0.9-0.7,1.3l-11.4,19.8h-10.2l6.8-11.9
				c-2.3-0.2-4.6-0.8-6.7-2.1c-7.5-4.4-10.1-14.1-5.8-21.6c4.3-7.6,14-10.2,21.5-5.8C-99.5-70.2-97.4-67.6-96-64.8z M-23.4-48.5
				c0.4-1.7,1.1-2.9,2.3-3.8c1.2-0.9,2.6-1.3,4.3-1.3c1.7,0,3.2,0.5,4.4,1.4c1.2,0.9,2,2.2,2.3,3.7H-23.4z M-2.4-51.4
				c-0.8-2-1.9-3.7-3.3-5.1c-1.4-1.4-3-2.6-5-3.4c-1.9-0.8-4-1.2-6.2-1.2c-2.1,0-4.1,0.4-6,1.2c-1.9,0.8-3.5,2-4.9,3.4
				c-1.4,1.4-2.5,3.1-3.3,5c-0.8,1.9-1.2,4-1.2,6.2c0,2.2,0.4,4.3,1.2,6.2c0.8,1.9,1.9,3.6,3.3,5c1.4,1.4,3,2.5,4.9,3.4
				c1.9,0.8,3.9,1.2,6.1,1.2c3.1,0,6-0.9,8.5-2.7c2.4-1.7,4.3-4.1,5.7-7.1h-9.2c-0.9,0.9-1.8,1.5-2.6,1.8c-0.8,0.3-1.7,0.5-2.8,0.5
				c-1.8,0-3.2-0.5-4.4-1.5c-1.2-1-1.9-2.3-2.1-4h22.1C-1-45.5-1.3-48.5-2.4-51.4z M23.1-51.8c-0.4-5.8-5-9.3-11.3-9.3
				c-6,0-11.5,3.8-11.5,9.6c0,3.5,2,6.4,9.4,8.7c4.4,1.4,5.4,2.2,5.4,3.9c0,1.4-1.5,2.3-3.1,2.3c-1.8,0-3.1-0.9-3.4-2.7h-8.8
				c0.6,6,5.4,9.8,12,9.8c6.7,0,12-3.9,12-10.1c0-4.3-2.3-7.1-9.3-9c-4.1-1.1-5.5-1.9-5.5-3.5c0-1.1,1.1-2,2.6-2
				c1.4,0,2.7,0.5,2.7,2.2H23.1z M30.8-63.3c2.9,0,5.3-2.4,5.3-5.3s-2.4-5.3-5.3-5.3c-2.9,0-5.3,2.4-5.3,5.3S27.9-63.3,30.8-63.3z
				 M35.2-30.5h-8.8v-29.7h8.8V-30.5z M52.1-54.5c2.7,0,4.9,2.2,4.9,4.9s-2.2,4.9-4.9,4.9c-2.7,0-4.9-2.2-4.9-4.9
				C47.3-52.3,49.4-54.5,52.1-54.5z M58.3-24.4c-1,1.4-2.9,1.9-4.5,1.9c-1.9,0.1-4.5-0.3-5.7-1.9c-1.2-1.5-1-3.6,0.7-4.6
				c0.5-0.3,1-0.5,1.5-0.6h4.4c1.9,0,4.4,0.5,4.3,2.9C59-25.8,58.7-25,58.3-24.4z M49.7-36.3c-3.6-0.6-3.5-2-2.6-2.7
				c8.2,3.1,18.1-0.8,18.2-10.3c0-3.5-1.3-5.7-2.2-6.7c0.7-1.4,1.6-2.2,3.4-2.6L62.8-65c-3.4,0.3-5.6,2.4-6.6,4.5
				c-2-0.8-6.1-0.9-9.3,0.3c-1.6,0.6-3,1.4-4.2,2.5c-1.2,1-2.1,2.3-2.8,3.8c-0.7,1.5-1,3.1-1,4.8c0,2.3,0.7,4.9,2,6.8
				c-3.6,3.5-3.4,8.7,0.3,12c-0.4,0.3-0.8,0.6-1.1,1c-3.3,3.6-1.8,8.7,2.1,11.3c4.8,3.5,13.4,3.7,18.7,1.3
				c9.3-3.8,9.6-17.6-1.2-19.4C56.7-36.7,53.3-35.7,49.7-36.3z M68.7-30.5h8.9V-47c0-3.9,1.7-5.8,5-5.8c1.6,0,2.8,0.5,3.5,1.5
				c0.7,1,1.1,2.6,1.1,4.7v16.2H96V-49c0-1.2-0.1-2.2-0.1-3.1c-0.1-0.9-0.3-1.7-0.5-2.4c-0.2-0.7-0.5-1.3-0.9-1.9
				c-0.4-0.6-0.9-1.1-1.4-1.7c-0.9-0.9-2.1-1.7-3.5-2.2c-1.4-0.5-2.9-0.8-4.4-0.8c-1.9,0-3.5,0.3-4.7,1c-1.2,0.7-2.4,1.7-3.4,3.2
				v-3.1h-8.4V-30.5z M121-51.8c-0.4-5.8-5-9.3-11.3-9.3c-6,0-11.5,3.8-11.5,9.6c0,3.5,2,6.4,9.4,8.7c4.4,1.4,5.4,2.2,5.4,3.9
				c0,1.4-1.5,2.3-3.1,2.3c-1.8,0-3.1-0.9-3.4-2.7h-8.8c0.6,6,5.4,9.8,12,9.8c6.7,0,12-3.9,12-10.1c0-4.3-2.3-7.1-9.3-9
				c-4.1-1.1-5.5-1.9-5.5-3.5c0-1.1,1.1-2,2.6-2c1.4,0,2.7,0.5,2.7,2.2H121z"/>
		</defs>
		<clipPath id="SVGID_6_">
			<use xlink:href="#SVGID_5_"  style="overflow:visible;"/>
		</clipPath>
		<g class="st6">
			<defs>
				<rect id="SVGID_7_" x="-167.4" y="-214.1" width="330.7" height="330.7"/>
			</defs>
			<clipPath id="SVGID_8_">
				<use xlink:href="#SVGID_7_"  style="overflow:visible;"/>
			</clipPath>
			<rect x="-128.1" y="-76" class="st7" width="252.2" height="62.8"/>
		</g>
	</g>
	<g class="st2">
		<path class="st8" d="M-121.1,29.1h7v3.1h-10.3V15.4h3.3V29.1z"/>
		<path class="st8" d="M-99.8,26.1c0,3.8-2.7,6.4-6.4,6.4c-3.6,0-6.4-2.6-6.4-6.4c0-3.8,2.7-6.3,6.4-6.3
			C-102.5,19.8-99.8,22.4-99.8,26.1z M-109.3,26.1c0,2,1.3,3.5,3.2,3.5c1.9,0,3.1-1.5,3.1-3.5c0-2-1.2-3.5-3.1-3.5
			C-108,22.6-109.3,24.1-109.3,26.1z"/>
		<path class="st8" d="M-86.2,22.7H-88c0.1,0.4,0.2,0.9,0.2,1.4c0,2.4-2,4.2-4.8,4.2c-0.7,0-1.4-0.1-2-0.3c-0.2,0.2-0.3,0.5-0.3,0.9
			c0,0.6,0.5,1,1.2,1h2.9c2.5,0,4,1.2,4,3.5c0,2.7-2.1,4.2-5.4,4.2c-3.6,0-5.5-1.3-5.5-3.7c0-1.1,0.6-1.8,1.2-2.1
			c-0.7-0.5-1.4-1.4-1.4-2.6c0-1.2,0.5-2,1.2-2.6c-0.5-0.7-0.8-1.5-0.8-2.5c0-2.5,2.1-4.3,4.9-4.3c0.6,0,1.2,0.1,1.8,0.3h4.6V22.7z
			 M-93.4,32.3c-0.7,0.1-1.2,0.6-1.2,1.4c0,1.1,1,1.7,2.5,1.7c1.4,0,2.3-0.6,2.3-1.7c0-0.9-0.7-1.3-1.7-1.3H-93.4z M-94.4,24.1
			c0,1.1,0.7,1.9,1.8,1.9s1.8-0.8,1.8-1.9c0-1.2-0.7-2-1.8-2C-93.7,22.1-94.4,22.9-94.4,24.1z"/>
		<path class="st8" d="M-72.3,26.1c0,3.8-2.7,6.4-6.4,6.4c-3.6,0-6.4-2.6-6.4-6.4c0-3.8,2.7-6.3,6.4-6.3
			C-75.1,19.8-72.3,22.4-72.3,26.1z M-81.9,26.1c0,2,1.3,3.5,3.2,3.5c1.9,0,3.1-1.5,3.1-3.5c0-2-1.2-3.5-3.1-3.5
			C-80.6,22.6-81.9,24.1-81.9,26.1z"/>
		<path class="st8" d="M-60.8,20h2.8v2.8h-2.8l0,4.9c0,1.2,0.4,1.8,1.6,1.8c0.6,0,0.9-0.1,1.3-0.2v2.7c-0.4,0.1-1,0.3-2,0.3
			c-2.7,0-4-1.1-4-3.8l0-5.7h-2V20h2l0-3h3.1L-60.8,20z"/>
		<path class="st8" d="M-44.5,26.1v1H-53c0.1,1.6,1.2,2.7,2.9,2.7c1.2,0,2.1-0.5,2.4-1.4h3c-0.7,2.6-2.6,4.1-5.6,4.1
			c-3.6,0-6-2.5-6-6.3c0-3.7,2.4-6.4,6-6.4C-46.9,19.8-44.5,21.8-44.5,26.1z M-53,24.9h5.3c0-1.5-1-2.5-2.6-2.5
			C-51.8,22.4-52.8,23.4-53,24.9z"/>
		<path class="st8" d="M-24.7,24.3v7.9h-3.1V25c0-1.4-0.6-2.2-1.7-2.2c-1.2,0-2.1,0.9-2.1,2.8v6.6h-3.1V25c0-1.4-0.6-2.2-1.7-2.2
			c-1.2,0-2.1,1-2.1,3v6.4h-3.1V20h2.7l0.2,1.6c0.6-1,1.7-1.8,3.2-1.8c1.7,0,2.9,0.8,3.5,2.1c0.6-1.2,1.8-2.1,3.5-2.1
			C-26,19.8-24.7,21.6-24.7,24.3z"/>
		<path class="st8" d="M-8.8,26.1c0,3.6-2.4,6.4-5.7,6.4c-1.8,0-3-0.7-3.6-1.6v6.5h-3.1V20h2.7l0.2,1.6c0.7-1,1.8-1.9,3.9-1.9
			C-11.2,19.8-8.8,22.5-8.8,26.1z M-18.2,26.1v0.1c0,2.1,1.6,3.3,3.1,3.3c1.7,0,3.1-1.3,3.1-3.4c0-2.1-1.3-3.4-3.1-3.4
			C-16.6,22.7-18.2,23.9-18.2,26.1z"/>
		<path class="st8" d="M-3,32.2h-3.1V14.7H-3V32.2z"/>
		<path class="st8" d="M10,24.2v8H7.3l-0.2-1.5c-0.6,1-1.8,1.8-3.5,1.8c-2.2,0-3.7-1.3-3.7-3.5c0-2.4,1.6-3.3,3.8-3.6l3.1-0.6v-0.5
			c0-1.2-0.6-1.8-1.7-1.8c-1,0-1.8,0.6-1.8,1.6h-3c0.1-2.5,2-4.3,4.8-4.3S10,21.2,10,24.2z M4.4,27.3C3.6,27.5,3,27.9,3,28.7
			c0,0.7,0.5,1.2,1.4,1.2c0.8,0,1.5-0.4,1.9-1.1c0.3-0.4,0.4-1,0.4-1.6v-0.4L4.4,27.3z"/>
		<path class="st8" d="M17.1,20h2.8v2.8h-2.8l0,4.9c0,1.2,0.4,1.8,1.6,1.8c0.6,0,0.9-0.1,1.3-0.2v2.7c-0.4,0.1-1,0.3-2,0.3
			c-2.7,0-4-1.1-4-3.8l0-5.7h-2V20h2l0-3h3.1L17.1,20z"/>
		<path class="st8" d="M33.4,26.1v1h-8.5c0.1,1.6,1.2,2.7,2.9,2.7c1.2,0,2.1-0.5,2.4-1.4h3c-0.7,2.6-2.6,4.1-5.6,4.1
			c-3.6,0-6-2.5-6-6.3c0-3.7,2.4-6.4,6-6.4C31,19.8,33.4,21.8,33.4,26.1z M25,24.9h5.3c0-1.5-1-2.5-2.6-2.5
			C26.1,22.4,25.1,23.4,25,24.9z"/>
		<path class="st9" d="M46.5,15.9c-2,2.7-3,5-3,8.6c0,3.6,1,6,3,8.6l-2.2,1.5c-2.2-2.7-3.7-5.7-3.7-10.1s1.5-7.4,3.7-10.1L46.5,15.9
			z"/>
		<path class="st9" d="M54.5,32.2h-3.3V20.6h-3.5v-2.8c2.6,0,4-0.6,4.4-2.4h2.4V32.2z"/>
		<path class="st9" d="M69.2,23.8c0,5.4-2.1,8.7-6,8.7s-6-3.4-6-8.7c0-5.4,2.1-8.7,6-8.7S69.2,18.4,69.2,23.8z M60.6,23.8
			c0,3.6,0.9,5.7,2.6,5.7c1.8,0,2.6-2.1,2.6-5.7c0-3.5-0.9-5.6-2.6-5.6C61.5,18.2,60.6,20.3,60.6,23.8z"/>
		<path class="st9" d="M83.2,23.8c0,5.4-2.1,8.7-6,8.7s-6-3.4-6-8.7c0-5.4,2.1-8.7,6-8.7S83.2,18.4,83.2,23.8z M74.6,23.8
			c0,3.6,0.9,5.7,2.6,5.7c1.8,0,2.6-2.1,2.6-5.7c0-3.5-0.9-5.6-2.6-5.6C75.4,18.2,74.6,20.3,74.6,23.8z"/>
		<path class="st9" d="M97.1,23.8c0,5.4-2.1,8.7-6,8.7s-6-3.4-6-8.7c0-5.4,2.1-8.7,6-8.7S97.1,18.4,97.1,23.8z M88.5,23.8
			c0,3.6,0.9,5.7,2.6,5.7c1.8,0,2.6-2.1,2.6-5.7c0-3.5-0.9-5.6-2.6-5.6C89.4,18.2,88.5,20.3,88.5,23.8z"/>
		<path class="st9" d="M113.9,23.7l5.7,8.5h-3.9l-4-6.1l-4,6.1h-3.9l5.6-8.5l-5.5-8.3h3.9l3.9,5.8l3.9-5.8h3.9L113.9,23.7z"/>
		<path class="st9" d="M132.9,32.2h-3.3V20.6H126v-2.8c2.6,0,4-0.6,4.4-2.4h2.4V32.2z"/>
		<path class="st9" d="M147.6,23.8c0,5.4-2.1,8.7-6,8.7c-3.8,0-6-3.4-6-8.7c0-5.4,2.1-8.7,6-8.7C145.5,15.1,147.6,18.4,147.6,23.8z
			 M139,23.8c0,3.6,0.9,5.7,2.6,5.7c1.8,0,2.6-2.1,2.6-5.7c0-3.5-0.9-5.6-2.6-5.6C139.9,18.2,139,20.3,139,23.8z"/>
		<path class="st9" d="M161.6,23.8c0,5.4-2.1,8.7-6,8.7c-3.8,0-6-3.4-6-8.7c0-5.4,2.1-8.7,6-8.7C159.4,15.1,161.6,18.4,161.6,23.8z
			 M153,23.8c0,3.6,0.9,5.7,2.6,5.7c1.8,0,2.6-2.1,2.6-5.7c0-3.5-0.9-5.6-2.6-5.6C153.9,18.2,153,20.3,153,23.8z"/>
		<path class="st9" d="M175.5,23.8c0,5.4-2.1,8.7-6,8.7c-3.8,0-6-3.4-6-8.7c0-5.4,2.1-8.7,6-8.7C173.4,15.1,175.5,18.4,175.5,23.8z
			 M167,23.8c0,3.6,0.9,5.7,2.6,5.7c1.8,0,2.6-2.1,2.6-5.7c0-3.5-0.9-5.6-2.6-5.6C167.8,18.2,167,20.3,167,23.8z"/>
		<path class="st9" d="M190.8,26.1c0,3.6-2.4,6.4-5.7,6.4c-1.8,0-3-0.7-3.6-1.6v6.5h-3.1V20h2.7l0.2,1.6c0.7-1,1.8-1.9,3.9-1.9
			C188.4,19.8,190.8,22.5,190.8,26.1z M181.5,26.1v0.1c0,2.1,1.6,3.3,3.1,3.3c1.7,0,3.1-1.3,3.1-3.4c0-2.1-1.3-3.4-3.1-3.4
			C183,22.7,181.5,23.9,181.5,26.1z"/>
		<path class="st9" d="M199.9,26l3.8,6.2h-3.6l-2.4-3.8l-2.4,3.8h-3.6l3.8-6.2l-3.7-6h3.6l2.2,3.6L200,20h3.6L199.9,26z"/>
		<path class="st9" d="M210.6,24.5c0,4.4-1.6,7.4-3.8,10.1l-2.2-1.5c2-2.7,3-5,3-8.6c0-3.6-1-6-3-8.6l2.2-1.5
			C209,17.1,210.6,20.1,210.6,24.5z"/>
	</g>
	<g class="st2">
		<path class="st10" d="M-122.5,86.5h4.5v1.3h-4.5V86.5z"/>
		<path class="st10" d="M-109.2,87.7v4.7h-1.5V80.2h3.7c2.4,0,4.2,1.1,4.2,3.8c0,2.6-1.8,3.8-4.3,3.8H-109.2z M-107.2,86.5
			c1.8,0,2.8-0.9,2.8-2.6c0-1.8-1-2.6-2.8-2.6h-2.1v5.2H-107.2z"/>
		<path class="st10" d="M-100.7,79.8h1.4v12.6h-1.4V79.8z"/>
		<path class="st10" d="M-96.6,86.3c0-1.5,1.2-2.5,3.2-2.5c2.1,0,3.1,0.9,3.1,3.1v3.4c0,0.7,0.1,0.9,0.8,1v1.2h-0.2
			c-1.3,0-1.8-0.5-1.9-1.5h0c-0.4,1-1.5,1.6-2.7,1.6c-1.7,0-2.7-0.9-2.7-2.4c0-0.9,0.4-1.7,1.3-2.1c0.9-0.5,2.2-0.6,4.1-0.7V87
			c0-1.5-0.6-2.1-1.8-2.1c-1.2,0-1.7,0.7-1.8,1.4H-96.6z M-91.7,88.6v-0.2c-1.8,0.1-2.9,0.2-3.4,0.6c-0.3,0.2-0.5,0.6-0.5,1
			c0,0.9,0.6,1.3,1.5,1.3C-93,91.4-91.7,90.7-91.7,88.6z"/>
		<path class="st10" d="M-82.2,86.5c-0.1-0.9-0.7-1.6-1.9-1.6c-1.5,0-2.3,1.3-2.3,3.3c0,2,0.6,3.3,2.3,3.3c1.6,0,2-1.2,2.1-1.8h1.3
			c-0.2,2-1.6,2.9-3.4,2.9c-2.4,0-3.7-1.7-3.7-4.4c0-2.6,1.4-4.5,3.8-4.5c1.7,0,3.2,0.8,3.3,2.8H-82.2z"/>
		<path class="st10" d="M-75.3,92.6c-2.6,0-3.8-1.9-3.8-4.4c0-2.5,1.3-4.5,3.8-4.5c2.5,0,3.5,2,3.5,4.1v0.7h-5.8
			c0.1,1.7,0.8,2.9,2.4,2.9c1.4,0,1.8-0.8,1.9-1.3h1.4C-72.2,91.7-73.5,92.6-75.3,92.6z M-73.3,87.4c0-1.4-0.6-2.5-2.1-2.5
			c-1.3,0-2.1,1.1-2.3,2.6L-73.3,87.4L-73.3,87.4z"/>
		<path class="st10" d="M-65.8,84h1.4l1.8,5.3c0.3,0.8,0.4,1.3,0.4,1.3h0c0,0,0.1-0.5,0.4-1.3l1.7-5.3h1.4l-3.1,9
			c-0.7,1.9-1.2,2.7-3.1,2.7c-0.3,0-0.6,0-0.9-0.1v-1.2c0.3,0.1,0.6,0.1,0.7,0.1c1.1,0,1.4-0.4,1.8-1.5l0.2-0.4L-65.8,84z"/>
		<path class="st10" d="M-57.2,88.2c0-2.6,1.4-4.4,3.8-4.4c2.5,0,3.8,1.8,3.8,4.4c0,2.6-1.4,4.4-3.8,4.4
			C-55.9,92.6-57.2,90.8-57.2,88.2z M-55.7,88.2c0,2.1,0.7,3.3,2.3,3.3c1.6,0,2.3-1.2,2.3-3.3c0-2-0.7-3.3-2.3-3.3
			C-55,84.9-55.7,86.1-55.7,88.2z"/>
		<path class="st10" d="M-45.8,89.2c0,0.6,0,1.3,0.3,1.7c0.3,0.4,0.7,0.6,1.3,0.6c1.6,0,2.3-1,2.3-2.9V84h1.4v8.4h-1.4V91h0
			c-0.4,0.9-1.3,1.6-2.7,1.6c-1.6,0-2.7-0.8-2.7-2.8V84h1.4V89.2z"/>
		<path class="st10" d="M-37.3,84h1.4v1.6h0c0.4-0.9,1.4-1.7,2.7-1.7h0.1v1.5h-0.3c-1.5,0-2.5,0.9-2.5,2.5v4.6h-1.4V84z"/>
		<path class="st10" d="M-26.4,79.8h1.4v12.6h-1.4V79.8z"/>
		<path class="st10" d="M-22.6,88.2c0-2.6,1.4-4.4,3.8-4.4c2.5,0,3.8,1.8,3.8,4.4c0,2.6-1.4,4.4-3.8,4.4
			C-21.3,92.6-22.6,90.8-22.6,88.2z M-21.1,88.2c0,2.1,0.7,3.3,2.3,3.3c1.6,0,2.3-1.2,2.3-3.3c0-2-0.7-3.3-2.3-3.3
			C-20.3,84.9-21.1,86.1-21.1,88.2z"/>
		<path class="st10" d="M-13,93.3h1.4c0.2,0.7,0.7,1.2,2.1,1.2c1.6,0,2.4-0.6,2.4-2.4v-1.2h0c-0.4,0.8-1.4,1.6-2.7,1.6
			c-1.8,0-3.4-1.1-3.4-4.2c0-2.8,1.5-4.3,3.6-4.3c1.4,0,2.2,0.8,2.5,1.5h0V84h1.4v8.2c0,2.4-1.6,3.4-3.8,3.4
			C-11.1,95.6-12.8,95-13,93.3z M-7.1,87.7c0-1.7-0.9-2.8-2.4-2.8c-1.5,0-2.2,1.3-2.2,3.2c0,1.9,0.5,3.1,2.3,3.1
			c1.4,0,2.3-1.2,2.3-2.6V87.7z"/>
		<path class="st10" d="M-3.3,88.2c0-2.6,1.4-4.4,3.8-4.4c2.5,0,3.8,1.8,3.8,4.4c0,2.6-1.4,4.4-3.8,4.4C-2,92.6-3.3,90.8-3.3,88.2z
			 M-1.8,88.2c0,2.1,0.7,3.3,2.3,3.3c1.6,0,2.3-1.2,2.3-3.3c0-2-0.7-3.3-2.3-3.3C-1,84.9-1.8,86.1-1.8,88.2z"/>
		<path class="st10" d="M10.1,84h1.5l1.6,5.7c0.1,0.5,0.3,1.1,0.3,1.1h0c0,0,0.2-0.6,0.3-1.1l1.8-5.7h1.5l1.8,5.7
			c0.2,0.5,0.3,1.1,0.3,1.1h0c0,0,0.1-0.6,0.3-1.1l1.7-5.7h1.4L20,92.4h-1.5l-1.5-5c-0.2-0.8-0.5-1.8-0.5-1.8h0c0,0-0.3,1-0.5,1.8
			l-1.6,5h-1.5L10.1,84z"/>
		<path class="st10" d="M24.6,80.5h1.5v1.6h-1.5V80.5z M24.7,84h1.5v8.4h-1.5V84z"/>
		<path class="st10" d="M31.1,81.5V84h2.1v1.1h-2.1v5c0,0.9,0.4,1.2,1.3,1.2c0.4,0,0.9-0.1,0.9-0.1v1.2c0,0-0.6,0.1-1.3,0.1
			c-1.6,0-2.3-0.8-2.3-2.2v-5.2h-1.5V84h0.3c1.1,0,1.4-0.3,1.4-1.9v-0.6H31.1z"/>
		<path class="st10" d="M40.6,87.2c0-0.6,0-1.3-0.3-1.7C40,85.1,39.6,85,39,85c-1.6,0-2.3,1-2.3,2.4v5.1h-1.4V79.8h1.4v5.6h0
			c0.4-0.8,1.3-1.6,2.6-1.6c1.6,0,2.7,0.8,2.7,2.8v5.9h-1.4V87.2z"/>
		<path class="st10" d="M45.1,80.5h1.5v1.6h-1.5V80.5z M45.2,84h1.5v8.4h-1.5V84z"/>
		<path class="st10" d="M55.1,87.2c0-0.6,0-1.3-0.3-1.7c-0.3-0.4-0.8-0.6-1.3-0.6c-1.6,0-2.3,1-2.3,2.4v5.1h-1.4V84h1.4v1.4h0
			c0.4-0.9,1.4-1.6,2.7-1.6c1.6,0,2.7,0.8,2.7,2.8v5.9h-1.4V87.2z"/>
		<path class="st10" d="M66,81.5V84H68v1.1H66v5c0,0.9,0.4,1.2,1.3,1.2c0.4,0,0.9-0.1,0.9-0.1v1.2c0,0-0.6,0.1-1.3,0.1
			c-1.6,0-2.3-0.8-2.3-2.2v-5.2H63V84h0.3c1.1,0,1.4-0.3,1.4-1.9v-0.6H66z"/>
		<path class="st10" d="M75.5,87.2c0-0.6,0-1.3-0.3-1.7c-0.3-0.4-0.8-0.6-1.3-0.6c-1.6,0-2.3,1-2.3,2.4v5.1h-1.4V79.8h1.4v5.6h0
			c0.4-0.8,1.3-1.6,2.6-1.6c1.6,0,2.7,0.8,2.7,2.8v5.9h-1.4V87.2z"/>
		<path class="st10" d="M83.1,92.6c-2.6,0-3.8-1.9-3.8-4.4c0-2.5,1.3-4.5,3.8-4.5c2.5,0,3.5,2,3.5,4.1v0.7h-5.8
			c0.1,1.7,0.8,2.9,2.4,2.9c1.4,0,1.8-0.8,1.9-1.3h1.4C86.1,91.7,84.9,92.6,83.1,92.6z M85.1,87.4c0-1.4-0.6-2.5-2.1-2.5
			c-1.3,0-2.1,1.1-2.3,2.6L85.1,87.4L85.1,87.4z"/>
		<path class="st10" d="M98.5,86.5c-0.1-0.9-0.7-1.6-1.9-1.6c-1.5,0-2.3,1.3-2.3,3.3c0,2,0.6,3.3,2.3,3.3c1.6,0,2-1.2,2.1-1.8h1.3
			c-0.2,2-1.6,2.9-3.4,2.9c-2.4,0-3.7-1.7-3.7-4.4c0-2.6,1.4-4.5,3.8-4.5c1.7,0,3.2,0.8,3.3,2.8H98.5z"/>
		<path class="st10" d="M102.2,84h1.4v1.6h0c0.4-0.9,1.4-1.7,2.7-1.7h0.1v1.5h-0.3c-1.5,0-2.5,0.9-2.5,2.5v4.6h-1.4V84z"/>
		<path class="st10" d="M107.7,88.2c0-2.6,1.4-4.4,3.8-4.4c2.5,0,3.8,1.8,3.8,4.4c0,2.6-1.4,4.4-3.8,4.4
			C109,92.6,107.7,90.8,107.7,88.2z M109.2,88.2c0,2.1,0.7,3.3,2.3,3.3c1.6,0,2.3-1.2,2.3-3.3c0-2-0.7-3.3-2.3-3.3
			C110,84.9,109.2,86.1,109.2,88.2z"/>
		<path class="st10" d="M117.7,84h1.4v1.4h0c0.5-0.9,1.4-1.6,2.7-1.6c1.8,0,3.4,1.1,3.4,4.3c0,3.1-1.6,4.5-3.5,4.5
			c-1.2,0-2.2-0.7-2.5-1.4h0v4.2h-1.4V84z M121.5,91.5c1.5,0,2.2-1.2,2.2-3.4c0-1.8-0.5-3.2-2.3-3.2c-1.5,0-2.4,1.3-2.4,2.7v0.9
			C119.1,90.2,119.9,91.5,121.5,91.5z"/>
		<path class="st10" d="M127.7,84h1.4v1.4h0c0.5-0.9,1.4-1.6,2.7-1.6c1.8,0,3.4,1.1,3.4,4.3c0,3.1-1.6,4.5-3.5,4.5
			c-1.2,0-2.2-0.7-2.5-1.4h0v4.2h-1.4V84z M131.5,91.5c1.5,0,2.2-1.2,2.2-3.4c0-1.8-0.5-3.2-2.3-3.2c-1.5,0-2.4,1.3-2.4,2.7v0.9
			C129.1,90.2,129.9,91.5,131.5,91.5z"/>
		<path class="st10" d="M137.6,80.5h1.5v1.6h-1.5V80.5z M137.6,84h1.5v8.4h-1.5V84z"/>
		<path class="st10" d="M147.6,87.2c0-0.6,0-1.3-0.3-1.7c-0.3-0.4-0.8-0.6-1.3-0.6c-1.6,0-2.3,1-2.3,2.4v5.1h-1.4V84h1.4v1.4h0
			c0.4-0.9,1.4-1.6,2.7-1.6c1.6,0,2.7,0.8,2.7,2.8v5.9h-1.4V87.2z"/>
		<path class="st10" d="M151.6,93.3h1.4c0.2,0.7,0.7,1.2,2.1,1.2c1.6,0,2.4-0.6,2.4-2.4v-1.2h0c-0.4,0.8-1.4,1.6-2.7,1.6
			c-1.8,0-3.4-1.1-3.4-4.2c0-2.8,1.5-4.3,3.6-4.3c1.4,0,2.2,0.8,2.5,1.5h0V84h1.4v8.2c0,2.4-1.6,3.4-3.8,3.4
			C153.4,95.6,151.8,95,151.6,93.3z M157.5,87.7c0-1.7-0.9-2.8-2.4-2.8c-1.5,0-2.2,1.3-2.2,3.2c0,1.9,0.5,3.1,2.3,3.1
			c1.4,0,2.3-1.2,2.3-2.6V87.7z"/>
		<path class="st10" d="M166,93.3h1.4c0.2,0.7,0.7,1.2,2.1,1.2c1.6,0,2.4-0.6,2.4-2.4v-1.2h0c-0.4,0.8-1.4,1.6-2.7,1.6
			c-1.8,0-3.4-1.1-3.4-4.2c0-2.8,1.5-4.3,3.6-4.3c1.4,0,2.2,0.8,2.5,1.5h0V84h1.4v8.2c0,2.4-1.6,3.4-3.8,3.4
			C167.8,95.6,166.2,95,166,93.3z M171.9,87.7c0-1.7-0.9-2.8-2.4-2.8c-1.5,0-2.2,1.3-2.2,3.2c0,1.9,0.5,3.1,2.3,3.1
			c1.4,0,2.3-1.2,2.3-2.6V87.7z"/>
		<path class="st10" d="M177.7,89.2c0,0.6,0,1.3,0.3,1.7c0.3,0.4,0.7,0.6,1.3,0.6c1.6,0,2.3-1,2.3-2.9V84h1.4v8.4h-1.4V91h0
			c-0.4,0.9-1.3,1.6-2.7,1.6c-1.6,0-2.7-0.8-2.7-2.8V84h1.4V89.2z"/>
		<path class="st10" d="M186.2,80.5h1.5v1.6h-1.5V80.5z M186.2,84h1.5v8.4h-1.5V84z"/>
		<path class="st10" d="M197.6,92.4h-1.4V91h0c-0.4,0.8-1.4,1.6-2.7,1.6c-1.8,0-3.4-1.1-3.4-4.4c0-2.9,1.5-4.5,3.6-4.5
			c1.3,0,2.1,0.7,2.4,1.5h0v-5.5h1.4V92.4z M196.2,87.9c0-1.8-0.9-2.9-2.3-2.9c-1.6,0-2.4,1.3-2.4,3.3c0,1.9,0.6,3.3,2.2,3.3
			c1.5,0,2.4-1.2,2.4-2.7V87.9z"/>
		<path class="st10" d="M203.9,92.6c-2.6,0-3.8-1.9-3.8-4.4c0-2.5,1.3-4.5,3.8-4.5c2.5,0,3.5,2,3.5,4.1v0.7h-5.8
			c0.1,1.7,0.8,2.9,2.4,2.9c1.4,0,1.8-0.8,1.9-1.3h1.4C206.9,91.7,205.7,92.6,203.9,92.6z M205.9,87.4c0-1.4-0.6-2.5-2.1-2.5
			c-1.3,0-2.1,1.1-2.3,2.6L205.9,87.4L205.9,87.4z"/>
		<path class="st10" d="M213.9,86.1c-0.1-0.8-0.7-1.2-1.7-1.2s-1.6,0.6-1.6,1.4c0,0.7,0.4,1,1.3,1.2l1.3,0.2c1.8,0.3,2.4,1,2.4,2.4
			c0,1.7-1.4,2.6-3.3,2.6c-1.7,0-3.2-0.8-3.3-2.6h1.4c0.1,0.7,0.4,1.5,1.9,1.5c1.2,0,1.9-0.5,1.9-1.4c0-0.7-0.2-1-1.3-1.2l-1.3-0.2
			c-1.5-0.2-2.3-0.9-2.3-2.3c0-1.5,1.1-2.6,3.1-2.6c1.8,0,2.9,0.8,3,2.3H213.9z"/>
		<path class="st10" d="M217.5,90.5h2v2h-2V90.5z"/>
		<path class="st10" d="M-122.5,116.5h4.5v1.3h-4.5V116.5z"/>
		<path class="st10" d="M-105.8,110c3,0,5.5,2,5.5,6.3c0,4.4-2.5,6.3-5.5,6.3c-3,0-5.5-2-5.5-6.3C-111.3,111.9-108.7,110-105.8,110z
			 M-101.9,116.3c0-3.4-1.6-5.2-4-5.2c-2.3,0-3.9,1.7-3.9,5.2c0,3.3,1.6,5.1,3.9,5.1C-103.5,121.5-101.9,119.6-101.9,116.3z"/>
		<path class="st10" d="M-96.2,119.2c0,0.6,0,1.3,0.3,1.7c0.3,0.4,0.7,0.6,1.3,0.6c1.6,0,2.3-1,2.3-2.9V114h1.4v8.4h-1.4V121h0
			c-0.4,0.9-1.3,1.6-2.7,1.6c-1.6,0-2.7-0.8-2.7-2.8V114h1.4V119.2z"/>
		<path class="st10" d="M-85.9,111.5v2.4h2.1v1.1h-2.1v5c0,0.9,0.4,1.2,1.3,1.2c0.4,0,0.9-0.1,0.9-0.1v1.2c0,0-0.6,0.1-1.3,0.1
			c-1.6,0-2.3-0.8-2.3-2.2v-5.2h-1.5V114h0.3c1.1,0,1.4-0.3,1.4-1.9v-0.6H-85.9z"/>
		<path class="st10" d="M-81.7,109.8h1.4v12.6h-1.4V109.8z"/>
		<path class="st10" d="M-77.2,110.5h1.5v1.6h-1.5V110.5z M-77.1,114h1.5v8.4h-1.5V114z"/>
		<path class="st10" d="M-67.1,117.2c0-0.6,0-1.3-0.3-1.7c-0.3-0.4-0.8-0.6-1.3-0.6c-1.6,0-2.3,1-2.3,2.4v5.1h-1.4V114h1.4v1.4h0
			c0.4-0.9,1.4-1.6,2.7-1.6c1.6,0,2.7,0.8,2.7,2.8v5.9h-1.4V117.2z"/>
		<path class="st10" d="M-59.5,122.6c-2.6,0-3.8-1.9-3.8-4.4c0-2.5,1.3-4.5,3.8-4.5c2.5,0,3.5,2,3.5,4.1v0.7h-5.8
			c0.1,1.7,0.8,2.9,2.4,2.9c1.4,0,1.8-0.8,1.9-1.3h1.4C-56.5,121.7-57.7,122.6-59.5,122.6z M-57.5,117.4c0-1.4-0.6-2.5-2.1-2.5
			c-1.3,0-2.1,1.1-2.3,2.6L-57.5,117.4L-57.5,117.4z"/>
		<path class="st10" d="M-49.5,116.3c0-1.5,1.2-2.5,3.2-2.5c2.1,0,3.1,0.9,3.1,3.1v3.4c0,0.7,0.1,0.9,0.8,1v1.2h-0.2
			c-1.3,0-1.8-0.5-1.9-1.5h0c-0.4,1-1.5,1.6-2.7,1.6c-1.7,0-2.7-0.9-2.7-2.4c0-0.9,0.4-1.7,1.3-2.1c0.9-0.5,2.2-0.6,4.1-0.7V117
			c0-1.5-0.6-2.1-1.8-2.1c-1.2,0-1.7,0.7-1.8,1.4H-49.5z M-44.6,118.6v-0.2c-1.8,0.1-2.9,0.2-3.4,0.6c-0.3,0.2-0.5,0.6-0.5,1
			c0,0.9,0.6,1.3,1.5,1.3C-45.9,121.4-44.6,120.7-44.6,118.6z"/>
		<path class="st10" d="M-40.1,109.8h1.4v12.6h-1.4V109.8z"/>
		<path class="st10" d="M-35.5,109.8h1.4v12.6h-1.4V109.8z"/>
		<path class="st10" d="M-24.7,122.4h-1.4v-7.3h-1.5V114h1.5v-1.9c0-1.7,1-2.3,2.6-2.3c0.3,0,0.6,0,0.9,0.1v1.2
			c-0.2,0-0.4-0.1-0.8-0.1c-0.8,0-1.2,0.3-1.2,1.3v1.7h2v1.1h-2V122.4z"/>
		<path class="st10" d="M-21.5,118.2c0-2.6,1.4-4.4,3.8-4.4c2.5,0,3.8,1.8,3.8,4.4c0,2.6-1.4,4.4-3.8,4.4
			C-20.2,122.6-21.5,120.8-21.5,118.2z M-20,118.2c0,2.1,0.7,3.3,2.3,3.3c1.6,0,2.3-1.2,2.3-3.3c0-2-0.7-3.3-2.3-3.3
			C-19.2,114.9-20,116.1-20,118.2z"/>
		<path class="st10" d="M-6.1,117.2c0-0.6,0-1.3-0.3-1.7c-0.3-0.4-0.8-0.6-1.3-0.6c-1.6,0-2.3,1-2.3,2.4v5.1h-1.4V114h1.4v1.4h0
			c0.4-0.9,1.4-1.6,2.7-1.6c1.6,0,2.7,0.8,2.7,2.8v5.9h-1.4V117.2z"/>
		<path class="st10" d="M0.2,111.5v2.4h2.1v1.1H0.2v5c0,0.9,0.4,1.2,1.3,1.2c0.4,0,0.9-0.1,0.9-0.1v1.2c0,0-0.6,0.1-1.3,0.1
			c-1.6,0-2.3-0.8-2.3-2.2v-5.2h-1.5V114h0.3c1.1,0,1.4-0.3,1.4-1.9v-0.6H0.2z"/>
		<path class="st10" d="M8.6,116.1c-0.1-0.8-0.7-1.2-1.7-1.2s-1.6,0.6-1.6,1.4c0,0.7,0.4,1,1.3,1.2l1.3,0.2c1.8,0.3,2.4,1,2.4,2.4
			c0,1.7-1.4,2.6-3.3,2.6c-1.7,0-3.2-0.8-3.3-2.6h1.4c0.1,0.7,0.4,1.5,1.9,1.5c1.2,0,1.9-0.5,1.9-1.4c0-0.7-0.2-1-1.3-1.2l-1.3-0.2
			c-1.5-0.2-2.3-0.9-2.3-2.3c0-1.5,1.1-2.6,3.1-2.6c1.8,0,2.9,0.8,3,2.3H8.6z"/>
		<path class="st10" d="M18.6,119.2c0,0.6,0,1.3,0.3,1.7c0.3,0.4,0.7,0.6,1.3,0.6c1.6,0,2.3-1,2.3-2.9V114h1.4v8.4h-1.4V121h0
			c-0.4,0.9-1.3,1.6-2.7,1.6c-1.6,0-2.7-0.8-2.7-2.8V114h1.4V119.2z"/>
		<path class="st10" d="M31.2,116.1c-0.1-0.8-0.7-1.2-1.7-1.2s-1.6,0.6-1.6,1.4c0,0.7,0.4,1,1.3,1.2l1.3,0.2c1.8,0.3,2.4,1,2.4,2.4
			c0,1.7-1.4,2.6-3.3,2.6c-1.7,0-3.2-0.8-3.3-2.6h1.4c0.1,0.7,0.4,1.5,1.9,1.5c1.2,0,1.9-0.5,1.9-1.4c0-0.7-0.2-1-1.3-1.2l-1.3-0.2
			c-1.5-0.2-2.3-0.9-2.3-2.3c0-1.5,1.1-2.6,3.1-2.6c1.8,0,2.9,0.8,3,2.3H31.2z"/>
		<path class="st10" d="M38.4,122.6c-2.6,0-3.8-1.9-3.8-4.4c0-2.5,1.3-4.5,3.8-4.5c2.5,0,3.5,2,3.5,4.1v0.7h-5.8
			c0.1,1.7,0.8,2.9,2.4,2.9c1.4,0,1.8-0.8,1.9-1.3h1.4C41.5,121.7,40.2,122.6,38.4,122.6z M40.4,117.4c0-1.4-0.6-2.5-2.1-2.5
			c-1.3,0-2.1,1.1-2.3,2.6L40.4,117.4L40.4,117.4z"/>
		<path class="st10" d="M51.2,122.4h-1.4V121h0c-0.4,0.8-1.4,1.6-2.7,1.6c-1.8,0-3.4-1.1-3.4-4.4c0-2.9,1.5-4.5,3.6-4.5
			c1.3,0,2.1,0.7,2.4,1.5h0v-5.5h1.4V122.4z M49.8,117.9c0-1.8-0.9-2.9-2.3-2.9c-1.6,0-2.4,1.3-2.4,3.3c0,1.9,0.6,3.3,2.2,3.3
			c1.5,0,2.4-1.2,2.4-2.7V117.9z"/>
		<path class="st10" d="M58.8,110.5h1.5v1.6h-1.5V110.5z M58.8,114h1.5v8.4h-1.5V114z"/>
		<path class="st10" d="M68.8,117.2c0-0.6,0-1.3-0.3-1.7c-0.3-0.4-0.8-0.6-1.3-0.6c-1.6,0-2.3,1-2.3,2.4v5.1h-1.4V114h1.4v1.4h0
			c0.4-0.9,1.4-1.6,2.7-1.6c1.6,0,2.7,0.8,2.7,2.8v5.9h-1.4V117.2z"/>
		<path class="st10" d="M77,114h1.4l1.8,5.3c0.3,0.8,0.4,1.3,0.4,1.3h0c0,0,0.1-0.5,0.4-1.3l1.7-5.3h1.4l-3.1,9
			c-0.7,1.9-1.2,2.7-3.1,2.7c-0.3,0-0.6,0-0.9-0.1v-1.2c0.3,0.1,0.6,0.1,0.7,0.1c1.1,0,1.4-0.4,1.8-1.5l0.2-0.4L77,114z"/>
		<path class="st10" d="M85.5,118.2c0-2.6,1.4-4.4,3.8-4.4c2.5,0,3.8,1.8,3.8,4.4c0,2.6-1.4,4.4-3.8,4.4
			C86.8,122.6,85.5,120.8,85.5,118.2z M87,118.2c0,2.1,0.7,3.3,2.3,3.3c1.6,0,2.3-1.2,2.3-3.3c0-2-0.7-3.3-2.3-3.3
			C87.8,114.9,87,116.1,87,118.2z"/>
		<path class="st10" d="M96.9,119.2c0,0.6,0,1.3,0.3,1.7c0.3,0.4,0.7,0.6,1.3,0.6c1.6,0,2.3-1,2.3-2.9V114h1.4v8.4h-1.4V121h0
			c-0.4,0.9-1.3,1.6-2.7,1.6c-1.6,0-2.7-0.8-2.7-2.8V114h1.4V119.2z"/>
		<path class="st10" d="M105.4,114h1.4v1.6h0c0.4-0.9,1.4-1.7,2.7-1.7h0.1v1.5h-0.3c-1.5,0-2.5,0.9-2.5,2.5v4.6h-1.4V114z"/>
		<path class="st10" d="M123.1,122.4h-1.4V121h0c-0.4,0.8-1.4,1.6-2.7,1.6c-1.8,0-3.4-1.1-3.4-4.4c0-2.9,1.5-4.5,3.6-4.5
			c1.3,0,2.1,0.7,2.4,1.5h0v-5.5h1.4V122.4z M121.7,117.9c0-1.8-0.9-2.9-2.3-2.9c-1.6,0-2.4,1.3-2.4,3.3c0,1.9,0.6,3.3,2.2,3.3
			c1.5,0,2.4-1.2,2.4-2.7V117.9z"/>
		<path class="st10" d="M129.3,122.6c-2.6,0-3.8-1.9-3.8-4.4c0-2.5,1.3-4.5,3.8-4.5c2.5,0,3.5,2,3.5,4.1v0.7H127
			c0.1,1.7,0.8,2.9,2.4,2.9c1.4,0,1.8-0.8,1.9-1.3h1.4C132.4,121.7,131.1,122.6,129.3,122.6z M131.3,117.4c0-1.4-0.6-2.5-2.1-2.5
			c-1.3,0-2.1,1.1-2.3,2.6L131.3,117.4L131.3,117.4z"/>
		<path class="st10" d="M139.4,116.1c-0.1-0.8-0.7-1.2-1.7-1.2s-1.6,0.6-1.6,1.4c0,0.7,0.4,1,1.3,1.2l1.3,0.2c1.8,0.3,2.4,1,2.4,2.4
			c0,1.7-1.4,2.6-3.3,2.6c-1.7,0-3.2-0.8-3.3-2.6h1.4c0.1,0.7,0.4,1.5,1.9,1.5c1.2,0,1.9-0.5,1.9-1.4c0-0.7-0.2-1-1.3-1.2l-1.3-0.2
			c-1.5-0.2-2.3-0.9-2.3-2.3c0-1.5,1.1-2.6,3.1-2.6c1.8,0,2.9,0.8,3,2.3H139.4z"/>
		<path class="st10" d="M143.5,110.5h1.5v1.6h-1.5V110.5z M143.5,114h1.5v8.4h-1.5V114z"/>
		<path class="st10" d="M147.6,123.3h1.4c0.2,0.7,0.7,1.2,2.1,1.2c1.6,0,2.4-0.6,2.4-2.4v-1.2h0c-0.4,0.8-1.4,1.6-2.7,1.6
			c-1.8,0-3.4-1.1-3.4-4.2c0-2.8,1.5-4.3,3.6-4.3c1.4,0,2.2,0.8,2.5,1.5h0V114h1.4v8.2c0,2.4-1.6,3.4-3.8,3.4
			C149.4,125.6,147.8,125,147.6,123.3z M153.5,117.7c0-1.7-0.9-2.8-2.4-2.8c-1.5,0-2.2,1.3-2.2,3.2c0,1.9,0.5,3.1,2.3,3.1
			c1.4,0,2.3-1.2,2.3-2.6V117.7z"/>
		<path class="st10" d="M163.4,117.2c0-0.6,0-1.3-0.3-1.7c-0.3-0.4-0.8-0.6-1.3-0.6c-1.6,0-2.3,1-2.3,2.4v5.1H158V114h1.4v1.4h0
			c0.4-0.9,1.4-1.6,2.7-1.6c1.6,0,2.7,0.8,2.7,2.8v5.9h-1.4V117.2z"/>
		<path class="st10" d="M167.3,120.5h2v2h-2V120.5z"/>
		<path class="st10" d="M-122.5,146.5h4.5v1.3h-4.5V146.5z"/>
		<path class="st10" d="M-110.7,140.2h7.8v1.3h-6.3v4.1h5.8v1.3h-5.8v4.2h6.4v1.3h-7.9V140.2z"/>
		<path class="st10" d="M-98.2,148.1l-2.7-4.1h1.7l1.8,2.9h0l1.9-2.9h1.6l-2.7,4l2.9,4.4h-1.7l-2.1-3.3h0l-2.1,3.3h-1.6L-98.2,148.1
			z"/>
		<path class="st10" d="M-91.7,144h1.4v1.4h0c0.5-0.9,1.4-1.6,2.7-1.6c1.8,0,3.4,1.1,3.4,4.3c0,3.1-1.6,4.5-3.5,4.5
			c-1.2,0-2.2-0.7-2.5-1.4h0v4.2h-1.4V144z M-87.9,151.5c1.5,0,2.2-1.2,2.2-3.4c0-1.8-0.5-3.2-2.3-3.2c-1.5,0-2.4,1.3-2.4,2.7v0.9
			C-90.3,150.2-89.5,151.5-87.9,151.5z"/>
		<path class="st10" d="M-82.4,148.2c0-2.6,1.4-4.4,3.8-4.4c2.5,0,3.8,1.8,3.8,4.4c0,2.6-1.4,4.4-3.8,4.4
			C-81.1,152.6-82.4,150.8-82.4,148.2z M-80.9,148.2c0,2.1,0.7,3.3,2.3,3.3c1.6,0,2.3-1.2,2.3-3.3c0-2-0.7-3.3-2.3-3.3
			C-80.1,144.9-80.9,146.1-80.9,148.2z"/>
		<path class="st10" d="M-72.4,144h1.4v1.6h0c0.4-0.9,1.4-1.7,2.7-1.7h0.1v1.5h-0.3c-1.5,0-2.5,0.9-2.5,2.5v4.6h-1.4V144z"/>
		<path class="st10" d="M-63.9,141.5v2.4h2.1v1.1h-2.1v5c0,0.9,0.4,1.2,1.3,1.2c0.4,0,0.9-0.1,0.9-0.1v1.2c0,0-0.6,0.1-1.3,0.1
			c-1.6,0-2.3-0.8-2.3-2.2v-5.2h-1.5V144h0.3c1.1,0,1.4-0.3,1.4-1.9v-0.6H-63.9z"/>
		<path class="st10" d="M-55.6,146.3c0-1.5,1.2-2.5,3.2-2.5c2.1,0,3.1,0.9,3.1,3.1v3.4c0,0.7,0.1,0.9,0.8,1v1.2h-0.2
			c-1.3,0-1.8-0.5-1.9-1.5h0c-0.4,1-1.5,1.6-2.7,1.6c-1.7,0-2.7-0.9-2.7-2.4c0-0.9,0.4-1.7,1.3-2.1c0.9-0.5,2.2-0.6,4.1-0.7V147
			c0-1.5-0.6-2.1-1.8-2.1c-1.2,0-1.7,0.7-1.8,1.4H-55.6z M-50.7,148.6v-0.2c-1.8,0.1-2.9,0.2-3.4,0.6c-0.3,0.2-0.5,0.6-0.5,1
			c0,0.9,0.6,1.3,1.5,1.3C-52,151.4-50.7,150.7-50.7,148.6z"/>
		<path class="st10" d="M-40.9,147.2c0-0.6,0-1.3-0.3-1.7c-0.3-0.4-0.8-0.6-1.3-0.6c-1.6,0-2.3,1-2.3,2.4v5.1h-1.4V144h1.4v1.4h0
			c0.4-0.9,1.4-1.6,2.7-1.6c1.6,0,2.7,0.8,2.7,2.8v5.9h-1.4V147.2z"/>
		<path class="st10" d="M-29.6,152.4H-31V151h0c-0.4,0.8-1.4,1.6-2.7,1.6c-1.8,0-3.4-1.1-3.4-4.4c0-2.9,1.5-4.5,3.6-4.5
			c1.3,0,2.1,0.7,2.4,1.5h0v-5.5h1.4V152.4z M-31,147.9c0-1.8-0.9-2.9-2.3-2.9c-1.6,0-2.4,1.3-2.4,3.3c0,1.9,0.6,3.3,2.2,3.3
			c1.5,0,2.4-1.2,2.4-2.7V147.9z"/>
		<path class="st10" d="M-17.7,146.1c-0.1-0.8-0.7-1.2-1.7-1.2s-1.6,0.6-1.6,1.4c0,0.7,0.4,1,1.3,1.2l1.3,0.2c1.8,0.3,2.4,1,2.4,2.4
			c0,1.7-1.4,2.6-3.3,2.6c-1.7,0-3.2-0.8-3.3-2.6h1.4c0.1,0.7,0.4,1.5,1.9,1.5c1.2,0,1.9-0.5,1.9-1.4c0-0.7-0.2-1-1.3-1.2l-1.3-0.2
			c-1.5-0.2-2.3-0.9-2.3-2.3c0-1.5,1.1-2.6,3.1-2.6c1.8,0,2.9,0.8,3,2.3H-17.7z"/>
		<path class="st10" d="M-12.4,149.2c0,0.6,0,1.3,0.3,1.7c0.3,0.4,0.7,0.6,1.3,0.6c1.6,0,2.3-1,2.3-2.9V144H-7v8.4h-1.4V151h0
			c-0.4,0.9-1.3,1.6-2.7,1.6c-1.6,0-2.7-0.8-2.7-2.8V144h1.4V149.2z"/>
		<path class="st10" d="M-3.9,139.8h1.4v5.6h0c0.5-0.9,1.4-1.6,2.7-1.6c1.8,0,3.4,1.1,3.4,4.3c0,3.1-1.6,4.5-3.5,4.5
			c-1.3,0-2.2-0.7-2.6-1.6h0v1.3h-1.4V139.8z M2.2,148.1c0-1.8-0.5-3.2-2.3-3.2c-1.5,0-2.4,1.3-2.4,2.7v0.9c0,1.7,0.8,3,2.4,3
			C1.4,151.5,2.2,150.3,2.2,148.1z"/>
		<path class="st10" d="M6,144h1.4v1.4h0c0.4-0.9,1.4-1.6,2.7-1.6c1.3,0,2.2,0.6,2.5,1.7h0c0.3-0.9,1.4-1.7,2.8-1.7
			c1.6,0,2.7,0.8,2.7,2.8v5.9h-1.4v-5.2c0-0.6,0-1.3-0.3-1.7c-0.3-0.4-0.8-0.5-1.3-0.5c-1.6,0-2.3,1-2.3,2.4v5.1h-1.4v-5.2
			c0-0.6,0-1.2-0.3-1.7c-0.3-0.4-0.8-0.6-1.3-0.6c-1.6,0-2.3,1-2.3,2.4v5.1H6V144z"/>
		<path class="st10" d="M21.2,140.5h1.5v1.6h-1.5V140.5z M21.2,144h1.5v8.4h-1.5V144z"/>
		<path class="st10" d="M27.6,141.5v2.4h2.1v1.1h-2.1v5c0,0.9,0.4,1.2,1.3,1.2c0.4,0,0.9-0.1,0.9-0.1v1.2c0,0-0.6,0.1-1.3,0.1
			c-1.6,0-2.3-0.8-2.3-2.2v-5.2h-1.5V144h0.3c1.1,0,1.4-0.3,1.4-1.9v-0.6H27.6z"/>
		<path class="st10" d="M36.3,139.8h1.4v12.6h-1.4V139.8z"/>
		<path class="st10" d="M40.2,148.2c0-2.6,1.4-4.4,3.8-4.4c2.5,0,3.8,1.8,3.8,4.4c0,2.6-1.4,4.4-3.8,4.4
			C41.5,152.6,40.2,150.8,40.2,148.2z M41.7,148.2c0,2.1,0.7,3.3,2.3,3.3c1.6,0,2.3-1.2,2.3-3.3c0-2-0.7-3.3-2.3-3.3
			C42.4,144.9,41.7,146.1,41.7,148.2z"/>
		<path class="st10" d="M49.8,153.3h1.4c0.2,0.7,0.7,1.2,2.1,1.2c1.6,0,2.4-0.6,2.4-2.4v-1.2h0c-0.4,0.8-1.4,1.6-2.7,1.6
			c-1.8,0-3.4-1.1-3.4-4.2c0-2.8,1.5-4.3,3.6-4.3c1.4,0,2.2,0.8,2.5,1.5h0V144h1.4v8.2c0,2.4-1.6,3.4-3.8,3.4
			C51.6,155.6,50,155,49.8,153.3z M55.7,147.7c0-1.7-0.9-2.8-2.4-2.8c-1.5,0-2.2,1.3-2.2,3.2c0,1.9,0.5,3.1,2.3,3.1
			c1.4,0,2.3-1.2,2.3-2.6V147.7z"/>
		<path class="st10" d="M59.5,148.2c0-2.6,1.4-4.4,3.8-4.4c2.5,0,3.8,1.8,3.8,4.4c0,2.6-1.4,4.4-3.8,4.4
			C60.8,152.6,59.5,150.8,59.5,148.2z M61,148.2c0,2.1,0.7,3.3,2.3,3.3c1.6,0,2.3-1.2,2.3-3.3c0-2-0.7-3.3-2.3-3.3
			C61.7,144.9,61,146.1,61,148.2z"/>
		<path class="st10" d="M73.7,146.1c-0.1-0.8-0.7-1.2-1.7-1.2s-1.6,0.6-1.6,1.4c0,0.7,0.4,1,1.3,1.2l1.3,0.2c1.8,0.3,2.4,1,2.4,2.4
			c0,1.7-1.4,2.6-3.3,2.6c-1.7,0-3.2-0.8-3.3-2.6h1.4c0.1,0.7,0.4,1.5,1.9,1.5c1.2,0,1.9-0.5,1.9-1.4c0-0.7-0.2-1-1.3-1.2l-1.3-0.2
			c-1.5-0.2-2.3-0.9-2.3-2.3c0-1.5,1.1-2.6,3.1-2.6c1.8,0,2.9,0.8,3,2.3H73.7z"/>
		<path class="st10" d="M81.9,146.3c0-1.5,1.2-2.5,3.2-2.5c2.1,0,3.1,0.9,3.1,3.1v3.4c0,0.7,0.1,0.9,0.8,1v1.2h-0.2
			c-1.3,0-1.8-0.5-1.9-1.5h0c-0.4,1-1.5,1.6-2.7,1.6c-1.7,0-2.7-0.9-2.7-2.4c0-0.9,0.4-1.7,1.3-2.1c0.9-0.5,2.2-0.6,4.1-0.7V147
			c0-1.5-0.6-2.1-1.8-2.1c-1.2,0-1.7,0.7-1.8,1.4H81.9z M86.8,148.6v-0.2c-1.8,0.1-2.9,0.2-3.4,0.6c-0.3,0.2-0.5,0.6-0.5,1
			c0,0.9,0.6,1.3,1.5,1.3C85.5,151.4,86.8,150.7,86.8,148.6z"/>
		<path class="st10" d="M93,141.5v2.4h2.1v1.1H93v5c0,0.9,0.4,1.2,1.3,1.2c0.4,0,0.9-0.1,0.9-0.1v1.2c0,0-0.6,0.1-1.3,0.1
			c-1.6,0-2.3-0.8-2.3-2.2v-5.2h-1.5V144h0.3c1.1,0,1.4-0.3,1.4-1.9v-0.6H93z"/>
		<path class="st10" d="M103.5,143.7h-2.4v-1h0.4c0.8,0,1.4-0.2,1.7-0.6c0.4-0.4,0.5-0.8,0.5-1.6h1.2v11.9h-1.5V143.7z"/>
		<path class="st10" d="M112.5,140.4c2.6,0,4.3,2,4.3,6.1c0,4.1-1.7,6.1-4.3,6.1c-2.6,0-4.2-2-4.2-6.1
			C108.3,142.4,109.9,140.4,112.5,140.4z M115.2,146.6c0-3.3-1-5-2.7-5c-1.7,0-2.7,1.6-2.7,5c0,3.3,1,4.9,2.7,4.9
			C114.2,151.5,115.2,149.8,115.2,146.6z"/>
		<path class="st10" d="M123.5,140.4c2.6,0,4.3,2,4.3,6.1c0,4.1-1.7,6.1-4.3,6.1c-2.6,0-4.2-2-4.2-6.1
			C119.2,142.4,120.9,140.4,123.5,140.4z M126.2,146.6c0-3.3-1-5-2.7-5c-1.7,0-2.7,1.6-2.7,5c0,3.3,1,4.9,2.7,4.9
			C125.1,151.5,126.2,149.8,126.2,146.6z"/>
		<path class="st10" d="M134.4,140.4c2.6,0,4.3,2,4.3,6.1c0,4.1-1.7,6.1-4.3,6.1c-2.6,0-4.2-2-4.2-6.1
			C130.2,142.4,131.9,140.4,134.4,140.4z M137.2,146.6c0-3.3-1-5-2.7-5c-1.7,0-2.7,1.6-2.7,5c0,3.3,1,4.9,2.7,4.9
			C136.1,151.5,137.2,149.8,137.2,146.6z"/>
		<path class="st10" d="M141.5,144h1.4v1.4h0c0.5-0.9,1.4-1.6,2.7-1.6c1.8,0,3.4,1.1,3.4,4.3c0,3.1-1.6,4.5-3.5,4.5
			c-1.2,0-2.2-0.7-2.5-1.4h0v4.2h-1.4V144z M145.3,151.5c1.5,0,2.2-1.2,2.2-3.4c0-1.8-0.5-3.2-2.3-3.2c-1.5,0-2.4,1.3-2.4,2.7v0.9
			C142.9,150.2,143.7,151.5,145.3,151.5z"/>
		<path class="st10" d="M152.9,148.1l-2.7-4.1h1.7l1.8,2.9h0l1.9-2.9h1.6l-2.7,4l2.9,4.4h-1.7l-2.1-3.3h0l-2.1,3.3H150L152.9,148.1z
			"/>
		<path class="st10" d="M168.2,146.1c-0.1-0.8-0.7-1.2-1.7-1.2s-1.6,0.6-1.6,1.4c0,0.7,0.4,1,1.3,1.2l1.3,0.2c1.8,0.3,2.4,1,2.4,2.4
			c0,1.7-1.4,2.6-3.3,2.6c-1.7,0-3.2-0.8-3.3-2.6h1.4c0.1,0.7,0.4,1.5,1.9,1.5c1.2,0,1.9-0.5,1.9-1.4c0-0.7-0.2-1-1.3-1.2l-1.3-0.2
			c-1.5-0.2-2.3-0.9-2.3-2.3c0-1.5,1.1-2.6,3.1-2.6c1.8,0,2.9,0.8,3,2.3H168.2z"/>
		<path class="st10" d="M179.1,155.4h-1.4v-4.3h0c-0.4,0.8-1.3,1.5-2.6,1.5c-1.8,0-3.4-1.1-3.4-4.4c0-2.9,1.5-4.5,3.6-4.5
			c1.3,0,2.1,0.7,2.4,1.5h0V144h1.4V155.4z M177.7,148.8v-0.9c0-1.8-0.9-2.9-2.3-2.9c-1.6,0-2.4,1.3-2.4,3.3c0,1.9,0.6,3.3,2.2,3.3
			C176.8,151.5,177.7,150.3,177.7,148.8z"/>
		<path class="st10" d="M183.6,149.2c0,0.6,0,1.3,0.3,1.7c0.3,0.4,0.7,0.6,1.3,0.6c1.6,0,2.3-1,2.3-2.9V144h1.4v8.4h-1.4V151h0
			c-0.4,0.9-1.3,1.6-2.7,1.6c-1.6,0-2.7-0.8-2.7-2.8V144h1.4V149.2z"/>
		<path class="st10" d="M191.7,146.3c0-1.5,1.2-2.5,3.2-2.5c2.1,0,3.1,0.9,3.1,3.1v3.4c0,0.7,0.1,0.9,0.8,1v1.2h-0.2
			c-1.3,0-1.8-0.5-1.9-1.5h0c-0.4,1-1.5,1.6-2.7,1.6c-1.7,0-2.7-0.9-2.7-2.4c0-0.9,0.4-1.7,1.3-2.1c0.9-0.5,2.2-0.6,4.1-0.7V147
			c0-1.5-0.6-2.1-1.8-2.1c-1.2,0-1.7,0.7-1.8,1.4H191.7z M196.6,148.6v-0.2c-1.8,0.1-2.9,0.2-3.4,0.6c-0.3,0.2-0.5,0.6-0.5,1
			c0,0.9,0.6,1.3,1.5,1.3C195.2,151.4,196.6,150.7,196.6,148.6z"/>
		<path class="st10" d="M201,144h1.4v1.6h0c0.4-0.9,1.4-1.7,2.7-1.7h0.1v1.5h-0.3c-1.5,0-2.5,0.9-2.5,2.5v4.6H201V144z"/>
		<path class="st10" d="M210.3,152.6c-2.6,0-3.8-1.9-3.8-4.4c0-2.5,1.3-4.5,3.8-4.5c2.5,0,3.5,2,3.5,4.1v0.7H208
			c0.1,1.7,0.8,2.9,2.4,2.9c1.4,0,1.8-0.8,1.9-1.3h1.4C213.4,151.7,212.1,152.6,210.3,152.6z M212.3,147.4c0-1.4-0.6-2.5-2.1-2.5
			c-1.3,0-2.1,1.1-2.3,2.6L212.3,147.4L212.3,147.4z"/>
		<path class="st10" d="M222.5,141.5v2.4h2.1v1.1h-2.1v5c0,0.9,0.4,1.2,1.3,1.2c0.4,0,0.9-0.1,0.9-0.1v1.2c0,0-0.6,0.1-1.3,0.1
			c-1.6,0-2.3-0.8-2.3-2.2v-5.2h-1.5V144h0.3c1.1,0,1.4-0.3,1.4-1.9v-0.6H222.5z"/>
		<path class="st10" d="M226.1,148.2c0-2.6,1.4-4.4,3.8-4.4c2.5,0,3.8,1.8,3.8,4.4c0,2.6-1.4,4.4-3.8,4.4
			C227.4,152.6,226.1,150.8,226.1,148.2z M227.6,148.2c0,2.1,0.7,3.3,2.3,3.3c1.6,0,2.3-1.2,2.3-3.3c0-2-0.7-3.3-2.3-3.3
			C228.3,144.9,227.6,146.1,227.6,148.2z"/>
		<path class="st10" d="M235.8,144h2v2h-2V144z M235.8,152.4v-2h2v2H235.8z"/>
		<path class="st10" d="M-104.4,176.5h4.5v1.3h-4.5V176.5z"/>
		<path class="st10" d="M-93.9,182.5v-1.3h0.3c2.6,0,3-0.7,3-2.5v-8.5h1.5v8.7c0,2.6-1.4,3.6-4.1,3.6H-93.9z"/>
		<path class="st10" d="M-84.3,177.7v4.7h-1.5v-12.2h3.7c2.4,0,4.2,1.1,4.2,3.8c0,2.6-1.8,3.8-4.3,3.8H-84.3z M-82.2,176.5
			c1.8,0,2.8-0.9,2.8-2.6c0-1.8-1-2.6-2.8-2.6h-2.1v5.2H-82.2z"/>
		<path class="st10" d="M-74.4,176.4c0,3.2,1.4,5.1,3.9,5.1c2.3,0,3.7-1.3,3.7-3.7v-0.2h-3.5v-1.3h5v6.2h-1.3v-1.8h-0.1
			c-0.6,1.1-1.8,2-3.8,2c-3.1,0-5.4-2-5.4-6.3c0-4,2.4-6.4,5.6-6.4c2.5,0,4.3,1.3,4.6,3.4h-1.6c-0.2-1.4-1.5-2.2-3.1-2.2
			C-73,171.2-74.4,173.3-74.4,176.4z"/>
		<path class="st10" d="M-62.3,180.4h1.8l-1.3,3.8h-1L-62.3,180.4z"/>
		<path class="st10" d="M-52.1,177.7v4.7h-1.5v-12.2h3.7c2.4,0,4.2,1.1,4.2,3.8c0,2.6-1.8,3.8-4.3,3.8H-52.1z M-50.1,176.5
			c1.8,0,2.8-0.9,2.8-2.6c0-1.8-1-2.6-2.8-2.6h-2.1v5.2H-50.1z"/>
		<path class="st10" d="M-43.2,170.2h1.9l5.4,9.1c0.4,0.7,0.6,1.2,0.6,1.2h0v-10.3h1.4v12.2h-1.9l-5.4-9.1c-0.5-0.8-0.6-1.2-0.6-1.2
			h0v10.3h-1.4V170.2z"/>
		<path class="st10" d="M-29.4,176.4c0,3.2,1.4,5.1,3.9,5.1c2.3,0,3.7-1.3,3.7-3.7v-0.2h-3.5v-1.3h5v6.2h-1.3v-1.8h-0.1
			c-0.6,1.1-1.8,2-3.8,2c-3.1,0-5.4-2-5.4-6.3c0-4,2.4-6.4,5.6-6.4c2.5,0,4.3,1.3,4.6,3.4h-1.6c-0.2-1.4-1.5-2.2-3.1-2.2
			C-28,171.2-29.4,173.3-29.4,176.4z"/>
		<path class="st10" d="M-17.3,174h2v2h-2V174z M-17.3,182.4v-2h2v2H-17.3z"/>
		<path class="st10" d="M-4.1,176.1c-0.1-0.8-0.7-1.2-1.7-1.2s-1.6,0.6-1.6,1.4c0,0.7,0.4,1,1.3,1.2l1.3,0.2c1.8,0.3,2.4,1,2.4,2.4
			c0,1.7-1.4,2.6-3.3,2.6c-1.7,0-3.2-0.8-3.3-2.6h1.4c0.1,0.7,0.4,1.5,1.9,1.5c1.2,0,1.9-0.5,1.9-1.4c0-0.7-0.2-1-1.3-1.2l-1.3-0.2
			c-1.5-0.2-2.3-0.9-2.3-2.3c0-1.5,1.1-2.6,3.1-2.6c1.8,0,2.9,0.8,3,2.3H-4.1z"/>
		<path class="st10" d="M3.1,182.6c-2.6,0-3.8-1.9-3.8-4.4c0-2.5,1.3-4.5,3.8-4.5c2.5,0,3.5,2,3.5,4.1v0.7H0.7
			c0.1,1.7,0.8,2.9,2.4,2.9c1.4,0,1.8-0.8,1.9-1.3h1.4C6.1,181.7,4.9,182.6,3.1,182.6z M5.1,177.4c0-1.4-0.6-2.5-2.1-2.5
			c-1.3,0-2.1,1.1-2.3,2.6L5.1,177.4L5.1,177.4z"/>
		<path class="st10" d="M10.8,171.5v2.4h2.1v1.1h-2.1v5c0,0.9,0.4,1.2,1.3,1.2c0.4,0,0.9-0.1,0.9-0.1v1.2c0,0-0.6,0.1-1.3,0.1
			c-1.6,0-2.3-0.8-2.3-2.2v-5.2H7.8V174H8c1.1,0,1.4-0.3,1.4-1.9v-0.6H10.8z"/>
		<path class="st10" d="M21.2,171.5v2.4h2.1v1.1h-2.1v5c0,0.9,0.4,1.2,1.3,1.2c0.4,0,0.9-0.1,0.9-0.1v1.2c0,0-0.6,0.1-1.3,0.1
			c-1.6,0-2.3-0.8-2.3-2.2v-5.2h-1.5V174h0.3c1.1,0,1.4-0.3,1.4-1.9v-0.6H21.2z"/>
		<path class="st10" d="M24.8,178.2c0-2.6,1.4-4.4,3.8-4.4c2.5,0,3.8,1.8,3.8,4.4c0,2.6-1.4,4.4-3.8,4.4
			C26.1,182.6,24.8,180.8,24.8,178.2z M26.3,178.2c0,2.1,0.7,3.3,2.3,3.3c1.6,0,2.3-1.2,2.3-3.3c0-2-0.7-3.3-2.3-3.3
			C27.1,174.9,26.3,176.1,26.3,178.2z"/>
		<path class="st10" d="M39.3,174h1.4v1.4h0c0.4-0.9,1.4-1.6,2.7-1.6c1.3,0,2.2,0.6,2.5,1.7h0c0.3-0.9,1.4-1.7,2.8-1.7
			c1.6,0,2.7,0.8,2.7,2.8v5.9H50v-5.2c0-0.6,0-1.3-0.3-1.7c-0.3-0.4-0.8-0.5-1.3-0.5c-1.6,0-2.3,1-2.3,2.4v5.1h-1.4v-5.2
			c0-0.6,0-1.2-0.3-1.7c-0.3-0.4-0.8-0.6-1.3-0.6c-1.6,0-2.3,1-2.3,2.4v5.1h-1.4V174z"/>
		<path class="st10" d="M54.2,176.3c0-1.5,1.2-2.5,3.2-2.5c2.1,0,3.1,0.9,3.1,3.1v3.4c0,0.7,0.1,0.9,0.8,1v1.2h-0.2
			c-1.3,0-1.8-0.5-1.9-1.5h0c-0.4,1-1.5,1.6-2.7,1.6c-1.7,0-2.7-0.9-2.7-2.4c0-0.9,0.4-1.7,1.3-2.1c0.9-0.5,2.2-0.6,4.1-0.7V177
			c0-1.5-0.6-2.1-1.8-2.1c-1.2,0-1.7,0.7-1.8,1.4H54.2z M59.1,178.6v-0.2c-1.8,0.1-2.9,0.2-3.4,0.6c-0.3,0.2-0.5,0.6-0.5,1
			c0,0.9,0.6,1.3,1.5,1.3C57.8,181.4,59.1,180.7,59.1,178.6z"/>
		<path class="st10" d="M65.2,178.1l-2.7-4.1h1.7l1.8,2.9h0L68,174h1.6l-2.7,4l2.9,4.4h-1.7l-2.1-3.3h0l-2.1,3.3h-1.6L65.2,178.1z"
			/>
		<path class="st10" d="M71.8,170.5h1.5v1.6h-1.5V170.5z M71.8,174h1.5v8.4h-1.5V174z"/>
		<path class="st10" d="M76.4,174h1.4v1.4h0c0.4-0.9,1.4-1.6,2.7-1.6c1.3,0,2.2,0.6,2.5,1.7h0c0.3-0.9,1.4-1.7,2.8-1.7
			c1.6,0,2.7,0.8,2.7,2.8v5.9h-1.4v-5.2c0-0.6,0-1.3-0.3-1.7c-0.3-0.4-0.8-0.5-1.3-0.5c-1.6,0-2.3,1-2.3,2.4v5.1h-1.4v-5.2
			c0-0.6,0-1.2-0.3-1.7c-0.3-0.4-0.8-0.6-1.3-0.6c-1.6,0-2.3,1-2.3,2.4v5.1h-1.4V174z"/>
		<path class="st10" d="M93,179.2c0,0.6,0,1.3,0.3,1.7c0.3,0.4,0.7,0.6,1.3,0.6c1.6,0,2.3-1,2.3-2.9V174h1.4v8.4H97V181h0
			c-0.4,0.9-1.3,1.6-2.7,1.6c-1.6,0-2.7-0.8-2.7-2.8V174H93V179.2z"/>
		<path class="st10" d="M101.5,174h1.4v1.4h0c0.4-0.9,1.4-1.6,2.7-1.6c1.3,0,2.2,0.6,2.5,1.7h0c0.3-0.9,1.4-1.7,2.8-1.7
			c1.6,0,2.7,0.8,2.7,2.8v5.9h-1.4v-5.2c0-0.6,0-1.3-0.3-1.7c-0.3-0.4-0.8-0.5-1.3-0.5c-1.6,0-2.3,1-2.3,2.4v5.1h-1.4v-5.2
			c0-0.6,0-1.2-0.3-1.7c-0.3-0.4-0.8-0.6-1.3-0.6c-1.6,0-2.3,1-2.3,2.4v5.1h-1.4V174z"/>
		<path class="st10" d="M128,185.4h-1.4v-4.3h0c-0.4,0.8-1.3,1.5-2.6,1.5c-1.8,0-3.4-1.1-3.4-4.4c0-2.9,1.5-4.5,3.6-4.5
			c1.3,0,2.1,0.7,2.4,1.5h0V174h1.4V185.4z M126.5,178.8v-0.9c0-1.8-0.9-2.9-2.3-2.9c-1.6,0-2.4,1.3-2.4,3.3c0,1.9,0.6,3.3,2.2,3.3
			C125.6,181.5,126.5,180.3,126.5,178.8z"/>
		<path class="st10" d="M132.4,179.2c0,0.6,0,1.3,0.3,1.7c0.3,0.4,0.7,0.6,1.3,0.6c1.6,0,2.3-1,2.3-2.9V174h1.4v8.4h-1.4V181h0
			c-0.4,0.9-1.3,1.6-2.7,1.6c-1.6,0-2.7-0.8-2.7-2.8V174h1.4V179.2z"/>
		<path class="st10" d="M140.5,176.3c0-1.5,1.2-2.5,3.2-2.5c2.1,0,3.1,0.9,3.1,3.1v3.4c0,0.7,0.1,0.9,0.8,1v1.2h-0.2
			c-1.3,0-1.8-0.5-1.9-1.5h0c-0.4,1-1.5,1.6-2.7,1.6c-1.7,0-2.7-0.9-2.7-2.4c0-0.9,0.4-1.7,1.3-2.1c0.9-0.5,2.2-0.6,4.1-0.7V177
			c0-1.5-0.6-2.1-1.8-2.1c-1.2,0-1.7,0.7-1.8,1.4H140.5z M145.4,178.6v-0.2c-1.8,0.1-2.9,0.2-3.4,0.6c-0.3,0.2-0.5,0.6-0.5,1
			c0,0.9,0.6,1.3,1.5,1.3C144.1,181.4,145.4,180.7,145.4,178.6z"/>
		<path class="st10" d="M149.9,169.8h1.4v12.6h-1.4V169.8z"/>
		<path class="st10" d="M154.4,170.5h1.5v1.6h-1.5V170.5z M154.4,174h1.5v8.4h-1.5V174z"/>
		<path class="st10" d="M160.8,171.5v2.4h2.1v1.1h-2.1v5c0,0.9,0.4,1.2,1.3,1.2c0.4,0,0.9-0.1,0.9-0.1v1.2c0,0-0.6,0.1-1.3,0.1
			c-1.6,0-2.3-0.8-2.3-2.2v-5.2h-1.5V174h0.3c1.1,0,1.4-0.3,1.4-1.9v-0.6H160.8z"/>
		<path class="st10" d="M164.4,174h1.4l1.8,5.3c0.3,0.8,0.4,1.3,0.4,1.3h0c0,0,0.1-0.5,0.4-1.3l1.7-5.3h1.4l-3.1,9
			c-0.7,1.9-1.2,2.7-3.1,2.7c-0.3,0-0.6,0-0.9-0.1v-1.2c0.3,0.1,0.6,0.1,0.7,0.1c1.1,0,1.4-0.4,1.8-1.5l0.2-0.4L164.4,174z"/>
		<path class="st10" d="M172.1,180.5h2v2h-2V180.5z"/>
		<path class="st10" d="M-104.4,206.5h4.5v1.3h-4.5V206.5z"/>
		<path class="st10" d="M-91.2,207.7v4.7h-1.5v-12.2h3.7c2.4,0,4.2,1.1,4.2,3.8c0,2.6-1.8,3.8-4.3,3.8H-91.2z M-89.1,206.5
			c1.8,0,2.8-0.9,2.8-2.6c0-1.8-1-2.6-2.8-2.6h-2.1v5.2H-89.1z"/>
		<path class="st10" d="M-82.3,200.2h3.8c3.3,0,5.9,1.6,5.9,6c0,4.3-2.4,6.3-5.7,6.3h-3.9V200.2z M-78.5,211.1
			c2.6,0,4.4-1.3,4.4-4.9c0-3.4-1.8-4.7-4.3-4.7h-2.4v9.7H-78.5z"/>
		<path class="st10" d="M-68.2,212.4h-1.5v-12.2h7.3v1.3h-5.8v4.4h5.3v1.3h-5.3V212.4z"/>
		<path class="st10" d="M-104.4,236.5h4.5v1.3h-4.5V236.5z"/>
		<path class="st10" d="M-92.7,230.2h7.8v1.3h-6.3v4.1h5.8v1.3h-5.8v4.2h6.4v1.3h-7.9V230.2z"/>
		<path class="st10" d="M-80.2,237.7v4.7h-1.5v-12.2h3.7c2.4,0,4.2,1.1,4.2,3.8c0,2.6-1.8,3.8-4.3,3.8H-80.2z M-78.1,236.5
			c1.8,0,2.8-0.9,2.8-2.6c0-1.8-1-2.6-2.8-2.6h-2.1v5.2H-78.1z"/>
		<path class="st10" d="M-64.8,233.4c-0.1-1.2-0.8-2.3-2.5-2.3c-1.7,0-2.6,0.9-2.6,2.1c0,1.1,0.6,1.8,2,2l1.7,0.3
			c2.4,0.4,3.2,1.6,3.2,3.3c0,2.2-1.5,3.7-4.5,3.7c-2.8,0-4.4-1.5-4.6-3.7h1.6c0.2,1.3,1.1,2.5,3.1,2.5c2.2,0,2.9-1.1,2.9-2.4
			c0-1.1-0.6-1.8-2.1-2l-1.7-0.3c-2.4-0.4-3.2-1.7-3.2-3.3c0-2,1.6-3.4,4.1-3.4c2.6,0,3.9,1.4,4,3.5H-64.8z"/>
		<path class="st10" d="M-60.4,234h2v2h-2V234z M-60.4,242.4v-2h2v2H-60.4z"/>
		<path class="st10" d="M-48.3,242.6c-2.6,0-3.8-1.9-3.8-4.4c0-2.5,1.3-4.5,3.8-4.5c2.5,0,3.5,2,3.5,4.1v0.7h-5.8
			c0.1,1.7,0.8,2.9,2.4,2.9c1.4,0,1.8-0.8,1.9-1.3h1.4C-45.3,241.7-46.5,242.6-48.3,242.6z M-46.3,237.4c0-1.4-0.6-2.5-2.1-2.5
			c-1.3,0-2.1,1.1-2.3,2.6L-46.3,237.4L-46.3,237.4z"/>
		<path class="st10" d="M-40.8,238.1l-2.7-4.1h1.7l1.8,2.9h0l1.9-2.9h1.6l-2.7,4l2.9,4.4h-1.7l-2.1-3.3h0l-2.1,3.3h-1.6L-40.8,238.1
			z"/>
		<path class="st10" d="M-34.3,234h1.4v1.4h0c0.5-0.9,1.4-1.6,2.7-1.6c1.8,0,3.4,1.1,3.4,4.3c0,3.1-1.6,4.5-3.5,4.5
			c-1.2,0-2.2-0.7-2.5-1.4h0v4.2h-1.4V234z M-30.5,241.5c1.5,0,2.2-1.2,2.2-3.4c0-1.8-0.5-3.2-2.3-3.2c-1.5,0-2.4,1.3-2.4,2.7v0.9
			C-32.9,240.2-32.1,241.5-30.5,241.5z"/>
		<path class="st10" d="M-25,238.2c0-2.6,1.4-4.4,3.8-4.4c2.5,0,3.8,1.8,3.8,4.4c0,2.6-1.4,4.4-3.8,4.4
			C-23.7,242.6-25,240.8-25,238.2z M-23.5,238.2c0,2.1,0.7,3.3,2.3,3.3c1.6,0,2.3-1.2,2.3-3.3c0-2-0.7-3.3-2.3-3.3
			C-22.7,234.9-23.5,236.1-23.5,238.2z"/>
		<path class="st10" d="M-15,234h1.4v1.6h0c0.4-0.9,1.4-1.7,2.7-1.7h0.1v1.5H-11c-1.5,0-2.5,0.9-2.5,2.5v4.6H-15V234z"/>
		<path class="st10" d="M-6.5,231.5v2.4h2.1v1.1h-2.1v5c0,0.9,0.4,1.2,1.3,1.2c0.4,0,0.9-0.1,0.9-0.1v1.2c0,0-0.6,0.1-1.3,0.1
			c-1.6,0-2.3-0.8-2.3-2.2v-5.2h-1.5V234h0.3c1.1,0,1.4-0.3,1.4-1.9v-0.6H-6.5z"/>
		<path class="st10" d="M6.5,237.2H3.8v5.2H2.3v-12.2h4.4c0.9,0,1.7,0.2,2.4,0.5c1,0.5,1.6,1.5,1.6,2.9c0,2.3-1.5,3.1-2.6,3.4v0
			l2.7,5.4H9.1L6.5,237.2z M6.6,236c1.4,0,2.5-0.7,2.5-2.4c0-1.5-1-2.2-2.4-2.2H3.8v4.6H6.6z"/>
		<path class="st10" d="M14.5,236.4c0,3.2,1.4,5.1,3.9,5.1c2.3,0,3.7-1.3,3.7-3.7v-0.2h-3.5v-1.3h5v6.2h-1.3v-1.8h-0.1
			c-0.6,1.1-1.8,2-3.8,2c-3.1,0-5.4-2-5.4-6.3c0-4,2.4-6.4,5.6-6.4c2.5,0,4.3,1.3,4.6,3.4h-1.6c-0.2-1.4-1.5-2.2-3.1-2.2
			C15.8,231.2,14.5,233.3,14.5,236.4z"/>
		<path class="st10" d="M26.9,242.4v-12.2h4.8c2.1,0,3.8,1,3.8,3c0,1.5-0.8,2.4-2.2,2.7v0c1.5,0.3,2.6,1.5,2.6,2.9
			c0,2.8-2.1,3.6-4.5,3.6H26.9z M31.4,235.3c1.3,0,2.5-0.5,2.5-2c0-1.3-0.9-1.9-2.3-1.9h-3.2v4H31.4z M31.3,241.2c1.8,0,3-0.6,3-2.4
			c0-1.6-1.2-2.2-3.1-2.2h-2.8v4.7H31.3z"/>
		<path class="st10" d="M45.1,244.5c-0.9-1.8-2.1-4.1-2.1-7.3c0-3.2,1.2-5.5,2.1-7.3h1.1c-0.9,2-1.7,4.1-1.7,7.3
			c0,3.3,0.8,5.4,1.7,7.3H45.1z"/>
		<path class="st10" d="M55.1,242.4h-1.4V241h0c-0.4,0.8-1.4,1.6-2.7,1.6c-1.8,0-3.4-1.1-3.4-4.4c0-2.9,1.5-4.5,3.6-4.5
			c1.3,0,2.1,0.7,2.4,1.5h0v-5.5h1.4V242.4z M53.7,237.9c0-1.8-0.9-2.9-2.3-2.9c-1.6,0-2.4,1.3-2.4,3.3c0,1.9,0.6,3.3,2.2,3.3
			c1.5,0,2.4-1.2,2.4-2.7V237.9z"/>
		<path class="st10" d="M58.3,230.5h1.5v1.6h-1.5V230.5z M58.3,234h1.5v8.4h-1.5V234z"/>
		<path class="st10" d="M62.4,243.3h1.4c0.2,0.7,0.7,1.2,2.1,1.2c1.6,0,2.4-0.6,2.4-2.4v-1.2h0c-0.4,0.8-1.4,1.6-2.7,1.6
			c-1.8,0-3.4-1.1-3.4-4.2c0-2.8,1.5-4.3,3.6-4.3c1.4,0,2.2,0.8,2.5,1.5h0V234h1.4v8.2c0,2.4-1.6,3.4-3.8,3.4
			C64.2,245.6,62.6,245,62.4,243.3z M68.3,237.7c0-1.7-0.9-2.8-2.4-2.8c-1.5,0-2.2,1.3-2.2,3.2c0,1.9,0.5,3.1,2.3,3.1
			c1.4,0,2.3-1.2,2.3-2.6V237.7z"/>
		<path class="st10" d="M72.8,230.5h1.5v1.6h-1.5V230.5z M72.8,234h1.5v8.4h-1.5V234z"/>
		<path class="st10" d="M79.2,231.5v2.4h2.1v1.1h-2.1v5c0,0.9,0.4,1.2,1.3,1.2c0.4,0,0.9-0.1,0.9-0.1v1.2c0,0-0.6,0.1-1.3,0.1
			c-1.6,0-2.3-0.8-2.3-2.2v-5.2h-1.5V234h0.3c1.1,0,1.4-0.3,1.4-1.9v-0.6H79.2z"/>
		<path class="st10" d="M83.7,236.3c0-1.5,1.2-2.5,3.2-2.5c2.1,0,3.1,0.9,3.1,3.1v3.4c0,0.7,0.1,0.9,0.8,1v1.2h-0.2
			c-1.3,0-1.8-0.5-1.9-1.5h0c-0.4,1-1.5,1.6-2.7,1.6c-1.7,0-2.7-0.9-2.7-2.4c0-0.9,0.4-1.7,1.3-2.1c0.9-0.5,2.2-0.6,4.1-0.7V237
			c0-1.5-0.6-2.1-1.8-2.1c-1.2,0-1.7,0.7-1.8,1.4H83.7z M88.6,238.6v-0.2c-1.8,0.1-2.9,0.2-3.4,0.6c-0.3,0.2-0.5,0.6-0.5,1
			c0,0.9,0.6,1.3,1.5,1.3C87.3,241.4,88.6,240.7,88.6,238.6z"/>
		<path class="st10" d="M93.1,229.8h1.4v12.6h-1.4V229.8z"/>
		<path class="st10" d="M98.5,237.1c0-3.3-0.8-5.4-1.7-7.3h1.1c0.9,1.8,2.1,4.1,2.1,7.3c0,3.2-1.2,5.5-2.1,7.3h-1.1
			C97.6,242.5,98.5,240.4,98.5,237.1z"/>
		<path class="st10" d="M107.3,236.3c0-1.5,1.2-2.5,3.2-2.5c2.1,0,3.1,0.9,3.1,3.1v3.4c0,0.7,0.1,0.9,0.8,1v1.2h-0.2
			c-1.3,0-1.8-0.5-1.9-1.5h0c-0.4,1-1.5,1.6-2.7,1.6c-1.7,0-2.7-0.9-2.7-2.4c0-0.9,0.4-1.7,1.3-2.1c0.9-0.5,2.2-0.6,4.1-0.7V237
			c0-1.5-0.6-2.1-1.8-2.1c-1.2,0-1.7,0.7-1.8,1.4H107.3z M112.2,238.6v-0.2c-1.8,0.1-2.9,0.2-3.4,0.6c-0.3,0.2-0.5,0.6-0.5,1
			c0,0.9,0.6,1.3,1.5,1.3C110.9,241.4,112.2,240.7,112.2,238.6z"/>
		<path class="st10" d="M122,237.2c0-0.6,0-1.3-0.3-1.7c-0.3-0.4-0.8-0.6-1.3-0.6c-1.6,0-2.3,1-2.3,2.4v5.1h-1.4V234h1.4v1.4h0
			c0.4-0.9,1.4-1.6,2.7-1.6c1.6,0,2.7,0.8,2.7,2.8v5.9H122V237.2z"/>
		<path class="st10" d="M133.3,242.4h-1.4V241h0c-0.4,0.8-1.4,1.6-2.7,1.6c-1.8,0-3.4-1.1-3.4-4.4c0-2.9,1.5-4.5,3.6-4.5
			c1.3,0,2.1,0.7,2.4,1.5h0v-5.5h1.4V242.4z M131.9,237.9c0-1.8-0.9-2.9-2.3-2.9c-1.6,0-2.4,1.3-2.4,3.3c0,1.9,0.6,3.3,2.2,3.3
			c1.5,0,2.4-1.2,2.4-2.7V237.9z"/>
		<path class="st10" d="M142.1,236.3c0,3.2,1.4,5.1,3.9,5.1c2.2,0,3.1-1.5,3.2-2.8h1.5c-0.2,2.3-2,4.1-4.7,4.1
			c-3.2,0-5.4-2.1-5.4-6.3c0-4,2.3-6.3,5.5-6.3c2.1,0,4.4,1.1,4.7,3.8h-1.6c-0.2-1.2-1.2-2.6-3.1-2.6
			C143.5,231.2,142.1,233.3,142.1,236.3z"/>
		<path class="st10" d="M153.6,230.2h2.3l3.1,8.8c0.4,1.1,0.5,1.6,0.5,1.6h0c0,0,0.2-0.5,0.5-1.6l3.2-8.8h2.2v12.2H164v-10.5h0
			c0,0-0.2,0.6-0.7,1.9l-3.1,8.6h-1.4l-3-8.6c-0.4-1.3-0.7-1.9-0.7-1.9h0v10.5h-1.4V230.2z"/>
		<path class="st10" d="M171.8,237.2l-4.3-7h1.7l3.3,5.7h0l3.4-5.7h1.6l-4.3,6.9v5.3h-1.5V237.2z"/>
		<path class="st10" d="M181.1,242.4h-1.5v-12.2h1.5v6.3l5.7-6.3h1.8l-4.7,5.1l5,7.1h-1.8l-4.3-6l-1.8,2V242.4z"/>
		<path class="st10" d="M197.7,244.5c-0.9-1.8-2.1-4.1-2.1-7.3c0-3.2,1.2-5.5,2.1-7.3h1.1c-0.9,2-1.7,4.1-1.7,7.3
			c0,3.3,0.8,5.4,1.7,7.3H197.7z"/>
		<path class="st10" d="M201,234h1.4v1.4h0c0.5-0.9,1.4-1.6,2.7-1.6c1.8,0,3.4,1.1,3.4,4.3c0,3.1-1.6,4.5-3.5,4.5
			c-1.2,0-2.2-0.7-2.5-1.4h0v4.2H201V234z M204.8,241.5c1.5,0,2.2-1.2,2.2-3.4c0-1.8-0.5-3.2-2.3-3.2c-1.5,0-2.4,1.3-2.4,2.7v0.9
			C202.4,240.2,203.2,241.5,204.8,241.5z"/>
		<path class="st10" d="M210.9,234h1.4v1.6h0c0.4-0.9,1.4-1.7,2.7-1.7h0.1v1.5h-0.3c-1.5,0-2.5,0.9-2.5,2.5v4.6h-1.4V234z"/>
		<path class="st10" d="M217.3,230.5h1.5v1.6h-1.5V230.5z M217.3,234h1.5v8.4h-1.5V234z"/>
		<path class="st10" d="M227.3,237.2c0-0.6,0-1.3-0.3-1.7c-0.3-0.4-0.8-0.6-1.3-0.6c-1.6,0-2.3,1-2.3,2.4v5.1H222V234h1.4v1.4h0
			c0.4-0.9,1.4-1.6,2.7-1.6c1.6,0,2.7,0.8,2.7,2.8v5.9h-1.4V237.2z"/>
		<path class="st10" d="M233.6,231.5v2.4h2.1v1.1h-2.1v5c0,0.9,0.4,1.2,1.3,1.2c0.4,0,0.9-0.1,0.9-0.1v1.2c0,0-0.6,0.1-1.3,0.1
			c-1.6,0-2.3-0.8-2.3-2.2v-5.2h-1.5V234h0.3c1.1,0,1.4-0.3,1.4-1.9v-0.6H233.6z"/>
		<path class="st10" d="M239,237.1c0-3.3-0.8-5.4-1.7-7.3h1.1c0.9,1.8,2.1,4.1,2.1,7.3c0,3.2-1.2,5.5-2.1,7.3h-1.1
			C238.1,242.5,239,240.4,239,237.1z"/>
		<path class="st10" d="M247,234h1.5l1.8,5.4c0.2,0.7,0.4,1.3,0.4,1.3h0c0,0,0.2-0.6,0.4-1.3l1.9-5.4h1.4l-2.9,8.4h-1.5L247,234z"/>
		<path class="st10" d="M259.4,242.6c-2.6,0-3.8-1.9-3.8-4.4c0-2.5,1.3-4.5,3.8-4.5c2.5,0,3.5,2,3.5,4.1v0.7h-5.8
			c0.1,1.7,0.8,2.9,2.4,2.9c1.4,0,1.8-0.8,1.9-1.3h1.4C262.5,241.7,261.2,242.6,259.4,242.6z M261.4,237.4c0-1.4-0.6-2.5-2.1-2.5
			c-1.3,0-2.1,1.1-2.3,2.6L261.4,237.4L261.4,237.4z"/>
		<path class="st10" d="M265.2,234h1.4v1.6h0c0.4-0.9,1.4-1.7,2.7-1.7h0.1v1.5h-0.3c-1.5,0-2.5,0.9-2.5,2.5v4.6h-1.4V234z"/>
		<path class="st10" d="M275.7,236.1c-0.1-0.8-0.7-1.2-1.7-1.2s-1.6,0.6-1.6,1.4c0,0.7,0.4,1,1.3,1.2l1.3,0.2c1.8,0.3,2.4,1,2.4,2.4
			c0,1.7-1.4,2.6-3.3,2.6c-1.7,0-3.2-0.8-3.3-2.6h1.4c0.1,0.7,0.4,1.5,1.9,1.5c1.2,0,1.9-0.5,1.9-1.4c0-0.7-0.2-1-1.3-1.2l-1.3-0.2
			c-1.5-0.2-2.3-0.9-2.3-2.3c0-1.5,1.1-2.6,3.1-2.6c1.8,0,2.9,0.8,3,2.3H275.7z"/>
		<path class="st10" d="M279.8,230.5h1.5v1.6h-1.5V230.5z M279.8,234h1.5v8.4h-1.5V234z"/>
		<path class="st10" d="M283.7,238.2c0-2.6,1.4-4.4,3.8-4.4c2.5,0,3.8,1.8,3.8,4.4c0,2.6-1.4,4.4-3.8,4.4
			C284.9,242.6,283.7,240.8,283.7,238.2z M285.1,238.2c0,2.1,0.7,3.3,2.3,3.3c1.6,0,2.3-1.2,2.3-3.3c0-2-0.7-3.3-2.3-3.3
			C285.9,234.9,285.1,236.1,285.1,238.2z"/>
		<path class="st10" d="M299,237.2c0-0.6,0-1.3-0.3-1.7c-0.3-0.4-0.8-0.6-1.3-0.6c-1.6,0-2.3,1-2.3,2.4v5.1h-1.4V234h1.4v1.4h0
			c0.4-0.9,1.4-1.6,2.7-1.6c1.6,0,2.7,0.8,2.7,2.8v5.9H299V237.2z"/>
		<path class="st10" d="M307.7,236.1c-0.1-0.8-0.7-1.2-1.7-1.2s-1.6,0.6-1.6,1.4c0,0.7,0.4,1,1.3,1.2l1.3,0.2c1.8,0.3,2.4,1,2.4,2.4
			c0,1.7-1.4,2.6-3.3,2.6c-1.7,0-3.2-0.8-3.3-2.6h1.4c0.1,0.7,0.4,1.5,1.9,1.5c1.2,0,1.9-0.5,1.9-1.4c0-0.7-0.2-1-1.3-1.2l-1.3-0.2
			c-1.5-0.2-2.3-0.9-2.3-2.3c0-1.5,1.1-2.6,3.1-2.6c1.8,0,2.9,0.8,3,2.3H307.7z"/>
		<path class="st10" d="M311.2,240.5h2v2h-2V240.5z"/>
	</g>
</g>
</svg>
