<?xml version="1.0" encoding="utf-8"?>
<!-- Generator: Adobe Illustrator 24.1.0, SVG Export Plug-In . SVG Version: 6.00 Build 0)  -->
<svg version="1.1" id="Layer_1" xmlns="http://www.w3.org/2000/svg" xmlns:xlink="http://www.w3.org/1999/xlink" x="0px" y="0px"
	 viewBox="0 0 32 32" style="enable-background:new 0 0 32 32;" xml:space="preserve">
<style type="text/css">
	.st0{fill:url(#SVGID_1_);}
	.st1{fill:url(#SVGID_2_);}
	.st2{fill:#9266FF;}
	.st3{fill:#D8C0FF;}
</style>
<g>
	<radialGradient id="SVGID_1_" cx="15.9403" cy="15.118" r="15.1659" gradientUnits="userSpaceOnUse">
		<stop  offset="0" style="stop-color:#774EB9"/>
		<stop  offset="1" style="stop-color:#523680"/>
	</radialGradient>
	<path class="st0" d="M25.8,3.3L16,9.6L6.3,3.3C8.9,1.2,12.3,0,16,0C19.7,0,23.1,1.2,25.8,3.3z"/>
	<radialGradient id="SVGID_2_" cx="15.9353" cy="16.9681" r="15.0415" gradientUnits="userSpaceOnUse">
		<stop  offset="0" style="stop-color:#774EB9"/>
		<stop  offset="1" style="stop-color:#523680"/>
	</radialGradient>
	<path class="st1" d="M25.8,28.6C23.1,30.7,19.7,32,16,32c-3.7,0-7.1-1.3-9.8-3.4l9.8-6.3L25.8,28.6z"/>
	<path class="st2" d="M32,16c0,4.6-1.9,8.7-5,11.6l0,0c0,0,0,0,0,0h0l-10-6.5l-0.1-0.1L16,20.6h0l-4.8-3.1c-1.2-0.7-1.2-2.3,0-3
		l2.5-1.6l2.3-1.5h0l0.9-0.6h0l10-6.4c0,0,0,0.1,0.1,0.1C30.1,7.3,32,11.4,32,16z"/>
	<path class="st3" d="M20.8,17.5l-4.6,3L16,20.5v0h0l-0.9,0.6h0l-0.4,0.2l-9.7,6.3h0c0,0,0,0,0,0l0,0c-3.1-2.9-5-7-5-11.6
		c0-4.6,1.9-8.7,5-11.6c0,0,0.1,0,0.1-0.1l6.2,4l3.8,2.4h0l0.4,0.3l0.5,0.3h0l2.4,1.5l2.4,1.6C22,15.1,22,16.8,20.8,17.5z"/>
</g>
</svg>
