<?xml version="1.0" encoding="utf-8"?>
<!-- Generator: Adobe Illustrator 24.1.0, SVG Export Plug-In . SVG Version: 6.00 Build 0)  -->
<svg version="1.1" id="Layer_1" xmlns="http://www.w3.org/2000/svg" xmlns:xlink="http://www.w3.org/1999/xlink" x="0px" y="0px"
	 viewBox="0 0 753 392" style="enable-background:new 0 0 753 392;" xml:space="preserve">
<style type="text/css">
	.st0{fill:url(#SVGID_1_);}
	.st1{fill:#3F3D56;}
	.st2{fill:#808080;}
	.st3{fill:#414042;}
	.st4{fill:none;stroke:#414042;stroke-width:5;stroke-linecap:round;stroke-miterlimit:10;}
	.st5{fill:none;stroke:#414042;stroke-width:5;stroke-linecap:round;stroke-miterlimit:10;stroke-dasharray:14.7495,14.7495;}
	.st6{fill:none;stroke:#414042;stroke-width:5;stroke-linecap:round;stroke-miterlimit:10;stroke-dasharray:15.5581,15.5581;}
	.st7{fill:none;stroke:#414042;stroke-width:5;stroke-linecap:round;stroke-miterlimit:10;stroke-dasharray:15;}
</style>
<g>
	
		<linearGradient id="SVGID_1_" gradientUnits="userSpaceOnUse" x1="282.1559" y1="284.3881" x2="554.8776" y2="126.6372" gradientTransform="matrix(1.083 -0.0953 -0.0953 0.973 42.5256 47.8441)">
		<stop  offset="0" style="stop-color:#9E1F63"/>
		<stop  offset="1" style="stop-color:#EF4136"/>
	</linearGradient>
	<path class="st0" d="M358.56,355.81l-105.3-182.38L503.78,28.79c29.32-16.93,66.81-6.88,83.73,22.44l56.55,97.96
		c29.92,51.83,12.17,118.11-39.66,148.03l-147.25,85.02C422.63,402.15,378.49,390.33,358.56,355.81z"/>
	<g>
		<path class="st1" d="M729.89,170.11l-7.2-4.17l0.47-0.8l0.68,0.39c-0.15-0.31-0.22-0.65-0.22-0.99c0.02-0.35,0.12-0.69,0.3-0.98
			c0.23-0.42,0.59-0.76,1.02-0.98c0.44-0.21,0.93-0.28,1.41-0.21c0.54,0.08,1.05,0.26,1.52,0.53c0.5,0.28,0.93,0.66,1.27,1.12
			c0.3,0.41,0.48,0.89,0.5,1.4c0.02,0.47-0.09,0.94-0.32,1.35c-0.15,0.28-0.38,0.51-0.64,0.68c-0.24,0.16-0.52,0.26-0.8,0.3
			l2.53,1.47L729.89,170.11z M725.79,166.67c0.5,0.35,1.11,0.51,1.72,0.45c0.44-0.06,0.83-0.32,1.05-0.71
			c0.23-0.4,0.26-0.87,0.09-1.3c-0.27-0.57-0.73-1.04-1.3-1.31c-0.51-0.35-1.12-0.51-1.73-0.45c-0.44,0.05-0.84,0.31-1.06,0.69
			c-0.22,0.4-0.24,0.88-0.05,1.3C724.77,165.92,725.22,166.39,725.79,166.67z"/>
		<path class="st1" d="M730.79,163.96l-1.61-3.47l-3.52,0.31l0.64-1.1l1.68-0.09c0.32-0.02,0.58-0.02,0.79-0.03
			c-0.13-0.27-0.25-0.51-0.34-0.73l-0.72-1.59l0.61-1.05l1.41,3.22l3.88-0.34l-0.63,1.08l-2.24,0.13l-0.6,0.03l1.26,2.56
			L730.79,163.96z"/>
		
			<rect x="712.35" y="180.66" transform="matrix(0.5008 -0.8656 0.8656 0.5008 198.0201 711.2231)" class="st1" width="6.55" height="6.55"/>
		
			<rect x="717.59" y="171.6" transform="matrix(0.5008 -0.8656 0.8656 0.5008 208.485 711.2379)" class="st1" width="6.55" height="6.55"/>
		<path class="st1" d="M729.89,170.11l-7.2-4.17l0.47-0.8l0.68,0.39c-0.15-0.31-0.22-0.65-0.22-0.99c0.02-0.35,0.12-0.69,0.3-0.98
			c0.23-0.42,0.59-0.76,1.02-0.98c0.44-0.21,0.93-0.28,1.41-0.21c0.54,0.08,1.05,0.26,1.52,0.53c0.5,0.28,0.93,0.66,1.27,1.12
			c0.3,0.41,0.48,0.89,0.5,1.4c0.02,0.47-0.09,0.94-0.32,1.35c-0.15,0.28-0.38,0.51-0.64,0.68c-0.24,0.16-0.52,0.26-0.8,0.3
			l2.53,1.47L729.89,170.11z M725.79,166.67c0.5,0.35,1.11,0.51,1.72,0.45c0.44-0.06,0.83-0.32,1.05-0.71
			c0.23-0.4,0.26-0.87,0.09-1.3c-0.27-0.57-0.73-1.04-1.3-1.31c-0.51-0.35-1.12-0.51-1.73-0.45c-0.44,0.05-0.84,0.31-1.06,0.69
			c-0.22,0.4-0.24,0.88-0.05,1.3C724.77,165.92,725.22,166.39,725.79,166.67z"/>
		<path class="st1" d="M730.79,163.96l-1.61-3.47l-3.52,0.31l0.64-1.1l1.68-0.09c0.32-0.02,0.58-0.02,0.79-0.03
			c-0.13-0.27-0.25-0.51-0.34-0.73l-0.72-1.59l0.61-1.05l1.41,3.22l3.88-0.34l-0.63,1.08l-2.24,0.13l-0.6,0.03l1.26,2.56
			L730.79,163.96z"/>
		
			<rect x="712.35" y="180.66" transform="matrix(0.5008 -0.8656 0.8656 0.5008 198.0201 711.2231)" class="st1" width="6.55" height="6.55"/>
		
			<rect x="717.59" y="171.6" transform="matrix(0.5008 -0.8656 0.8656 0.5008 208.485 711.2379)" class="st1" width="6.55" height="6.55"/>
		<circle class="st2" cx="553.01" cy="44.25" r="7.47"/>
		<path class="st2" d="M375.89,98.35c-1.12-5.83-5.69-10.38-11.53-11.47c6.74-4.22,8.8-13.1,4.58-19.84
			c-4.22-6.74-13.1-8.8-19.84-4.58c-6.74,4.22-8.8,13.1-4.58,19.84c2.14,3.43,5.62,5.8,9.6,6.53c-6.74,4.21-8.8,13.09-4.58,19.84
			c2.14,3.43,5.62,5.8,9.6,6.53c-6.74,4.22-8.8,13.1-4.58,19.84c4.22,6.74,13.1,8.8,19.84,4.58c6.74-4.22,8.8-13.1,4.58-19.84
			c-2.14-3.43-5.62-5.8-9.6-6.53C374.4,110.1,376.99,104.18,375.89,98.35z M343.86,77.12c-1.36-7.1,3.3-13.96,10.4-15.32
			c7.1-1.36,13.96,3.3,15.32,10.4c1.14,5.99-2,11.97-7.57,14.43c-1.99-0.04-3.97,0.34-5.8,1.1C350.12,87.5,345.01,83.1,343.86,77.12
			L343.86,77.12z M379.61,124.96c1.36,7.1-3.3,13.96-10.4,15.32c-7.1,1.36-13.96-3.3-15.32-10.4c-1.14-5.99,2-11.97,7.57-14.43
			c1.99,0.04,3.97-0.34,5.8-1.1C373.36,114.58,378.47,118.98,379.61,124.96z M367.02,113.01c-1.99-0.04-3.97,0.34-5.8,1.1
			c-7.22-0.28-12.84-6.36-12.56-13.58c0.19-5,3.22-9.45,7.8-11.46c1.99,0.04,3.97-0.34,5.8-1.1c7.22,0.28,12.84,6.36,12.56,13.58
			C374.63,106.54,371.6,110.99,367.02,113.01L367.02,113.01z"/>
		<polygon class="st3" points="323.29,162.13 312.63,164.01 334.53,288.22 336.41,298.87 347.07,297 404.07,286.94 402.19,276.28 
			345.19,286.34 		"/>
		<path class="st3" d="M417.37,145.54l-10.66,1.88l23.78,134.86l67.66-11.93l-23.78-134.86L417.37,145.54z M485.61,261.58
			l-46.34,8.17L419.25,156.2l46.34-8.17L485.61,261.58z"/>
		<path class="st3" d="M661.41,102.75l-57,10.05l23.78,134.86l67.66-11.93l-23.78-134.86L661.41,102.75z M683.32,226.95l-46.34,8.17
			l-20.02-113.54l46.34-8.17L683.32,226.95z"/>
		<polygon class="st3" points="568.99,188.34 560.18,189.89 562.06,200.55 570.87,199 579.04,245.34 532.7,253.51 512.67,139.97 
			569.68,129.92 567.8,119.26 510.79,129.31 500.14,131.19 502.01,141.85 522.04,255.39 523.92,266.05 534.57,264.17 580.92,256 
			591.58,254.12 589.7,243.46 581.53,197.12 590.33,195.56 588.45,184.9 579.65,186.46 		"/>
		
			<rect x="350.05" y="144.75" transform="matrix(0.9848 -0.1736 0.1736 0.9848 -19.8911 63.2964)" class="st1" width="3.48" height="1.16"/>
		<path class="st1" d="M620.21,98.59l-7.02,1.24l-0.2-1.14l7.02-1.24L620.21,98.59z M606.18,101.06l-7.02,1.24l-0.2-1.14l7.02-1.24
			L606.18,101.06z M592.15,103.53l-7.02,1.24l-0.2-1.14l7.02-1.24L592.15,103.53z M578.12,106.01l-7.02,1.24l-0.2-1.14l7.02-1.24
			L578.12,106.01z M564.08,108.48l-7.02,1.24l-0.2-1.14l7.02-1.24L564.08,108.48z M550.05,110.96l-7.02,1.24l-0.2-1.14l7.02-1.24
			L550.05,110.96z M536.02,113.43l-7.02,1.24l-0.2-1.14l7.02-1.24L536.02,113.43z M521.99,115.91l-7.02,1.24l-0.2-1.14l7.02-1.24
			L521.99,115.91z M507.96,118.38l-7.02,1.24l-0.2-1.14l7.02-1.24L507.96,118.38z M493.93,120.85l-7.02,1.24l-0.2-1.14l7.02-1.24
			L493.93,120.85z M479.89,123.33l-7.02,1.24l-0.2-1.14l7.02-1.24L479.89,123.33z M465.86,125.8l-7.02,1.24l-0.2-1.14l7.02-1.24
			L465.86,125.8z M451.83,128.28l-7.02,1.24l-0.2-1.14l7.02-1.24L451.83,128.28z M437.8,130.75l-7.02,1.24l-0.2-1.14l7.02-1.24
			L437.8,130.75z M423.77,133.22l-7.02,1.24l-0.2-1.14l7.02-1.24L423.77,133.22z M409.74,135.7l-7.02,1.24l-0.2-1.14l7.02-1.24
			L409.74,135.7z M395.7,138.17l-7.02,1.24l-0.2-1.14l7.02-1.24L395.7,138.17z M381.67,140.65l-7.02,1.24l-0.2-1.14l7.02-1.24
			L381.67,140.65z M367.64,143.12l-7.02,1.24l-0.2-1.14l7.02-1.24L367.64,143.12z"/>
		
			<rect x="627.1" y="95.9" transform="matrix(0.9848 -0.1736 0.1736 0.9848 -7.1993 110.6627)" class="st1" width="3.48" height="1.16"/>
		
			<rect x="686.39" y="116.29" transform="matrix(0.9848 -0.1736 0.1736 0.9848 -10.059 121.0851)" class="st1" width="1.16" height="3.48"/>
		<path class="st1" d="M702.96,205.33l-1.14,0.2l-1.26-7.14l1.14-0.2L702.96,205.33z M700.44,191.05l-1.14,0.2l-1.26-7.14l1.14-0.2
			L700.44,191.05z M697.92,176.77l-1.14,0.2l-1.26-7.14l1.14-0.2L697.92,176.77z M695.4,162.49l-1.14,0.2l-1.26-7.14l1.14-0.2
			L695.4,162.49z M692.88,148.2l-1.14,0.2l-1.26-7.14l1.14-0.2L692.88,148.2z M690.37,133.92l-1.14,0.2l-1.26-7.14l1.14-0.2
			L690.37,133.92z"/>
		
			<rect x="703.37" y="212.54" transform="matrix(0.9848 -0.1736 0.1736 0.9848 -26.5151 125.4945)" class="st1" width="1.16" height="3.48"/>
		
			<rect x="324.15" y="110.88" transform="matrix(0.9848 -0.1736 0.1736 0.9848 -35.2705 59.9069)" class="st2" width="1.16" height="241.3"/>
		
			<rect x="683.43" y="47.38" transform="matrix(0.9848 -0.1736 0.1736 0.9848 -18.786 121.33)" class="st2" width="1.16" height="241.3"/>
		
			<rect x="275.39" y="266.55" transform="matrix(0.9848 -0.1736 0.1736 0.9848 -38.5468 93.6787)" class="st2" width="481.43" height="1.16"/>
		
			<rect x="251.47" y="131.77" transform="matrix(0.9848 -0.1736 0.1736 0.9848 -15.505 87.4785)" class="st2" width="481.43" height="1.16"/>
		<path class="st1" d="M499.22,109.61l-1.44-8.19l0.91-0.16l0.14,0.77c0.14-0.31,0.35-0.59,0.61-0.81c0.28-0.21,0.6-0.35,0.95-0.4
			c0.47-0.09,0.97-0.04,1.41,0.15c0.44,0.2,0.82,0.53,1.07,0.95c0.29,0.46,0.48,0.97,0.57,1.51c0.11,0.56,0.1,1.14-0.04,1.69
			c-0.11,0.49-0.38,0.94-0.75,1.28c-0.35,0.32-0.78,0.53-1.24,0.62c-0.31,0.06-0.63,0.04-0.94-0.05c-0.28-0.09-0.53-0.23-0.75-0.42
			l0.51,2.88L499.22,109.61z M499.21,104.25c0.06,0.61,0.33,1.18,0.76,1.61c0.33,0.3,0.78,0.43,1.22,0.35
			c0.45-0.08,0.84-0.36,1.05-0.77c0.27-0.57,0.33-1.22,0.17-1.84c-0.06-0.61-0.33-1.18-0.76-1.61c-0.32-0.31-0.77-0.44-1.21-0.37
			c-0.45,0.09-0.83,0.39-1.03,0.8C499.13,102.99,499.06,103.64,499.21,104.25L499.21,104.25z"/>
		<path class="st1" d="M504.5,106.34l1.62-3.46l-2.5-2.49l1.26-0.22l1.15,1.23c0.22,0.23,0.39,0.43,0.53,0.59
			c0.12-0.27,0.23-0.52,0.34-0.73l0.75-1.58l1.2-0.21l-1.56,3.15l2.76,2.75l-1.23,0.22l-1.54-1.63l-0.41-0.44l-1.14,2.61
			L504.5,106.34z"/>
		
			<rect x="465.87" y="106.13" transform="matrix(0.9848 -0.1736 0.1736 0.9848 -11.8701 83.1276)" class="st1" width="6.55" height="6.55"/>
		
			<rect x="476.18" y="104.31" transform="matrix(0.9848 -0.1736 0.1736 0.9848 -11.3975 84.891)" class="st1" width="6.55" height="6.55"/>
		
			<rect x="486.5" y="102.49" transform="matrix(0.9848 -0.1736 0.1736 0.9848 -10.925 86.6545)" class="st1" width="6.55" height="6.55"/>
	</g>
</g>
<g>
	<g>
		<g>
			<line class="st4" x1="98.9" y1="-0.74" x2="98.9" y2="6.76"/>
			<line class="st5" x1="98.9" y1="21.51" x2="98.9" y2="368.12"/>
			<line class="st4" x1="98.9" y1="375.49" x2="98.9" y2="382.99"/>
		</g>
	</g>
	<g>
		<g>
			<line class="st4" x1="349.62" y1="-0.49" x2="343.12" y2="3.26"/>
			<line class="st6" x1="329.65" y1="11.04" x2="13.02" y2="193.84"/>
			<line class="st4" x1="6.28" y1="197.73" x2="-0.22" y2="201.48"/>
		</g>
	</g>
	<g>
		<g>
			<line class="st4" x1="349.62" y1="23.73" x2="343.12" y2="27.48"/>
			<line class="st6" x1="329.65" y1="35.26" x2="13.02" y2="218.07"/>
			<line class="st4" x1="6.28" y1="221.96" x2="-0.22" y2="225.71"/>
		</g>
	</g>
	<path class="st7" d="M145.09,116.95c14.16,12.75,23.06,31.23,23.06,51.79c0,38.48-31.2,69.68-69.68,69.68"/>
</g>
</svg>
