<?xml version="1.0" encoding="utf-8"?>
<!-- Generator: Adobe Illustrator 24.1.0, SVG Export Plug-In . SVG Version: 6.00 Build 0)  -->
<svg version="1.1" xmlns="http://www.w3.org/2000/svg" xmlns:xlink="http://www.w3.org/1999/xlink" x="0px" y="0px"
	 viewBox="0 0 294.1 210.9" style="enable-background:new 0 0 294.1 210.9;" xml:space="preserve">
<style type="text/css">
	.st0{fill:#333333;}
	.st1{fill:#54A4DB;}
	.st2{font-family:'Bebas';}
	.st3{font-size:20.2295px;}
	.st4{display:none;}
	.st5{display:inline;}
	.st6{clip-path:url(#SVGID_2_);}
	.st7{clip-path:url(#SVGID_4_);fill:#565656;}
	.st8{display:inline;opacity:0.5;fill:#CCCCCC;}
	.st9{clip-path:url(#SVGID_6_);}
	.st10{clip-path:url(#SVGID_8_);fill:#565656;}
	.st11{fill:#555655;}
	.st12{fill:#999999;}
	.st13{fill:#989898;}
</style>
<g id="Your_design">
	<g id="Regal_Vector_Pack_14">
	</g>
	<g>
		<path class="st0" d="M216.3,58.8c-9.1,8.4-17.8,14.4-24.9,18.5c7.4-6.3,13.5-15.5,16.5-29.4c0,0-6,5.3-15.3,11.7
			c11.5-11.7,18.1-24.7,18.1-24.7C203,45.3,195.3,53,188.9,58.4c6.8-8.9,11.7-20.5,13-35.9c0,0-5.2,7.5-13.7,17
			c9.1-16.3,11.5-33.9,11.5-33.9c-4.2,13.5-9.6,24-14.1,31.3c4.7-10.5,7.6-22.8,6.8-36.9c0,0-8.6,18-22.1,37.9
			c0.8-6.5,0.4-11.2,0.4-11.2c-6.8,17.8-19.1,30.4-25.1,34.7c-6,4.3-7.5,9-7.5,9c0.3-3.8,4.9-11.2,5.2-11.6
			c-12.5,14.4-12,14.7-5.8,36.5c1.1,3.7,1.3,7.1,1.1,10.2c-0.9-0.7-2.2-1.8-3.6-3.2c-5.5-5.4-13.8-15.4-15.3-28.6l-2.5-21.8
			c-2.9-3.8-5.7-8.3-8.1-13.4c-0.7-1.5-1.4-3.1-2-4.7c0,0-0.1,1.7,0,4.5v0c0,0,0,0,0,0.1v0c0,1.5,0.2,3.2,0.4,5.1
			C95.7,26.2,88.2,10.6,88.2,10.6c-0.6,12.2,1.8,22.9,5.9,32c-4-6.4-8.6-15.4-12.2-27.1c0.1,0.9,2.3,15.6,9.9,29.3
			C84.6,36.5,80,30,80,30c1,13.4,5.4,23.4,11.2,31.1C85.7,56.5,79,49.9,72.4,40.8c0,0,5.7,11.2,15.7,21.4
			C80,56.7,74.8,52.1,74.8,52.1c2.6,12.1,7.9,20.1,14.3,25.5c-6.2-3.5-13.7-8.7-21.6-16C68,62.2,76,72.4,88,80.3
			c-8.9-2.6-14.9-5.4-15.3-5.5c4,9.9,9.8,15.7,16.4,19l0,0l1.3,0.6c0,0,22.3,0.4,34.8,9.6c1.7,1.9,3.5,3.6,5.1,4.9c0,0,0,0,0.1,0.1
			c1.2,1.2,2.3,1.9,3.2,2.3c0.1,0.1,0.2,0.1,0.3,0.2c-11.9,8-23.1,18.2-23.1,32.3c0,12.8,6.2,15.4,10.6,15.4c0.8,0,1.8-0.2,2.4-0.3
			c-2.4-5.7-3.7-10.4-3.7-14.5c0-12.7,8.1-18.5,19.8-27.6c0,0,9.3-7.6,11-8.8c11.1-7.9,21.7-10,33.3-11c0.4,0,0.8-0.1,1.3-0.1
			c1.4-0.1,2.9-0.2,4.3-0.2l1.5-0.7l0.1,0c7.6-3.8,14.3-10.4,18.9-21.9c0,0-7.1,3.3-17.6,6.4C206.5,71.3,215.7,59.6,216.3,58.8z
			 M114.9,153.1c-1,0-1.8-0.8-1.8-1.8s0.8-1.8,1.8-1.8c1,0,1.8,0.8,1.8,1.8S115.9,153.1,114.9,153.1z"/>
		<path class="st0" d="M41.8,112.5c0-9.9-5.6-13.7-17.3-13.7c-10.9,0-17.3,3.1-17.3,3.1v56.7c0,0-7.2,0-7.2-5.6V92.8
			c0,0,3.3,1.8,5.9,1.8c6.8,0,12.9-2.9,20.5-2.9c15.2,0,19.4,7.8,19.4,7.8c3.6-3.4,10.8-7.7,22.7-7.7c10.6,0,22.4,5.2,22.4,18.8
			v47.9c0,0-7.2-0.1-7.2-5.6v-40.9c0-9.3-5.5-13.2-17.5-13.2c-8.2,0-17.2,4.2-17.2,11.3v48.3c0,0-7.2,0-7.2-5.6V112.5z"/>
		<path class="st1" d="M189.1,65.6c13.7,0,29.7,3,29.7,15c0,2.5-0.8,5.7-2.3,9.4c0-13.6-14.1-17.1-28.3-17.1c-13.8,0-25,3.8-25,17.5
			c0,26.4,58.5,4.6,58.5,42.1c0,18.2-13.7,26.8-33.1,26.8c-13.7,0-31.3-4-31.3-15.2c0-2.6,0.7-5.9,2.1-9.5c0,13.2,15,17.5,30,17.5
			c16.4,0,24.5-7.4,24.5-19.2c0-29.3-58.5-8.2-58.5-41.8C155.3,71.4,171.3,65.6,189.1,65.6z"/>
		<path class="st1" d="M247.4,111.4v39.2h46.6c0,0.4,0,7-4.8,7h-40c0,0-9.4,0-9.4-5.7V67.3h54.2c0,0,0,7-4.8,7h-41.8v30.1h31.9
			c7.7,0,9.5-1.8,9.5-1.8c0,2.6-1.3,8.9-8.7,8.9H247.4z"/>
		<text transform="matrix(1 0 0 1 1.216914e-03 184.5666)"><tspan x="0" y="0" class="st0 st2 st3">my</tspan><tspan x="26.3" y="0" class="st1 st2 st3">SE</tspan><tspan x="46.8" y="0" class="st0 st2 st3"> - my </tspan><tspan x="88.6" y="0" class="st1 st2 st3">S</tspan><tspan x="99.5" y="0" class="st0 st2 st3">port &amp; </tspan><tspan x="157.9" y="0" class="st1 st2 st3">E</tspan><tspan x="167.5" y="0" class="st0 st2 st3">ntertainment</tspan></text>
		<g>
			<g>
				<path class="st1" d="M60.2,209c-1.1,0-2.1-0.3-3.2-0.5l0.4-0.8c0.9,0.4,1.8,0.6,2.9,0.6c1.5,0,3.3-0.5,3.3-2.8
					c0-1.8-1.5-2.4-3.2-3c-1.7-0.6-3.4-1.3-3.4-3.4c0-2.3,1.8-3.2,4.1-3.2c0.9,0,1.9,0.2,2.9,0.5l-0.4,0.8c-0.7-0.3-1.5-0.6-2.7-0.6
					c-1.7,0-3.1,0.6-3.1,2.5c0,1.5,1.3,2,2.8,2.5c1.8,0.6,3.7,1.3,3.7,3.9C64.4,208.2,62.5,209,60.2,209z"/>
				<path class="st1" d="M72.3,209c-3.3,0-4.6-1.6-4.6-5v-7.9h0.9v7.7c0,3.4,1,4.4,3.7,4.4c2.5,0,3.4-1.2,3.4-4.4v-7.7h0.9v8
					C76.6,207.5,75.3,209,72.3,209z"/>
				<path class="st1" d="M84,203.2h-2.6v5.5h-0.9v-12.6h3.2c2.6,0,4.1,1,4.1,3.5C87.8,202.1,86.5,203.2,84,203.2z M83.7,196.9h-2.3
					v5.6h2.4c2,0,3.1-0.6,3.1-2.9C86.9,197.5,85.8,196.9,83.7,196.9z"/>
				<path class="st1" d="M94.3,203.2h-2.6v5.5h-0.9v-12.6h3.2c2.6,0,4.1,1,4.1,3.5C98.2,202.1,96.9,203.2,94.3,203.2z M94.1,196.9
					h-2.3v5.6h2.4c2,0,3.1-0.6,3.1-2.9C97.3,197.5,96.1,196.9,94.1,196.9z"/>
				<path class="st1" d="M105.7,209c-4,0-5.2-2.8-5.2-6.6s1.3-6.5,5.2-6.5c3.9,0,5.1,2.8,5.1,6.5S109.5,209,105.7,209z M105.7,196.7
					c-3.3,0-4.2,2.5-4.2,5.8c0,3.3,0.9,5.8,4.2,5.8c3.3,0,4.2-2.6,4.2-5.8C109.9,199.1,109,196.7,105.7,196.7z"/>
				<path class="st1" d="M120.9,208.7l-4.3-5.8h-1.7v5.8H114v-12.6h3.5c2,0,3.9,0.8,3.9,3.2c0,1.9-0.9,3.5-3.8,3.5l4.4,5.8H120.9z
					 M117.6,196.9h-2.7v5.3h2.8c2.2,0,2.8-1.2,2.8-2.8C120.5,197.7,119.5,196.9,117.6,196.9z"/>
				<path class="st1" d="M128.2,196.9v11.8h-0.9v-11.8h-3.9v-0.7h8.6v0.7H128.2z"/>
			</g>
			<g>
				<path class="st1" d="M141.1,194.1h0.8v16.8h-0.8V194.1z"/>
				<path class="st1" d="M196.8,194.1h0.8v16.8h-0.8V194.1z"/>
				<g>
					<path class="st1" d="M154.5,203.3h-2.6v5.5H151v-12.6h3.2c2.6,0,4.1,1,4.1,3.5C158.3,202.2,157,203.3,154.5,203.3z
						 M154.2,196.9h-2.3v5.6h2.4c2,0,3.1-0.6,3.1-2.9C157.4,197.5,156.3,196.9,154.2,196.9z"/>
					<path class="st1" d="M161.4,208.8v-12.6h0.9V208h6v0.8H161.4z"/>
					<path class="st1" d="M178.6,208.8l-1.5-3.9h-5.5l-1.6,3.9h-0.9l5.1-12.6h0.6l4.7,12.6H178.6z M174.5,197.5l-2.6,6.6h5
						L174.5,197.5z"/>
					<path class="st1" d="M185,203.1v5.7h-0.9v-5.6l-4.5-7h1l4,6.1l3.8-6.1h0.9L185,203.1z"/>
				</g>
			</g>
			<g>
				<path class="st1" d="M218,208.8h-0.9l-3-10.6l-3.1,10.6h-1l-3.3-12.6h0.9l3,11.3l3.1-10.7h0.9l3,10.8l3-11.3h0.8L218,208.8z"/>
				<path class="st1" d="M223.9,208.8v-12.6h0.9v12.6H223.9z"/>
				<path class="st1" d="M235.9,208.8l-6.7-11.5v11.5h-0.8v-12.6h1.2l6.6,11.5v-11.5h0.9v12.6H235.9z"/>
			</g>
		</g>
	</g>
</g>
<g id="_x39_9d_logo" class="st4">
	<g class="st5">
		<defs>
			<path id="SVGID_1_" d="M-116.6,41.1C-101,13.8-66.3,4.4-39.2,20.2c27.1,15.7,36.4,50.6,20.7,77.9c-15.7,27.3-50.3,36.6-77.4,20.9
				C-123,103.2-132.3,68.3-116.6,41.1z M99.8,41.1c15.7-27.3,50.3-36.6,77.4-20.9c27.1,15.7,36.4,50.6,20.7,77.9
				c-15.7,27.3-50.3,36.6-77.4,20.9C93.4,103.2,84.1,68.3,99.8,41.1z M402.8,213.2c-11.2,11.3-25.5,16.9-42.9,16.9
				c-8.4,0-16.2-1.5-23.6-4.5c-7.3-3-13.5-7.1-18.7-12.4c-5.1-5.3-9.2-11.6-12.1-19c-3-7.4-4.4-15.4-4.4-24.2
				c0-8.5,1.5-16.4,4.4-23.7c3-7.4,7.1-13.6,12.4-18.8c5.3-5.2,11.6-9.2,18.9-12.2c7.3-3,15.3-4.5,24-4.5c8.4,0,16.2,1.5,23.3,4.5
				c7.1,3,13.4,7.1,18.6,12.4c5.3,5.3,9.4,11.5,12.4,18.5c3,7,4.4,14.8,4.4,23.2C419.6,187.4,414,202,402.8,213.2z M40.7,130.7
				c10.5,18.9,26.1,35.3,46.2,47c16.8,9.8,35,15,53.1,16.3L86,288h80.8l64.4-112.2c0.5,16.2,3.4,31.2,8.5,44.9
				c5.8,15.3,13.8,28.5,24.3,39.6c10.4,11.1,22.8,19.8,37.1,26.1c14.3,6.3,30,9.4,47.1,9.4c16.2,0,29.8-2.6,40.8-7.7
				c11-5.2,21.2-13.5,30.6-25.1v24.9h66.3v-336h-70V72.9c-9.6-9.4-19.9-16.4-30.8-20.9c-10.9-4.5-23.7-6.8-38.3-6.8
				c-16.5,0-31.8,3.1-45.9,9.4C290.5,59.2,281.2,65,273,72.1c0.9-44-21.5-87.1-62-110.7C151.6-73,75.7-52.6,41.4,7.2
				c-0.2,0.4-0.5,0.9-0.7,1.3c-10.5-18.9-26.1-35.3-46.2-47C-64.9-73-140.8-52.6-175,7.2c-34.3,59.7-13.9,136.1,45.4,170.5
				c16.8,9.8,35,15,53.1,16.3l-54,94.1h80.8l89.6-156C40.2,131.6,40.4,131.1,40.7,130.7L40.7,130.7z"/>
		</defs>
		<clipPath id="SVGID_2_">
			<use xlink:href="#SVGID_1_"  style="overflow:visible;"/>
		</clipPath>
		<g class="st6">
			<defs>
				<rect id="SVGID_3_" x="-738.4" y="-765.8" width="1770.8" height="1770.8"/>
			</defs>
			<clipPath id="SVGID_4_">
				<use xlink:href="#SVGID_3_"  style="overflow:visible;"/>
			</clipPath>
			<rect x="-202.8" y="-66.3" class="st7" width="699.6" height="373.2"/>
		</g>
	</g>
</g>
<g id="Guides">
</g>
<g id="TEMPLATE__x28_delete_x29_" class="st4">
	<path class="st8" d="M-353-380V620H647V-380H-353z M447,420h-600v-600h600V420z"/>
	<g class="st5">
		<defs>
			<path id="SVGID_5_" d="M-105.5-85.1c2-3.5,6.4-4.6,9.8-2.6c3.4,2,4.6,6.4,2.6,9.9c-2,3.5-6.4,4.6-9.8,2.6
				C-106.3-77.2-107.4-81.7-105.5-85.1z M-76.9-85.1c2-3.5,6.4-4.6,9.8-2.6c3.4,2,4.6,6.4,2.6,9.9c-2,3.5-6.4,4.6-9.8,2.6
				C-77.7-77.2-78.8-81.7-76.9-85.1z M-33.6-63.3c-1.4,1.4-3.2,2.1-5.4,2.1c-1.1,0-2.1-0.2-3-0.6c-0.9-0.4-1.7-0.9-2.4-1.6
				c-0.7-0.7-1.2-1.5-1.5-2.4c-0.4-0.9-0.6-2-0.6-3.1c0-1.1,0.2-2.1,0.6-3c0.4-0.9,0.9-1.7,1.6-2.4c0.7-0.7,1.5-1.2,2.4-1.5
				c0.9-0.4,1.9-0.6,3-0.6c1.1,0,2.1,0.2,3,0.6c0.9,0.4,1.7,0.9,2.4,1.6c0.7,0.7,1.2,1.5,1.6,2.3c0.4,0.9,0.6,1.9,0.6,2.9
				C-31.4-66.6-32.2-64.7-33.6-63.3z M-31.9-96.4v15.3c-1.2-1.2-2.5-2.1-3.9-2.7c-1.4-0.6-3-0.9-4.9-0.9c-2.1,0-4,0.4-5.8,1.2
				c-1.8,0.8-3.3,1.9-4.6,3.3c-1.3,1.4-2.3,3.1-3.1,5c-0.7,1.9-1.1,4-1.1,6.3c0,2.3,0.4,4.5,1.1,6.4c0.7,1.9,1.8,3.6,3.1,5
				c1.3,1.4,2.9,2.5,4.7,3.3c1.8,0.8,3.8,1.2,6,1.2c2.1,0,3.8-0.3,5.2-1c1.4-0.7,2.7-1.7,3.9-3.2v3.2h8.4v-42.6H-31.9z M-84.9-88.1
				c0.2-0.4,0.4-0.9,0.7-1.3c4.3-7.6,14-10.2,21.5-5.8c7.5,4.4,10.1,14.1,5.8,21.6l-11.4,19.8h-10.2l6.8-11.9
				c-2.3-0.2-4.6-0.8-6.7-2.1c-2.9-1.7-5.1-4.2-6.4-7.1c-0.2,0.4-0.4,0.9-0.7,1.3L-97-53.8h-10.2l6.8-11.9c-2.3-0.2-4.6-0.8-6.7-2.1
				c-7.5-4.4-10.1-14.1-5.8-21.6c4.3-7.6,14-10.2,21.5-5.8C-88.4-93.5-86.2-91-84.9-88.1z M-12.3-71.8c0.4-1.7,1.1-2.9,2.3-3.8
				c1.2-0.9,2.6-1.3,4.3-1.3c1.7,0,3.2,0.5,4.4,1.4c1.2,0.9,2,2.2,2.3,3.7H-12.3z M8.7-74.7c-0.8-2-1.9-3.7-3.3-5.1
				c-1.4-1.4-3-2.6-5-3.4c-1.9-0.8-4-1.2-6.2-1.2c-2.1,0-4.1,0.4-6,1.2c-1.9,0.8-3.5,2-4.9,3.4c-1.4,1.4-2.5,3.1-3.3,5
				c-0.8,1.9-1.2,4-1.2,6.2c0,2.2,0.4,4.3,1.2,6.2c0.8,1.9,1.9,3.6,3.3,5c1.4,1.4,3,2.5,4.9,3.4c1.9,0.8,3.9,1.2,6.1,1.2
				c3.1,0,6-0.9,8.5-2.7c2.4-1.7,4.3-4.1,5.7-7.1h-9.2c-0.9,0.9-1.8,1.5-2.6,1.8C-4-60.5-4.9-60.4-6-60.4c-1.8,0-3.2-0.5-4.4-1.5
				c-1.2-1-1.9-2.3-2.1-4H9.6C10.1-68.9,9.8-71.9,8.7-74.7z M34.2-75.1c-0.4-5.8-5-9.3-11.3-9.3c-6,0-11.5,3.8-11.5,9.6
				c0,3.5,2,6.4,9.4,8.7c4.4,1.4,5.4,2.2,5.4,3.9c0,1.4-1.5,2.3-3.1,2.3c-1.8,0-3.1-0.9-3.4-2.7h-8.8c0.6,6,5.4,9.8,12,9.8
				c6.7,0,12-3.9,12-10.1c0-4.3-2.3-7.1-9.3-9c-4.1-1.1-5.5-1.9-5.5-3.5c0-1.1,1.1-2,2.6-2c1.4,0,2.7,0.5,2.7,2.2H34.2z M41.9-86.6
				c2.9,0,5.3-2.4,5.3-5.3s-2.4-5.3-5.3-5.3c-2.9,0-5.3,2.4-5.3,5.3S39-86.6,41.9-86.6z M46.3-53.8h-8.8v-29.7h8.8V-53.8z
				 M63.2-77.8c2.7,0,4.9,2.2,4.9,4.9S65.9-68,63.2-68c-2.7,0-4.9-2.2-4.9-4.9C58.4-75.6,60.6-77.8,63.2-77.8z M69.4-47.7
				c-1,1.4-2.9,1.9-4.5,1.9c-1.9,0.1-4.5-0.3-5.7-1.9c-1.2-1.5-1-3.6,0.7-4.6c0.5-0.3,1-0.5,1.5-0.6h4.4c1.9,0,4.4,0.5,4.3,2.9
				C70.1-49.1,69.9-48.3,69.4-47.7z M60.8-59.7c-3.6-0.6-3.5-2-2.6-2.7c8.2,3.1,18.1-0.8,18.2-10.3c0-3.5-1.3-5.7-2.2-6.7
				c0.7-1.4,1.6-2.2,3.4-2.6l-3.7-6.5c-3.4,0.3-5.6,2.4-6.6,4.5c-2-0.8-6.1-0.9-9.3,0.3c-1.6,0.6-3,1.4-4.2,2.5
				c-1.2,1-2.1,2.3-2.8,3.8c-0.7,1.5-1,3.1-1,4.8c0,2.3,0.7,4.9,2,6.8c-3.6,3.5-3.4,8.7,0.3,12c-0.4,0.3-0.8,0.6-1.1,1
				c-3.3,3.6-1.8,8.7,2.1,11.3c4.8,3.5,13.4,3.7,18.7,1.3c9.3-3.8,9.6-17.6-1.2-19.4C67.8-60.1,64.4-59.1,60.8-59.7z M79.8-53.8h8.9
				v-16.6c0-3.9,1.7-5.8,5-5.8c1.6,0,2.8,0.5,3.5,1.5c0.7,1,1.1,2.6,1.1,4.7v16.2h8.9v-18.6c0-1.2-0.1-2.2-0.1-3.1
				c-0.1-0.9-0.3-1.7-0.5-2.4c-0.2-0.7-0.5-1.3-0.9-1.9c-0.4-0.6-0.9-1.1-1.4-1.7c-0.9-0.9-2.1-1.7-3.5-2.2
				c-1.4-0.5-2.9-0.8-4.4-0.8c-1.9,0-3.5,0.3-4.7,1c-1.2,0.7-2.4,1.7-3.4,3.2v-3.1h-8.4V-53.8z M132.2-75.1c-0.4-5.8-5-9.3-11.3-9.3
				c-6,0-11.5,3.8-11.5,9.6c0,3.5,2,6.4,9.4,8.7c4.4,1.4,5.4,2.2,5.4,3.9c0,1.4-1.5,2.3-3.1,2.3c-1.8,0-3.1-0.9-3.4-2.7H109
				c0.6,6,5.4,9.8,12,9.8c6.7,0,12-3.9,12-10.1c0-4.3-2.3-7.1-9.3-9c-4.1-1.1-5.5-1.9-5.5-3.5c0-1.1,1.1-2,2.6-2
				c1.4,0,2.7,0.5,2.7,2.2H132.2z"/>
		</defs>
		<clipPath id="SVGID_6_">
			<use xlink:href="#SVGID_5_"  style="overflow:visible;"/>
		</clipPath>
		<g class="st9">
			<defs>
				<rect id="SVGID_7_" x="-156.3" y="-237.5" width="330.7" height="330.7"/>
			</defs>
			<clipPath id="SVGID_8_">
				<use xlink:href="#SVGID_7_"  style="overflow:visible;"/>
			</clipPath>
			<rect x="-117" y="-99.4" class="st10" width="252.2" height="62.8"/>
		</g>
	</g>
	<g class="st5">
		<path class="st11" d="M-110,5.8h7v3.1h-10.3V-7.9h3.3V5.8z"/>
		<path class="st11" d="M-88.6,2.8c0,3.8-2.7,6.4-6.4,6.4c-3.6,0-6.4-2.6-6.4-6.4c0-3.8,2.7-6.3,6.4-6.3C-91.4-3.6-88.6-1-88.6,2.8z
			 M-98.2,2.8c0,2,1.3,3.5,3.2,3.5c1.9,0,3.1-1.5,3.1-3.5c0-2-1.2-3.5-3.1-3.5C-96.9-0.7-98.2,0.7-98.2,2.8z"/>
		<path class="st11" d="M-75.1-0.7h-1.8c0.1,0.4,0.2,0.9,0.2,1.4c0,2.4-2,4.2-4.8,4.2c-0.7,0-1.4-0.1-2-0.3
			c-0.2,0.2-0.3,0.5-0.3,0.9c0,0.6,0.5,1,1.2,1h2.9c2.5,0,4,1.2,4,3.5c0,2.7-2.1,4.2-5.4,4.2c-3.6,0-5.5-1.3-5.5-3.7
			c0-1.1,0.6-1.8,1.2-2.1c-0.7-0.5-1.4-1.4-1.4-2.6c0-1.2,0.5-2,1.2-2.6c-0.5-0.7-0.8-1.5-0.8-2.5c0-2.5,2.1-4.3,4.9-4.3
			c0.6,0,1.2,0.1,1.8,0.3h4.6V-0.7z M-82.3,8.9c-0.7,0.1-1.2,0.6-1.2,1.4c0,1.1,1,1.7,2.5,1.7c1.4,0,2.3-0.6,2.3-1.7
			c0-0.9-0.7-1.3-1.7-1.3H-82.3z M-83.3,0.7c0,1.1,0.7,1.9,1.8,1.9s1.8-0.8,1.8-1.9c0-1.2-0.7-2-1.8-2C-82.6-1.2-83.3-0.4-83.3,0.7z
			"/>
		<path class="st11" d="M-61.2,2.8c0,3.8-2.7,6.4-6.4,6.4c-3.6,0-6.4-2.6-6.4-6.4c0-3.8,2.7-6.3,6.4-6.3C-63.9-3.6-61.2-1-61.2,2.8z
			 M-70.8,2.8c0,2,1.3,3.5,3.2,3.5c1.9,0,3.1-1.5,3.1-3.5c0-2-1.2-3.5-3.1-3.5C-69.5-0.7-70.8,0.7-70.8,2.8z"/>
		<path class="st11" d="M-49.7-3.3h2.8v2.8h-2.8l0,4.9c0,1.2,0.4,1.8,1.6,1.8c0.6,0,0.9-0.1,1.3-0.2v2.7c-0.4,0.1-1,0.3-2,0.3
			c-2.7,0-4-1.1-4-3.8l0-5.7h-2v-2.8h2l0-3h3.1L-49.7-3.3z"/>
		<path class="st11" d="M-33.4,2.8v1h-8.5c0.1,1.6,1.2,2.7,2.9,2.7c1.2,0,2.1-0.5,2.4-1.4h3c-0.7,2.6-2.6,4.1-5.6,4.1
			c-3.6,0-6-2.5-6-6.3c0-3.7,2.4-6.4,6-6.4C-35.8-3.6-33.4-1.6-33.4,2.8z M-41.8,1.6h5.3c0-1.5-1-2.5-2.6-2.5
			C-40.7-1-41.7,0.1-41.8,1.6z"/>
		<path class="st11" d="M-13.5,1v7.9h-3.1V1.6c0-1.4-0.6-2.2-1.7-2.2c-1.2,0-2.1,0.9-2.1,2.8v6.6h-3.1V1.6c0-1.4-0.6-2.2-1.7-2.2
			c-1.2,0-2.1,1-2.1,3v6.4h-3.1V-3.3h2.7l0.2,1.6c0.6-1,1.7-1.8,3.2-1.8c1.7,0,2.9,0.8,3.5,2.1c0.6-1.2,1.8-2.1,3.5-2.1
			C-14.8-3.6-13.5-1.8-13.5,1z"/>
		<path class="st11" d="M2.3,2.8c0,3.6-2.4,6.4-5.7,6.4c-1.8,0-3-0.7-3.6-1.6V14h-3.1V-3.3h2.7l0.2,1.6c0.7-1,1.8-1.9,3.9-1.9
			C-0.1-3.6,2.3-0.8,2.3,2.8z M-7.1,2.7v0.1C-7,5-5.5,6.2-4,6.2c1.7,0,3.1-1.3,3.1-3.4c0-2.1-1.3-3.4-3.1-3.4
			C-5.5-0.6-7.1,0.5-7.1,2.7z"/>
		<path class="st11" d="M8.2,8.9H5V-8.7h3.1V8.9z"/>
		<path class="st11" d="M21.1,0.9v8h-2.7l-0.2-1.5c-0.6,1-1.8,1.8-3.5,1.8c-2.2,0-3.7-1.3-3.7-3.5c0-2.4,1.6-3.3,3.8-3.6l3.1-0.6
			V0.9c0-1.2-0.6-1.8-1.7-1.8c-1,0-1.8,0.6-1.8,1.6h-3c0.1-2.5,2-4.3,4.8-4.3S21.1-2.1,21.1,0.9z M15.5,4c-0.8,0.2-1.4,0.6-1.4,1.4
			c0,0.7,0.5,1.2,1.4,1.2c0.8,0,1.5-0.4,1.9-1.1c0.3-0.4,0.4-1,0.4-1.6V3.5L15.5,4z"/>
		<path class="st11" d="M28.2-3.3H31v2.8h-2.8l0,4.9c0,1.2,0.4,1.8,1.6,1.8c0.6,0,0.9-0.1,1.3-0.2v2.7C30.6,8.9,30,9,29,9
			c-2.7,0-4-1.1-4-3.8l0-5.7h-2v-2.8h2l0-3h3.1L28.2-3.3z"/>
		<path class="st11" d="M44.5,2.8v1H36c0.1,1.6,1.2,2.7,2.9,2.7c1.2,0,2.1-0.5,2.4-1.4h3c-0.7,2.6-2.6,4.1-5.6,4.1
			c-3.6,0-6-2.5-6-6.3c0-3.7,2.4-6.4,6-6.4C42.1-3.6,44.5-1.6,44.5,2.8z M36.1,1.6h5.3c0-1.5-1-2.5-2.6-2.5
			C37.2-1,36.2,0.1,36.1,1.6z"/>
		<path class="st12" d="M57.6-7.5c-2,2.7-3,5-3,8.6c0,3.6,1,6,3,8.6l-2.2,1.5c-2.2-2.7-3.7-5.7-3.7-10.1S53.2-6.2,55.4-9L57.6-7.5z"
			/>
		<path class="st12" d="M65.6,8.9h-3.3V-2.8h-3.5v-2.8c2.6,0,4-0.6,4.4-2.4h2.4V8.9z"/>
		<path class="st12" d="M80.3,0.4c0,5.4-2.1,8.7-6,8.7s-6-3.4-6-8.7c0-5.4,2.1-8.7,6-8.7S80.3-4.9,80.3,0.4z M71.7,0.4
			c0,3.6,0.9,5.7,2.6,5.7C76.1,6.1,77,4,77,0.4c0-3.5-0.9-5.6-2.6-5.6C72.6-5.2,71.7-3.1,71.7,0.4z"/>
		<path class="st12" d="M94.3,0.4c0,5.4-2.1,8.7-6,8.7s-6-3.4-6-8.7c0-5.4,2.1-8.7,6-8.7S94.3-4.9,94.3,0.4z M85.7,0.4
			c0,3.6,0.9,5.7,2.6,5.7c1.8,0,2.6-2.1,2.6-5.7c0-3.5-0.9-5.6-2.6-5.6C86.6-5.2,85.7-3.1,85.7,0.4z"/>
		<path class="st12" d="M108.3,0.4c0,5.4-2.1,8.7-6,8.7s-6-3.4-6-8.7c0-5.4,2.1-8.7,6-8.7S108.3-4.9,108.3,0.4z M99.7,0.4
			c0,3.6,0.9,5.7,2.6,5.7c1.8,0,2.6-2.1,2.6-5.7c0-3.5-0.9-5.6-2.6-5.6C100.5-5.2,99.7-3.1,99.7,0.4z"/>
		<path class="st12" d="M125,0.3l5.7,8.5h-3.9l-4-6.1l-4,6.1h-3.9l5.6-8.5L115-7.9h3.9l3.9,5.8l3.9-5.8h3.9L125,0.3z"/>
		<path class="st12" d="M144,8.9h-3.3V-2.8h-3.5v-2.8c2.6,0,4-0.6,4.4-2.4h2.4V8.9z"/>
		<path class="st12" d="M158.7,0.4c0,5.4-2.1,8.7-6,8.7c-3.8,0-6-3.4-6-8.7c0-5.4,2.1-8.7,6-8.7C156.6-8.3,158.7-4.9,158.7,0.4z
			 M150.1,0.4c0,3.6,0.9,5.7,2.6,5.7c1.8,0,2.6-2.1,2.6-5.7c0-3.5-0.9-5.6-2.6-5.6C151-5.2,150.1-3.1,150.1,0.4z"/>
		<path class="st12" d="M172.7,0.4c0,5.4-2.1,8.7-6,8.7c-3.8,0-6-3.4-6-8.7c0-5.4,2.1-8.7,6-8.7C170.6-8.3,172.7-4.9,172.7,0.4z
			 M164.1,0.4c0,3.6,0.9,5.7,2.6,5.7c1.8,0,2.6-2.1,2.6-5.7c0-3.5-0.9-5.6-2.6-5.6C165-5.2,164.1-3.1,164.1,0.4z"/>
		<path class="st12" d="M186.7,0.4c0,5.4-2.1,8.7-6,8.7c-3.8,0-6-3.4-6-8.7c0-5.4,2.1-8.7,6-8.7C184.5-8.3,186.7-4.9,186.7,0.4z
			 M178.1,0.4c0,3.6,0.9,5.7,2.6,5.7c1.8,0,2.6-2.1,2.6-5.7c0-3.5-0.9-5.6-2.6-5.6C178.9-5.2,178.1-3.1,178.1,0.4z"/>
		<path class="st12" d="M201.9,2.8c0,3.6-2.4,6.4-5.7,6.4c-1.8,0-3-0.7-3.6-1.6V14h-3.1V-3.3h2.7l0.2,1.6c0.7-1,1.8-1.9,3.9-1.9
			C199.5-3.6,201.9-0.8,201.9,2.8z M192.6,2.7v0.1c0,2.1,1.6,3.3,3.1,3.3c1.7,0,3.1-1.3,3.1-3.4c0-2.1-1.3-3.4-3.1-3.4
			C194.1-0.6,192.6,0.5,192.6,2.7z"/>
		<path class="st12" d="M211,2.7l3.8,6.2h-3.6L208.9,5l-2.4,3.8h-3.6l3.8-6.2l-3.7-6h3.6l2.2,3.6l2.2-3.6h3.6L211,2.7z"/>
		<path class="st12" d="M221.7,1.2c0,4.4-1.6,7.4-3.8,10.1l-2.2-1.5c2-2.7,3-5,3-8.6c0-3.6-1-6-3-8.6l2.2-1.5
			C220.1-6.2,221.7-3.3,221.7,1.2z"/>
	</g>
	<g class="st5">
		<path class="st13" d="M-111.4,63.2h4.5v1.3h-4.5V63.2z"/>
		<path class="st13" d="M-98.1,64.4v4.7h-1.5V56.8h3.7c2.4,0,4.2,1.1,4.2,3.8c0,2.6-1.8,3.8-4.3,3.8H-98.1z M-96.1,63.2
			c1.8,0,2.8-0.9,2.8-2.6c0-1.8-1-2.6-2.8-2.6h-2.1v5.2H-96.1z"/>
		<path class="st13" d="M-89.6,56.4h1.4v12.6h-1.4V56.4z"/>
		<path class="st13" d="M-85.4,62.9c0-1.5,1.2-2.5,3.2-2.5c2.1,0,3.1,0.9,3.1,3.1V67c0,0.7,0.1,0.9,0.8,1v1.2h-0.2
			c-1.3,0-1.8-0.5-1.9-1.5h0c-0.4,1-1.5,1.6-2.7,1.6c-1.7,0-2.7-0.9-2.7-2.4c0-0.9,0.4-1.7,1.3-2.1c0.9-0.5,2.2-0.6,4.1-0.7v-0.4
			c0-1.5-0.6-2.1-1.8-2.1c-1.2,0-1.7,0.7-1.8,1.4H-85.4z M-80.5,65.2V65c-1.8,0.1-2.9,0.2-3.4,0.6c-0.3,0.2-0.5,0.6-0.5,1
			c0,0.9,0.6,1.3,1.5,1.3C-81.9,68-80.5,67.3-80.5,65.2z"/>
		<path class="st13" d="M-71.1,63.2c-0.1-0.9-0.7-1.6-1.9-1.6c-1.5,0-2.3,1.3-2.3,3.3c0,2,0.6,3.3,2.3,3.3c1.6,0,2-1.2,2.1-1.8h1.3
			c-0.2,2-1.6,2.9-3.4,2.9c-2.4,0-3.7-1.7-3.7-4.4c0-2.6,1.4-4.5,3.8-4.5c1.7,0,3.2,0.8,3.3,2.8H-71.1z"/>
		<path class="st13" d="M-64.2,69.3c-2.6,0-3.8-1.9-3.8-4.4c0-2.5,1.3-4.5,3.8-4.5c2.5,0,3.5,2,3.5,4.1v0.7h-5.8
			c0.1,1.7,0.8,2.9,2.4,2.9c1.4,0,1.8-0.8,1.9-1.3h1.4C-61.1,68.3-62.4,69.3-64.2,69.3z M-62.2,64c0-1.4-0.6-2.5-2.1-2.5
			c-1.3,0-2.1,1.1-2.3,2.6L-62.2,64L-62.2,64z"/>
		<path class="st13" d="M-54.6,60.6h1.4l1.8,5.3c0.3,0.8,0.4,1.3,0.4,1.3h0c0,0,0.1-0.5,0.4-1.3l1.7-5.3h1.4l-3.1,9
			c-0.7,1.9-1.2,2.7-3.1,2.7c-0.3,0-0.6,0-0.9-0.1V71c0.3,0.1,0.6,0.1,0.7,0.1c1.1,0,1.4-0.4,1.8-1.5l0.2-0.4L-54.6,60.6z"/>
		<path class="st13" d="M-46.1,64.8c0-2.6,1.4-4.4,3.8-4.4c2.5,0,3.8,1.8,3.8,4.4c0,2.6-1.4,4.4-3.8,4.4
			C-44.8,69.3-46.1,67.5-46.1,64.8z M-44.6,64.8c0,2.1,0.7,3.3,2.3,3.3c1.6,0,2.3-1.2,2.3-3.3c0-2-0.7-3.3-2.3-3.3
			C-43.9,61.5-44.6,62.8-44.6,64.8z"/>
		<path class="st13" d="M-34.7,65.8c0,0.6,0,1.3,0.3,1.7c0.3,0.4,0.7,0.6,1.3,0.6c1.6,0,2.3-1,2.3-2.9v-4.6h1.4v8.4h-1.4v-1.4h0
			c-0.4,0.9-1.3,1.6-2.7,1.6c-1.6,0-2.7-0.8-2.7-2.8v-5.9h1.4V65.8z"/>
		<path class="st13" d="M-26.2,60.6h1.4v1.6h0c0.4-0.9,1.4-1.7,2.7-1.7h0.1V62h-0.3c-1.5,0-2.5,0.9-2.5,2.5v4.6h-1.4V60.6z"/>
		<path class="st13" d="M-15.3,56.4h1.4v12.6h-1.4V56.4z"/>
		<path class="st13" d="M-11.5,64.8c0-2.6,1.4-4.4,3.8-4.4c2.5,0,3.8,1.8,3.8,4.4c0,2.6-1.4,4.4-3.8,4.4
			C-10.2,69.3-11.5,67.5-11.5,64.8z M-10,64.8c0,2.1,0.7,3.3,2.3,3.3c1.6,0,2.3-1.2,2.3-3.3c0-2-0.7-3.3-2.3-3.3
			C-9.2,61.5-10,62.8-10,64.8z"/>
		<path class="st13" d="M-1.9,69.9h1.4c0.2,0.7,0.7,1.2,2.1,1.2c1.6,0,2.4-0.6,2.4-2.4v-1.2h0c-0.4,0.8-1.4,1.6-2.7,1.6
			c-1.8,0-3.4-1.1-3.4-4.2c0-2.8,1.5-4.3,3.6-4.3c1.4,0,2.2,0.8,2.5,1.5h0v-1.3h1.4v8.2c0,2.4-1.6,3.4-3.8,3.4
			C0,72.2-1.7,71.6-1.9,69.9z M4,64.4c0-1.7-0.9-2.8-2.4-2.8c-1.5,0-2.2,1.3-2.2,3.2c0,1.9,0.5,3.1,2.3,3.1c1.4,0,2.3-1.2,2.3-2.6
			V64.4z"/>
		<path class="st13" d="M7.8,64.8c0-2.6,1.4-4.4,3.8-4.4c2.5,0,3.8,1.8,3.8,4.4c0,2.6-1.4,4.4-3.8,4.4C9.1,69.3,7.8,67.5,7.8,64.8z
			 M9.3,64.8c0,2.1,0.7,3.3,2.3,3.3c1.6,0,2.3-1.2,2.3-3.3c0-2-0.7-3.3-2.3-3.3C10.1,61.5,9.3,62.8,9.3,64.8z"/>
		<path class="st13" d="M21.3,60.6h1.5l1.6,5.7c0.1,0.5,0.3,1.1,0.3,1.1h0c0,0,0.2-0.6,0.3-1.1l1.8-5.7h1.5l1.8,5.7
			c0.2,0.5,0.3,1.1,0.3,1.1h0c0,0,0.1-0.6,0.3-1.1l1.7-5.7h1.4l-2.6,8.4h-1.5l-1.5-5c-0.2-0.8-0.5-1.8-0.5-1.8h0c0,0-0.3,1-0.5,1.8
			l-1.6,5h-1.5L21.3,60.6z"/>
		<path class="st13" d="M35.8,57.1h1.5v1.6h-1.5V57.1z M35.8,60.6h1.5v8.4h-1.5V60.6z"/>
		<path class="st13" d="M42.2,58.2v2.4h2.1v1.1h-2.1v5c0,0.9,0.4,1.2,1.3,1.2c0.4,0,0.9-0.1,0.9-0.1v1.2c0,0-0.6,0.1-1.3,0.1
			c-1.6,0-2.3-0.8-2.3-2.2v-5.2h-1.5v-1.1h0.3c1.1,0,1.4-0.3,1.4-1.9v-0.6H42.2z"/>
		<path class="st13" d="M51.7,63.8c0-0.6,0-1.3-0.3-1.7c-0.3-0.4-0.8-0.6-1.3-0.6c-1.6,0-2.3,1-2.3,2.4v5.1h-1.4V56.4h1.4V62h0
			c0.4-0.8,1.3-1.6,2.6-1.6c1.6,0,2.7,0.8,2.7,2.8v5.9h-1.4V63.8z"/>
		<path class="st13" d="M56.2,57.1h1.5v1.6h-1.5V57.1z M56.3,60.6h1.5v8.4h-1.5V60.6z"/>
		<path class="st13" d="M66.3,63.9c0-0.6,0-1.3-0.3-1.7c-0.3-0.4-0.8-0.6-1.3-0.6c-1.6,0-2.3,1-2.3,2.4v5.1h-1.4v-8.4h1.4V62h0
			c0.4-0.9,1.4-1.6,2.7-1.6c1.6,0,2.7,0.8,2.7,2.8v5.9h-1.4V63.9z"/>
		<path class="st13" d="M77.1,58.2v2.4h2.1v1.1h-2.1v5c0,0.9,0.4,1.2,1.3,1.2c0.4,0,0.9-0.1,0.9-0.1v1.2c0,0-0.6,0.1-1.3,0.1
			c-1.6,0-2.3-0.8-2.3-2.2v-5.2h-1.5v-1.1h0.3c1.1,0,1.4-0.3,1.4-1.9v-0.6H77.1z"/>
		<path class="st13" d="M86.6,63.8c0-0.6,0-1.3-0.3-1.7c-0.3-0.4-0.8-0.6-1.3-0.6c-1.6,0-2.3,1-2.3,2.4v5.1h-1.4V56.4h1.4V62h0
			c0.4-0.8,1.3-1.6,2.6-1.6c1.6,0,2.7,0.8,2.7,2.8v5.9h-1.4V63.8z"/>
		<path class="st13" d="M94.2,69.3c-2.6,0-3.8-1.9-3.8-4.4c0-2.5,1.3-4.5,3.8-4.5c2.5,0,3.5,2,3.5,4.1v0.7h-5.8
			c0.1,1.7,0.8,2.9,2.4,2.9c1.4,0,1.8-0.8,1.9-1.3h1.4C97.3,68.3,96,69.3,94.2,69.3z M96.2,64c0-1.4-0.6-2.5-2.1-2.5
			c-1.3,0-2.1,1.1-2.3,2.6L96.2,64L96.2,64z"/>
		<path class="st13" d="M109.6,63.2c-0.1-0.9-0.7-1.6-1.9-1.6c-1.5,0-2.3,1.3-2.3,3.3c0,2,0.6,3.3,2.3,3.3c1.6,0,2-1.2,2.1-1.8h1.3
			c-0.2,2-1.6,2.9-3.4,2.9c-2.4,0-3.7-1.7-3.7-4.4c0-2.6,1.4-4.5,3.8-4.5c1.7,0,3.2,0.8,3.3,2.8H109.6z"/>
		<path class="st13" d="M113.4,60.6h1.4v1.6h0c0.4-0.9,1.4-1.7,2.7-1.7h0.1V62h-0.3c-1.5,0-2.5,0.9-2.5,2.5v4.6h-1.4V60.6z"/>
		<path class="st13" d="M118.9,64.8c0-2.6,1.4-4.4,3.8-4.4c2.5,0,3.8,1.8,3.8,4.4c0,2.6-1.4,4.4-3.8,4.4
			C120.1,69.3,118.9,67.5,118.9,64.8z M120.3,64.8c0,2.1,0.7,3.3,2.3,3.3c1.6,0,2.3-1.2,2.3-3.3c0-2-0.7-3.3-2.3-3.3
			C121.1,61.5,120.3,62.8,120.3,64.8z"/>
		<path class="st13" d="M128.8,60.6h1.4V62h0c0.5-0.9,1.4-1.6,2.7-1.6c1.8,0,3.4,1.1,3.4,4.3c0,3.1-1.6,4.5-3.5,4.5
			c-1.2,0-2.2-0.7-2.5-1.4h0v4.2h-1.4V60.6z M132.6,68.1c1.5,0,2.2-1.2,2.2-3.4c0-1.8-0.5-3.2-2.3-3.2c-1.5,0-2.4,1.3-2.4,2.7v0.9
			C130.2,66.8,131,68.1,132.6,68.1z"/>
		<path class="st13" d="M138.8,60.6h1.4V62h0c0.5-0.9,1.4-1.6,2.7-1.6c1.8,0,3.4,1.1,3.4,4.3c0,3.1-1.6,4.5-3.5,4.5
			c-1.2,0-2.2-0.7-2.5-1.4h0v4.2h-1.4V60.6z M142.6,68.1c1.5,0,2.2-1.2,2.2-3.4c0-1.8-0.5-3.2-2.3-3.2c-1.5,0-2.4,1.3-2.4,2.7v0.9
			C140.2,66.8,141,68.1,142.6,68.1z"/>
		<path class="st13" d="M148.7,57.1h1.5v1.6h-1.5V57.1z M148.7,60.6h1.5v8.4h-1.5V60.6z"/>
		<path class="st13" d="M158.7,63.9c0-0.6,0-1.3-0.3-1.7c-0.3-0.4-0.8-0.6-1.3-0.6c-1.6,0-2.3,1-2.3,2.4v5.1h-1.4v-8.4h1.4V62h0
			c0.4-0.9,1.4-1.6,2.7-1.6c1.6,0,2.7,0.8,2.7,2.8v5.9h-1.4V63.9z"/>
		<path class="st13" d="M162.7,69.9h1.4c0.2,0.7,0.7,1.2,2.1,1.2c1.6,0,2.4-0.6,2.4-2.4v-1.2h0c-0.4,0.8-1.4,1.6-2.7,1.6
			c-1.8,0-3.4-1.1-3.4-4.2c0-2.8,1.5-4.3,3.6-4.3c1.4,0,2.2,0.8,2.5,1.5h0v-1.3h1.4v8.2c0,2.4-1.6,3.4-3.8,3.4
			C164.5,72.2,162.9,71.6,162.7,69.9z M168.6,64.4c0-1.7-0.9-2.8-2.4-2.8c-1.5,0-2.2,1.3-2.2,3.2c0,1.9,0.5,3.1,2.3,3.1
			c1.4,0,2.3-1.2,2.3-2.6V64.4z"/>
		<path class="st13" d="M177.1,69.9h1.4c0.2,0.7,0.7,1.2,2.1,1.2c1.6,0,2.4-0.6,2.4-2.4v-1.2h0c-0.4,0.8-1.4,1.6-2.7,1.6
			c-1.8,0-3.4-1.1-3.4-4.2c0-2.8,1.5-4.3,3.6-4.3c1.4,0,2.2,0.8,2.5,1.5h0v-1.3h1.4v8.2c0,2.4-1.6,3.4-3.8,3.4
			C178.9,72.2,177.3,71.6,177.1,69.9z M183,64.4c0-1.7-0.9-2.8-2.4-2.8c-1.5,0-2.2,1.3-2.2,3.2c0,1.9,0.5,3.1,2.3,3.1
			c1.4,0,2.3-1.2,2.3-2.6V64.4z"/>
		<path class="st13" d="M188.9,65.8c0,0.6,0,1.3,0.3,1.7c0.3,0.4,0.7,0.6,1.3,0.6c1.6,0,2.3-1,2.3-2.9v-4.6h1.4v8.4h-1.4v-1.4h0
			c-0.4,0.9-1.3,1.6-2.7,1.6c-1.6,0-2.7-0.8-2.7-2.8v-5.9h1.4V65.8z"/>
		<path class="st13" d="M197.3,57.1h1.5v1.6h-1.5V57.1z M197.3,60.6h1.5v8.4h-1.5V60.6z"/>
		<path class="st13" d="M208.7,69.1h-1.4v-1.4h0c-0.4,0.8-1.4,1.6-2.7,1.6c-1.8,0-3.4-1.1-3.4-4.4c0-2.9,1.5-4.5,3.6-4.5
			c1.3,0,2.1,0.7,2.4,1.5h0v-5.5h1.4V69.1z M207.3,64.5c0-1.8-0.9-2.9-2.3-2.9c-1.6,0-2.4,1.3-2.4,3.3c0,1.9,0.6,3.3,2.2,3.3
			c1.5,0,2.4-1.2,2.4-2.7V64.5z"/>
		<path class="st13" d="M215,69.3c-2.6,0-3.8-1.9-3.8-4.4c0-2.5,1.3-4.5,3.8-4.5c2.5,0,3.5,2,3.5,4.1v0.7h-5.8
			c0.1,1.7,0.8,2.9,2.4,2.9c1.4,0,1.8-0.8,1.9-1.3h1.4C218,68.3,216.8,69.3,215,69.3z M217,64c0-1.4-0.6-2.5-2.1-2.5
			c-1.3,0-2.1,1.1-2.3,2.6L217,64L217,64z"/>
		<path class="st13" d="M225,62.7c-0.1-0.8-0.7-1.2-1.7-1.2s-1.6,0.6-1.6,1.4c0,0.7,0.4,1,1.3,1.2l1.3,0.2c1.8,0.3,2.4,1,2.4,2.4
			c0,1.7-1.4,2.6-3.3,2.6c-1.7,0-3.2-0.8-3.3-2.6h1.4c0.1,0.7,0.4,1.5,1.9,1.5c1.2,0,1.9-0.5,1.9-1.4c0-0.7-0.2-1-1.3-1.2l-1.3-0.2
			c-1.5-0.2-2.3-0.9-2.3-2.3c0-1.5,1.1-2.6,3.1-2.6c1.8,0,2.9,0.8,3,2.3H225z"/>
		<path class="st13" d="M228.6,67.1h2v2h-2V67.1z"/>
		<path class="st13" d="M-111.4,93.2h4.5v1.3h-4.5V93.2z"/>
		<path class="st13" d="M-94.7,86.6c3,0,5.5,2,5.5,6.3c0,4.4-2.5,6.3-5.5,6.3c-3,0-5.5-2-5.5-6.3C-100.2,88.6-97.6,86.6-94.7,86.6z
			 M-90.8,93c0-3.4-1.6-5.2-4-5.2c-2.3,0-3.9,1.7-3.9,5.2c0,3.3,1.6,5.1,3.9,5.1C-92.4,98.1-90.8,96.3-90.8,93z"/>
		<path class="st13" d="M-85.1,95.8c0,0.6,0,1.3,0.3,1.7c0.3,0.4,0.7,0.6,1.3,0.6c1.6,0,2.3-1,2.3-2.9v-4.6h1.4v8.4h-1.4v-1.4h0
			c-0.4,0.9-1.3,1.6-2.7,1.6c-1.6,0-2.7-0.8-2.7-2.8v-5.9h1.4V95.8z"/>
		<path class="st13" d="M-74.8,88.2v2.4h2.1v1.1h-2.1v5c0,0.9,0.4,1.2,1.3,1.2c0.4,0,0.9-0.1,0.9-0.1v1.2c0,0-0.6,0.1-1.3,0.1
			c-1.6,0-2.3-0.8-2.3-2.2v-5.2h-1.5v-1.1h0.3c1.1,0,1.4-0.3,1.4-1.9v-0.6H-74.8z"/>
		<path class="st13" d="M-70.6,86.4h1.4v12.6h-1.4V86.4z"/>
		<path class="st13" d="M-66,87.1h1.5v1.6H-66V87.1z M-66,90.6h1.5v8.4H-66V90.6z"/>
		<path class="st13" d="M-56,93.9c0-0.6,0-1.3-0.3-1.7c-0.3-0.4-0.8-0.6-1.3-0.6c-1.6,0-2.3,1-2.3,2.4v5.1h-1.4v-8.4h1.4V92h0
			c0.4-0.9,1.4-1.6,2.7-1.6c1.6,0,2.7,0.8,2.7,2.8v5.9H-56V93.9z"/>
		<path class="st13" d="M-48.4,99.3c-2.6,0-3.8-1.9-3.8-4.4c0-2.5,1.3-4.5,3.8-4.5c2.5,0,3.5,2,3.5,4.1v0.7h-5.8
			c0.1,1.7,0.8,2.9,2.4,2.9c1.4,0,1.8-0.8,1.9-1.3h1.4C-45.4,98.3-46.6,99.3-48.4,99.3z M-46.4,94c0-1.4-0.6-2.5-2.1-2.5
			c-1.3,0-2.1,1.1-2.3,2.6L-46.4,94L-46.4,94z"/>
		<path class="st13" d="M-38.3,92.9c0-1.5,1.2-2.5,3.2-2.5c2.1,0,3.1,0.9,3.1,3.1V97c0,0.7,0.1,0.9,0.8,1v1.2h-0.2
			c-1.3,0-1.8-0.5-1.9-1.5h0c-0.4,1-1.5,1.6-2.7,1.6c-1.7,0-2.7-0.9-2.7-2.4c0-0.9,0.4-1.7,1.3-2.1c0.9-0.5,2.2-0.6,4.1-0.7v-0.4
			c0-1.5-0.6-2.1-1.8-2.1c-1.2,0-1.7,0.7-1.8,1.4H-38.3z M-33.4,95.2V95c-1.8,0.1-2.9,0.2-3.4,0.6c-0.3,0.2-0.5,0.6-0.5,1
			c0,0.9,0.6,1.3,1.5,1.3C-34.8,98-33.4,97.3-33.4,95.2z"/>
		<path class="st13" d="M-29,86.4h1.4v12.6H-29V86.4z"/>
		<path class="st13" d="M-24.4,86.4h1.4v12.6h-1.4V86.4z"/>
		<path class="st13" d="M-13.5,99.1H-15v-7.3h-1.5v-1.1h1.5v-1.9c0-1.7,1-2.3,2.6-2.3c0.3,0,0.6,0,0.9,0.1v1.2
			c-0.2,0-0.4-0.1-0.8-0.1c-0.8,0-1.2,0.3-1.2,1.3v1.7h2v1.1h-2V99.1z"/>
		<path class="st13" d="M-10.3,94.8c0-2.6,1.4-4.4,3.8-4.4c2.5,0,3.8,1.8,3.8,4.4c0,2.6-1.4,4.4-3.8,4.4
			C-9.1,99.3-10.3,97.5-10.3,94.8z M-8.9,94.8c0,2.1,0.7,3.3,2.3,3.3c1.6,0,2.3-1.2,2.3-3.3c0-2-0.7-3.3-2.3-3.3
			C-8.1,91.5-8.9,92.8-8.9,94.8z"/>
		<path class="st13" d="M5,93.9c0-0.6,0-1.3-0.3-1.7c-0.3-0.4-0.8-0.6-1.3-0.6c-1.6,0-2.3,1-2.3,2.4v5.1h-1.4v-8.4H1V92h0
			c0.4-0.9,1.4-1.6,2.7-1.6c1.6,0,2.7,0.8,2.7,2.8v5.9H5V93.9z"/>
		<path class="st13" d="M11.3,88.2v2.4h2.1v1.1h-2.1v5c0,0.9,0.4,1.2,1.3,1.2c0.4,0,0.9-0.1,0.9-0.1v1.2c0,0-0.6,0.1-1.3,0.1
			c-1.6,0-2.3-0.8-2.3-2.2v-5.2H8.3v-1.1h0.3c1.1,0,1.4-0.3,1.4-1.9v-0.6H11.3z"/>
		<path class="st13" d="M19.7,92.7c-0.1-0.8-0.7-1.2-1.7-1.2s-1.6,0.6-1.6,1.4c0,0.7,0.4,1,1.3,1.2l1.3,0.2c1.8,0.3,2.4,1,2.4,2.4
			c0,1.7-1.4,2.6-3.3,2.6c-1.7,0-3.2-0.8-3.3-2.6h1.4c0.1,0.7,0.4,1.5,1.9,1.5c1.2,0,1.9-0.5,1.9-1.4c0-0.7-0.2-1-1.3-1.2l-1.3-0.2
			C15.8,95.1,15,94.4,15,93c0-1.5,1.1-2.6,3.1-2.6c1.8,0,2.9,0.8,3,2.3H19.7z"/>
		<path class="st13" d="M29.7,95.8c0,0.6,0,1.3,0.3,1.7c0.3,0.4,0.7,0.6,1.3,0.6c1.6,0,2.3-1,2.3-2.9v-4.6H35v8.4h-1.4v-1.4h0
			c-0.4,0.9-1.3,1.6-2.7,1.6c-1.6,0-2.7-0.8-2.7-2.8v-5.9h1.4V95.8z"/>
		<path class="st13" d="M42.3,92.7c-0.1-0.8-0.7-1.2-1.7-1.2S39,92.1,39,92.9c0,0.7,0.4,1,1.3,1.2l1.3,0.2c1.8,0.3,2.4,1,2.4,2.4
			c0,1.7-1.4,2.6-3.3,2.6c-1.7,0-3.2-0.8-3.3-2.6h1.4c0.1,0.7,0.4,1.5,1.9,1.5c1.2,0,1.9-0.5,1.9-1.4c0-0.7-0.2-1-1.3-1.2L40,95.3
			c-1.5-0.2-2.3-0.9-2.3-2.3c0-1.5,1.1-2.6,3.1-2.6c1.8,0,2.9,0.8,3,2.3H42.3z"/>
		<path class="st13" d="M49.5,99.3c-2.6,0-3.8-1.9-3.8-4.4c0-2.5,1.3-4.5,3.8-4.5c2.5,0,3.5,2,3.5,4.1v0.7h-5.8
			c0.1,1.7,0.8,2.9,2.4,2.9c1.4,0,1.8-0.8,1.9-1.3h1.4C52.6,98.3,51.3,99.3,49.5,99.3z M51.5,94c0-1.4-0.6-2.5-2.1-2.5
			c-1.3,0-2.1,1.1-2.3,2.6L51.5,94L51.5,94z"/>
		<path class="st13" d="M62.3,99.1h-1.4v-1.4h0c-0.4,0.8-1.4,1.6-2.7,1.6c-1.8,0-3.4-1.1-3.4-4.4c0-2.9,1.5-4.5,3.6-4.5
			c1.3,0,2.1,0.7,2.4,1.5h0v-5.5h1.4V99.1z M60.9,94.5c0-1.8-0.9-2.9-2.3-2.9c-1.6,0-2.4,1.3-2.4,3.3c0,1.9,0.6,3.3,2.2,3.3
			c1.5,0,2.4-1.2,2.4-2.7V94.5z"/>
		<path class="st13" d="M69.9,87.1h1.5v1.6h-1.5V87.1z M70,90.6h1.5v8.4H70V90.6z"/>
		<path class="st13" d="M79.9,93.9c0-0.6,0-1.3-0.3-1.7c-0.3-0.4-0.8-0.6-1.3-0.6c-1.6,0-2.3,1-2.3,2.4v5.1h-1.4v-8.4h1.4V92h0
			c0.4-0.9,1.4-1.6,2.7-1.6c1.6,0,2.7,0.8,2.7,2.8v5.9h-1.4V93.9z"/>
		<path class="st13" d="M88.1,90.6h1.4l1.8,5.3c0.3,0.8,0.4,1.3,0.4,1.3h0c0,0,0.1-0.5,0.4-1.3l1.7-5.3h1.4l-3.1,9
			c-0.7,1.9-1.2,2.7-3.1,2.7c-0.3,0-0.6,0-0.9-0.1V101c0.3,0.1,0.6,0.1,0.7,0.1c1.1,0,1.4-0.4,1.8-1.5l0.2-0.4L88.1,90.6z"/>
		<path class="st13" d="M96.6,94.8c0-2.6,1.4-4.4,3.8-4.4c2.5,0,3.8,1.8,3.8,4.4c0,2.6-1.4,4.4-3.8,4.4
			C97.9,99.3,96.6,97.5,96.6,94.8z M98.1,94.8c0,2.1,0.7,3.3,2.3,3.3c1.6,0,2.3-1.2,2.3-3.3c0-2-0.7-3.3-2.3-3.3
			C98.9,91.5,98.1,92.8,98.1,94.8z"/>
		<path class="st13" d="M108,95.8c0,0.6,0,1.3,0.3,1.7c0.3,0.4,0.7,0.6,1.3,0.6c1.6,0,2.3-1,2.3-2.9v-4.6h1.4v8.4H112v-1.4h0
			c-0.4,0.9-1.3,1.6-2.7,1.6c-1.6,0-2.7-0.8-2.7-2.8v-5.9h1.4V95.8z"/>
		<path class="st13" d="M116.5,90.6h1.4v1.6h0c0.4-0.9,1.4-1.7,2.7-1.7h0.1V92h-0.3c-1.5,0-2.5,0.9-2.5,2.5v4.6h-1.4V90.6z"/>
		<path class="st13" d="M134.2,99.1h-1.4v-1.4h0c-0.4,0.8-1.4,1.6-2.7,1.6c-1.8,0-3.4-1.1-3.4-4.4c0-2.9,1.5-4.5,3.6-4.5
			c1.3,0,2.1,0.7,2.4,1.5h0v-5.5h1.4V99.1z M132.8,94.5c0-1.8-0.9-2.9-2.3-2.9c-1.6,0-2.4,1.3-2.4,3.3c0,1.9,0.6,3.3,2.2,3.3
			c1.5,0,2.4-1.2,2.4-2.7V94.5z"/>
		<path class="st13" d="M140.4,99.3c-2.6,0-3.8-1.9-3.8-4.4c0-2.5,1.3-4.5,3.8-4.5c2.5,0,3.5,2,3.5,4.1v0.7h-5.8
			c0.1,1.7,0.8,2.9,2.4,2.9c1.4,0,1.8-0.8,1.9-1.3h1.4C143.5,98.3,142.2,99.3,140.4,99.3z M142.4,94c0-1.4-0.6-2.5-2.1-2.5
			c-1.3,0-2.1,1.1-2.3,2.6L142.4,94L142.4,94z"/>
		<path class="st13" d="M150.5,92.7c-0.1-0.8-0.7-1.2-1.7-1.2s-1.6,0.6-1.6,1.4c0,0.7,0.4,1,1.3,1.2l1.3,0.2c1.8,0.3,2.4,1,2.4,2.4
			c0,1.7-1.4,2.6-3.3,2.6c-1.7,0-3.2-0.8-3.3-2.6h1.4c0.1,0.7,0.4,1.5,1.9,1.5c1.2,0,1.9-0.5,1.9-1.4c0-0.7-0.2-1-1.3-1.2l-1.3-0.2
			c-1.5-0.2-2.3-0.9-2.3-2.3c0-1.5,1.1-2.6,3.1-2.6c1.8,0,2.9,0.8,3,2.3H150.5z"/>
		<path class="st13" d="M154.6,87.1h1.5v1.6h-1.5V87.1z M154.6,90.6h1.5v8.4h-1.5V90.6z"/>
		<path class="st13" d="M158.7,99.9h1.4c0.2,0.7,0.7,1.2,2.1,1.2c1.6,0,2.4-0.6,2.4-2.4v-1.2h0c-0.4,0.8-1.4,1.6-2.7,1.6
			c-1.8,0-3.4-1.1-3.4-4.2c0-2.8,1.5-4.3,3.6-4.3c1.4,0,2.2,0.8,2.5,1.5h0v-1.3h1.4v8.2c0,2.4-1.6,3.4-3.8,3.4
			C160.5,102.2,158.9,101.6,158.7,99.9z M164.6,94.4c0-1.7-0.9-2.8-2.4-2.8c-1.5,0-2.2,1.3-2.2,3.2c0,1.9,0.5,3.1,2.3,3.1
			c1.4,0,2.3-1.2,2.3-2.6V94.4z"/>
		<path class="st13" d="M174.5,93.9c0-0.6,0-1.3-0.3-1.7c-0.3-0.4-0.8-0.6-1.3-0.6c-1.6,0-2.3,1-2.3,2.4v5.1h-1.4v-8.4h1.4V92h0
			c0.4-0.9,1.4-1.6,2.7-1.6c1.6,0,2.7,0.8,2.7,2.8v5.9h-1.4V93.9z"/>
		<path class="st13" d="M178.5,97.1h2v2h-2V97.1z"/>
		<path class="st13" d="M-111.4,123.2h4.5v1.3h-4.5V123.2z"/>
		<path class="st13" d="M-99.6,116.8h7.8v1.3h-6.3v4.1h5.8v1.3h-5.8v4.2h6.4v1.3h-7.9V116.8z"/>
		<path class="st13" d="M-87.1,124.7l-2.7-4.1h1.7l1.8,2.9h0l1.9-2.9h1.6l-2.7,4l2.9,4.4h-1.7l-2.1-3.3h0l-2.1,3.3H-90L-87.1,124.7z
			"/>
		<path class="st13" d="M-80.6,120.6h1.4v1.4h0c0.5-0.9,1.4-1.6,2.7-1.6c1.8,0,3.4,1.1,3.4,4.3c0,3.1-1.6,4.5-3.5,4.5
			c-1.2,0-2.2-0.7-2.5-1.4h0v4.2h-1.4V120.6z M-76.8,128.1c1.5,0,2.2-1.2,2.2-3.4c0-1.8-0.5-3.2-2.3-3.2c-1.5,0-2.4,1.3-2.4,2.7v0.9
			C-79.2,126.8-78.4,128.1-76.8,128.1z"/>
		<path class="st13" d="M-71.3,124.8c0-2.6,1.4-4.4,3.8-4.4c2.5,0,3.8,1.8,3.8,4.4c0,2.6-1.4,4.4-3.8,4.4
			C-70,129.3-71.3,127.5-71.3,124.8z M-69.8,124.8c0,2.1,0.7,3.3,2.3,3.3c1.6,0,2.3-1.2,2.3-3.3c0-2-0.7-3.3-2.3-3.3
			C-69,121.5-69.8,122.8-69.8,124.8z"/>
		<path class="st13" d="M-61.3,120.6h1.4v1.6h0c0.4-0.9,1.4-1.7,2.7-1.7h0.1v1.5h-0.3c-1.5,0-2.5,0.9-2.5,2.5v4.6h-1.4V120.6z"/>
		<path class="st13" d="M-52.8,118.2v2.4h2.1v1.1h-2.1v5c0,0.9,0.4,1.2,1.3,1.2c0.4,0,0.9-0.1,0.9-0.1v1.2c0,0-0.6,0.1-1.3,0.1
			c-1.6,0-2.3-0.8-2.3-2.2v-5.2h-1.5v-1.1h0.3c1.1,0,1.4-0.3,1.4-1.9v-0.6H-52.8z"/>
		<path class="st13" d="M-44.5,122.9c0-1.5,1.2-2.5,3.2-2.5c2.1,0,3.1,0.9,3.1,3.1v3.4c0,0.7,0.1,0.9,0.8,1v1.2h-0.2
			c-1.3,0-1.8-0.5-1.9-1.5h0c-0.4,1-1.5,1.6-2.7,1.6c-1.7,0-2.7-0.9-2.7-2.4c0-0.9,0.4-1.7,1.3-2.1c0.9-0.5,2.2-0.6,4.1-0.7v-0.4
			c0-1.5-0.6-2.1-1.8-2.1c-1.2,0-1.7,0.7-1.8,1.4H-44.5z M-39.6,125.2V125c-1.8,0.1-2.9,0.2-3.4,0.6c-0.3,0.2-0.5,0.6-0.5,1
			c0,0.9,0.6,1.3,1.5,1.3C-40.9,128-39.6,127.3-39.6,125.2z"/>
		<path class="st13" d="M-29.8,123.9c0-0.6,0-1.3-0.3-1.7c-0.3-0.4-0.8-0.6-1.3-0.6c-1.6,0-2.3,1-2.3,2.4v5.1h-1.4v-8.4h1.4v1.4h0
			c0.4-0.9,1.4-1.6,2.7-1.6c1.6,0,2.7,0.8,2.7,2.8v5.9h-1.4V123.9z"/>
		<path class="st13" d="M-18.5,129.1h-1.4v-1.4h0c-0.4,0.8-1.4,1.6-2.7,1.6c-1.8,0-3.4-1.1-3.4-4.4c0-2.9,1.5-4.5,3.6-4.5
			c1.3,0,2.1,0.7,2.4,1.5h0v-5.5h1.4V129.1z M-19.9,124.5c0-1.8-0.9-2.9-2.3-2.9c-1.6,0-2.4,1.3-2.4,3.3c0,1.9,0.6,3.3,2.2,3.3
			c1.5,0,2.4-1.2,2.4-2.7V124.5z"/>
		<path class="st13" d="M-6.6,122.7c-0.1-0.8-0.7-1.2-1.7-1.2s-1.6,0.6-1.6,1.4c0,0.7,0.4,1,1.3,1.2l1.3,0.2c1.8,0.3,2.4,1,2.4,2.4
			c0,1.7-1.4,2.6-3.3,2.6c-1.7,0-3.2-0.8-3.3-2.6h1.4c0.1,0.7,0.4,1.5,1.9,1.5c1.2,0,1.9-0.5,1.9-1.4c0-0.7-0.2-1-1.3-1.2l-1.3-0.2
			c-1.5-0.2-2.3-0.9-2.3-2.3c0-1.5,1.1-2.6,3.1-2.6c1.8,0,2.9,0.8,3,2.3H-6.6z"/>
		<path class="st13" d="M-1.3,125.8c0,0.6,0,1.3,0.3,1.7c0.3,0.4,0.7,0.6,1.3,0.6c1.6,0,2.3-1,2.3-2.9v-4.6h1.4v8.4H2.7v-1.4h0
			c-0.4,0.9-1.3,1.6-2.7,1.6c-1.6,0-2.7-0.8-2.7-2.8v-5.9h1.4V125.8z"/>
		<path class="st13" d="M7.2,116.4h1.4v5.6h0c0.5-0.9,1.4-1.6,2.7-1.6c1.8,0,3.4,1.1,3.4,4.3c0,3.1-1.6,4.5-3.5,4.5
			c-1.3,0-2.2-0.7-2.6-1.6h0v1.3H7.2V116.4z M13.3,124.7c0-1.8-0.5-3.2-2.3-3.2c-1.5,0-2.4,1.3-2.4,2.7v0.9c0,1.7,0.8,3,2.4,3
			C12.5,128.1,13.3,126.9,13.3,124.7z"/>
		<path class="st13" d="M17.2,120.6h1.4v1.4h0c0.4-0.9,1.4-1.6,2.7-1.6c1.3,0,2.2,0.6,2.5,1.7h0c0.3-0.9,1.4-1.7,2.8-1.7
			c1.6,0,2.7,0.8,2.7,2.8v5.9h-1.4v-5.2c0-0.6,0-1.3-0.3-1.7c-0.3-0.4-0.8-0.5-1.3-0.5c-1.6,0-2.3,1-2.3,2.4v5.1h-1.4v-5.2
			c0-0.6,0-1.2-0.3-1.7c-0.3-0.4-0.8-0.6-1.3-0.6c-1.6,0-2.3,1-2.3,2.4v5.1h-1.4V120.6z"/>
		<path class="st13" d="M32.3,117.1h1.5v1.6h-1.5V117.1z M32.3,120.6h1.5v8.4h-1.5V120.6z"/>
		<path class="st13" d="M38.7,118.2v2.4h2.1v1.1h-2.1v5c0,0.9,0.4,1.2,1.3,1.2c0.4,0,0.9-0.1,0.9-0.1v1.2c0,0-0.6,0.1-1.3,0.1
			c-1.6,0-2.3-0.8-2.3-2.2v-5.2h-1.5v-1.1H36c1.1,0,1.4-0.3,1.4-1.9v-0.6H38.7z"/>
		<path class="st13" d="M47.4,116.4h1.4v12.6h-1.4V116.4z"/>
		<path class="st13" d="M51.3,124.8c0-2.6,1.4-4.4,3.8-4.4c2.5,0,3.8,1.8,3.8,4.4c0,2.6-1.4,4.4-3.8,4.4
			C52.6,129.3,51.3,127.5,51.3,124.8z M52.8,124.8c0,2.1,0.7,3.3,2.3,3.3c1.6,0,2.3-1.2,2.3-3.3c0-2-0.7-3.3-2.3-3.3
			C53.5,121.5,52.8,122.8,52.8,124.8z"/>
		<path class="st13" d="M60.9,129.9h1.4c0.2,0.7,0.7,1.2,2.1,1.2c1.6,0,2.4-0.6,2.4-2.4v-1.2h0c-0.4,0.8-1.4,1.6-2.7,1.6
			c-1.8,0-3.4-1.1-3.4-4.2c0-2.8,1.5-4.3,3.6-4.3c1.4,0,2.2,0.8,2.5,1.5h0v-1.3h1.4v8.2c0,2.4-1.6,3.4-3.8,3.4
			C62.7,132.2,61.1,131.6,60.9,129.9z M66.8,124.4c0-1.7-0.9-2.8-2.4-2.8c-1.5,0-2.2,1.3-2.2,3.2c0,1.9,0.5,3.1,2.3,3.1
			c1.4,0,2.3-1.2,2.3-2.6V124.4z"/>
		<path class="st13" d="M70.6,124.8c0-2.6,1.4-4.4,3.8-4.4c2.5,0,3.8,1.8,3.8,4.4c0,2.6-1.4,4.4-3.8,4.4
			C71.9,129.3,70.6,127.5,70.6,124.8z M72.1,124.8c0,2.1,0.7,3.3,2.3,3.3c1.6,0,2.3-1.2,2.3-3.3c0-2-0.7-3.3-2.3-3.3
			C72.8,121.5,72.1,122.8,72.1,124.8z"/>
		<path class="st13" d="M84.8,122.7c-0.1-0.8-0.7-1.2-1.7-1.2s-1.6,0.6-1.6,1.4c0,0.7,0.4,1,1.3,1.2l1.3,0.2c1.8,0.3,2.4,1,2.4,2.4
			c0,1.7-1.4,2.6-3.3,2.6c-1.7,0-3.2-0.8-3.3-2.6h1.4c0.1,0.7,0.4,1.5,1.9,1.5c1.2,0,1.9-0.5,1.9-1.4c0-0.7-0.2-1-1.3-1.2l-1.3-0.2
			c-1.5-0.2-2.3-0.9-2.3-2.3c0-1.5,1.1-2.6,3.1-2.6c1.8,0,2.9,0.8,3,2.3H84.8z"/>
		<path class="st13" d="M93,122.9c0-1.5,1.2-2.5,3.2-2.5c2.1,0,3.1,0.9,3.1,3.1v3.4c0,0.7,0.1,0.9,0.8,1v1.2h-0.2
			c-1.3,0-1.8-0.5-1.9-1.5h0c-0.4,1-1.5,1.6-2.7,1.6c-1.7,0-2.7-0.9-2.7-2.4c0-0.9,0.4-1.7,1.3-2.1c0.9-0.5,2.2-0.6,4.1-0.7v-0.4
			c0-1.5-0.6-2.1-1.8-2.1c-1.2,0-1.7,0.7-1.8,1.4H93z M97.9,125.2V125c-1.8,0.1-2.9,0.2-3.4,0.6c-0.3,0.2-0.5,0.6-0.5,1
			c0,0.9,0.6,1.3,1.5,1.3C96.6,128,97.9,127.3,97.9,125.2z"/>
		<path class="st13" d="M104.2,118.2v2.4h2.1v1.1h-2.1v5c0,0.9,0.4,1.2,1.3,1.2c0.4,0,0.9-0.1,0.9-0.1v1.2c0,0-0.6,0.1-1.3,0.1
			c-1.6,0-2.3-0.8-2.3-2.2v-5.2h-1.5v-1.1h0.3c1.1,0,1.4-0.3,1.4-1.9v-0.6H104.2z"/>
		<path class="st13" d="M114.6,120.3h-2.4v-1h0.4c0.8,0,1.4-0.2,1.7-0.6c0.4-0.4,0.5-0.8,0.5-1.6h1.2v11.9h-1.5V120.3z"/>
		<path class="st13" d="M123.6,117c2.6,0,4.3,2,4.3,6.1c0,4.1-1.7,6.1-4.3,6.1c-2.6,0-4.2-2-4.2-6.1C119.4,119,121.1,117,123.6,117z
			 M126.3,123.2c0-3.3-1-5-2.7-5c-1.7,0-2.7,1.6-2.7,5c0,3.3,1,4.9,2.7,4.9C125.3,128.1,126.3,126.4,126.3,123.2z"/>
		<path class="st13" d="M134.6,117c2.6,0,4.3,2,4.3,6.1c0,4.1-1.7,6.1-4.3,6.1c-2.6,0-4.2-2-4.2-6.1C130.3,119,132,117,134.6,117z
			 M137.3,123.2c0-3.3-1-5-2.7-5c-1.7,0-2.7,1.6-2.7,5c0,3.3,1,4.9,2.7,4.9C136.2,128.1,137.3,126.4,137.3,123.2z"/>
		<path class="st13" d="M145.5,117c2.6,0,4.3,2,4.3,6.1c0,4.1-1.7,6.1-4.3,6.1c-2.6,0-4.2-2-4.2-6.1C141.3,119,143,117,145.5,117z
			 M148.3,123.2c0-3.3-1-5-2.7-5c-1.7,0-2.7,1.6-2.7,5c0,3.3,1,4.9,2.7,4.9C147.2,128.1,148.3,126.4,148.3,123.2z"/>
		<path class="st13" d="M152.6,120.6h1.4v1.4h0c0.5-0.9,1.4-1.6,2.7-1.6c1.8,0,3.4,1.1,3.4,4.3c0,3.1-1.6,4.5-3.5,4.5
			c-1.2,0-2.2-0.7-2.5-1.4h0v4.2h-1.4V120.6z M156.4,128.1c1.5,0,2.2-1.2,2.2-3.4c0-1.8-0.5-3.2-2.3-3.2c-1.5,0-2.4,1.3-2.4,2.7v0.9
			C154,126.8,154.8,128.1,156.4,128.1z"/>
		<path class="st13" d="M164,124.7l-2.7-4.1h1.7l1.8,2.9h0l1.9-2.9h1.6l-2.7,4l2.9,4.4H167l-2.1-3.3h0l-2.1,3.3h-1.6L164,124.7z"/>
		<path class="st13" d="M179.3,122.7c-0.1-0.8-0.7-1.2-1.7-1.2s-1.6,0.6-1.6,1.4c0,0.7,0.4,1,1.3,1.2l1.3,0.2c1.8,0.3,2.4,1,2.4,2.4
			c0,1.7-1.4,2.6-3.3,2.6c-1.7,0-3.2-0.8-3.3-2.6h1.4c0.1,0.7,0.4,1.5,1.9,1.5c1.2,0,1.9-0.5,1.9-1.4c0-0.7-0.2-1-1.3-1.2l-1.3-0.2
			c-1.5-0.2-2.3-0.9-2.3-2.3c0-1.5,1.1-2.6,3.1-2.6c1.8,0,2.9,0.8,3,2.3H179.3z"/>
		<path class="st13" d="M190.2,132.1h-1.4v-4.3h0c-0.4,0.8-1.3,1.5-2.6,1.5c-1.8,0-3.4-1.1-3.4-4.4c0-2.9,1.5-4.5,3.6-4.5
			c1.3,0,2.1,0.7,2.4,1.5h0v-1.3h1.4V132.1z M188.8,125.4v-0.9c0-1.8-0.9-2.9-2.3-2.9c-1.6,0-2.4,1.3-2.4,3.3c0,1.9,0.6,3.3,2.2,3.3
			C187.9,128.1,188.8,126.9,188.8,125.4z"/>
		<path class="st13" d="M194.7,125.8c0,0.6,0,1.3,0.3,1.7c0.3,0.4,0.7,0.6,1.3,0.6c1.6,0,2.3-1,2.3-2.9v-4.6h1.4v8.4h-1.4v-1.4h0
			c-0.4,0.9-1.3,1.6-2.7,1.6c-1.6,0-2.7-0.8-2.7-2.8v-5.9h1.4V125.8z"/>
		<path class="st13" d="M202.8,122.9c0-1.5,1.2-2.5,3.2-2.5c2.1,0,3.1,0.9,3.1,3.1v3.4c0,0.7,0.1,0.9,0.8,1v1.2h-0.2
			c-1.3,0-1.8-0.5-1.9-1.5h0c-0.4,1-1.5,1.6-2.7,1.6c-1.7,0-2.7-0.9-2.7-2.4c0-0.9,0.4-1.7,1.3-2.1c0.9-0.5,2.2-0.6,4.1-0.7v-0.4
			c0-1.5-0.6-2.1-1.8-2.1c-1.2,0-1.7,0.7-1.8,1.4H202.8z M207.7,125.2V125c-1.8,0.1-2.9,0.2-3.4,0.6c-0.3,0.2-0.5,0.6-0.5,1
			c0,0.9,0.6,1.3,1.5,1.3C206.3,128,207.7,127.3,207.7,125.2z"/>
		<path class="st13" d="M212.1,120.6h1.4v1.6h0c0.4-0.9,1.4-1.7,2.7-1.7h0.1v1.5H216c-1.5,0-2.5,0.9-2.5,2.5v4.6h-1.4V120.6z"/>
		<path class="st13" d="M221.4,129.3c-2.6,0-3.8-1.9-3.8-4.4c0-2.5,1.3-4.5,3.8-4.5c2.5,0,3.5,2,3.5,4.1v0.7h-5.8
			c0.1,1.7,0.8,2.9,2.4,2.9c1.4,0,1.8-0.8,1.9-1.3h1.4C224.5,128.3,223.2,129.3,221.4,129.3z M223.4,124c0-1.4-0.6-2.5-2.1-2.5
			c-1.3,0-2.1,1.1-2.3,2.6L223.4,124L223.4,124z"/>
		<path class="st13" d="M233.6,118.2v2.4h2.1v1.1h-2.1v5c0,0.9,0.4,1.2,1.3,1.2c0.4,0,0.9-0.1,0.9-0.1v1.2c0,0-0.6,0.1-1.3,0.1
			c-1.6,0-2.3-0.8-2.3-2.2v-5.2h-1.5v-1.1h0.3c1.1,0,1.4-0.3,1.4-1.9v-0.6H233.6z"/>
		<path class="st13" d="M237.2,124.8c0-2.6,1.4-4.4,3.8-4.4c2.5,0,3.8,1.8,3.8,4.4c0,2.6-1.4,4.4-3.8,4.4
			C238.5,129.3,237.2,127.5,237.2,124.8z M238.7,124.8c0,2.1,0.7,3.3,2.3,3.3c1.6,0,2.3-1.2,2.3-3.3c0-2-0.7-3.3-2.3-3.3
			C239.4,121.5,238.7,122.8,238.7,124.8z"/>
		<path class="st13" d="M246.9,120.6h2v2h-2V120.6z M246.9,129.1v-2h2v2H246.9z"/>
		<path class="st13" d="M-93.3,153.2h4.5v1.3h-4.5V153.2z"/>
		<path class="st13" d="M-82.8,159.1v-1.3h0.3c2.6,0,3-0.7,3-2.5v-8.5h1.5v8.7c0,2.6-1.4,3.6-4.1,3.6H-82.8z"/>
		<path class="st13" d="M-73.1,154.4v4.7h-1.5v-12.2h3.7c2.4,0,4.2,1.1,4.2,3.8c0,2.6-1.8,3.8-4.3,3.8H-73.1z M-71.1,153.2
			c1.8,0,2.8-0.9,2.8-2.6c0-1.8-1-2.6-2.8-2.6h-2.1v5.2H-71.1z"/>
		<path class="st13" d="M-63.3,153c0,3.2,1.4,5.1,3.9,5.1c2.3,0,3.7-1.3,3.7-3.7v-0.2h-3.5v-1.3h5v6.2h-1.3v-1.8h-0.1
			c-0.6,1.1-1.8,2-3.8,2c-3.1,0-5.4-2-5.4-6.3c0-4,2.4-6.4,5.6-6.4c2.5,0,4.3,1.3,4.6,3.4h-1.6c-0.2-1.4-1.5-2.2-3.1-2.2
			C-61.9,147.8-63.3,149.9-63.3,153z"/>
		<path class="st13" d="M-51.2,157.1h1.8l-1.3,3.8h-1L-51.2,157.1z"/>
		<path class="st13" d="M-41,154.4v4.7h-1.5v-12.2h3.7c2.4,0,4.2,1.1,4.2,3.8c0,2.6-1.8,3.8-4.3,3.8H-41z M-38.9,153.2
			c1.8,0,2.8-0.9,2.8-2.6c0-1.8-1-2.6-2.8-2.6H-41v5.2H-38.9z"/>
		<path class="st13" d="M-32.1,146.8h1.9l5.4,9.1c0.4,0.7,0.6,1.2,0.6,1.2h0v-10.3h1.4v12.2h-1.9L-30,150c-0.5-0.8-0.6-1.2-0.6-1.2
			h0v10.3h-1.4V146.8z"/>
		<path class="st13" d="M-18.2,153c0,3.2,1.4,5.1,3.9,5.1c2.3,0,3.7-1.3,3.7-3.7v-0.2h-3.5v-1.3h5v6.2h-1.3v-1.8h-0.1
			c-0.6,1.1-1.8,2-3.8,2c-3.1,0-5.4-2-5.4-6.3c0-4,2.4-6.4,5.6-6.4c2.5,0,4.3,1.3,4.6,3.4h-1.6c-0.2-1.4-1.5-2.2-3.1-2.2
			C-16.9,147.8-18.2,149.9-18.2,153z"/>
		<path class="st13" d="M-6.2,150.6h2v2h-2V150.6z M-6.2,159.1v-2h2v2H-6.2z"/>
		<path class="st13" d="M7,152.7c-0.1-0.8-0.7-1.2-1.7-1.2s-1.6,0.6-1.6,1.4c0,0.7,0.4,1,1.3,1.2l1.3,0.2c1.8,0.3,2.4,1,2.4,2.4
			c0,1.7-1.4,2.6-3.3,2.6c-1.7,0-3.2-0.8-3.3-2.6h1.4c0.1,0.7,0.4,1.5,1.9,1.5c1.2,0,1.9-0.5,1.9-1.4c0-0.7-0.2-1-1.3-1.2l-1.3-0.2
			c-1.5-0.2-2.3-0.9-2.3-2.3c0-1.5,1.1-2.6,3.1-2.6c1.8,0,2.9,0.8,3,2.3H7z"/>
		<path class="st13" d="M14.2,159.3c-2.6,0-3.8-1.9-3.8-4.4c0-2.5,1.3-4.5,3.8-4.5c2.5,0,3.5,2,3.5,4.1v0.7h-5.8
			c0.1,1.7,0.8,2.9,2.4,2.9c1.4,0,1.8-0.8,1.9-1.3h1.4C17.2,158.3,16,159.3,14.2,159.3z M16.2,154c0-1.4-0.6-2.5-2.1-2.5
			c-1.3,0-2.1,1.1-2.3,2.6L16.2,154L16.2,154z"/>
		<path class="st13" d="M21.9,148.2v2.4h2.1v1.1h-2.1v5c0,0.9,0.4,1.2,1.3,1.2c0.4,0,0.9-0.1,0.9-0.1v1.2c0,0-0.6,0.1-1.3,0.1
			c-1.6,0-2.3-0.8-2.3-2.2v-5.2h-1.5v-1.1h0.3c1.1,0,1.4-0.3,1.4-1.9v-0.6H21.9z"/>
		<path class="st13" d="M32.3,148.2v2.4h2.1v1.1h-2.1v5c0,0.9,0.4,1.2,1.3,1.2c0.4,0,0.9-0.1,0.9-0.1v1.2c0,0-0.6,0.1-1.3,0.1
			c-1.6,0-2.3-0.8-2.3-2.2v-5.2h-1.5v-1.1h0.3c1.1,0,1.4-0.3,1.4-1.9v-0.6H32.3z"/>
		<path class="st13" d="M35.9,154.8c0-2.6,1.4-4.4,3.8-4.4c2.5,0,3.8,1.8,3.8,4.4c0,2.6-1.4,4.4-3.8,4.4
			C37.2,159.3,35.9,157.5,35.9,154.8z M37.4,154.8c0,2.1,0.7,3.3,2.3,3.3c1.6,0,2.3-1.2,2.3-3.3c0-2-0.7-3.3-2.3-3.3
			C38.2,151.5,37.4,152.8,37.4,154.8z"/>
		<path class="st13" d="M50.4,150.6h1.4v1.4h0c0.4-0.9,1.4-1.6,2.7-1.6c1.3,0,2.2,0.6,2.5,1.7h0c0.3-0.9,1.4-1.7,2.8-1.7
			c1.6,0,2.7,0.8,2.7,2.8v5.9h-1.4v-5.2c0-0.6,0-1.3-0.3-1.7c-0.3-0.4-0.8-0.5-1.3-0.5c-1.6,0-2.3,1-2.3,2.4v5.1h-1.4v-5.2
			c0-0.6,0-1.2-0.3-1.7c-0.3-0.4-0.8-0.6-1.3-0.6c-1.6,0-2.3,1-2.3,2.4v5.1h-1.4V150.6z"/>
		<path class="st13" d="M65.3,152.9c0-1.5,1.2-2.5,3.2-2.5c2.1,0,3.1,0.9,3.1,3.1v3.4c0,0.7,0.1,0.9,0.8,1v1.2h-0.2
			c-1.3,0-1.8-0.5-1.9-1.5h0c-0.4,1-1.5,1.6-2.7,1.6c-1.7,0-2.7-0.9-2.7-2.4c0-0.9,0.4-1.7,1.3-2.1c0.9-0.5,2.2-0.6,4.1-0.7v-0.4
			c0-1.5-0.6-2.1-1.8-2.1c-1.2,0-1.7,0.7-1.8,1.4H65.3z M70.2,155.2V155c-1.8,0.1-2.9,0.2-3.4,0.6c-0.3,0.2-0.5,0.6-0.5,1
			c0,0.9,0.6,1.3,1.5,1.3C68.9,158,70.2,157.3,70.2,155.2z"/>
		<path class="st13" d="M76.3,154.7l-2.7-4.1h1.7l1.8,2.9h0l1.9-2.9h1.6l-2.7,4l2.9,4.4h-1.7l-2.1-3.3h0l-2.1,3.3h-1.6L76.3,154.7z"
			/>
		<path class="st13" d="M82.9,147.1h1.5v1.6h-1.5V147.1z M82.9,150.6h1.5v8.4h-1.5V150.6z"/>
		<path class="st13" d="M87.5,150.6h1.4v1.4h0c0.4-0.9,1.4-1.6,2.7-1.6c1.3,0,2.2,0.6,2.5,1.7h0c0.3-0.9,1.4-1.7,2.8-1.7
			c1.6,0,2.7,0.8,2.7,2.8v5.9h-1.4v-5.2c0-0.6,0-1.3-0.3-1.7c-0.3-0.4-0.8-0.5-1.3-0.5c-1.6,0-2.3,1-2.3,2.4v5.1h-1.4v-5.2
			c0-0.6,0-1.2-0.3-1.7c-0.3-0.4-0.8-0.6-1.3-0.6c-1.6,0-2.3,1-2.3,2.4v5.1h-1.4V150.6z"/>
		<path class="st13" d="M104.1,155.8c0,0.6,0,1.3,0.3,1.7c0.3,0.4,0.7,0.6,1.3,0.6c1.6,0,2.3-1,2.3-2.9v-4.6h1.4v8.4h-1.4v-1.4h0
			c-0.4,0.9-1.3,1.6-2.7,1.6c-1.6,0-2.7-0.8-2.7-2.8v-5.9h1.4V155.8z"/>
		<path class="st13" d="M112.6,150.6h1.4v1.4h0c0.4-0.9,1.4-1.6,2.7-1.6c1.3,0,2.2,0.6,2.5,1.7h0c0.3-0.9,1.4-1.7,2.8-1.7
			c1.6,0,2.7,0.8,2.7,2.8v5.9h-1.4v-5.2c0-0.6,0-1.3-0.3-1.7c-0.3-0.4-0.8-0.5-1.3-0.5c-1.6,0-2.3,1-2.3,2.4v5.1h-1.4v-5.2
			c0-0.6,0-1.2-0.3-1.7c-0.3-0.4-0.8-0.6-1.3-0.6c-1.6,0-2.3,1-2.3,2.4v5.1h-1.4V150.6z"/>
		<path class="st13" d="M139.1,162.1h-1.4v-4.3h0c-0.4,0.8-1.3,1.5-2.6,1.5c-1.8,0-3.4-1.1-3.4-4.4c0-2.9,1.5-4.5,3.6-4.5
			c1.3,0,2.1,0.7,2.4,1.5h0v-1.3h1.4V162.1z M137.7,155.4v-0.9c0-1.8-0.9-2.9-2.3-2.9c-1.6,0-2.4,1.3-2.4,3.3c0,1.9,0.6,3.3,2.2,3.3
			C136.7,158.1,137.7,156.9,137.7,155.4z"/>
		<path class="st13" d="M143.5,155.8c0,0.6,0,1.3,0.3,1.7c0.3,0.4,0.7,0.6,1.3,0.6c1.6,0,2.3-1,2.3-2.9v-4.6h1.4v8.4h-1.4v-1.4h0
			c-0.4,0.9-1.3,1.6-2.7,1.6c-1.6,0-2.7-0.8-2.7-2.8v-5.9h1.4V155.8z"/>
		<path class="st13" d="M151.6,152.9c0-1.5,1.2-2.5,3.2-2.5c2.1,0,3.1,0.9,3.1,3.1v3.4c0,0.7,0.1,0.9,0.8,1v1.2h-0.2
			c-1.3,0-1.8-0.5-1.9-1.5h0c-0.4,1-1.5,1.6-2.7,1.6c-1.7,0-2.7-0.9-2.7-2.4c0-0.9,0.4-1.7,1.3-2.1c0.9-0.5,2.2-0.6,4.1-0.7v-0.4
			c0-1.5-0.6-2.1-1.8-2.1c-1.2,0-1.7,0.7-1.8,1.4H151.6z M156.5,155.2V155c-1.8,0.1-2.9,0.2-3.4,0.6c-0.3,0.2-0.5,0.6-0.5,1
			c0,0.9,0.6,1.3,1.5,1.3C155.2,158,156.5,157.3,156.5,155.2z"/>
		<path class="st13" d="M161,146.4h1.4v12.6H161V146.4z"/>
		<path class="st13" d="M165.5,147.1h1.5v1.6h-1.5V147.1z M165.6,150.6h1.5v8.4h-1.5V150.6z"/>
		<path class="st13" d="M172,148.2v2.4h2.1v1.1H172v5c0,0.9,0.4,1.2,1.3,1.2c0.4,0,0.9-0.1,0.9-0.1v1.2c0,0-0.6,0.1-1.3,0.1
			c-1.6,0-2.3-0.8-2.3-2.2v-5.2H169v-1.1h0.3c1.1,0,1.4-0.3,1.4-1.9v-0.6H172z"/>
		<path class="st13" d="M175.5,150.6h1.4l1.8,5.3c0.3,0.8,0.4,1.3,0.4,1.3h0c0,0,0.1-0.5,0.4-1.3l1.7-5.3h1.4l-3.1,9
			c-0.7,1.9-1.2,2.7-3.1,2.7c-0.3,0-0.6,0-0.9-0.1V161c0.3,0.1,0.6,0.1,0.7,0.1c1.1,0,1.4-0.4,1.8-1.5l0.2-0.4L175.5,150.6z"/>
		<path class="st13" d="M183.3,157.1h2v2h-2V157.1z"/>
		<path class="st13" d="M-93.3,183.2h4.5v1.3h-4.5V183.2z"/>
		<path class="st13" d="M-80.1,184.4v4.7h-1.5v-12.2h3.7c2.4,0,4.2,1.1,4.2,3.8c0,2.6-1.8,3.8-4.3,3.8H-80.1z M-78,183.2
			c1.8,0,2.8-0.9,2.8-2.6c0-1.8-1-2.6-2.8-2.6h-2.1v5.2H-78z"/>
		<path class="st13" d="M-71.2,176.8h3.8c3.3,0,5.9,1.6,5.9,6c0,4.3-2.4,6.3-5.7,6.3h-3.9V176.8z M-67.4,187.8
			c2.6,0,4.4-1.3,4.4-4.9c0-3.4-1.8-4.7-4.3-4.7h-2.4v9.7H-67.4z"/>
		<path class="st13" d="M-57.1,189.1h-1.5v-12.2h7.3v1.3h-5.8v4.4h5.3v1.3h-5.3V189.1z"/>
		<path class="st13" d="M-93.3,213.2h4.5v1.3h-4.5V213.2z"/>
		<path class="st13" d="M-81.6,206.8h7.8v1.3h-6.3v4.1h5.8v1.3h-5.8v4.2h6.4v1.3h-7.9V206.8z"/>
		<path class="st13" d="M-69.1,214.4v4.7h-1.5v-12.2h3.7c2.4,0,4.2,1.1,4.2,3.8c0,2.6-1.8,3.8-4.3,3.8H-69.1z M-67,213.2
			c1.8,0,2.8-0.9,2.8-2.6c0-1.8-1-2.6-2.8-2.6h-2.1v5.2H-67z"/>
		<path class="st13" d="M-53.7,210.1c-0.1-1.2-0.8-2.3-2.5-2.3c-1.7,0-2.6,0.9-2.6,2.1c0,1.1,0.6,1.8,2,2l1.7,0.3
			c2.4,0.4,3.2,1.6,3.2,3.3c0,2.2-1.5,3.7-4.5,3.7c-2.8,0-4.4-1.5-4.6-3.7h1.6c0.2,1.3,1.1,2.5,3.1,2.5c2.2,0,2.9-1.1,2.9-2.4
			c0-1.1-0.6-1.8-2.1-2l-1.7-0.3c-2.4-0.4-3.2-1.7-3.2-3.3c0-2,1.6-3.4,4.1-3.4c2.6,0,3.9,1.4,4,3.5H-53.7z"/>
		<path class="st13" d="M-49.3,210.6h2v2h-2V210.6z M-49.3,219.1v-2h2v2H-49.3z"/>
		<path class="st13" d="M-37.2,219.3c-2.6,0-3.8-1.9-3.8-4.4c0-2.5,1.3-4.5,3.8-4.5c2.5,0,3.5,2,3.5,4.1v0.7h-5.8
			c0.1,1.7,0.8,2.9,2.4,2.9c1.4,0,1.8-0.8,1.9-1.3h1.4C-34.1,218.3-35.4,219.3-37.2,219.3z M-35.2,214c0-1.4-0.6-2.5-2.1-2.5
			c-1.3,0-2.1,1.1-2.3,2.6L-35.2,214L-35.2,214z"/>
		<path class="st13" d="M-29.7,214.7l-2.7-4.1h1.7l1.8,2.9h0l1.9-2.9h1.6l-2.7,4l2.9,4.4h-1.7l-2.1-3.3h0l-2.1,3.3h-1.6L-29.7,214.7
			z"/>
		<path class="st13" d="M-23.2,210.6h1.4v1.4h0c0.5-0.9,1.4-1.6,2.7-1.6c1.8,0,3.4,1.1,3.4,4.3c0,3.1-1.6,4.5-3.5,4.5
			c-1.2,0-2.2-0.7-2.5-1.4h0v4.2h-1.4V210.6z M-19.4,218.1c1.5,0,2.2-1.2,2.2-3.4c0-1.8-0.5-3.2-2.3-3.2c-1.5,0-2.4,1.3-2.4,2.7v0.9
			C-21.8,216.8-21,218.1-19.4,218.1z"/>
		<path class="st13" d="M-13.8,214.8c0-2.6,1.4-4.4,3.8-4.4c2.5,0,3.8,1.8,3.8,4.4c0,2.6-1.4,4.4-3.8,4.4
			C-12.6,219.3-13.8,217.5-13.8,214.8z M-12.4,214.8c0,2.1,0.7,3.3,2.3,3.3c1.6,0,2.3-1.2,2.3-3.3c0-2-0.7-3.3-2.3-3.3
			C-11.6,211.5-12.4,212.8-12.4,214.8z"/>
		<path class="st13" d="M-3.9,210.6h1.4v1.6h0c0.4-0.9,1.4-1.7,2.7-1.7h0.1v1.5H0.1c-1.5,0-2.5,0.9-2.5,2.5v4.6h-1.4V210.6z"/>
		<path class="st13" d="M4.6,208.2v2.4h2.1v1.1H4.6v5c0,0.9,0.4,1.2,1.3,1.2c0.4,0,0.9-0.1,0.9-0.1v1.2c0,0-0.6,0.1-1.3,0.1
			c-1.6,0-2.3-0.8-2.3-2.2v-5.2H1.6v-1.1h0.3c1.1,0,1.4-0.3,1.4-1.9v-0.6H4.6z"/>
		<path class="st13" d="M17.6,213.9h-2.7v5.2h-1.5v-12.2h4.4c0.9,0,1.7,0.2,2.4,0.5c1,0.5,1.6,1.5,1.6,2.9c0,2.3-1.5,3.1-2.6,3.4v0
			l2.7,5.4h-1.7L17.6,213.9z M17.7,212.6c1.4,0,2.5-0.7,2.5-2.4c0-1.5-1-2.2-2.4-2.2h-2.9v4.6H17.7z"/>
		<path class="st13" d="M25.6,213c0,3.2,1.4,5.1,3.9,5.1c2.3,0,3.7-1.3,3.7-3.7v-0.2h-3.5v-1.3h5v6.2h-1.3v-1.8h-0.1
			c-0.6,1.1-1.8,2-3.8,2c-3.1,0-5.4-2-5.4-6.3c0-4,2.4-6.4,5.6-6.4c2.5,0,4.3,1.3,4.6,3.4h-1.6c-0.2-1.4-1.5-2.2-3.1-2.2
			C26.9,207.8,25.6,209.9,25.6,213z"/>
		<path class="st13" d="M38,219.1v-12.2h4.8c2.1,0,3.8,1,3.8,3c0,1.5-0.8,2.4-2.2,2.7v0c1.5,0.3,2.6,1.5,2.6,2.9
			c0,2.8-2.1,3.6-4.5,3.6H38z M42.5,212c1.3,0,2.5-0.5,2.5-2c0-1.3-0.9-1.9-2.3-1.9h-3.2v4H42.5z M42.5,217.9c1.8,0,3-0.6,3-2.4
			c0-1.6-1.2-2.2-3.1-2.2h-2.8v4.7H42.5z"/>
		<path class="st13" d="M56.2,221.1c-0.9-1.8-2.1-4.1-2.1-7.3c0-3.2,1.2-5.5,2.1-7.3h1.1c-0.9,2-1.7,4.1-1.7,7.3
			c0,3.3,0.8,5.4,1.7,7.3H56.2z"/>
		<path class="st13" d="M66.2,219.1h-1.4v-1.4h0c-0.4,0.8-1.4,1.6-2.7,1.6c-1.8,0-3.4-1.1-3.4-4.4c0-2.9,1.5-4.5,3.6-4.5
			c1.3,0,2.1,0.7,2.4,1.5h0v-5.5h1.4V219.1z M64.8,214.5c0-1.8-0.9-2.9-2.3-2.9c-1.6,0-2.4,1.3-2.4,3.3c0,1.9,0.6,3.3,2.2,3.3
			c1.5,0,2.4-1.2,2.4-2.7V214.5z"/>
		<path class="st13" d="M69.4,207.1h1.5v1.6h-1.5V207.1z M69.4,210.6h1.5v8.4h-1.5V210.6z"/>
		<path class="st13" d="M73.5,219.9h1.4c0.2,0.7,0.7,1.2,2.1,1.2c1.6,0,2.4-0.6,2.4-2.4v-1.2h0c-0.4,0.8-1.4,1.6-2.7,1.6
			c-1.8,0-3.4-1.1-3.4-4.2c0-2.8,1.5-4.3,3.6-4.3c1.4,0,2.2,0.8,2.5,1.5h0v-1.3h1.4v8.2c0,2.4-1.6,3.4-3.8,3.4
			C75.3,222.2,73.7,221.6,73.5,219.9z M79.4,214.4c0-1.7-0.9-2.8-2.4-2.8c-1.5,0-2.2,1.3-2.2,3.2c0,1.9,0.5,3.1,2.3,3.1
			c1.4,0,2.3-1.2,2.3-2.6V214.4z"/>
		<path class="st13" d="M83.9,207.1h1.5v1.6h-1.5V207.1z M83.9,210.6h1.5v8.4h-1.5V210.6z"/>
		<path class="st13" d="M90.3,208.2v2.4h2.1v1.1h-2.1v5c0,0.9,0.4,1.2,1.3,1.2c0.4,0,0.9-0.1,0.9-0.1v1.2c0,0-0.6,0.1-1.3,0.1
			c-1.6,0-2.3-0.8-2.3-2.2v-5.2h-1.5v-1.1h0.3c1.1,0,1.4-0.3,1.4-1.9v-0.6H90.3z"/>
		<path class="st13" d="M94.8,212.9c0-1.5,1.2-2.5,3.2-2.5c2.1,0,3.1,0.9,3.1,3.1v3.4c0,0.7,0.1,0.9,0.8,1v1.2h-0.2
			c-1.3,0-1.8-0.5-1.9-1.5h0c-0.4,1-1.5,1.6-2.7,1.6c-1.7,0-2.7-0.9-2.7-2.4c0-0.9,0.4-1.7,1.3-2.1c0.9-0.5,2.2-0.6,4.1-0.7v-0.4
			c0-1.5-0.6-2.1-1.8-2.1c-1.2,0-1.7,0.7-1.8,1.4H94.8z M99.7,215.2V215c-1.8,0.1-2.9,0.2-3.4,0.6c-0.3,0.2-0.5,0.6-0.5,1
			c0,0.9,0.6,1.3,1.5,1.3C98.4,218,99.7,217.3,99.7,215.2z"/>
		<path class="st13" d="M104.2,206.4h1.4v12.6h-1.4V206.4z"/>
		<path class="st13" d="M109.6,213.8c0-3.3-0.8-5.4-1.7-7.3h1.1c0.9,1.8,2.1,4.1,2.1,7.3c0,3.2-1.2,5.5-2.1,7.3h-1.1
			C108.7,219.2,109.6,217,109.6,213.8z"/>
		<path class="st13" d="M118.4,212.9c0-1.5,1.2-2.5,3.2-2.5c2.1,0,3.1,0.9,3.1,3.1v3.4c0,0.7,0.1,0.9,0.8,1v1.2h-0.2
			c-1.3,0-1.8-0.5-1.9-1.5h0c-0.4,1-1.5,1.6-2.7,1.6c-1.7,0-2.7-0.9-2.7-2.4c0-0.9,0.4-1.7,1.3-2.1c0.9-0.5,2.2-0.6,4.1-0.7v-0.4
			c0-1.5-0.6-2.1-1.8-2.1c-1.2,0-1.7,0.7-1.8,1.4H118.4z M123.3,215.2V215c-1.8,0.1-2.9,0.2-3.4,0.6c-0.3,0.2-0.5,0.6-0.5,1
			c0,0.9,0.6,1.3,1.5,1.3C122,218,123.3,217.3,123.3,215.2z"/>
		<path class="st13" d="M133.1,213.9c0-0.6,0-1.3-0.3-1.7c-0.3-0.4-0.8-0.6-1.3-0.6c-1.6,0-2.3,1-2.3,2.4v5.1h-1.4v-8.4h1.4v1.4h0
			c0.4-0.9,1.4-1.6,2.7-1.6c1.6,0,2.7,0.8,2.7,2.8v5.9h-1.4V213.9z"/>
		<path class="st13" d="M144.4,219.1H143v-1.4h0c-0.4,0.8-1.4,1.6-2.7,1.6c-1.8,0-3.4-1.1-3.4-4.4c0-2.9,1.5-4.5,3.6-4.5
			c1.3,0,2.1,0.7,2.4,1.5h0v-5.5h1.4V219.1z M143,214.5c0-1.8-0.9-2.9-2.3-2.9c-1.6,0-2.4,1.3-2.4,3.3c0,1.9,0.6,3.3,2.2,3.3
			c1.5,0,2.4-1.2,2.4-2.7V214.5z"/>
		<path class="st13" d="M153.3,213c0,3.2,1.4,5.1,3.9,5.1c2.2,0,3.1-1.5,3.2-2.8h1.5c-0.2,2.3-2,4.1-4.7,4.1c-3.2,0-5.4-2.1-5.4-6.3
			c0-4,2.3-6.3,5.5-6.3c2.1,0,4.4,1.1,4.7,3.8h-1.6c-0.2-1.2-1.2-2.6-3.1-2.6C154.6,207.8,153.3,209.9,153.3,213z"/>
		<path class="st13" d="M164.7,206.8h2.3l3.1,8.8c0.4,1.1,0.5,1.6,0.5,1.6h0c0,0,0.2-0.5,0.5-1.6l3.2-8.8h2.2v12.2h-1.5v-10.5h0
			c0,0-0.2,0.6-0.7,1.9l-3.1,8.6h-1.4l-3-8.6c-0.4-1.3-0.7-1.9-0.7-1.9h0v10.5h-1.4V206.8z"/>
		<path class="st13" d="M182.9,213.8l-4.3-7h1.7l3.3,5.7h0l3.4-5.7h1.6l-4.3,6.9v5.3h-1.5V213.8z"/>
		<path class="st13" d="M192.2,219.1h-1.5v-12.2h1.5v6.3l5.7-6.3h1.8l-4.7,5.1l5,7.1h-1.8l-4.3-6l-1.8,2V219.1z"/>
		<path class="st13" d="M208.8,221.1c-0.9-1.8-2.1-4.1-2.1-7.3c0-3.2,1.2-5.5,2.1-7.3h1.1c-0.9,2-1.7,4.1-1.7,7.3
			c0,3.3,0.8,5.4,1.7,7.3H208.8z"/>
		<path class="st13" d="M212.1,210.6h1.4v1.4h0c0.5-0.9,1.4-1.6,2.7-1.6c1.8,0,3.4,1.1,3.4,4.3c0,3.1-1.6,4.5-3.5,4.5
			c-1.2,0-2.2-0.7-2.5-1.4h0v4.2h-1.4V210.6z M215.9,218.1c1.5,0,2.2-1.2,2.2-3.4c0-1.8-0.5-3.2-2.3-3.2c-1.5,0-2.4,1.3-2.4,2.7v0.9
			C213.5,216.8,214.3,218.1,215.9,218.1z"/>
		<path class="st13" d="M222,210.6h1.4v1.6h0c0.4-0.9,1.4-1.7,2.7-1.7h0.1v1.5H226c-1.5,0-2.5,0.9-2.5,2.5v4.6H222V210.6z"/>
		<path class="st13" d="M228.4,207.1h1.5v1.6h-1.5V207.1z M228.5,210.6h1.5v8.4h-1.5V210.6z"/>
		<path class="st13" d="M238.4,213.9c0-0.6,0-1.3-0.3-1.7c-0.3-0.4-0.8-0.6-1.3-0.6c-1.6,0-2.3,1-2.3,2.4v5.1h-1.4v-8.4h1.4v1.4h0
			c0.4-0.9,1.4-1.6,2.7-1.6c1.6,0,2.7,0.8,2.7,2.8v5.9h-1.4V213.9z"/>
		<path class="st13" d="M244.7,208.2v2.4h2.1v1.1h-2.1v5c0,0.9,0.4,1.2,1.3,1.2c0.4,0,0.9-0.1,0.9-0.1v1.2c0,0-0.6,0.1-1.3,0.1
			c-1.6,0-2.3-0.8-2.3-2.2v-5.2h-1.5v-1.1h0.3c1.1,0,1.4-0.3,1.4-1.9v-0.6H244.7z"/>
		<path class="st13" d="M250.1,213.8c0-3.3-0.8-5.4-1.7-7.3h1.1c0.9,1.8,2.1,4.1,2.1,7.3c0,3.2-1.2,5.5-2.1,7.3h-1.1
			C249.2,219.2,250.1,217,250.1,213.8z"/>
		<path class="st13" d="M258.1,210.6h1.5l1.8,5.4c0.2,0.7,0.4,1.3,0.4,1.3h0c0,0,0.2-0.6,0.4-1.3l1.9-5.4h1.4l-2.9,8.4h-1.5
			L258.1,210.6z"/>
		<path class="st13" d="M270.5,219.3c-2.6,0-3.8-1.9-3.8-4.4c0-2.5,1.3-4.5,3.8-4.5c2.5,0,3.5,2,3.5,4.1v0.7h-5.8
			c0.1,1.7,0.8,2.9,2.4,2.9c1.4,0,1.8-0.8,1.9-1.3h1.4C273.6,218.3,272.3,219.3,270.5,219.3z M272.5,214c0-1.4-0.6-2.5-2.1-2.5
			c-1.3,0-2.1,1.1-2.3,2.6L272.5,214L272.5,214z"/>
		<path class="st13" d="M276.4,210.6h1.4v1.6h0c0.4-0.9,1.4-1.7,2.7-1.7h0.1v1.5h-0.3c-1.5,0-2.5,0.9-2.5,2.5v4.6h-1.4V210.6z"/>
		<path class="st13" d="M286.8,212.7c-0.1-0.8-0.7-1.2-1.7-1.2s-1.6,0.6-1.6,1.4c0,0.7,0.4,1,1.3,1.2l1.3,0.2c1.8,0.3,2.4,1,2.4,2.4
			c0,1.7-1.4,2.6-3.3,2.6c-1.7,0-3.2-0.8-3.3-2.6h1.4c0.1,0.7,0.4,1.5,1.9,1.5c1.2,0,1.9-0.5,1.9-1.4c0-0.7-0.2-1-1.3-1.2l-1.3-0.2
			c-1.5-0.2-2.3-0.9-2.3-2.3c0-1.5,1.1-2.6,3.1-2.6c1.8,0,2.9,0.8,3,2.3H286.8z"/>
		<path class="st13" d="M290.9,207.1h1.5v1.6h-1.5V207.1z M290.9,210.6h1.5v8.4h-1.5V210.6z"/>
		<path class="st13" d="M294.8,214.8c0-2.6,1.4-4.4,3.8-4.4c2.5,0,3.8,1.8,3.8,4.4c0,2.6-1.4,4.4-3.8,4.4
			C296.1,219.3,294.8,217.5,294.8,214.8z M296.3,214.8c0,2.1,0.7,3.3,2.3,3.3c1.6,0,2.3-1.2,2.3-3.3c0-2-0.7-3.3-2.3-3.3
			C297,211.5,296.3,212.8,296.3,214.8z"/>
		<path class="st13" d="M310.1,213.9c0-0.6,0-1.3-0.3-1.7c-0.3-0.4-0.8-0.6-1.3-0.6c-1.6,0-2.3,1-2.3,2.4v5.1h-1.4v-8.4h1.4v1.4h0
			c0.4-0.9,1.4-1.6,2.7-1.6c1.6,0,2.7,0.8,2.7,2.8v5.9h-1.4V213.9z"/>
		<path class="st13" d="M318.8,212.7c-0.1-0.8-0.7-1.2-1.7-1.2s-1.6,0.6-1.6,1.4c0,0.7,0.4,1,1.3,1.2l1.3,0.2c1.8,0.3,2.4,1,2.4,2.4
			c0,1.7-1.4,2.6-3.3,2.6c-1.7,0-3.2-0.8-3.3-2.6h1.4c0.1,0.7,0.4,1.5,1.9,1.5c1.2,0,1.9-0.5,1.9-1.4c0-0.7-0.2-1-1.3-1.2l-1.3-0.2
			c-1.5-0.2-2.3-0.9-2.3-2.3c0-1.5,1.1-2.6,3.1-2.6c1.8,0,2.9,0.8,3,2.3H318.8z"/>
		<path class="st13" d="M322.4,217.1h2v2h-2V217.1z"/>
	</g>
</g>
</svg>
