<?xml version="1.0" encoding="utf-8"?>
<!-- Generator: Adobe Illustrator 24.1.0, SVG Export Plug-In . SVG Version: 6.00 Build 0)  -->
<svg version="1.1" id="Layer_1" xmlns="http://www.w3.org/2000/svg" xmlns:xlink="http://www.w3.org/1999/xlink" x="0px" y="0px"
	 viewBox="0 0 32 32" style="enable-background:new 0 0 32 32;" xml:space="preserve">
<style type="text/css">
	.st0{fill:#76B900;}
	.st1{fill:#333333;}
</style>
<path class="st0" d="M16,0L16,0C7.1,0,0,7.2,0,16s7.1,16,15.9,16H16c8.8,0,16-7.2,16-16S24.8,0,16,0z M16,29.1L16,29.1
	C8.7,29.1,2.9,23.2,2.9,16S8.7,2.9,15.9,2.9H16c7.3,0,13.1,5.9,13.1,13.1S23.3,29.1,16,29.1z"/>
<ellipse class="st1" cx="16" cy="16" rx="13.4" ry="13.6"/>
<g>
	<path class="st0" d="M13.5,15.5c0,0,0.5,2.2,2.5,2.9c0,0,0,0,0,0v1c0,0-2.9-0.2-4.3-4.1c0,0,2-1.9,4.3-2.1h0v1.2h0
		C15.9,14.4,14.7,14,13.5,15.5z"/>
	<path class="st0" d="M10,15.2c0,0,1.6,5,5.9,5.4c0,0,0,0,0,0v1.2c-0.4,0-5.5-0.3-8.2-6.9c0,0,4.2-3.8,8.2-4v1.1
		C15.9,11.9,12.2,12,10,15.2z"/>
	<path class="st0" d="M22.3,15c-3.4,4.5-6.1,3.5-6.3,3.4v-4c1.6,0,2.6,2.2,2.6,2.2l1.8-1.6c-1.1-1.1-2.1-1.9-4.4-1.7v-1.3
		C20,11.6,22.3,15,22.3,15z"/>
	<path class="st0" d="M32,16c0,8.8-7.2,16-16,16h-0.1V21.8c0,0,0,0,0,0c6.4,0.5,12.1-3.6,12.1-3.6l-2.5-1.5c-5,4.8-9.3,4-9.6,4v-1.2
		c4.2,1,8.7-4.5,8.7-4.5c-2.4-2.4-4.7-4.3-8.7-4V0H16C24.8,0,32,7.2,32,16z"/>
</g>
</svg>
