<?xml version="1.0" encoding="utf-8"?>
<!-- Generator: Adobe Illustrator 24.1.0, SVG Export Plug-In . SVG Version: 6.00 Build 0)  -->
<svg version="1.1" xmlns="http://www.w3.org/2000/svg" xmlns:xlink="http://www.w3.org/1999/xlink" x="0px" y="0px"
	 viewBox="0 0 216 174" style="enable-background:new 0 0 216 174;" xml:space="preserve">
<style type="text/css">
	.st0{display:none;}
	.st1{display:inline;}
	.st2{clip-path:url(#SVGID_2_);}
	.st3{clip-path:url(#SVGID_4_);fill:#565656;}
	.st4{display:inline;opacity:0.5;fill:#CCCCCC;}
	.st5{clip-path:url(#SVGID_6_);}
	.st6{clip-path:url(#SVGID_8_);fill:#565656;}
	.st7{fill:#555655;}
	.st8{fill:#999999;}
	.st9{fill:#989898;}
</style>
<g id="Your_design">
	<g>
		<path d="M43.6,59.4L50.1,73l22.9-8.6c-0.1,3.3-0.5,9.4-1.3,18.2c-7.5-4-15.3-6-23.3-6c-8.2,0-16.2,2.1-23.9,6.3
			c-7.8,4.2-13.8,10.2-18.1,18c-4.3,7.8-6.5,15.9-6.5,24.3c0,7,1.5,13.7,4.4,20.2c0.6,1.3,1.3,2.6,2,4c3.3,5.9,7.6,10.9,12.9,14.7
			c1.6,1.2,3.3,2.2,5,3.2c7.7,4.3,15.8,6.4,24.1,6.4c8.4,0,16.5-2.1,24.3-6.4c2.8-1.5,5.4-3.3,7.7-5.3c13.6-11.6,17.5-29,19.1-46
			c0.4-4,0.8-8,1.2-12c2.5-24.3,6.7-62.2,10.4-90L43.6,59.4z M39.8,147.6c-1.1-0.4-2.3-1-3.3-1.6c-3.9-2.1-6.8-5.1-9-9
			c-1.4-2.6-2.4-5.2-2.9-8c-0.2-1.4-0.4-2.8-0.4-4.2c0-4.3,1.1-8.3,3.3-12.2c2.2-3.9,5.2-6.9,9.1-9c3.9-2.1,7.9-3.1,12-3.1
			c3.2,0,6.3,0.6,9.3,1.9c0.9,0.3,1.7,0.8,2.6,1.2c3.4,1.8,6.2,4.4,8.3,7.6c0.3,0.4,0.6,0.9,0.8,1.3c1.6,2.8,2.6,5.7,3,8.7
			c0.2,1.2,0.3,2.3,0.3,3.5c0,4.2-1.1,8.3-3.2,12.1c-1.3,2.3-2.8,4.3-4.7,6c-1.3,1.1-2.7,2.1-4.3,3c-3.9,2.1-7.9,3.2-12.1,3.2
			C45.5,149.3,42.6,148.7,39.8,147.6z"/>
		<path d="M54.3,114.7c-1.9-1-3.9-1.5-5.9-1.5c-1.8,0-3.5,0.4-5.2,1.2c-0.3,0.1-0.5,0.3-0.8,0.4c-1.5,0.8-2.7,1.8-3.6,3.1
			c-0.3,0.4-0.6,0.9-0.8,1.3c-1.1,1.9-1.6,4-1.6,6.1c0,2,0.5,4,1.6,5.9c1,1.9,2.5,3.4,4.4,4.5c1.9,1.1,3.9,1.6,6.1,1.6
			c2.1,0,4.1-0.5,6-1.6c1.9-1.1,3.4-2.6,4.4-4.5c1.1-1.9,1.6-3.9,1.6-5.9c0-2.2-0.5-4.2-1.6-6.1C57.7,117.2,56.2,115.8,54.3,114.7z"
			/>
	</g>
	<g>
		<path d="M149.3,94.1c1.9,1.4,3.9,2.2,6.1,2.5c2.2,0.3,4.4,0,6.5-0.9c2.1-0.8,3.9-2.2,5.2-4.1c1.4-1.9,2.2-3.8,2.4-5.9
			c0.3-2.3,0-4.5-0.9-6.6c-0.9-2.1-2.2-3.9-4.1-5.2c-1.1-0.8-2.3-1.4-3.6-1.9c-0.8-0.3-1.6-0.4-2.4-0.6c-0.8-0.1-1.7-0.1-2.5-0.1
			c-1,0.1-2.1,0.3-3.1,0.6c-0.3,0.1-0.6,0.2-0.8,0.3c-1.6,0.6-3,1.5-4.2,2.8c-0.4,0.4-0.7,0.8-1.1,1.3c-1.4,1.9-2.2,3.9-2.5,6.2
			c-0.3,2.1,0,4.2,0.8,6.4C146.1,91,147.5,92.7,149.3,94.1z"/>
		<path d="M164.9,24.3c21.6,2.8,38.9,17,46.7,35.7l4.5-35c-12.5-12.8-29.2-21.6-48.2-24c-7.8-1-15.5-0.9-22.9,0.3
			c-10,1.5-19.5,4.9-28,9.8l-0.1,0l0,0l-4.3,33.6l-2.6,20.2c-0.1,0.2-0.1,0.3-0.2,0.5l0.1,0l26.4,3.4l0.3,0c0.1-0.2,0.3-0.4,0.4-0.6
			c2.8-3.8,6.3-6.5,10.6-8.1c4.3-1.6,8.6-2.2,12.9-1.6c3.3,0.4,6.4,1.5,9.4,3.2c0.9,0.5,1.7,1,2.5,1.6c3.8,2.7,6.5,6.2,8.3,10.5
			c0.1,0.2,0.2,0.4,0.3,0.7c1.1,2.9,1.7,5.8,1.7,8.8c0,1.2,0,2.5-0.2,3.7c-0.6,4.4-2.2,8.5-4.9,12.2c0,0.1-0.1,0.1-0.1,0.2
			c-2.7,3.6-6.2,6.3-10.4,7.9c-4.3,1.7-8.6,2.3-13,1.7c-3.1-0.4-6.1-1.4-8.9-2.9c-1.1-0.6-2.2-1.3-3.3-2.1
			c-3.7-2.7-6.3-6.1-8.1-10.3l-27.1-3.5c0.4,2.9,1,5.8,1.9,8.7c0.4,1.5,1,2.9,1.5,4.4c2.6,6.6,6.5,12.3,11.5,17.1
			c1.5,1.4,3.1,2.8,4.8,4c7.4,5.5,15.5,8.8,24.3,9.9c8.8,1.1,17.5,0,26.1-3.4c8.6-3.4,15.7-8.8,21.1-16.3c2.8-3.8,5-7.7,6.6-11.8
			c1.6-4,2.7-8.1,3.2-12.4c0.5-4.1,0.5-8.3,0-12.4c-0.4-2.9-1-5.8-1.9-8.7c-0.5-1.7-1.1-3.4-1.8-5c-2.6-6.4-6.3-11.9-11-16.5
			c-1.7-1.7-3.5-3.2-5.5-4.6c-7.5-5.4-15.5-8.6-24-9.7c-7.6-1-15.3-0.2-23.1,2.4l1.3-9.8C149.1,23.9,156.9,23.3,164.9,24.3z"/>
	</g>
</g>
<g id="_x39_9d_logo" class="st0">
	<g class="st1">
		<defs>
			<path id="SVGID_1_" d="M-155.7,8.1c15.7-27.3,50.3-36.6,77.4-20.9C-51.1,3-41.8,37.9-57.5,65.1c-15.7,27.3-50.3,36.6-77.4,20.9
				C-162,70.3-171.3,35.4-155.7,8.1z M60.7,8.1c15.7-27.3,50.3-36.6,77.4-20.9c27.1,15.7,36.4,50.6,20.7,77.9
				c-15.7,27.3-50.3,36.6-77.4,20.9C54.4,70.3,45.1,35.4,60.7,8.1z M363.7,180.2c-11.2,11.3-25.5,16.9-42.9,16.9
				c-8.4,0-16.2-1.5-23.6-4.5c-7.3-3-13.5-7.1-18.7-12.4c-5.1-5.3-9.2-11.6-12.1-19c-3-7.4-4.4-15.4-4.4-24.2
				c0-8.5,1.5-16.4,4.4-23.7c3-7.4,7.1-13.6,12.4-18.8c5.3-5.2,11.6-9.2,18.9-12.2c7.3-3,15.3-4.5,24-4.5c8.4,0,16.2,1.5,23.3,4.5
				c7.1,3,13.4,7.1,18.6,12.4c5.3,5.3,9.4,11.5,12.4,18.5c3,7,4.4,14.8,4.4,23.2C380.5,154.5,374.9,169,363.7,180.2z M1.6,97.8
				c10.5,18.9,26.1,35.3,46.2,47c16.8,9.8,35,15,53.1,16.3l-54,94.1h80.8l64.4-112.2c0.5,16.2,3.4,31.2,8.5,44.9
				c5.8,15.3,13.8,28.5,24.3,39.6c10.4,11.1,22.8,19.8,37.1,26.1c14.3,6.3,30,9.4,47.1,9.4c16.2,0,29.8-2.6,40.8-7.7
				c11-5.2,21.2-13.5,30.6-25.1v24.9h66.3v-336h-70V40c-9.6-9.4-19.9-16.4-30.8-20.9c-10.9-4.5-23.7-6.8-38.3-6.8
				c-16.5,0-31.8,3.1-45.9,9.4c-10.3,4.6-19.6,10.4-27.9,17.5c0.9-44-21.5-87.1-62-110.7C112.5-106,36.6-85.5,2.4-25.8
				c-0.2,0.4-0.5,0.9-0.7,1.3c-10.5-18.9-26.1-35.3-46.2-47c-59.4-34.5-135.3-14-169.5,45.7c-34.3,59.7-13.9,136.1,45.4,170.5
				c16.8,9.8,35,15,53.1,16.3l-54,94.1h80.8L0.9,99C1.1,98.6,1.4,98.2,1.6,97.8L1.6,97.8z"/>
		</defs>
		<clipPath id="SVGID_2_">
			<use xlink:href="#SVGID_1_"  style="overflow:visible;"/>
		</clipPath>
		<g class="st2">
			<defs>
				<rect id="SVGID_3_" x="-777.5" y="-798.8" width="1770.8" height="1770.8"/>
			</defs>
			<clipPath id="SVGID_4_">
				<use xlink:href="#SVGID_3_"  style="overflow:visible;"/>
			</clipPath>
			<rect x="-241.8" y="-99.3" class="st3" width="699.6" height="373.2"/>
		</g>
	</g>
</g>
<g id="Guides">
</g>
<g id="TEMPLATE__x28_delete_x29_" class="st0">
	<path class="st4" d="M-392-413V587H608V-413H-392z M408,387h-600v-600h600V387z"/>
	<g class="st1">
		<defs>
			<path id="SVGID_5_" d="M-144.5-118.1c2-3.5,6.4-4.6,9.8-2.6c3.4,2,4.6,6.4,2.6,9.9c-2,3.5-6.4,4.6-9.8,2.6
				C-145.3-110.2-146.5-114.6-144.5-118.1z M-115.9-118.1c2-3.5,6.4-4.6,9.8-2.6c3.4,2,4.6,6.4,2.6,9.9c-2,3.5-6.4,4.6-9.8,2.6
				C-116.7-110.2-117.9-114.6-115.9-118.1z M-72.6-96.3c-1.4,1.4-3.2,2.1-5.4,2.1c-1.1,0-2.1-0.2-3-0.6c-0.9-0.4-1.7-0.9-2.4-1.6
				c-0.7-0.7-1.2-1.5-1.5-2.4c-0.4-0.9-0.6-2-0.6-3.1c0-1.1,0.2-2.1,0.6-3c0.4-0.9,0.9-1.7,1.6-2.4c0.7-0.7,1.5-1.2,2.4-1.5
				c0.9-0.4,1.9-0.6,3-0.6c1.1,0,2.1,0.2,3,0.6c0.9,0.4,1.7,0.9,2.4,1.6c0.7,0.7,1.2,1.5,1.6,2.3c0.4,0.9,0.6,1.9,0.6,2.9
				C-70.5-99.5-71.2-97.7-72.6-96.3z M-71-129.4v15.3c-1.2-1.2-2.5-2.1-3.9-2.7c-1.4-0.6-3-0.9-4.9-0.9c-2.1,0-4,0.4-5.8,1.2
				c-1.8,0.8-3.3,1.9-4.6,3.3c-1.3,1.4-2.3,3.1-3.1,5c-0.7,1.9-1.1,4-1.1,6.3c0,2.3,0.4,4.5,1.1,6.4c0.7,1.9,1.8,3.6,3.1,5
				c1.3,1.4,2.9,2.5,4.7,3.3c1.8,0.8,3.8,1.2,6,1.2c2.1,0,3.8-0.3,5.2-1c1.4-0.7,2.7-1.7,3.9-3.2v3.2h8.4v-42.6H-71z M-124-121.1
				c0.2-0.4,0.4-0.9,0.7-1.3c4.3-7.6,14-10.2,21.5-5.8c7.5,4.4,10.1,14.1,5.8,21.6l-11.4,19.8h-10.2l6.8-11.9
				c-2.3-0.2-4.6-0.8-6.7-2.1c-2.9-1.7-5.1-4.2-6.4-7.1c-0.2,0.4-0.4,0.9-0.7,1.3L-136-86.8h-10.2l6.8-11.9
				c-2.3-0.2-4.6-0.8-6.7-2.1c-7.5-4.4-10.1-14.1-5.8-21.6c4.3-7.6,14-10.2,21.5-5.8C-127.5-126.5-125.3-124-124-121.1z
				 M-51.3-104.8c0.4-1.7,1.1-2.9,2.3-3.8c1.2-0.9,2.6-1.3,4.3-1.3c1.7,0,3.2,0.5,4.4,1.4c1.2,0.9,2,2.2,2.3,3.7H-51.3z
				 M-30.4-107.7c-0.8-2-1.9-3.7-3.3-5.1c-1.4-1.4-3-2.6-5-3.4c-1.9-0.8-4-1.2-6.2-1.2c-2.1,0-4.1,0.4-6,1.2c-1.9,0.8-3.5,2-4.9,3.4
				c-1.4,1.4-2.5,3.1-3.3,5c-0.8,1.9-1.2,4-1.2,6.2c0,2.2,0.4,4.3,1.2,6.2c0.8,1.9,1.9,3.6,3.3,5c1.4,1.4,3,2.5,4.9,3.4
				c1.9,0.8,3.9,1.2,6.1,1.2c3.1,0,6-0.9,8.5-2.7c2.4-1.7,4.3-4.1,5.7-7.1h-9.2c-0.9,0.9-1.8,1.5-2.6,1.8c-0.8,0.3-1.7,0.5-2.8,0.5
				c-1.8,0-3.2-0.5-4.4-1.5c-1.2-1-1.9-2.3-2.1-4h22.1C-29-101.8-29.2-104.8-30.4-107.7z M-4.8-108.1c-0.4-5.8-5-9.3-11.3-9.3
				c-6,0-11.5,3.8-11.5,9.6c0,3.5,2,6.4,9.4,8.7c4.4,1.4,5.4,2.2,5.4,3.9c0,1.4-1.5,2.3-3.1,2.3c-1.8,0-3.1-0.9-3.4-2.7H-28
				c0.6,6,5.4,9.8,12,9.8c6.7,0,12-3.9,12-10.1c0-4.3-2.3-7.1-9.3-9c-4.1-1.1-5.5-1.9-5.5-3.5c0-1.1,1.1-2,2.6-2
				c1.4,0,2.7,0.5,2.7,2.2H-4.8z M2.9-119.6c2.9,0,5.3-2.4,5.3-5.3c0-2.9-2.4-5.3-5.3-5.3c-2.9,0-5.3,2.4-5.3,5.3
				C-2.4-122,0-119.6,2.9-119.6z M7.3-86.8h-8.8v-29.7h8.8V-86.8z M24.2-110.8c2.7,0,4.9,2.2,4.9,4.9c0,2.7-2.2,4.9-4.9,4.9
				c-2.7,0-4.9-2.2-4.9-4.9C19.3-108.6,21.5-110.8,24.2-110.8z M30.4-80.7c-1,1.4-2.9,1.9-4.5,1.9c-1.9,0.1-4.5-0.3-5.7-1.9
				c-1.2-1.5-1-3.6,0.7-4.6c0.5-0.3,1-0.5,1.5-0.6h4.4c1.9,0,4.4,0.5,4.3,2.9C31.1-82.1,30.8-81.3,30.4-80.7z M21.8-92.6
				c-3.6-0.6-3.5-2-2.6-2.7c8.2,3.1,18.1-0.8,18.2-10.3c0-3.5-1.3-5.7-2.2-6.7c0.7-1.4,1.6-2.2,3.4-2.6l-3.7-6.5
				c-3.4,0.3-5.6,2.4-6.6,4.5c-2-0.8-6.1-0.9-9.3,0.3c-1.6,0.6-3,1.4-4.2,2.5c-1.2,1-2.1,2.3-2.8,3.8c-0.7,1.5-1,3.1-1,4.8
				c0,2.3,0.7,4.9,2,6.8c-3.6,3.5-3.4,8.7,0.3,12c-0.4,0.3-0.8,0.6-1.1,1c-3.3,3.6-1.8,8.7,2.1,11.3c4.8,3.5,13.4,3.7,18.7,1.3
				c9.3-3.8,9.6-17.6-1.2-19.4C28.8-93,25.4-92.1,21.8-92.6z M40.8-86.8h8.9v-16.6c0-3.9,1.7-5.8,5-5.8c1.6,0,2.8,0.5,3.5,1.5
				c0.7,1,1.1,2.6,1.1,4.7v16.2h8.9v-18.6c0-1.2-0.1-2.2-0.1-3.1c-0.1-0.9-0.3-1.7-0.5-2.4c-0.2-0.7-0.5-1.3-0.9-1.9
				c-0.4-0.6-0.9-1.1-1.4-1.7c-0.9-0.9-2.1-1.7-3.5-2.2c-1.4-0.5-2.9-0.8-4.4-0.8c-1.9,0-3.5,0.3-4.7,1c-1.2,0.7-2.4,1.7-3.4,3.2
				v-3.1h-8.4V-86.8z M93.1-108.1c-0.4-5.8-5-9.3-11.3-9.3c-6,0-11.5,3.8-11.5,9.6c0,3.5,2,6.4,9.4,8.7c4.4,1.4,5.4,2.2,5.4,3.9
				c0,1.4-1.5,2.3-3.1,2.3c-1.8,0-3.1-0.9-3.4-2.7H70c0.6,6,5.4,9.8,12,9.8c6.7,0,12-3.9,12-10.1c0-4.3-2.3-7.1-9.3-9
				c-4.1-1.1-5.5-1.9-5.5-3.5c0-1.1,1.1-2,2.6-2c1.4,0,2.7,0.5,2.7,2.2H93.1z"/>
		</defs>
		<clipPath id="SVGID_6_">
			<use xlink:href="#SVGID_5_"  style="overflow:visible;"/>
		</clipPath>
		<g class="st5">
			<defs>
				<rect id="SVGID_7_" x="-195.3" y="-270.4" width="330.7" height="330.7"/>
			</defs>
			<clipPath id="SVGID_8_">
				<use xlink:href="#SVGID_7_"  style="overflow:visible;"/>
			</clipPath>
			<rect x="-156.1" y="-132.4" class="st6" width="252.2" height="62.8"/>
		</g>
	</g>
	<g class="st1">
		<path class="st7" d="M-149-27.2h7v3.1h-10.3v-16.8h3.3V-27.2z"/>
		<path class="st7" d="M-127.7-30.2c0,3.8-2.7,6.4-6.4,6.4c-3.6,0-6.4-2.6-6.4-6.4c0-3.8,2.7-6.3,6.4-6.3
			C-130.4-36.5-127.7-34-127.7-30.2z M-137.2-30.2c0,2,1.3,3.5,3.2,3.5c1.9,0,3.1-1.5,3.1-3.5c0-2-1.2-3.5-3.1-3.5
			C-135.9-33.7-137.2-32.2-137.2-30.2z"/>
		<path class="st7" d="M-114.1-33.6h-1.8c0.1,0.4,0.2,0.9,0.2,1.4c0,2.4-2,4.2-4.8,4.2c-0.7,0-1.4-0.1-2-0.3
			c-0.2,0.2-0.3,0.5-0.3,0.9c0,0.6,0.5,1,1.2,1h2.9c2.5,0,4,1.2,4,3.5c0,2.7-2.1,4.2-5.4,4.2c-3.6,0-5.5-1.3-5.5-3.7
			c0-1.1,0.6-1.8,1.2-2.1c-0.7-0.5-1.4-1.4-1.4-2.6c0-1.2,0.5-2,1.2-2.6c-0.5-0.7-0.8-1.5-0.8-2.5c0-2.5,2.1-4.3,4.9-4.3
			c0.6,0,1.2,0.1,1.8,0.3h4.6V-33.6z M-121.3-24.1c-0.7,0.1-1.2,0.6-1.2,1.4c0,1.1,1,1.7,2.5,1.7c1.4,0,2.3-0.6,2.3-1.7
			c0-0.9-0.7-1.3-1.7-1.3H-121.3z M-122.3-32.2c0,1.1,0.7,1.9,1.8,1.9s1.8-0.8,1.8-1.9c0-1.2-0.7-2-1.8-2
			C-121.6-34.2-122.3-33.4-122.3-32.2z"/>
		<path class="st7" d="M-100.2-30.2c0,3.8-2.7,6.4-6.4,6.4c-3.6,0-6.4-2.6-6.4-6.4c0-3.8,2.7-6.3,6.4-6.3
			C-103-36.5-100.2-34-100.2-30.2z M-109.8-30.2c0,2,1.3,3.5,3.2,3.5c1.9,0,3.1-1.5,3.1-3.5c0-2-1.2-3.5-3.1-3.5
			C-108.5-33.7-109.8-32.2-109.8-30.2z"/>
		<path class="st7" d="M-88.7-36.3h2.8v2.8h-2.8l0,4.9c0,1.2,0.4,1.8,1.6,1.8c0.6,0,0.9-0.1,1.3-0.2v2.7c-0.4,0.1-1,0.3-2,0.3
			c-2.7,0-4-1.1-4-3.8l0-5.7h-2v-2.8h2l0-3h3.1L-88.7-36.3z"/>
		<path class="st7" d="M-72.4-30.2v1h-8.5c0.1,1.6,1.2,2.7,2.9,2.7c1.2,0,2.1-0.5,2.4-1.4h3c-0.7,2.6-2.6,4.1-5.6,4.1
			c-3.6,0-6-2.5-6-6.3c0-3.7,2.4-6.4,6-6.4C-74.8-36.5-72.4-34.5-72.4-30.2z M-80.9-31.4h5.3c0-1.5-1-2.5-2.6-2.5
			C-79.7-33.9-80.7-32.9-80.9-31.4z"/>
		<path class="st7" d="M-52.6-32v7.9h-3.1v-7.2c0-1.4-0.6-2.2-1.7-2.2c-1.2,0-2.1,0.9-2.1,2.8v6.6h-3.1v-7.2c0-1.4-0.6-2.2-1.7-2.2
			c-1.2,0-2.1,1-2.1,3v6.4h-3.1v-12.2h2.7l0.2,1.6c0.6-1,1.7-1.8,3.2-1.8c1.7,0,2.9,0.8,3.5,2.1c0.6-1.2,1.8-2.1,3.5-2.1
			C-53.9-36.5-52.6-34.8-52.6-32z"/>
		<path class="st7" d="M-36.7-30.2c0,3.6-2.4,6.4-5.7,6.4c-1.8,0-3-0.7-3.6-1.6v6.5h-3.1v-17.3h2.7l0.2,1.6c0.7-1,1.8-1.9,3.9-1.9
			C-39.1-36.5-36.7-33.8-36.7-30.2z M-46.1-30.2v0.1c0,2.1,1.6,3.3,3.1,3.3c1.7,0,3.1-1.3,3.1-3.4c0-2.1-1.3-3.4-3.1-3.4
			C-44.6-33.6-46.1-32.4-46.1-30.2z"/>
		<path class="st7" d="M-30.9-24.1H-34v-17.5h3.1V-24.1z"/>
		<path class="st7" d="M-18-32.1v8h-2.7l-0.2-1.5c-0.6,1-1.8,1.8-3.5,1.8c-2.2,0-3.7-1.3-3.7-3.5c0-2.4,1.6-3.3,3.8-3.6l3.1-0.6V-32
			c0-1.2-0.6-1.8-1.7-1.8c-1,0-1.8,0.6-1.8,1.6h-3c0.1-2.5,2-4.3,4.8-4.3S-18-35.1-18-32.1z M-23.5-29c-0.8,0.2-1.4,0.6-1.4,1.4
			c0,0.7,0.5,1.2,1.4,1.2c0.8,0,1.5-0.4,1.9-1.1c0.3-0.4,0.4-1,0.4-1.6v-0.4L-23.5-29z"/>
		<path class="st7" d="M-10.8-36.3h2.8v2.8h-2.8l0,4.9c0,1.2,0.4,1.8,1.6,1.8c0.6,0,0.9-0.1,1.3-0.2v2.7c-0.4,0.1-1,0.3-2,0.3
			c-2.7,0-4-1.1-4-3.8l0-5.7h-2v-2.8h2l0-3h3.1L-10.8-36.3z"/>
		<path class="st7" d="M5.5-30.2v1H-3c0.1,1.6,1.2,2.7,2.9,2.7c1.2,0,2.1-0.5,2.4-1.4h3c-0.7,2.6-2.6,4.1-5.6,4.1
			c-3.6,0-6-2.5-6-6.3c0-3.7,2.4-6.4,6-6.4C3.1-36.5,5.5-34.5,5.5-30.2z M-3-31.4h5.3c0-1.5-1-2.5-2.6-2.5
			C-1.8-33.9-2.8-32.9-3-31.4z"/>
		<path class="st8" d="M18.6-40.4c-2,2.7-3,5-3,8.6c0,3.6,1,6,3,8.6l-2.2,1.5c-2.2-2.7-3.7-5.7-3.7-10.1s1.5-7.4,3.7-10.1L18.6-40.4
			z"/>
		<path class="st8" d="M26.5-24.1h-3.3v-11.6h-3.5v-2.8c2.6,0,4-0.6,4.4-2.4h2.4V-24.1z"/>
		<path class="st8" d="M41.3-32.5c0,5.4-2.1,8.7-6,8.7s-6-3.4-6-8.7c0-5.4,2.1-8.7,6-8.7S41.3-37.9,41.3-32.5z M32.7-32.5
			c0,3.6,0.9,5.7,2.6,5.7c1.8,0,2.6-2.1,2.6-5.7c0-3.5-0.9-5.6-2.6-5.6C33.6-38.1,32.7-36.1,32.7-32.5z"/>
		<path class="st8" d="M55.3-32.5c0,5.4-2.1,8.7-6,8.7s-6-3.4-6-8.7c0-5.4,2.1-8.7,6-8.7S55.3-37.9,55.3-32.5z M46.7-32.5
			c0,3.6,0.9,5.7,2.6,5.7c1.8,0,2.6-2.1,2.6-5.7c0-3.5-0.9-5.6-2.6-5.6C47.5-38.1,46.7-36.1,46.7-32.5z"/>
		<path class="st8" d="M69.2-32.5c0,5.4-2.1,8.7-6,8.7s-6-3.4-6-8.7c0-5.4,2.1-8.7,6-8.7S69.2-37.9,69.2-32.5z M60.6-32.5
			c0,3.6,0.9,5.7,2.6,5.7c1.8,0,2.6-2.1,2.6-5.7c0-3.5-0.9-5.6-2.6-5.6C61.5-38.1,60.6-36.1,60.6-32.5z"/>
		<path class="st8" d="M86-32.6l5.7,8.5h-3.9l-4-6.1l-4,6.1h-3.9l5.6-8.5L76-40.9h3.9l3.9,5.8l3.9-5.8h3.9L86-32.6z"/>
		<path class="st8" d="M105-24.1h-3.3v-11.6h-3.5v-2.8c2.6,0,4-0.6,4.4-2.4h2.4V-24.1z"/>
		<path class="st8" d="M119.7-32.5c0,5.4-2.1,8.7-6,8.7c-3.8,0-6-3.4-6-8.7c0-5.4,2.1-8.7,6-8.7C117.6-41.2,119.7-37.9,119.7-32.5z
			 M111.1-32.5c0,3.6,0.9,5.7,2.6,5.7c1.8,0,2.6-2.1,2.6-5.7c0-3.5-0.9-5.6-2.6-5.6C112-38.1,111.1-36.1,111.1-32.5z"/>
		<path class="st8" d="M133.7-32.5c0,5.4-2.1,8.7-6,8.7c-3.8,0-6-3.4-6-8.7c0-5.4,2.1-8.7,6-8.7C131.5-41.2,133.7-37.9,133.7-32.5z
			 M125.1-32.5c0,3.6,0.9,5.7,2.6,5.7c1.8,0,2.6-2.1,2.6-5.7c0-3.5-0.9-5.6-2.6-5.6C125.9-38.1,125.1-36.1,125.1-32.5z"/>
		<path class="st8" d="M147.6-32.5c0,5.4-2.1,8.7-6,8.7c-3.8,0-6-3.4-6-8.7c0-5.4,2.1-8.7,6-8.7C145.5-41.2,147.6-37.9,147.6-32.5z
			 M139-32.5c0,3.6,0.9,5.7,2.6,5.7c1.8,0,2.6-2.1,2.6-5.7c0-3.5-0.9-5.6-2.6-5.6C139.9-38.1,139-36.1,139-32.5z"/>
		<path class="st8" d="M162.9-30.2c0,3.6-2.4,6.4-5.7,6.4c-1.8,0-3-0.7-3.6-1.6v6.5h-3.1v-17.3h2.7l0.2,1.6c0.7-1,1.8-1.9,3.9-1.9
			C160.5-36.5,162.9-33.8,162.9-30.2z M153.5-30.2v0.1c0,2.1,1.6,3.3,3.1,3.3c1.7,0,3.1-1.3,3.1-3.4c0-2.1-1.3-3.4-3.1-3.4
			C155.1-33.6,153.5-32.4,153.5-30.2z"/>
		<path class="st8" d="M172-30.3l3.8,6.2h-3.6l-2.4-3.8l-2.4,3.8h-3.6l3.8-6.2l-3.7-6h3.6l2.2,3.6l2.2-3.6h3.6L172-30.3z"/>
		<path class="st8" d="M182.6-31.8c0,4.4-1.6,7.4-3.8,10.1l-2.2-1.5c2-2.7,3-5,3-8.6c0-3.6-1-6-3-8.6l2.2-1.5
			C181.1-39.2,182.6-36.2,182.6-31.8z"/>
	</g>
	<g class="st1">
		<path class="st9" d="M-150.4,30.2h4.5v1.3h-4.5V30.2z"/>
		<path class="st9" d="M-137.2,31.4v4.7h-1.5V23.9h3.7c2.4,0,4.2,1.1,4.2,3.8c0,2.6-1.8,3.8-4.3,3.8H-137.2z M-135.1,30.2
			c1.8,0,2.8-0.9,2.8-2.6c0-1.8-1-2.6-2.8-2.6h-2.1v5.2H-135.1z"/>
		<path class="st9" d="M-128.7,23.5h1.4v12.6h-1.4V23.5z"/>
		<path class="st9" d="M-124.5,30c0-1.5,1.2-2.5,3.2-2.5c2.1,0,3.1,0.9,3.1,3.1V34c0,0.7,0.1,0.9,0.8,1v1.2h-0.2
			c-1.3,0-1.8-0.5-1.9-1.5h0c-0.4,1-1.5,1.6-2.7,1.6c-1.7,0-2.7-0.9-2.7-2.4c0-0.9,0.4-1.7,1.3-2.1c0.9-0.5,2.2-0.6,4.1-0.7v-0.4
			c0-1.5-0.6-2.1-1.8-2.1c-1.2,0-1.7,0.7-1.8,1.4H-124.5z M-119.6,32.3v-0.2c-1.8,0.1-2.9,0.2-3.4,0.6c-0.3,0.2-0.5,0.6-0.5,1
			c0,0.9,0.6,1.3,1.5,1.3C-120.9,35.1-119.6,34.4-119.6,32.3z"/>
		<path class="st9" d="M-110.1,30.2c-0.1-0.9-0.7-1.6-1.9-1.6c-1.5,0-2.3,1.3-2.3,3.3c0,2,0.6,3.3,2.3,3.3c1.6,0,2-1.2,2.1-1.8h1.3
			c-0.2,2-1.6,2.9-3.4,2.9c-2.4,0-3.7-1.7-3.7-4.4c0-2.6,1.4-4.5,3.8-4.5c1.7,0,3.2,0.8,3.3,2.8H-110.1z"/>
		<path class="st9" d="M-103.2,36.3c-2.6,0-3.8-1.9-3.8-4.4c0-2.5,1.3-4.5,3.8-4.5c2.5,0,3.5,2,3.5,4.1v0.7h-5.8
			c0.1,1.7,0.8,2.9,2.4,2.9c1.4,0,1.8-0.8,1.9-1.3h1.4C-100.1,35.3-101.4,36.3-103.2,36.3z M-101.2,31c0-1.4-0.6-2.5-2.1-2.5
			c-1.3,0-2.1,1.1-2.3,2.6L-101.2,31L-101.2,31z"/>
		<path class="st9" d="M-93.7,27.7h1.4l1.8,5.3c0.3,0.8,0.4,1.3,0.4,1.3h0c0,0,0.1-0.5,0.4-1.3l1.7-5.3h1.4l-3.1,9
			c-0.7,1.9-1.2,2.7-3.1,2.7c-0.3,0-0.6,0-0.9-0.1V38c0.3,0.1,0.6,0.1,0.7,0.1c1.1,0,1.4-0.4,1.8-1.5l0.2-0.4L-93.7,27.7z"/>
		<path class="st9" d="M-85.1,31.9c0-2.6,1.4-4.4,3.8-4.4c2.5,0,3.8,1.8,3.8,4.4c0,2.6-1.4,4.4-3.8,4.4
			C-83.9,36.3-85.1,34.5-85.1,31.9z M-83.6,31.9c0,2.1,0.7,3.3,2.3,3.3c1.6,0,2.3-1.2,2.3-3.3c0-2-0.7-3.3-2.3-3.3
			C-82.9,28.6-83.6,29.8-83.6,31.9z"/>
		<path class="st9" d="M-73.8,32.8c0,0.6,0,1.3,0.3,1.7c0.3,0.4,0.7,0.6,1.3,0.6c1.6,0,2.3-1,2.3-2.9v-4.6h1.4v8.4h-1.4v-1.4h0
			c-0.4,0.9-1.3,1.6-2.7,1.6c-1.6,0-2.7-0.8-2.7-2.8v-5.9h1.4V32.8z"/>
		<path class="st9" d="M-65.3,27.7h1.4v1.6h0c0.4-0.9,1.4-1.7,2.7-1.7h0.1V29h-0.3c-1.5,0-2.5,0.9-2.5,2.5v4.6h-1.4V27.7z"/>
		<path class="st9" d="M-54.3,23.5h1.4v12.6h-1.4V23.5z"/>
		<path class="st9" d="M-50.5,31.9c0-2.6,1.4-4.4,3.8-4.4c2.5,0,3.8,1.8,3.8,4.4c0,2.6-1.4,4.4-3.8,4.4
			C-49.2,36.3-50.5,34.5-50.5,31.9z M-49,31.9c0,2.1,0.7,3.3,2.3,3.3c1.6,0,2.3-1.2,2.3-3.3c0-2-0.7-3.3-2.3-3.3
			C-48.3,28.6-49,29.8-49,31.9z"/>
		<path class="st9" d="M-40.9,36.9h1.4c0.2,0.7,0.7,1.2,2.1,1.2c1.6,0,2.4-0.6,2.4-2.4v-1.2h0c-0.4,0.8-1.4,1.6-2.7,1.6
			c-1.8,0-3.4-1.1-3.4-4.2c0-2.8,1.5-4.3,3.6-4.3c1.4,0,2.2,0.8,2.5,1.5h0v-1.3h1.4v8.2c0,2.4-1.6,3.4-3.8,3.4
			C-39.1,39.3-40.7,38.7-40.9,36.9z M-35,31.4c0-1.7-0.9-2.8-2.4-2.8c-1.5,0-2.2,1.3-2.2,3.2c0,1.9,0.5,3.1,2.3,3.1
			c1.4,0,2.3-1.2,2.3-2.6V31.4z"/>
		<path class="st9" d="M-31.2,31.9c0-2.6,1.4-4.4,3.8-4.4c2.5,0,3.8,1.8,3.8,4.4c0,2.6-1.4,4.4-3.8,4.4
			C-29.9,36.3-31.2,34.5-31.2,31.9z M-29.7,31.9c0,2.1,0.7,3.3,2.3,3.3c1.6,0,2.3-1.2,2.3-3.3c0-2-0.7-3.3-2.3-3.3
			C-29,28.6-29.7,29.8-29.7,31.9z"/>
		<path class="st9" d="M-17.8,27.7h1.5l1.6,5.7c0.1,0.5,0.3,1.1,0.3,1.1h0c0,0,0.2-0.6,0.3-1.1l1.8-5.7h1.5l1.8,5.7
			c0.2,0.5,0.3,1.1,0.3,1.1h0c0,0,0.1-0.6,0.3-1.1l1.7-5.7h1.4L-8,36.1h-1.5l-1.5-5c-0.2-0.8-0.5-1.8-0.5-1.8h0c0,0-0.3,1-0.5,1.8
			l-1.6,5h-1.5L-17.8,27.7z"/>
		<path class="st9" d="M-3.3,24.2h1.5v1.6h-1.5V24.2z M-3.3,27.7h1.5v8.4h-1.5V27.7z"/>
		<path class="st9" d="M3.2,25.2v2.4h2.1v1.1H3.2v5c0,0.9,0.4,1.2,1.3,1.2c0.4,0,0.9-0.1,0.9-0.1v1.2c0,0-0.6,0.1-1.3,0.1
			c-1.6,0-2.3-0.8-2.3-2.2v-5.2H0.2v-1.1h0.3c1.1,0,1.4-0.3,1.4-1.9v-0.6H3.2z"/>
		<path class="st9" d="M12.7,30.9c0-0.6,0-1.3-0.3-1.7c-0.3-0.4-0.8-0.6-1.3-0.6c-1.6,0-2.3,1-2.3,2.4v5.1H7.3V23.5h1.4v5.6h0
			c0.4-0.8,1.3-1.6,2.6-1.6c1.6,0,2.7,0.8,2.7,2.8v5.9h-1.4V30.9z"/>
		<path class="st9" d="M17.2,24.2h1.5v1.6h-1.5V24.2z M17.2,27.7h1.5v8.4h-1.5V27.7z"/>
		<path class="st9" d="M27.2,30.9c0-0.6,0-1.3-0.3-1.7c-0.3-0.4-0.8-0.6-1.3-0.6c-1.6,0-2.3,1-2.3,2.4v5.1h-1.4v-8.4h1.4v1.4h0
			c0.4-0.9,1.4-1.6,2.7-1.6c1.6,0,2.7,0.8,2.7,2.8v5.9h-1.4V30.9z"/>
		<path class="st9" d="M38,25.2v2.4h2.1v1.1H38v5c0,0.9,0.4,1.2,1.3,1.2c0.4,0,0.9-0.1,0.9-0.1v1.2c0,0-0.6,0.1-1.3,0.1
			c-1.6,0-2.3-0.8-2.3-2.2v-5.2h-1.5v-1.1h0.3c1.1,0,1.4-0.3,1.4-1.9v-0.6H38z"/>
		<path class="st9" d="M47.6,30.9c0-0.6,0-1.3-0.3-1.7c-0.3-0.4-0.8-0.6-1.3-0.6c-1.6,0-2.3,1-2.3,2.4v5.1h-1.4V23.5h1.4v5.6h0
			c0.4-0.8,1.3-1.6,2.6-1.6c1.6,0,2.7,0.8,2.7,2.8v5.9h-1.4V30.9z"/>
		<path class="st9" d="M55.2,36.3c-2.6,0-3.8-1.9-3.8-4.4c0-2.5,1.3-4.5,3.8-4.5c2.5,0,3.5,2,3.5,4.1v0.7h-5.8
			c0.1,1.7,0.8,2.9,2.4,2.9c1.4,0,1.8-0.8,1.9-1.3h1.4C58.2,35.3,57,36.3,55.2,36.3z M57.2,31c0-1.4-0.6-2.5-2.1-2.5
			c-1.3,0-2.1,1.1-2.3,2.6L57.2,31L57.2,31z"/>
		<path class="st9" d="M70.5,30.2c-0.1-0.9-0.7-1.6-1.9-1.6c-1.5,0-2.3,1.3-2.3,3.3c0,2,0.6,3.3,2.3,3.3c1.6,0,2-1.2,2.1-1.8H72
			c-0.2,2-1.6,2.9-3.4,2.9c-2.4,0-3.7-1.7-3.7-4.4c0-2.6,1.4-4.5,3.8-4.5c1.7,0,3.2,0.8,3.3,2.8H70.5z"/>
		<path class="st9" d="M74.3,27.7h1.4v1.6h0c0.4-0.9,1.4-1.7,2.7-1.7h0.1V29h-0.3c-1.5,0-2.5,0.9-2.5,2.5v4.6h-1.4V27.7z"/>
		<path class="st9" d="M79.8,31.9c0-2.6,1.4-4.4,3.8-4.4c2.5,0,3.8,1.8,3.8,4.4c0,2.6-1.4,4.4-3.8,4.4
			C81.1,36.3,79.8,34.5,79.8,31.9z M81.3,31.9c0,2.1,0.7,3.3,2.3,3.3c1.6,0,2.3-1.2,2.3-3.3c0-2-0.7-3.3-2.3-3.3
			C82.1,28.6,81.3,29.8,81.3,31.9z"/>
		<path class="st9" d="M89.8,27.7h1.4v1.4h0c0.5-0.9,1.4-1.6,2.7-1.6c1.8,0,3.4,1.1,3.4,4.3c0,3.1-1.6,4.5-3.5,4.5
			c-1.2,0-2.2-0.7-2.5-1.4h0v4.2h-1.4V27.7z M93.6,35.2c1.5,0,2.2-1.2,2.2-3.4c0-1.8-0.5-3.2-2.3-3.2c-1.5,0-2.4,1.3-2.4,2.7v0.9
			C91.2,33.9,92,35.2,93.6,35.2z"/>
		<path class="st9" d="M99.7,27.7h1.4v1.4h0c0.5-0.9,1.4-1.6,2.7-1.6c1.8,0,3.4,1.1,3.4,4.3c0,3.1-1.6,4.5-3.5,4.5
			c-1.2,0-2.2-0.7-2.5-1.4h0v4.2h-1.4V27.7z M103.5,35.2c1.5,0,2.2-1.2,2.2-3.4c0-1.8-0.5-3.2-2.3-3.2c-1.5,0-2.4,1.3-2.4,2.7v0.9
			C101.1,33.9,101.9,35.2,103.5,35.2z"/>
		<path class="st9" d="M109.6,24.2h1.5v1.6h-1.5V24.2z M109.7,27.7h1.5v8.4h-1.5V27.7z"/>
		<path class="st9" d="M119.7,30.9c0-0.6,0-1.3-0.3-1.7c-0.3-0.4-0.8-0.6-1.3-0.6c-1.6,0-2.3,1-2.3,2.4v5.1h-1.4v-8.4h1.4v1.4h0
			c0.4-0.9,1.4-1.6,2.7-1.6c1.6,0,2.7,0.8,2.7,2.8v5.9h-1.4V30.9z"/>
		<path class="st9" d="M123.6,36.9h1.4c0.2,0.7,0.7,1.2,2.1,1.2c1.6,0,2.4-0.6,2.4-2.4v-1.2h0c-0.4,0.8-1.4,1.6-2.7,1.6
			c-1.8,0-3.4-1.1-3.4-4.2c0-2.8,1.5-4.3,3.6-4.3c1.4,0,2.2,0.8,2.5,1.5h0v-1.3h1.4v8.2c0,2.4-1.6,3.4-3.8,3.4
			C125.5,39.3,123.8,38.7,123.6,36.9z M129.5,31.4c0-1.7-0.9-2.8-2.4-2.8c-1.5,0-2.2,1.3-2.2,3.2c0,1.9,0.5,3.1,2.3,3.1
			c1.4,0,2.3-1.2,2.3-2.6V31.4z"/>
		<path class="st9" d="M138.1,36.9h1.4c0.2,0.7,0.7,1.2,2.1,1.2c1.6,0,2.4-0.6,2.4-2.4v-1.2h0c-0.4,0.8-1.4,1.6-2.7,1.6
			c-1.8,0-3.4-1.1-3.4-4.2c0-2.8,1.5-4.3,3.6-4.3c1.4,0,2.2,0.8,2.5,1.5h0v-1.3h1.4v8.2c0,2.4-1.6,3.4-3.8,3.4
			C139.9,39.3,138.3,38.7,138.1,36.9z M144,31.4c0-1.7-0.9-2.8-2.4-2.8c-1.5,0-2.2,1.3-2.2,3.2c0,1.9,0.5,3.1,2.3,3.1
			c1.4,0,2.3-1.2,2.3-2.6V31.4z"/>
		<path class="st9" d="M149.8,32.8c0,0.6,0,1.3,0.3,1.7c0.3,0.4,0.7,0.6,1.3,0.6c1.6,0,2.3-1,2.3-2.9v-4.6h1.4v8.4h-1.4v-1.4h0
			c-0.4,0.9-1.3,1.6-2.7,1.6c-1.6,0-2.7-0.8-2.7-2.8v-5.9h1.4V32.8z"/>
		<path class="st9" d="M158.3,24.2h1.5v1.6h-1.5V24.2z M158.3,27.7h1.5v8.4h-1.5V27.7z"/>
		<path class="st9" d="M169.7,36.1h-1.4v-1.4h0c-0.4,0.8-1.4,1.6-2.7,1.6c-1.8,0-3.4-1.1-3.4-4.4c0-2.9,1.5-4.5,3.6-4.5
			c1.3,0,2.1,0.7,2.4,1.5h0v-5.5h1.4V36.1z M168.3,31.5c0-1.8-0.9-2.9-2.3-2.9c-1.6,0-2.4,1.3-2.4,3.3c0,1.9,0.6,3.3,2.2,3.3
			c1.5,0,2.4-1.2,2.4-2.7V31.5z"/>
		<path class="st9" d="M175.9,36.3c-2.6,0-3.8-1.9-3.8-4.4c0-2.5,1.3-4.5,3.8-4.5c2.5,0,3.5,2,3.5,4.1v0.7h-5.8
			c0.1,1.7,0.8,2.9,2.4,2.9c1.4,0,1.8-0.8,1.9-1.3h1.4C179,35.3,177.7,36.3,175.9,36.3z M177.9,31c0-1.4-0.6-2.5-2.1-2.5
			c-1.3,0-2.1,1.1-2.3,2.6L177.9,31L177.9,31z"/>
		<path class="st9" d="M186,29.8c-0.1-0.8-0.7-1.2-1.7-1.2s-1.6,0.6-1.6,1.4c0,0.7,0.4,1,1.3,1.2l1.3,0.2c1.8,0.3,2.4,1,2.4,2.4
			c0,1.7-1.4,2.6-3.3,2.6c-1.7,0-3.2-0.8-3.3-2.6h1.4c0.1,0.7,0.4,1.5,1.9,1.5c1.2,0,1.9-0.5,1.9-1.4c0-0.7-0.2-1-1.3-1.2l-1.3-0.2
			c-1.5-0.2-2.3-0.9-2.3-2.3c0-1.5,1.1-2.6,3.1-2.6c1.8,0,2.9,0.8,3,2.3H186z"/>
		<path class="st9" d="M189.5,34.1h2v2h-2V34.1z"/>
		<path class="st9" d="M-150.4,60.2h4.5v1.3h-4.5V60.2z"/>
		<path class="st9" d="M-133.8,53.7c3,0,5.5,2,5.5,6.3c0,4.4-2.5,6.3-5.5,6.3c-3,0-5.5-2-5.5-6.3C-139.2,55.6-136.7,53.7-133.8,53.7
			z M-129.8,60c0-3.4-1.6-5.2-4-5.2c-2.3,0-3.9,1.7-3.9,5.2c0,3.3,1.6,5.1,3.9,5.1C-131.5,65.2-129.8,63.3-129.8,60z"/>
		<path class="st9" d="M-124.1,62.8c0,0.6,0,1.3,0.3,1.7c0.3,0.4,0.7,0.6,1.3,0.6c1.6,0,2.3-1,2.3-2.9v-4.6h1.4v8.4h-1.4v-1.4h0
			c-0.4,0.9-1.3,1.6-2.7,1.6c-1.6,0-2.7-0.8-2.7-2.8v-5.9h1.4V62.8z"/>
		<path class="st9" d="M-113.8,55.2v2.4h2.1v1.1h-2.1v5c0,0.9,0.4,1.2,1.3,1.2c0.4,0,0.9-0.1,0.9-0.1v1.2c0,0-0.6,0.1-1.3,0.1
			c-1.6,0-2.3-0.8-2.3-2.2v-5.2h-1.5v-1.1h0.3c1.1,0,1.4-0.3,1.4-1.9v-0.6H-113.8z"/>
		<path class="st9" d="M-109.6,53.5h1.4v12.6h-1.4V53.5z"/>
		<path class="st9" d="M-105.1,54.2h1.5v1.6h-1.5V54.2z M-105,57.7h1.5v8.4h-1.5V57.7z"/>
		<path class="st9" d="M-95.1,60.9c0-0.6,0-1.3-0.3-1.7c-0.3-0.4-0.8-0.6-1.3-0.6c-1.6,0-2.3,1-2.3,2.4v5.1h-1.4v-8.4h1.4v1.4h0
			c0.4-0.9,1.4-1.6,2.7-1.6c1.6,0,2.7,0.8,2.7,2.8v5.9h-1.4V60.9z"/>
		<path class="st9" d="M-87.5,66.3c-2.6,0-3.8-1.9-3.8-4.4c0-2.5,1.3-4.5,3.8-4.5c2.5,0,3.5,2,3.5,4.1v0.7h-5.8
			c0.1,1.7,0.8,2.9,2.4,2.9c1.4,0,1.8-0.8,1.9-1.3h1.4C-84.4,65.3-85.7,66.3-87.5,66.3z M-85.5,61c0-1.4-0.6-2.5-2.1-2.5
			c-1.3,0-2.1,1.1-2.3,2.6L-85.5,61L-85.5,61z"/>
		<path class="st9" d="M-77.4,60c0-1.5,1.2-2.5,3.2-2.5c2.1,0,3.1,0.9,3.1,3.1V64c0,0.7,0.1,0.9,0.8,1v1.2h-0.2
			c-1.3,0-1.8-0.5-1.9-1.5h0c-0.4,1-1.5,1.6-2.7,1.6c-1.7,0-2.7-0.9-2.7-2.4c0-0.9,0.4-1.7,1.3-2.1c0.9-0.5,2.2-0.6,4.1-0.7v-0.4
			c0-1.5-0.6-2.1-1.8-2.1c-1.2,0-1.7,0.7-1.8,1.4H-77.4z M-72.5,62.3v-0.2c-1.8,0.1-2.9,0.2-3.4,0.6c-0.3,0.2-0.5,0.6-0.5,1
			c0,0.9,0.6,1.3,1.5,1.3C-73.8,65.1-72.5,64.4-72.5,62.3z"/>
		<path class="st9" d="M-68,53.5h1.4v12.6H-68V53.5z"/>
		<path class="st9" d="M-63.5,53.5h1.4v12.6h-1.4V53.5z"/>
		<path class="st9" d="M-52.6,66.1H-54v-7.3h-1.5v-1.1h1.5v-1.9c0-1.7,1-2.3,2.6-2.3c0.3,0,0.6,0,0.9,0.1v1.2
			c-0.2,0-0.4-0.1-0.8-0.1c-0.8,0-1.2,0.3-1.2,1.3v1.7h2v1.1h-2V66.1z"/>
		<path class="st9" d="M-49.4,61.9c0-2.6,1.4-4.4,3.8-4.4c2.5,0,3.8,1.8,3.8,4.4c0,2.6-1.4,4.4-3.8,4.4
			C-48.1,66.3-49.4,64.5-49.4,61.9z M-47.9,61.9c0,2.1,0.7,3.3,2.3,3.3c1.6,0,2.3-1.2,2.3-3.3c0-2-0.7-3.3-2.3-3.3
			C-47.1,58.6-47.9,59.8-47.9,61.9z"/>
		<path class="st9" d="M-34,60.9c0-0.6,0-1.3-0.3-1.7c-0.3-0.4-0.8-0.6-1.3-0.6c-1.6,0-2.3,1-2.3,2.4v5.1h-1.4v-8.4h1.4v1.4h0
			c0.4-0.9,1.4-1.6,2.7-1.6c1.6,0,2.7,0.8,2.7,2.8v5.9H-34V60.9z"/>
		<path class="st9" d="M-27.7,55.2v2.4h2.1v1.1h-2.1v5c0,0.9,0.4,1.2,1.3,1.2c0.4,0,0.9-0.1,0.9-0.1v1.2c0,0-0.6,0.1-1.3,0.1
			c-1.6,0-2.3-0.8-2.3-2.2v-5.2h-1.5v-1.1h0.3c1.1,0,1.4-0.3,1.4-1.9v-0.6H-27.7z"/>
		<path class="st9" d="M-19.3,59.8c-0.1-0.8-0.7-1.2-1.7-1.2s-1.6,0.6-1.6,1.4c0,0.7,0.4,1,1.3,1.2l1.3,0.2c1.8,0.3,2.4,1,2.4,2.4
			c0,1.7-1.4,2.6-3.3,2.6c-1.7,0-3.2-0.8-3.3-2.6h1.4c0.1,0.7,0.4,1.5,1.9,1.5c1.2,0,1.9-0.5,1.9-1.4c0-0.7-0.2-1-1.3-1.2l-1.3-0.2
			c-1.5-0.2-2.3-0.9-2.3-2.3c0-1.5,1.1-2.6,3.1-2.6c1.8,0,2.9,0.8,3,2.3H-19.3z"/>
		<path class="st9" d="M-9.3,62.8c0,0.6,0,1.3,0.3,1.7c0.3,0.4,0.7,0.6,1.3,0.6c1.6,0,2.3-1,2.3-2.9v-4.6H-4v8.4h-1.4v-1.4h0
			c-0.4,0.9-1.3,1.6-2.7,1.6c-1.6,0-2.7-0.8-2.7-2.8v-5.9h1.4V62.8z"/>
		<path class="st9" d="M3.3,59.8c-0.1-0.8-0.7-1.2-1.7-1.2S0,59.1,0,59.9c0,0.7,0.4,1,1.3,1.2l1.3,0.2c1.8,0.3,2.4,1,2.4,2.4
			c0,1.7-1.4,2.6-3.3,2.6c-1.7,0-3.2-0.8-3.3-2.6h1.4c0.1,0.7,0.4,1.5,1.9,1.5c1.2,0,1.9-0.5,1.9-1.4c0-0.7-0.2-1-1.3-1.2l-1.3-0.2
			c-1.5-0.2-2.3-0.9-2.3-2.3c0-1.5,1.1-2.6,3.1-2.6c1.8,0,2.9,0.8,3,2.3H3.3z"/>
		<path class="st9" d="M10.5,66.3c-2.6,0-3.8-1.9-3.8-4.4c0-2.5,1.3-4.5,3.8-4.5c2.5,0,3.5,2,3.5,4.1v0.7H8.2
			c0.1,1.7,0.8,2.9,2.4,2.9c1.4,0,1.8-0.8,1.9-1.3h1.4C13.6,65.3,12.3,66.3,10.5,66.3z M12.5,61c0-1.4-0.6-2.5-2.1-2.5
			c-1.3,0-2.1,1.1-2.3,2.6L12.5,61L12.5,61z"/>
		<path class="st9" d="M23.2,66.1h-1.4v-1.4h0c-0.4,0.8-1.4,1.6-2.7,1.6c-1.8,0-3.4-1.1-3.4-4.4c0-2.9,1.5-4.5,3.6-4.5
			c1.3,0,2.1,0.7,2.4,1.5h0v-5.5h1.4V66.1z M21.8,61.5c0-1.8-0.9-2.9-2.3-2.9c-1.6,0-2.4,1.3-2.4,3.3c0,1.9,0.6,3.3,2.2,3.3
			c1.5,0,2.4-1.2,2.4-2.7V61.5z"/>
		<path class="st9" d="M30.9,54.2h1.5v1.6h-1.5V54.2z M30.9,57.7h1.5v8.4h-1.5V57.7z"/>
		<path class="st9" d="M40.9,60.9c0-0.6,0-1.3-0.3-1.7c-0.3-0.4-0.8-0.6-1.3-0.6c-1.6,0-2.3,1-2.3,2.4v5.1h-1.4v-8.4h1.4v1.4h0
			c0.4-0.9,1.4-1.6,2.7-1.6c1.6,0,2.7,0.8,2.7,2.8v5.9h-1.4V60.9z"/>
		<path class="st9" d="M49.1,57.7h1.4l1.8,5.3c0.3,0.8,0.4,1.3,0.4,1.3h0c0,0,0.1-0.5,0.4-1.3l1.7-5.3h1.4l-3.1,9
			c-0.7,1.9-1.2,2.7-3.1,2.7c-0.3,0-0.6,0-0.9-0.1V68c0.3,0.1,0.6,0.1,0.7,0.1c1.1,0,1.4-0.4,1.8-1.5l0.2-0.4L49.1,57.7z"/>
		<path class="st9" d="M57.6,61.9c0-2.6,1.4-4.4,3.8-4.4c2.5,0,3.8,1.8,3.8,4.4c0,2.6-1.4,4.4-3.8,4.4
			C58.9,66.3,57.6,64.5,57.6,61.9z M59.1,61.9c0,2.1,0.7,3.3,2.3,3.3c1.6,0,2.3-1.2,2.3-3.3c0-2-0.7-3.3-2.3-3.3
			C59.8,58.6,59.1,59.8,59.1,61.9z"/>
		<path class="st9" d="M69,62.8c0,0.6,0,1.3,0.3,1.7c0.3,0.4,0.7,0.6,1.3,0.6c1.6,0,2.3-1,2.3-2.9v-4.6h1.4v8.4h-1.4v-1.4h0
			c-0.4,0.9-1.3,1.6-2.7,1.6c-1.6,0-2.7-0.8-2.7-2.8v-5.9H69V62.8z"/>
		<path class="st9" d="M77.5,57.7h1.4v1.6h0c0.4-0.9,1.4-1.7,2.7-1.7h0.1V59h-0.3c-1.5,0-2.5,0.9-2.5,2.5v4.6h-1.4V57.7z"/>
		<path class="st9" d="M95.2,66.1h-1.4v-1.4h0c-0.4,0.8-1.4,1.6-2.7,1.6c-1.8,0-3.4-1.1-3.4-4.4c0-2.9,1.5-4.5,3.6-4.5
			c1.3,0,2.1,0.7,2.4,1.5h0v-5.5h1.4V66.1z M93.8,61.5c0-1.8-0.9-2.9-2.3-2.9c-1.6,0-2.4,1.3-2.4,3.3c0,1.9,0.6,3.3,2.2,3.3
			c1.5,0,2.4-1.2,2.4-2.7V61.5z"/>
		<path class="st9" d="M101.4,66.3c-2.6,0-3.8-1.9-3.8-4.4c0-2.5,1.3-4.5,3.8-4.5c2.5,0,3.5,2,3.5,4.1v0.7h-5.8
			c0.1,1.7,0.8,2.9,2.4,2.9c1.4,0,1.8-0.8,1.9-1.3h1.4C104.4,65.3,103.2,66.3,101.4,66.3z M103.4,61c0-1.4-0.6-2.5-2.1-2.5
			c-1.3,0-2.1,1.1-2.3,2.6L103.4,61L103.4,61z"/>
		<path class="st9" d="M111.5,59.8c-0.1-0.8-0.7-1.2-1.7-1.2s-1.6,0.6-1.6,1.4c0,0.7,0.4,1,1.3,1.2l1.3,0.2c1.8,0.3,2.4,1,2.4,2.4
			c0,1.7-1.4,2.6-3.3,2.6c-1.7,0-3.2-0.8-3.3-2.6h1.4c0.1,0.7,0.4,1.5,1.9,1.5c1.2,0,1.9-0.5,1.9-1.4c0-0.7-0.2-1-1.3-1.2l-1.3-0.2
			c-1.5-0.2-2.3-0.9-2.3-2.3c0-1.5,1.1-2.6,3.1-2.6c1.8,0,2.9,0.8,3,2.3H111.5z"/>
		<path class="st9" d="M115.5,54.2h1.5v1.6h-1.5V54.2z M115.6,57.7h1.5v8.4h-1.5V57.7z"/>
		<path class="st9" d="M119.7,66.9h1.4c0.2,0.7,0.7,1.2,2.1,1.2c1.6,0,2.4-0.6,2.4-2.4v-1.2h0c-0.4,0.8-1.4,1.6-2.7,1.6
			c-1.8,0-3.4-1.1-3.4-4.2c0-2.8,1.5-4.3,3.6-4.3c1.4,0,2.2,0.8,2.5,1.5h0v-1.3h1.4v8.2c0,2.4-1.6,3.4-3.8,3.4
			C121.5,69.3,119.8,68.7,119.7,66.9z M125.6,61.4c0-1.7-0.9-2.8-2.4-2.8c-1.5,0-2.2,1.3-2.2,3.2c0,1.9,0.5,3.1,2.3,3.1
			c1.4,0,2.3-1.2,2.3-2.6V61.4z"/>
		<path class="st9" d="M135.5,60.9c0-0.6,0-1.3-0.3-1.7c-0.3-0.4-0.8-0.6-1.3-0.6c-1.6,0-2.3,1-2.3,2.4v5.1h-1.4v-8.4h1.4v1.4h0
			c0.4-0.9,1.4-1.6,2.7-1.6c1.6,0,2.7,0.8,2.7,2.8v5.9h-1.4V60.9z"/>
		<path class="st9" d="M139.4,64.1h2v2h-2V64.1z"/>
		<path class="st9" d="M-150.4,90.2h4.5v1.3h-4.5V90.2z"/>
		<path class="st9" d="M-138.7,83.9h7.8v1.3h-6.3v4.1h5.8v1.3h-5.8v4.2h6.4v1.3h-7.9V83.9z"/>
		<path class="st9" d="M-126.1,91.7l-2.7-4.1h1.7l1.8,2.9h0l1.9-2.9h1.6l-2.7,4l2.9,4.4h-1.7l-2.1-3.3h0l-2.1,3.3h-1.6L-126.1,91.7z
			"/>
		<path class="st9" d="M-119.6,87.7h1.4v1.4h0c0.5-0.9,1.4-1.6,2.7-1.6c1.8,0,3.4,1.1,3.4,4.3c0,3.1-1.6,4.5-3.5,4.5
			c-1.2,0-2.2-0.7-2.5-1.4h0v4.2h-1.4V87.7z M-115.8,95.2c1.5,0,2.2-1.2,2.2-3.4c0-1.8-0.5-3.2-2.3-3.2c-1.5,0-2.4,1.3-2.4,2.7v0.9
			C-118.2,93.9-117.4,95.2-115.8,95.2z"/>
		<path class="st9" d="M-110.3,91.9c0-2.6,1.4-4.4,3.8-4.4c2.5,0,3.8,1.8,3.8,4.4c0,2.6-1.4,4.4-3.8,4.4
			C-109,96.3-110.3,94.5-110.3,91.9z M-108.8,91.9c0,2.1,0.7,3.3,2.3,3.3c1.6,0,2.3-1.2,2.3-3.3c0-2-0.7-3.3-2.3-3.3
			C-108,88.6-108.8,89.8-108.8,91.9z"/>
		<path class="st9" d="M-100.3,87.7h1.4v1.6h0c0.4-0.9,1.4-1.7,2.7-1.7h0.1V89h-0.3c-1.5,0-2.5,0.9-2.5,2.5v4.6h-1.4V87.7z"/>
		<path class="st9" d="M-91.9,85.2v2.4h2.1v1.1h-2.1v5c0,0.9,0.4,1.2,1.3,1.2c0.4,0,0.9-0.1,0.9-0.1v1.2c0,0-0.6,0.1-1.3,0.1
			c-1.6,0-2.3-0.8-2.3-2.2v-5.2h-1.5v-1.1h0.3c1.1,0,1.4-0.3,1.4-1.9v-0.6H-91.9z"/>
		<path class="st9" d="M-83.5,90c0-1.5,1.2-2.5,3.2-2.5c2.1,0,3.1,0.9,3.1,3.1V94c0,0.7,0.1,0.9,0.8,1v1.2h-0.2
			c-1.3,0-1.8-0.5-1.9-1.5h0c-0.4,1-1.5,1.6-2.7,1.6c-1.7,0-2.7-0.9-2.7-2.4c0-0.9,0.4-1.7,1.3-2.1c0.9-0.5,2.2-0.6,4.1-0.7v-0.4
			c0-1.5-0.6-2.1-1.8-2.1c-1.2,0-1.7,0.7-1.8,1.4H-83.5z M-78.6,92.3v-0.2c-1.8,0.1-2.9,0.2-3.4,0.6c-0.3,0.2-0.5,0.6-0.5,1
			c0,0.9,0.6,1.3,1.5,1.3C-79.9,95.1-78.6,94.4-78.6,92.3z"/>
		<path class="st9" d="M-68.8,90.9c0-0.6,0-1.3-0.3-1.7c-0.3-0.4-0.8-0.6-1.3-0.6c-1.6,0-2.3,1-2.3,2.4v5.1h-1.4v-8.4h1.4v1.4h0
			c0.4-0.9,1.4-1.6,2.7-1.6c1.6,0,2.7,0.8,2.7,2.8v5.9h-1.4V90.9z"/>
		<path class="st9" d="M-57.5,96.1h-1.4v-1.4h0c-0.4,0.8-1.4,1.6-2.7,1.6c-1.8,0-3.4-1.1-3.4-4.4c0-2.9,1.5-4.5,3.6-4.5
			c1.3,0,2.1,0.7,2.4,1.5h0v-5.5h1.4V96.1z M-58.9,91.5c0-1.8-0.9-2.9-2.3-2.9c-1.6,0-2.4,1.3-2.4,3.3c0,1.9,0.6,3.3,2.2,3.3
			c1.5,0,2.4-1.2,2.4-2.7V91.5z"/>
		<path class="st9" d="M-45.7,89.8c-0.1-0.8-0.7-1.2-1.7-1.2s-1.6,0.6-1.6,1.4c0,0.7,0.4,1,1.3,1.2l1.3,0.2c1.8,0.3,2.4,1,2.4,2.4
			c0,1.7-1.4,2.6-3.3,2.6c-1.7,0-3.2-0.8-3.3-2.6h1.4c0.1,0.7,0.4,1.5,1.9,1.5c1.2,0,1.9-0.5,1.9-1.4c0-0.7-0.2-1-1.3-1.2l-1.3-0.2
			c-1.5-0.2-2.3-0.9-2.3-2.3c0-1.5,1.1-2.6,3.1-2.6c1.8,0,2.9,0.8,3,2.3H-45.7z"/>
		<path class="st9" d="M-40.3,92.8c0,0.6,0,1.3,0.3,1.7c0.3,0.4,0.7,0.6,1.3,0.6c1.6,0,2.3-1,2.3-2.9v-4.6h1.4v8.4h-1.4v-1.4h0
			c-0.4,0.9-1.3,1.6-2.7,1.6c-1.6,0-2.7-0.8-2.7-2.8v-5.9h1.4V92.8z"/>
		<path class="st9" d="M-31.8,83.5h1.4v5.6h0c0.5-0.9,1.4-1.6,2.7-1.6c1.8,0,3.4,1.1,3.4,4.3c0,3.1-1.6,4.5-3.5,4.5
			c-1.3,0-2.2-0.7-2.6-1.6h0v1.3h-1.4V83.5z M-25.8,91.8c0-1.8-0.5-3.2-2.3-3.2c-1.5,0-2.4,1.3-2.4,2.7v0.9c0,1.7,0.8,3,2.4,3
			C-26.5,95.2-25.8,94-25.8,91.8z"/>
		<path class="st9" d="M-21.9,87.7h1.4v1.4h0c0.4-0.9,1.4-1.6,2.7-1.6c1.3,0,2.2,0.6,2.5,1.7h0c0.3-0.9,1.4-1.7,2.8-1.7
			c1.6,0,2.7,0.8,2.7,2.8v5.9h-1.4v-5.2c0-0.6,0-1.3-0.3-1.7c-0.3-0.4-0.8-0.5-1.3-0.5c-1.6,0-2.3,1-2.3,2.4v5.1h-1.4v-5.2
			c0-0.6,0-1.2-0.3-1.7c-0.3-0.4-0.8-0.6-1.3-0.6c-1.6,0-2.3,1-2.3,2.4v5.1h-1.4V87.7z"/>
		<path class="st9" d="M-6.7,84.2h1.5v1.6h-1.5V84.2z M-6.7,87.7h1.5v8.4h-1.5V87.7z"/>
		<path class="st9" d="M-0.3,85.2v2.4h2.1v1.1h-2.1v5c0,0.9,0.4,1.2,1.3,1.2c0.4,0,0.9-0.1,0.9-0.1v1.2c0,0-0.6,0.1-1.3,0.1
			c-1.6,0-2.3-0.8-2.3-2.2v-5.2h-1.5v-1.1H-3c1.1,0,1.4-0.3,1.4-1.9v-0.6H-0.3z"/>
		<path class="st9" d="M8.4,83.5h1.4v12.6H8.4V83.5z"/>
		<path class="st9" d="M12.3,91.9c0-2.6,1.4-4.4,3.8-4.4c2.5,0,3.8,1.8,3.8,4.4c0,2.6-1.4,4.4-3.8,4.4
			C13.5,96.3,12.3,94.5,12.3,91.9z M13.7,91.9c0,2.1,0.7,3.3,2.3,3.3c1.6,0,2.3-1.2,2.3-3.3c0-2-0.7-3.3-2.3-3.3
			C14.5,88.6,13.7,89.8,13.7,91.9z"/>
		<path class="st9" d="M21.9,96.9h1.4c0.2,0.7,0.7,1.2,2.1,1.2c1.6,0,2.4-0.6,2.4-2.4v-1.2h0C27.3,95.3,26.3,96,25,96
			c-1.8,0-3.4-1.1-3.4-4.2c0-2.8,1.5-4.3,3.6-4.3c1.4,0,2.2,0.8,2.5,1.5h0v-1.3h1.4v8.2c0,2.4-1.6,3.4-3.8,3.4
			C23.7,99.3,22,98.7,21.9,96.9z M27.8,91.4c0-1.7-0.9-2.8-2.4-2.8c-1.5,0-2.2,1.3-2.2,3.2c0,1.9,0.5,3.1,2.3,3.1
			c1.4,0,2.3-1.2,2.3-2.6V91.4z"/>
		<path class="st9" d="M31.5,91.9c0-2.6,1.4-4.4,3.8-4.4c2.5,0,3.8,1.8,3.8,4.4c0,2.6-1.4,4.4-3.8,4.4
			C32.8,96.3,31.5,94.5,31.5,91.9z M33,91.9c0,2.1,0.7,3.3,2.3,3.3c1.6,0,2.3-1.2,2.3-3.3c0-2-0.7-3.3-2.3-3.3
			C33.8,88.6,33,89.8,33,91.9z"/>
		<path class="st9" d="M45.8,89.8c-0.1-0.8-0.7-1.2-1.7-1.2s-1.6,0.6-1.6,1.4c0,0.7,0.4,1,1.3,1.2l1.3,0.2c1.8,0.3,2.4,1,2.4,2.4
			c0,1.7-1.4,2.6-3.3,2.6c-1.7,0-3.2-0.8-3.3-2.6h1.4c0.1,0.7,0.4,1.5,1.9,1.5c1.2,0,1.9-0.5,1.9-1.4c0-0.7-0.2-1-1.3-1.2l-1.3-0.2
			c-1.5-0.2-2.3-0.9-2.3-2.3c0-1.5,1.1-2.6,3.1-2.6c1.8,0,2.9,0.8,3,2.3H45.8z"/>
		<path class="st9" d="M54,90c0-1.5,1.2-2.5,3.2-2.5c2.1,0,3.1,0.9,3.1,3.1V94c0,0.7,0.1,0.9,0.8,1v1.2h-0.2c-1.3,0-1.8-0.5-1.9-1.5
			h0c-0.4,1-1.5,1.6-2.7,1.6c-1.7,0-2.7-0.9-2.7-2.4c0-0.9,0.4-1.7,1.3-2.1c0.9-0.5,2.2-0.6,4.1-0.7v-0.4c0-1.5-0.6-2.1-1.8-2.1
			c-1.2,0-1.7,0.7-1.8,1.4H54z M58.9,92.3v-0.2c-1.8,0.1-2.9,0.2-3.4,0.6c-0.3,0.2-0.5,0.6-0.5,1c0,0.9,0.6,1.3,1.5,1.3
			C57.6,95.1,58.9,94.4,58.9,92.3z"/>
		<path class="st9" d="M65.1,85.2v2.4h2.1v1.1h-2.1v5c0,0.9,0.4,1.2,1.3,1.2c0.4,0,0.9-0.1,0.9-0.1v1.2c0,0-0.6,0.1-1.3,0.1
			c-1.6,0-2.3-0.8-2.3-2.2v-5.2h-1.5v-1.1h0.3c1.1,0,1.4-0.3,1.4-1.9v-0.6H65.1z"/>
		<path class="st9" d="M75.6,87.4h-2.4v-1h0.4c0.8,0,1.4-0.2,1.7-0.6c0.4-0.4,0.5-0.8,0.5-1.6h1.2v11.9h-1.5V87.4z"/>
		<path class="st9" d="M84.6,84.1c2.6,0,4.3,2,4.3,6.1c0,4.1-1.7,6.1-4.3,6.1c-2.6,0-4.2-2-4.2-6.1C80.3,86.1,82,84.1,84.6,84.1z
			 M87.3,90.2c0-3.3-1-5-2.7-5c-1.7,0-2.7,1.6-2.7,5c0,3.3,1,4.9,2.7,4.9C86.3,95.2,87.3,93.5,87.3,90.2z"/>
		<path class="st9" d="M95.5,84.1c2.6,0,4.3,2,4.3,6.1c0,4.1-1.7,6.1-4.3,6.1c-2.6,0-4.2-2-4.2-6.1C91.3,86.1,93,84.1,95.5,84.1z
			 M98.3,90.2c0-3.3-1-5-2.7-5c-1.7,0-2.7,1.6-2.7,5c0,3.3,1,4.9,2.7,4.9C97.2,95.2,98.3,93.5,98.3,90.2z"/>
		<path class="st9" d="M106.5,84.1c2.6,0,4.3,2,4.3,6.1c0,4.1-1.7,6.1-4.3,6.1c-2.6,0-4.2-2-4.2-6.1
			C102.3,86.1,103.9,84.1,106.5,84.1z M109.2,90.2c0-3.3-1-5-2.7-5c-1.7,0-2.7,1.6-2.7,5c0,3.3,1,4.9,2.7,4.9
			C108.2,95.2,109.2,93.5,109.2,90.2z"/>
		<path class="st9" d="M113.5,87.7h1.4v1.4h0c0.5-0.9,1.4-1.6,2.7-1.6c1.8,0,3.4,1.1,3.4,4.3c0,3.1-1.6,4.5-3.5,4.5
			c-1.2,0-2.2-0.7-2.5-1.4h0v4.2h-1.4V87.7z M117.4,95.2c1.5,0,2.2-1.2,2.2-3.4c0-1.8-0.5-3.2-2.3-3.2c-1.5,0-2.4,1.3-2.4,2.7v0.9
			C114.9,93.9,115.8,95.2,117.4,95.2z"/>
		<path class="st9" d="M125,91.7l-2.7-4.1h1.7l1.8,2.9h0l1.9-2.9h1.6l-2.7,4l2.9,4.4h-1.7l-2.1-3.3h0l-2.1,3.3h-1.6L125,91.7z"/>
		<path class="st9" d="M140.3,89.8c-0.1-0.8-0.7-1.2-1.7-1.2s-1.6,0.6-1.6,1.4c0,0.7,0.4,1,1.3,1.2l1.3,0.2c1.8,0.3,2.4,1,2.4,2.4
			c0,1.7-1.4,2.6-3.3,2.6c-1.7,0-3.2-0.8-3.3-2.6h1.4c0.1,0.7,0.4,1.5,1.9,1.5c1.2,0,1.9-0.5,1.9-1.4c0-0.7-0.2-1-1.3-1.2l-1.3-0.2
			c-1.5-0.2-2.3-0.9-2.3-2.3c0-1.5,1.1-2.6,3.1-2.6c1.8,0,2.9,0.8,3,2.3H140.3z"/>
		<path class="st9" d="M151.2,99.1h-1.4v-4.3h0c-0.4,0.8-1.3,1.5-2.6,1.5c-1.8,0-3.4-1.1-3.4-4.4c0-2.9,1.5-4.5,3.6-4.5
			c1.3,0,2.1,0.7,2.4,1.5h0v-1.3h1.4V99.1z M149.8,92.4v-0.9c0-1.8-0.9-2.9-2.3-2.9c-1.6,0-2.4,1.3-2.4,3.3c0,1.9,0.6,3.3,2.2,3.3
			C148.8,95.2,149.8,94,149.8,92.4z"/>
		<path class="st9" d="M155.6,92.8c0,0.6,0,1.3,0.3,1.7c0.3,0.4,0.7,0.6,1.3,0.6c1.6,0,2.3-1,2.3-2.9v-4.6h1.4v8.4h-1.4v-1.4h0
			c-0.4,0.9-1.3,1.6-2.7,1.6c-1.6,0-2.7-0.8-2.7-2.8v-5.9h1.4V92.8z"/>
		<path class="st9" d="M163.7,90c0-1.5,1.2-2.5,3.2-2.5c2.1,0,3.1,0.9,3.1,3.1V94c0,0.7,0.1,0.9,0.8,1v1.2h-0.2
			c-1.3,0-1.8-0.5-1.9-1.5h0c-0.4,1-1.5,1.6-2.7,1.6c-1.7,0-2.7-0.9-2.7-2.4c0-0.9,0.4-1.7,1.3-2.1c0.9-0.5,2.2-0.6,4.1-0.7v-0.4
			c0-1.5-0.6-2.1-1.8-2.1c-1.2,0-1.7,0.7-1.8,1.4H163.7z M168.6,92.3v-0.2c-1.8,0.1-2.9,0.2-3.4,0.6c-0.3,0.2-0.5,0.6-0.5,1
			c0,0.9,0.6,1.3,1.5,1.3C167.3,95.1,168.6,94.4,168.6,92.3z"/>
		<path class="st9" d="M173.1,87.7h1.4v1.6h0c0.4-0.9,1.4-1.7,2.7-1.7h0.1V89H177c-1.5,0-2.5,0.9-2.5,2.5v4.6h-1.4V87.7z"/>
		<path class="st9" d="M182.4,96.3c-2.6,0-3.8-1.9-3.8-4.4c0-2.5,1.3-4.5,3.8-4.5c2.5,0,3.5,2,3.5,4.1v0.7H180
			c0.1,1.7,0.8,2.9,2.4,2.9c1.4,0,1.8-0.8,1.9-1.3h1.4C185.4,95.3,184.2,96.3,182.4,96.3z M184.4,91c0-1.4-0.6-2.5-2.1-2.5
			c-1.3,0-2.1,1.1-2.3,2.6L184.4,91L184.4,91z"/>
		<path class="st9" d="M194.6,85.2v2.4h2.1v1.1h-2.1v5c0,0.9,0.4,1.2,1.3,1.2c0.4,0,0.9-0.1,0.9-0.1v1.2c0,0-0.6,0.1-1.3,0.1
			c-1.6,0-2.3-0.8-2.3-2.2v-5.2h-1.5v-1.1h0.3c1.1,0,1.4-0.3,1.4-1.9v-0.6H194.6z"/>
		<path class="st9" d="M198.2,91.9c0-2.6,1.4-4.4,3.8-4.4c2.5,0,3.8,1.8,3.8,4.4c0,2.6-1.4,4.4-3.8,4.4
			C199.5,96.3,198.2,94.5,198.2,91.9z M199.7,91.9c0,2.1,0.7,3.3,2.3,3.3c1.6,0,2.3-1.2,2.3-3.3c0-2-0.7-3.3-2.3-3.3
			C200.4,88.6,199.7,89.8,199.7,91.9z"/>
		<path class="st9" d="M207.8,87.7h2v2h-2V87.7z M207.8,96.1v-2h2v2H207.8z"/>
		<path class="st9" d="M-132.4,120.2h4.5v1.3h-4.5V120.2z"/>
		<path class="st9" d="M-121.9,126.1v-1.3h0.3c2.6,0,3-0.7,3-2.5v-8.5h1.5v8.7c0,2.6-1.4,3.6-4.1,3.6H-121.9z"/>
		<path class="st9" d="M-112.2,121.4v4.7h-1.5v-12.2h3.7c2.4,0,4.2,1.1,4.2,3.8c0,2.6-1.8,3.8-4.3,3.8H-112.2z M-110.1,120.2
			c1.8,0,2.8-0.9,2.8-2.6c0-1.8-1-2.6-2.8-2.6h-2.1v5.2H-110.1z"/>
		<path class="st9" d="M-102.3,120.1c0,3.2,1.4,5.1,3.9,5.1c2.3,0,3.7-1.3,3.7-3.7v-0.2h-3.5v-1.3h5v6.2h-1.3v-1.8h-0.1
			c-0.6,1.1-1.8,2-3.8,2c-3.1,0-5.4-2-5.4-6.3c0-4,2.4-6.4,5.6-6.4c2.5,0,4.3,1.3,4.6,3.4h-1.6c-0.2-1.4-1.5-2.2-3.1-2.2
			C-100.9,114.9-102.3,116.9-102.3,120.1z"/>
		<path class="st9" d="M-90.2,124.1h1.8l-1.3,3.8h-1L-90.2,124.1z"/>
		<path class="st9" d="M-80,121.4v4.7h-1.5v-12.2h3.7c2.4,0,4.2,1.1,4.2,3.8c0,2.6-1.8,3.8-4.3,3.8H-80z M-78,120.2
			c1.8,0,2.8-0.9,2.8-2.6c0-1.8-1-2.6-2.8-2.6H-80v5.2H-78z"/>
		<path class="st9" d="M-71.2,113.9h1.9l5.4,9.1c0.4,0.7,0.6,1.2,0.6,1.2h0v-10.3h1.4v12.2h-1.9l-5.4-9.1c-0.5-0.8-0.6-1.2-0.6-1.2
			h0v10.3h-1.4V113.9z"/>
		<path class="st9" d="M-57.3,120.1c0,3.2,1.4,5.1,3.9,5.1c2.3,0,3.7-1.3,3.7-3.7v-0.2h-3.5v-1.3h5v6.2h-1.3v-1.8h-0.1
			c-0.6,1.1-1.8,2-3.8,2c-3.1,0-5.4-2-5.4-6.3c0-4,2.4-6.4,5.6-6.4c2.5,0,4.3,1.3,4.6,3.4h-1.6c-0.2-1.4-1.5-2.2-3.1-2.2
			C-55.9,114.9-57.3,116.9-57.3,120.1z"/>
		<path class="st9" d="M-45.3,117.7h2v2h-2V117.7z M-45.3,126.1v-2h2v2H-45.3z"/>
		<path class="st9" d="M-32,119.8c-0.1-0.8-0.7-1.2-1.7-1.2s-1.6,0.6-1.6,1.4c0,0.7,0.4,1,1.3,1.2l1.3,0.2c1.8,0.3,2.4,1,2.4,2.4
			c0,1.7-1.4,2.6-3.3,2.6c-1.7,0-3.2-0.8-3.3-2.6h1.4c0.1,0.7,0.4,1.5,1.9,1.5c1.2,0,1.9-0.5,1.9-1.4c0-0.7-0.2-1-1.3-1.2l-1.3-0.2
			c-1.5-0.2-2.3-0.9-2.3-2.3c0-1.5,1.1-2.6,3.1-2.6c1.8,0,2.9,0.8,3,2.3H-32z"/>
		<path class="st9" d="M-24.8,126.3c-2.6,0-3.8-1.9-3.8-4.4c0-2.5,1.3-4.5,3.8-4.5c2.5,0,3.5,2,3.5,4.1v0.7h-5.8
			c0.1,1.7,0.8,2.9,2.4,2.9c1.4,0,1.8-0.8,1.9-1.3h1.4C-21.8,125.3-23,126.3-24.8,126.3z M-22.8,121c0-1.4-0.6-2.5-2.1-2.5
			c-1.3,0-2.1,1.1-2.3,2.6L-22.8,121L-22.8,121z"/>
		<path class="st9" d="M-17.2,115.2v2.4h2.1v1.1h-2.1v5c0,0.9,0.4,1.2,1.3,1.2c0.4,0,0.9-0.1,0.9-0.1v1.2c0,0-0.6,0.1-1.3,0.1
			c-1.6,0-2.3-0.8-2.3-2.2v-5.2h-1.5v-1.1h0.3c1.1,0,1.4-0.3,1.4-1.9v-0.6H-17.2z"/>
		<path class="st9" d="M-6.7,115.2v2.4h2.1v1.1h-2.1v5c0,0.9,0.4,1.2,1.3,1.2c0.4,0,0.9-0.1,0.9-0.1v1.2c0,0-0.6,0.1-1.3,0.1
			c-1.6,0-2.3-0.8-2.3-2.2v-5.2h-1.5v-1.1h0.3c1.1,0,1.4-0.3,1.4-1.9v-0.6H-6.7z"/>
		<path class="st9" d="M-3.1,121.9c0-2.6,1.4-4.4,3.8-4.4c2.5,0,3.8,1.8,3.8,4.4c0,2.6-1.4,4.4-3.8,4.4
			C-1.8,126.3-3.1,124.5-3.1,121.9z M-1.6,121.9c0,2.1,0.7,3.3,2.3,3.3c1.6,0,2.3-1.2,2.3-3.3c0-2-0.7-3.3-2.3-3.3
			C-0.8,118.6-1.6,119.8-1.6,121.9z"/>
		<path class="st9" d="M11.4,117.7h1.4v1.4h0c0.4-0.9,1.4-1.6,2.7-1.6c1.3,0,2.2,0.6,2.5,1.7h0c0.3-0.9,1.4-1.7,2.8-1.7
			c1.6,0,2.7,0.8,2.7,2.8v5.9h-1.4v-5.2c0-0.6,0-1.3-0.3-1.7c-0.3-0.4-0.8-0.5-1.3-0.5c-1.6,0-2.3,1-2.3,2.4v5.1h-1.4v-5.2
			c0-0.6,0-1.2-0.3-1.7c-0.3-0.4-0.8-0.6-1.3-0.6c-1.6,0-2.3,1-2.3,2.4v5.1h-1.4V117.7z"/>
		<path class="st9" d="M26.3,120c0-1.5,1.2-2.5,3.2-2.5c2.1,0,3.1,0.9,3.1,3.1v3.4c0,0.7,0.1,0.9,0.8,1v1.2h-0.2
			c-1.3,0-1.8-0.5-1.9-1.5h0c-0.4,1-1.5,1.6-2.7,1.6c-1.7,0-2.7-0.9-2.7-2.4c0-0.9,0.4-1.7,1.3-2.1c0.9-0.5,2.2-0.6,4.1-0.7v-0.4
			c0-1.5-0.6-2.1-1.8-2.1c-1.2,0-1.7,0.7-1.8,1.4H26.3z M31.2,122.3v-0.2c-1.8,0.1-2.9,0.2-3.4,0.6c-0.3,0.2-0.5,0.6-0.5,1
			c0,0.9,0.6,1.3,1.5,1.3C29.8,125.1,31.2,124.4,31.2,122.3z"/>
		<path class="st9" d="M37.3,121.7l-2.7-4.1h1.7l1.8,2.9h0l1.9-2.9h1.6l-2.7,4l2.9,4.4h-1.7l-2.1-3.3h0l-2.1,3.3h-1.6L37.3,121.7z"
			/>
		<path class="st9" d="M43.8,114.2h1.5v1.6h-1.5V114.2z M43.9,117.7h1.5v8.4h-1.5V117.7z"/>
		<path class="st9" d="M48.5,117.7h1.4v1.4h0c0.4-0.9,1.4-1.6,2.7-1.6c1.3,0,2.2,0.6,2.5,1.7h0c0.3-0.9,1.4-1.7,2.8-1.7
			c1.6,0,2.7,0.8,2.7,2.8v5.9h-1.4v-5.2c0-0.6,0-1.3-0.3-1.7c-0.3-0.4-0.8-0.5-1.3-0.5c-1.6,0-2.3,1-2.3,2.4v5.1h-1.4v-5.2
			c0-0.6,0-1.2-0.3-1.7c-0.3-0.4-0.8-0.6-1.3-0.6c-1.6,0-2.3,1-2.3,2.4v5.1h-1.4V117.7z"/>
		<path class="st9" d="M65.1,122.8c0,0.6,0,1.3,0.3,1.7c0.3,0.4,0.7,0.6,1.3,0.6c1.6,0,2.3-1,2.3-2.9v-4.6h1.4v8.4H69v-1.4h0
			c-0.4,0.9-1.3,1.6-2.7,1.6c-1.6,0-2.7-0.8-2.7-2.8v-5.9h1.4V122.8z"/>
		<path class="st9" d="M73.6,117.7h1.4v1.4h0c0.4-0.9,1.4-1.6,2.7-1.6c1.3,0,2.2,0.6,2.5,1.7h0c0.3-0.9,1.4-1.7,2.8-1.7
			c1.6,0,2.7,0.8,2.7,2.8v5.9h-1.4v-5.2c0-0.6,0-1.3-0.3-1.7c-0.3-0.4-0.8-0.5-1.3-0.5c-1.6,0-2.3,1-2.3,2.4v5.1h-1.4v-5.2
			c0-0.6,0-1.2-0.3-1.7c-0.3-0.4-0.8-0.6-1.3-0.6c-1.6,0-2.3,1-2.3,2.4v5.1h-1.4V117.7z"/>
		<path class="st9" d="M100,129.1h-1.4v-4.3h0c-0.4,0.8-1.3,1.5-2.6,1.5c-1.8,0-3.4-1.1-3.4-4.4c0-2.9,1.5-4.5,3.6-4.5
			c1.3,0,2.1,0.7,2.4,1.5h0v-1.3h1.4V129.1z M98.6,122.4v-0.9c0-1.8-0.9-2.9-2.3-2.9c-1.6,0-2.4,1.3-2.4,3.3c0,1.9,0.6,3.3,2.2,3.3
			C97.7,125.2,98.6,124,98.6,122.4z"/>
		<path class="st9" d="M104.5,122.8c0,0.6,0,1.3,0.3,1.7c0.3,0.4,0.7,0.6,1.3,0.6c1.6,0,2.3-1,2.3-2.9v-4.6h1.4v8.4h-1.4v-1.4h0
			c-0.4,0.9-1.3,1.6-2.7,1.6c-1.6,0-2.7-0.8-2.7-2.8v-5.9h1.4V122.8z"/>
		<path class="st9" d="M112.6,120c0-1.5,1.2-2.5,3.2-2.5c2.1,0,3.1,0.9,3.1,3.1v3.4c0,0.7,0.1,0.9,0.8,1v1.2h-0.2
			c-1.3,0-1.8-0.5-1.9-1.5h0c-0.4,1-1.5,1.6-2.7,1.6c-1.7,0-2.7-0.9-2.7-2.4c0-0.9,0.4-1.7,1.3-2.1c0.9-0.5,2.2-0.6,4.1-0.7v-0.4
			c0-1.5-0.6-2.1-1.8-2.1c-1.2,0-1.7,0.7-1.8,1.4H112.6z M117.5,122.3v-0.2c-1.8,0.1-2.9,0.2-3.4,0.6c-0.3,0.2-0.5,0.6-0.5,1
			c0,0.9,0.6,1.3,1.5,1.3C116.2,125.1,117.5,124.4,117.5,122.3z"/>
		<path class="st9" d="M121.9,113.5h1.4v12.6h-1.4V113.5z"/>
		<path class="st9" d="M126.5,114.2h1.5v1.6h-1.5V114.2z M126.5,117.7h1.5v8.4h-1.5V117.7z"/>
		<path class="st9" d="M132.9,115.2v2.4h2.1v1.1h-2.1v5c0,0.9,0.4,1.2,1.3,1.2c0.4,0,0.9-0.1,0.9-0.1v1.2c0,0-0.6,0.1-1.3,0.1
			c-1.6,0-2.3-0.8-2.3-2.2v-5.2H130v-1.1h0.3c1.1,0,1.4-0.3,1.4-1.9v-0.6H132.9z"/>
		<path class="st9" d="M136.5,117.7h1.4l1.8,5.3c0.3,0.8,0.4,1.3,0.4,1.3h0c0,0,0.1-0.5,0.4-1.3l1.7-5.3h1.4l-3.1,9
			c-0.7,1.9-1.2,2.7-3.1,2.7c-0.3,0-0.6,0-0.9-0.1V128c0.3,0.1,0.6,0.1,0.7,0.1c1.1,0,1.4-0.4,1.8-1.5l0.2-0.4L136.5,117.7z"/>
		<path class="st9" d="M144.2,124.1h2v2h-2V124.1z"/>
		<path class="st9" d="M-132.4,150.2h4.5v1.3h-4.5V150.2z"/>
		<path class="st9" d="M-119.1,151.4v4.7h-1.5v-12.2h3.7c2.4,0,4.2,1.1,4.2,3.8c0,2.6-1.8,3.8-4.3,3.8H-119.1z M-117.1,150.2
			c1.8,0,2.8-0.9,2.8-2.6c0-1.8-1-2.6-2.8-2.6h-2.1v5.2H-117.1z"/>
		<path class="st9" d="M-110.2,143.9h3.8c3.3,0,5.9,1.6,5.9,6c0,4.3-2.4,6.3-5.7,6.3h-3.9V143.9z M-106.5,154.8
			c2.6,0,4.4-1.3,4.4-4.9c0-3.4-1.8-4.7-4.3-4.7h-2.4v9.7H-106.5z"/>
		<path class="st9" d="M-96.2,156.1h-1.5v-12.2h7.3v1.3h-5.8v4.4h5.3v1.3h-5.3V156.1z"/>
		<path class="st9" d="M-132.4,180.2h4.5v1.3h-4.5V180.2z"/>
		<path class="st9" d="M-120.6,173.9h7.8v1.3h-6.3v4.1h5.8v1.3h-5.8v4.2h6.4v1.3h-7.9V173.9z"/>
		<path class="st9" d="M-108.1,181.4v4.7h-1.5v-12.2h3.7c2.4,0,4.2,1.1,4.2,3.8c0,2.6-1.8,3.8-4.3,3.8H-108.1z M-106.1,180.2
			c1.8,0,2.8-0.9,2.8-2.6c0-1.8-1-2.6-2.8-2.6h-2.1v5.2H-106.1z"/>
		<path class="st9" d="M-92.7,177.1c-0.1-1.2-0.8-2.3-2.5-2.3c-1.7,0-2.6,0.9-2.6,2.1c0,1.1,0.6,1.8,2,2l1.7,0.3
			c2.4,0.4,3.2,1.6,3.2,3.3c0,2.2-1.5,3.7-4.5,3.7c-2.8,0-4.4-1.5-4.6-3.7h1.6c0.2,1.3,1.1,2.5,3.1,2.5c2.2,0,2.9-1.1,2.9-2.4
			c0-1.1-0.6-1.8-2.1-2l-1.7-0.3c-2.4-0.4-3.2-1.7-3.2-3.3c0-2,1.6-3.4,4.1-3.4c2.6,0,3.9,1.4,4,3.5H-92.7z"/>
		<path class="st9" d="M-88.4,177.7h2v2h-2V177.7z M-88.4,186.1v-2h2v2H-88.4z"/>
		<path class="st9" d="M-76.2,186.3c-2.6,0-3.8-1.9-3.8-4.4c0-2.5,1.3-4.5,3.8-4.5c2.5,0,3.5,2,3.5,4.1v0.7h-5.8
			c0.1,1.7,0.8,2.9,2.4,2.9c1.4,0,1.8-0.8,1.9-1.3h1.4C-73.2,185.3-74.4,186.3-76.2,186.3z M-74.2,181c0-1.4-0.6-2.5-2.1-2.5
			c-1.3,0-2.1,1.1-2.3,2.6L-74.2,181L-74.2,181z"/>
		<path class="st9" d="M-68.7,181.7l-2.7-4.1h1.7l1.8,2.9h0l1.9-2.9h1.6l-2.7,4l2.9,4.4h-1.7l-2.1-3.3h0l-2.1,3.3h-1.6L-68.7,181.7z
			"/>
		<path class="st9" d="M-62.2,177.7h1.4v1.4h0c0.5-0.9,1.4-1.6,2.7-1.6c1.8,0,3.4,1.1,3.4,4.3c0,3.1-1.6,4.5-3.5,4.5
			c-1.2,0-2.2-0.7-2.5-1.4h0v4.2h-1.4V177.7z M-58.4,185.2c1.5,0,2.2-1.2,2.2-3.4c0-1.8-0.5-3.2-2.3-3.2c-1.5,0-2.4,1.3-2.4,2.7v0.9
			C-60.8,183.9-60,185.2-58.4,185.2z"/>
		<path class="st9" d="M-52.9,181.9c0-2.6,1.4-4.4,3.8-4.4c2.5,0,3.8,1.8,3.8,4.4c0,2.6-1.4,4.4-3.8,4.4
			C-51.6,186.3-52.9,184.5-52.9,181.9z M-51.4,181.9c0,2.1,0.7,3.3,2.3,3.3c1.6,0,2.3-1.2,2.3-3.3c0-2-0.7-3.3-2.3-3.3
			C-50.6,178.6-51.4,179.8-51.4,181.9z"/>
		<path class="st9" d="M-42.9,177.7h1.4v1.6h0c0.4-0.9,1.4-1.7,2.7-1.7h0.1v1.5H-39c-1.5,0-2.5,0.9-2.5,2.5v4.6h-1.4V177.7z"/>
		<path class="st9" d="M-34.5,175.2v2.4h2.1v1.1h-2.1v5c0,0.9,0.4,1.2,1.3,1.2c0.4,0,0.9-0.1,0.9-0.1v1.2c0,0-0.6,0.1-1.3,0.1
			c-1.6,0-2.3-0.8-2.3-2.2v-5.2h-1.5v-1.1h0.3c1.1,0,1.4-0.3,1.4-1.9v-0.6H-34.5z"/>
		<path class="st9" d="M-21.4,180.9h-2.7v5.2h-1.5v-12.2h4.4c0.9,0,1.7,0.2,2.4,0.5c1,0.5,1.6,1.5,1.6,2.9c0,2.3-1.5,3.1-2.6,3.4v0
			l2.7,5.4h-1.7L-21.4,180.9z M-21.3,179.7c1.4,0,2.5-0.7,2.5-2.4c0-1.5-1-2.2-2.4-2.2h-2.9v4.6H-21.3z"/>
		<path class="st9" d="M-13.5,180.1c0,3.2,1.4,5.1,3.9,5.1c2.3,0,3.7-1.3,3.7-3.7v-0.2h-3.5v-1.3h5v6.2h-1.3v-1.8h-0.1
			c-0.6,1.1-1.8,2-3.8,2c-3.1,0-5.4-2-5.4-6.3c0-4,2.4-6.4,5.6-6.4c2.5,0,4.3,1.3,4.6,3.4h-1.6c-0.2-1.4-1.5-2.2-3.1-2.2
			C-12.1,174.9-13.5,176.9-13.5,180.1z"/>
		<path class="st9" d="M-1,186.1v-12.2h4.8c2.1,0,3.8,1,3.8,3c0,1.5-0.8,2.4-2.2,2.7v0c1.5,0.3,2.6,1.5,2.6,2.9
			c0,2.8-2.1,3.6-4.5,3.6H-1z M3.5,179c1.3,0,2.5-0.5,2.5-2c0-1.3-0.9-1.9-2.3-1.9H0.4v4H3.5z M3.4,184.9c1.8,0,3-0.6,3-2.4
			c0-1.6-1.2-2.2-3.1-2.2H0.4v4.7H3.4z"/>
		<path class="st9" d="M17.2,188.2c-0.9-1.8-2.1-4.1-2.1-7.3c0-3.2,1.2-5.5,2.1-7.3h1.1c-0.9,2-1.7,4.1-1.7,7.3
			c0,3.3,0.8,5.4,1.7,7.3H17.2z"/>
		<path class="st9" d="M27.2,186.1h-1.4v-1.4h0c-0.4,0.8-1.4,1.6-2.7,1.6c-1.8,0-3.4-1.1-3.4-4.4c0-2.9,1.5-4.5,3.6-4.5
			c1.3,0,2.1,0.7,2.4,1.5h0v-5.5h1.4V186.1z M25.8,181.5c0-1.8-0.9-2.9-2.3-2.9c-1.6,0-2.4,1.3-2.4,3.3c0,1.9,0.6,3.3,2.2,3.3
			c1.5,0,2.4-1.2,2.4-2.7V181.5z"/>
		<path class="st9" d="M30.3,174.2h1.5v1.6h-1.5V174.2z M30.4,177.7h1.5v8.4h-1.5V177.7z"/>
		<path class="st9" d="M34.4,186.9h1.4c0.2,0.7,0.7,1.2,2.1,1.2c1.6,0,2.4-0.6,2.4-2.4v-1.2h0c-0.4,0.8-1.4,1.6-2.7,1.6
			c-1.8,0-3.4-1.1-3.4-4.2c0-2.8,1.5-4.3,3.6-4.3c1.4,0,2.2,0.8,2.5,1.5h0v-1.3h1.4v8.2c0,2.4-1.6,3.4-3.8,3.4
			C36.3,189.3,34.6,188.7,34.4,186.9z M40.4,181.4c0-1.7-0.9-2.8-2.4-2.8c-1.5,0-2.2,1.3-2.2,3.2c0,1.9,0.5,3.1,2.3,3.1
			c1.4,0,2.3-1.2,2.3-2.6V181.4z"/>
		<path class="st9" d="M44.9,174.2h1.5v1.6h-1.5V174.2z M44.9,177.7h1.5v8.4h-1.5V177.7z"/>
		<path class="st9" d="M51.3,175.2v2.4h2.1v1.1h-2.1v5c0,0.9,0.4,1.2,1.3,1.2c0.4,0,0.9-0.1,0.9-0.1v1.2c0,0-0.6,0.1-1.3,0.1
			c-1.6,0-2.3-0.8-2.3-2.2v-5.2h-1.5v-1.1h0.3c1.1,0,1.4-0.3,1.4-1.9v-0.6H51.3z"/>
		<path class="st9" d="M55.8,180c0-1.5,1.2-2.5,3.2-2.5c2.1,0,3.1,0.9,3.1,3.1v3.4c0,0.7,0.1,0.9,0.8,1v1.2h-0.2
			c-1.3,0-1.8-0.5-1.9-1.5h0c-0.4,1-1.5,1.6-2.7,1.6c-1.7,0-2.7-0.9-2.7-2.4c0-0.9,0.4-1.7,1.3-2.1c0.9-0.5,2.2-0.6,4.1-0.7v-0.4
			c0-1.5-0.6-2.1-1.8-2.1c-1.2,0-1.7,0.7-1.8,1.4H55.8z M60.7,182.3v-0.2c-1.8,0.1-2.9,0.2-3.4,0.6c-0.3,0.2-0.5,0.6-0.5,1
			c0,0.9,0.6,1.3,1.5,1.3C59.4,185.1,60.7,184.4,60.7,182.3z"/>
		<path class="st9" d="M65.1,173.5h1.4v12.6h-1.4V173.5z"/>
		<path class="st9" d="M70.5,180.8c0-3.3-0.8-5.4-1.7-7.3h1.1c0.9,1.8,2.1,4.1,2.1,7.3c0,3.2-1.2,5.5-2.1,7.3h-1.1
			C69.7,186.2,70.5,184.1,70.5,180.8z"/>
		<path class="st9" d="M79.4,180c0-1.5,1.2-2.5,3.2-2.5c2.1,0,3.1,0.9,3.1,3.1v3.4c0,0.7,0.1,0.9,0.8,1v1.2h-0.2
			c-1.3,0-1.8-0.5-1.9-1.5h0c-0.4,1-1.5,1.6-2.7,1.6c-1.7,0-2.7-0.9-2.7-2.4c0-0.9,0.4-1.7,1.3-2.1c0.9-0.5,2.2-0.6,4.1-0.7v-0.4
			c0-1.5-0.6-2.1-1.8-2.1c-1.2,0-1.7,0.7-1.8,1.4H79.4z M84.3,182.3v-0.2c-1.8,0.1-2.9,0.2-3.4,0.6c-0.3,0.2-0.5,0.6-0.5,1
			c0,0.9,0.6,1.3,1.5,1.3C83,185.1,84.3,184.4,84.3,182.3z"/>
		<path class="st9" d="M94.1,180.9c0-0.6,0-1.3-0.3-1.7c-0.3-0.4-0.8-0.6-1.3-0.6c-1.6,0-2.3,1-2.3,2.4v5.1h-1.4v-8.4h1.4v1.4h0
			c0.4-0.9,1.4-1.6,2.7-1.6c1.6,0,2.7,0.8,2.7,2.8v5.9h-1.4V180.9z"/>
		<path class="st9" d="M105.4,186.1H104v-1.4h0c-0.4,0.8-1.4,1.6-2.7,1.6c-1.8,0-3.4-1.1-3.4-4.4c0-2.9,1.5-4.5,3.6-4.5
			c1.3,0,2.1,0.7,2.4,1.5h0v-5.5h1.4V186.1z M104,181.5c0-1.8-0.9-2.9-2.3-2.9c-1.6,0-2.4,1.3-2.4,3.3c0,1.9,0.6,3.3,2.2,3.3
			c1.5,0,2.4-1.2,2.4-2.7V181.5z"/>
		<path class="st9" d="M114.2,180c0,3.2,1.4,5.1,3.9,5.1c2.2,0,3.1-1.5,3.2-2.8h1.5c-0.2,2.3-2,4.1-4.7,4.1c-3.2,0-5.4-2.1-5.4-6.3
			c0-4,2.3-6.3,5.5-6.3c2.1,0,4.4,1.1,4.7,3.8h-1.6c-0.2-1.2-1.2-2.6-3.1-2.6C115.6,174.9,114.2,176.9,114.2,180z"/>
		<path class="st9" d="M125.7,173.9h2.3l3.1,8.8c0.4,1.1,0.5,1.6,0.5,1.6h0c0,0,0.2-0.5,0.5-1.6l3.2-8.8h2.2v12.2H136v-10.5h0
			c0,0-0.2,0.6-0.7,1.9l-3.1,8.6h-1.4l-3-8.6c-0.4-1.3-0.7-1.9-0.7-1.9h0v10.5h-1.4V173.9z"/>
		<path class="st9" d="M143.9,180.9l-4.3-7h1.7l3.3,5.7h0l3.4-5.7h1.6l-4.3,6.9v5.3h-1.5V180.9z"/>
		<path class="st9" d="M153.1,186.1h-1.5v-12.2h1.5v6.3l5.7-6.3h1.8L156,179l5,7.1h-1.8l-4.3-6l-1.8,2V186.1z"/>
		<path class="st9" d="M169.7,188.2c-0.9-1.8-2.1-4.1-2.1-7.3c0-3.2,1.2-5.5,2.1-7.3h1.1c-0.9,2-1.7,4.1-1.7,7.3
			c0,3.3,0.8,5.4,1.7,7.3H169.7z"/>
		<path class="st9" d="M173.1,177.7h1.4v1.4h0c0.5-0.9,1.4-1.6,2.7-1.6c1.8,0,3.4,1.1,3.4,4.3c0,3.1-1.6,4.5-3.5,4.5
			c-1.2,0-2.2-0.7-2.5-1.4h0v4.2h-1.4V177.7z M176.9,185.2c1.5,0,2.2-1.2,2.2-3.4c0-1.8-0.5-3.2-2.3-3.2c-1.5,0-2.4,1.3-2.4,2.7v0.9
			C174.5,183.9,175.3,185.2,176.9,185.2z"/>
		<path class="st9" d="M183,177.7h1.4v1.6h0c0.4-0.9,1.4-1.7,2.7-1.7h0.1v1.5h-0.3c-1.5,0-2.5,0.9-2.5,2.5v4.6H183V177.7z"/>
		<path class="st9" d="M189.4,174.2h1.5v1.6h-1.5V174.2z M189.4,177.7h1.5v8.4h-1.5V177.7z"/>
		<path class="st9" d="M199.4,180.9c0-0.6,0-1.3-0.3-1.7c-0.3-0.4-0.8-0.6-1.3-0.6c-1.6,0-2.3,1-2.3,2.4v5.1H194v-8.4h1.4v1.4h0
			c0.4-0.9,1.4-1.6,2.7-1.6c1.6,0,2.7,0.8,2.7,2.8v5.9h-1.4V180.9z"/>
		<path class="st9" d="M205.7,175.2v2.4h2.1v1.1h-2.1v5c0,0.9,0.4,1.2,1.3,1.2c0.4,0,0.9-0.1,0.9-0.1v1.2c0,0-0.6,0.1-1.3,0.1
			c-1.6,0-2.3-0.8-2.3-2.2v-5.2h-1.5v-1.1h0.3c1.1,0,1.4-0.3,1.4-1.9v-0.6H205.7z"/>
		<path class="st9" d="M211,180.8c0-3.3-0.8-5.4-1.7-7.3h1.1c0.9,1.8,2.1,4.1,2.1,7.3c0,3.2-1.2,5.5-2.1,7.3h-1.1
			C210.2,186.2,211,184.1,211,180.8z"/>
		<path class="st9" d="M219.1,177.7h1.5l1.8,5.4c0.2,0.7,0.4,1.3,0.4,1.3h0c0,0,0.2-0.6,0.4-1.3l1.9-5.4h1.4l-2.9,8.4H222
			L219.1,177.7z"/>
		<path class="st9" d="M231.5,186.3c-2.6,0-3.8-1.9-3.8-4.4c0-2.5,1.3-4.5,3.8-4.5c2.5,0,3.5,2,3.5,4.1v0.7h-5.8
			c0.1,1.7,0.8,2.9,2.4,2.9c1.4,0,1.8-0.8,1.9-1.3h1.4C234.6,185.3,233.3,186.3,231.5,186.3z M233.5,181c0-1.4-0.6-2.5-2.1-2.5
			c-1.3,0-2.1,1.1-2.3,2.6L233.5,181L233.5,181z"/>
		<path class="st9" d="M237.3,177.7h1.4v1.6h0c0.4-0.9,1.4-1.7,2.7-1.7h0.1v1.5h-0.3c-1.5,0-2.5,0.9-2.5,2.5v4.6h-1.4V177.7z"/>
		<path class="st9" d="M247.7,179.8c-0.1-0.8-0.7-1.2-1.7-1.2s-1.6,0.6-1.6,1.4c0,0.7,0.4,1,1.3,1.2l1.3,0.2c1.8,0.3,2.4,1,2.4,2.4
			c0,1.7-1.4,2.6-3.3,2.6c-1.7,0-3.2-0.8-3.3-2.6h1.4c0.1,0.7,0.4,1.5,1.9,1.5c1.2,0,1.9-0.5,1.9-1.4c0-0.7-0.2-1-1.3-1.2l-1.3-0.2
			c-1.5-0.2-2.3-0.9-2.3-2.3c0-1.5,1.1-2.6,3.1-2.6c1.8,0,2.9,0.8,3,2.3H247.7z"/>
		<path class="st9" d="M251.8,174.2h1.5v1.6h-1.5V174.2z M251.9,177.7h1.5v8.4h-1.5V177.7z"/>
		<path class="st9" d="M255.7,181.9c0-2.6,1.4-4.4,3.8-4.4c2.5,0,3.8,1.8,3.8,4.4c0,2.6-1.4,4.4-3.8,4.4
			C257,186.3,255.7,184.5,255.7,181.9z M257.2,181.9c0,2.1,0.7,3.3,2.3,3.3c1.6,0,2.3-1.2,2.3-3.3c0-2-0.7-3.3-2.3-3.3
			C258,178.6,257.2,179.8,257.2,181.9z"/>
		<path class="st9" d="M271.1,180.9c0-0.6,0-1.3-0.3-1.7c-0.3-0.4-0.8-0.6-1.3-0.6c-1.6,0-2.3,1-2.3,2.4v5.1h-1.4v-8.4h1.4v1.4h0
			c0.4-0.9,1.4-1.6,2.7-1.6c1.6,0,2.7,0.8,2.7,2.8v5.9h-1.4V180.9z"/>
		<path class="st9" d="M279.8,179.8c-0.1-0.8-0.7-1.2-1.7-1.2s-1.6,0.6-1.6,1.4c0,0.7,0.4,1,1.3,1.2l1.3,0.2c1.8,0.3,2.4,1,2.4,2.4
			c0,1.7-1.4,2.6-3.3,2.6c-1.7,0-3.2-0.8-3.3-2.6h1.4c0.1,0.7,0.4,1.5,1.9,1.5c1.2,0,1.9-0.5,1.9-1.4c0-0.7-0.2-1-1.3-1.2l-1.3-0.2
			c-1.5-0.2-2.3-0.9-2.3-2.3c0-1.5,1.1-2.6,3.1-2.6c1.8,0,2.9,0.8,3,2.3H279.8z"/>
		<path class="st9" d="M283.3,184.1h2v2h-2V184.1z"/>
	</g>
</g>
</svg>
