<?xml version="1.0" encoding="utf-8"?>
<!-- Generator: Adobe Illustrator 24.1.0, SVG Export Plug-In . SVG Version: 6.00 Build 0)  -->
<svg version="1.1" id="Layer_1" xmlns="http://www.w3.org/2000/svg" xmlns:xlink="http://www.w3.org/1999/xlink" x="0px" y="0px"
	 viewBox="0 0 32 32" style="enable-background:new 0 0 32 32;" xml:space="preserve">
<style type="text/css">
	.st0{fill:#1EE1F8;}
	.st1{fill:#18163E;}
</style>
<circle class="st0" cx="16" cy="16" r="16"/>
<circle class="st1" cx="16" cy="16" r="14.3"/>
<g>
	<path class="st0" d="M7.7,9c0.9-0.1,2-0.3,3.5-0.3c1.8,0,3.1,0.4,4,1.2c0.8,0.7,1.2,1.7,1.2,3c0,1.3-0.4,2.3-1.1,3
		c-1,1-2.5,1.6-4.3,1.6c-0.5,0-1,0-1.5-0.1V23H7.7V9z M9.5,15.9C9.9,16,10.4,16,11,16c2.2,0,3.5-1.1,3.5-3c0-1.9-1.3-2.8-3.3-2.8
		c-0.8,0-1.4,0.1-1.7,0.1V15.9z"/>
	<path class="st0" d="M18.1,21.1c0.5,0.4,1.5,0.7,2.4,0.7c1.3,0,2-0.7,2-1.5c0-0.9-0.5-1.4-1.9-1.9c-1.8-0.7-2.7-1.7-2.7-2.9
		c0-1.6,1.3-3,3.5-3c1,0,1.9,0.3,2.5,0.6l-0.5,1.3c-0.4-0.3-1.1-0.6-2.1-0.6c-1.1,0-1.7,0.6-1.7,1.4c0,0.8,0.6,1.2,1.9,1.7
		c1.8,0.7,2.7,1.6,2.7,3.1c0,1.8-1.4,3-3.8,3c-1.1,0-2.1-0.3-2.9-0.7L18.1,21.1z"/>
</g>
</svg>
