<?xml version="1.0" encoding="utf-8"?>
<!-- Generator: Adobe Illustrator 24.1.0, SVG Export Plug-In . SVG Version: 6.00 Build 0)  -->
<svg version="1.1" id="Layer_1" xmlns="http://www.w3.org/2000/svg" xmlns:xlink="http://www.w3.org/1999/xlink" x="0px" y="0px"
	 viewBox="0 0 689 492" style="enable-background:new 0 0 689 492;" xml:space="preserve">
<style type="text/css">
	.st0{fill:url(#SVGID_1_);}
	.st1{fill:#3F3D56;}
	.st2{fill:#FFFFFF;}
	.st3{fill:#2F2E41;}
	.st4{fill:#F2F2F2;}
	.st5{fill:none;stroke:#414042;stroke-width:5;stroke-linecap:round;stroke-miterlimit:10;}
	.st6{fill:none;stroke:#414042;stroke-width:5;stroke-linecap:round;stroke-miterlimit:10;stroke-dasharray:15;}
	.st7{fill:#414042;}
</style>
<g>
	<linearGradient id="SVGID_1_" gradientUnits="userSpaceOnUse" x1="53.3968" y1="458.3127" x2="360.1168" y2="199.1127">
		<stop  offset="0" style="stop-color:#9E1F63"/>
		<stop  offset="1" style="stop-color:#EF4136"/>
	</linearGradient>
	<path class="st0" d="M334.75,172.14l157.22,157.22c16.68,16.68,6.11,48.1-19.02,56.56l-236.91,79.69l-54.06,18.18
		C75.57,519.58-12.7,431.32,23.1,324.91l18.18-54.06l28.27-84.05c31.31-93.08,147.65-132.21,209.42-70.44L334.75,172.14z"/>
	
		<rect x="164.44" y="428.52" transform="matrix(0.989 -0.1481 0.1481 0.989 -59.9562 52.9518)" class="st1" width="322.32" height="1.14"/>
	<path class="st1" d="M269.28,75.51l-11.59-9.21l9.21-11.59l11.59,9.21L269.28,75.51z M259.29,66.11l9.8,7.79l7.79-9.8l-9.8-7.79
		L259.29,66.11z"/>
	<path class="st1" d="M413.61,209.97l-14.64,2.19l-2.19-14.64l14.64-2.19L413.61,209.97z M399.93,210.87l12.39-1.85l-1.85-12.39
		l-12.39,1.85L399.93,210.87z"/>
	
		<rect x="18.18" y="160.22" transform="matrix(0.989 -0.1481 0.1481 0.989 -41.6657 34.0212)" class="st2" width="378.9" height="273.18"/>
	<polygon class="st1" points="202.54,183.73 7.18,237.45 4.11,216.96 	"/>
	<polygon class="st1" points="406.96,348.7 410.22,370.48 195.03,376.7 	"/>
	<polygon class="st1" points="327.28,295.07 28.55,380.19 25.33,358.7 	"/>
	<polygon class="st1" points="386.54,212.33 389.89,234.7 66.66,241.06 	"/>
	<polygon class="st1" points="139.99,256.08 15.11,290.42 13.15,277.32 	"/>
	<path class="st1" d="M452.96,320.17l-265.64,39.78l-33.18-221.56l265.64-39.78L452.96,320.17z M188.28,358.64l263.38-39.44
		l-32.84-219.3l-263.38,39.44L188.28,358.64z"/>
	<path class="st2" d="M435.13,96.89c0.06,0.39,0.1,0.78,0.13,1.16c0.67,8.81-5.93,16.5-14.74,17.17
		c-8.81,0.67-16.5-5.93-17.17-14.74c-0.17-2.2,0.12-4.42,0.86-6.51c0.24-0.7,0.54-1.39,0.88-2.05c4.05-7.85,13.7-10.94,21.55-6.89
		c4.16,2.15,7.18,6.01,8.24,10.57C434.98,96.03,435.07,96.45,435.13,96.89z"/>
	<path class="st1" d="M435.13,96.89c0.06,0.39,0.1,0.78,0.13,1.16l-24.12,0.7l23.74-3.14C434.98,96.03,435.07,96.45,435.13,96.89z"
		/>
	<path class="st1" d="M430.67,105.71l-21.52,5.92c-0.73-0.6-1.4-1.26-2.01-1.98L430.67,105.71z"/>
	<path class="st1" d="M421.83,89.12l-17.63,4.85c0.24-0.7,0.54-1.39,0.88-2.05L421.83,89.12z"/>
	<path class="st3" d="M386.34,408.15l-334.6,50.1c0,0-17.87-81.17,8.75-101.46c0.16-0.12,0.32-0.24,0.48-0.35
		c2.69-1.93,5.78-3.23,9.05-3.79c39.96-7.14,42.21,38.75,83.2-30.95c25.49-43.35,58.94-61.96,83.81-61.29
		c0.46,0.01,0.91,0.03,1.37,0.06c14.48,0.81,25.87,8.3,30.78,21.33c13.41,35.55-5.36,68.41,35.68,53.02
		c19.21-7.2,43.58-7.84,61.6,1.13c0.18,0.09,0.35,0.18,0.53,0.27C387.14,346.54,399.08,369.07,386.34,408.15z"/>
	<path class="st4" d="M238.4,260.48c-2.37,3.23-10.51,15.44-17.35,38.7c-7.44,25.31-14.8,69.25-7.66,134.88l0,0.02l-0.57,0.06
		l-0.57,0.06c-7.17-65.89,0.24-110.02,7.72-135.44c6.49-22.04,14.17-34.25,17.05-38.33C237.49,260.43,237.95,260.45,238.4,260.48z"
		/>
	<path class="st4" d="M334.52,416.08l-1.13-0.15c6.35-46.81,32.88-79.73,33.15-80.06l0.88,0.72
		C367.15,336.91,340.82,369.6,334.52,416.08z"/>
	<path class="st4" d="M104.46,450.44l-1.14,0.01c-0.35-32.64-12.08-56.24-21.85-70.3c-10.58-15.22-21.19-22.81-21.3-22.88l0.66-0.93
		c0.11,0.08,10.88,7.78,21.57,23.17C92.27,393.69,104.1,417.52,104.46,450.44z"/>
	
		<rect x="138.31" y="123.52" transform="matrix(0.989 -0.1481 0.1481 0.989 -18.9603 24.3915)" class="st2" width="32" height="32"/>
	<polygon class="st1" points="140.21,134.12 169.29,131.51 169.6,133.54 	"/>
	<polygon class="st1" points="142.75,151.07 171.83,148.46 172.14,150.49 	"/>
	<polygon class="st1" points="139.14,146.23 160.23,140.43 138.81,144.02 	"/>
	<polygon class="st2" points="475.21,315.9 456.18,341.64 430.45,322.61 449.48,296.87 467.51,310.21 	"/>
	<polygon class="st1" points="465.57,308.78 467.51,310.21 444.61,310.66 	"/>
	<polygon class="st1" points="441.21,322.73 472.22,319.95 470.59,322.15 	"/>
	<polygon class="st1" points="461.48,330.74 446.87,334.76 445.14,333.47 	"/>
	<path class="st1" d="M69.57,316.33l-11.59-9.21l9.21-11.59l11.59,9.21L69.57,316.33z M59.58,306.94l9.8,7.79l7.79-9.8l-9.8-7.79
		L59.58,306.94z"/>
	
		<rect x="298.69" y="435.94" transform="matrix(0.989 -0.1481 0.1481 0.989 -60.4943 60.5579)" class="st1" width="155.45" height="1.14"/>
	
		<rect x="166.56" y="460.8" transform="matrix(0.989 -0.1481 0.1481 0.989 -65.1131 48.2467)" class="st1" width="249.74" height="1.14"/>
</g>
<g>
	<line class="st5" x1="587.16" y1="2.2" x2="587.16" y2="385.93"/>
	<line class="st5" x1="336.44" y1="2.45" x2="686.28" y2="204.43"/>
	<path class="st6" d="M540.97,119.89c-14.16,12.75-23.06,31.23-23.06,51.79c0,38.48,31.2,69.68,69.68,69.68"/>
	
		<rect x="580.19" y="140.05" transform="matrix(-1 -4.456314e-11 4.456314e-11 -1 1175.1973 294.9099)" class="st7" width="14.82" height="14.82"/>
</g>
</svg>
