<?xml version="1.0" encoding="utf-8"?>
<!-- Generator: Adobe Illustrator 24.1.0, SVG Export Plug-In . SVG Version: 6.00 Build 0)  -->
<svg version="1.1" id="Layer_1" xmlns="http://www.w3.org/2000/svg" xmlns:xlink="http://www.w3.org/1999/xlink" x="0px" y="0px"
	 viewBox="0 0 716 580" style="enable-background:new 0 0 716 580;" xml:space="preserve">
<style type="text/css">
	.st0{fill:url(#SVGID_1_);}
	.st1{fill:#3F3D56;}
	.st2{fill:#7AC943;}
	.st3{fill:#2F2E41;}
	.st4{opacity:0.2;enable-background:new    ;}
	.st5{fill:#3FA9F5;}
	.st6{fill:#414042;}
	.st7{fill:#FFB9B9;}
	.st8{fill:#D0CDE1;}
	.st9{fill:none;stroke:#414042;stroke-width:5;stroke-linecap:round;stroke-miterlimit:10;}
	.st10{fill:none;stroke:#414042;stroke-width:5;stroke-linecap:round;stroke-miterlimit:10;stroke-dasharray:15;}
</style>
<g>
	<linearGradient id="SVGID_1_" gradientUnits="userSpaceOnUse" x1="211.3059" y1="375.8883" x2="617.3859" y2="179.3283">
		<stop  offset="0" style="stop-color:#9E1F63"/>
		<stop  offset="1" style="stop-color:#EF4136"/>
	</linearGradient>
	<path class="st0" d="M485.85,151.31l119.34,54.15c66.06,29.98,74.9,120.23,15.91,162.45l-106.57,76.28l-106.57,76.28
		c-58.99,42.23-141.57,4.76-148.64-67.44L246.55,322.6l-12.78-130.43c-7.07-72.2,66.67-124.98,132.73-95.01L485.85,151.31z"/>
	<g>
		<path class="st1" d="M300.41,322.39c-0.95,0-1.92-0.02-2.87-0.04l0.02-0.69c1.36,0.04,2.75,0.05,4.11,0.04l0.01,0.69
			C301.26,322.39,300.83,322.39,300.41,322.39z"/>
		<path class="st1" d="M305.82,322.23l-0.04-0.69c1.36-0.08,2.74-0.19,4.1-0.34l0.07,0.68C308.59,322.04,307.2,322.15,305.82,322.23
			z"/>
		<path class="st1" d="M293.41,322.12c-1.37-0.11-2.76-0.24-4.12-0.41l0.08-0.68c1.35,0.17,2.73,0.3,4.09,0.41L293.41,322.12z"/>
		<path class="st1" d="M314.06,321.37l-0.1-0.68c1.35-0.21,2.72-0.44,4.05-0.71l0.13,0.67C316.8,320.92,315.42,321.16,314.06,321.37
			z"/>
		<path class="st1" d="M285.18,321.11c-1.36-0.23-2.72-0.49-4.07-0.79l0.15-0.67c1.33,0.29,2.69,0.55,4.04,0.78L285.18,321.11z"/>
		<path class="st1" d="M322.19,319.75l-0.17-0.67c1.33-0.33,2.66-0.69,3.97-1.08l0.2,0.66
			C324.87,319.05,323.52,319.42,322.19,319.75z"/>
		<path class="st1" d="M277.09,319.36c-1.33-0.35-2.67-0.74-3.98-1.16l0.21-0.66c1.3,0.41,2.63,0.8,3.95,1.15L277.09,319.36z"/>
		<path class="st1" d="M330.13,317.4l-0.23-0.65c1.29-0.45,2.58-0.93,3.85-1.44l0.26,0.64C332.73,316.46,331.43,316.94,330.13,317.4
			z"/>
		<path class="st1" d="M269.18,316.86c-1.29-0.47-2.59-0.99-3.86-1.52l0.27-0.63c1.26,0.53,2.55,1.04,3.83,1.51L269.18,316.86z"/>
		<path class="st1" d="M337.81,314.32l-0.28-0.63c1.24-0.56,2.48-1.16,3.7-1.78l0.31,0.61
			C340.31,313.15,339.06,313.75,337.81,314.32z"/>
		<path class="st1" d="M345.17,310.56l-0.34-0.6c1.19-0.68,2.37-1.39,3.52-2.12l0.37,0.58
			C347.56,309.16,346.37,309.88,345.17,310.56z"/>
		<path class="st1" d="M352.17,306.13l-0.39-0.56c1.12-0.78,2.23-1.6,3.31-2.43l0.42,0.55
			C354.42,304.52,353.29,305.35,352.17,306.13z"/>
		<path class="st1" d="M358.73,301.09l-0.44-0.53c1.04-0.88,2.08-1.79,3.08-2.72l0.47,0.51
			C360.82,299.28,359.78,300.2,358.73,301.09z"/>
		<path class="st1" d="M364.81,295.46l-0.49-0.48c0.96-0.97,1.91-1.98,2.82-2.99l0.51,0.46
			C366.73,293.47,365.78,294.48,364.81,295.46z"/>
		<path class="st1" d="M370.36,289.31l-0.53-0.44c0.87-1.06,1.72-2.14,2.54-3.24l0.55,0.41
			C372.09,287.15,371.23,288.25,370.36,289.31z"/>
		<path class="st1" d="M375.32,282.67l-0.57-0.39c0.77-1.13,1.52-2.29,2.23-3.46l0.59,0.36
			C376.85,280.36,376.09,281.53,375.32,282.67z"/>
		<path class="st1" d="M379.66,275.6l-0.6-0.33c0.66-1.2,1.3-2.42,1.91-3.65l0.62,0.31C380.97,273.16,380.33,274.4,379.66,275.6z"/>
		<path class="st1" d="M383.34,268.16l-0.63-0.28c0.55-1.25,1.07-2.53,1.57-3.81l0.64,0.25
			C384.42,265.61,383.89,266.9,383.34,268.16z"/>
		<path class="st1" d="M386.31,260.41l-0.65-0.22c0.43-1.29,0.83-2.62,1.2-3.93l0.66,0.19
			C387.15,257.78,386.74,259.11,386.31,260.41z"/>
		<path class="st1" d="M388.55,252.44l-0.67-0.16c0.31-1.33,0.59-2.68,0.84-4.02l0.68,0.12
			C389.15,249.74,388.86,251.1,388.55,252.44z"/>
		<path class="st1" d="M390.05,244.29l-0.68-0.09c0.19-1.35,0.34-2.72,0.46-4.08l0.69,0.06
			C390.4,241.55,390.24,242.93,390.05,244.29z"/>
		<path class="st1" d="M390.8,236.04l-0.69-0.03c0.06-1.36,0.09-2.75,0.09-4.11h0.69C390.89,233.28,390.86,234.67,390.8,236.04z"/>
		<path class="st1" d="M389.76,222.02c-0.14-1.36-0.33-2.02-0.53-3.37l0.68-0.1c0.2,1.36,0.37,2.4,0.51,3.77L389.76,222.02z"/>
		<path class="st1" d="M388.54,214.6c-0.26-1.34-0.56-2.69-0.88-4.02l0.67-0.16c0.32,1.33,0.62,2.69,0.89,4.05L388.54,214.6z"/>
		<path class="st1" d="M386.6,206.61c-0.38-1.31-0.8-2.63-1.25-3.92l0.65-0.22c0.45,1.3,0.87,2.63,1.26,3.95L386.6,206.61z"/>
		<path class="st1" d="M383.92,198.84c-0.5-1.27-1.04-2.54-1.6-3.78l0.63-0.28c0.56,1.25,1.1,2.53,1.61,3.81L383.92,198.84z"/>
		<path class="st1" d="M380.56,191.36c-0.62-1.21-1.27-2.43-1.94-3.62l0.6-0.34c0.68,1.19,1.33,2.42,1.95,3.65L380.56,191.36z"/>
		<path class="st1" d="M368.31,402.86c9.38,10.8,9.34,26.19,9.34,26.19s-15.24-2.12-24.62-12.92c-9.38-10.8-9.34-26.19-9.34-26.19
			S358.93,392.05,368.31,402.86z"/>
		<path class="st2" d="M356.17,316.8c4.13,13.7,17.17,21.88,17.17,21.88s6.34-14.03,2.2-27.72c-4.13-13.7-17.17-21.88-17.17-21.88
			S352.04,303.1,356.17,316.8z"/>
		<path class="st1" d="M361.57,313.67c10.53,9.68,12.23,24.98,12.23,24.98s-15.39-0.4-25.92-10.07s-12.23-24.98-12.23-24.98
			S351.04,303.99,361.57,313.67z"/>
		<path class="st1" d="M394.82,354.01c-11.47,8.55-14.71,23.6-14.71,23.6s15.35,1.18,26.81-7.38c11.47-8.55,14.71-23.6,14.71-23.6
			S406.29,345.46,394.82,354.01z"/>
		<path class="st1" d="M402.53,467.5c0,0-0.1,0.13-0.3,0.37h-40.14c3.97-2.67,8.42-4.54,13.11-5.5
			C389.25,459.72,402.53,467.5,402.53,467.5z"/>
		<path class="st1" d="M377.68,425.98c-0.05,0.24-0.1,0.48-0.15,0.73c-0.05,0.24-0.1,0.47-0.15,0.71c-0.11,0.51-0.22,1.02-0.34,1.53
			c-3.17,13.91-8.9,27.11-16.89,38.93h-1.59c7.88-11.31,13.81-24.66,17.19-39.19c0.1-0.42,0.19-0.84,0.29-1.27
			c0.13-0.57,0.25-1.13,0.36-1.7c0.22-1.04,0.42-2.08,0.61-3.13c4.38-24.13,2.55-51.7-5.55-84.13c-0.11-0.46-0.23-0.92-0.35-1.38
			c-0.02-0.06-0.03-0.11-0.04-0.17l1.28-0.33c0.15,0.57,0.29,1.13,0.43,1.7l0.08,0.3C381.25,372.42,382.83,401.03,377.68,425.98z"/>
		<circle class="st1" cx="338.38" cy="283.13" r="12.48"/>
		<path class="st1" d="M564.55,424.03c-7.85,8.63-8.11,21.17-8.11,21.17s12.47-1.44,20.32-10.07c7.85-8.63,8.11-21.17,8.11-21.17
			S572.4,415.4,564.55,424.03z"/>
		<path class="st2" d="M576.06,354.11c-3.63,11.09-14.41,17.51-14.41,17.51s-4.9-11.55-1.27-22.64
			c3.63-11.09,14.41-17.51,14.41-17.51S579.69,343.02,576.06,354.11z"/>
		<path class="st1" d="M571.72,351.46c-8.77,7.69-10.44,20.13-10.44,20.13s12.55-0.03,21.32-7.72c8.77-7.69,10.44-20.13,10.44-20.13
			S580.49,343.77,571.72,351.46z"/>
		<path class="st1" d="M543.85,383.72c9.18,7.19,11.55,19.51,11.55,19.51s-12.53,0.67-21.72-6.52
			c-9.18-7.19-11.55-19.51-11.55-19.51S534.67,376.53,543.85,383.72z"/>
		<path class="st1" d="M565.89,467.87h-1.2c-3.52-7.23-6.13-14.87-7.75-22.74c-0.13-0.61-0.25-1.22-0.36-1.84
			c-0.04-0.19-0.07-0.39-0.11-0.59c-0.91-5.05-1.49-10.16-1.72-15.29c-0.8-16.61,1.63-35.04,7.32-55.86
			c0.02-0.08,0.04-0.17,0.07-0.25c0.12-0.46,0.25-0.91,0.38-1.38l1.03,0.29c-0.01,0.04-0.02,0.08-0.04,0.13
			c-0.11,0.38-0.21,0.75-0.31,1.13c-5.74,20.88-8.18,39.33-7.38,55.94c0.19,4.19,0.62,8.37,1.27,12.52
			c0.14,0.86,0.28,1.72,0.44,2.57c0.15,0.81,0.31,1.63,0.47,2.44C559.63,452.89,562.29,460.6,565.89,467.87z"/>
		<circle class="st1" cx="591.2" cy="327" r="10.18"/>
		<path class="st3" d="M481.35,418.33l-0.29,9.09l-1.28,40.46h-37.36l-3.79-40.46l-1.87-19.99l-9.91-32.71l64.43-12.88
			c0,0,4.96,18.83,6.93,32.71C500.18,408.42,481.35,418.33,481.35,418.33z"/>
		<path class="st4" d="M481.35,418.33l-0.29,9.09l-1.28,40.46h-37.36l-3.79-40.46l-1.87-19.99l-9.91-32.71l64.43-12.88
			c0,0,4.96,18.83,6.93,32.71C500.18,408.42,481.35,418.33,481.35,418.33z"/>
		<polygon class="st5" points="716.09,276.34 411.99,580.45 216.09,384.55 297.04,367.03 296.63,367.45 432.2,503.02 643.02,292.2 
			642.98,292.16 		"/>
		<polygon class="st6" points="216.09,377.09 306.57,357.51 507.45,156.63 636.85,286.03 716.09,268.88 520.2,72.98 		"/>
		<path class="st3" d="M495.16,196.25L495.16,196.25c-19.77,0-35.81,17.79-35.81,39.74v27.88h8.58l4.96-10.33l-1.24,10.33h55.12
			l4.51-9.39l-1.13,9.39h6.21v-21.89C536.36,216.72,517.91,196.25,495.16,196.25z"/>
		<path class="st7" d="M461.53,325.16l-5.95,22.8l55.51-1.98l-0.99-18.83C510.09,327.14,468.46,316.24,461.53,325.16z"/>
		<polygon class="st7" points="408,416.35 425.84,456 442.69,435.18 428.82,407.43 		"/>
		<circle class="st7" cx="488.29" cy="234.96" r="22.8"/>
		<path class="st7" d="M521.99,264.7l-10.49,8.74l-1.41,1.17l-0.99,11.89h-38.66c0,0,5.27-4.57,10.17-9.3
			c0.1-0.11,0.21-0.23,0.33-0.34c0.66-0.64,1.26-1.24,1.79-1.77c0.29-0.3,0.56-0.57,0.81-0.83c0.41-0.43,0.8-0.83,1.2-1.24
			c0.01-0.01,0.01-0.01,0.01-0.02c1.01-1.06,1.97-2.18,2.85-3.35l0.01-0.01c0.24-0.32,0.46-0.64,0.66-0.98
			c2.97-4.96-3.96-14.87-3.96-14.87l21.81-10.9c0.76,10.74,9.85,17.92,13.92,20.62C521.23,264.29,521.99,264.7,521.99,264.7z"/>
		<path class="st7" d="M575.51,431.22c-14.87,3.96-15.86-25.77-15.86-25.77l-20.29-40.58c-4.29-8.58-7.24-17.76-8.74-27.23
			l-4.67-29.32l-1.42,1.69v0.01l-2.55,1.27l-15.48-24.78l-4.34-6.94v-7.93l14.87-6.94h5.95c0,0,0.13-0.02,0.36-0.04
			c2.74-0.29,20.54-1.48,21.45,15.9c0.36,6.82,0.33,12.47,0.14,16.9c-0.56,12.26,0.6,24.55,3.46,36.49
			c1.05,4.3,2.19,8.04,3.34,10.05c3.96,6.94,17.84,61.45,17.84,61.45S590.38,427.25,575.51,431.22z"/>
		<path class="st7" d="M484.32,275.6l-3.76,6.85l-2.22,4.05l-10.87,19.82c0,0-3.08,2.52-8.08,5.77
			c-8.31,5.4-21.92,12.82-35.53,14.05c-21.81,1.98-0.99-68.39-0.99-68.39s6.94-27.75,16.85-24.78c9.91,2.97,1.98,12.89-4.96,31.72
			c-6.94,18.83-0.99,39.65-0.99,39.65s20.81-12.89,31.72-22.8c5.68-5.16,10.56-6.56,13.92-6.71h0.01c1.11-0.06,2.23,0.03,3.32,0.26
			C483.28,275.21,483.81,275.38,484.32,275.6z"/>
		<path class="st8" d="M487.61,269.66c-0.04,0.11-0.51,0.99-4.06,4.61C485,272.82,486.36,271.28,487.61,269.66z"/>
		<path class="st5" d="M525.46,308.81l-0.92,1.21l-14.44,25.06c0,0-18.83-6.94-32.71-8.92c-13.48-1.92-19.48,8.31-19.81,8.89
			l3.95-15.83l-2.13-7.12c-0.25-0.83-0.54-1.75-0.84-2.8c-2.97-9.91,7.93-20.81,7.93-20.81l12.92-13.65h0.01
			c1.11-0.06,2.23,0.03,3.32,0.26c-0.54,0.54-1.13,1.13-1.79,1.77c-0.12,0.11-0.23,0.23-0.33,0.34c-3.8,3.88-1.82,4.96-0.05,5.24
			c0.59,0.09,1.18,0.12,1.77,0.09c4.13,0.59,13.18-3.03,19.82-6.07c4.52-2.06,7.93-3.85,7.93-3.85l8.65-7.93l1.3-1.19
			c1.19,0.78,1.94,1.19,1.94,1.19h0.99c0,0,0.13-0.02,0.36-0.04l-4.51,3.35c-4.57,3.39-7.11,8.86-6.75,14.53l0,0L525.46,308.81z"/>
		<path class="st3" d="M471.44,337.06l-14.49,5.66c0,0-78.68-30.44-90.57-5.66C354.48,361.83,408,421.3,408,421.3l23.79-10.9
			l-9.91-29.74c0,0,57.49,48.57,81.28,21.81c23.79-26.76,7.93-64.6,7.93-64.6S496.22,326.15,471.44,337.06z"/>
		<path class="st3" d="M429.81,445.09l-8.92,6.94c0,0,7.93,31.72,4.96,36.67s-8.92,18.83,1.98,17.84
			c10.9-0.99,22.8-17.84,23.79-23.79c0.99-5.95,7.93-23.79,7.93-23.79s11.89-27.75,2.97-28.74c-8.92-0.99-23.13-1.65-23.13-1.65
			L429.81,445.09z"/>
		<path class="st3" d="M505.34,207.2c-3.6-4.63-8.9-7.56-14.82-7.56h-0.7c-13.55,0-24.54,12.26-24.54,27.39v0h4.54l0.73-5.58
			l1.08,5.58h26.94l2.26-4.72l-0.56,4.72h5.3c2.47,12.28-1.08,24.56-10.66,36.84h9.03l4.51-9.45l-1.13,9.45h17.21l3.38-21.73
			C527.9,225.87,518.44,212.08,505.34,207.2z"/>
		<rect x="331.09" y="528.85" class="st1" width="228.67" height="0.88"/>
	</g>
</g>
<g>
	<line class="st9" x1="2.63" y1="252.45" x2="293.74" y2="2.43"/>
	<line class="st9" x1="166.17" y1="442.48" x2="91.46" y2="45.5"/>
	<path class="st10" d="M122,210.8c18.9,2.43,38.71-2.86,54.31-16.25c29.2-25.07,32.54-69.07,7.46-98.26"/>
	
		<rect x="105.12" y="150.06" transform="matrix(0.6515 0.7586 -0.7586 0.6515 158.674 -30.4967)" class="st6" width="14.82" height="14.82"/>
</g>
</svg>
