<?xml version="1.0" encoding="utf-8"?>
<!-- Generator: Adobe Illustrator 24.1.0, SVG Export Plug-In . SVG Version: 6.00 Build 0)  -->
<svg version="1.1" xmlns="http://www.w3.org/2000/svg" xmlns:xlink="http://www.w3.org/1999/xlink" x="0px" y="0px"
	 viewBox="0 0 344.7 100.8" style="enable-background:new 0 0 344.7 100.8;" xml:space="preserve">
<style type="text/css">
	.st0{fill:#54A4DB;}
	.st1{fill:#333333;}
	.st2{fill:#808080;}
	.st3{display:none;}
	.st4{display:inline;}
	.st5{clip-path:url(#SVGID_2_);}
	.st6{clip-path:url(#SVGID_4_);fill:#565656;}
	.st7{display:inline;opacity:0.5;fill:#CCCCCC;}
	.st8{clip-path:url(#SVGID_6_);}
	.st9{clip-path:url(#SVGID_8_);fill:#565656;}
	.st10{fill:#555655;}
	.st11{fill:#999999;}
	.st12{fill:#989898;}
</style>
<g id="Your_design">
	<path class="st0" d="M81.9,80.1C80.7,88,74,94.8,65.8,95c-4.5,0.1-8.9-1.7-12.7-4c-3.3-2-6.3-4.5-9.4-6.8c2-0.3,3.9-0.7,5.9-1.2
		c10-2.8,19-9.1,25-17.7c5.4-7.8,8.2-17.6,7.5-27.1c-0.1-0.9-0.1-1.7-0.3-2.5c-1.7-12.8-9.7-24.5-21-30.7
		C49.5-1.2,35.3-1.7,23.6,3.8S3.2,20.5,0.7,33.1c-2.8,14.4,2.6,31.1,14.8,39.7c-4.7,0.2-9.1,2.1-10.3,9.7c0,0.3,6.9-4,11.9-2.3
		c-1.3,0.8-2.4,1.6-3.5,2.7c-4.1,3.9-6.2,9.7-5.4,15.2c0.8-4.4,3-8.7,6.6-11.3c3.7-2.8,8.7-3.7,13.3-3c4.7,0.7,9.1,3.1,13,5.9
		c3.1,2.3,6,4.9,9.2,7.1c5.3,3.6,11.5,5,17.7,3.2c5.1-1.4,9.8-4.9,12.3-9.6C81.9,87.3,82.5,83.6,81.9,80.1z M12,65.5
		c-4.1-5-6.3-11.5-6.4-18.2c-0.2-8,2.6-16,7.6-22.3c2.5-3.2,5.6-6,9.1-7.9c7.9-4.2,18.1-3.6,25.6,1.2c2.6,1.7,4.9,3.9,6.5,6.6
		c3.1,5.5,2.7,12.8-1.4,17.7c-0.8,0.9-1.7,1.7-2.7,2.4c-3,1.8-5.4,1.2-8.2,0.2c-0.2,0.4-0.3,0.8-0.3,1.3c0,0.5,0.1,1.1,0.3,1.8
		c0.5,1.3,1.6,2.8,3.5,4c3.2,2,7.4,2.4,11,1.3c1-0.3,5.4-2.3,5.4-2.4c-0.3,3.9-2.4,8.8-4.5,12.1c-3.9,5.9-10,8.7-16.7,10
		c-5.4,1.1-11.1,1.4-16.5,0.1C19.2,72.1,15,69.3,12,65.5z"/>
	<g>
		<path class="st1" d="M115.1,59.9v10.3c-3.6,4.6-7.5,6.9-11.8,6.9c-2.8,0-4.9-0.8-6.1-2.3c-1.2-1.5-1.9-4.1-1.9-7.6v-7.3h-7.7v7.7
			c0,10.6,4.9,15.9,14.5,15.9c4.8,0,9.1-2.2,12.9-6.5v5.5h7.6V59.9H115.1z"/>
		<path class="st1" d="M134,59.9v22.5h7.6V59.9H134z"/>
		<path class="st1" d="M179.9,69.6c-0.1,1.3-0.4,2.4-0.9,3.4c-0.5,1-1.2,1.8-2.1,2.5s-1.8,1.1-3,1.5c-1.1,0.3-2.3,0.5-3.5,0.5
			c-1.8,0-3.5-0.3-5-1c-1.5-0.7-2.8-1.7-3.9-3.1c-1.1-1.4-1.9-3.1-2.5-5.2c-0.6-2.1-0.9-4.5-0.9-7.2c0-0.3,0-0.7,0-1h-7.9
			c0,0.3,0,0.7,0,1c0,3.6,0.5,6.8,1.5,9.6c1,2.8,2.4,5.1,4.1,7c1.8,1.9,3.9,3.4,6.4,4.4c2.5,1,5.2,1.5,8.3,1.5
			c2.3,0,4.5-0.3,6.4-0.9c2-0.6,3.7-1.5,5.2-2.6c1.5-1.2,2.8-2.6,3.8-4.3c1-1.7,1.6-3.7,2-6H179.9z"/>
		<path class="st1" d="M215,59.9h-20.5v22.5h7.6V65.3l4.8-4.8L221,82.4h9.1L215,59.9z"/>
		<path class="st1" d="M273.7,60.9c0-0.3,0-0.7,0-1h-40.4c0,0.3,0,0.7,0,1c0,3.6,0.5,6.7,1.5,9.5c1,2.8,2.5,5.2,4.3,7.1
			c1.8,1.9,4.1,3.4,6.6,4.4c2.6,1,5.4,1.5,8.5,1.5c2.4,0,4.7-0.3,6.8-0.9c2.1-0.6,4-1.5,5.7-2.7c1.6-1.2,3-2.6,4-4.4
			c1.1-1.8,1.8-3.7,2.1-5.9h-8c0,1.3-0.4,2.4-1,3.3c-0.6,1-1.5,1.8-2.5,2.5c-1,0.7-2.1,1.2-3.4,1.5c-1.3,0.3-2.5,0.5-3.8,0.5
			c-1.8,0-3.4-0.3-4.9-0.9s-2.9-1.5-4-2.7c-1.2-1.2-2.1-2.7-2.8-4.6c-0.7-1.8-1.2-4-1.3-6.5h32.4V60.9z"/>
		<path class="st1" d="M282.3,59.9v22.5h7.6V59.9H282.3z"/>
		<path class="st1" d="M329.5,59.9L325.1,73l-4.5-13.1h-7.5l8.5,22.5c-2.4,6.9-5.5,10.4-9.3,10.4c-0.6,0-1.2,0-1.8-0.1
			c-0.6-0.1-1.2-0.2-1.8-0.4v7.1c1.4,0.4,3.1,0.5,5,0.5c2,0,3.7-0.4,5.2-1.3c1.4-0.9,2.7-2.1,3.8-3.6c1.1-1.5,2.1-3.4,3-5.5
			c0.9-2.1,1.8-4.5,2.8-7.1l8.5-22.5H329.5z"/>
	</g>
	<rect x="87.6" y="39.4" class="st2" width="7.7" height="20.5"/>
	<rect x="115.1" y="39.4" class="st2" width="7.6" height="20.5"/>
	<rect x="134" y="39.4" class="st2" width="7.6" height="20.5"/>
	<rect x="134" y="23" class="st2" width="7.6" height="8.3"/>
	<polygon class="st2" points="344.7,39.4 337,59.9 329.5,59.9 336.5,39.4 	"/>
	<polygon class="st2" points="320.6,59.9 313.1,59.9 305.4,39.4 313.7,39.4 	"/>
	<path class="st2" d="M304.6,38.7v7.7c-1.1-0.4-2.7-0.5-4.6-0.5c-3.9,0-7.2,2-10.1,6.1v7.9h-7.6V39.4h7.6v6c3.2-4.7,7-7,11.3-7
		C302.2,38.4,303.4,38.5,304.6,38.7z"/>
	<path class="st2" d="M272.3,51.5c-0.9-2.8-2.3-5.2-4.1-7.1c-1.8-1.9-3.9-3.4-6.4-4.5c-2.5-1-5.3-1.5-8.4-1.5c-3,0-5.7,0.5-8.2,1.6
		c-2.5,1-4.6,2.5-6.4,4.5c-1.8,1.9-3.2,4.3-4.2,7.1c-0.9,2.5-1.4,5.3-1.5,8.4h40.4C273.6,56.8,273.2,54,272.3,51.5z M241.4,56.8
		c0.6-4.2,2-7.3,4.2-9.3c2.2-2,4.9-3,7.9-3c3.2,0,5.8,1,8,3.1c2.2,2.1,3.5,5.2,4.1,9.3H241.4z"/>
	<polygon class="st2" points="212.1,55.5 215,59.9 194.5,59.9 194.5,23 202.1,23 202.1,56.7 218.8,39.4 228.4,39.4 	"/>
	<path class="st2" d="M187.8,52.3h-7.9c-0.1-2.6-1.1-4.6-2.9-5.9c-1.8-1.4-4-2-6.6-2c-1.8,0-3.5,0.3-5,1c-1.5,0.7-2.8,1.7-3.9,3.1
		c-1.1,1.4-1.9,3.1-2.5,5.2c-0.5,1.8-0.8,3.8-0.9,6.2h-7.9c0.1-3.1,0.6-6,1.4-8.5c1-2.8,2.3-5.1,4.1-7.1c1.8-2,3.9-3.4,6.4-4.4
		s5.3-1.5,8.3-1.5c2.3,0,4.5,0.3,6.4,0.9c2,0.6,3.7,1.5,5.2,2.7c1.5,1.2,2.8,2.6,3.7,4.4C186.8,48.1,187.4,50.1,187.8,52.3z"/>
</g>
<g id="_x39_9d_logo" class="st3">
	<g class="st4">
		<defs>
			<path id="SVGID_1_" d="M-96-51.5c15.7-27.3,50.3-36.6,77.4-20.9C8.5-56.6,17.8-21.8,2.1,5.5c-15.7,27.3-50.3,36.6-77.4,20.9
				C-102.4,10.6-111.7-24.2-96-51.5z M120.4-51.5c15.7-27.3,50.3-36.6,77.4-20.9c27.1,15.7,36.4,50.6,20.7,77.9
				c-15.7,27.3-50.3,36.6-77.4,20.9C114,10.6,104.7-24.2,120.4-51.5z M423.4,120.6c-11.2,11.3-25.5,16.9-42.9,16.9
				c-8.4,0-16.2-1.5-23.6-4.5c-7.3-3-13.5-7.1-18.7-12.4c-5.1-5.3-9.2-11.6-12.1-19c-3-7.4-4.4-15.4-4.4-24.2
				c0-8.5,1.5-16.4,4.4-23.7c3-7.4,7.1-13.6,12.4-18.8c5.3-5.2,11.6-9.2,18.9-12.2c7.3-3,15.3-4.5,24-4.5c8.4,0,16.2,1.5,23.3,4.5
				c7.1,3,13.4,7.1,18.6,12.4c5.3,5.3,9.4,11.5,12.4,18.5c3,7,4.4,14.8,4.4,23.2C440.2,94.8,434.6,109.4,423.4,120.6z M61.3,38.1
				c10.5,18.9,26.1,35.3,46.2,47c16.8,9.8,35,15,53.1,16.3l-54,94.1h80.8l64.4-112.2c0.5,16.2,3.4,31.2,8.5,44.9
				c5.8,15.3,13.8,28.5,24.3,39.6c10.4,11.1,22.8,19.8,37.1,26.1c14.3,6.3,30,9.4,47.1,9.4c16.2,0,29.8-2.6,40.8-7.7
				c11-5.2,21.2-13.5,30.6-25.1v24.9h66.3v-336h-70v121.1c-9.6-9.4-19.9-16.4-30.8-20.9c-10.9-4.5-23.7-6.8-38.3-6.8
				c-16.5,0-31.8,3.1-45.9,9.4c-10.3,4.6-19.6,10.4-27.9,17.5c0.9-44-21.5-87.1-62-110.7c-59.4-34.5-135.3-14-169.5,45.7
				c-0.2,0.4-0.5,0.9-0.7,1.3c-10.5-18.9-26.1-35.3-46.2-47c-59.4-34.5-135.3-14-169.5,45.7C-188.7-25.7-168.4,50.6-109,85.1
				c16.8,9.8,35,15,53.1,16.3l-54,94.1H-29l89.6-156C60.8,39,61,38.6,61.3,38.1L61.3,38.1z"/>
		</defs>
		<clipPath id="SVGID_2_">
			<use xlink:href="#SVGID_1_"  style="overflow:visible;"/>
		</clipPath>
		<g class="st5">
			<defs>
				<rect id="SVGID_3_" x="-717.8" y="-858.4" width="1770.8" height="1770.8"/>
			</defs>
			<clipPath id="SVGID_4_">
				<use xlink:href="#SVGID_3_"  style="overflow:visible;"/>
			</clipPath>
			<rect x="-182.2" y="-158.9" class="st6" width="699.6" height="373.2"/>
		</g>
	</g>
</g>
<g id="Guides">
</g>
<g id="TEMPLATE__x28_delete_x29_" class="st3">
	<path class="st7" d="M-332.4-472.6v1000h1000v-1000H-332.4z M467.6,327.4h-600v-600h600V327.4z"/>
	<g class="st4">
		<defs>
			<path id="SVGID_5_" d="M-84.9-177.7c2-3.5,6.4-4.6,9.8-2.6c3.4,2,4.6,6.4,2.6,9.9c-2,3.5-6.4,4.6-9.8,2.6
				C-85.7-169.8-86.8-174.2-84.9-177.7z M-56.3-177.7c2-3.5,6.4-4.6,9.8-2.6c3.4,2,4.6,6.4,2.6,9.9c-2,3.5-6.4,4.6-9.8,2.6
				C-57.1-169.8-58.2-174.2-56.3-177.7z M-13-155.9c-1.4,1.4-3.2,2.1-5.4,2.1c-1.1,0-2.1-0.2-3-0.6c-0.9-0.4-1.7-0.9-2.4-1.6
				c-0.7-0.7-1.2-1.5-1.5-2.4c-0.4-0.9-0.6-2-0.6-3.1c0-1.1,0.2-2.1,0.6-3c0.4-0.9,0.9-1.7,1.6-2.4c0.7-0.7,1.5-1.2,2.4-1.5
				c0.9-0.4,1.9-0.6,3-0.6c1.1,0,2.1,0.2,3,0.6c0.9,0.4,1.7,0.9,2.4,1.6c0.7,0.7,1.2,1.5,1.6,2.3c0.4,0.9,0.6,1.9,0.6,2.9
				C-10.8-159.1-11.6-157.3-13-155.9z M-11.3-189v15.3c-1.2-1.2-2.5-2.1-3.9-2.7c-1.4-0.6-3-0.9-4.9-0.9c-2.1,0-4,0.4-5.8,1.2
				c-1.8,0.8-3.3,1.9-4.6,3.3c-1.3,1.4-2.3,3.1-3.1,5c-0.7,1.9-1.1,4-1.1,6.3c0,2.3,0.4,4.5,1.1,6.4c0.7,1.9,1.8,3.6,3.1,5
				c1.3,1.4,2.9,2.5,4.7,3.3c1.8,0.8,3.8,1.2,6,1.2c2.1,0,3.8-0.3,5.2-1c1.4-0.7,2.7-1.7,3.9-3.2v3.2h8.4V-189H-11.3z M-64.3-180.7
				c0.2-0.4,0.4-0.9,0.7-1.3c4.3-7.6,14-10.2,21.5-5.8c7.5,4.4,10.1,14.1,5.8,21.6l-11.4,19.8H-58l6.8-11.9
				c-2.3-0.2-4.6-0.8-6.7-2.1c-2.9-1.7-5.1-4.2-6.4-7.1c-0.2,0.4-0.4,0.9-0.7,1.3l-11.4,19.8h-10.2l6.8-11.9
				c-2.3-0.2-4.6-0.8-6.7-2.1c-7.5-4.4-10.1-14.1-5.8-21.6c4.3-7.6,14-10.2,21.5-5.8C-67.8-186.1-65.6-183.6-64.3-180.7z M8.3-164.4
				c0.4-1.7,1.1-2.9,2.3-3.8c1.2-0.9,2.6-1.3,4.3-1.3c1.7,0,3.2,0.5,4.4,1.4c1.2,0.9,2,2.2,2.3,3.7H8.3z M29.3-167.3
				c-0.8-2-1.9-3.7-3.3-5.1c-1.4-1.4-3-2.6-5-3.4c-1.9-0.8-4-1.2-6.2-1.2c-2.1,0-4.1,0.4-6,1.2c-1.9,0.8-3.5,2-4.9,3.4
				c-1.4,1.4-2.5,3.1-3.3,5c-0.8,1.9-1.2,4-1.2,6.2c0,2.2,0.4,4.3,1.2,6.2c0.8,1.9,1.9,3.6,3.3,5c1.4,1.4,3,2.5,4.9,3.4
				c1.9,0.8,3.9,1.2,6.1,1.2c3.1,0,6-0.9,8.5-2.7c2.4-1.7,4.3-4.1,5.7-7.1H20c-0.9,0.9-1.8,1.5-2.6,1.8c-0.8,0.3-1.7,0.5-2.8,0.5
				c-1.8,0-3.2-0.5-4.4-1.5c-1.2-1-1.9-2.3-2.1-4h22.1C30.7-161.5,30.4-164.4,29.3-167.3z M54.8-167.7c-0.4-5.8-5-9.3-11.3-9.3
				c-6,0-11.5,3.8-11.5,9.6c0,3.5,2,6.4,9.4,8.7c4.4,1.4,5.4,2.2,5.4,3.9c0,1.4-1.5,2.3-3.1,2.3c-1.8,0-3.1-0.9-3.4-2.7h-8.8
				c0.6,6,5.4,9.8,12,9.8c6.7,0,12-3.9,12-10.1c0-4.3-2.3-7.1-9.3-9c-4.1-1.1-5.5-1.9-5.5-3.5c0-1.1,1.1-2,2.6-2
				c1.4,0,2.7,0.5,2.7,2.2H54.8z M62.5-179.2c2.9,0,5.3-2.4,5.3-5.3s-2.4-5.3-5.3-5.3c-2.9,0-5.3,2.4-5.3,5.3S59.6-179.2,62.5-179.2
				z M66.9-146.4h-8.8v-29.7h8.8V-146.4z M83.9-170.4c2.7,0,4.9,2.2,4.9,4.9c0,2.7-2.2,4.9-4.9,4.9c-2.7,0-4.9-2.2-4.9-4.9
				C79-168.2,81.2-170.4,83.9-170.4z M90-140.3c-1,1.4-2.9,1.9-4.5,1.9c-1.9,0.1-4.5-0.3-5.7-1.9c-1.2-1.5-1-3.6,0.7-4.6
				c0.5-0.3,1-0.5,1.5-0.6h4.4c1.9,0,4.4,0.5,4.3,2.9C90.7-141.7,90.5-140.9,90-140.3z M81.4-152.2c-3.6-0.6-3.5-2-2.6-2.7
				c8.2,3.1,18.1-0.8,18.2-10.3c0-3.5-1.3-5.7-2.2-6.7c0.7-1.4,1.6-2.2,3.4-2.6l-3.7-6.5c-3.4,0.3-5.6,2.4-6.6,4.5
				c-2-0.8-6.1-0.9-9.3,0.3c-1.6,0.6-3,1.4-4.2,2.5c-1.2,1-2.1,2.3-2.8,3.8c-0.7,1.5-1,3.1-1,4.8c0,2.3,0.7,4.9,2,6.8
				c-3.6,3.5-3.4,8.7,0.3,12c-0.4,0.3-0.8,0.6-1.1,1c-3.3,3.6-1.8,8.7,2.1,11.3c4.8,3.5,13.4,3.7,18.7,1.3
				c9.3-3.8,9.6-17.6-1.2-19.4C88.4-152.7,85-151.7,81.4-152.2z M100.4-146.4h8.9V-163c0-3.9,1.7-5.8,5-5.8c1.6,0,2.8,0.5,3.5,1.5
				c0.7,1,1.1,2.6,1.1,4.7v16.2h8.9V-165c0-1.2-0.1-2.2-0.1-3.1c-0.1-0.9-0.3-1.7-0.5-2.4c-0.2-0.7-0.5-1.3-0.9-1.9
				c-0.4-0.6-0.9-1.1-1.4-1.7c-0.9-0.9-2.1-1.7-3.5-2.2c-1.4-0.5-2.9-0.8-4.4-0.8c-1.9,0-3.5,0.3-4.7,1c-1.2,0.7-2.4,1.7-3.4,3.2
				v-3.1h-8.4V-146.4z M152.8-167.7c-0.4-5.8-5-9.3-11.3-9.3c-6,0-11.5,3.8-11.5,9.6c0,3.5,2,6.4,9.4,8.7c4.4,1.4,5.4,2.2,5.4,3.9
				c0,1.4-1.5,2.3-3.1,2.3c-1.8,0-3.1-0.9-3.4-2.7h-8.8c0.6,6,5.4,9.8,12,9.8c6.7,0,12-3.9,12-10.1c0-4.3-2.3-7.1-9.3-9
				c-4.1-1.1-5.5-1.9-5.5-3.5c0-1.1,1.1-2,2.6-2c1.4,0,2.7,0.5,2.7,2.2H152.8z"/>
		</defs>
		<clipPath id="SVGID_6_">
			<use xlink:href="#SVGID_5_"  style="overflow:visible;"/>
		</clipPath>
		<g class="st8">
			<defs>
				<rect id="SVGID_7_" x="-135.7" y="-330.1" width="330.7" height="330.7"/>
			</defs>
			<clipPath id="SVGID_8_">
				<use xlink:href="#SVGID_7_"  style="overflow:visible;"/>
			</clipPath>
			<rect x="-96.4" y="-192" class="st9" width="252.2" height="62.8"/>
		</g>
	</g>
	<g class="st4">
		<path class="st10" d="M-89.4-86.8h7v3.1h-10.3v-16.8h3.3V-86.8z"/>
		<path class="st10" d="M-68-89.8c0,3.8-2.7,6.4-6.4,6.4c-3.6,0-6.4-2.6-6.4-6.4c0-3.8,2.7-6.3,6.4-6.3C-70.8-96.2-68-93.6-68-89.8z
			 M-77.6-89.8c0,2,1.3,3.5,3.2,3.5c1.9,0,3.1-1.5,3.1-3.5c0-2-1.2-3.5-3.1-3.5C-76.3-93.3-77.6-91.8-77.6-89.8z"/>
		<path class="st10" d="M-54.5-93.2h-1.8c0.1,0.4,0.2,0.9,0.2,1.4c0,2.4-2,4.2-4.8,4.2c-0.7,0-1.4-0.1-2-0.3
			c-0.2,0.2-0.3,0.5-0.3,0.9c0,0.6,0.5,1,1.2,1h2.9c2.5,0,4,1.2,4,3.5c0,2.7-2.1,4.2-5.4,4.2c-3.6,0-5.5-1.3-5.5-3.7
			c0-1.1,0.6-1.8,1.2-2.1c-0.7-0.5-1.4-1.4-1.4-2.6c0-1.2,0.5-2,1.2-2.6c-0.5-0.7-0.8-1.5-0.8-2.5c0-2.5,2.1-4.3,4.9-4.3
			c0.6,0,1.2,0.1,1.8,0.3h4.6V-93.2z M-61.7-83.7c-0.7,0.1-1.2,0.6-1.2,1.4c0,1.1,1,1.7,2.5,1.7c1.4,0,2.3-0.6,2.3-1.7
			c0-0.9-0.7-1.3-1.7-1.3H-61.7z M-62.7-91.8c0,1.1,0.7,1.9,1.8,1.9s1.8-0.8,1.8-1.9c0-1.2-0.7-2-1.8-2C-62-93.8-62.7-93-62.7-91.8z
			"/>
		<path class="st10" d="M-40.6-89.8c0,3.8-2.7,6.4-6.4,6.4c-3.6,0-6.4-2.6-6.4-6.4c0-3.8,2.7-6.3,6.4-6.3
			C-43.3-96.2-40.6-93.6-40.6-89.8z M-50.2-89.8c0,2,1.3,3.5,3.2,3.5c1.9,0,3.1-1.5,3.1-3.5c0-2-1.2-3.5-3.1-3.5
			C-48.9-93.3-50.2-91.8-50.2-89.8z"/>
		<path class="st10" d="M-29.1-95.9h2.8v2.8h-2.8l0,4.9c0,1.2,0.4,1.8,1.6,1.8c0.6,0,0.9-0.1,1.3-0.2v2.7c-0.4,0.1-1,0.3-2,0.3
			c-2.7,0-4-1.1-4-3.8l0-5.7h-2v-2.8h2l0-3h3.1L-29.1-95.9z"/>
		<path class="st10" d="M-12.8-89.8v1h-8.5c0.1,1.6,1.2,2.7,2.9,2.7c1.2,0,2.1-0.5,2.4-1.4h3c-0.7,2.6-2.6,4.1-5.6,4.1
			c-3.6,0-6-2.5-6-6.3c0-3.7,2.4-6.4,6-6.4C-15.2-96.2-12.8-94.1-12.8-89.8z M-21.2-91h5.3c0-1.5-1-2.5-2.6-2.5
			C-20.1-93.6-21.1-92.5-21.2-91z"/>
		<path class="st10" d="M7.1-91.6v7.9H3.9v-7.2c0-1.4-0.6-2.2-1.7-2.2c-1.2,0-2.1,0.9-2.1,2.8v6.6H-3v-7.2c0-1.4-0.6-2.2-1.7-2.2
			c-1.2,0-2.1,1-2.1,3v6.4H-10v-12.2h2.7l0.2,1.6c0.6-1,1.7-1.8,3.2-1.8c1.7,0,2.9,0.8,3.5,2.1c0.6-1.2,1.8-2.1,3.5-2.1
			C5.8-96.2,7.1-94.4,7.1-91.6z"/>
		<path class="st10" d="M22.9-89.8c0,3.6-2.4,6.4-5.7,6.4c-1.8,0-3-0.7-3.6-1.6v6.5h-3.1v-17.3h2.7l0.2,1.6c0.7-1,1.8-1.9,3.9-1.9
			C20.5-96.2,22.9-93.4,22.9-89.8z M13.5-89.9v0.1c0,2.1,1.6,3.3,3.1,3.3c1.7,0,3.1-1.3,3.1-3.4c0-2.1-1.3-3.4-3.1-3.4
			C15.1-93.2,13.5-92,13.5-89.9z"/>
		<path class="st10" d="M28.8-83.7h-3.1v-17.5h3.1V-83.7z"/>
		<path class="st10" d="M41.7-91.7v8H39l-0.2-1.5c-0.6,1-1.8,1.8-3.5,1.8c-2.2,0-3.7-1.3-3.7-3.5c0-2.4,1.6-3.3,3.8-3.6l3.1-0.6
			v-0.5c0-1.2-0.6-1.8-1.7-1.8c-1,0-1.8,0.6-1.8,1.6h-3c0.1-2.5,2-4.3,4.8-4.3S41.7-94.7,41.7-91.7z M36.1-88.6
			c-0.8,0.2-1.4,0.6-1.4,1.4c0,0.7,0.5,1.2,1.4,1.2c0.8,0,1.5-0.4,1.9-1.1c0.3-0.4,0.4-1,0.4-1.6v-0.4L36.1-88.6z"/>
		<path class="st10" d="M48.8-95.9h2.8v2.8h-2.8l0,4.9c0,1.2,0.4,1.8,1.6,1.8c0.6,0,0.9-0.1,1.3-0.2v2.7c-0.4,0.1-1,0.3-2,0.3
			c-2.7,0-4-1.1-4-3.8l0-5.7h-2v-2.8h2l0-3h3.1L48.8-95.9z"/>
		<path class="st10" d="M65.1-89.8v1h-8.5c0.1,1.6,1.2,2.7,2.9,2.7c1.2,0,2.1-0.5,2.4-1.4h3c-0.7,2.6-2.6,4.1-5.6,4.1
			c-3.6,0-6-2.5-6-6.3c0-3.7,2.4-6.4,6-6.4C62.7-96.2,65.1-94.1,65.1-89.8z M56.7-91H62c0-1.5-1-2.5-2.6-2.5
			C57.8-93.6,56.8-92.5,56.7-91z"/>
		<path class="st11" d="M78.2-100c-2,2.7-3,5-3,8.6c0,3.6,1,6,3,8.6L76-81.3c-2.2-2.7-3.7-5.7-3.7-10.1s1.5-7.4,3.7-10.1L78.2-100z"
			/>
		<path class="st11" d="M86.2-83.7h-3.3v-11.6h-3.5v-2.8c2.6,0,4-0.6,4.4-2.4h2.4V-83.7z"/>
		<path class="st11" d="M100.9-92.1c0,5.4-2.1,8.7-6,8.7s-6-3.4-6-8.7c0-5.4,2.1-8.7,6-8.7S100.9-97.5,100.9-92.1z M92.3-92.1
			c0,3.6,0.9,5.7,2.6,5.7c1.8,0,2.6-2.1,2.6-5.7c0-3.5-0.9-5.6-2.6-5.6C93.2-97.8,92.3-95.7,92.3-92.1z"/>
		<path class="st11" d="M114.9-92.1c0,5.4-2.1,8.7-6,8.7s-6-3.4-6-8.7c0-5.4,2.1-8.7,6-8.7S114.9-97.5,114.9-92.1z M106.3-92.1
			c0,3.6,0.9,5.7,2.6,5.7c1.8,0,2.6-2.1,2.6-5.7c0-3.5-0.9-5.6-2.6-5.6C107.2-97.8,106.3-95.7,106.3-92.1z"/>
		<path class="st11" d="M128.9-92.1c0,5.4-2.1,8.7-6,8.7s-6-3.4-6-8.7c0-5.4,2.1-8.7,6-8.7S128.9-97.5,128.9-92.1z M120.3-92.1
			c0,3.6,0.9,5.7,2.6,5.7c1.8,0,2.6-2.1,2.6-5.7c0-3.5-0.9-5.6-2.6-5.6C121.1-97.8,120.3-95.7,120.3-92.1z"/>
		<path class="st11" d="M145.6-92.2l5.7,8.5h-3.9l-4-6.1l-4,6.1h-3.9l5.6-8.5l-5.5-8.3h3.9l3.9,5.8l3.9-5.8h3.9L145.6-92.2z"/>
		<path class="st11" d="M164.6-83.7h-3.3v-11.6h-3.5v-2.8c2.6,0,4-0.6,4.4-2.4h2.4V-83.7z"/>
		<path class="st11" d="M179.3-92.1c0,5.4-2.1,8.7-6,8.7c-3.8,0-6-3.4-6-8.7c0-5.4,2.1-8.7,6-8.7C177.2-100.8,179.3-97.5,179.3-92.1
			z M170.7-92.1c0,3.6,0.9,5.7,2.6,5.7c1.8,0,2.6-2.1,2.6-5.7c0-3.5-0.9-5.6-2.6-5.6C171.6-97.8,170.7-95.7,170.7-92.1z"/>
		<path class="st11" d="M193.3-92.1c0,5.4-2.1,8.7-6,8.7c-3.8,0-6-3.4-6-8.7c0-5.4,2.1-8.7,6-8.7C191.2-100.8,193.3-97.5,193.3-92.1
			z M184.7-92.1c0,3.6,0.9,5.7,2.6,5.7c1.8,0,2.6-2.1,2.6-5.7c0-3.5-0.9-5.6-2.6-5.6C185.6-97.8,184.7-95.7,184.7-92.1z"/>
		<path class="st11" d="M207.3-92.1c0,5.4-2.1,8.7-6,8.7c-3.8,0-6-3.4-6-8.7c0-5.4,2.1-8.7,6-8.7C205.1-100.8,207.3-97.5,207.3-92.1
			z M198.7-92.1c0,3.6,0.9,5.7,2.6,5.7c1.8,0,2.6-2.1,2.6-5.7c0-3.5-0.9-5.6-2.6-5.6C199.5-97.8,198.7-95.7,198.7-92.1z"/>
		<path class="st11" d="M222.5-89.8c0,3.6-2.4,6.4-5.7,6.4c-1.8,0-3-0.7-3.6-1.6v6.5h-3.1v-17.3h2.7l0.2,1.6c0.7-1,1.8-1.9,3.9-1.9
			C220.1-96.2,222.5-93.4,222.5-89.8z M213.2-89.9v0.1c0,2.1,1.6,3.3,3.1,3.3c1.7,0,3.1-1.3,3.1-3.4c0-2.1-1.3-3.4-3.1-3.4
			C214.7-93.2,213.2-92,213.2-89.9z"/>
		<path class="st11" d="M231.6-89.9l3.8,6.2h-3.6l-2.4-3.8l-2.4,3.8h-3.6l3.8-6.2l-3.7-6h3.6l2.2,3.6l2.2-3.6h3.6L231.6-89.9z"/>
		<path class="st11" d="M242.3-91.4c0,4.4-1.6,7.4-3.8,10.1l-2.2-1.5c2-2.7,3-5,3-8.6c0-3.6-1-6-3-8.6l2.2-1.5
			C240.7-98.8,242.3-95.8,242.3-91.4z"/>
	</g>
	<g class="st4">
		<path class="st12" d="M-90.8-29.4h4.5v1.3h-4.5V-29.4z"/>
		<path class="st12" d="M-77.5-28.2v4.7H-79v-12.2h3.7c2.4,0,4.2,1.1,4.2,3.8c0,2.6-1.8,3.8-4.3,3.8H-77.5z M-75.5-29.4
			c1.8,0,2.8-0.9,2.8-2.6c0-1.8-1-2.6-2.8-2.6h-2.1v5.2H-75.5z"/>
		<path class="st12" d="M-69-36.1h1.4v12.6H-69V-36.1z"/>
		<path class="st12" d="M-64.8-29.7c0-1.5,1.2-2.5,3.2-2.5c2.1,0,3.1,0.9,3.1,3.1v3.4c0,0.7,0.1,0.9,0.8,1v1.2h-0.2
			c-1.3,0-1.8-0.5-1.9-1.5h0c-0.4,1-1.5,1.6-2.7,1.6c-1.7,0-2.7-0.9-2.7-2.4c0-0.9,0.4-1.7,1.3-2.1c0.9-0.5,2.2-0.6,4.1-0.7V-29
			c0-1.5-0.6-2.1-1.8-2.1c-1.2,0-1.7,0.7-1.8,1.4H-64.8z M-59.9-27.3v-0.2c-1.8,0.1-2.9,0.2-3.4,0.6c-0.3,0.2-0.5,0.6-0.5,1
			c0,0.9,0.6,1.3,1.5,1.3C-61.3-24.5-59.9-25.3-59.9-27.3z"/>
		<path class="st12" d="M-50.5-29.4c-0.1-0.9-0.7-1.6-1.9-1.6c-1.5,0-2.3,1.3-2.3,3.3c0,2,0.6,3.3,2.3,3.3c1.6,0,2-1.2,2.1-1.8h1.3
			c-0.2,2-1.6,2.9-3.4,2.9c-2.4,0-3.7-1.7-3.7-4.4c0-2.6,1.4-4.5,3.8-4.5c1.7,0,3.2,0.8,3.3,2.8H-50.5z"/>
		<path class="st12" d="M-43.6-23.3c-2.6,0-3.8-1.9-3.8-4.4c0-2.5,1.3-4.5,3.8-4.5c2.5,0,3.5,2,3.5,4.1v0.7h-5.8
			c0.1,1.7,0.8,2.9,2.4,2.9c1.4,0,1.8-0.8,1.9-1.3h1.4C-40.5-24.3-41.8-23.3-43.6-23.3z M-41.6-28.6c0-1.4-0.6-2.5-2.1-2.5
			c-1.3,0-2.1,1.1-2.3,2.6L-41.6-28.6L-41.6-28.6z"/>
		<path class="st12" d="M-34-32h1.4l1.8,5.3c0.3,0.8,0.4,1.3,0.4,1.3h0c0,0,0.1-0.5,0.4-1.3l1.7-5.3h1.4l-3.1,9
			c-0.7,1.9-1.2,2.7-3.1,2.7c-0.3,0-0.6,0-0.9-0.1v-1.2c0.3,0.1,0.6,0.1,0.7,0.1c1.1,0,1.4-0.4,1.8-1.5l0.2-0.4L-34-32z"/>
		<path class="st12" d="M-25.5-27.7c0-2.6,1.4-4.4,3.8-4.4c2.5,0,3.8,1.8,3.8,4.4c0,2.6-1.4,4.4-3.8,4.4
			C-24.2-23.3-25.5-25.1-25.5-27.7z M-24-27.7c0,2.1,0.7,3.3,2.3,3.3c1.6,0,2.3-1.2,2.3-3.3c0-2-0.7-3.3-2.3-3.3
			C-23.3-31.1-24-29.8-24-27.7z"/>
		<path class="st12" d="M-14.1-26.8c0,0.6,0,1.3,0.3,1.7c0.3,0.4,0.7,0.6,1.3,0.6c1.6,0,2.3-1,2.3-2.9V-32h1.4v8.4h-1.4V-25h0
			c-0.4,0.9-1.3,1.6-2.7,1.6c-1.6,0-2.7-0.8-2.7-2.8V-32h1.4V-26.8z"/>
		<path class="st12" d="M-5.6-32h1.4v1.6h0c0.4-0.9,1.4-1.7,2.7-1.7h0.1v1.5h-0.3c-1.5,0-2.5,0.9-2.5,2.5v4.6h-1.4V-32z"/>
		<path class="st12" d="M5.3-36.1h1.4v12.6H5.3V-36.1z"/>
		<path class="st12" d="M9.1-27.7c0-2.6,1.4-4.4,3.8-4.4c2.5,0,3.8,1.8,3.8,4.4c0,2.6-1.4,4.4-3.8,4.4C10.4-23.3,9.1-25.1,9.1-27.7z
			 M10.6-27.7c0,2.1,0.7,3.3,2.3,3.3c1.6,0,2.3-1.2,2.3-3.3c0-2-0.7-3.3-2.3-3.3C11.4-31.1,10.6-29.8,10.6-27.7z"/>
		<path class="st12" d="M18.7-22.7h1.4c0.2,0.7,0.7,1.2,2.1,1.2c1.6,0,2.4-0.6,2.4-2.4v-1.2h0c-0.4,0.8-1.4,1.6-2.7,1.6
			c-1.8,0-3.4-1.1-3.4-4.2c0-2.8,1.5-4.3,3.6-4.3c1.4,0,2.2,0.8,2.5,1.5h0V-32H26v8.2c0,2.4-1.6,3.4-3.8,3.4
			C20.6-20.3,18.9-20.9,18.7-22.7z M24.6-28.2c0-1.7-0.9-2.8-2.4-2.8c-1.5,0-2.2,1.3-2.2,3.2c0,1.9,0.5,3.1,2.3,3.1
			c1.4,0,2.3-1.2,2.3-2.6V-28.2z"/>
		<path class="st12" d="M28.4-27.7c0-2.6,1.4-4.4,3.8-4.4c2.5,0,3.8,1.8,3.8,4.4c0,2.6-1.4,4.4-3.8,4.4
			C29.7-23.3,28.4-25.1,28.4-27.7z M29.9-27.7c0,2.1,0.7,3.3,2.3,3.3c1.6,0,2.3-1.2,2.3-3.3c0-2-0.7-3.3-2.3-3.3
			C30.7-31.1,29.9-29.8,29.9-27.7z"/>
		<path class="st12" d="M41.9-32h1.5l1.6,5.7c0.1,0.5,0.3,1.1,0.3,1.1h0c0,0,0.2-0.6,0.3-1.1l1.8-5.7h1.5l1.8,5.7
			c0.2,0.5,0.3,1.1,0.3,1.1h0c0,0,0.1-0.6,0.3-1.1l1.7-5.7h1.4l-2.6,8.4h-1.5l-1.5-5c-0.2-0.8-0.5-1.8-0.5-1.8h0c0,0-0.3,1-0.5,1.8
			l-1.6,5h-1.5L41.9-32z"/>
		<path class="st12" d="M56.4-35.4h1.5v1.6h-1.5V-35.4z M56.4-32h1.5v8.4h-1.5V-32z"/>
		<path class="st12" d="M62.8-34.4v2.4h2.1v1.1h-2.1v5c0,0.9,0.4,1.2,1.3,1.2c0.4,0,0.9-0.1,0.9-0.1v1.2c0,0-0.6,0.1-1.3,0.1
			c-1.6,0-2.3-0.8-2.3-2.2v-5.2h-1.5v-1.1h0.3c1.1,0,1.4-0.3,1.4-1.9v-0.6H62.8z"/>
		<path class="st12" d="M72.3-28.7c0-0.6,0-1.3-0.3-1.7c-0.3-0.4-0.8-0.6-1.3-0.6c-1.6,0-2.3,1-2.3,2.4v5.1H67v-12.6h1.4v5.6h0
			c0.4-0.8,1.3-1.6,2.6-1.6c1.6,0,2.7,0.8,2.7,2.8v5.9h-1.4V-28.7z"/>
		<path class="st12" d="M76.8-35.4h1.5v1.6h-1.5V-35.4z M76.9-32h1.5v8.4h-1.5V-32z"/>
		<path class="st12" d="M86.9-28.7c0-0.6,0-1.3-0.3-1.7c-0.3-0.4-0.8-0.6-1.3-0.6c-1.6,0-2.3,1-2.3,2.4v5.1h-1.4V-32h1.4v1.4h0
			c0.4-0.9,1.4-1.6,2.7-1.6c1.6,0,2.7,0.8,2.7,2.8v5.9h-1.4V-28.7z"/>
		<path class="st12" d="M97.7-34.4v2.4h2.1v1.1h-2.1v5c0,0.9,0.4,1.2,1.3,1.2c0.4,0,0.9-0.1,0.9-0.1v1.2c0,0-0.6,0.1-1.3,0.1
			c-1.6,0-2.3-0.8-2.3-2.2v-5.2h-1.5v-1.1H95c1.1,0,1.4-0.3,1.4-1.9v-0.6H97.7z"/>
		<path class="st12" d="M107.2-28.7c0-0.6,0-1.3-0.3-1.7c-0.3-0.4-0.8-0.6-1.3-0.6c-1.6,0-2.3,1-2.3,2.4v5.1h-1.4v-12.6h1.4v5.6h0
			c0.4-0.8,1.3-1.6,2.6-1.6c1.6,0,2.7,0.8,2.7,2.8v5.9h-1.4V-28.7z"/>
		<path class="st12" d="M114.8-23.3c-2.6,0-3.8-1.9-3.8-4.4c0-2.5,1.3-4.5,3.8-4.5c2.5,0,3.5,2,3.5,4.1v0.7h-5.8
			c0.1,1.7,0.8,2.9,2.4,2.9c1.4,0,1.8-0.8,1.9-1.3h1.4C117.9-24.3,116.6-23.3,114.8-23.3z M116.8-28.6c0-1.4-0.6-2.5-2.1-2.5
			c-1.3,0-2.1,1.1-2.3,2.6L116.8-28.6L116.8-28.6z"/>
		<path class="st12" d="M130.2-29.4c-0.1-0.9-0.7-1.6-1.9-1.6c-1.5,0-2.3,1.3-2.3,3.3c0,2,0.6,3.3,2.3,3.3c1.6,0,2-1.2,2.1-1.8h1.3
			c-0.2,2-1.6,2.9-3.4,2.9c-2.4,0-3.7-1.7-3.7-4.4c0-2.6,1.4-4.5,3.8-4.5c1.7,0,3.2,0.8,3.3,2.8H130.2z"/>
		<path class="st12" d="M134-32h1.4v1.6h0c0.4-0.9,1.4-1.7,2.7-1.7h0.1v1.5h-0.3c-1.5,0-2.5,0.9-2.5,2.5v4.6H134V-32z"/>
		<path class="st12" d="M139.5-27.7c0-2.6,1.4-4.4,3.8-4.4c2.5,0,3.8,1.8,3.8,4.4c0,2.6-1.4,4.4-3.8,4.4
			C140.7-23.3,139.5-25.1,139.5-27.7z M140.9-27.7c0,2.1,0.7,3.3,2.3,3.3c1.6,0,2.3-1.2,2.3-3.3c0-2-0.7-3.3-2.3-3.3
			C141.7-31.1,140.9-29.8,140.9-27.7z"/>
		<path class="st12" d="M149.4-32h1.4v1.4h0c0.5-0.9,1.4-1.6,2.7-1.6c1.8,0,3.4,1.1,3.4,4.3c0,3.1-1.6,4.5-3.5,4.5
			c-1.2,0-2.2-0.7-2.5-1.4h0v4.2h-1.4V-32z M153.2-24.5c1.5,0,2.2-1.2,2.2-3.4c0-1.8-0.5-3.2-2.3-3.2c-1.5,0-2.4,1.3-2.4,2.7v0.9
			C150.8-25.8,151.6-24.5,153.2-24.5z"/>
		<path class="st12" d="M159.4-32h1.4v1.4h0c0.5-0.9,1.4-1.6,2.7-1.6c1.8,0,3.4,1.1,3.4,4.3c0,3.1-1.6,4.5-3.5,4.5
			c-1.2,0-2.2-0.7-2.5-1.4h0v4.2h-1.4V-32z M163.2-24.5c1.5,0,2.2-1.2,2.2-3.4c0-1.8-0.5-3.2-2.3-3.2c-1.5,0-2.4,1.3-2.4,2.7v0.9
			C160.8-25.8,161.6-24.5,163.2-24.5z"/>
		<path class="st12" d="M169.3-35.4h1.5v1.6h-1.5V-35.4z M169.3-32h1.5v8.4h-1.5V-32z"/>
		<path class="st12" d="M179.3-28.7c0-0.6,0-1.3-0.3-1.7c-0.3-0.4-0.8-0.6-1.3-0.6c-1.6,0-2.3,1-2.3,2.4v5.1h-1.4V-32h1.4v1.4h0
			c0.4-0.9,1.4-1.6,2.7-1.6c1.6,0,2.7,0.8,2.7,2.8v5.9h-1.4V-28.7z"/>
		<path class="st12" d="M183.3-22.7h1.4c0.2,0.7,0.7,1.2,2.1,1.2c1.6,0,2.4-0.6,2.4-2.4v-1.2h0c-0.4,0.8-1.4,1.6-2.7,1.6
			c-1.8,0-3.4-1.1-3.4-4.2c0-2.8,1.5-4.3,3.6-4.3c1.4,0,2.2,0.8,2.5,1.5h0V-32h1.4v8.2c0,2.4-1.6,3.4-3.8,3.4
			C185.1-20.3,183.5-20.9,183.3-22.7z M189.2-28.2c0-1.7-0.9-2.8-2.4-2.8c-1.5,0-2.2,1.3-2.2,3.2c0,1.9,0.5,3.1,2.3,3.1
			c1.4,0,2.3-1.2,2.3-2.6V-28.2z"/>
		<path class="st12" d="M197.7-22.7h1.4c0.2,0.7,0.7,1.2,2.1,1.2c1.6,0,2.4-0.6,2.4-2.4v-1.2h0c-0.4,0.8-1.4,1.6-2.7,1.6
			c-1.8,0-3.4-1.1-3.4-4.2c0-2.8,1.5-4.3,3.6-4.3c1.4,0,2.2,0.8,2.5,1.5h0V-32h1.4v8.2c0,2.4-1.6,3.4-3.8,3.4
			C199.5-20.3,197.9-20.9,197.7-22.7z M203.6-28.2c0-1.7-0.9-2.8-2.4-2.8c-1.5,0-2.2,1.3-2.2,3.2c0,1.9,0.5,3.1,2.3,3.1
			c1.4,0,2.3-1.2,2.3-2.6V-28.2z"/>
		<path class="st12" d="M209.5-26.8c0,0.6,0,1.3,0.3,1.7c0.3,0.4,0.7,0.6,1.3,0.6c1.6,0,2.3-1,2.3-2.9V-32h1.4v8.4h-1.4V-25h0
			c-0.4,0.9-1.3,1.6-2.7,1.6c-1.6,0-2.7-0.8-2.7-2.8V-32h1.4V-26.8z"/>
		<path class="st12" d="M217.9-35.4h1.5v1.6h-1.5V-35.4z M217.9-32h1.5v8.4h-1.5V-32z"/>
		<path class="st12" d="M229.3-23.5H228v-1.4h0c-0.4,0.8-1.4,1.6-2.7,1.6c-1.8,0-3.4-1.1-3.4-4.4c0-2.9,1.5-4.5,3.6-4.5
			c1.3,0,2.1,0.7,2.4,1.5h0v-5.5h1.4V-23.5z M227.9-28.1c0-1.8-0.9-2.9-2.3-2.9c-1.6,0-2.4,1.3-2.4,3.3c0,1.9,0.6,3.3,2.2,3.3
			c1.5,0,2.4-1.2,2.4-2.7V-28.1z"/>
		<path class="st12" d="M235.6-23.3c-2.6,0-3.8-1.9-3.8-4.4c0-2.5,1.3-4.5,3.8-4.5c2.5,0,3.5,2,3.5,4.1v0.7h-5.8
			c0.1,1.7,0.8,2.9,2.4,2.9c1.4,0,1.8-0.8,1.9-1.3h1.4C238.6-24.3,237.4-23.3,235.6-23.3z M237.6-28.6c0-1.4-0.6-2.5-2.1-2.5
			c-1.3,0-2.1,1.1-2.3,2.6L237.6-28.6L237.6-28.6z"/>
		<path class="st12" d="M245.6-29.8c-0.1-0.8-0.7-1.2-1.7-1.2s-1.6,0.6-1.6,1.4c0,0.7,0.4,1,1.3,1.2l1.3,0.2c1.8,0.3,2.4,1,2.4,2.4
			c0,1.7-1.4,2.6-3.3,2.6c-1.7,0-3.2-0.8-3.3-2.6h1.4c0.1,0.7,0.4,1.5,1.9,1.5c1.2,0,1.9-0.5,1.9-1.4c0-0.7-0.2-1-1.3-1.2l-1.3-0.2
			c-1.5-0.2-2.3-0.9-2.3-2.3c0-1.5,1.1-2.6,3.1-2.6c1.8,0,2.9,0.8,3,2.3H245.6z"/>
		<path class="st12" d="M249.2-25.5h2v2h-2V-25.5z"/>
		<path class="st12" d="M-90.8,0.6h4.5v1.3h-4.5V0.6z"/>
		<path class="st12" d="M-74.1-5.9c3,0,5.5,2,5.5,6.3c0,4.4-2.5,6.3-5.5,6.3c-3,0-5.5-2-5.5-6.3C-79.6-4-77-5.9-74.1-5.9z
			 M-70.2,0.4c0-3.4-1.6-5.2-4-5.2C-76.4-4.8-78-3-78,0.4c0,3.3,1.6,5.1,3.9,5.1C-71.8,5.5-70.2,3.7-70.2,0.4z"/>
		<path class="st12" d="M-64.5,3.2c0,0.6,0,1.3,0.3,1.7c0.3,0.4,0.7,0.6,1.3,0.6c1.6,0,2.3-1,2.3-2.9V-2h1.4v8.4h-1.4V5h0
			c-0.4,0.9-1.3,1.6-2.7,1.6c-1.6,0-2.7-0.8-2.7-2.8V-2h1.4V3.2z"/>
		<path class="st12" d="M-54.2-4.4V-2h2.1v1.1h-2.1v5c0,0.9,0.4,1.2,1.3,1.2c0.4,0,0.9-0.1,0.9-0.1v1.2c0,0-0.6,0.1-1.3,0.1
			c-1.6,0-2.3-0.8-2.3-2.2v-5.2h-1.5v-1.1h0.3c1.1,0,1.4-0.3,1.4-1.9v-0.6H-54.2z"/>
		<path class="st12" d="M-50-6.1h1.4V6.5H-50V-6.1z"/>
		<path class="st12" d="M-45.4-5.4h1.5v1.6h-1.5V-5.4z M-45.4-2h1.5v8.4h-1.5V-2z"/>
		<path class="st12" d="M-35.4,1.3c0-0.6,0-1.3-0.3-1.7C-36-0.8-36.5-1-37.1-1c-1.6,0-2.3,1-2.3,2.4v5.1h-1.4V-2h1.4v1.4h0
			c0.4-0.9,1.4-1.6,2.7-1.6c1.6,0,2.7,0.8,2.7,2.8v5.9h-1.4V1.3z"/>
		<path class="st12" d="M-27.8,6.7c-2.6,0-3.8-1.9-3.8-4.4c0-2.5,1.3-4.5,3.8-4.5c2.5,0,3.5,2,3.5,4.1v0.7h-5.8
			c0.1,1.7,0.8,2.9,2.4,2.9c1.4,0,1.8-0.8,1.9-1.3h1.4C-24.8,5.7-26,6.7-27.8,6.7z M-25.8,1.4c0-1.4-0.6-2.5-2.1-2.5
			c-1.3,0-2.1,1.1-2.3,2.6L-25.8,1.4L-25.8,1.4z"/>
		<path class="st12" d="M-17.7,0.3c0-1.5,1.2-2.5,3.2-2.5c2.1,0,3.1,0.9,3.1,3.1v3.4c0,0.7,0.1,0.9,0.8,1v1.2h-0.2
			c-1.3,0-1.8-0.5-1.9-1.5h0c-0.4,1-1.5,1.6-2.7,1.6c-1.7,0-2.7-0.9-2.7-2.4c0-0.9,0.4-1.7,1.3-2.1c0.9-0.5,2.2-0.6,4.1-0.7V1
			c0-1.5-0.6-2.1-1.8-2.1c-1.2,0-1.7,0.7-1.8,1.4H-17.7z M-12.8,2.7V2.5c-1.8,0.1-2.9,0.2-3.4,0.6c-0.3,0.2-0.5,0.6-0.5,1
			c0,0.9,0.6,1.3,1.5,1.3C-14.2,5.5-12.8,4.7-12.8,2.7z"/>
		<path class="st12" d="M-8.4-6.1H-7V6.5h-1.4V-6.1z"/>
		<path class="st12" d="M-3.8-6.1h1.4V6.5h-1.4V-6.1z"/>
		<path class="st12" d="M7.1,6.5H5.6v-7.3H4.1V-2h1.5v-1.9c0-1.7,1-2.3,2.6-2.3c0.3,0,0.6,0,0.9,0.1v1.2C8.9-5,8.7-5,8.3-5
			C7.5-5,7.1-4.7,7.1-3.7V-2h2v1.1h-2V6.5z"/>
		<path class="st12" d="M10.3,2.3c0-2.6,1.4-4.4,3.8-4.4c2.5,0,3.8,1.8,3.8,4.4c0,2.6-1.4,4.4-3.8,4.4C11.5,6.7,10.3,4.9,10.3,2.3z
			 M11.7,2.3c0,2.1,0.7,3.3,2.3,3.3c1.6,0,2.3-1.2,2.3-3.3c0-2-0.7-3.3-2.3-3.3C12.5-1.1,11.7,0.2,11.7,2.3z"/>
		<path class="st12" d="M25.6,1.3c0-0.6,0-1.3-0.3-1.7C25-0.8,24.5-1,24-1c-1.6,0-2.3,1-2.3,2.4v5.1h-1.4V-2h1.4v1.4h0
			C22-1.4,23-2.2,24.4-2.2C26-2.2,27-1.4,27,0.6v5.9h-1.4V1.3z"/>
		<path class="st12" d="M31.9-4.4V-2H34v1.1h-2.1v5c0,0.9,0.4,1.2,1.3,1.2c0.4,0,0.9-0.1,0.9-0.1v1.2c0,0-0.6,0.1-1.3,0.1
			c-1.6,0-2.3-0.8-2.3-2.2v-5.2h-1.5v-1.1h0.3c1.1,0,1.4-0.3,1.4-1.9v-0.6H31.9z"/>
		<path class="st12" d="M40.3,0.2c-0.1-0.8-0.7-1.2-1.7-1.2S37-0.5,37,0.3c0,0.7,0.4,1,1.3,1.2l1.3,0.2c1.8,0.3,2.4,1,2.4,2.4
			c0,1.7-1.4,2.6-3.3,2.6c-1.7,0-3.2-0.8-3.3-2.6h1.4c0.1,0.7,0.4,1.5,1.9,1.5c1.2,0,1.9-0.5,1.9-1.4c0-0.7-0.2-1-1.3-1.2L38,2.7
			c-1.5-0.2-2.3-0.9-2.3-2.3c0-1.5,1.1-2.6,3.1-2.6c1.8,0,2.9,0.8,3,2.3H40.3z"/>
		<path class="st12" d="M50.3,3.2c0,0.6,0,1.3,0.3,1.7c0.3,0.4,0.7,0.6,1.3,0.6c1.6,0,2.3-1,2.3-2.9V-2h1.4v8.4h-1.4V5h0
			c-0.4,0.9-1.3,1.6-2.7,1.6c-1.6,0-2.7-0.8-2.7-2.8V-2h1.4V3.2z"/>
		<path class="st12" d="M62.9,0.2c-0.1-0.8-0.7-1.2-1.7-1.2s-1.6,0.6-1.6,1.4c0,0.7,0.4,1,1.3,1.2l1.3,0.2c1.8,0.3,2.4,1,2.4,2.4
			c0,1.7-1.4,2.6-3.3,2.6c-1.7,0-3.2-0.8-3.3-2.6h1.4c0.1,0.7,0.4,1.5,1.9,1.5c1.2,0,1.9-0.5,1.9-1.4c0-0.7-0.2-1-1.3-1.2l-1.3-0.2
			c-1.5-0.2-2.3-0.9-2.3-2.3c0-1.5,1.1-2.6,3.1-2.6c1.8,0,2.9,0.8,3,2.3H62.9z"/>
		<path class="st12" d="M70.1,6.7c-2.6,0-3.8-1.9-3.8-4.4c0-2.5,1.3-4.5,3.8-4.5c2.5,0,3.5,2,3.5,4.1v0.7h-5.8
			c0.1,1.7,0.8,2.9,2.4,2.9c1.4,0,1.8-0.8,1.9-1.3h1.4C73.2,5.7,71.9,6.7,70.1,6.7z M72.1,1.4c0-1.4-0.6-2.5-2.1-2.5
			c-1.3,0-2.1,1.1-2.3,2.6L72.1,1.4L72.1,1.4z"/>
		<path class="st12" d="M82.9,6.5h-1.4V5.1h0c-0.4,0.8-1.4,1.6-2.7,1.6c-1.8,0-3.4-1.1-3.4-4.4c0-2.9,1.5-4.5,3.6-4.5
			c1.3,0,2.1,0.7,2.4,1.5h0v-5.5h1.4V6.5z M81.5,1.9c0-1.8-0.9-2.9-2.3-2.9c-1.6,0-2.4,1.3-2.4,3.3c0,1.9,0.6,3.3,2.2,3.3
			c1.5,0,2.4-1.2,2.4-2.7V1.9z"/>
		<path class="st12" d="M90.5-5.4H92v1.6h-1.5V-5.4z M90.6-2H92v8.4h-1.5V-2z"/>
		<path class="st12" d="M100.5,1.3c0-0.6,0-1.3-0.3-1.7C100-0.8,99.5-1,98.9-1c-1.6,0-2.3,1-2.3,2.4v5.1h-1.4V-2h1.4v1.4h0
			C97-1.4,98-2.2,99.3-2.2c1.6,0,2.7,0.8,2.7,2.8v5.9h-1.4V1.3z"/>
		<path class="st12" d="M108.7-2h1.4l1.8,5.3c0.3,0.8,0.4,1.3,0.4,1.3h0c0,0,0.1-0.5,0.4-1.3l1.7-5.3h1.4l-3.1,9
			c-0.7,1.9-1.2,2.7-3.1,2.7c-0.3,0-0.6,0-0.9-0.1V8.4c0.3,0.1,0.6,0.1,0.7,0.1c1.1,0,1.4-0.4,1.8-1.5l0.2-0.4L108.7-2z"/>
		<path class="st12" d="M117.2,2.3c0-2.6,1.4-4.4,3.8-4.4c2.5,0,3.8,1.8,3.8,4.4c0,2.6-1.4,4.4-3.8,4.4
			C118.5,6.7,117.2,4.9,117.2,2.3z M118.7,2.3c0,2.1,0.7,3.3,2.3,3.3c1.6,0,2.3-1.2,2.3-3.3c0-2-0.7-3.3-2.3-3.3
			C119.5-1.1,118.7,0.2,118.7,2.3z"/>
		<path class="st12" d="M128.6,3.2c0,0.6,0,1.3,0.3,1.7c0.3,0.4,0.7,0.6,1.3,0.6c1.6,0,2.3-1,2.3-2.9V-2h1.4v8.4h-1.4V5h0
			c-0.4,0.9-1.3,1.6-2.7,1.6c-1.6,0-2.7-0.8-2.7-2.8V-2h1.4V3.2z"/>
		<path class="st12" d="M137.1-2h1.4v1.6h0c0.4-0.9,1.4-1.7,2.7-1.7h0.1v1.5H141c-1.5,0-2.5,0.9-2.5,2.5v4.6h-1.4V-2z"/>
		<path class="st12" d="M154.8,6.5h-1.4V5.1h0c-0.4,0.8-1.4,1.6-2.7,1.6c-1.8,0-3.4-1.1-3.4-4.4c0-2.9,1.5-4.5,3.6-4.5
			c1.3,0,2.1,0.7,2.4,1.5h0v-5.5h1.4V6.5z M153.4,1.9c0-1.8-0.9-2.9-2.3-2.9c-1.6,0-2.4,1.3-2.4,3.3c0,1.9,0.6,3.3,2.2,3.3
			c1.5,0,2.4-1.2,2.4-2.7V1.9z"/>
		<path class="st12" d="M161,6.7c-2.6,0-3.8-1.9-3.8-4.4c0-2.5,1.3-4.5,3.8-4.5c2.5,0,3.5,2,3.5,4.1v0.7h-5.8
			c0.1,1.7,0.8,2.9,2.4,2.9c1.4,0,1.8-0.8,1.9-1.3h1.4C164.1,5.7,162.8,6.7,161,6.7z M163,1.4c0-1.4-0.6-2.5-2.1-2.5
			c-1.3,0-2.1,1.1-2.3,2.6L163,1.4L163,1.4z"/>
		<path class="st12" d="M171.1,0.2c-0.1-0.8-0.7-1.2-1.7-1.2s-1.6,0.6-1.6,1.4c0,0.7,0.4,1,1.3,1.2l1.3,0.2c1.8,0.3,2.4,1,2.4,2.4
			c0,1.7-1.4,2.6-3.3,2.6c-1.7,0-3.2-0.8-3.3-2.6h1.4c0.1,0.7,0.4,1.5,1.9,1.5c1.2,0,1.9-0.5,1.9-1.4c0-0.7-0.2-1-1.3-1.2l-1.3-0.2
			c-1.5-0.2-2.3-0.9-2.3-2.3c0-1.5,1.1-2.6,3.1-2.6c1.8,0,2.9,0.8,3,2.3H171.1z"/>
		<path class="st12" d="M175.2-5.4h1.5v1.6h-1.5V-5.4z M175.2-2h1.5v8.4h-1.5V-2z"/>
		<path class="st12" d="M179.3,7.3h1.4c0.2,0.7,0.7,1.2,2.1,1.2c1.6,0,2.4-0.6,2.4-2.4V4.8h0c-0.4,0.8-1.4,1.6-2.7,1.6
			c-1.8,0-3.4-1.1-3.4-4.2c0-2.8,1.5-4.3,3.6-4.3c1.4,0,2.2,0.8,2.5,1.5h0V-2h1.4v8.2c0,2.4-1.6,3.4-3.8,3.4
			C181.1,9.7,179.5,9.1,179.3,7.3z M185.2,1.8c0-1.7-0.9-2.8-2.4-2.8c-1.5,0-2.2,1.3-2.2,3.2c0,1.9,0.5,3.1,2.3,3.1
			c1.4,0,2.3-1.2,2.3-2.6V1.8z"/>
		<path class="st12" d="M195.1,1.3c0-0.6,0-1.3-0.3-1.7C194.5-0.8,194-1,193.5-1c-1.6,0-2.3,1-2.3,2.4v5.1h-1.4V-2h1.4v1.4h0
			c0.4-0.9,1.4-1.6,2.7-1.6c1.6,0,2.7,0.8,2.7,2.8v5.9h-1.4V1.3z"/>
		<path class="st12" d="M199.1,4.5h2v2h-2V4.5z"/>
		<path class="st12" d="M-90.8,30.6h4.5v1.3h-4.5V30.6z"/>
		<path class="st12" d="M-79,24.2h7.8v1.3h-6.3v4.1h5.8v1.3h-5.8v4.2h6.4v1.3H-79V24.2z"/>
		<path class="st12" d="M-66.5,32.1l-2.7-4.1h1.7l1.8,2.9h0l1.9-2.9h1.6l-2.7,4l2.9,4.4h-1.7l-2.1-3.3h0l-2.1,3.3h-1.6L-66.5,32.1z"
			/>
		<path class="st12" d="M-60,28h1.4v1.4h0c0.5-0.9,1.4-1.6,2.7-1.6c1.8,0,3.4,1.1,3.4,4.3c0,3.1-1.6,4.5-3.5,4.5
			c-1.2,0-2.2-0.7-2.5-1.4h0v4.2H-60V28z M-56.2,35.5c1.5,0,2.2-1.2,2.2-3.4c0-1.8-0.5-3.2-2.3-3.2c-1.5,0-2.4,1.3-2.4,2.7v0.9
			C-58.6,34.2-57.8,35.5-56.2,35.5z"/>
		<path class="st12" d="M-50.7,32.3c0-2.6,1.4-4.4,3.8-4.4c2.5,0,3.8,1.8,3.8,4.4c0,2.6-1.4,4.4-3.8,4.4
			C-49.4,36.7-50.7,34.9-50.7,32.3z M-49.2,32.3c0,2.1,0.7,3.3,2.3,3.3c1.6,0,2.3-1.2,2.3-3.3c0-2-0.7-3.3-2.3-3.3
			C-48.4,28.9-49.2,30.2-49.2,32.3z"/>
		<path class="st12" d="M-40.7,28h1.4v1.6h0c0.4-0.9,1.4-1.7,2.7-1.7h0.1v1.5h-0.3c-1.5,0-2.5,0.9-2.5,2.5v4.6h-1.4V28z"/>
		<path class="st12" d="M-32.2,25.6V28h2.1v1.1h-2.1v5c0,0.9,0.4,1.2,1.3,1.2c0.4,0,0.9-0.1,0.9-0.1v1.2c0,0-0.6,0.1-1.3,0.1
			c-1.6,0-2.3-0.8-2.3-2.2v-5.2h-1.5v-1.1h0.3c1.1,0,1.4-0.3,1.4-1.9v-0.6H-32.2z"/>
		<path class="st12" d="M-23.9,30.3c0-1.5,1.2-2.5,3.2-2.5c2.1,0,3.1,0.9,3.1,3.1v3.4c0,0.7,0.1,0.9,0.8,1v1.2H-17
			c-1.3,0-1.8-0.5-1.9-1.5h0c-0.4,1-1.5,1.6-2.7,1.6c-1.7,0-2.7-0.9-2.7-2.4c0-0.9,0.4-1.7,1.3-2.1c0.9-0.5,2.2-0.6,4.1-0.7V31
			c0-1.5-0.6-2.1-1.8-2.1c-1.2,0-1.7,0.7-1.8,1.4H-23.9z M-19,32.7v-0.2c-1.8,0.1-2.9,0.2-3.4,0.6c-0.3,0.2-0.5,0.6-0.5,1
			c0,0.9,0.6,1.3,1.5,1.3C-20.3,35.5-19,34.7-19,32.7z"/>
		<path class="st12" d="M-9.2,31.3c0-0.6,0-1.3-0.3-1.7c-0.3-0.4-0.8-0.6-1.3-0.6c-1.6,0-2.3,1-2.3,2.4v5.1h-1.4V28h1.4v1.4h0
			c0.4-0.9,1.4-1.6,2.7-1.6c1.6,0,2.7,0.8,2.7,2.8v5.9h-1.4V31.3z"/>
		<path class="st12" d="M2.1,36.5H0.8v-1.4h0c-0.4,0.8-1.4,1.6-2.7,1.6c-1.8,0-3.4-1.1-3.4-4.4c0-2.9,1.5-4.5,3.6-4.5
			c1.3,0,2.1,0.7,2.4,1.5h0v-5.5h1.4V36.5z M0.7,31.9c0-1.8-0.9-2.9-2.3-2.9c-1.6,0-2.4,1.3-2.4,3.3c0,1.9,0.6,3.3,2.2,3.3
			c1.5,0,2.4-1.2,2.4-2.7V31.9z"/>
		<path class="st12" d="M14,30.2c-0.1-0.8-0.7-1.2-1.7-1.2s-1.6,0.6-1.6,1.4c0,0.7,0.4,1,1.3,1.2l1.3,0.2c1.8,0.3,2.4,1,2.4,2.4
			c0,1.7-1.4,2.6-3.3,2.6c-1.7,0-3.2-0.8-3.3-2.6h1.4c0.1,0.7,0.4,1.5,1.9,1.5c1.2,0,1.9-0.5,1.9-1.4c0-0.7-0.2-1-1.3-1.2l-1.3-0.2
			c-1.5-0.2-2.3-0.9-2.3-2.3c0-1.5,1.1-2.6,3.1-2.6c1.8,0,2.9,0.8,3,2.3H14z"/>
		<path class="st12" d="M19.3,33.2c0,0.6,0,1.3,0.3,1.7c0.3,0.4,0.7,0.6,1.3,0.6c1.6,0,2.3-1,2.3-2.9V28h1.4v8.4h-1.4V35h0
			c-0.4,0.9-1.3,1.6-2.7,1.6c-1.6,0-2.7-0.8-2.7-2.8V28h1.4V33.2z"/>
		<path class="st12" d="M27.8,23.9h1.4v5.6h0c0.5-0.9,1.4-1.6,2.7-1.6c1.8,0,3.4,1.1,3.4,4.3c0,3.1-1.6,4.5-3.5,4.5
			c-1.3,0-2.2-0.7-2.6-1.6h0v1.3h-1.4V23.9z M33.9,32.1c0-1.8-0.5-3.2-2.3-3.2c-1.5,0-2.4,1.3-2.4,2.7v0.9c0,1.7,0.8,3,2.4,3
			C33.1,35.5,33.9,34.3,33.9,32.1z"/>
		<path class="st12" d="M37.8,28h1.4v1.4h0c0.4-0.9,1.4-1.6,2.7-1.6c1.3,0,2.2,0.6,2.5,1.7h0c0.3-0.9,1.4-1.7,2.8-1.7
			c1.6,0,2.7,0.8,2.7,2.8v5.9h-1.4v-5.2c0-0.6,0-1.3-0.3-1.7c-0.3-0.4-0.8-0.5-1.3-0.5c-1.6,0-2.3,1-2.3,2.4v5.1h-1.4v-5.2
			c0-0.6,0-1.2-0.3-1.7C42.5,29.2,42,29,41.5,29c-1.6,0-2.3,1-2.3,2.4v5.1h-1.4V28z"/>
		<path class="st12" d="M52.9,24.6h1.5v1.6h-1.5V24.6z M52.9,28h1.5v8.4h-1.5V28z"/>
		<path class="st12" d="M59.3,25.6V28h2.1v1.1h-2.1v5c0,0.9,0.4,1.2,1.3,1.2c0.4,0,0.9-0.1,0.9-0.1v1.2c0,0-0.6,0.1-1.3,0.1
			c-1.6,0-2.3-0.8-2.3-2.2v-5.2h-1.5v-1.1h0.3c1.1,0,1.4-0.3,1.4-1.9v-0.6H59.3z"/>
		<path class="st12" d="M68,23.9h1.4v12.6H68V23.9z"/>
		<path class="st12" d="M71.9,32.3c0-2.6,1.4-4.4,3.8-4.4c2.5,0,3.8,1.8,3.8,4.4c0,2.6-1.4,4.4-3.8,4.4
			C73.2,36.7,71.9,34.9,71.9,32.3z M73.4,32.3c0,2.1,0.7,3.3,2.3,3.3c1.6,0,2.3-1.2,2.3-3.3c0-2-0.7-3.3-2.3-3.3
			C74.1,28.9,73.4,30.2,73.4,32.3z"/>
		<path class="st12" d="M81.5,37.3h1.4c0.2,0.7,0.7,1.2,2.1,1.2c1.6,0,2.4-0.6,2.4-2.4v-1.2h0c-0.4,0.8-1.4,1.6-2.7,1.6
			c-1.8,0-3.4-1.1-3.4-4.2c0-2.8,1.5-4.3,3.6-4.3c1.4,0,2.2,0.8,2.5,1.5h0V28h1.4v8.2c0,2.4-1.6,3.4-3.8,3.4
			C83.3,39.7,81.7,39.1,81.5,37.3z M87.4,31.8c0-1.7-0.9-2.8-2.4-2.8c-1.5,0-2.2,1.3-2.2,3.2c0,1.9,0.5,3.1,2.3,3.1
			c1.4,0,2.3-1.2,2.3-2.6V31.8z"/>
		<path class="st12" d="M91.2,32.3c0-2.6,1.4-4.4,3.8-4.4c2.5,0,3.8,1.8,3.8,4.4c0,2.6-1.4,4.4-3.8,4.4
			C92.5,36.7,91.2,34.9,91.2,32.3z M92.7,32.3c0,2.1,0.7,3.3,2.3,3.3c1.6,0,2.3-1.2,2.3-3.3c0-2-0.7-3.3-2.3-3.3
			C93.4,28.9,92.7,30.2,92.7,32.3z"/>
		<path class="st12" d="M105.4,30.2c-0.1-0.8-0.7-1.2-1.7-1.2s-1.6,0.6-1.6,1.4c0,0.7,0.4,1,1.3,1.2l1.3,0.2c1.8,0.3,2.4,1,2.4,2.4
			c0,1.7-1.4,2.6-3.3,2.6c-1.7,0-3.2-0.8-3.3-2.6h1.4c0.1,0.7,0.4,1.5,1.9,1.5c1.2,0,1.9-0.5,1.9-1.4c0-0.7-0.2-1-1.3-1.2l-1.3-0.2
			c-1.5-0.2-2.3-0.9-2.3-2.3c0-1.5,1.1-2.6,3.1-2.6c1.8,0,2.9,0.8,3,2.3H105.4z"/>
		<path class="st12" d="M113.6,30.3c0-1.5,1.2-2.5,3.2-2.5c2.1,0,3.1,0.9,3.1,3.1v3.4c0,0.7,0.1,0.9,0.8,1v1.2h-0.2
			c-1.3,0-1.8-0.5-1.9-1.5h0c-0.4,1-1.5,1.6-2.7,1.6c-1.7,0-2.7-0.9-2.7-2.4c0-0.9,0.4-1.7,1.3-2.1c0.9-0.5,2.2-0.6,4.1-0.7V31
			c0-1.5-0.6-2.1-1.8-2.1c-1.2,0-1.7,0.7-1.8,1.4H113.6z M118.5,32.7v-0.2c-1.8,0.1-2.9,0.2-3.4,0.6c-0.3,0.2-0.5,0.6-0.5,1
			c0,0.9,0.6,1.3,1.5,1.3C117.2,35.5,118.5,34.7,118.5,32.7z"/>
		<path class="st12" d="M124.8,25.6V28h2.1v1.1h-2.1v5c0,0.9,0.4,1.2,1.3,1.2c0.4,0,0.9-0.1,0.9-0.1v1.2c0,0-0.6,0.1-1.3,0.1
			c-1.6,0-2.3-0.8-2.3-2.2v-5.2h-1.5v-1.1h0.3c1.1,0,1.4-0.3,1.4-1.9v-0.6H124.8z"/>
		<path class="st12" d="M135.2,27.7h-2.4v-1h0.4c0.8,0,1.4-0.2,1.7-0.6c0.4-0.4,0.5-0.8,0.5-1.6h1.2v11.9h-1.5V27.7z"/>
		<path class="st12" d="M144.2,24.4c2.6,0,4.3,2,4.3,6.1c0,4.1-1.7,6.1-4.3,6.1c-2.6,0-4.2-2-4.2-6.1
			C140,26.5,141.7,24.4,144.2,24.4z M146.9,30.6c0-3.3-1-5-2.7-5c-1.7,0-2.7,1.6-2.7,5c0,3.3,1,4.9,2.7,4.9
			C145.9,35.5,146.9,33.8,146.9,30.6z"/>
		<path class="st12" d="M155.2,24.4c2.6,0,4.3,2,4.3,6.1c0,4.1-1.7,6.1-4.3,6.1c-2.6,0-4.2-2-4.2-6.1
			C150.9,26.5,152.6,24.4,155.2,24.4z M157.9,30.6c0-3.3-1-5-2.7-5c-1.7,0-2.7,1.6-2.7,5c0,3.3,1,4.9,2.7,4.9
			C156.8,35.5,157.9,33.8,157.9,30.6z"/>
		<path class="st12" d="M166.1,24.4c2.6,0,4.3,2,4.3,6.1c0,4.1-1.7,6.1-4.3,6.1c-2.6,0-4.2-2-4.2-6.1
			C161.9,26.5,163.6,24.4,166.1,24.4z M168.9,30.6c0-3.3-1-5-2.7-5c-1.7,0-2.7,1.6-2.7,5c0,3.3,1,4.9,2.7,4.9
			C167.8,35.5,168.9,33.8,168.9,30.6z"/>
		<path class="st12" d="M173.2,28h1.4v1.4h0c0.5-0.9,1.4-1.6,2.7-1.6c1.8,0,3.4,1.1,3.4,4.3c0,3.1-1.6,4.5-3.5,4.5
			c-1.2,0-2.2-0.7-2.5-1.4h0v4.2h-1.4V28z M177,35.5c1.5,0,2.2-1.2,2.2-3.4c0-1.8-0.5-3.2-2.3-3.2c-1.5,0-2.4,1.3-2.4,2.7v0.9
			C174.6,34.2,175.4,35.5,177,35.5z"/>
		<path class="st12" d="M184.6,32.1L182,28h1.7l1.8,2.9h0l1.9-2.9h1.6l-2.7,4l2.9,4.4h-1.7l-2.1-3.3h0l-2.1,3.3h-1.6L184.6,32.1z"/>
		<path class="st12" d="M199.9,30.2c-0.1-0.8-0.7-1.2-1.7-1.2s-1.6,0.6-1.6,1.4c0,0.7,0.4,1,1.3,1.2l1.3,0.2c1.8,0.3,2.4,1,2.4,2.4
			c0,1.7-1.4,2.6-3.3,2.6c-1.7,0-3.2-0.8-3.3-2.6h1.4c0.1,0.7,0.4,1.5,1.9,1.5c1.2,0,1.9-0.5,1.9-1.4c0-0.7-0.2-1-1.3-1.2l-1.3-0.2
			c-1.5-0.2-2.3-0.9-2.3-2.3c0-1.5,1.1-2.6,3.1-2.6c1.8,0,2.9,0.8,3,2.3H199.9z"/>
		<path class="st12" d="M210.8,39.5h-1.4v-4.3h0c-0.4,0.8-1.3,1.5-2.6,1.5c-1.8,0-3.4-1.1-3.4-4.4c0-2.9,1.5-4.5,3.6-4.5
			c1.3,0,2.1,0.7,2.4,1.5h0V28h1.4V39.5z M209.4,32.8v-0.9c0-1.8-0.9-2.9-2.3-2.9c-1.6,0-2.4,1.3-2.4,3.3c0,1.9,0.6,3.3,2.2,3.3
			C208.5,35.5,209.4,34.4,209.4,32.8z"/>
		<path class="st12" d="M215.3,33.2c0,0.6,0,1.3,0.3,1.7c0.3,0.4,0.7,0.6,1.3,0.6c1.6,0,2.3-1,2.3-2.9V28h1.4v8.4h-1.4V35h0
			c-0.4,0.9-1.3,1.6-2.7,1.6c-1.6,0-2.7-0.8-2.7-2.8V28h1.4V33.2z"/>
		<path class="st12" d="M223.4,30.3c0-1.5,1.2-2.5,3.2-2.5c2.1,0,3.1,0.9,3.1,3.1v3.4c0,0.7,0.1,0.9,0.8,1v1.2h-0.2
			c-1.3,0-1.8-0.5-1.9-1.5h0c-0.4,1-1.5,1.6-2.7,1.6c-1.7,0-2.7-0.9-2.7-2.4c0-0.9,0.4-1.7,1.3-2.1c0.9-0.5,2.2-0.6,4.1-0.7V31
			c0-1.5-0.6-2.1-1.8-2.1c-1.2,0-1.7,0.7-1.8,1.4H223.4z M228.3,32.7v-0.2c-1.8,0.1-2.9,0.2-3.4,0.6c-0.3,0.2-0.5,0.6-0.5,1
			c0,0.9,0.6,1.3,1.5,1.3C226.9,35.5,228.3,34.7,228.3,32.7z"/>
		<path class="st12" d="M232.7,28h1.4v1.6h0c0.4-0.9,1.4-1.7,2.7-1.7h0.1v1.5h-0.3c-1.5,0-2.5,0.9-2.5,2.5v4.6h-1.4V28z"/>
		<path class="st12" d="M242,36.7c-2.6,0-3.8-1.9-3.8-4.4c0-2.5,1.3-4.5,3.8-4.5c2.5,0,3.5,2,3.5,4.1v0.7h-5.8
			c0.1,1.7,0.8,2.9,2.4,2.9c1.4,0,1.8-0.8,1.9-1.3h1.4C245.1,35.7,243.8,36.7,242,36.7z M244,31.4c0-1.4-0.6-2.5-2.1-2.5
			c-1.3,0-2.1,1.1-2.3,2.6L244,31.4L244,31.4z"/>
		<path class="st12" d="M254.2,25.6V28h2.1v1.1h-2.1v5c0,0.9,0.4,1.2,1.3,1.2c0.4,0,0.9-0.1,0.9-0.1v1.2c0,0-0.6,0.1-1.3,0.1
			c-1.6,0-2.3-0.8-2.3-2.2v-5.2h-1.5v-1.1h0.3c1.1,0,1.4-0.3,1.4-1.9v-0.6H254.2z"/>
		<path class="st12" d="M257.8,32.3c0-2.6,1.4-4.4,3.8-4.4c2.5,0,3.8,1.8,3.8,4.4c0,2.6-1.4,4.4-3.8,4.4
			C259.1,36.7,257.8,34.9,257.8,32.3z M259.3,32.3c0,2.1,0.7,3.3,2.3,3.3c1.6,0,2.3-1.2,2.3-3.3c0-2-0.7-3.3-2.3-3.3
			C260,28.9,259.3,30.2,259.3,32.3z"/>
		<path class="st12" d="M267.5,28h2v2h-2V28z M267.5,36.5v-2h2v2H267.5z"/>
		<path class="st12" d="M-72.7,60.6h4.5v1.3h-4.5V60.6z"/>
		<path class="st12" d="M-62.2,66.5v-1.3h0.3c2.6,0,3-0.7,3-2.5v-8.5h1.5v8.7c0,2.6-1.4,3.6-4.1,3.6H-62.2z"/>
		<path class="st12" d="M-52.5,61.8v4.7H-54V54.2h3.7c2.4,0,4.2,1.1,4.2,3.8c0,2.6-1.8,3.8-4.3,3.8H-52.5z M-50.5,60.6
			c1.8,0,2.8-0.9,2.8-2.6c0-1.8-1-2.6-2.8-2.6h-2.1v5.2H-50.5z"/>
		<path class="st12" d="M-42.7,60.5c0,3.2,1.4,5.1,3.9,5.1c2.3,0,3.7-1.3,3.7-3.7v-0.2h-3.5v-1.3h5v6.2h-1.3v-1.8H-35
			c-0.6,1.1-1.8,2-3.8,2c-3.1,0-5.4-2-5.4-6.3c0-4,2.4-6.4,5.6-6.4c2.5,0,4.3,1.3,4.6,3.4h-1.6c-0.2-1.4-1.5-2.2-3.1-2.2
			C-41.3,55.2-42.7,57.3-42.7,60.5z"/>
		<path class="st12" d="M-30.6,64.5h1.8l-1.3,3.8h-1L-30.6,64.5z"/>
		<path class="st12" d="M-20.4,61.8v4.7h-1.5V54.2h3.7c2.4,0,4.2,1.1,4.2,3.8c0,2.6-1.8,3.8-4.3,3.8H-20.4z M-18.3,60.6
			c1.8,0,2.8-0.9,2.8-2.6c0-1.8-1-2.6-2.8-2.6h-2.1v5.2H-18.3z"/>
		<path class="st12" d="M-11.5,54.2h1.9l5.4,9.1c0.4,0.7,0.6,1.2,0.6,1.2h0V54.2h1.4v12.2H-4l-5.4-9.1c-0.5-0.8-0.6-1.2-0.6-1.2h0
			v10.3h-1.4V54.2z"/>
		<path class="st12" d="M2.4,60.5c0,3.2,1.4,5.1,3.9,5.1c2.3,0,3.7-1.3,3.7-3.7v-0.2H6.4v-1.3h5v6.2h-1.3v-1.8H10
			c-0.6,1.1-1.8,2-3.8,2c-3.1,0-5.4-2-5.4-6.3c0-4,2.4-6.4,5.6-6.4c2.5,0,4.3,1.3,4.6,3.4H9.4c-0.2-1.4-1.5-2.2-3.1-2.2
			C3.7,55.2,2.4,57.3,2.4,60.5z"/>
		<path class="st12" d="M14.4,58h2v2h-2V58z M14.4,66.5v-2h2v2H14.4z"/>
		<path class="st12" d="M27.6,60.2c-0.1-0.8-0.7-1.2-1.7-1.2s-1.6,0.6-1.6,1.4c0,0.7,0.4,1,1.3,1.2l1.3,0.2c1.8,0.3,2.4,1,2.4,2.4
			c0,1.7-1.4,2.6-3.3,2.6c-1.7,0-3.2-0.8-3.3-2.6H24c0.1,0.7,0.4,1.5,1.9,1.5c1.2,0,1.9-0.5,1.9-1.4c0-0.7-0.2-1-1.3-1.2l-1.3-0.2
			c-1.5-0.2-2.3-0.9-2.3-2.3c0-1.5,1.1-2.6,3.1-2.6c1.8,0,2.9,0.8,3,2.3H27.6z"/>
		<path class="st12" d="M34.8,66.7c-2.6,0-3.8-1.9-3.8-4.4c0-2.5,1.3-4.5,3.8-4.5c2.5,0,3.5,2,3.5,4.1v0.7h-5.8
			c0.1,1.7,0.8,2.9,2.4,2.9c1.4,0,1.8-0.8,1.9-1.3h1.4C37.8,65.7,36.6,66.7,34.8,66.7z M36.8,61.4c0-1.4-0.6-2.5-2.1-2.5
			c-1.3,0-2.1,1.1-2.3,2.6L36.8,61.4L36.8,61.4z"/>
		<path class="st12" d="M42.5,55.6V58h2.1v1.1h-2.1v5c0,0.9,0.4,1.2,1.3,1.2c0.4,0,0.9-0.1,0.9-0.1v1.2c0,0-0.6,0.1-1.3,0.1
			c-1.6,0-2.3-0.8-2.3-2.2v-5.2h-1.5v-1.1h0.3c1.1,0,1.4-0.3,1.4-1.9v-0.6H42.5z"/>
		<path class="st12" d="M52.9,55.6V58H55v1.1h-2.1v5c0,0.9,0.4,1.2,1.3,1.2c0.4,0,0.9-0.1,0.9-0.1v1.2c0,0-0.6,0.1-1.3,0.1
			c-1.6,0-2.3-0.8-2.3-2.2v-5.2H50v-1.1h0.3c1.1,0,1.4-0.3,1.4-1.9v-0.6H52.9z"/>
		<path class="st12" d="M56.5,62.3c0-2.6,1.4-4.4,3.8-4.4c2.5,0,3.8,1.8,3.8,4.4c0,2.6-1.4,4.4-3.8,4.4
			C57.8,66.7,56.5,64.9,56.5,62.3z M58,62.3c0,2.1,0.7,3.3,2.3,3.3c1.6,0,2.3-1.2,2.3-3.3c0-2-0.7-3.3-2.3-3.3
			C58.8,58.9,58,60.2,58,62.3z"/>
		<path class="st12" d="M71,58h1.4v1.4h0c0.4-0.9,1.4-1.6,2.7-1.6c1.3,0,2.2,0.6,2.5,1.7h0c0.3-0.9,1.4-1.7,2.8-1.7
			c1.6,0,2.7,0.8,2.7,2.8v5.9h-1.4v-5.2c0-0.6,0-1.3-0.3-1.7c-0.3-0.4-0.8-0.5-1.3-0.5c-1.6,0-2.3,1-2.3,2.4v5.1h-1.4v-5.2
			c0-0.6,0-1.2-0.3-1.7c-0.3-0.4-0.8-0.6-1.3-0.6c-1.6,0-2.3,1-2.3,2.4v5.1H71V58z"/>
		<path class="st12" d="M85.9,60.3c0-1.5,1.2-2.5,3.2-2.5c2.1,0,3.1,0.9,3.1,3.1v3.4c0,0.7,0.1,0.9,0.8,1v1.2h-0.2
			c-1.3,0-1.8-0.5-1.9-1.5h0c-0.4,1-1.5,1.6-2.7,1.6c-1.7,0-2.7-0.9-2.7-2.4c0-0.9,0.4-1.7,1.3-2.1c0.9-0.5,2.2-0.6,4.1-0.7V61
			c0-1.5-0.6-2.1-1.8-2.1c-1.2,0-1.7,0.7-1.8,1.4H85.9z M90.8,62.7v-0.2c-1.8,0.1-2.9,0.2-3.4,0.6c-0.3,0.2-0.5,0.6-0.5,1
			c0,0.9,0.6,1.3,1.5,1.3C89.5,65.5,90.8,64.7,90.8,62.7z"/>
		<path class="st12" d="M96.9,62.1L94.2,58h1.7l1.8,2.9h0l1.9-2.9h1.6l-2.7,4l2.9,4.4h-1.7l-2.1-3.3h0l-2.1,3.3H94L96.9,62.1z"/>
		<path class="st12" d="M103.5,54.6h1.5v1.6h-1.5V54.6z M103.5,58h1.5v8.4h-1.5V58z"/>
		<path class="st12" d="M108.1,58h1.4v1.4h0c0.4-0.9,1.4-1.6,2.7-1.6c1.3,0,2.2,0.6,2.5,1.7h0c0.3-0.9,1.4-1.7,2.8-1.7
			c1.6,0,2.7,0.8,2.7,2.8v5.9h-1.4v-5.2c0-0.6,0-1.3-0.3-1.7c-0.3-0.4-0.8-0.5-1.3-0.5c-1.6,0-2.3,1-2.3,2.4v5.1h-1.4v-5.2
			c0-0.6,0-1.2-0.3-1.7c-0.3-0.4-0.8-0.6-1.3-0.6c-1.6,0-2.3,1-2.3,2.4v5.1h-1.4V58z"/>
		<path class="st12" d="M124.7,63.2c0,0.6,0,1.3,0.3,1.7c0.3,0.4,0.7,0.6,1.3,0.6c1.6,0,2.3-1,2.3-2.9V58h1.4v8.4h-1.4V65h0
			c-0.4,0.9-1.3,1.6-2.7,1.6c-1.6,0-2.7-0.8-2.7-2.8V58h1.4V63.2z"/>
		<path class="st12" d="M133.2,58h1.4v1.4h0c0.4-0.9,1.4-1.6,2.7-1.6c1.3,0,2.2,0.6,2.5,1.7h0c0.3-0.9,1.4-1.7,2.8-1.7
			c1.6,0,2.7,0.8,2.7,2.8v5.9h-1.4v-5.2c0-0.6,0-1.3-0.3-1.7c-0.3-0.4-0.8-0.5-1.3-0.5c-1.6,0-2.3,1-2.3,2.4v5.1h-1.4v-5.2
			c0-0.6,0-1.2-0.3-1.7c-0.3-0.4-0.8-0.6-1.3-0.6c-1.6,0-2.3,1-2.3,2.4v5.1h-1.4V58z"/>
		<path class="st12" d="M159.7,69.5h-1.4v-4.3h0c-0.4,0.8-1.3,1.5-2.6,1.5c-1.8,0-3.4-1.1-3.4-4.4c0-2.9,1.5-4.5,3.6-4.5
			c1.3,0,2.1,0.7,2.4,1.5h0V58h1.4V69.5z M158.3,62.8v-0.9c0-1.8-0.9-2.9-2.3-2.9c-1.6,0-2.4,1.3-2.4,3.3c0,1.9,0.6,3.3,2.2,3.3
			C157.3,65.5,158.3,64.4,158.3,62.8z"/>
		<path class="st12" d="M164.1,63.2c0,0.6,0,1.3,0.3,1.7c0.3,0.4,0.7,0.6,1.3,0.6c1.6,0,2.3-1,2.3-2.9V58h1.4v8.4h-1.4V65h0
			c-0.4,0.9-1.3,1.6-2.7,1.6c-1.6,0-2.7-0.8-2.7-2.8V58h1.4V63.2z"/>
		<path class="st12" d="M172.2,60.3c0-1.5,1.2-2.5,3.2-2.5c2.1,0,3.1,0.9,3.1,3.1v3.4c0,0.7,0.1,0.9,0.8,1v1.2h-0.2
			c-1.3,0-1.8-0.5-1.9-1.5h0c-0.4,1-1.5,1.6-2.7,1.6c-1.7,0-2.7-0.9-2.7-2.4c0-0.9,0.4-1.7,1.3-2.1c0.9-0.5,2.2-0.6,4.1-0.7V61
			c0-1.5-0.6-2.1-1.8-2.1c-1.2,0-1.7,0.7-1.8,1.4H172.2z M177.1,62.7v-0.2c-1.8,0.1-2.9,0.2-3.4,0.6c-0.3,0.2-0.5,0.6-0.5,1
			c0,0.9,0.6,1.3,1.5,1.3C175.8,65.5,177.1,64.7,177.1,62.7z"/>
		<path class="st12" d="M181.6,53.9h1.4v12.6h-1.4V53.9z"/>
		<path class="st12" d="M186.1,54.6h1.5v1.6h-1.5V54.6z M186.2,58h1.5v8.4h-1.5V58z"/>
		<path class="st12" d="M192.6,55.6V58h2.1v1.1h-2.1v5c0,0.9,0.4,1.2,1.3,1.2c0.4,0,0.9-0.1,0.9-0.1v1.2c0,0-0.6,0.1-1.3,0.1
			c-1.6,0-2.3-0.8-2.3-2.2v-5.2h-1.5v-1.1h0.3c1.1,0,1.4-0.3,1.4-1.9v-0.6H192.6z"/>
		<path class="st12" d="M196.1,58h1.4l1.8,5.3c0.3,0.8,0.4,1.3,0.4,1.3h0c0,0,0.1-0.5,0.4-1.3l1.7-5.3h1.4l-3.1,9
			c-0.7,1.9-1.2,2.7-3.1,2.7c-0.3,0-0.6,0-0.9-0.1v-1.2c0.3,0.1,0.6,0.1,0.7,0.1c1.1,0,1.4-0.4,1.8-1.5l0.2-0.4L196.1,58z"/>
		<path class="st12" d="M203.9,64.5h2v2h-2V64.5z"/>
		<path class="st12" d="M-72.7,90.6h4.5v1.3h-4.5V90.6z"/>
		<path class="st12" d="M-59.5,91.8v4.7H-61V84.2h3.7c2.4,0,4.2,1.1,4.2,3.8c0,2.6-1.8,3.8-4.3,3.8H-59.5z M-57.4,90.6
			c1.8,0,2.8-0.9,2.8-2.6c0-1.8-1-2.6-2.8-2.6h-2.1v5.2H-57.4z"/>
		<path class="st12" d="M-50.6,84.2h3.8c3.3,0,5.9,1.6,5.9,6c0,4.3-2.4,6.3-5.7,6.3h-3.9V84.2z M-46.8,95.2c2.6,0,4.4-1.3,4.4-4.9
			c0-3.4-1.8-4.7-4.3-4.7h-2.4v9.7H-46.8z"/>
		<path class="st12" d="M-36.5,96.5H-38V84.2h7.3v1.3h-5.8V90h5.3v1.3h-5.3V96.5z"/>
		<path class="st12" d="M-72.7,120.6h4.5v1.3h-4.5V120.6z"/>
		<path class="st12" d="M-61,114.2h7.8v1.3h-6.3v4.1h5.8v1.3h-5.8v4.2h6.4v1.3H-61V114.2z"/>
		<path class="st12" d="M-48.5,121.8v4.7H-50v-12.2h3.7c2.4,0,4.2,1.1,4.2,3.8c0,2.6-1.8,3.8-4.3,3.8H-48.5z M-46.4,120.6
			c1.8,0,2.8-0.9,2.8-2.6c0-1.8-1-2.6-2.8-2.6h-2.1v5.2H-46.4z"/>
		<path class="st12" d="M-33.1,117.5c-0.1-1.2-0.8-2.3-2.5-2.3c-1.7,0-2.6,0.9-2.6,2.1c0,1.1,0.6,1.8,2,2l1.7,0.3
			c2.4,0.4,3.2,1.6,3.2,3.3c0,2.2-1.5,3.7-4.5,3.7c-2.8,0-4.4-1.5-4.6-3.7h1.6c0.2,1.3,1.1,2.5,3.1,2.5c2.2,0,2.9-1.1,2.9-2.4
			c0-1.1-0.6-1.8-2.1-2l-1.7-0.3c-2.4-0.4-3.2-1.7-3.2-3.3c0-2,1.6-3.4,4.1-3.4c2.6,0,3.9,1.4,4,3.5H-33.1z"/>
		<path class="st12" d="M-28.7,118h2v2h-2V118z M-28.7,126.5v-2h2v2H-28.7z"/>
		<path class="st12" d="M-16.6,126.7c-2.6,0-3.8-1.9-3.8-4.4c0-2.5,1.3-4.5,3.8-4.5c2.5,0,3.5,2,3.5,4.1v0.7h-5.8
			c0.1,1.7,0.8,2.9,2.4,2.9c1.4,0,1.8-0.8,1.9-1.3h1.4C-13.5,125.7-14.8,126.7-16.6,126.7z M-14.6,121.4c0-1.4-0.6-2.5-2.1-2.5
			c-1.3,0-2.1,1.1-2.3,2.6L-14.6,121.4L-14.6,121.4z"/>
		<path class="st12" d="M-9.1,122.1l-2.7-4.1h1.7l1.8,2.9h0l1.9-2.9h1.6l-2.7,4l2.9,4.4h-1.7l-2.1-3.3h0l-2.1,3.3H-12L-9.1,122.1z"
			/>
		<path class="st12" d="M-2.6,118h1.4v1.4h0c0.5-0.9,1.4-1.6,2.7-1.6c1.8,0,3.4,1.1,3.4,4.3c0,3.1-1.6,4.5-3.5,4.5
			c-1.2,0-2.2-0.7-2.5-1.4h0v4.2h-1.4V118z M1.2,125.5c1.5,0,2.2-1.2,2.2-3.4c0-1.8-0.5-3.2-2.3-3.2c-1.5,0-2.4,1.3-2.4,2.7v0.9
			C-1.2,124.2-0.4,125.5,1.2,125.5z"/>
		<path class="st12" d="M6.8,122.3c0-2.6,1.4-4.4,3.8-4.4c2.5,0,3.8,1.8,3.8,4.4c0,2.6-1.4,4.4-3.8,4.4C8,126.7,6.8,124.9,6.8,122.3
			z M8.2,122.3c0,2.1,0.7,3.3,2.3,3.3c1.6,0,2.3-1.2,2.3-3.3c0-2-0.7-3.3-2.3-3.3C9,118.9,8.2,120.2,8.2,122.3z"/>
		<path class="st12" d="M16.7,118h1.4v1.6h0c0.4-0.9,1.4-1.7,2.7-1.7h0.1v1.5h-0.3c-1.5,0-2.5,0.9-2.5,2.5v4.6h-1.4V118z"/>
		<path class="st12" d="M25.2,115.6v2.4h2.1v1.1h-2.1v5c0,0.9,0.4,1.2,1.3,1.2c0.4,0,0.9-0.1,0.9-0.1v1.2c0,0-0.6,0.1-1.3,0.1
			c-1.6,0-2.3-0.8-2.3-2.2v-5.2h-1.5v-1.1h0.3c1.1,0,1.4-0.3,1.4-1.9v-0.6H25.2z"/>
		<path class="st12" d="M38.2,121.3h-2.7v5.2H34v-12.2h4.4c0.9,0,1.7,0.2,2.4,0.5c1,0.5,1.6,1.5,1.6,2.9c0,2.3-1.5,3.1-2.6,3.4v0
			l2.7,5.4h-1.7L38.2,121.3z M38.3,120.1c1.4,0,2.5-0.7,2.5-2.4c0-1.5-1-2.2-2.4-2.2h-2.9v4.6H38.3z"/>
		<path class="st12" d="M46.2,120.5c0,3.2,1.4,5.1,3.9,5.1c2.3,0,3.7-1.3,3.7-3.7v-0.2h-3.5v-1.3h5v6.2h-1.3v-1.8h-0.1
			c-0.6,1.1-1.8,2-3.8,2c-3.1,0-5.4-2-5.4-6.3c0-4,2.4-6.4,5.6-6.4c2.5,0,4.3,1.3,4.6,3.4h-1.6c-0.2-1.4-1.5-2.2-3.1-2.2
			C47.5,115.2,46.2,117.3,46.2,120.5z"/>
		<path class="st12" d="M58.6,126.5v-12.2h4.8c2.1,0,3.8,1,3.8,3c0,1.5-0.8,2.4-2.2,2.7v0c1.5,0.3,2.6,1.5,2.6,2.9
			c0,2.8-2.1,3.6-4.5,3.6H58.6z M63.1,119.4c1.3,0,2.5-0.5,2.5-2c0-1.3-0.9-1.9-2.3-1.9h-3.2v4H63.1z M63.1,125.3c1.8,0,3-0.6,3-2.4
			c0-1.6-1.2-2.2-3.1-2.2h-2.8v4.7H63.1z"/>
		<path class="st12" d="M76.8,128.6c-0.9-1.8-2.1-4.1-2.1-7.3c0-3.2,1.2-5.5,2.1-7.3h1.1c-0.9,2-1.7,4.1-1.7,7.3
			c0,3.3,0.8,5.4,1.7,7.3H76.8z"/>
		<path class="st12" d="M86.8,126.5h-1.4v-1.4h0c-0.4,0.8-1.4,1.6-2.7,1.6c-1.8,0-3.4-1.1-3.4-4.4c0-2.9,1.5-4.5,3.6-4.5
			c1.3,0,2.1,0.7,2.4,1.5h0v-5.5h1.4V126.5z M85.4,121.9c0-1.8-0.9-2.9-2.3-2.9c-1.6,0-2.4,1.3-2.4,3.3c0,1.9,0.6,3.3,2.2,3.3
			c1.5,0,2.4-1.2,2.4-2.7V121.9z"/>
		<path class="st12" d="M90,114.6h1.5v1.6H90V114.6z M90,118h1.5v8.4H90V118z"/>
		<path class="st12" d="M94.1,127.3h1.4c0.2,0.7,0.7,1.2,2.1,1.2c1.6,0,2.4-0.6,2.4-2.4v-1.2h0c-0.4,0.8-1.4,1.6-2.7,1.6
			c-1.8,0-3.4-1.1-3.4-4.2c0-2.8,1.5-4.3,3.6-4.3c1.4,0,2.2,0.8,2.5,1.5h0V118h1.4v8.2c0,2.4-1.6,3.4-3.8,3.4
			C95.9,129.7,94.3,129.1,94.1,127.3z M100,121.8c0-1.7-0.9-2.8-2.4-2.8c-1.5,0-2.2,1.3-2.2,3.2c0,1.9,0.5,3.1,2.3,3.1
			c1.4,0,2.3-1.2,2.3-2.6V121.8z"/>
		<path class="st12" d="M104.5,114.6h1.5v1.6h-1.5V114.6z M104.5,118h1.5v8.4h-1.5V118z"/>
		<path class="st12" d="M110.9,115.6v2.4h2.1v1.1h-2.1v5c0,0.9,0.4,1.2,1.3,1.2c0.4,0,0.9-0.1,0.9-0.1v1.2c0,0-0.6,0.1-1.3,0.1
			c-1.6,0-2.3-0.8-2.3-2.2v-5.2H108v-1.1h0.3c1.1,0,1.4-0.3,1.4-1.9v-0.6H110.9z"/>
		<path class="st12" d="M115.4,120.3c0-1.5,1.2-2.5,3.2-2.5c2.1,0,3.1,0.9,3.1,3.1v3.4c0,0.7,0.1,0.9,0.8,1v1.2h-0.2
			c-1.3,0-1.8-0.5-1.9-1.5h0c-0.4,1-1.5,1.6-2.7,1.6c-1.7,0-2.7-0.9-2.7-2.4c0-0.9,0.4-1.7,1.3-2.1c0.9-0.5,2.2-0.6,4.1-0.7V121
			c0-1.5-0.6-2.1-1.8-2.1c-1.2,0-1.7,0.7-1.8,1.4H115.4z M120.3,122.7v-0.2c-1.8,0.1-2.9,0.2-3.4,0.6c-0.3,0.2-0.5,0.6-0.5,1
			c0,0.9,0.6,1.3,1.5,1.3C119,125.5,120.3,124.7,120.3,122.7z"/>
		<path class="st12" d="M124.8,113.9h1.4v12.6h-1.4V113.9z"/>
		<path class="st12" d="M130.2,121.2c0-3.3-0.8-5.4-1.7-7.3h1.1c0.9,1.8,2.1,4.1,2.1,7.3c0,3.2-1.2,5.5-2.1,7.3h-1.1
			C129.3,126.6,130.2,124.5,130.2,121.2z"/>
		<path class="st12" d="M139,120.3c0-1.5,1.2-2.5,3.2-2.5c2.1,0,3.1,0.9,3.1,3.1v3.4c0,0.7,0.1,0.9,0.8,1v1.2h-0.2
			c-1.3,0-1.8-0.5-1.9-1.5h0c-0.4,1-1.5,1.6-2.7,1.6c-1.7,0-2.7-0.9-2.7-2.4c0-0.9,0.4-1.7,1.3-2.1c0.9-0.5,2.2-0.6,4.1-0.7V121
			c0-1.5-0.6-2.1-1.8-2.1c-1.2,0-1.7,0.7-1.8,1.4H139z M143.9,122.7v-0.2c-1.8,0.1-2.9,0.2-3.4,0.6c-0.3,0.2-0.5,0.6-0.5,1
			c0,0.9,0.6,1.3,1.5,1.3C142.6,125.5,143.9,124.7,143.9,122.7z"/>
		<path class="st12" d="M153.7,121.3c0-0.6,0-1.3-0.3-1.7c-0.3-0.4-0.8-0.6-1.3-0.6c-1.6,0-2.3,1-2.3,2.4v5.1h-1.4V118h1.4v1.4h0
			c0.4-0.9,1.4-1.6,2.7-1.6c1.6,0,2.7,0.8,2.7,2.8v5.9h-1.4V121.3z"/>
		<path class="st12" d="M165,126.5h-1.4v-1.4h0c-0.4,0.8-1.4,1.6-2.7,1.6c-1.8,0-3.4-1.1-3.4-4.4c0-2.9,1.5-4.5,3.6-4.5
			c1.3,0,2.1,0.7,2.4,1.5h0v-5.5h1.4V126.5z M163.6,121.9c0-1.8-0.9-2.9-2.3-2.9c-1.6,0-2.4,1.3-2.4,3.3c0,1.9,0.6,3.3,2.2,3.3
			c1.5,0,2.4-1.2,2.4-2.7V121.9z"/>
		<path class="st12" d="M173.9,120.4c0,3.2,1.4,5.1,3.9,5.1c2.2,0,3.1-1.5,3.2-2.8h1.5c-0.2,2.3-2,4.1-4.7,4.1
			c-3.2,0-5.4-2.1-5.4-6.3c0-4,2.3-6.3,5.5-6.3c2.1,0,4.4,1.1,4.7,3.8h-1.6c-0.2-1.2-1.2-2.6-3.1-2.6
			C175.2,115.3,173.9,117.3,173.9,120.4z"/>
		<path class="st12" d="M185.3,114.2h2.3l3.1,8.8c0.4,1.1,0.5,1.6,0.5,1.6h0c0,0,0.2-0.5,0.5-1.6l3.2-8.8h2.2v12.2h-1.5V116h0
			c0,0-0.2,0.6-0.7,1.9l-3.1,8.6h-1.4l-3-8.6c-0.4-1.3-0.7-1.9-0.7-1.9h0v10.5h-1.4V114.2z"/>
		<path class="st12" d="M203.5,121.2l-4.3-7h1.7l3.3,5.7h0l3.4-5.7h1.6l-4.3,6.9v5.3h-1.5V121.2z"/>
		<path class="st12" d="M212.8,126.5h-1.5v-12.2h1.5v6.3l5.7-6.3h1.8l-4.7,5.1l5,7.1h-1.8l-4.3-6l-1.8,2V126.5z"/>
		<path class="st12" d="M229.4,128.6c-0.9-1.8-2.1-4.1-2.1-7.3c0-3.2,1.2-5.5,2.1-7.3h1.1c-0.9,2-1.7,4.1-1.7,7.3
			c0,3.3,0.8,5.4,1.7,7.3H229.4z"/>
		<path class="st12" d="M232.7,118h1.4v1.4h0c0.5-0.9,1.4-1.6,2.7-1.6c1.8,0,3.4,1.1,3.4,4.3c0,3.1-1.6,4.5-3.5,4.5
			c-1.2,0-2.2-0.7-2.5-1.4h0v4.2h-1.4V118z M236.5,125.5c1.5,0,2.2-1.2,2.2-3.4c0-1.8-0.5-3.2-2.3-3.2c-1.5,0-2.4,1.3-2.4,2.7v0.9
			C234.1,124.2,234.9,125.5,236.5,125.5z"/>
		<path class="st12" d="M242.6,118h1.4v1.6h0c0.4-0.9,1.4-1.7,2.7-1.7h0.1v1.5h-0.3c-1.5,0-2.5,0.9-2.5,2.5v4.6h-1.4V118z"/>
		<path class="st12" d="M249,114.6h1.5v1.6H249V114.6z M249.1,118h1.5v8.4h-1.5V118z"/>
		<path class="st12" d="M259,121.3c0-0.6,0-1.3-0.3-1.7c-0.3-0.4-0.8-0.6-1.3-0.6c-1.6,0-2.3,1-2.3,2.4v5.1h-1.4V118h1.4v1.4h0
			c0.4-0.9,1.4-1.6,2.7-1.6c1.6,0,2.7,0.8,2.7,2.8v5.9H259V121.3z"/>
		<path class="st12" d="M265.3,115.6v2.4h2.1v1.1h-2.1v5c0,0.9,0.4,1.2,1.3,1.2c0.4,0,0.9-0.1,0.9-0.1v1.2c0,0-0.6,0.1-1.3,0.1
			c-1.6,0-2.3-0.8-2.3-2.2v-5.2h-1.5v-1.1h0.3c1.1,0,1.4-0.3,1.4-1.9v-0.6H265.3z"/>
		<path class="st12" d="M270.7,121.2c0-3.3-0.8-5.4-1.7-7.3h1.1c0.9,1.8,2.1,4.1,2.1,7.3c0,3.2-1.2,5.5-2.1,7.3h-1.1
			C269.8,126.6,270.7,124.5,270.7,121.2z"/>
		<path class="st12" d="M278.7,118h1.5l1.8,5.4c0.2,0.7,0.4,1.3,0.4,1.3h0c0,0,0.2-0.6,0.4-1.3l1.9-5.4h1.4l-2.9,8.4h-1.5L278.7,118
			z"/>
		<path class="st12" d="M291.1,126.7c-2.6,0-3.8-1.9-3.8-4.4c0-2.5,1.3-4.5,3.8-4.5c2.5,0,3.5,2,3.5,4.1v0.7h-5.8
			c0.1,1.7,0.8,2.9,2.4,2.9c1.4,0,1.8-0.8,1.9-1.3h1.4C294.2,125.7,292.9,126.7,291.1,126.7z M293.1,121.4c0-1.4-0.6-2.5-2.1-2.5
			c-1.3,0-2.1,1.1-2.3,2.6L293.1,121.4L293.1,121.4z"/>
		<path class="st12" d="M297,118h1.4v1.6h0c0.4-0.9,1.4-1.7,2.7-1.7h0.1v1.5h-0.3c-1.5,0-2.5,0.9-2.5,2.5v4.6H297V118z"/>
		<path class="st12" d="M307.4,120.2c-0.1-0.8-0.7-1.2-1.7-1.2s-1.6,0.6-1.6,1.4c0,0.7,0.4,1,1.3,1.2l1.3,0.2c1.8,0.3,2.4,1,2.4,2.4
			c0,1.7-1.4,2.6-3.3,2.6c-1.7,0-3.2-0.8-3.3-2.6h1.4c0.1,0.7,0.4,1.5,1.9,1.5c1.2,0,1.9-0.5,1.9-1.4c0-0.7-0.2-1-1.3-1.2l-1.3-0.2
			c-1.5-0.2-2.3-0.9-2.3-2.3c0-1.5,1.1-2.6,3.1-2.6c1.8,0,2.9,0.8,3,2.3H307.4z"/>
		<path class="st12" d="M311.5,114.6h1.5v1.6h-1.5V114.6z M311.5,118h1.5v8.4h-1.5V118z"/>
		<path class="st12" d="M315.4,122.3c0-2.6,1.4-4.4,3.8-4.4c2.5,0,3.8,1.8,3.8,4.4c0,2.6-1.4,4.4-3.8,4.4
			C316.7,126.7,315.4,124.9,315.4,122.3z M316.9,122.3c0,2.1,0.7,3.3,2.3,3.3c1.6,0,2.3-1.2,2.3-3.3c0-2-0.7-3.3-2.3-3.3
			C317.6,118.9,316.9,120.2,316.9,122.3z"/>
		<path class="st12" d="M330.7,121.3c0-0.6,0-1.3-0.3-1.7c-0.3-0.4-0.8-0.6-1.3-0.6c-1.6,0-2.3,1-2.3,2.4v5.1h-1.4V118h1.4v1.4h0
			c0.4-0.9,1.4-1.6,2.7-1.6c1.6,0,2.7,0.8,2.7,2.8v5.9h-1.4V121.3z"/>
		<path class="st12" d="M339.4,120.2c-0.1-0.8-0.7-1.2-1.7-1.2s-1.6,0.6-1.6,1.4c0,0.7,0.4,1,1.3,1.2l1.3,0.2c1.8,0.3,2.4,1,2.4,2.4
			c0,1.7-1.4,2.6-3.3,2.6c-1.7,0-3.2-0.8-3.3-2.6h1.4c0.1,0.7,0.4,1.5,1.9,1.5c1.2,0,1.9-0.5,1.9-1.4c0-0.7-0.2-1-1.3-1.2l-1.3-0.2
			c-1.5-0.2-2.3-0.9-2.3-2.3c0-1.5,1.1-2.6,3.1-2.6c1.8,0,2.9,0.8,3,2.3H339.4z"/>
		<path class="st12" d="M343,124.5h2v2h-2V124.5z"/>
	</g>
</g>
</svg>
