<?xml version="1.0" encoding="utf-8"?>
<!-- Generator: Adobe Illustrator 24.1.0, SVG Export Plug-In . SVG Version: 6.00 Build 0)  -->
<svg version="1.1" xmlns="http://www.w3.org/2000/svg" xmlns:xlink="http://www.w3.org/1999/xlink" x="0px" y="0px"
	 viewBox="0 0 350.3 122.76" style="enable-background:new 0 0 350.3 122.76;" xml:space="preserve">
<style type="text/css">
	.st0{fill:#333333;}
	.st1{fill:#0D71BA;}
	.st2{fill:url(#SVGID_1_);}
	.st3{fill:url(#SVGID_2_);}
	.st4{fill:url(#SVGID_3_);}
	.st5{fill:url(#SVGID_4_);}
	.st6{fill:url(#SVGID_5_);}
	.st7{display:none;}
	.st8{display:inline;}
	.st9{clip-path:url(#SVGID_7_);}
	.st10{clip-path:url(#SVGID_9_);fill:#565656;}
	.st11{display:inline;opacity:0.5;fill:#CCCCCC;}
	.st12{clip-path:url(#SVGID_11_);}
	.st13{clip-path:url(#SVGID_13_);fill:#565656;}
	.st14{fill:#555655;}
	.st15{fill:#999999;}
	.st16{fill:#989898;}
</style>
<g id="Your_design">
	<g>
		<path class="st0" d="M31.38,3.99c11.63,0,25.25,2.55,25.25,12.73c0,2.1-0.67,4.87-1.99,7.97c0-11.52-11.96-14.51-24.03-14.51
			c-11.74,0-21.26,3.21-21.26,14.84c0,22.48,49.72,3.88,49.72,35.77c0,15.5-11.63,22.81-28.13,22.81
			c-11.63,0-26.58-3.43-26.58-12.96c0-2.21,0.55-4.98,1.77-8.08c0,11.18,12.73,14.84,25.47,14.84c13.95,0,20.82-6.31,20.82-16.28
			c0-24.92-49.72-6.98-49.72-35.54C2.7,8.97,16.32,3.99,31.38,3.99z"/>
		<path class="st0" d="M152.08,43.3c0-6.42-2.77-11.07-13.95-11.07c-10.74,0-17.05,4.65-17.05,11.63c-1.66-2.21-2.33-4.65-2.33-6.64
			c0-6.53,7.75-10.96,19.38-10.96c13.73,0,20.04,6.64,20.04,17.38v39.2c-1.99-0.78-4.87-1.11-6.75-1.11
			c-3.43,0-8.97,1.88-13.62,1.88c-13.84,0-20.93-6.53-20.93-15.72C116.87,47.17,148.32,54.59,152.08,43.3z M138.68,77.96
			c8.19,0,13.4-2.88,13.4-2.88V50.49c-2.21,7.75-28.9,2.99-28.9,17.5C123.18,73.75,127.72,77.96,138.68,77.96z"/>
		<path class="st0" d="M169.25,0c0.44,0,6.09,0.11,6.09,4.87v59.57c0,8.53,1.88,16.5,7.2,16.5c0,0-1.44,2.1-4.32,2.1
			c-6.2,0-8.97-6.75-8.97-15.72V0z"/>
		<path class="st0" d="M220.96,43.3c0-6.42-2.77-11.07-13.95-11.07c-10.74,0-17.05,4.65-17.05,11.63c-1.66-2.21-2.33-4.65-2.33-6.64
			c0-6.53,7.75-10.96,19.38-10.96c13.73,0,20.04,6.64,20.04,17.38v39.2c-1.99-0.78-4.87-1.11-6.75-1.11
			c-3.43,0-8.97,1.88-13.62,1.88c-13.84,0-20.93-6.53-20.93-15.72C185.74,47.17,217.19,54.59,220.96,43.3z M207.56,77.96
			c8.19,0,13.4-2.88,13.4-2.88V50.49c-2.21,7.75-28.9,2.99-28.9,17.5C192.06,73.75,196.6,77.96,207.56,77.96z"/>
		<path class="st0" d="M280.31,66.77c0,11.18-10.3,16.83-21.37,16.83c-6.98,0-12.85-2.77-20.26-3.99V0.33c1,0,6.09-0.11,6.09,5.87
			v15.39c0,9.52-1.22,11.63-1.22,11.63s4.43-6.98,18.83-6.98c9.63,0,17.94,6.31,17.94,16.83V66.77z M274.22,65.11V44.74
			c0-9.08-5.65-12.73-13.29-12.73c-7.97,0-16.17,4.76-16.17,11.63v31.01c0,0,6.42,3.21,13.51,3.21
			C270.79,77.84,274.22,72.53,274.22,65.11z"/>
		<path class="st0" d="M290.83,0c0.44,0,6.09,0.11,6.09,4.87v59.57c0,8.53,1.88,16.5,7.2,16.5c0,0-1.44,2.1-4.32,2.1
			c-6.2,0-8.97-6.75-8.97-15.72V0z"/>
		<path class="st0" d="M350.3,72.53c0,7.64-10.96,11.07-20.82,11.07c-12.73,0-20.93-6.31-20.93-17.16V43.41
			c0-10.74,7.2-17.16,20.38-17.16c13.18,0,20.82,6.42,20.82,16.06c0,8.75-5.98,15.5-21.37,15.5c-7.2,0-13.73-2.88-13.73-2.88v9.86
			c0,8.3,3.54,12.84,14.84,12.84c10.08,0,18.27-3.99,18.27-12.18C349.63,68.1,350.3,70.43,350.3,72.53z M314.64,49.28
			c-0.44,0.22,7.64,2.55,13.18,2.55c11.74,0,15.83-3.65,15.83-9.52c0-6.09-3.65-10.3-14.51-10.3c-11.74,0-14.51,4.87-14.51,13.07
			V49.28z"/>
		<path class="st1" d="M12.44,109.12c5.88,2.56,8.14,9.85,10.68,13.23c0,0-1.18,0.25-2.04,0.25c-1.45,0-3.62-0.37-4.89-2.48
			c-2.99-5.01-4.84-9.53-11.27-10.67v13.23c0,0-4.93-0.04-4.93-2.32V93.49h9.86c6.56,0,11.27,1.75,11.27,7.12v1.22
			C21.13,106.31,17.51,109.12,12.44,109.12z M4.93,96.91v9.12h5.29c4.43,0,5.97-1.63,5.97-4.8c0-3.26-2.04-4.32-6.33-4.32H4.93z"/>
		<path class="st1" d="M50.49,113.44c0,5.82-4.16,9.32-13.08,9.32c-8.91,0-13.03-3.5-13.03-9.32v-11.11c0-5.82,4.12-9.32,13.03-9.32
			c8.91,0,13.08,3.5,13.08,9.32V113.44z M45.55,102.85c0-4.03-1.31-6.43-8.19-6.43c-6.74,0-8.05,2.4-8.05,6.43v10.06
			c0,4.03,1.31,6.43,8.05,6.43c6.88,0,8.19-2.4,8.19-6.43V102.85z"/>
		<path class="st1" d="M55,93.49h9.86c6.56,0,11.27,1.79,11.27,7.12v1.14c0,2.65-1.49,5.01-3.67,5.94c2.44,0.98,4.12,3.42,4.12,6.15
			v1.1c0,5.13-4.75,7.33-11.72,7.33H59.3c0,0-4.3-0.04-4.3-2.32V93.49z M59.93,96.91v9.08h5.29c4.43,0,5.97-1.67,5.97-4.84
			c0-3.26-2.04-4.23-6.33-4.23H59.93z M59.93,109.41v9.44h4.93c4.75,0,6.79-1.26,6.79-4.52c0-3.13-1.95-4.93-6.42-4.93H59.93z"/>
		<path class="st1" d="M106.3,113.44c0,5.82-4.16,9.32-13.08,9.32c-8.91,0-13.03-3.5-13.03-9.32v-11.11c0-5.82,4.12-9.32,13.03-9.32
			c8.91,0,13.08,3.5,13.08,9.32V113.44z M101.37,102.85c0-4.03-1.31-6.43-8.19-6.43c-6.74,0-8.05,2.4-8.05,6.43v10.06
			c0,4.03,1.31,6.43,8.05,6.43c6.88,0,8.19-2.4,8.19-6.43V102.85z"/>
		<path class="st1" d="M121.64,96.91v25.77c0,0-4.93,0-4.93-2.32V96.91h-6.38c-3.26,0-3.71-2.4-3.71-4.07c0,0,1.18,0.65,4.43,0.65
			h16.33c3.26,0,4.48-0.65,4.48-0.65c0,1.67-0.5,4.07-3.75,4.07H121.64z"/>
		<path class="st1" d="M144.8,92.92c6.06,0,11.4,1.02,11.4,4.89c0,1.06-0.41,2.32-1.31,3.83c0-0.08,0-0.16,0-0.24
			c0-3.91-5.2-4.76-10.09-4.76c-4.16,0-7.37,1.22-7.37,4.23c0,7.13,19.86,0.45,19.86,13.03c0,5.9-5.34,8.83-12.58,8.83
			c-5.57,0-11.72-1.06-11.72-4.93c0-0.98,0.41-2.2,1.36-3.58c0,4.07,5.66,4.84,10.36,4.84c4.84,0,7.33-1.91,7.33-4.89
			c0-7.98-19.86-1.42-19.86-12.78C132.17,94.92,137.83,92.92,144.8,92.92z"/>
		<g>
			<g>
				<g>
					<linearGradient id="SVGID_1_" gradientUnits="userSpaceOnUse" x1="67.4673" y1="54.7525" x2="72.7822" y2="54.7525">
						<stop  offset="0" style="stop-color:#333333"/>
						<stop  offset="5.927235e-03" style="stop-color:#343434"/>
						<stop  offset="0.1725" style="stop-color:#535252"/>
						<stop  offset="0.3163" style="stop-color:#6B6B6A"/>
						<stop  offset="0.4302" style="stop-color:#7B7A7A"/>
						<stop  offset="0.5" style="stop-color:#808080"/>
						<stop  offset="0.5698" style="stop-color:#7B7A7A"/>
						<stop  offset="0.6837" style="stop-color:#6B6B6A"/>
						<stop  offset="0.8275" style="stop-color:#535252"/>
						<stop  offset="0.9941" style="stop-color:#343434"/>
						<stop  offset="1" style="stop-color:#333333"/>
					</linearGradient>
					<path class="st2" d="M72.8,47.29V62.2c-0.63-0.39-1.36-0.64-2.13-0.72c-0.16-0.01-0.32-0.02-0.49-0.02
						c-0.96,0-1.87,0.27-2.63,0.75V47.29c0.77,0.47,1.67,0.74,2.63,0.74C71.14,48.03,72.04,47.76,72.8,47.29z"/>
				</g>
			</g>
			<g>
				<g>
					<linearGradient id="SVGID_2_" gradientUnits="userSpaceOnUse" x1="77.9724" y1="76.3026" x2="81.2402" y2="72.4182">
						<stop  offset="0" style="stop-color:#333333"/>
						<stop  offset="5.927235e-03" style="stop-color:#343434"/>
						<stop  offset="0.1725" style="stop-color:#535252"/>
						<stop  offset="0.3163" style="stop-color:#6B6B6A"/>
						<stop  offset="0.4302" style="stop-color:#7B7A7A"/>
						<stop  offset="0.5" style="stop-color:#808080"/>
						<stop  offset="0.5698" style="stop-color:#7B7A7A"/>
						<stop  offset="0.6837" style="stop-color:#6B6B6A"/>
						<stop  offset="0.8275" style="stop-color:#535252"/>
						<stop  offset="0.9941" style="stop-color:#343434"/>
						<stop  offset="1" style="stop-color:#333333"/>
					</linearGradient>
					<path class="st3" d="M87.67,77.28c-1.78,0.56-3.13,2.09-3.44,3.97L71.85,71.22c1.76-0.62,3.06-2.18,3.3-4.08L87.67,77.28z"/>
				</g>
			</g>
			<g>
				<g>
					<linearGradient id="SVGID_3_" gradientUnits="userSpaceOnUse" x1="96.8682" y1="72.2003" x2="100.2342" y2="76.3766">
						<stop  offset="0" style="stop-color:#333333"/>
						<stop  offset="5.927235e-03" style="stop-color:#343434"/>
						<stop  offset="0.1725" style="stop-color:#535252"/>
						<stop  offset="0.3163" style="stop-color:#6B6B6A"/>
						<stop  offset="0.4302" style="stop-color:#7B7A7A"/>
						<stop  offset="0.5" style="stop-color:#808080"/>
						<stop  offset="0.5698" style="stop-color:#7B7A7A"/>
						<stop  offset="0.6837" style="stop-color:#6B6B6A"/>
						<stop  offset="0.8275" style="stop-color:#535252"/>
						<stop  offset="0.9941" style="stop-color:#343434"/>
						<stop  offset="1" style="stop-color:#333333"/>
					</linearGradient>
					<path class="st4" d="M106.41,71.23l-12.28,9.94c-0.34-1.87-1.71-3.38-3.51-3.91l12.49-10.11c0.03,0.3,0.09,0.58,0.18,0.86
						C103.76,69.51,104.92,70.7,106.41,71.23z"/>
				</g>
			</g>
			<g>
				<g>
					<linearGradient id="SVGID_4_" gradientUnits="userSpaceOnUse" x1="77.8906" y1="33.0904" x2="81.2388" y2="37.3066">
						<stop  offset="0" style="stop-color:#333333"/>
						<stop  offset="5.927235e-03" style="stop-color:#343434"/>
						<stop  offset="0.1725" style="stop-color:#535252"/>
						<stop  offset="0.3163" style="stop-color:#6B6B6A"/>
						<stop  offset="0.4302" style="stop-color:#7B7A7A"/>
						<stop  offset="0.5" style="stop-color:#808080"/>
						<stop  offset="0.5698" style="stop-color:#7B7A7A"/>
						<stop  offset="0.6837" style="stop-color:#6B6B6A"/>
						<stop  offset="0.8275" style="stop-color:#535252"/>
						<stop  offset="0.9941" style="stop-color:#343434"/>
						<stop  offset="1" style="stop-color:#333333"/>
					</linearGradient>
					<path class="st5" d="M87.47,32.37l-12.32,9.98c-0.24-1.9-1.55-3.46-3.3-4.08l12.35-10c0.04,0.31,0.11,0.6,0.19,0.89
						C84.86,30.64,86.01,31.84,87.47,32.37z"/>
				</g>
			</g>
			<g>
				<g>
					<linearGradient id="SVGID_5_" gradientUnits="userSpaceOnUse" x1="97.1517" y1="37.2016" x2="100.3005" y2="33.1884">
						<stop  offset="0" style="stop-color:#333333"/>
						<stop  offset="5.927235e-03" style="stop-color:#343434"/>
						<stop  offset="0.1725" style="stop-color:#535252"/>
						<stop  offset="0.3163" style="stop-color:#6B6B6A"/>
						<stop  offset="0.4302" style="stop-color:#7B7A7A"/>
						<stop  offset="0.5" style="stop-color:#808080"/>
						<stop  offset="0.5698" style="stop-color:#7B7A7A"/>
						<stop  offset="0.6837" style="stop-color:#6B6B6A"/>
						<stop  offset="0.8275" style="stop-color:#535252"/>
						<stop  offset="0.9941" style="stop-color:#343434"/>
						<stop  offset="1" style="stop-color:#333333"/>
					</linearGradient>
					<path class="st6" d="M106.41,38.27c-1.75,0.62-3.06,2.18-3.3,4.08l-12.29-9.96c1.76-0.59,3.08-2.15,3.33-4.05L106.41,38.27z"/>
				</g>
			</g>
			<path class="st1" d="M72.45,43c0,0.24-0.04,0.48-0.1,0.69c-0.07,0.2-0.16,0.39-0.27,0.57c-0.41,0.61-1.11,1.02-1.9,1.02
				c-0.79,0-1.49-0.41-1.9-1.02c-0.24-0.36-0.38-0.8-0.38-1.26c0-1.17,0.91-2.15,2.05-2.26c0.08-0.01,0.15-0.01,0.23-0.01
				C71.43,40.73,72.45,41.75,72.45,43z"/>
			<path class="st1" d="M110.36,43.01c0,1.18-0.91,2.15-2.06,2.26c-0.07,0.01-0.14,0.01-0.22,0.01c-1.25,0-2.27-1.02-2.27-2.27
				c0-0.24,0.03-0.47,0.1-0.68c0.29-0.92,1.15-1.6,2.17-1.6C109.34,40.73,110.36,41.76,110.36,43.01z"/>
			<path class="st1" d="M91.48,27.64c0,0.22-0.04,0.44-0.1,0.65c-0.17,0.62-0.6,1.14-1.16,1.43C89.89,29.9,89.51,30,89.11,30
				c-0.37,0-0.73-0.09-1.05-0.25c-0.6-0.3-1.06-0.85-1.22-1.51v-0.01c-0.06-0.19-0.08-0.39-0.08-0.59c0-1.3,1.06-2.36,2.35-2.36
				C90.42,25.28,91.48,26.34,91.48,27.64z"/>
			<path class="st1" d="M72.45,43c0,0.24-0.04,0.48-0.1,0.69c-0.07,0.2-0.16,0.39-0.27,0.57c-0.41,0.61-1.11,1.02-1.9,1.02
				c-0.79,0-1.49-0.41-1.9-1.02c-0.24-0.36-0.38-0.8-0.38-1.26c0-1.17,0.91-2.15,2.05-2.26c0.08-0.01,0.15-0.01,0.23-0.01
				C71.43,40.73,72.45,41.75,72.45,43z"/>
			<path class="st1" d="M72.45,66.49c0,1.25-1.02,2.27-2.27,2.27c-0.07,0-0.14,0-0.21-0.01c-0.58-0.05-1.1-0.32-1.47-0.73
				c-0.37-0.4-0.6-0.94-0.6-1.53c0-0.46,0.14-0.89,0.37-1.24c0.41-0.63,1.11-1.04,1.91-1.04c0.79,0,1.49,0.41,1.9,1.04
				c0.12,0.17,0.21,0.36,0.27,0.56c0,0.01,0,0.01,0,0.01C72.42,66.03,72.45,66.25,72.45,66.49z"/>
			<path class="st1" d="M91.51,82.14c0,0.25-0.04,0.49-0.11,0.71c-0.3,0.96-1.2,1.65-2.25,1.65s-1.95-0.69-2.25-1.65
				c-0.07-0.22-0.11-0.46-0.11-0.71c0-0.2,0.03-0.41,0.09-0.6c0.17-0.66,0.61-1.2,1.21-1.5c0.32-0.17,0.68-0.26,1.06-0.26
				c0.36,0,0.7,0.08,1,0.22c0.65,0.31,1.13,0.89,1.3,1.6v0.01C91.49,81.78,91.51,81.96,91.51,82.14z"/>
			<path class="st1" d="M110.36,66.49c0,1.18-0.91,2.15-2.06,2.26c-0.07,0.01-0.14,0.01-0.22,0.01c-1.25,0-2.27-1.02-2.27-2.27
				c0-0.24,0.03-0.47,0.1-0.68c0.29-0.92,1.15-1.6,2.17-1.6C109.34,64.21,110.36,65.24,110.36,66.49z"/>
			<path class="st1" d="M91.48,27.64c0,0.22-0.04,0.44-0.1,0.65c-0.17,0.62-0.6,1.14-1.16,1.43C89.89,29.9,89.51,30,89.11,30
				c-0.37,0-0.73-0.09-1.05-0.25c-0.6-0.3-1.06-0.85-1.22-1.51v-0.01c-0.06-0.19-0.08-0.39-0.08-0.59c0-1.3,1.06-2.36,2.35-2.36
				C90.42,25.28,91.48,26.34,91.48,27.64z"/>
			<path class="st1" d="M91.51,82.14c0,0.25-0.04,0.49-0.11,0.71c-0.3,0.96-1.2,1.65-2.25,1.65s-1.95-0.69-2.25-1.65
				c-0.07-0.22-0.11-0.46-0.11-0.71c0-0.2,0.03-0.41,0.09-0.6c0.17-0.66,0.61-1.2,1.21-1.5c0.32-0.17,0.68-0.26,1.06-0.26
				c0.36,0,0.7,0.08,1,0.22c0.65,0.31,1.13,0.89,1.3,1.6v0.01C91.49,81.78,91.51,81.96,91.51,82.14z"/>
			<path class="st1" d="M91.51,82.14c0,0.25-0.04,0.49-0.11,0.71c-0.3,0.96-1.2,1.65-2.25,1.65s-1.95-0.69-2.25-1.65
				c-0.07-0.22-0.11-0.46-0.11-0.71c0-0.2,0.03-0.41,0.09-0.6c0.17-0.66,0.61-1.2,1.21-1.5c0.32-0.17,0.68-0.26,1.06-0.26
				c0.36,0,0.7,0.08,1,0.22c0.65,0.31,1.13,0.89,1.3,1.6v0.01C91.49,81.78,91.51,81.96,91.51,82.14z"/>
			<path class="st1" d="M91.51,82.14c0,0.25-0.04,0.49-0.11,0.71c-0.3,0.96-1.2,1.65-2.25,1.65s-1.95-0.69-2.25-1.65
				c-0.07-0.22-0.11-0.46-0.11-0.71c0-0.2,0.03-0.41,0.09-0.6c0.17-0.66,0.61-1.2,1.21-1.5c0.32-0.17,0.68-0.26,1.06-0.26
				c0.36,0,0.7,0.08,1,0.22c0.65,0.31,1.13,0.89,1.3,1.6v0.01C91.49,81.78,91.51,81.96,91.51,82.14z"/>
			<path class="st1" d="M72.45,66.49c0,1.25-1.02,2.27-2.27,2.27c-0.07,0-0.14,0-0.21-0.01c-0.58-0.05-1.1-0.32-1.47-0.73
				c-0.37-0.4-0.6-0.94-0.6-1.53c0-0.46,0.14-0.89,0.37-1.24c0.41-0.63,1.11-1.04,1.91-1.04c0.79,0,1.49,0.41,1.9,1.04
				c0.12,0.17,0.21,0.36,0.27,0.56c0,0.01,0,0.01,0,0.01C72.42,66.03,72.45,66.25,72.45,66.49z"/>
			<path class="st1" d="M110.36,66.49c0,1.18-0.91,2.15-2.06,2.26c-0.07,0.01-0.14,0.01-0.22,0.01c-1.25,0-2.27-1.02-2.27-2.27
				c0-0.24,0.03-0.47,0.1-0.68c0.29-0.92,1.15-1.6,2.17-1.6C109.34,64.21,110.36,65.24,110.36,66.49z"/>
			<path class="st1" d="M110.36,43.01c0,1.18-0.91,2.15-2.06,2.26c-0.07,0.01-0.14,0.01-0.22,0.01c-1.25,0-2.27-1.02-2.27-2.27
				c0-0.24,0.03-0.47,0.1-0.68c0.29-0.92,1.15-1.6,2.17-1.6C109.34,40.73,110.36,41.76,110.36,43.01z"/>
			<path class="st1" d="M97.7,86.59v2.19H80.6v-2.19c0,0,2.67,0.04,4.27-0.38c0.45-0.12,0.82-0.27,1.02-0.46
				c0.01-0.01,0.02-0.02,0.03-0.03c0.85,0.78,1.99,1.25,3.23,1.25s2.38-0.47,3.23-1.25c0.01,0.01,0.02,0.02,0.03,0.03
				c0.22,0.2,0.61,0.36,1.08,0.47C95.1,86.63,97.7,86.59,97.7,86.59z"/>
		</g>
	</g>
</g>
<g id="_x39_9d_logo" class="st7">
	<g class="st8">
		<defs>
			<path id="SVGID_6_" d="M-89.4-18.63C-73.74-45.9-39.08-55.25-11.96-39.5C15.15-23.77,24.43,11.11,8.79,38.38
				C-6.87,65.66-41.53,75-68.65,59.26C-95.76,43.51-105.06,8.63-89.4-18.63z M127.03-18.63c15.66-27.27,50.32-36.62,77.44-20.87
				c27.11,15.74,36.39,50.62,20.75,77.88C209.56,65.66,174.9,75,147.78,59.26C120.67,43.51,111.37,8.63,127.03-18.63z M430.01,153.5
				c-11.19,11.27-25.5,16.91-42.92,16.91c-8.39,0-16.25-1.49-23.56-4.47c-7.31-2.97-13.52-7.1-18.66-12.44
				c-5.13-5.31-9.17-11.64-12.13-18.99c-2.96-7.36-4.43-15.42-4.43-24.16c0-8.45,1.47-16.36,4.43-23.71
				c2.96-7.35,7.08-13.6,12.37-18.77c5.28-5.16,11.59-9.23,18.89-12.19c7.31-2.98,15.32-4.47,24.02-4.47
				c8.39,0,16.18,1.49,23.34,4.47c7.14,2.97,13.37,7.12,18.65,12.44c5.29,5.3,9.42,11.49,12.37,18.52
				c2.96,7.05,4.44,14.78,4.44,23.23C446.82,127.71,441.21,142.26,430.01,153.5z M67.9,71.01c10.55,18.93,26.14,35.34,46.17,46.98
				c16.82,9.76,34.98,14.98,53.13,16.27l-53.98,94.06h80.82l64.38-112.16c0.55,16.2,3.39,31.16,8.53,44.87
				c5.76,15.31,13.85,28.52,24.27,39.64c10.42,11.12,22.79,19.78,37.09,26.05c14.31,6.26,30.02,9.38,47.11,9.38
				c16.18,0,29.78-2.57,40.83-7.74c11.04-5.16,21.23-13.53,30.56-25.12v24.88h66.25v-335.97h-70V13.21
				c-9.64-9.41-19.9-16.36-30.78-20.91c-10.89-4.54-23.65-6.8-38.27-6.8c-16.48,0-31.8,3.14-45.95,9.39
				c-10.32,4.56-19.6,10.41-27.85,17.55c0.86-44-21.48-87.12-62.05-110.68c-59.36-34.48-135.27-14.03-169.53,45.68
				c-0.25,0.43-0.49,0.86-0.73,1.29C57.37-70.19,41.78-86.59,21.75-98.23c-59.36-34.48-135.27-14.03-169.53,45.68
				c-34.28,59.72-13.93,136.06,45.43,170.54c16.82,9.76,34.98,14.98,53.13,16.27l-53.98,94.06h80.82L67.17,72.3
				C67.42,71.87,67.66,71.44,67.9,71.01L67.9,71.01z"/>
		</defs>
		<clipPath id="SVGID_7_">
			<use xlink:href="#SVGID_6_"  style="overflow:visible;"/>
		</clipPath>
		<g class="st9">
			<defs>
				<rect id="SVGID_8_" x="-711.18" y="-825.53" width="1770.84" height="1770.84"/>
			</defs>
			<clipPath id="SVGID_9_">
				<use xlink:href="#SVGID_8_"  style="overflow:visible;"/>
			</clipPath>
			<rect x="-175.5" y="-126.05" class="st10" width="699.65" height="373.22"/>
		</g>
	</g>
</g>
<g id="Guides">
</g>
<g id="TEMPLATE__x28_delete_x29_" class="st7">
	<path class="st11" d="M-325.72-439.74v1000h1000v-1000H-325.72z M474.28,360.26h-600v-600h600V360.26z"/>
	<g class="st8">
		<defs>
			<path id="SVGID_10_" d="M-78.2-144.82c1.99-3.46,6.38-4.64,9.82-2.65c3.44,2,4.61,6.42,2.63,9.88c-1.99,3.46-6.38,4.64-9.82,2.65
				C-79.01-136.94-80.19-141.37-78.2-144.82z M-49.6-144.82c1.99-3.46,6.38-4.64,9.82-2.65c3.44,2,4.61,6.42,2.63,9.88
				c-1.99,3.46-6.38,4.64-9.82,2.65C-50.41-136.94-51.59-141.37-49.6-144.82z M-6.33-123c-1.42,1.43-3.23,2.14-5.44,2.14
				c-1.06,0-2.06-0.19-2.99-0.57c-0.93-0.38-1.71-0.9-2.37-1.58c-0.65-0.67-1.16-1.48-1.54-2.41c-0.38-0.93-0.56-1.96-0.56-3.06
				c0-1.07,0.19-2.07,0.56-3.01c0.38-0.93,0.9-1.72,1.57-2.38c0.67-0.65,1.47-1.17,2.4-1.55c0.93-0.38,1.94-0.57,3.05-0.57
				c1.06,0,2.05,0.19,2.96,0.57c0.91,0.38,1.7,0.9,2.36,1.58c0.67,0.67,1.19,1.46,1.57,2.35c0.38,0.89,0.56,1.87,0.56,2.94
				C-4.2-126.27-4.91-124.42-6.33-123z M-4.67-156.13v15.35c-1.22-1.19-2.52-2.07-3.9-2.65c-1.38-0.58-3-0.86-4.85-0.86
				c-2.09,0-4.03,0.4-5.83,1.19c-1.8,0.79-3.34,1.89-4.65,3.3c-1.3,1.41-2.32,3.08-3.08,5.03c-0.75,1.94-1.12,4.04-1.12,6.31
				c0,2.34,0.37,4.48,1.09,6.43c0.73,1.94,1.76,3.62,3.08,5.03c1.32,1.41,2.89,2.51,4.7,3.3c1.82,0.79,3.81,1.19,5.97,1.19
				c2.05,0,3.78-0.33,5.18-0.98c1.4-0.65,2.69-1.72,3.88-3.18v3.15h8.4v-42.6H-4.67z M-57.68-147.82c0.2-0.44,0.43-0.88,0.67-1.3
				c4.34-7.57,13.97-10.16,21.5-5.79c7.53,4.37,10.1,14.05,5.76,21.62l-11.36,19.78h-10.25l6.85-11.93c-2.3-0.16-4.6-0.83-6.74-2.06
				c-2.94-1.71-5.12-4.22-6.43-7.1c-0.2,0.44-0.43,0.88-0.67,1.3l-11.36,19.78h-10.25l6.85-11.93c-2.3-0.16-4.6-0.83-6.74-2.06
				c-7.53-4.37-10.11-14.05-5.76-21.62c4.34-7.57,13.97-10.16,21.5-5.79C-61.17-153.21-58.99-150.7-57.68-147.82z M14.97-131.51
				c0.35-1.66,1.11-2.94,2.27-3.83c1.16-0.89,2.61-1.33,4.34-1.33c1.73,0,3.2,0.48,4.4,1.43c1.2,0.95,1.96,2.19,2.27,3.74H14.97z
				 M35.92-134.42c-0.79-1.98-1.88-3.69-3.28-5.13c-1.39-1.44-3.05-2.58-4.96-3.41c-1.91-0.83-3.96-1.25-6.17-1.25
				c-2.12,0-4.12,0.42-5.99,1.25c-1.87,0.83-3.49,1.96-4.87,3.38c-1.38,1.42-2.47,3.11-3.28,5.05c-0.81,1.94-1.21,4.02-1.21,6.23
				c0,2.21,0.4,4.28,1.21,6.2c0.81,1.92,1.91,3.59,3.3,5.02c1.4,1.42,3.04,2.54,4.93,3.35c1.89,0.81,3.92,1.22,6.08,1.22
				c3.15,0,5.98-0.91,8.5-2.73c2.41-1.74,4.3-4.11,5.66-7.12h-9.2c-0.94,0.91-1.81,1.52-2.6,1.84c-0.79,0.32-1.73,0.48-2.83,0.48
				c-1.77,0-3.25-0.51-4.43-1.51c-1.18-1.01-1.87-2.35-2.06-4h22.13C37.33-128.57,37.06-131.57,35.92-134.42z M61.47-134.83
				c-0.43-5.81-4.95-9.32-11.34-9.32c-5.97,0-11.45,3.78-11.45,9.64c0,3.46,1.97,6.39,9.43,8.68c4.42,1.38,5.43,2.24,5.43,3.89
				c0,1.38-1.54,2.29-3.09,2.29c-1.76,0-3.09-0.85-3.36-2.72H38.3c0.64,6.02,5.38,9.8,12.04,9.8c6.71,0,12.04-3.89,12.04-10.07
				c0-4.31-2.29-7.14-9.32-9c-4.1-1.07-5.54-1.86-5.54-3.46c0-1.12,1.07-1.97,2.56-1.97c1.44,0,2.66,0.53,2.72,2.24H61.47z
				 M69.17-146.32c2.93,0,5.3-2.39,5.3-5.33s-2.37-5.33-5.3-5.33c-2.93,0-5.3,2.39-5.3,5.33S66.24-146.32,69.17-146.32z
				 M73.59-113.53h-8.85v-29.68h8.85V-113.53z M90.5-137.51c2.69,0,4.87,2.19,4.87,4.9c0,2.7-2.18,4.9-4.87,4.9
				c-2.69,0-4.87-2.19-4.87-4.9C85.63-135.32,87.81-137.51,90.5-137.51z M96.66-107.42c-1.01,1.38-2.93,1.86-4.54,1.94
				c-1.89,0.09-4.45-0.34-5.74-1.89c-1.24-1.49-0.95-3.57,0.73-4.59c0.48-0.3,0.99-0.47,1.54-0.55h4.4c1.92,0,4.36,0.54,4.34,2.93
				C97.38-108.84,97.11-108.03,96.66-107.42z M88.08-119.35c-3.59-0.56-3.51-2-2.64-2.69c8.16,3.11,18.12-0.84,18.18-10.3
				c-0.02-3.47-1.25-5.68-2.2-6.7c0.75-1.43,1.6-2.15,3.44-2.59l-3.73-6.45c-3.36,0.29-5.58,2.36-6.59,4.5
				c-1.99-0.81-6.06-0.91-9.3,0.25c-1.56,0.55-3,1.35-4.25,2.45c-1.19,1.05-2.13,2.3-2.79,3.75c-0.7,1.51-1,3.13-1.01,4.78
				c0.02,2.26,0.72,4.94,2.04,6.77c-3.56,3.52-3.36,8.75,0.33,12.05c-0.39,0.3-0.75,0.63-1.08,0.99c-3.33,3.63-1.75,8.68,2.07,11.34
				c4.83,3.46,13.41,3.67,18.69,1.32c9.27-3.77,9.61-17.59-1.16-19.4C95.08-119.79,91.67-118.79,88.08-119.35z M107.04-113.53h8.85
				v-16.56c0-3.88,1.67-5.81,5.02-5.81c1.61,0,2.78,0.49,3.51,1.48c0.73,0.99,1.09,2.55,1.09,4.69v16.2h8.85v-18.58
				c0-1.19-0.05-2.23-0.15-3.12c-0.1-0.89-0.26-1.68-0.47-2.37c-0.22-0.69-0.51-1.33-0.88-1.9c-0.37-0.57-0.86-1.14-1.44-1.69
				c-0.94-0.95-2.1-1.69-3.48-2.23c-1.38-0.53-2.85-0.8-4.42-0.8c-1.89,0-3.45,0.33-4.69,0.98c-1.24,0.65-2.37,1.71-3.39,3.18v-3.15
				h-8.38V-113.53z M159.41-134.83c-0.43-5.81-4.95-9.32-11.34-9.32c-5.97,0-11.45,3.78-11.45,9.64c0,3.46,1.97,6.39,9.43,8.68
				c4.42,1.38,5.43,2.24,5.43,3.89c0,1.38-1.54,2.29-3.09,2.29c-1.76,0-3.09-0.85-3.36-2.72h-8.79c0.64,6.02,5.38,9.8,12.04,9.8
				c6.71,0,12.04-3.89,12.04-10.07c0-4.31-2.29-7.14-9.32-9c-4.1-1.07-5.54-1.86-5.54-3.46c0-1.12,1.07-1.97,2.56-1.97
				c1.44,0,2.66,0.53,2.72,2.24H159.41z"/>
		</defs>
		<clipPath id="SVGID_11_">
			<use xlink:href="#SVGID_10_"  style="overflow:visible;"/>
		</clipPath>
		<g class="st12">
			<defs>
				<rect id="SVGID_12_" x="-129.06" y="-297.18" width="330.71" height="330.71"/>
			</defs>
			<clipPath id="SVGID_13_">
				<use xlink:href="#SVGID_12_"  style="overflow:visible;"/>
			</clipPath>
			<rect x="-89.78" y="-159.11" class="st13" width="252.17" height="62.85"/>
		</g>
	</g>
	<g class="st8">
		<path class="st14" d="M-82.72-53.92h6.98v3.07h-10.3v-16.8h3.31V-53.92z"/>
		<path class="st14" d="M-61.39-56.94c0,3.77-2.74,6.36-6.41,6.36c-3.65,0-6.36-2.59-6.36-6.36c0-3.77,2.71-6.34,6.36-6.34
			C-64.12-63.28-61.39-60.71-61.39-56.94z M-70.94-56.94c0,1.99,1.3,3.5,3.17,3.5c1.9,0,3.14-1.51,3.14-3.5
			c0-2.02-1.25-3.5-3.14-3.5C-69.64-60.44-70.94-58.96-70.94-56.94z"/>
		<path class="st14" d="M-47.83-60.37h-1.8c0.14,0.43,0.24,0.91,0.24,1.42c0,2.45-1.99,4.22-4.8,4.22c-0.74,0-1.42-0.1-2.02-0.31
			c-0.17,0.22-0.29,0.5-0.29,0.89c0,0.62,0.46,1.01,1.22,1.01h2.86c2.5,0,3.98,1.2,3.98,3.5c0,2.74-2.14,4.22-5.38,4.22
			c-3.62,0-5.52-1.34-5.52-3.74c0-1.06,0.62-1.75,1.22-2.14c-0.74-0.5-1.42-1.44-1.42-2.62c0-1.15,0.53-1.97,1.25-2.57
			c-0.53-0.67-0.84-1.51-0.84-2.47c0-2.52,2.06-4.32,4.92-4.32c0.62,0,1.22,0.1,1.75,0.26h4.61V-60.37z M-55.03-50.8
			c-0.7,0.1-1.25,0.58-1.25,1.39c0,1.1,0.98,1.66,2.5,1.66c1.42,0,2.3-0.58,2.3-1.7c0-0.91-0.67-1.34-1.73-1.34H-55.03z
			 M-56.04-58.96c0,1.13,0.74,1.92,1.82,1.92s1.8-0.79,1.8-1.92c0-1.18-0.72-1.97-1.8-1.97C-55.32-60.92-56.04-60.13-56.04-58.96z"
			/>
		<path class="st14" d="M-33.96-56.94c0,3.77-2.74,6.36-6.41,6.36c-3.65,0-6.36-2.59-6.36-6.36c0-3.77,2.71-6.34,6.36-6.34
			C-36.69-63.28-33.96-60.71-33.96-56.94z M-43.51-56.94c0,1.99,1.3,3.5,3.17,3.5c1.9,0,3.14-1.51,3.14-3.5
			c0-2.02-1.25-3.5-3.14-3.5C-42.21-60.44-43.51-58.96-43.51-56.94z"/>
		<path class="st14" d="M-22.46-63.01h2.78v2.83h-2.81l-0.05,4.92c0,1.25,0.38,1.75,1.58,1.75c0.6,0,0.94-0.07,1.27-0.17v2.74
			c-0.38,0.14-1.01,0.26-1.97,0.26c-2.66,0-4.03-1.08-4.01-3.84l0.05-5.66h-1.99v-2.83h1.99l0.02-2.95h3.14L-22.46-63.01z"/>
		<path class="st14" d="M-6.14-56.94v0.96h-8.47c0.1,1.61,1.22,2.74,2.93,2.74c1.2,0,2.11-0.5,2.45-1.42h3.02
			c-0.74,2.57-2.62,4.08-5.57,4.08c-3.6,0-6.05-2.5-6.05-6.34c0-3.67,2.42-6.36,6.05-6.36C-8.57-63.28-6.14-61.26-6.14-56.94z
			 M-14.59-58.14h5.3c-0.02-1.54-1.03-2.54-2.57-2.54C-13.41-60.68-14.45-59.63-14.59-58.14z"/>
		<path class="st14" d="M13.71-58.74v7.9h-3.12v-7.22c0-1.42-0.55-2.18-1.7-2.18c-1.15,0-2.09,0.91-2.14,2.83v6.58H3.63v-7.22
			c0-1.42-0.58-2.18-1.7-2.18c-1.2,0-2.14,0.96-2.14,2.98v6.43h-3.1v-12.17h2.66l0.24,1.58c0.55-1.03,1.66-1.85,3.24-1.85
			c1.73,0,2.9,0.79,3.48,2.14c0.58-1.15,1.78-2.14,3.5-2.14C12.41-63.28,13.71-61.5,13.71-58.74z"/>
		<path class="st14" d="M29.57-56.94c0,3.58-2.4,6.36-5.66,6.36c-1.75,0-3.02-0.72-3.65-1.61v6.5h-3.12v-17.33h2.69l0.22,1.63
			c0.67-0.98,1.8-1.9,3.86-1.9C27.17-63.28,29.57-60.52,29.57-56.94z M20.19-56.99v0.14c0.02,2.14,1.56,3.34,3.07,3.34
			c1.7,0,3.07-1.34,3.07-3.43c0-2.09-1.34-3.41-3.07-3.41C21.72-60.35,20.19-59.17,20.19-56.99z"/>
		<path class="st14" d="M35.4-50.84h-3.12v-17.52h3.12V-50.84z"/>
		<path class="st14" d="M48.31-58.84v7.99h-2.66l-0.19-1.49c-0.65,0.98-1.75,1.75-3.48,1.75c-2.16,0-3.7-1.32-3.7-3.5
			c0-2.38,1.61-3.29,3.77-3.65l3.14-0.58v-0.46c0-1.2-0.6-1.85-1.7-1.85c-1.03,0-1.82,0.62-1.82,1.61h-3.02
			c0.14-2.47,1.97-4.27,4.85-4.27S48.31-61.81,48.31-58.84z M42.77-55.72c-0.82,0.19-1.37,0.55-1.37,1.37c0,0.72,0.5,1.2,1.42,1.2
			c0.77,0,1.51-0.38,1.94-1.1c0.26-0.41,0.43-1.01,0.43-1.61v-0.36L42.77-55.72z"/>
		<path class="st14" d="M55.44-63.01h2.78v2.83h-2.81l-0.05,4.92c0,1.25,0.38,1.75,1.58,1.75c0.6,0,0.94-0.07,1.27-0.17v2.74
			c-0.38,0.14-1.01,0.26-1.97,0.26c-2.66,0-4.03-1.08-4.01-3.84l0.05-5.66H50.3v-2.83h1.99l0.02-2.95h3.14L55.44-63.01z"/>
		<path class="st14" d="M71.76-56.94v0.96h-8.47c0.1,1.61,1.22,2.74,2.93,2.74c1.2,0,2.11-0.5,2.45-1.42h3.02
			c-0.74,2.57-2.62,4.08-5.57,4.08c-3.6,0-6.05-2.5-6.05-6.34c0-3.67,2.42-6.36,6.05-6.36C69.34-63.28,71.76-61.26,71.76-56.94z
			 M63.31-58.14h5.3c-0.02-1.54-1.03-2.54-2.57-2.54C64.49-60.68,63.46-59.63,63.31-58.14z"/>
		<path class="st15" d="M84.84-67.16c-2.02,2.66-3,4.99-3,8.62c0,3.62,0.98,5.95,3,8.62l-2.21,1.49c-2.21-2.71-3.74-5.69-3.74-10.1
			s1.54-7.39,3.74-10.1L84.84-67.16z"/>
		<path class="st15" d="M92.83-50.84h-3.31v-11.64h-3.53v-2.78c2.59,0,3.98-0.58,4.42-2.38h2.42V-50.84z"/>
		<path class="st15" d="M107.57-59.27c0,5.38-2.14,8.74-5.98,8.74s-5.95-3.36-5.95-8.74c0-5.35,2.11-8.69,5.95-8.69
			S107.57-64.62,107.57-59.27z M98.98-59.27c0,3.55,0.86,5.66,2.62,5.66c1.75,0,2.62-2.11,2.62-5.66c0-3.53-0.86-5.62-2.62-5.62
			C99.84-64.88,98.98-62.8,98.98-59.27z"/>
		<path class="st15" d="M121.54-59.27c0,5.38-2.14,8.74-5.98,8.74s-5.95-3.36-5.95-8.74c0-5.35,2.11-8.69,5.95-8.69
			S121.54-64.62,121.54-59.27z M112.94-59.27c0,3.55,0.86,5.66,2.62,5.66c1.75,0,2.62-2.11,2.62-5.66c0-3.53-0.86-5.62-2.62-5.62
			C113.81-64.88,112.94-62.8,112.94-59.27z"/>
		<path class="st15" d="M135.5-59.27c0,5.38-2.14,8.74-5.98,8.74s-5.95-3.36-5.95-8.74c0-5.35,2.11-8.69,5.95-8.69
			S135.5-64.62,135.5-59.27z M126.91-59.27c0,3.55,0.86,5.66,2.62,5.66c1.75,0,2.62-2.11,2.62-5.66c0-3.53-0.86-5.62-2.62-5.62
			C127.78-64.88,126.91-62.8,126.91-59.27z"/>
		<path class="st15" d="M152.28-59.36l5.67,8.52h-3.89l-4.03-6.07l-4.03,6.07h-3.86l5.64-8.52l-5.5-8.28h3.89l3.86,5.83l3.86-5.83
			h3.89L152.28-59.36z"/>
		<path class="st15" d="M171.24-50.84h-3.31v-11.64h-3.53v-2.78c2.59,0,3.98-0.58,4.42-2.38h2.42V-50.84z"/>
		<path class="st15" d="M185.97-59.27c0,5.38-2.14,8.74-5.98,8.74c-3.84,0-5.95-3.36-5.95-8.74c0-5.35,2.11-8.69,5.95-8.69
			C183.84-67.96,185.97-64.62,185.97-59.27z M177.38-59.27c0,3.55,0.86,5.66,2.62,5.66c1.75,0,2.62-2.11,2.62-5.66
			c0-3.53-0.86-5.62-2.62-5.62C178.25-64.88,177.38-62.8,177.38-59.27z"/>
		<path class="st15" d="M199.94-59.27c0,5.38-2.14,8.74-5.98,8.74c-3.84,0-5.95-3.36-5.95-8.74c0-5.35,2.11-8.69,5.95-8.69
			C197.81-67.96,199.94-64.62,199.94-59.27z M191.35-59.27c0,3.55,0.86,5.66,2.62,5.66c1.75,0,2.62-2.11,2.62-5.66
			c0-3.53-0.86-5.62-2.62-5.62C192.21-64.88,191.35-62.8,191.35-59.27z"/>
		<path class="st15" d="M213.91-59.27c0,5.38-2.14,8.74-5.98,8.74c-3.84,0-5.95-3.36-5.95-8.74c0-5.35,2.11-8.69,5.95-8.69
			C211.77-67.96,213.91-64.62,213.91-59.27z M205.32-59.27c0,3.55,0.86,5.66,2.62,5.66c1.75,0,2.62-2.11,2.62-5.66
			c0-3.53-0.86-5.62-2.62-5.62C206.18-64.88,205.32-62.8,205.32-59.27z"/>
		<path class="st15" d="M229.2-56.94c0,3.58-2.4,6.36-5.66,6.36c-1.75,0-3.02-0.72-3.65-1.61v6.5h-3.12v-17.33h2.69l0.22,1.63
			c0.67-0.98,1.8-1.9,3.86-1.9C226.8-63.28,229.2-60.52,229.2-56.94z M219.81-56.99v0.14c0.02,2.14,1.56,3.34,3.07,3.34
			c1.7,0,3.07-1.34,3.07-3.43c0-2.09-1.34-3.41-3.07-3.41C221.35-60.35,219.81-59.17,219.81-56.99z"/>
		<path class="st15" d="M238.29-57.04l3.84,6.19h-3.62l-2.38-3.84l-2.35,3.84h-3.62l3.82-6.19l-3.67-5.98h3.63l2.21,3.55l2.23-3.55
			h3.62L238.29-57.04z"/>
		<path class="st15" d="M248.93-58.55c0,4.42-1.56,7.39-3.77,10.1l-2.18-1.49c1.99-2.66,2.98-4.99,2.98-8.62
			c0-3.62-0.98-5.95-2.98-8.62l2.18-1.49C247.37-65.94,248.93-62.96,248.93-58.55z"/>
	</g>
	<g class="st8">
		<path class="st16" d="M-84.12,3.46h4.45v1.3h-4.45V3.46z"/>
		<path class="st16" d="M-70.88,4.68v4.67h-1.49V-2.89h3.68c2.37,0,4.21,1.12,4.21,3.76c0,2.59-1.82,3.81-4.34,3.81H-70.88z
			 M-68.82,3.48c1.78,0,2.8-0.86,2.8-2.61c0-1.82-1.02-2.56-2.75-2.56h-2.11v5.17H-68.82z"/>
		<path class="st16" d="M-62.39-3.26h1.44V9.35h-1.44V-3.26z"/>
		<path class="st16" d="M-58.2,3.22c0.03-1.49,1.17-2.51,3.19-2.51c2.1,0,3.12,0.88,3.12,3.14v3.44c0,0.67,0.14,0.94,0.77,0.96v1.17
			h-0.18c-1.34,0-1.79-0.48-1.94-1.49h-0.03c-0.45,0.99-1.46,1.57-2.71,1.57c-1.68,0-2.67-0.91-2.67-2.42c0-0.93,0.4-1.7,1.26-2.13
			c0.88-0.46,2.19-0.62,4.08-0.69V3.9c0-1.52-0.58-2.11-1.76-2.11c-1.25,0-1.71,0.72-1.76,1.44H-58.2z M-53.3,5.53V5.34
			c-1.82,0.08-2.86,0.22-3.41,0.62C-57.03,6.2-57.17,6.55-57.17,7c0,0.86,0.56,1.33,1.47,1.33C-54.63,8.33-53.3,7.61-53.3,5.53z"/>
		<path class="st16" d="M-43.83,3.46c-0.1-0.86-0.7-1.65-1.92-1.65c-1.52,0-2.32,1.33-2.32,3.3c0,1.95,0.59,3.31,2.29,3.31
			c1.6,0,2.02-1.18,2.07-1.82h1.34c-0.21,1.95-1.6,2.95-3.42,2.95c-2.43,0-3.75-1.7-3.75-4.37c0-2.58,1.41-4.47,3.78-4.47
			c1.68,0,3.2,0.77,3.34,2.75H-43.83z"/>
		<path class="st16" d="M-36.92,9.56c-2.58,0-3.81-1.87-3.81-4.39c0-2.5,1.34-4.47,3.76-4.47c2.53,0,3.52,1.95,3.52,4.08v0.74h-5.81
			c0.1,1.74,0.8,2.93,2.39,2.93c1.41,0,1.78-0.82,1.92-1.31h1.39C-33.86,8.6-35.11,9.56-36.92,9.56z M-34.92,4.3
			c-0.03-1.41-0.59-2.5-2.06-2.5c-1.34,0-2.08,1.06-2.26,2.59h4.32V4.3z"/>
		<path class="st16" d="M-27.4,0.92h1.44l1.76,5.28c0.27,0.8,0.42,1.31,0.42,1.31h0.05c0,0,0.14-0.51,0.42-1.33l1.73-5.27h1.44
			l-3.07,8.96c-0.67,1.94-1.23,2.66-3.06,2.66c-0.32,0-0.64-0.05-0.86-0.1v-1.18c0.27,0.06,0.59,0.08,0.74,0.08
			c1.07,0,1.42-0.4,1.79-1.54l0.16-0.45L-27.4,0.92z"/>
		<path class="st16" d="M-18.85,5.13c0-2.61,1.44-4.42,3.79-4.42c2.51,0,3.76,1.81,3.76,4.42c0,2.64-1.42,4.43-3.79,4.43
			C-17.57,9.56-18.85,7.77-18.85,5.13z M-17.36,5.13c0,2.06,0.69,3.31,2.32,3.31c1.57,0,2.26-1.25,2.26-3.31
			c0-2.05-0.67-3.31-2.29-3.31C-16.61,1.82-17.36,3.08-17.36,5.13z"/>
		<path class="st16" d="M-7.48,6.1c0,0.61,0,1.31,0.3,1.71c0.29,0.38,0.74,0.56,1.3,0.56c1.57,0,2.3-1.04,2.3-2.9V0.92h1.44v8.44
			h-1.38V7.91h-0.03C-3.92,8.78-4.85,9.56-6.2,9.56c-1.62,0-2.71-0.78-2.71-2.77V0.92h1.42V6.1z"/>
		<path class="st16" d="M1.02,0.92h1.36V2.5h0.03c0.38-0.88,1.44-1.75,2.67-1.75h0.14v1.5H4.96c-1.5,0-2.5,0.86-2.5,2.5v4.59H1.02
			V0.92z"/>
		<path class="st16" d="M11.95-3.26h1.44V9.35h-1.44V-3.26z"/>
		<path class="st16" d="M15.79,5.13c0-2.61,1.44-4.42,3.79-4.42c2.51,0,3.76,1.81,3.76,4.42c0,2.64-1.42,4.43-3.79,4.43
			C17.07,9.56,15.79,7.77,15.79,5.13z M17.27,5.13c0,2.06,0.69,3.31,2.32,3.31c1.57,0,2.26-1.25,2.26-3.31
			c0-2.05-0.67-3.31-2.29-3.31C18.03,1.82,17.27,3.08,17.27,5.13z"/>
		<path class="st16" d="M25.38,10.2h1.39c0.16,0.72,0.71,1.18,2.08,1.18c1.6,0,2.4-0.59,2.4-2.45V7.69h-0.02
			c-0.43,0.83-1.42,1.55-2.69,1.55c-1.76,0-3.38-1.1-3.38-4.23c0-2.79,1.47-4.31,3.55-4.31c1.36,0,2.18,0.75,2.53,1.54h0.03V0.92
			h1.38v8.23c0,2.37-1.55,3.39-3.84,3.39C27.23,12.54,25.58,11.95,25.38,10.2z M31.29,4.68c0-1.68-0.94-2.83-2.4-2.83
			c-1.52,0-2.24,1.26-2.24,3.17c0,1.86,0.53,3.14,2.31,3.14c1.36,0,2.34-1.18,2.34-2.63V4.68z"/>
		<path class="st16" d="M35.08,5.13c0-2.61,1.44-4.42,3.79-4.42c2.51,0,3.76,1.81,3.76,4.42c0,2.64-1.42,4.43-3.79,4.43
			C36.36,9.56,35.08,7.77,35.08,5.13z M36.57,5.13c0,2.06,0.69,3.31,2.32,3.31c1.57,0,2.26-1.25,2.26-3.31
			c0-2.05-0.67-3.31-2.29-3.31C37.32,1.82,36.57,3.08,36.57,5.13z"/>
		<path class="st16" d="M48.5,0.92h1.47l1.63,5.68c0.14,0.53,0.27,1.07,0.27,1.07h0.03c0,0,0.16-0.56,0.32-1.06l1.79-5.7h1.47
			l1.78,5.7c0.16,0.5,0.3,1.06,0.3,1.06h0.03c0,0,0.13-0.56,0.27-1.06l1.67-5.7h1.39l-2.61,8.44h-1.52l-1.54-4.96
			c-0.24-0.78-0.53-1.79-0.53-1.79h-0.02c0,0-0.29,1.02-0.53,1.79l-1.55,4.96h-1.52L48.5,0.92z"/>
		<path class="st16" d="M63-2.55h1.52V-1H63V-2.55z M63.03,0.92h1.46v8.44h-1.46V0.92z"/>
		<path class="st16" d="M69.43-1.53v2.45h2.08v1.1h-2.08V7c0,0.9,0.37,1.25,1.28,1.25c0.43,0,0.93-0.08,0.93-0.08v1.22
			c0,0-0.59,0.1-1.33,0.1c-1.65,0-2.31-0.8-2.31-2.24V2.02h-1.54V0.97h0.26c1.14,0,1.39-0.27,1.39-1.89v-0.61H69.43z"/>
		<path class="st16" d="M78.99,4.14c0-0.61,0-1.26-0.3-1.66c-0.29-0.4-0.77-0.56-1.33-0.56c-1.57,0-2.29,1.01-2.29,2.38v5.06h-1.44
			V-3.26h1.44v5.57h0.03c0.37-0.82,1.26-1.6,2.64-1.6c1.62,0,2.69,0.77,2.69,2.77v5.87h-1.44V4.14z"/>
		<path class="st16" d="M83.48-2.55H85V-1h-1.52V-2.55z M83.51,0.92h1.46v8.44h-1.46V0.92z"/>
		<path class="st16" d="M93.5,4.15c0-0.61,0-1.28-0.3-1.68c-0.29-0.4-0.77-0.56-1.33-0.56c-1.57,0-2.29,1.01-2.29,2.38v5.06h-1.44
			V0.92h1.36v1.42h0.03c0.4-0.86,1.38-1.63,2.72-1.63c1.62,0,2.69,0.77,2.69,2.77v5.87H93.5V4.15z"/>
		<path class="st16" d="M104.31-1.53v2.45h2.08v1.1h-2.08V7c0,0.9,0.37,1.25,1.28,1.25c0.43,0,0.93-0.08,0.93-0.08v1.22
			c0,0-0.59,0.1-1.33,0.1c-1.65,0-2.31-0.8-2.31-2.24V2.02h-1.54V0.97h0.26c1.14,0,1.39-0.27,1.39-1.89v-0.61H104.31z"/>
		<path class="st16" d="M113.87,4.14c0-0.61,0-1.26-0.3-1.66c-0.29-0.4-0.77-0.56-1.33-0.56c-1.57,0-2.29,1.01-2.29,2.38v5.06h-1.44
			V-3.26h1.44v5.57h0.03c0.37-0.82,1.26-1.6,2.64-1.6c1.62,0,2.69,0.77,2.69,2.77v5.87h-1.44V4.14z"/>
		<path class="st16" d="M121.45,9.56c-2.58,0-3.81-1.87-3.81-4.39c0-2.5,1.34-4.47,3.76-4.47c2.53,0,3.52,1.95,3.52,4.08v0.74h-5.81
			c0.1,1.74,0.8,2.93,2.38,2.93c1.41,0,1.78-0.82,1.92-1.31h1.39C124.51,8.6,123.26,9.56,121.45,9.56z M123.45,4.3
			c-0.03-1.41-0.59-2.5-2.06-2.5c-1.34,0-2.08,1.06-2.26,2.59h4.32V4.3z"/>
		<path class="st16" d="M136.83,3.46c-0.1-0.86-0.7-1.65-1.92-1.65c-1.52,0-2.32,1.33-2.32,3.3c0,1.95,0.59,3.31,2.29,3.31
			c1.6,0,2.02-1.18,2.07-1.82h1.34c-0.21,1.95-1.6,2.95-3.42,2.95c-2.43,0-3.75-1.7-3.75-4.37c0-2.58,1.41-4.47,3.78-4.47
			c1.68,0,3.2,0.77,3.34,2.75H136.83z"/>
		<path class="st16" d="M140.6,0.92h1.36V2.5h0.03c0.38-0.88,1.44-1.75,2.67-1.75h0.14v1.5h-0.27c-1.5,0-2.5,0.86-2.5,2.5v4.59
			h-1.44V0.92z"/>
		<path class="st16" d="M146.1,5.13c0-2.61,1.44-4.42,3.79-4.42c2.51,0,3.76,1.81,3.76,4.42c0,2.64-1.42,4.43-3.79,4.43
			C147.38,9.56,146.1,7.77,146.1,5.13z M147.59,5.13c0,2.06,0.69,3.31,2.32,3.31c1.57,0,2.26-1.25,2.26-3.31
			c0-2.05-0.67-3.31-2.29-3.31C148.34,1.82,147.59,3.08,147.59,5.13z"/>
		<path class="st16" d="M156.09,0.92h1.39v1.41h0.03c0.5-0.9,1.41-1.62,2.69-1.62c1.79,0,3.39,1.1,3.39,4.31
			c0,3.07-1.58,4.55-3.49,4.55c-1.23,0-2.23-0.69-2.54-1.44h-0.03v4.24h-1.44V0.92z M159.9,8.43c1.5,0,2.24-1.2,2.24-3.41
			c0-1.79-0.53-3.15-2.26-3.15c-1.49,0-2.4,1.26-2.4,2.69v0.9C157.48,7.11,158.3,8.43,159.9,8.43z"/>
		<path class="st16" d="M166.02,0.92h1.39v1.41h0.03c0.5-0.9,1.41-1.62,2.69-1.62c1.79,0,3.39,1.1,3.39,4.31
			c0,3.07-1.58,4.55-3.49,4.55c-1.23,0-2.23-0.69-2.54-1.44h-0.03v4.24h-1.44V0.92z M169.83,8.43c1.5,0,2.24-1.2,2.24-3.41
			c0-1.79-0.53-3.15-2.26-3.15c-1.49,0-2.4,1.26-2.4,2.69v0.9C167.42,7.11,168.23,8.43,169.83,8.43z"/>
		<path class="st16" d="M175.93-2.55h1.52V-1h-1.52V-2.55z M175.96,0.92h1.46v8.44h-1.46V0.92z"/>
		<path class="st16" d="M185.95,4.15c0-0.61,0-1.28-0.3-1.68c-0.29-0.4-0.77-0.56-1.33-0.56c-1.57,0-2.29,1.01-2.29,2.38v5.06h-1.44
			V0.92h1.36v1.42h0.03c0.4-0.86,1.38-1.63,2.72-1.63c1.62,0,2.69,0.77,2.69,2.77v5.87h-1.44V4.15z"/>
		<path class="st16" d="M189.93,10.2h1.39c0.16,0.72,0.71,1.18,2.08,1.18c1.6,0,2.4-0.59,2.4-2.45V7.69h-0.02
			c-0.43,0.83-1.42,1.55-2.69,1.55c-1.76,0-3.38-1.1-3.38-4.23c0-2.79,1.47-4.31,3.55-4.31c1.36,0,2.18,0.75,2.53,1.54h0.03V0.92
			h1.38v8.23c0,2.37-1.55,3.39-3.84,3.39C191.77,12.54,190.12,11.95,189.93,10.2z M195.83,4.68c0-1.68-0.94-2.83-2.4-2.83
			c-1.52,0-2.24,1.26-2.24,3.17c0,1.86,0.53,3.14,2.31,3.14c1.36,0,2.34-1.18,2.34-2.63V4.68z"/>
		<path class="st16" d="M204.34,10.2h1.39c0.16,0.72,0.71,1.18,2.08,1.18c1.6,0,2.4-0.59,2.4-2.45V7.69h-0.02
			c-0.43,0.83-1.42,1.55-2.69,1.55c-1.76,0-3.38-1.1-3.38-4.23c0-2.79,1.47-4.31,3.55-4.31c1.36,0,2.18,0.75,2.53,1.54h0.03V0.92
			h1.38v8.23c0,2.37-1.55,3.39-3.84,3.39C206.18,12.54,204.53,11.95,204.34,10.2z M210.25,4.68c0-1.68-0.94-2.83-2.4-2.83
			c-1.52,0-2.24,1.26-2.24,3.17c0,1.86,0.53,3.14,2.31,3.14c1.36,0,2.34-1.18,2.34-2.63V4.68z"/>
		<path class="st16" d="M216.1,6.1c0,0.61,0,1.31,0.3,1.71c0.29,0.38,0.74,0.56,1.3,0.56c1.57,0,2.3-1.04,2.3-2.9V0.92h1.44v8.44
			h-1.38V7.91h-0.03c-0.38,0.86-1.31,1.65-2.66,1.65c-1.62,0-2.71-0.78-2.71-2.77V0.92h1.42V6.1z"/>
		<path class="st16" d="M224.57-2.55h1.52V-1h-1.52V-2.55z M224.6,0.92h1.46v8.44h-1.46V0.92z"/>
		<path class="st16" d="M235.99,9.35h-1.38V7.96h-0.05c-0.45,0.83-1.36,1.6-2.66,1.6c-1.79,0-3.44-1.12-3.44-4.37
			c0-2.9,1.5-4.48,3.63-4.48c1.26,0,2.08,0.7,2.42,1.49h0.03v-5.46h1.44V9.35z M234.58,4.81c0-1.79-0.94-2.95-2.29-2.95
			c-1.62,0-2.35,1.28-2.35,3.27c0,1.9,0.56,3.3,2.24,3.3c1.49,0,2.4-1.18,2.4-2.72V4.81z"/>
		<path class="st16" d="M242.21,9.56c-2.58,0-3.81-1.87-3.81-4.39c0-2.5,1.34-4.47,3.76-4.47c2.53,0,3.52,1.95,3.52,4.08v0.74h-5.81
			c0.1,1.74,0.8,2.93,2.38,2.93c1.41,0,1.78-0.82,1.92-1.31h1.39C245.27,8.6,244.02,9.56,242.21,9.56z M244.21,4.3
			c-0.03-1.41-0.59-2.5-2.06-2.5c-1.34,0-2.08,1.06-2.26,2.59h4.32V4.3z"/>
		<path class="st16" d="M252.28,3.03c-0.08-0.75-0.69-1.23-1.68-1.23s-1.65,0.58-1.65,1.36c0,0.69,0.42,1.01,1.26,1.15l1.3,0.19
			c1.76,0.27,2.4,0.99,2.4,2.45c0,1.7-1.38,2.61-3.3,2.61c-1.75,0-3.19-0.78-3.3-2.59h1.41c0.06,0.66,0.43,1.49,1.92,1.49
			c1.15,0,1.87-0.54,1.87-1.42c0-0.67-0.18-1.04-1.33-1.23l-1.3-0.19c-1.5-0.24-2.3-0.86-2.3-2.34c0-1.49,1.14-2.56,3.06-2.56
			c1.83,0,2.87,0.85,3.01,2.32H252.28z"/>
		<path class="st16" d="M255.83,7.4h1.95v1.95h-1.95V7.4z"/>
		<path class="st16" d="M-84.12,33.46h4.45v1.3h-4.45V33.46z"/>
		<path class="st16" d="M-67.47,26.93c2.98,0,5.52,1.95,5.52,6.34c0,4.37-2.53,6.34-5.52,6.34c-3.01,0-5.47-1.97-5.47-6.34
			C-72.95,28.89-70.39,26.93-67.47,26.93z M-63.52,33.29c0-3.36-1.6-5.17-3.95-5.17c-2.29,0-3.91,1.71-3.91,5.17
			c0,3.35,1.57,5.12,3.91,5.12C-65.17,38.41-63.52,36.58-63.52,33.29z"/>
		<path class="st16" d="M-57.81,36.11c0,0.61,0,1.31,0.3,1.71c0.29,0.38,0.74,0.56,1.3,0.56c1.57,0,2.3-1.04,2.3-2.9v-4.56h1.44
			v8.44h-1.38v-1.44h-0.03c-0.38,0.86-1.31,1.65-2.66,1.65c-1.62,0-2.71-0.78-2.71-2.77v-5.88h1.42V36.11z"/>
		<path class="st16" d="M-47.54,28.47v2.45h2.08v1.1h-2.08V37c0,0.9,0.37,1.25,1.28,1.25c0.43,0,0.93-0.08,0.93-0.08v1.22
			c0,0-0.59,0.1-1.33,0.1c-1.65,0-2.31-0.8-2.31-2.24v-5.22h-1.54v-1.06h0.26c1.14,0,1.39-0.27,1.39-1.89v-0.61H-47.54z"/>
		<path class="st16" d="M-43.35,26.74h1.44v12.61h-1.44V26.74z"/>
		<path class="st16" d="M-38.79,27.45h1.52V29h-1.52V27.45z M-38.76,30.92h1.46v8.44h-1.46V30.92z"/>
		<path class="st16" d="M-28.77,34.15c0-0.61,0-1.28-0.3-1.68c-0.29-0.4-0.77-0.56-1.33-0.56c-1.57,0-2.29,1.01-2.29,2.39v5.06
			h-1.44v-8.44h1.36v1.42h0.03c0.4-0.86,1.38-1.63,2.72-1.63c1.62,0,2.69,0.77,2.69,2.77v5.87h-1.44V34.15z"/>
		<path class="st16" d="M-21.19,39.56c-2.58,0-3.81-1.87-3.81-4.39c0-2.5,1.34-4.47,3.76-4.47c2.53,0,3.52,1.95,3.52,4.08v0.74
			h-5.81c0.1,1.74,0.8,2.93,2.39,2.93c1.41,0,1.78-0.82,1.92-1.31h1.39C-18.13,38.6-19.38,39.56-21.19,39.56z M-19.19,34.3
			c-0.03-1.41-0.59-2.5-2.06-2.5c-1.34,0-2.08,1.06-2.26,2.59h4.32V34.3z"/>
		<path class="st16" d="M-11.09,33.22c0.03-1.49,1.17-2.51,3.19-2.51c2.1,0,3.12,0.88,3.12,3.14v3.44c0,0.67,0.14,0.94,0.77,0.96
			v1.17H-4.2c-1.34,0-1.79-0.48-1.94-1.49h-0.03c-0.45,0.99-1.46,1.57-2.71,1.57c-1.68,0-2.67-0.91-2.67-2.42
			c0-0.93,0.4-1.7,1.26-2.13c0.88-0.46,2.19-0.63,4.08-0.69V33.9c0-1.52-0.58-2.11-1.76-2.11c-1.25,0-1.71,0.72-1.76,1.44H-11.09z
			 M-6.2,35.53v-0.19c-1.82,0.08-2.86,0.22-3.41,0.62c-0.32,0.24-0.46,0.59-0.46,1.04c0,0.86,0.56,1.33,1.47,1.33
			C-7.52,38.33-6.2,37.61-6.2,35.53z"/>
		<path class="st16" d="M-1.76,26.74h1.44v12.61h-1.44V26.74z"/>
		<path class="st16" d="M2.83,26.74h1.44v12.61H2.83V26.74z"/>
		<path class="st16" d="M13.71,39.35h-1.44v-7.33h-1.54v-1.1h1.54v-1.89c0-1.73,0.99-2.34,2.56-2.34c0.32,0,0.64,0.03,0.9,0.08v1.18
			c-0.16-0.03-0.42-0.06-0.78-0.06c-0.83,0-1.23,0.3-1.23,1.31v1.71h2.02v1.1h-2.02V39.35z"/>
		<path class="st16" d="M16.91,35.13c0-2.61,1.44-4.42,3.79-4.42c2.51,0,3.76,1.81,3.76,4.42c0,2.64-1.42,4.43-3.79,4.43
			C18.19,39.56,16.91,37.77,16.91,35.13z M18.39,35.13c0,2.06,0.69,3.31,2.32,3.31c1.57,0,2.26-1.25,2.26-3.31
			c0-2.05-0.67-3.31-2.29-3.31C19.15,31.82,18.39,33.08,18.39,35.13z"/>
		<path class="st16" d="M32.25,34.15c0-0.61,0-1.28-0.3-1.68c-0.29-0.4-0.77-0.56-1.33-0.56c-1.57,0-2.29,1.01-2.29,2.39v5.06h-1.44
			v-8.44h1.36v1.42h0.03c0.4-0.86,1.38-1.63,2.72-1.63c1.62,0,2.69,0.77,2.69,2.77v5.87h-1.44V34.15z"/>
		<path class="st16" d="M38.55,28.47v2.45h2.08v1.1h-2.08V37c0,0.9,0.37,1.25,1.28,1.25c0.43,0,0.93-0.08,0.93-0.08v1.22
			c0,0-0.59,0.1-1.33,0.1c-1.65,0-2.31-0.8-2.31-2.24v-5.22h-1.54v-1.06h0.26c1.14,0,1.39-0.27,1.39-1.89v-0.61H38.55z"/>
		<path class="st16" d="M46.99,33.03c-0.08-0.75-0.69-1.23-1.68-1.23s-1.65,0.58-1.65,1.36c0,0.69,0.42,1.01,1.26,1.15l1.3,0.19
			c1.76,0.27,2.4,0.99,2.4,2.45c0,1.7-1.38,2.61-3.3,2.61c-1.75,0-3.19-0.78-3.3-2.59h1.41c0.06,0.66,0.43,1.49,1.92,1.49
			c1.15,0,1.87-0.54,1.87-1.42c0-0.67-0.18-1.04-1.33-1.23l-1.3-0.19c-1.5-0.24-2.3-0.86-2.3-2.34c0-1.49,1.14-2.56,3.06-2.56
			c1.83,0,2.87,0.85,3.01,2.32H46.99z"/>
		<path class="st16" d="M56.94,36.11c0,0.61,0,1.31,0.3,1.71c0.29,0.38,0.74,0.56,1.3,0.56c1.57,0,2.3-1.04,2.3-2.9v-4.56h1.44v8.44
			h-1.38v-1.44h-0.03c-0.38,0.86-1.31,1.65-2.66,1.65c-1.62,0-2.71-0.78-2.71-2.77v-5.88h1.42V36.11z"/>
		<path class="st16" d="M69.59,33.03c-0.08-0.75-0.69-1.23-1.68-1.23s-1.65,0.58-1.65,1.36c0,0.69,0.42,1.01,1.26,1.15l1.3,0.19
			c1.76,0.27,2.4,0.99,2.4,2.45c0,1.7-1.38,2.61-3.3,2.61c-1.75,0-3.19-0.78-3.3-2.59h1.41c0.06,0.66,0.43,1.49,1.92,1.49
			c1.15,0,1.87-0.54,1.87-1.42c0-0.67-0.18-1.04-1.33-1.23l-1.3-0.19c-1.5-0.24-2.3-0.86-2.3-2.34c0-1.49,1.14-2.56,3.06-2.56
			c1.83,0,2.87,0.85,3.01,2.32H69.59z"/>
		<path class="st16" d="M76.78,39.56c-2.58,0-3.81-1.87-3.81-4.39c0-2.5,1.34-4.47,3.76-4.47c2.53,0,3.52,1.95,3.52,4.08v0.74h-5.81
			c0.1,1.74,0.8,2.93,2.39,2.93c1.41,0,1.78-0.82,1.92-1.31h1.39C79.83,38.6,78.59,39.56,76.78,39.56z M78.78,34.3
			c-0.03-1.41-0.59-2.5-2.06-2.5c-1.34,0-2.08,1.06-2.26,2.59h4.32V34.3z"/>
		<path class="st16" d="M89.53,39.35h-1.38v-1.39h-0.05c-0.45,0.83-1.36,1.6-2.66,1.6c-1.79,0-3.44-1.12-3.44-4.37
			c0-2.9,1.5-4.48,3.63-4.48c1.26,0,2.08,0.7,2.42,1.49h0.03v-5.46h1.44V39.35z M88.12,34.81c0-1.79-0.94-2.95-2.29-2.95
			c-1.62,0-2.35,1.28-2.35,3.27c0,1.9,0.56,3.3,2.24,3.3c1.49,0,2.4-1.18,2.4-2.72V34.81z"/>
		<path class="st16" d="M97.18,27.45h1.52V29h-1.52V27.45z M97.21,30.92h1.46v8.44h-1.46V30.92z"/>
		<path class="st16" d="M107.19,34.15c0-0.61,0-1.28-0.3-1.68c-0.29-0.4-0.77-0.56-1.33-0.56c-1.57,0-2.29,1.01-2.29,2.39v5.06
			h-1.44v-8.44h1.36v1.42h0.03c0.4-0.86,1.38-1.63,2.72-1.63c1.62,0,2.69,0.77,2.69,2.77v5.87h-1.44V34.15z"/>
		<path class="st16" d="M115.33,30.92h1.44l1.76,5.28c0.27,0.8,0.42,1.31,0.42,1.31H119c0,0,0.14-0.51,0.42-1.33l1.73-5.27h1.44
			l-3.07,8.96c-0.67,1.94-1.23,2.66-3.06,2.66c-0.32,0-0.64-0.05-0.86-0.1v-1.18c0.27,0.06,0.59,0.08,0.74,0.08
			c1.07,0,1.42-0.4,1.79-1.54l0.16-0.45L115.33,30.92z"/>
		<path class="st16" d="M123.88,35.13c0-2.61,1.44-4.42,3.79-4.42c2.51,0,3.76,1.81,3.76,4.42c0,2.64-1.42,4.43-3.79,4.43
			C125.16,39.56,123.88,37.77,123.88,35.13z M125.37,35.13c0,2.06,0.69,3.31,2.32,3.31c1.57,0,2.26-1.25,2.26-3.31
			c0-2.05-0.67-3.31-2.29-3.31C126.12,31.82,125.37,33.08,125.37,35.13z"/>
		<path class="st16" d="M135.26,36.11c0,0.61,0,1.31,0.3,1.71c0.29,0.38,0.74,0.56,1.3,0.56c1.57,0,2.3-1.04,2.3-2.9v-4.56h1.44
			v8.44h-1.38v-1.44h-0.03c-0.38,0.86-1.31,1.65-2.66,1.65c-1.62,0-2.71-0.78-2.71-2.77v-5.88h1.42V36.11z"/>
		<path class="st16" d="M143.75,30.92h1.36v1.58h0.03c0.38-0.88,1.44-1.75,2.67-1.75h0.14v1.5h-0.27c-1.5,0-2.5,0.86-2.5,2.5v4.59
			h-1.44V30.92z"/>
		<path class="st16" d="M161.45,39.35h-1.38v-1.39h-0.05c-0.45,0.83-1.36,1.6-2.66,1.6c-1.79,0-3.44-1.12-3.44-4.37
			c0-2.9,1.5-4.48,3.63-4.48c1.26,0,2.08,0.7,2.42,1.49h0.03v-5.46h1.44V39.35z M160.04,34.81c0-1.79-0.94-2.95-2.29-2.95
			c-1.62,0-2.35,1.28-2.35,3.27c0,1.9,0.56,3.3,2.24,3.3c1.49,0,2.4-1.18,2.4-2.72V34.81z"/>
		<path class="st16" d="M167.67,39.56c-2.58,0-3.81-1.87-3.81-4.39c0-2.5,1.34-4.47,3.76-4.47c2.53,0,3.52,1.95,3.52,4.08v0.74
			h-5.81c0.1,1.74,0.8,2.93,2.38,2.93c1.41,0,1.78-0.82,1.92-1.31h1.39C170.73,38.6,169.48,39.56,167.67,39.56z M169.67,34.3
			c-0.03-1.41-0.59-2.5-2.06-2.5c-1.34,0-2.08,1.06-2.26,2.59h4.32V34.3z"/>
		<path class="st16" d="M177.74,33.03c-0.08-0.75-0.69-1.23-1.68-1.23s-1.65,0.58-1.65,1.36c0,0.69,0.42,1.01,1.26,1.15l1.3,0.19
			c1.76,0.27,2.4,0.99,2.4,2.45c0,1.7-1.38,2.61-3.3,2.61c-1.75,0-3.19-0.78-3.3-2.59h1.41c0.06,0.66,0.43,1.49,1.92,1.49
			c1.15,0,1.87-0.54,1.87-1.42c0-0.67-0.18-1.04-1.33-1.23l-1.3-0.19c-1.5-0.24-2.3-0.86-2.3-2.34c0-1.49,1.14-2.56,3.06-2.56
			c1.83,0,2.87,0.85,3.01,2.32H177.74z"/>
		<path class="st16" d="M181.83,27.45h1.52V29h-1.52V27.45z M181.86,30.92h1.46v8.44h-1.46V30.92z"/>
		<path class="st16" d="M185.94,40.2h1.39c0.16,0.72,0.71,1.18,2.08,1.18c1.6,0,2.4-0.59,2.4-2.45v-1.25h-0.02
			c-0.43,0.83-1.42,1.55-2.69,1.55c-1.76,0-3.38-1.1-3.38-4.23c0-2.79,1.47-4.31,3.55-4.31c1.36,0,2.18,0.75,2.53,1.54h0.03v-1.33
			h1.38v8.23c0,2.37-1.55,3.39-3.84,3.39C187.78,42.54,186.13,41.95,185.94,40.2z M191.85,34.68c0-1.68-0.94-2.83-2.4-2.83
			c-1.52,0-2.24,1.26-2.24,3.17c0,1.86,0.53,3.14,2.31,3.14c1.36,0,2.34-1.18,2.34-2.63V34.68z"/>
		<path class="st16" d="M201.75,34.15c0-0.61,0-1.28-0.3-1.68c-0.29-0.4-0.77-0.56-1.33-0.56c-1.57,0-2.29,1.01-2.29,2.39v5.06
			h-1.44v-8.44h1.36v1.42h0.03c0.4-0.86,1.38-1.63,2.72-1.63c1.62,0,2.69,0.77,2.69,2.77v5.87h-1.44V34.15z"/>
		<path class="st16" d="M205.7,37.4h1.95v1.95h-1.95V37.4z"/>
		<path class="st16" d="M-84.12,63.46h4.45v1.3h-4.45V63.46z"/>
		<path class="st16" d="M-72.37,57.11h7.83v1.33h-6.34v4.08h5.83v1.3h-5.83v4.21h6.42v1.33h-7.91V57.11z"/>
		<path class="st16" d="M-59.86,65l-2.67-4.08h1.7l1.84,2.95h0.03l1.89-2.95h1.57l-2.66,4l2.93,4.43h-1.71l-2.1-3.3h-0.05l-2.08,3.3
			h-1.57L-59.86,65z"/>
		<path class="st16" d="M-53.35,60.92h1.39v1.41h0.03c0.5-0.9,1.41-1.62,2.69-1.62c1.79,0,3.39,1.1,3.39,4.31
			c0,3.07-1.58,4.55-3.49,4.55c-1.23,0-2.23-0.69-2.54-1.44h-0.03v4.24h-1.44V60.92z M-49.54,68.43c1.5,0,2.24-1.2,2.24-3.41
			c0-1.79-0.53-3.15-2.26-3.15c-1.49,0-2.4,1.26-2.4,2.69v0.9C-51.96,67.11-51.14,68.43-49.54,68.43z"/>
		<path class="st16" d="M-44,65.13c0-2.61,1.44-4.42,3.79-4.42c2.51,0,3.76,1.81,3.76,4.42c0,2.64-1.42,4.43-3.79,4.43
			C-42.72,69.56-44,67.77-44,65.13z M-42.52,65.13c0,2.06,0.69,3.31,2.32,3.31c1.57,0,2.26-1.25,2.26-3.31
			c0-2.05-0.67-3.31-2.29-3.31C-41.76,61.82-42.52,63.08-42.52,65.13z"/>
		<path class="st16" d="M-34.02,60.92h1.36v1.58h0.03c0.38-0.88,1.44-1.75,2.67-1.75h0.14v1.5h-0.27c-1.5,0-2.5,0.86-2.5,2.5v4.59
			h-1.44V60.92z"/>
		<path class="st16" d="M-25.59,58.47v2.45h2.08v1.1h-2.08V67c0,0.9,0.37,1.25,1.28,1.25c0.43,0,0.93-0.08,0.93-0.08v1.22
			c0,0-0.59,0.1-1.33,0.1c-1.65,0-2.31-0.8-2.31-2.24v-5.22h-1.54v-1.06h0.26c1.14,0,1.39-0.27,1.39-1.89v-0.61H-25.59z"/>
		<path class="st16" d="M-17.21,63.22c0.03-1.49,1.17-2.51,3.19-2.51c2.1,0,3.12,0.88,3.12,3.14v3.44c0,0.67,0.14,0.94,0.77,0.96
			v1.17h-0.18c-1.34,0-1.79-0.48-1.94-1.49h-0.03c-0.45,0.99-1.46,1.57-2.71,1.57c-1.68,0-2.67-0.91-2.67-2.42
			c0-0.93,0.4-1.7,1.26-2.13c0.88-0.46,2.19-0.63,4.08-0.69V63.9c0-1.52-0.58-2.11-1.76-2.11c-1.25,0-1.71,0.72-1.76,1.44H-17.21z
			 M-12.31,65.53v-0.19c-1.82,0.08-2.86,0.22-3.41,0.62c-0.32,0.24-0.46,0.59-0.46,1.04c0,0.86,0.56,1.33,1.47,1.33
			C-13.64,68.33-12.31,67.61-12.31,65.53z"/>
		<path class="st16" d="M-2.51,64.15c0-0.61,0-1.28-0.3-1.68c-0.29-0.4-0.77-0.56-1.33-0.56c-1.57,0-2.29,1.01-2.29,2.39v5.06h-1.44
			v-8.44h1.36v1.42h0.03c0.4-0.86,1.38-1.63,2.72-1.63c1.62,0,2.69,0.77,2.69,2.77v5.87h-1.44V64.15z"/>
		<path class="st16" d="M8.78,69.35H7.4v-1.39H7.36c-0.45,0.83-1.36,1.6-2.66,1.6c-1.79,0-3.44-1.12-3.44-4.37
			c0-2.9,1.5-4.48,3.63-4.48c1.26,0,2.08,0.7,2.42,1.49h0.03v-5.46h1.44V69.35z M7.37,64.81c0-1.79-0.94-2.95-2.29-2.95
			c-1.62,0-2.35,1.28-2.35,3.27c0,1.9,0.56,3.3,2.24,3.3c1.49,0,2.4-1.18,2.4-2.72V64.81z"/>
		<path class="st16" d="M20.62,63.03c-0.08-0.75-0.69-1.23-1.68-1.23s-1.65,0.58-1.65,1.36c0,0.69,0.42,1.01,1.26,1.15l1.3,0.19
			c1.76,0.27,2.4,0.99,2.4,2.45c0,1.7-1.38,2.61-3.3,2.61c-1.75,0-3.19-0.78-3.3-2.59h1.41c0.06,0.66,0.43,1.49,1.92,1.49
			c1.15,0,1.87-0.54,1.87-1.42c0-0.67-0.18-1.04-1.33-1.23l-1.3-0.19c-1.5-0.24-2.3-0.86-2.3-2.34c0-1.49,1.14-2.56,3.06-2.56
			c1.83,0,2.87,0.85,3.01,2.32H20.62z"/>
		<path class="st16" d="M25.98,66.11c0,0.61,0,1.31,0.3,1.71c0.29,0.38,0.74,0.56,1.3,0.56c1.57,0,2.3-1.04,2.3-2.9v-4.56h1.44v8.44
			h-1.38v-1.44h-0.03c-0.38,0.86-1.31,1.65-2.66,1.65c-1.62,0-2.71-0.78-2.71-2.77v-5.88h1.42V66.11z"/>
		<path class="st16" d="M34.47,56.74h1.44v5.57h0.02c0.46-0.91,1.39-1.6,2.66-1.6c1.79,0,3.39,1.1,3.39,4.31
			c0,3.07-1.57,4.55-3.47,4.55c-1.33,0-2.21-0.74-2.64-1.55h-0.03v1.34h-1.36V56.74z M40.52,65.02c0-1.79-0.53-3.15-2.26-3.15
			c-1.52,0-2.4,1.26-2.4,2.69v0.9c0,1.66,0.82,2.98,2.42,2.98C39.79,68.43,40.52,67.23,40.52,65.02z"/>
		<path class="st16" d="M44.41,60.92h1.36v1.42h0.03c0.38-0.86,1.36-1.63,2.71-1.63c1.28,0,2.24,0.58,2.54,1.75h0.03
			c0.32-0.88,1.36-1.75,2.75-1.75c1.58,0,2.67,0.77,2.67,2.77v5.87h-1.44v-5.22c0-0.61,0-1.26-0.3-1.68
			c-0.29-0.4-0.75-0.54-1.31-0.54c-1.57,0-2.27,1.01-2.27,2.39v5.06h-1.44v-5.22c0-0.61,0-1.25-0.3-1.67
			c-0.29-0.4-0.75-0.56-1.31-0.56c-1.57,0-2.27,1.01-2.27,2.35v5.09h-1.44V60.92z"/>
		<path class="st16" d="M59.56,57.45h1.52V59h-1.52V57.45z M59.59,60.92h1.46v8.44h-1.46V60.92z"/>
		<path class="st16" d="M65.99,58.47v2.45h2.08v1.1h-2.08V67c0,0.9,0.37,1.25,1.28,1.25c0.43,0,0.93-0.08,0.93-0.08v1.22
			c0,0-0.59,0.1-1.33,0.1c-1.65,0-2.31-0.8-2.31-2.24v-5.22h-1.54v-1.06h0.26c1.14,0,1.39-0.27,1.39-1.89v-0.61H65.99z"/>
		<path class="st16" d="M74.7,56.74h1.44v12.61H74.7V56.74z"/>
		<path class="st16" d="M78.54,65.13c0-2.61,1.44-4.42,3.79-4.42c2.51,0,3.76,1.81,3.76,4.42c0,2.64-1.42,4.43-3.79,4.43
			C79.82,69.56,78.54,67.77,78.54,65.13z M80.03,65.13c0,2.06,0.69,3.31,2.32,3.31c1.57,0,2.26-1.25,2.26-3.31
			c0-2.05-0.67-3.31-2.29-3.31C80.78,61.82,80.03,63.08,80.03,65.13z"/>
		<path class="st16" d="M88.14,70.2h1.39c0.16,0.72,0.71,1.18,2.08,1.18c1.6,0,2.4-0.59,2.4-2.45v-1.25h-0.02
			c-0.43,0.83-1.42,1.55-2.69,1.55c-1.76,0-3.38-1.1-3.38-4.23c0-2.79,1.47-4.31,3.55-4.31c1.36,0,2.18,0.75,2.53,1.54h0.03v-1.33
			h1.38v8.23c0,2.37-1.55,3.39-3.84,3.39C89.98,72.54,88.33,71.95,88.14,70.2z M94.04,64.68c0-1.68-0.94-2.83-2.4-2.83
			c-1.52,0-2.24,1.26-2.24,3.17c0,1.86,0.53,3.14,2.31,3.14c1.36,0,2.34-1.18,2.34-2.63V64.68z"/>
		<path class="st16" d="M97.83,65.13c0-2.61,1.44-4.42,3.79-4.42c2.51,0,3.76,1.81,3.76,4.42c0,2.64-1.42,4.43-3.79,4.43
			C99.11,69.56,97.83,67.77,97.83,65.13z M99.32,65.13c0,2.06,0.69,3.31,2.32,3.31c1.57,0,2.26-1.25,2.26-3.31
			c0-2.05-0.67-3.31-2.29-3.31C100.07,61.82,99.32,63.08,99.32,65.13z"/>
		<path class="st16" d="M112.06,63.03c-0.08-0.75-0.69-1.23-1.68-1.23s-1.65,0.58-1.65,1.36c0,0.69,0.42,1.01,1.26,1.15l1.3,0.19
			c1.76,0.27,2.4,0.99,2.4,2.45c0,1.7-1.38,2.61-3.3,2.61c-1.75,0-3.19-0.78-3.3-2.59h1.41c0.06,0.66,0.43,1.49,1.92,1.49
			c1.15,0,1.87-0.54,1.87-1.42c0-0.67-0.18-1.04-1.33-1.23l-1.3-0.19c-1.5-0.24-2.3-0.86-2.3-2.34c0-1.49,1.14-2.56,3.06-2.56
			c1.83,0,2.87,0.85,3.01,2.32H112.06z"/>
		<path class="st16" d="M120.3,63.22c0.03-1.49,1.17-2.51,3.19-2.51c2.1,0,3.12,0.88,3.12,3.14v3.44c0,0.67,0.14,0.94,0.77,0.96
			v1.17h-0.18c-1.34,0-1.79-0.48-1.94-1.49h-0.03c-0.45,0.99-1.46,1.57-2.71,1.57c-1.68,0-2.67-0.91-2.67-2.42
			c0-0.93,0.4-1.7,1.26-2.13c0.88-0.46,2.19-0.63,4.08-0.69V63.9c0-1.52-0.58-2.11-1.76-2.11c-1.25,0-1.71,0.72-1.76,1.44H120.3z
			 M125.19,65.53v-0.19c-1.82,0.08-2.86,0.22-3.41,0.62c-0.32,0.24-0.46,0.59-0.46,1.04c0,0.86,0.56,1.33,1.47,1.33
			C123.87,68.33,125.19,67.61,125.19,65.53z"/>
		<path class="st16" d="M131.4,58.47v2.45h2.08v1.1h-2.08V67c0,0.9,0.37,1.25,1.28,1.25c0.43,0,0.93-0.08,0.93-0.08v1.22
			c0,0-0.59,0.1-1.33,0.1c-1.65,0-2.31-0.8-2.31-2.24v-5.22h-1.54v-1.06h0.26c1.14,0,1.39-0.27,1.39-1.89v-0.61H131.4z"/>
		<path class="st16" d="M141.88,60.62h-2.37v-1.02h0.35c0.8,0,1.38-0.21,1.74-0.58c0.35-0.35,0.51-0.83,0.53-1.57h1.2v11.91h-1.46
			V60.62z"/>
		<path class="st16" d="M150.87,57.32c2.59,0,4.27,2.02,4.27,6.15c0,4.11-1.67,6.15-4.27,6.15c-2.63,0-4.24-2.03-4.24-6.15
			C146.63,59.33,148.31,57.32,150.87,57.32z M153.59,63.5c0-3.3-1.02-4.98-2.72-4.98c-1.66,0-2.69,1.6-2.69,4.98
			c0,3.28,0.99,4.93,2.69,4.93C152.54,68.43,153.59,66.71,153.59,63.5z"/>
		<path class="st16" d="M161.83,57.32c2.59,0,4.27,2.02,4.27,6.15c0,4.11-1.67,6.15-4.27,6.15c-2.63,0-4.24-2.03-4.24-6.15
			C157.59,59.33,159.27,57.32,161.83,57.32z M164.55,63.5c0-3.3-1.02-4.98-2.72-4.98c-1.66,0-2.69,1.6-2.69,4.98
			c0,3.28,0.99,4.93,2.69,4.93C163.5,68.43,164.55,66.71,164.55,63.5z"/>
		<path class="st16" d="M172.79,57.32c2.59,0,4.27,2.02,4.27,6.15c0,4.11-1.67,6.15-4.27,6.15c-2.63,0-4.24-2.03-4.24-6.15
			C168.55,59.33,170.23,57.32,172.79,57.32z M175.51,63.5c0-3.3-1.02-4.98-2.72-4.98c-1.66,0-2.69,1.6-2.69,4.98
			c0,3.28,0.99,4.93,2.69,4.93C174.46,68.43,175.51,66.71,175.51,63.5z"/>
		<path class="st16" d="M179.83,60.92h1.39v1.41h0.03c0.5-0.9,1.41-1.62,2.69-1.62c1.79,0,3.39,1.1,3.39,4.31
			c0,3.07-1.58,4.55-3.49,4.55c-1.23,0-2.23-0.69-2.54-1.44h-0.03v4.24h-1.44V60.92z M183.64,68.43c1.5,0,2.24-1.2,2.24-3.41
			c0-1.79-0.53-3.15-2.26-3.15c-1.49,0-2.4,1.26-2.4,2.69v0.9C181.22,67.11,182.04,68.43,183.64,68.43z"/>
		<path class="st16" d="M191.29,65l-2.67-4.08h1.7l1.84,2.95h0.03l1.89-2.95h1.57l-2.66,4l2.93,4.43h-1.71l-2.1-3.3h-0.05l-2.08,3.3
			h-1.57L191.29,65z"/>
		<path class="st16" d="M206.55,63.03c-0.08-0.75-0.69-1.23-1.68-1.23s-1.65,0.58-1.65,1.36c0,0.69,0.42,1.01,1.26,1.15l1.3,0.19
			c1.76,0.27,2.4,0.99,2.4,2.45c0,1.7-1.38,2.61-3.3,2.61c-1.75,0-3.19-0.78-3.3-2.59H203c0.06,0.66,0.43,1.49,1.92,1.49
			c1.15,0,1.87-0.54,1.87-1.42c0-0.67-0.18-1.04-1.33-1.23l-1.3-0.19c-1.5-0.24-2.3-0.86-2.3-2.34c0-1.49,1.14-2.56,3.06-2.56
			c1.83,0,2.87,0.85,3.01,2.32H206.55z"/>
		<path class="st16" d="M217.45,72.36h-1.44v-4.29h-0.05c-0.4,0.75-1.3,1.49-2.59,1.49c-1.79,0-3.44-1.09-3.44-4.37
			c0-2.9,1.5-4.48,3.63-4.48c1.26,0,2.11,0.7,2.45,1.49h0.03v-1.28h1.41V72.36z M216.04,65.71v-0.9c0-1.79-0.94-2.95-2.29-2.95
			c-1.58,0-2.35,1.28-2.35,3.27c0,1.9,0.56,3.3,2.24,3.3C215.13,68.43,216.04,67.24,216.04,65.71z"/>
		<path class="st16" d="M221.93,66.11c0,0.61,0,1.31,0.3,1.71c0.29,0.38,0.74,0.56,1.3,0.56c1.57,0,2.3-1.04,2.3-2.9v-4.56h1.44
			v8.44h-1.38v-1.44h-0.03c-0.38,0.86-1.31,1.65-2.66,1.65c-1.62,0-2.71-0.78-2.71-2.77v-5.88h1.42V66.11z"/>
		<path class="st16" d="M230.02,63.22c0.03-1.49,1.17-2.51,3.19-2.51c2.1,0,3.12,0.88,3.12,3.14v3.44c0,0.67,0.14,0.94,0.77,0.96
			v1.17h-0.18c-1.34,0-1.79-0.48-1.94-1.49h-0.03c-0.45,0.99-1.46,1.57-2.71,1.57c-1.68,0-2.67-0.91-2.67-2.42
			c0-0.93,0.4-1.7,1.26-2.13c0.88-0.46,2.19-0.63,4.08-0.69V63.9c0-1.52-0.58-2.11-1.76-2.11c-1.25,0-1.71,0.72-1.76,1.44H230.02z
			 M234.92,65.53v-0.19c-1.82,0.08-2.86,0.22-3.41,0.62c-0.32,0.24-0.46,0.59-0.46,1.04c0,0.86,0.56,1.33,1.47,1.33
			C233.59,68.33,234.92,67.61,234.92,65.53z"/>
		<path class="st16" d="M239.35,60.92h1.36v1.58h0.03c0.38-0.88,1.44-1.75,2.67-1.75h0.14v1.5h-0.27c-1.5,0-2.5,0.86-2.5,2.5v4.59
			h-1.44V60.92z"/>
		<path class="st16" d="M248.66,69.56c-2.58,0-3.81-1.87-3.81-4.39c0-2.5,1.34-4.47,3.76-4.47c2.53,0,3.52,1.95,3.52,4.08v0.74
			h-5.81c0.1,1.74,0.8,2.93,2.38,2.93c1.41,0,1.78-0.82,1.92-1.31h1.39C251.72,68.6,250.47,69.56,248.66,69.56z M250.66,64.3
			c-0.03-1.41-0.59-2.5-2.06-2.5c-1.34,0-2.08,1.06-2.26,2.59h4.32V64.3z"/>
		<path class="st16" d="M260.85,58.47v2.45h2.08v1.1h-2.08V67c0,0.9,0.37,1.25,1.28,1.25c0.43,0,0.93-0.08,0.93-0.08v1.22
			c0,0-0.59,0.1-1.33,0.1c-1.65,0-2.31-0.8-2.31-2.24v-5.22h-1.54v-1.06h0.26c1.14,0,1.39-0.27,1.39-1.89v-0.61H260.85z"/>
		<path class="st16" d="M264.45,65.13c0-2.61,1.44-4.42,3.79-4.42c2.51,0,3.76,1.81,3.76,4.42c0,2.64-1.42,4.43-3.79,4.43
			C265.73,69.56,264.45,67.77,264.45,65.13z M265.94,65.13c0,2.06,0.69,3.31,2.32,3.31c1.57,0,2.26-1.25,2.26-3.31
			c0-2.05-0.67-3.31-2.29-3.31C266.69,61.82,265.94,63.08,265.94,65.13z"/>
		<path class="st16" d="M274.12,60.92h1.97v1.97h-1.97V60.92z M274.12,69.35v-1.97h1.97v1.97H274.12z"/>
		<path class="st16" d="M-66.07,93.46h4.45v1.3h-4.45V93.46z"/>
		<path class="st16" d="M-55.57,99.4v-1.26h0.34c2.56,0,2.99-0.67,2.99-2.48v-8.55h1.49v8.68c0,2.64-1.44,3.62-4.15,3.62H-55.57z"/>
		<path class="st16" d="M-45.89,94.68v4.67h-1.49V87.11h3.68c2.37,0,4.21,1.12,4.21,3.76c0,2.59-1.82,3.81-4.34,3.81H-45.89z
			 M-43.83,93.48c1.78,0,2.8-0.86,2.8-2.61c0-1.83-1.02-2.56-2.75-2.56h-2.11v5.17H-43.83z"/>
		<path class="st16" d="M-36,93.34c0,3.25,1.38,5.06,3.86,5.06c2.32,0,3.7-1.33,3.7-3.73v-0.18h-3.54v-1.31h4.99v6.18h-1.3v-1.76
			h-0.06c-0.58,1.07-1.84,2.02-3.83,2.02c-3.09,0-5.39-2.02-5.39-6.32c0-4,2.42-6.35,5.59-6.35c2.51,0,4.32,1.26,4.63,3.42h-1.55
			c-0.21-1.39-1.47-2.24-3.07-2.24C-34.64,88.12-36,90.2-36,93.34z"/>
		<path class="st16" d="M-23.91,97.39h1.79l-1.3,3.84h-1.04L-23.91,97.39z"/>
		<path class="st16" d="M-13.76,94.68v4.67h-1.49V87.11h3.68c2.37,0,4.21,1.12,4.21,3.76c0,2.59-1.82,3.81-4.34,3.81H-13.76z
			 M-11.7,93.48c1.78,0,2.8-0.86,2.8-2.61c0-1.83-1.02-2.56-2.75-2.56h-2.11v5.17H-11.7z"/>
		<path class="st16" d="M-4.87,87.11h1.9l5.44,9.11c0.42,0.67,0.62,1.2,0.62,1.2h0.05V87.11h1.41v12.25H2.65l-5.43-9.09
			c-0.48-0.8-0.64-1.18-0.64-1.18h-0.03v10.28h-1.42V87.11z"/>
		<path class="st16" d="M9,93.34c0,3.25,1.38,5.06,3.86,5.06c2.32,0,3.7-1.33,3.7-3.73v-0.18h-3.54v-1.31h4.99v6.18h-1.3v-1.76
			h-0.06c-0.58,1.07-1.84,2.02-3.83,2.02c-3.09,0-5.39-2.02-5.39-6.32c0-4,2.42-6.35,5.59-6.35c2.51,0,4.32,1.26,4.63,3.42h-1.55
			c-0.21-1.39-1.47-2.24-3.07-2.24C10.36,88.12,9,90.2,9,93.34z"/>
		<path class="st16" d="M21.02,90.92h1.97v1.97h-1.97V90.92z M21.02,99.35v-1.97h1.97v1.97H21.02z"/>
		<path class="st16" d="M34.25,93.03c-0.08-0.75-0.69-1.23-1.68-1.23s-1.65,0.58-1.65,1.36c0,0.69,0.42,1.01,1.26,1.15l1.3,0.19
			c1.76,0.27,2.4,0.99,2.4,2.45c0,1.7-1.38,2.61-3.3,2.61c-1.75,0-3.19-0.78-3.3-2.59h1.41c0.06,0.66,0.43,1.49,1.92,1.49
			c1.15,0,1.87-0.54,1.87-1.42c0-0.67-0.18-1.04-1.33-1.23l-1.3-0.19c-1.5-0.24-2.3-0.86-2.3-2.34c0-1.49,1.14-2.56,3.06-2.56
			c1.83,0,2.87,0.85,3.01,2.32H34.25z"/>
		<path class="st16" d="M41.43,99.56c-2.58,0-3.81-1.87-3.81-4.39c0-2.5,1.34-4.47,3.76-4.47c2.53,0,3.52,1.95,3.52,4.08v0.74H39.1
			c0.1,1.74,0.8,2.93,2.38,2.93c1.41,0,1.78-0.82,1.92-1.31h1.39C44.49,98.6,43.24,99.56,41.43,99.56z M43.44,94.3
			c-0.03-1.41-0.59-2.5-2.06-2.5c-1.34,0-2.08,1.06-2.26,2.59h4.32V94.3z"/>
		<path class="st16" d="M49.11,88.47v2.45h2.08v1.1h-2.08V97c0,0.9,0.37,1.25,1.28,1.25c0.43,0,0.93-0.08,0.93-0.08v1.22
			c0,0-0.59,0.1-1.33,0.1c-1.65,0-2.31-0.8-2.31-2.24v-5.22h-1.54v-1.06h0.26c1.14,0,1.39-0.27,1.39-1.89v-0.61H49.11z"/>
		<path class="st16" d="M59.59,88.47v2.45h2.08v1.1h-2.08V97c0,0.9,0.37,1.25,1.28,1.25c0.43,0,0.93-0.08,0.93-0.08v1.22
			c0,0-0.59,0.1-1.33,0.1c-1.65,0-2.31-0.8-2.31-2.24v-5.22h-1.54v-1.06h0.26c1.14,0,1.39-0.27,1.39-1.89v-0.61H59.59z"/>
		<path class="st16" d="M63.19,95.13c0-2.61,1.44-4.42,3.79-4.42c2.51,0,3.76,1.81,3.76,4.42c0,2.64-1.42,4.43-3.79,4.43
			C64.47,99.56,63.19,97.77,63.19,95.13z M64.68,95.13c0,2.06,0.69,3.31,2.32,3.31c1.57,0,2.26-1.25,2.26-3.31
			c0-2.05-0.67-3.31-2.29-3.31C65.43,91.82,64.68,93.08,64.68,95.13z"/>
		<path class="st16" d="M77.69,90.92h1.36v1.42h0.03c0.38-0.86,1.36-1.63,2.71-1.63c1.28,0,2.24,0.58,2.54,1.75h0.03
			c0.32-0.88,1.36-1.75,2.75-1.75c1.58,0,2.67,0.77,2.67,2.77v5.87h-1.44v-5.22c0-0.61,0-1.26-0.3-1.68
			c-0.29-0.4-0.75-0.54-1.31-0.54c-1.57,0-2.27,1.01-2.27,2.39v5.06h-1.44v-5.22c0-0.61,0-1.25-0.3-1.67
			c-0.29-0.4-0.75-0.56-1.31-0.56c-1.57,0-2.27,1.01-2.27,2.35v5.09h-1.44V90.92z"/>
		<path class="st16" d="M92.55,93.22c0.03-1.49,1.17-2.51,3.19-2.51c2.1,0,3.12,0.88,3.12,3.14v3.44c0,0.67,0.14,0.94,0.77,0.96
			v1.17h-0.18c-1.34,0-1.79-0.48-1.94-1.49h-0.03c-0.45,0.99-1.46,1.57-2.71,1.57c-1.68,0-2.67-0.91-2.67-2.42
			c0-0.93,0.4-1.7,1.26-2.13c0.88-0.46,2.19-0.63,4.08-0.69V93.9c0-1.52-0.58-2.11-1.76-2.11c-1.25,0-1.71,0.72-1.76,1.44H92.55z
			 M97.45,95.53v-0.19c-1.82,0.08-2.86,0.22-3.41,0.62c-0.32,0.24-0.46,0.59-0.46,1.04c0,0.86,0.56,1.33,1.47,1.33
			C96.12,98.33,97.45,97.61,97.45,95.53z"/>
		<path class="st16" d="M103.56,95l-2.67-4.08h1.7l1.84,2.95h0.03l1.89-2.95h1.57l-2.66,4l2.93,4.43h-1.71l-2.1-3.3h-0.05l-2.08,3.3
			h-1.57L103.56,95z"/>
		<path class="st16" d="M110.12,87.45h1.52V89h-1.52V87.45z M110.15,90.92h1.46v8.44h-1.46V90.92z"/>
		<path class="st16" d="M114.78,90.92h1.36v1.42h0.03c0.38-0.86,1.36-1.63,2.71-1.63c1.28,0,2.24,0.58,2.54,1.75h0.03
			c0.32-0.88,1.36-1.75,2.75-1.75c1.58,0,2.67,0.77,2.67,2.77v5.87h-1.44v-5.22c0-0.61,0-1.26-0.3-1.68
			c-0.29-0.4-0.75-0.54-1.31-0.54c-1.57,0-2.27,1.01-2.27,2.39v5.06h-1.44v-5.22c0-0.61,0-1.25-0.3-1.67
			c-0.29-0.4-0.75-0.56-1.31-0.56c-1.57,0-2.27,1.01-2.27,2.35v5.09h-1.44V90.92z"/>
		<path class="st16" d="M131.35,96.11c0,0.61,0,1.31,0.3,1.71c0.29,0.38,0.74,0.56,1.3,0.56c1.57,0,2.3-1.04,2.3-2.9v-4.56h1.44
			v8.44h-1.38v-1.44h-0.03c-0.38,0.86-1.31,1.65-2.66,1.65c-1.62,0-2.71-0.78-2.71-2.77v-5.88h1.42V96.11z"/>
		<path class="st16" d="M139.85,90.92h1.36v1.42h0.03c0.38-0.86,1.36-1.63,2.71-1.63c1.28,0,2.24,0.58,2.54,1.75h0.03
			c0.32-0.88,1.36-1.75,2.75-1.75c1.58,0,2.67,0.77,2.67,2.77v5.87h-1.44v-5.22c0-0.61,0-1.26-0.3-1.68
			c-0.29-0.4-0.75-0.54-1.31-0.54c-1.57,0-2.27,1.01-2.27,2.39v5.06h-1.44v-5.22c0-0.61,0-1.25-0.3-1.67
			c-0.29-0.4-0.75-0.56-1.31-0.56c-1.57,0-2.27,1.01-2.27,2.35v5.09h-1.44V90.92z"/>
		<path class="st16" d="M166.31,102.36h-1.44v-4.29h-0.05c-0.4,0.75-1.3,1.49-2.59,1.49c-1.79,0-3.44-1.09-3.44-4.37
			c0-2.9,1.5-4.48,3.63-4.48c1.26,0,2.11,0.7,2.45,1.49h0.03v-1.28h1.41V102.36z M164.91,95.71v-0.9c0-1.79-0.94-2.95-2.29-2.95
			c-1.58,0-2.35,1.28-2.35,3.27c0,1.9,0.56,3.3,2.24,3.3C163.99,98.43,164.91,97.24,164.91,95.71z"/>
		<path class="st16" d="M170.79,96.11c0,0.61,0,1.31,0.3,1.71c0.29,0.38,0.74,0.56,1.3,0.56c1.57,0,2.3-1.04,2.3-2.9v-4.56h1.44
			v8.44h-1.38v-1.44h-0.03c-0.38,0.86-1.31,1.65-2.66,1.65c-1.62,0-2.71-0.78-2.71-2.77v-5.88h1.42V96.11z"/>
		<path class="st16" d="M178.89,93.22c0.03-1.49,1.17-2.51,3.19-2.51c2.1,0,3.12,0.88,3.12,3.14v3.44c0,0.67,0.14,0.94,0.77,0.96
			v1.17h-0.18c-1.34,0-1.79-0.48-1.94-1.49h-0.03c-0.45,0.99-1.46,1.57-2.71,1.57c-1.68,0-2.67-0.91-2.67-2.42
			c0-0.93,0.4-1.7,1.26-2.13c0.88-0.46,2.19-0.63,4.08-0.69V93.9c0-1.52-0.58-2.11-1.76-2.11c-1.25,0-1.71,0.72-1.76,1.44H178.89z
			 M183.78,95.53v-0.19c-1.82,0.08-2.86,0.22-3.41,0.62c-0.32,0.24-0.46,0.59-0.46,1.04c0,0.86,0.56,1.33,1.47,1.33
			C182.46,98.33,183.78,97.61,183.78,95.53z"/>
		<path class="st16" d="M188.21,86.74h1.44v12.61h-1.44V86.74z"/>
		<path class="st16" d="M192.77,87.45h1.52V89h-1.52V87.45z M192.81,90.92h1.46v8.44h-1.46V90.92z"/>
		<path class="st16" d="M199.21,88.47v2.45h2.08v1.1h-2.08V97c0,0.9,0.37,1.25,1.28,1.25c0.43,0,0.93-0.08,0.93-0.08v1.22
			c0,0-0.59,0.1-1.33,0.1c-1.65,0-2.31-0.8-2.31-2.24v-5.22h-1.54v-1.06h0.26c1.14,0,1.39-0.27,1.39-1.89v-0.61H199.21z"/>
		<path class="st16" d="M202.74,90.92h1.44l1.76,5.28c0.27,0.8,0.42,1.31,0.42,1.31h0.05c0,0,0.14-0.51,0.42-1.33l1.73-5.27h1.44
			l-3.07,8.96c-0.67,1.94-1.23,2.66-3.06,2.66c-0.32,0-0.64-0.05-0.86-0.1v-1.18c0.27,0.06,0.59,0.08,0.74,0.08
			c1.07,0,1.42-0.4,1.79-1.54l0.16-0.45L202.74,90.92z"/>
		<path class="st16" d="M210.5,97.4h1.95v1.95h-1.95V97.4z"/>
		<path class="st16" d="M-66.07,123.46h4.45v1.3h-4.45V123.46z"/>
		<path class="st16" d="M-52.84,124.68v4.67h-1.49v-12.25h3.68c2.37,0,4.21,1.12,4.21,3.76c0,2.59-1.82,3.81-4.34,3.81H-52.84z
			 M-50.77,123.48c1.78,0,2.8-0.86,2.8-2.61c0-1.83-1.02-2.56-2.75-2.56h-2.11v5.17H-50.77z"/>
		<path class="st16" d="M-43.94,117.11h3.76c3.35,0,5.92,1.63,5.92,5.97c0,4.31-2.4,6.27-5.75,6.27h-3.94V117.11z M-40.18,128.07
			c2.59,0,4.37-1.34,4.37-4.95c0-3.43-1.81-4.74-4.27-4.74h-2.37v9.68H-40.18z"/>
		<path class="st16" d="M-29.88,129.35h-1.49v-12.25h7.31v1.33h-5.83v4.42h5.33v1.3h-5.33V129.35z"/>
		<path class="st16" d="M-66.07,153.46h4.45v1.3h-4.45V153.46z"/>
		<path class="st16" d="M-54.32,147.11h7.83v1.33h-6.34v4.08h5.83v1.3h-5.83v4.21h6.42v1.33h-7.91V147.11z"/>
		<path class="st16" d="M-41.84,154.68v4.67h-1.49v-12.25h3.68c2.37,0,4.21,1.12,4.21,3.76c0,2.59-1.82,3.81-4.34,3.81H-41.84z
			 M-39.78,153.48c1.78,0,2.8-0.86,2.8-2.61c0-1.83-1.02-2.56-2.75-2.56h-2.11v5.17H-39.78z"/>
		<path class="st16" d="M-26.42,150.39c-0.14-1.2-0.83-2.27-2.54-2.27c-1.67,0-2.56,0.94-2.56,2.11c0,1.12,0.61,1.76,2.05,2.03
			l1.73,0.3c2.39,0.43,3.22,1.6,3.22,3.35c0,2.24-1.52,3.68-4.45,3.68c-2.83,0-4.45-1.52-4.58-3.68H-32
			c0.18,1.31,1.09,2.48,3.06,2.48c2.18,0,2.9-1.06,2.9-2.35c0-1.06-0.58-1.79-2.08-2.05l-1.71-0.3c-2.4-0.45-3.25-1.73-3.25-3.33
			c0-1.98,1.63-3.42,4.15-3.42c2.59,0,3.94,1.38,4.05,3.46H-26.42z"/>
		<path class="st16" d="M-22.08,150.92h1.97v1.97h-1.97V150.92z M-22.08,159.35v-1.97h1.97v1.97H-22.08z"/>
		<path class="st16" d="M-9.96,159.56c-2.58,0-3.81-1.87-3.81-4.39c0-2.5,1.34-4.47,3.76-4.47c2.53,0,3.52,1.95,3.52,4.08v0.74
			h-5.81c0.1,1.74,0.8,2.93,2.38,2.93c1.41,0,1.78-0.82,1.92-1.31h1.39C-6.9,158.6-8.15,159.56-9.96,159.56z M-7.96,154.3
			c-0.03-1.41-0.59-2.5-2.06-2.5c-1.34,0-2.08,1.06-2.26,2.59h4.32V154.3z"/>
		<path class="st16" d="M-2.45,155l-2.67-4.08h1.7l1.84,2.95h0.03l1.89-2.95H1.9l-2.66,4l2.93,4.43H0.46l-2.1-3.3h-0.05l-2.08,3.3
			h-1.57L-2.45,155z"/>
		<path class="st16" d="M4.06,150.92h1.39v1.41h0.03c0.5-0.9,1.41-1.62,2.69-1.62c1.79,0,3.39,1.1,3.39,4.31
			c0,3.07-1.58,4.55-3.49,4.55c-1.23,0-2.23-0.69-2.54-1.44H5.5v4.24H4.06V150.92z M7.87,158.43c1.5,0,2.24-1.2,2.24-3.41
			c0-1.79-0.53-3.15-2.26-3.15c-1.49,0-2.4,1.26-2.4,2.69v0.9C5.45,157.11,6.27,158.43,7.87,158.43z"/>
		<path class="st16" d="M13.4,155.13c0-2.61,1.44-4.42,3.79-4.42c2.51,0,3.76,1.81,3.76,4.42c0,2.64-1.42,4.43-3.79,4.43
			C14.68,159.56,13.4,157.77,13.4,155.13z M14.89,155.13c0,2.06,0.69,3.31,2.32,3.31c1.57,0,2.26-1.25,2.26-3.31
			c0-2.05-0.67-3.31-2.29-3.31C15.64,151.82,14.89,153.08,14.89,155.13z"/>
		<path class="st16" d="M23.39,150.92h1.36v1.58h0.03c0.38-0.88,1.44-1.75,2.67-1.75h0.14v1.5h-0.27c-1.5,0-2.5,0.86-2.5,2.5v4.59
			h-1.44V150.92z"/>
		<path class="st16" d="M31.82,148.47v2.45h2.08v1.1h-2.08V157c0,0.9,0.37,1.25,1.28,1.25c0.43,0,0.93-0.08,0.93-0.08v1.22
			c0,0-0.59,0.1-1.33,0.1c-1.65,0-2.31-0.8-2.31-2.24v-5.22h-1.54v-1.06h0.26c1.14,0,1.39-0.27,1.39-1.89v-0.61H31.82z"/>
		<path class="st16" d="M44.89,154.17h-2.72v5.19h-1.49v-12.25h4.43c0.9,0,1.7,0.19,2.37,0.54c0.98,0.54,1.58,1.49,1.58,2.9
			c0,2.3-1.5,3.09-2.63,3.38v0.03l2.71,5.39h-1.73L44.89,154.17z M44.99,152.94c1.44,0,2.51-0.69,2.51-2.37
			c0-1.5-1.04-2.24-2.45-2.24h-2.88v4.61H44.99z"/>
		<path class="st16" d="M52.83,153.34c0,3.25,1.38,5.06,3.86,5.06c2.32,0,3.7-1.33,3.7-3.73v-0.18h-3.54v-1.31h4.99v6.18h-1.3v-1.76
			h-0.06c-0.58,1.07-1.84,2.02-3.83,2.02c-3.09,0-5.39-2.02-5.39-6.32c0-4,2.42-6.35,5.59-6.35c2.51,0,4.32,1.26,4.63,3.42h-1.55
			c-0.21-1.39-1.47-2.24-3.07-2.24C54.19,148.12,52.83,150.2,52.83,153.34z"/>
		<path class="st16" d="M65.24,159.35v-12.25h4.82c2.1,0,3.78,0.98,3.78,2.98c0,1.49-0.83,2.42-2.24,2.74v0.03
			c1.54,0.26,2.63,1.47,2.63,2.95c0,2.75-2.07,3.55-4.53,3.55H65.24z M69.79,152.26c1.3,0,2.5-0.46,2.5-2.03
			c0-1.33-0.95-1.92-2.31-1.92h-3.25v3.95H69.79z M69.71,158.15c1.79,0,2.96-0.61,2.96-2.45c0-1.62-1.15-2.21-3.09-2.21h-2.85v4.66
			H69.71z"/>
		<path class="st16" d="M83.47,161.44c-0.91-1.81-2.13-4.11-2.13-7.35c0-3.25,1.22-5.54,2.13-7.35h1.09
			c-0.91,1.95-1.75,4.08-1.75,7.35c0,3.25,0.83,5.38,1.75,7.35H83.47z"/>
		<path class="st16" d="M93.48,159.35h-1.38v-1.39h-0.05c-0.45,0.83-1.36,1.6-2.66,1.6c-1.79,0-3.44-1.12-3.44-4.37
			c0-2.9,1.5-4.48,3.63-4.48c1.26,0,2.08,0.7,2.42,1.49h0.03v-5.46h1.44V159.35z M92.08,154.81c0-1.79-0.94-2.95-2.29-2.95
			c-1.62,0-2.35,1.28-2.35,3.27c0,1.9,0.56,3.3,2.24,3.3c1.49,0,2.4-1.18,2.4-2.72V154.81z"/>
		<path class="st16" d="M96.62,147.45h1.52V149h-1.52V147.45z M96.65,150.92h1.46v8.44h-1.46V150.92z"/>
		<path class="st16" d="M100.73,160.2h1.39c0.16,0.72,0.71,1.18,2.08,1.18c1.6,0,2.4-0.59,2.4-2.45v-1.25h-0.02
			c-0.43,0.83-1.42,1.55-2.69,1.55c-1.76,0-3.38-1.1-3.38-4.23c0-2.79,1.47-4.31,3.55-4.31c1.36,0,2.18,0.75,2.53,1.54h0.03v-1.33
			h1.38v8.23c0,2.37-1.55,3.39-3.84,3.39C102.57,162.54,100.92,161.95,100.73,160.2z M106.63,154.68c0-1.68-0.94-2.83-2.4-2.83
			c-1.52,0-2.24,1.26-2.24,3.17c0,1.86,0.53,3.14,2.31,3.14c1.36,0,2.34-1.18,2.34-2.63V154.68z"/>
		<path class="st16" d="M111.14,147.45h1.52V149h-1.52V147.45z M111.18,150.92h1.46v8.44h-1.46V150.92z"/>
		<path class="st16" d="M117.58,148.47v2.45h2.08v1.1h-2.08V157c0,0.9,0.37,1.25,1.28,1.25c0.43,0,0.93-0.08,0.93-0.08v1.22
			c0,0-0.59,0.1-1.33,0.1c-1.65,0-2.31-0.8-2.31-2.24v-5.22h-1.54v-1.06h0.26c1.14,0,1.39-0.27,1.39-1.89v-0.61H117.58z"/>
		<path class="st16" d="M122.09,153.22c0.03-1.49,1.17-2.51,3.19-2.51c2.1,0,3.12,0.88,3.12,3.14v3.44c0,0.67,0.14,0.94,0.77,0.96
			v1.17h-0.18c-1.34,0-1.79-0.48-1.94-1.49h-0.03c-0.45,0.99-1.46,1.57-2.71,1.57c-1.68,0-2.67-0.91-2.67-2.42
			c0-0.93,0.4-1.7,1.26-2.13c0.88-0.46,2.19-0.63,4.08-0.69v-0.37c0-1.52-0.58-2.11-1.76-2.11c-1.25,0-1.71,0.72-1.76,1.44H122.09z
			 M126.99,155.53v-0.19c-1.82,0.08-2.86,0.22-3.41,0.62c-0.32,0.24-0.46,0.59-0.46,1.04c0,0.86,0.56,1.33,1.47,1.33
			C125.66,158.33,126.99,157.61,126.99,155.53z"/>
		<path class="st16" d="M131.42,146.74h1.44v12.61h-1.44V146.74z"/>
		<path class="st16" d="M136.82,154.09c0-3.26-0.83-5.39-1.75-7.35h1.09c0.91,1.81,2.13,4.1,2.13,7.35c0,3.23-1.22,5.54-2.13,7.35
			h-1.09C135.99,159.47,136.82,157.34,136.82,154.09z"/>
		<path class="st16" d="M145.67,153.22c0.03-1.49,1.17-2.51,3.19-2.51c2.1,0,3.12,0.88,3.12,3.14v3.44c0,0.67,0.14,0.94,0.77,0.96
			v1.17h-0.18c-1.34,0-1.79-0.48-1.94-1.49h-0.03c-0.45,0.99-1.46,1.57-2.71,1.57c-1.68,0-2.67-0.91-2.67-2.42
			c0-0.93,0.4-1.7,1.26-2.13c0.88-0.46,2.19-0.63,4.08-0.69v-0.37c0-1.52-0.58-2.11-1.76-2.11c-1.25,0-1.71,0.72-1.76,1.44H145.67z
			 M150.57,155.53v-0.19c-1.82,0.08-2.86,0.22-3.41,0.62c-0.32,0.24-0.46,0.59-0.46,1.04c0,0.86,0.56,1.33,1.47,1.33
			C149.24,158.33,150.57,157.61,150.57,155.53z"/>
		<path class="st16" d="M160.36,154.15c0-0.61,0-1.28-0.3-1.68c-0.29-0.4-0.77-0.56-1.33-0.56c-1.57,0-2.29,1.01-2.29,2.39v5.06H155
			v-8.44h1.36v1.42h0.03c0.4-0.86,1.38-1.63,2.72-1.63c1.62,0,2.69,0.77,2.69,2.77v5.87h-1.44V154.15z"/>
		<path class="st16" d="M171.66,159.35h-1.38v-1.39h-0.05c-0.45,0.83-1.36,1.6-2.66,1.6c-1.79,0-3.44-1.12-3.44-4.37
			c0-2.9,1.5-4.48,3.63-4.48c1.26,0,2.08,0.7,2.42,1.49h0.03v-5.46h1.44V159.35z M170.25,154.81c0-1.79-0.94-2.95-2.29-2.95
			c-1.62,0-2.35,1.28-2.35,3.27c0,1.9,0.56,3.3,2.24,3.3c1.49,0,2.4-1.18,2.4-2.72V154.81z"/>
		<path class="st16" d="M180.5,153.26c0,3.17,1.41,5.12,3.86,5.12c2.16,0,3.06-1.46,3.22-2.85h1.52c-0.19,2.3-1.97,4.07-4.74,4.07
			c-3.18,0-5.44-2.07-5.44-6.34c0-3.99,2.29-6.34,5.47-6.34c2.08,0,4.43,1.1,4.71,3.84h-1.57c-0.21-1.25-1.17-2.63-3.14-2.63
			C181.88,148.13,180.5,150.2,180.5,153.26z"/>
		<path class="st16" d="M191.96,147.11h2.26l3.1,8.77c0.38,1.07,0.54,1.6,0.54,1.6h0.03c0,0,0.16-0.53,0.54-1.6l3.15-8.77h2.24
			v12.25h-1.52v-10.52h-0.05c0,0-0.19,0.63-0.66,1.92l-3.09,8.6h-1.41l-3.01-8.6c-0.43-1.28-0.66-1.92-0.66-1.92h-0.05v10.52h-1.44
			V147.11z"/>
		<path class="st16" d="M210.17,154.12l-4.32-7.01h1.73l3.31,5.65h0.03l3.44-5.65h1.58l-4.31,6.92v5.33h-1.47V154.12z"/>
		<path class="st16" d="M219.43,159.35h-1.49v-12.25h1.49v6.29l5.73-6.29h1.79l-4.71,5.14l5.04,7.11h-1.79l-4.27-5.99l-1.79,1.97
			V159.35z"/>
		<path class="st16" d="M236.02,161.44c-0.91-1.81-2.13-4.11-2.13-7.35c0-3.25,1.22-5.54,2.13-7.35h1.09
			c-0.91,1.95-1.75,4.08-1.75,7.35c0,3.25,0.83,5.38,1.75,7.35H236.02z"/>
		<path class="st16" d="M239.35,150.92h1.39v1.41h0.03c0.5-0.9,1.41-1.62,2.69-1.62c1.79,0,3.39,1.1,3.39,4.31
			c0,3.07-1.58,4.55-3.49,4.55c-1.23,0-2.23-0.69-2.54-1.44h-0.03v4.24h-1.44V150.92z M243.16,158.43c1.5,0,2.24-1.2,2.24-3.41
			c0-1.79-0.53-3.15-2.26-3.15c-1.49,0-2.4,1.26-2.4,2.69v0.9C240.74,157.11,241.56,158.43,243.16,158.43z"/>
		<path class="st16" d="M249.29,150.92h1.36v1.58h0.03c0.38-0.88,1.44-1.75,2.67-1.75h0.14v1.5h-0.27c-1.5,0-2.5,0.86-2.5,2.5v4.59
			h-1.44V150.92z"/>
		<path class="st16" d="M255.67,147.45h1.52V149h-1.52V147.45z M255.7,150.92h1.46v8.44h-1.46V150.92z"/>
		<path class="st16" d="M265.69,154.15c0-0.61,0-1.28-0.3-1.68c-0.29-0.4-0.77-0.56-1.33-0.56c-1.57,0-2.29,1.01-2.29,2.39v5.06
			h-1.44v-8.44h1.36v1.42h0.03c0.4-0.86,1.38-1.63,2.72-1.63c1.62,0,2.69,0.77,2.69,2.77v5.87h-1.44V154.15z"/>
		<path class="st16" d="M271.99,148.47v2.45h2.08v1.1h-2.08V157c0,0.9,0.37,1.25,1.28,1.25c0.43,0,0.93-0.08,0.93-0.08v1.22
			c0,0-0.59,0.1-1.33,0.1c-1.65,0-2.31-0.8-2.31-2.24v-5.22h-1.54v-1.06h0.26c1.14,0,1.39-0.27,1.39-1.89v-0.61H271.99z"/>
		<path class="st16" d="M277.32,154.09c0-3.26-0.83-5.39-1.75-7.35h1.09c0.91,1.81,2.13,4.1,2.13,7.35c0,3.23-1.22,5.54-2.13,7.35
			h-1.09C276.48,159.47,277.32,157.34,277.32,154.09z"/>
		<path class="st16" d="M285.35,150.92h1.47l1.82,5.43c0.24,0.69,0.42,1.33,0.42,1.33h0.03c0,0,0.18-0.64,0.42-1.33l1.87-5.43h1.38
			l-2.93,8.44h-1.52L285.35,150.92z"/>
		<path class="st16" d="M297.78,159.56c-2.58,0-3.81-1.87-3.81-4.39c0-2.5,1.34-4.47,3.76-4.47c2.53,0,3.52,1.95,3.52,4.08v0.74
			h-5.81c0.1,1.74,0.8,2.93,2.39,2.93c1.41,0,1.78-0.82,1.92-1.31h1.39C300.84,158.6,299.59,159.56,297.78,159.56z M299.78,154.3
			c-0.03-1.41-0.59-2.5-2.06-2.5c-1.34,0-2.08,1.06-2.26,2.59h4.32V154.3z"/>
		<path class="st16" d="M303.6,150.92h1.36v1.58H305c0.38-0.88,1.44-1.75,2.67-1.75h0.14v1.5h-0.27c-1.5,0-2.5,0.86-2.5,2.5v4.59
			h-1.44V150.92z"/>
		<path class="st16" d="M314.02,153.03c-0.08-0.75-0.69-1.23-1.68-1.23s-1.65,0.58-1.65,1.36c0,0.69,0.42,1.01,1.26,1.15l1.3,0.19
			c1.76,0.27,2.4,0.99,2.4,2.45c0,1.7-1.38,2.61-3.3,2.61c-1.75,0-3.19-0.78-3.3-2.59h1.41c0.06,0.66,0.43,1.49,1.92,1.49
			c1.15,0,1.87-0.54,1.87-1.42c0-0.67-0.18-1.04-1.33-1.23l-1.3-0.19c-1.5-0.24-2.3-0.86-2.3-2.34c0-1.49,1.14-2.56,3.06-2.56
			c1.83,0,2.87,0.85,3.01,2.32H314.02z"/>
		<path class="st16" d="M318.12,147.45h1.52V149h-1.52V147.45z M318.15,150.92h1.46v8.44h-1.46V150.92z"/>
		<path class="st16" d="M322.02,155.13c0-2.61,1.44-4.42,3.79-4.42c2.51,0,3.76,1.81,3.76,4.42c0,2.64-1.42,4.43-3.79,4.43
			C323.3,159.56,322.02,157.77,322.02,155.13z M323.51,155.13c0,2.06,0.69,3.31,2.32,3.31c1.57,0,2.26-1.25,2.26-3.31
			c0-2.05-0.67-3.31-2.29-3.31C324.26,151.82,323.51,153.08,323.51,155.13z"/>
		<path class="st16" d="M337.37,154.15c0-0.61,0-1.28-0.3-1.68c-0.29-0.4-0.77-0.56-1.33-0.56c-1.57,0-2.29,1.01-2.29,2.39v5.06H332
			v-8.44h1.36v1.42h0.03c0.4-0.86,1.38-1.63,2.72-1.63c1.62,0,2.69,0.77,2.69,2.77v5.87h-1.44V154.15z"/>
		<path class="st16" d="M346.05,153.03c-0.08-0.75-0.69-1.23-1.68-1.23s-1.65,0.58-1.65,1.36c0,0.69,0.42,1.01,1.26,1.15l1.3,0.19
			c1.76,0.27,2.4,0.99,2.4,2.45c0,1.7-1.38,2.61-3.3,2.61c-1.75,0-3.19-0.78-3.3-2.59h1.41c0.06,0.66,0.43,1.49,1.92,1.49
			c1.15,0,1.87-0.54,1.87-1.42c0-0.67-0.18-1.04-1.33-1.23l-1.3-0.19c-1.5-0.24-2.3-0.86-2.3-2.34c0-1.49,1.14-2.56,3.06-2.56
			c1.83,0,2.87,0.85,3.01,2.32H346.05z"/>
		<path class="st16" d="M349.6,157.4h1.95v1.95h-1.95V157.4z"/>
	</g>
</g>
</svg>
