<?xml version="1.0" encoding="utf-8"?>
<!-- Generator: Adobe Illustrator 24.1.0, SVG Export Plug-In . SVG Version: 6.00 Build 0)  -->
<svg version="1.1" xmlns="http://www.w3.org/2000/svg" xmlns:xlink="http://www.w3.org/1999/xlink" x="0px" y="0px"
	 viewBox="0 0 468 125" style="enable-background:new 0 0 468 125;" xml:space="preserve">
<style type="text/css">
	.st0{display:none;}
	.st1{display:inline;opacity:0.5;fill:#CCCCCC;}
	.st2{fill:url(#SVGID_1_);}
	.st3{fill:url(#SVGID_2_);}
	.st4{fill:url(#SVGID_3_);}
	.st5{fill:url(#SVGID_4_);}
	.st6{fill:url(#SVGID_5_);}
	.st7{fill:url(#SVGID_6_);}
	.st8{fill:url(#SVGID_7_);}
	.st9{fill:url(#SVGID_8_);}
	.st10{fill:url(#SVGID_9_);}
	.st11{fill:url(#SVGID_10_);}
	.st12{fill:#333333;}
	.st13{fill:url(#SVGID_11_);}
	.st14{fill:#3370B8;}
	.st15{fill:#00B2DB;}
	.st16{fill:#2489CA;}
	.st17{fill:#03A0D7;}
</style>
<g id="TEMPLATE__x28_delete_x29_" class="st0">
	<path class="st1" d="M-253-449V551H747V-449H-253z M547,351H-53v-600h600V351z"/>
</g>
<g id="Layer_3">
	<linearGradient id="SVGID_1_" gradientUnits="userSpaceOnUse" x1="40" y1="7.04" x2="40" y2="100.0189">
		<stop  offset="0" style="stop-color:#6FCCDD"/>
		<stop  offset="1" style="stop-color:#0D71BA"/>
	</linearGradient>
	<path class="st2" d="M79.5,55.3v29.1c0,1.1-0.4,2.1-1.2,2.9l-6.2,6.1c-0.7,0.7-1.8,1.1-2.8,1.1H10.8c-1,0-2.1-0.4-2.8-1.1l-6.3-6.1
		c-0.8-0.8-1.2-1.8-1.2-2.9V73.5c0-2.2,1.8-4,4-4h10c2.2,0,4,1.8,4,4v0c0,2.2,1.8,4,4,4h36c2.2,0,4-1.8,4-4v-8c0-2.2-1.8-4-4-4H10.3
		c-0.8,0-1.5-0.2-2.2-0.6l-5.8-3.7c-1.1-0.7-1.8-2-1.8-3.4V36.4l18,1.9v3.2c0,2.2,1.8,4,4,4h46.8c1,0,2,0.4,2.7,1.1l6.2,5.8
		C79,53.1,79.5,54.2,79.5,55.3z"/>
	<linearGradient id="SVGID_2_" gradientUnits="userSpaceOnUse" x1="40" y1="7.04" x2="40" y2="100.0189">
		<stop  offset="0" style="stop-color:#6FCCDD"/>
		<stop  offset="1" style="stop-color:#0D71BA"/>
	</linearGradient>
	<polygon class="st3" points="79.5,15.3 79.5,31.5 62.5,31.5 62.5,23.5 18.5,23.5 18.5,32.3 0.5,30.4 0.5,15.3 9.1,7.5 70.9,7.5 	
		"/>
	<linearGradient id="SVGID_3_" gradientUnits="userSpaceOnUse" x1="128" y1="7.04" x2="128" y2="100.0189">
		<stop  offset="0" style="stop-color:#6FCCDD"/>
		<stop  offset="1" style="stop-color:#0D71BA"/>
	</linearGradient>
	<polygon class="st4" points="167.5,7.5 167.5,23.5 136.5,23.5 136.5,44.9 119.5,43 119.5,23.5 88.5,23.5 88.5,7.5 	"/>
	<linearGradient id="SVGID_4_" gradientUnits="userSpaceOnUse" x1="128" y1="7.04" x2="128" y2="100.0189">
		<stop  offset="0" style="stop-color:#6FCCDD"/>
		<stop  offset="1" style="stop-color:#0D71BA"/>
	</linearGradient>
	<path class="st5" d="M136.5,50.9v38.7c0,2.7-2.2,4.8-4.8,4.8h-7.3c-2.7,0-4.8-2.2-4.8-4.8V49L136.5,50.9z"/>
	<linearGradient id="SVGID_5_" gradientUnits="userSpaceOnUse" x1="185.5" y1="7.04" x2="185.5" y2="100.0189">
		<stop  offset="0" style="stop-color:#6FCCDD"/>
		<stop  offset="1" style="stop-color:#0D71BA"/>
	</linearGradient>
	<path class="st6" d="M194.5,57v33.8c0,2-1.6,3.7-3.7,3.7h-10.7c-2,0-3.7-1.6-3.7-3.7V55.1L194.5,57z"/>
	<linearGradient id="SVGID_6_" gradientUnits="userSpaceOnUse" x1="185.5" y1="7.04" x2="185.5" y2="100.0189">
		<stop  offset="0" style="stop-color:#6FCCDD"/>
		<stop  offset="1" style="stop-color:#0D71BA"/>
	</linearGradient>
	<polygon class="st7" points="194.5,7.5 194.5,51 176.5,49.1 176.5,7.5 	"/>
	<linearGradient id="SVGID_7_" gradientUnits="userSpaceOnUse" x1="215.5" y1="7.04" x2="215.5" y2="100.0189">
		<stop  offset="0" style="stop-color:#6FCCDD"/>
		<stop  offset="1" style="stop-color:#0D71BA"/>
	</linearGradient>
	<polygon class="st8" points="224.5,7.5 224.5,54.2 206.5,52.3 206.5,7.5 	"/>
	<linearGradient id="SVGID_8_" gradientUnits="userSpaceOnUse" x1="244" y1="7.04" x2="244" y2="100.0189">
		<stop  offset="0" style="stop-color:#6FCCDD"/>
		<stop  offset="1" style="stop-color:#0D71BA"/>
	</linearGradient>
	<path class="st9" d="M281.5,82.5v7c0,2.8-2.2,5-5,5h-65c-2.8,0-5-2.2-5-5V58.3l18,1.9v12.3c0,2.8,2.2,5,5,5h47
		C279.3,77.5,281.5,79.7,281.5,82.5z"/>
	<linearGradient id="SVGID_9_" gradientUnits="userSpaceOnUse" x1="328" y1="7.04" x2="328" y2="100.0189">
		<stop  offset="0" style="stop-color:#6FCCDD"/>
		<stop  offset="1" style="stop-color:#0D71BA"/>
	</linearGradient>
	<path class="st10" d="M365.5,82.8v6.3c0,2.9-2.4,5.3-5.3,5.3h-64.3c-2.9,0-5.3-2.4-5.3-5.3V67.2l18,1.9v3.1c0,2.9,2.4,5.3,5.3,5.3
		h46.3C363.1,77.5,365.5,79.9,365.5,82.8z"/>
	<linearGradient id="SVGID_10_" gradientUnits="userSpaceOnUse" x1="299.5" y1="7.04" x2="299.5" y2="100.0189">
		<stop  offset="0" style="stop-color:#6FCCDD"/>
		<stop  offset="1" style="stop-color:#0D71BA"/>
	</linearGradient>
	<polygon class="st11" points="308.5,7.5 308.5,63.1 290.5,61.2 290.5,7.5 	"/>
	<g>
		<path class="st12" d="M27.9,101v1h-5.8c-0.3,0-0.6,0-0.9,0.1c-0.3,0.1-0.5,0.2-0.7,0.3c-0.2,0.1-0.3,0.3-0.4,0.5
			c-0.1,0.2-0.2,0.4-0.3,0.5c-0.1,0.2-0.1,0.4-0.2,0.6c0,0.2-0.1,0.4-0.1,0.6c0,0.2,0,0.3,0,0.5v0.2c0,0.2,0,0.4,0,0.5
			c0,0.2,0,0.3,0.1,0.6c0,0.2,0.1,0.4,0.2,0.6c0.1,0.2,0.2,0.3,0.3,0.5c0.1,0.2,0.3,0.3,0.4,0.5c0.2,0.1,0.4,0.2,0.7,0.3
			c0.3,0.1,0.6,0.1,0.9,0.1h2.5c1.3,0,2.3,0.3,3,0.9c0.8,0.6,1.1,1.5,1.1,2.6v4.2c0,1.1-0.4,2-1.1,2.6c-0.8,0.6-1.8,0.9-3,0.9h-5.8
			v-1h5.8c0.3,0,0.6,0,0.9-0.1c0.3-0.1,0.5-0.2,0.7-0.3c0.2-0.1,0.3-0.3,0.4-0.5c0.1-0.2,0.2-0.4,0.3-0.5c0.1-0.2,0.1-0.4,0.2-0.6
			s0.1-0.4,0.1-0.6c0-0.2,0-0.3,0-0.5v-3.1c0-0.2,0-0.4,0-0.5c0-0.2,0-0.3-0.1-0.6c0-0.2-0.1-0.4-0.2-0.6c-0.1-0.2-0.2-0.3-0.3-0.5
			c-0.1-0.2-0.3-0.3-0.4-0.5c-0.2-0.1-0.4-0.2-0.7-0.3s-0.6-0.1-0.9-0.1h-2.5c-1.3,0-2.3-0.3-3-0.9c-0.8-0.6-1.1-1.5-1.1-2.6v-1.3
			c0-1.1,0.4-2,1.1-2.6c0.8-0.6,1.8-0.9,3-0.9H27.9z"/>
		<path class="st12" d="M36.7,105.9c1.2,0,2.3,0.3,3,1s1.1,1.5,1.1,2.6v6.7c0,1.1-0.4,2-1.1,2.6c-0.8,0.6-1.8,0.9-3,0.9H35
			c-1.3,0-2.3-0.3-3-0.9c-0.8-0.6-1.1-1.5-1.1-2.6v-6.7c0-1.1,0.4-2,1.1-2.6s1.8-1,3-1H36.7z M36.7,106.9H35c-0.3,0-0.6,0-0.9,0.1
			s-0.5,0.2-0.7,0.3c-0.2,0.1-0.3,0.3-0.4,0.5c-0.1,0.2-0.2,0.4-0.3,0.5c-0.1,0.2-0.1,0.4-0.2,0.6c0,0.2-0.1,0.4-0.1,0.6
			c0,0.2,0,0.3,0,0.5v5.6c0,0.2,0,0.4,0,0.5c0,0.2,0,0.3,0.1,0.6c0,0.2,0.1,0.4,0.2,0.6c0.1,0.2,0.2,0.3,0.3,0.5
			c0.1,0.2,0.3,0.3,0.4,0.5c0.2,0.1,0.4,0.2,0.7,0.3c0.3,0.1,0.6,0.1,0.9,0.1h1.7c0.3,0,0.6,0,0.9-0.1c0.3-0.1,0.5-0.2,0.7-0.3
			c0.2-0.1,0.3-0.3,0.4-0.5c0.1-0.2,0.2-0.4,0.3-0.5c0.1-0.2,0.1-0.4,0.2-0.6c0-0.2,0.1-0.4,0.1-0.6c0-0.2,0-0.3,0-0.5V110
			c0-0.2,0-0.4,0-0.5c0-0.1,0-0.3-0.1-0.6c0-0.2-0.1-0.4-0.2-0.6c-0.1-0.2-0.2-0.3-0.3-0.5c-0.1-0.2-0.3-0.3-0.4-0.5
			c-0.2-0.1-0.4-0.2-0.7-0.3C37.3,107,37,106.9,36.7,106.9z"/>
		<path class="st12" d="M48.8,101v1h-1.7c-0.3,0-0.6,0-0.9,0.1c-0.3,0.1-0.5,0.2-0.7,0.3c-0.2,0.1-0.3,0.3-0.4,0.5
			c-0.1,0.2-0.2,0.4-0.3,0.5c-0.1,0.2-0.1,0.4-0.2,0.6c0,0.2-0.1,0.4-0.1,0.6c0,0.2,0,0.3,0,0.5v0.8h2.5v1h-2.5v17.7h-1.7v-17.7
			h-0.8v-1h0.8v-1.4c0-1.1,0.4-2,1.1-2.6c0.8-0.6,1.8-0.9,3-0.9H48.8z"/>
		<path class="st12" d="M53.3,101v4.9h3.3v1h-3.3v8.7c0,0.2,0,0.4,0,0.5c0,0.2,0,0.3,0.1,0.6c0,0.2,0.1,0.4,0.2,0.6
			c0.1,0.2,0.2,0.3,0.3,0.5s0.3,0.3,0.4,0.5c0.2,0.1,0.4,0.2,0.7,0.3c0.3,0.1,0.6,0.1,0.9,0.1h0.8v1h-0.8c-1.2,0-2.3-0.3-3-1
			c-0.8-0.6-1.2-1.5-1.2-2.6v-9.2H50v-1h1.7V101H53.3z"/>
		<path class="st12" d="M74.6,105.9v10.2c0,1.1-0.4,2-1.1,2.6c-0.8,0.6-1.8,0.9-3,0.9h-2.5h-2.5h-2.5c-1.3,0-2.3-0.3-3-0.9
			c-0.8-0.6-1.1-1.5-1.1-2.6v-10.2h1.7v9.7c0,0.2,0,0.4,0,0.5c0,0.2,0,0.3,0.1,0.6c0,0.2,0.1,0.4,0.2,0.6c0.1,0.2,0.2,0.3,0.3,0.5
			c0.1,0.2,0.3,0.3,0.4,0.5c0.2,0.1,0.4,0.2,0.7,0.3c0.3,0.1,0.6,0.1,0.9,0.1h1.3c0.2,0,0.3,0,0.4,0c0.1,0,0.2,0,0.4,0
			c0.2,0,0.3,0,0.4-0.1c0.1,0,0.2-0.1,0.3-0.2c0.1-0.1,0.2-0.2,0.2-0.3c0-0.1,0.1-0.3,0.1-0.4v-11.8h1.7v11.8c0,0.2,0,0.3,0.1,0.4
			c0,0.1,0.1,0.2,0.2,0.3c0.1,0.1,0.2,0.1,0.3,0.2c0.1,0,0.2,0.1,0.4,0.1c0.2,0,0.3,0,0.4,0c0.1,0,0.2,0,0.4,0h1.2
			c0.3,0,0.6,0,0.9-0.1c0.3-0.1,0.5-0.2,0.7-0.3c0.2-0.1,0.3-0.3,0.4-0.5c0.1-0.2,0.2-0.4,0.3-0.5c0.1-0.2,0.1-0.4,0.2-0.6
			c0-0.2,0.1-0.4,0.1-0.6c0-0.2,0-0.3,0-0.5v-9.7H74.6z"/>
		<path class="st12" d="M78.3,106.9v-1h4.2c1.2,0,2.3,0.3,3,1c0.8,0.6,1.1,1.5,1.1,2.6v10.2h-5.8c-1.3,0-2.3-0.3-3-0.9
			c-0.8-0.6-1.1-1.5-1.1-2.6v-1.8c0-1.1,0.4-2,1.1-2.6c0.8-0.6,1.8-0.9,3-0.9H85V110c0-0.2,0-0.4,0-0.5c0-0.2,0-0.3-0.1-0.6
			c0-0.2-0.1-0.4-0.2-0.6s-0.2-0.3-0.3-0.5c-0.1-0.2-0.3-0.3-0.4-0.5c-0.2-0.1-0.4-0.2-0.7-0.3c-0.3-0.1-0.6-0.1-0.9-0.1H78.3z
			 M85,118.7v-6.9h-4.2c-0.3,0-0.6,0-0.9,0.1s-0.5,0.2-0.7,0.3c-0.2,0.1-0.3,0.3-0.4,0.5c-0.1,0.2-0.2,0.4-0.3,0.5
			c-0.1,0.2-0.1,0.4-0.2,0.6c0,0.2-0.1,0.4-0.1,0.6c0,0.2,0,0.3,0,0.5v0.7c0,0.2,0,0.4,0,0.5c0,0.2,0,0.3,0.1,0.6
			c0,0.2,0.1,0.4,0.2,0.6c0.1,0.2,0.2,0.3,0.3,0.5c0.1,0.2,0.3,0.3,0.4,0.5c0.2,0.1,0.4,0.2,0.7,0.3c0.3,0.1,0.6,0.1,0.9,0.1H85z"/>
		<path class="st12" d="M93.8,105.9v1h-0.8c-0.3,0-0.6,0-0.9,0.1c-0.3,0.1-0.5,0.2-0.7,0.3c-0.2,0.1-0.3,0.3-0.4,0.5
			c-0.1,0.2-0.2,0.4-0.3,0.5c-0.1,0.2-0.1,0.4-0.2,0.6c0,0.2-0.1,0.4-0.1,0.6c0,0.2,0,0.3,0,0.5v9.7h-1.7v-13.8H93.8z"/>
		<path class="st12" d="M105,112.3h-8.3v3.3c0,0.2,0,0.4,0,0.5c0,0.2,0,0.3,0.1,0.6c0,0.2,0.1,0.4,0.2,0.6c0.1,0.2,0.2,0.3,0.3,0.5
			c0.1,0.2,0.3,0.3,0.4,0.5c0.2,0.1,0.4,0.2,0.7,0.3c0.3,0.1,0.6,0.1,0.9,0.1h5.4v1h-5.4c-1.3,0-2.3-0.3-3-0.9
			c-0.8-0.6-1.1-1.5-1.1-2.6v-6.7c0-1.1,0.4-2,1.1-2.6c0.8-0.6,1.8-1,3-1h1.7c1.2,0,2.3,0.3,3,1c0.8,0.6,1.1,1.5,1.1,2.6V112.3z
			 M96.7,111.4h6.7V110c0-0.2,0-0.4,0-0.5c0-0.2,0-0.3-0.1-0.6c0-0.2-0.1-0.4-0.2-0.6c-0.1-0.2-0.2-0.3-0.3-0.5
			c-0.1-0.2-0.3-0.3-0.4-0.5c-0.2-0.1-0.4-0.2-0.7-0.3c-0.3-0.1-0.6-0.1-0.9-0.1h-1.7c-0.3,0-0.6,0-0.9,0.1
			c-0.3,0.1-0.5,0.2-0.7,0.3c-0.2,0.1-0.3,0.3-0.4,0.5c-0.1,0.2-0.2,0.4-0.3,0.5c-0.1,0.2-0.1,0.4-0.2,0.6c0,0.2-0.1,0.4-0.1,0.6
			c0,0.2,0,0.3,0,0.5V111.4z"/>
		<path class="st12" d="M127.1,101v1H123v17.7h-1.7V102h-4.2v-1H127.1z"/>
		<path class="st12" d="M135.9,112.3h-8.3v3.3c0,0.2,0,0.4,0,0.5c0,0.2,0,0.3,0.1,0.6c0,0.2,0.1,0.4,0.2,0.6
			c0.1,0.2,0.2,0.3,0.3,0.5c0.1,0.2,0.3,0.3,0.4,0.5c0.2,0.1,0.4,0.2,0.7,0.3c0.3,0.1,0.6,0.1,0.9,0.1h5.4v1h-5.4
			c-1.3,0-2.3-0.3-3-0.9c-0.8-0.6-1.1-1.5-1.1-2.6v-6.7c0-1.1,0.4-2,1.1-2.6c0.8-0.6,1.8-1,3-1h1.7c1.2,0,2.3,0.3,3,1
			c0.8,0.6,1.1,1.5,1.1,2.6V112.3z M127.5,111.4h6.7V110c0-0.2,0-0.4,0-0.5c0-0.2,0-0.3-0.1-0.6c0-0.2-0.1-0.4-0.2-0.6
			c-0.1-0.2-0.2-0.3-0.3-0.5c-0.1-0.2-0.3-0.3-0.4-0.5c-0.2-0.1-0.4-0.2-0.7-0.3c-0.3-0.1-0.6-0.1-0.9-0.1H130c-0.3,0-0.6,0-0.9,0.1
			c-0.3,0.1-0.5,0.2-0.7,0.3c-0.2,0.1-0.3,0.3-0.4,0.5c-0.1,0.2-0.2,0.4-0.3,0.5c-0.1,0.2-0.1,0.4-0.2,0.6c0,0.2-0.1,0.4-0.1,0.6
			c0,0.2,0,0.3,0,0.5V111.4z"/>
		<path class="st12" d="M147.1,105.9v1h-5c-0.3,0-0.6,0-0.9,0.1c-0.3,0-0.5,0.1-0.7,0.2c-0.2,0.1-0.3,0.2-0.4,0.3
			c-0.1,0.1-0.2,0.2-0.3,0.4c-0.1,0.1-0.1,0.3-0.2,0.4c0,0.2-0.1,0.3-0.1,0.5c0,0.1,0,0.3,0,0.5c0,0.2,0,0.3,0,0.5
			c0,0.1,0,0.3,0.1,0.5c0,0.2,0.1,0.4,0.2,0.5s0.2,0.3,0.3,0.4c0.1,0.2,0.3,0.3,0.4,0.4c0.2,0.1,0.4,0.2,0.7,0.2
			c0.3,0.1,0.6,0.1,0.9,0.1h1.7c1.2,0,2.3,0.3,3,1c0.8,0.6,1.2,1.5,1.2,2.6v0.8c0,1.1-0.4,1.9-1.1,2.6c-0.8,0.6-1.8,0.9-3,0.9h-5v-1
			h5c0.5,0,0.9-0.1,1.2-0.2c0.3-0.2,0.6-0.3,0.7-0.5c0.2-0.2,0.3-0.5,0.4-0.8c0.1-0.3,0.1-0.5,0.2-0.7c0-0.2,0-0.4,0-0.6
			c0-2-0.8-3-2.5-3h-1.7c-1.3,0-2.3-0.3-3-0.8c-0.8-0.6-1.1-1.4-1.1-2.5c0-1.1,0.4-2,1.2-2.6c0.8-0.6,1.8-1,3-1H147.1z"/>
		<path class="st12" d="M152.6,101v4.9h3.3v1h-3.3v8.7c0,0.2,0,0.4,0,0.5c0,0.2,0,0.3,0.1,0.6c0,0.2,0.1,0.4,0.2,0.6
			c0.1,0.2,0.2,0.3,0.3,0.5s0.3,0.3,0.4,0.5c0.2,0.1,0.4,0.2,0.7,0.3c0.3,0.1,0.6,0.1,0.9,0.1h0.8v1h-0.8c-1.2,0-2.3-0.3-3-1
			c-0.8-0.6-1.2-1.5-1.2-2.6v-9.2h-1.7v-1h1.7V101H152.6z"/>
		<path class="st12" d="M159.6,101.5v1c0,0.1,0,0.2,0,0.3c0,0.1-0.1,0.1-0.2,0.1c-0.1,0-0.2,0.1-0.4,0.1h-0.4c-0.3,0-0.4,0-0.5-0.1
			c-0.1-0.1-0.1-0.2-0.1-0.4v-1c0-0.1,0-0.1,0-0.2c0,0,0-0.1,0.1-0.1c0-0.1,0.1-0.1,0.2-0.1c0.1,0,0.2,0,0.4,0h0.4
			c0.2,0,0.3,0,0.4,0.1c0.1,0,0.1,0.1,0.2,0.2C159.6,101.3,159.6,101.4,159.6,101.5z M159.6,105.9v9.7c0,0.2,0,0.4,0,0.5
			c0,0.2,0,0.3,0.1,0.6c0,0.2,0.1,0.4,0.2,0.6c0.1,0.2,0.2,0.3,0.3,0.5c0.1,0.2,0.3,0.3,0.4,0.5c0.2,0.1,0.4,0.2,0.7,0.3
			c0.3,0.1,0.6,0.1,0.9,0.1h0.8v1h-0.8c-1.3,0-2.3-0.3-3-0.9c-0.8-0.6-1.1-1.5-1.1-2.6v-10.2H159.6z"/>
		<path class="st12" d="M165.1,105.9h5.9c1.2,0,2.3,0.3,3,1c0.8,0.6,1.1,1.5,1.1,2.6v10.2h-1.7V110c0-0.2,0-0.4,0-0.5
			c0-0.1,0-0.3-0.1-0.6c0-0.2-0.1-0.4-0.2-0.6c-0.1-0.2-0.2-0.3-0.3-0.5c-0.1-0.2-0.3-0.3-0.4-0.5c-0.2-0.1-0.4-0.2-0.7-0.3
			c-0.3-0.1-0.6-0.1-0.9-0.1h-2.5c-0.2,0-0.3,0-0.4,0c-0.1,0-0.2,0-0.4,0c-0.2,0-0.3,0-0.4,0.1c-0.1,0-0.2,0.1-0.3,0.2
			s-0.2,0.2-0.2,0.3c0,0.1-0.1,0.3-0.1,0.4v11.8h-1.7V105.9z"/>
		<path class="st12" d="M183,105.9c1.2,0,2.3,0.3,3,1c0.8,0.6,1.1,1.5,1.1,2.6v11.6c0,1.1-0.4,2-1.1,2.6c-0.8,0.6-1.8,1-3,1h-5.4v-1
			h5.4c0.3,0,0.6,0,0.9-0.1c0.3-0.1,0.5-0.2,0.7-0.3c0.2-0.1,0.3-0.3,0.4-0.5c0.1-0.2,0.2-0.4,0.3-0.5c0.1-0.2,0.1-0.4,0.2-0.6
			c0-0.2,0.1-0.4,0.1-0.6c0-0.2,0-0.3,0-0.5v-0.8h-4.2c-1.3,0-2.3-0.3-3-0.9c-0.8-0.6-1.1-1.5-1.1-2.6v-6.7c0-1.1,0.4-2,1.1-2.6
			s1.8-1,3-1H183z M181.3,106.9c-0.3,0-0.6,0-0.9,0.1c-0.3,0.1-0.5,0.2-0.7,0.3c-0.2,0.1-0.3,0.3-0.4,0.5c-0.1,0.2-0.2,0.4-0.3,0.5
			c-0.1,0.2-0.1,0.4-0.2,0.6c0,0.2-0.1,0.4-0.1,0.6c0,0.2,0,0.3,0,0.5v5.6c0,0.2,0,0.4,0,0.5c0,0.2,0,0.3,0.1,0.6
			c0,0.2,0.1,0.4,0.2,0.6c0.1,0.2,0.2,0.3,0.3,0.5c0.1,0.2,0.3,0.3,0.4,0.5c0.2,0.1,0.4,0.2,0.7,0.3c0.3,0.1,0.6,0.1,0.9,0.1h1.7
			c0.3,0,0.6,0,0.9-0.1c0.3-0.1,0.5-0.2,0.7-0.3c0.2-0.1,0.3-0.3,0.4-0.5c0.1-0.2,0.2-0.4,0.3-0.5c0.1-0.2,0.1-0.4,0.2-0.6
			c0-0.2,0.1-0.4,0.1-0.6c0-0.2,0-0.3,0-0.5V110c0-0.2,0-0.4,0-0.5c0-0.1,0-0.3-0.1-0.6c0-0.2-0.1-0.4-0.2-0.6
			c-0.1-0.2-0.2-0.3-0.3-0.5c-0.1-0.2-0.3-0.3-0.4-0.5c-0.2-0.1-0.4-0.2-0.7-0.3c-0.3-0.1-0.6-0.1-0.9-0.1H181.3z"/>
		<path class="st12" d="M200.9,101v18.7h-1.7V101H200.9z"/>
		<path class="st12" d="M203,105.9h5.9c1.2,0,2.3,0.3,3,1s1.1,1.5,1.1,2.6v10.2h-1.7V110c0-0.2,0-0.4,0-0.5c0-0.1,0-0.3-0.1-0.6
			c0-0.2-0.1-0.4-0.2-0.6c-0.1-0.2-0.2-0.3-0.3-0.5c-0.1-0.2-0.3-0.3-0.4-0.5c-0.2-0.1-0.4-0.2-0.7-0.3s-0.6-0.1-0.9-0.1h-2.5
			c-0.2,0-0.3,0-0.4,0c-0.1,0-0.2,0-0.4,0c-0.2,0-0.3,0-0.4,0.1c-0.1,0-0.2,0.1-0.3,0.2c-0.1,0.1-0.2,0.2-0.2,0.3
			c0,0.1-0.1,0.3-0.1,0.4v11.8H203V105.9z"/>
		<path class="st12" d="M217.6,101v4.9h3.3v1h-3.3v8.7c0,0.2,0,0.4,0,0.5c0,0.2,0,0.3,0.1,0.6c0,0.2,0.1,0.4,0.2,0.6
			c0.1,0.2,0.2,0.3,0.3,0.5c0.1,0.2,0.3,0.3,0.4,0.5c0.2,0.1,0.4,0.2,0.7,0.3c0.3,0.1,0.6,0.1,0.9,0.1h0.8v1h-0.8
			c-1.2,0-2.3-0.3-3-1c-0.8-0.6-1.2-1.5-1.2-2.6v-9.2h-1.7v-1h1.7V101H217.6z"/>
		<path class="st12" d="M232.2,112.3h-8.3v3.3c0,0.2,0,0.4,0,0.5c0,0.2,0,0.3,0.1,0.6c0,0.2,0.1,0.4,0.2,0.6
			c0.1,0.2,0.2,0.3,0.3,0.5c0.1,0.2,0.3,0.3,0.4,0.5c0.2,0.1,0.4,0.2,0.7,0.3c0.3,0.1,0.6,0.1,0.9,0.1h5.4v1h-5.4
			c-1.3,0-2.3-0.3-3-0.9c-0.8-0.6-1.1-1.5-1.1-2.6v-6.7c0-1.1,0.4-2,1.1-2.6c0.8-0.6,1.8-1,3-1h1.7c1.2,0,2.3,0.3,3,1
			c0.8,0.6,1.1,1.5,1.1,2.6V112.3z M223.9,111.4h6.7V110c0-0.2,0-0.4,0-0.5c0-0.2,0-0.3-0.1-0.6c0-0.2-0.1-0.4-0.2-0.6
			c-0.1-0.2-0.2-0.3-0.3-0.5c-0.1-0.2-0.3-0.3-0.4-0.5c-0.2-0.1-0.4-0.2-0.7-0.3c-0.3-0.1-0.6-0.1-0.9-0.1h-1.7
			c-0.3,0-0.6,0-0.9,0.1c-0.3,0.1-0.5,0.2-0.7,0.3c-0.2,0.1-0.3,0.3-0.4,0.5c-0.1,0.2-0.2,0.4-0.3,0.5c-0.1,0.2-0.1,0.4-0.2,0.6
			c0,0.2-0.1,0.4-0.1,0.6c0,0.2,0,0.3,0,0.5V111.4z"/>
		<path class="st12" d="M235.9,101v14.6c0,0.2,0,0.4,0,0.5c0,0.2,0,0.3,0.1,0.6c0,0.2,0.1,0.4,0.2,0.6c0.1,0.2,0.2,0.3,0.3,0.5
			c0.1,0.2,0.3,0.3,0.4,0.5c0.2,0.1,0.4,0.2,0.7,0.3c0.3,0.1,0.6,0.1,0.9,0.1h0.8v1h-0.8c-1.3,0-2.3-0.3-3-0.9
			c-0.8-0.6-1.1-1.5-1.1-2.6V101H235.9z"/>
		<path class="st12" d="M243.4,118.7h7.9v1h-9.6V101h1.7V118.7z"/>
		<path class="st12" d="M255.1,101.5v1c0,0.1,0,0.2,0,0.3c0,0.1-0.1,0.1-0.2,0.1c-0.1,0-0.2,0.1-0.4,0.1h-0.4c-0.3,0-0.4,0-0.5-0.1
			c-0.1-0.1-0.1-0.2-0.1-0.4v-1c0-0.1,0-0.1,0-0.2c0,0,0-0.1,0.1-0.1c0-0.1,0.1-0.1,0.2-0.1c0.1,0,0.2,0,0.4,0h0.4
			c0.2,0,0.3,0,0.4,0.1c0.1,0,0.1,0.1,0.2,0.2C255.1,101.3,255.1,101.4,255.1,101.5z M255.1,105.9v9.7c0,0.2,0,0.4,0,0.5
			c0,0.2,0,0.3,0.1,0.6c0,0.2,0.1,0.4,0.2,0.6c0.1,0.2,0.2,0.3,0.3,0.5c0.1,0.2,0.3,0.3,0.4,0.5c0.2,0.1,0.4,0.2,0.7,0.3
			c0.3,0.1,0.6,0.1,0.9,0.1h0.8v1h-0.8c-1.3,0-2.3-0.3-3-0.9c-0.8-0.6-1.1-1.5-1.1-2.6v-10.2H255.1z"/>
		<path class="st12" d="M265.6,105.9c1.2,0,2.3,0.3,3,1c0.8,0.6,1.1,1.5,1.1,2.6v11.6c0,1.1-0.4,2-1.1,2.6c-0.8,0.6-1.8,1-3,1h-5.4
			v-1h5.4c0.3,0,0.6,0,0.9-0.1c0.3-0.1,0.5-0.2,0.7-0.3c0.2-0.1,0.3-0.3,0.4-0.5c0.1-0.2,0.2-0.4,0.3-0.5c0.1-0.2,0.1-0.4,0.2-0.6
			c0-0.2,0.1-0.4,0.1-0.6c0-0.2,0-0.3,0-0.5v-0.8h-4.2c-1.3,0-2.3-0.3-3-0.9c-0.8-0.6-1.1-1.5-1.1-2.6v-6.7c0-1.1,0.4-2,1.1-2.6
			c0.8-0.6,1.8-1,3-1H265.6z M263.9,106.9c-0.3,0-0.6,0-0.9,0.1s-0.5,0.2-0.7,0.3c-0.2,0.1-0.3,0.3-0.4,0.5
			c-0.1,0.2-0.2,0.4-0.3,0.5c-0.1,0.2-0.1,0.4-0.2,0.6c0,0.2-0.1,0.4-0.1,0.6c0,0.2,0,0.3,0,0.5v5.6c0,0.2,0,0.4,0,0.5
			c0,0.2,0,0.3,0.1,0.6c0,0.2,0.1,0.4,0.2,0.6c0.1,0.2,0.2,0.3,0.3,0.5c0.1,0.2,0.3,0.3,0.4,0.5c0.2,0.1,0.4,0.2,0.7,0.3
			c0.3,0.1,0.6,0.1,0.9,0.1h1.7c0.3,0,0.6,0,0.9-0.1c0.3-0.1,0.5-0.2,0.7-0.3c0.2-0.1,0.3-0.3,0.4-0.5c0.1-0.2,0.2-0.4,0.3-0.5
			c0.1-0.2,0.1-0.4,0.2-0.6c0-0.2,0.1-0.4,0.1-0.6c0-0.2,0-0.3,0-0.5V110c0-0.2,0-0.4,0-0.5c0-0.1,0-0.3-0.1-0.6
			c0-0.2-0.1-0.4-0.2-0.6c-0.1-0.2-0.2-0.3-0.3-0.5c-0.1-0.2-0.3-0.3-0.4-0.5c-0.2-0.1-0.4-0.2-0.7-0.3s-0.6-0.1-0.9-0.1H263.9z"/>
		<path class="st12" d="M281.8,112.3h-8.3v3.3c0,0.2,0,0.4,0,0.5c0,0.2,0,0.3,0.1,0.6c0,0.2,0.1,0.4,0.2,0.6
			c0.1,0.2,0.2,0.3,0.3,0.5c0.1,0.2,0.3,0.3,0.4,0.5c0.2,0.1,0.4,0.2,0.7,0.3c0.3,0.1,0.6,0.1,0.9,0.1h5.4v1H276
			c-1.3,0-2.3-0.3-3-0.9c-0.8-0.6-1.1-1.5-1.1-2.6v-6.7c0-1.1,0.4-2,1.1-2.6c0.8-0.6,1.8-1,3-1h1.7c1.2,0,2.3,0.3,3,1
			c0.8,0.6,1.1,1.5,1.1,2.6V112.3z M273.5,111.4h6.7V110c0-0.2,0-0.4,0-0.5c0-0.2,0-0.3-0.1-0.6c0-0.2-0.1-0.4-0.2-0.6
			c-0.1-0.2-0.2-0.3-0.3-0.5c-0.1-0.2-0.3-0.3-0.4-0.5c-0.2-0.1-0.4-0.2-0.7-0.3c-0.3-0.1-0.6-0.1-0.9-0.1H276c-0.3,0-0.6,0-0.9,0.1
			c-0.3,0.1-0.5,0.2-0.7,0.3c-0.2,0.1-0.3,0.3-0.4,0.5c-0.1,0.2-0.2,0.4-0.3,0.5c-0.1,0.2-0.1,0.4-0.2,0.6c0,0.2-0.1,0.4-0.1,0.6
			c0,0.2,0,0.3,0,0.5V111.4z"/>
		<path class="st12" d="M283.9,105.9h5.9c1.2,0,2.3,0.3,3,1c0.8,0.6,1.1,1.5,1.1,2.6v10.2h-1.7V110c0-0.2,0-0.4,0-0.5
			c0-0.1,0-0.3-0.1-0.6c0-0.2-0.1-0.4-0.2-0.6c-0.1-0.2-0.2-0.3-0.3-0.5c-0.1-0.2-0.3-0.3-0.4-0.5c-0.2-0.1-0.4-0.2-0.7-0.3
			s-0.6-0.1-0.9-0.1h-2.5c-0.2,0-0.3,0-0.4,0c-0.1,0-0.2,0-0.4,0c-0.2,0-0.3,0-0.4,0.1c-0.1,0-0.2,0.1-0.3,0.2
			c-0.1,0.1-0.2,0.2-0.2,0.3c0,0.1-0.1,0.3-0.1,0.4v11.8h-1.7V105.9z"/>
		<path class="st12" d="M298.5,101v4.9h3.3v1h-3.3v8.7c0,0.2,0,0.4,0,0.5s0,0.3,0.1,0.6c0,0.2,0.1,0.4,0.2,0.6
			c0.1,0.2,0.2,0.3,0.3,0.5c0.1,0.2,0.3,0.3,0.4,0.5c0.2,0.1,0.4,0.2,0.7,0.3c0.3,0.1,0.6,0.1,0.9,0.1h0.8v1H301c-1.2,0-2.3-0.3-3-1
			c-0.8-0.6-1.2-1.5-1.2-2.6v-9.2h-1.7v-1h1.7V101H298.5z"/>
		<path class="st12" d="M316,118.7h7.9v1h-9.6V101h1.7V118.7z"/>
		<path class="st12" d="M327.7,106.9v-1h4.2c1.2,0,2.3,0.3,3,1s1.1,1.5,1.1,2.6v10.2h-5.8c-1.3,0-2.3-0.3-3-0.9
			c-0.8-0.6-1.1-1.5-1.1-2.6v-1.8c0-1.1,0.4-2,1.1-2.6c0.8-0.6,1.8-0.9,3-0.9h4.2V110c0-0.2,0-0.4,0-0.5c0-0.2,0-0.3-0.1-0.6
			c0-0.2-0.1-0.4-0.2-0.6c-0.1-0.2-0.2-0.3-0.3-0.5c-0.1-0.2-0.3-0.3-0.4-0.5c-0.2-0.1-0.4-0.2-0.7-0.3c-0.3-0.1-0.6-0.1-0.9-0.1
			H327.7z M334.3,118.7v-6.9h-4.2c-0.3,0-0.6,0-0.9,0.1c-0.3,0.1-0.5,0.2-0.7,0.3c-0.2,0.1-0.3,0.3-0.4,0.5
			c-0.1,0.2-0.2,0.4-0.3,0.5c-0.1,0.2-0.1,0.4-0.2,0.6c0,0.2-0.1,0.4-0.1,0.6c0,0.2,0,0.3,0,0.5v0.7c0,0.2,0,0.4,0,0.5
			c0,0.2,0,0.3,0.1,0.6c0,0.2,0.1,0.4,0.2,0.6c0.1,0.2,0.2,0.3,0.3,0.5c0.1,0.2,0.3,0.3,0.4,0.5c0.2,0.1,0.4,0.2,0.7,0.3
			c0.3,0.1,0.6,0.1,0.9,0.1H334.3z"/>
		<path class="st12" d="M339.8,101v4.9h1.7h2.5c1.2,0,2.3,0.3,3,1c0.8,0.6,1.1,1.5,1.1,2.6v6.7c0,1.1-0.4,2-1.1,2.6
			c-0.8,0.6-1.8,0.9-3,0.9h-1.7c-1.3,0-2.3-0.3-3-0.9c-0.8-0.6-1.1-1.5-1.1-2.6V101H339.8z M339.8,106.9v8.7c0,0.2,0,0.4,0,0.5
			c0,0.2,0,0.3,0.1,0.6c0,0.2,0.1,0.4,0.2,0.6c0.1,0.2,0.2,0.3,0.3,0.5c0.1,0.2,0.3,0.3,0.4,0.5c0.2,0.1,0.4,0.2,0.7,0.3
			c0.3,0.1,0.6,0.1,0.9,0.1h1.7c0.3,0,0.6,0,0.9-0.1c0.3-0.1,0.5-0.2,0.7-0.3c0.2-0.1,0.3-0.3,0.4-0.5c0.1-0.2,0.2-0.4,0.3-0.5
			c0.1-0.2,0.1-0.4,0.2-0.6c0-0.2,0.1-0.4,0.1-0.6c0-0.2,0-0.3,0-0.5V110c0-0.2,0-0.4,0-0.5c0-0.1,0-0.3-0.1-0.6
			c0-0.2-0.1-0.4-0.2-0.6c-0.1-0.2-0.2-0.3-0.3-0.5c-0.1-0.2-0.3-0.3-0.4-0.5c-0.2-0.1-0.4-0.2-0.7-0.3s-0.6-0.1-0.9-0.1H339.8z"/>
	</g>
	<g>
		<radialGradient id="SVGID_11_" cx="417.725" cy="51" r="52.9418" gradientUnits="userSpaceOnUse">
			<stop  offset="0" style="stop-color:#54A4DB"/>
			<stop  offset="1" style="stop-color:#00052A"/>
		</radialGradient>
		<path class="st13" d="M417.7,0.3C389.7,0.3,367,23,367,51c0,12.5,4.6,24,12.1,32.9c9.3,10.9,23.1,17.8,38.6,17.8
			c10.6,0,20.5-3.3,28.6-8.9l5.1-3.8c10.5-9.3,17-22.9,17-38C468.5,23,445.7,0.3,417.7,0.3z"/>
		<g>
			<polygon class="st14" points="397,41.2 390,51 387,37.1 			"/>
			<path class="st14" d="M423.9,45.7l-9.1,24.4c0,0,0,0-0.1,0l-7-16.2L423.9,45.7z"/>
			<polygon class="st15" points="407.8,54 390,51 397,41.2 			"/>
			<polygon class="st16" points="407.8,54 391.1,69 390,51 			"/>
			<polygon class="st14" points="412.5,40.1 407.8,54 397,41.2 			"/>
			<polygon class="st15" points="412.5,40.1 397,41.2 393.5,29.6 			"/>
			<polygon class="st16" points="420.5,30.4 412.5,40.1 409,23.4 			"/>
			<polygon class="st16" points="423.9,45.7 407.8,54 412.5,40.1 			"/>
			<polygon class="st14" points="423.9,45.7 412.5,40.1 420.5,30.4 			"/>
			<polygon class="st15" points="435.5,36.2 423.9,45.7 420.5,30.4 			"/>
			<polygon class="st17" points="435.5,36.2 420.5,30.4 425.9,21 			"/>
			<polygon class="st14" points="439.9,56.1 423.9,45.7 435.5,36.2 			"/>
			<path class="st17" d="M455.1,47.1l-15.2,9l-4.4-19.9L455.1,47C455.1,47,455.1,47,455.1,47.1z"/>
			<polygon class="st14" points="455.3,59.6 428.5,62.2 439.9,56.1 			"/>
			<polygon class="st17" points="451.4,89 446.3,92.8 446.5,80.4 447,81 447,81 			"/>
			<path class="st15" d="M428.5,62.2l-9.4,5.5c0,0,0-0.1-0.1-0.1v0c0-0.2,0.1-0.3,0.1-0.5c0,0-2.8,1.8-4.3,3l9.1-24.4L428.5,62.2z"
				/>
			<polygon class="st16" points="439.9,56.1 428.5,62.2 423.9,45.7 			"/>
			<polygon class="st16" points="446.7,70.3 436.1,77.5 428.5,62.2 			"/>
			<path class="st17" d="M436.1,77.5C436.1,77.5,436.1,77.5,436.1,77.5L436.1,77.5c-0.7-1-1.5-0.9-2.4-1c0,0-3.2-0.6-5.1-2.1
				c0,0-2.1-0.4-4.1-1.6c0,0,0,0,0-0.1c-1-0.6-2.1-1.4-2.7-2.5c0,0-1.6-0.8-2.6-2.5l9.4-5.5L436.1,77.5z"/>
			<path class="st15" d="M445.5,78.8l1,1.5l-0.2,12.4L440,81.6c0,0-1.4-3.1-4-4.1l10.6-7.2c0,0-1.4,4.7-4,3.3L445.5,78.8z"/>
			<path class="st15" d="M455.3,60.2c0,0.9-0.1,2.1-0.4,3.4c0,0.2-0.1,0.5-0.2,0.7c-0.1,0.5-0.3,0.9-0.5,1.3
				c-0.1,0.1-0.2,0.3-0.2,0.4c-0.1,0.2-0.2,0.3-0.3,0.5c-0.1,0.2-0.2,0.3-0.3,0.4c-0.1,0.1-0.2,0.3-0.4,0.4
				c-0.2,0.3-0.5,0.5-0.8,0.7c-0.3,0.2-0.5,0.3-0.8,0.5c-0.3,0.1-0.5,0.3-0.8,0.4c0,0,0,0,0,0c-0.4,0.2-1,0.3-1.4,0.4
				c0,0,0.7,0-0.3,0v0c0,0.1-0.4,0.1-0.7,0.2c-0.1,0-0.1,0-0.2,0c-0.4,0-0.6,0-0.6,0l-0.8,0.9l-18.2-8l26.8-2.6
				C455.3,59.8,455.3,60,455.3,60.2z"/>
			<path class="st15" d="M455.3,59.6l-15.4-3.5l15.2-9c0,0.4,0,0.9-0.1,1.3c0,0-0.1,1.5,0.1,2c0,0-0.1,0.7-0.1,1.4c0,0,0,0.1,0,0.1
				v0.2c0,0,0.3,0.8,0.1,1c0,0.1,0,0.3,0,0.5c0,0.5-0.2,1.2-0.8,1.5c0,0-0.1,0-0.1,0.1c-0.1,0,0.1,0.5,0.5,1.2
				c0.2,0.4,0.4,0.9,0.5,1.6c0.1,0.3,0.1,0.6,0.2,0.9c0,0.1,0,0.2,0,0.3S455.3,59.5,455.3,59.6z"/>
			<path class="st16" d="M455.1,47l-19.6-10.8l11.1-8c0.5,0.5,0.8,1,0.9,1.5c0,0,0.8-0.4,2.1,2.9l1.3,3.3l0,0.1L451,36l0.2,0.6
				c0,0,0.1,0.1,0.1,0.3c0,0,0,0,0,0.1c0.2,0.4,0.5,1,0.6,1.2c0,0,0.1,1.2-0.1,1.6l0.4,1c0,0,2.1,1.3,1.5,3.7
				C453.9,44.4,454.9,45.5,455.1,47z"/>
			<path class="st15" d="M446.6,28.2l-11.1,8L425.9,21c1.3,0,1.7,0.8,1.7,0.8l1.3,0.2l0.1,0l0.2,0l1.1,0.2c0,0,1-0.3,1.8-0.1
				l2.2,0.6c0,0,0.9-0.6,3.4,0.5c0,0,1.3,0.9,1.6,1.9l0.8,0.2c0,0,0.6-0.8,2.2,0C442.1,25.3,445.1,26.6,446.6,28.2z"/>
			<path class="st15" d="M425.9,21l-5.4,9.4l-11.5-7c0.8-0.6,2.6-1.6,5.4-1.6l1.6,0.5c0,0,1.1-1.7,3.5-1.6l1.1,0l0.9,0.2
				c0,0,1.8,0.4,3.6,0.1C425.5,21,425.7,21,425.9,21z"/>
			<path class="st17" d="M412.5,40.1l-19-10.4c0.9-0.5,2.1-0.9,3.4-1.2l3.1-2.3c0,0,0.9-0.9,1.9-0.9c0,0,4.6-0.1,6.5-1.5
				c0,0,0.2-0.2,0.5-0.4L412.5,40.1z"/>
			<path class="st15" d="M414.7,70.2C414.7,70.2,414.7,70.2,414.7,70.2c-0.1,0.2-0.3,0.3-0.4,0.4c-0.1,0.1-0.2,0.2-0.2,0.3
				c0,0,0,0.1,0,0.3c0.1,0.9,0.3,3.7-2.2,4.8c0,0-2.1,1-3.8-0.4l-2-0.1c0,0-4.1-1.5-5.7-3.9l0-0.9l-0.3-0.3l7.6-16.5L414.7,70.2
				C414.7,70.2,414.7,70.2,414.7,70.2z"/>
			<path class="st17" d="M407.8,54l-7.6,16.5l-0.5-0.5c0,0-0.5,0.1-1.2,0.1c-0.5,0-1,0-1.7,0c-0.5,0-1.1-0.1-1.7-0.2
				c-0.4-0.1-0.8-0.1-1.2-0.2l-1.5-0.5l-1.3-0.2L407.8,54z"/>
			<path class="st16" d="M397,41.2l-10-4.2l1-1.3c0,0,0-0.1,0.1-0.2c0.2-0.4,0.6-1.4,0.7-1.8c0,0,0.3-0.5,0.9-1.3
				c0.7-0.8,1.9-1.9,3.8-2.8L397,41.2z"/>
			<path class="st15" d="M391.1,69l-4.5-0.7c0,0-0.2,0-0.4-0.1c0,0-0.1,0-0.2,0c0,0-0.1,0-0.1,0c-0.1-0.1-0.3-0.1-0.4-0.2
				c-0.4-0.2-0.9-0.5-1.1-0.9l-0.4-0.2c0,0-0.8-0.2-1.5-0.8c0,0,0,0,0,0c-0.1-0.1-0.2-0.2-0.2-0.3c0,0-0.1-0.1-0.1-0.1
				c-0.7-0.5-3.7-3.2-2.3-6.3l-0.3-0.2c0,0-0.5-1.1-0.5-2.9v0c0.2,0,0.3-0.3,0.4-0.5c0.3-0.9,0.8-1.9,1.1-2.7c0-0.1,0-0.1,0.1-0.2
				c0.3-0.9,0.5-1.5,0.5-1.5L390,51L391.1,69z"/>
			<path class="st17" d="M390,51l-8.9,0.3c0,0-0.6-1.7,0.1-3.4c0.7-1.7,1-2.1,1-2.1s0.5-2.2,1.4-3.4c0,0-0.1-1,0.6-1.7l2.9-3.8
				L390,51z"/>
		</g>
	</g>
</g>
<g id="Guides" class="st0">
</g>
</svg>
