<?xml version="1.0" encoding="utf-8"?>
<!-- Generator: Adobe Illustrator 24.1.0, SVG Export Plug-In . SVG Version: 6.00 Build 0)  -->
<svg version="1.1" id="Layer_1" xmlns="http://www.w3.org/2000/svg" xmlns:xlink="http://www.w3.org/1999/xlink" x="0px" y="0px"
	 viewBox="0 0 292 371" style="enable-background:new 0 0 292 371;" xml:space="preserve">
<style type="text/css">
	.st0{display:none;fill:#3FA9F5;}
	.st1{enable-background:new    ;}
	.st2{fill:#FFFFFF;}
</style>
<rect id="XMLID_1_" x="-66.8" y="-24" class="st0" width="341.4" height="471.2"/>
<g class="st1">
	<path d="M20.3,362.3c0,1,0.5,1.4,1,1.4s0.7-0.6,0.7-1.2v-3h1l0.8,9c-1.1,0-2.7,1.1-3.3,2.1c-0.5-0.5-1.4-0.7-2.3-0.9
		c-0.8-0.1-1.8-0.2-2.6-0.2c-1.5,0-3.5,0.3-4.4,1.1c-0.5-1-2.7-2-3.8-2l1.4-8.9h0.9v2.9c0,0.9,0.3,1.2,0.8,1.2s0.5-0.7,0.5-1.2
		v-24.8c0-4.3-0.8-6.9-1.8-7.8c0.7-0.5,1.1-1.4,1.1-2.1s-0.5-1.7-1.2-2.3c1-1,1.9-3,1.9-8.1v-25c0-2-0.6-2.6-1.6-2.6
		c-1.1,0-1.8,0.6-1.8,2.6v10.4c0,4.3,0.3,5,1,6.1c-3.2,1.2-3.9,2.7-3.9,9.5H3.9c0-6-0.7-8.1-3.8-9.5c0.6-0.6,1.4-2.3,1.4-6.1v-16.7
		c1.1,0,2.7-1,3.3-2c0.3,0.3,0.8,0.6,1.4,0.8s1.1,0.3,1.7,0.3c1.1,0,2.4-0.6,2.9-1.1c0.5,0.3,1.1,0.6,1.9,0.8
		c0.8,0.2,1.8,0.3,2.8,0.3c2.6,0,4.5-0.5,5.3-1.1c0.3,0.2,0.8,0.6,1.2,0.8c0.6,0.2,1.1,0.3,1.7,0.3c1.1,0,2.5-0.5,3-1.1
		c0.6,1,2.1,2,3.3,2v16.7c0,3.8,0.8,5.5,1.4,6.1c-3.2,1.4-3.8,3.5-3.8,9.5h-0.8c0-6.8-0.8-8.2-3.9-9.5c0.7-1.1,1-1.8,1-6.1v-10.4
		c0-2-0.7-2.6-1.8-2.6c-1,0-1.6,0.6-1.6,2.6v25c0,5.1,1,7.3,1.7,8c-0.7,0.3-1.2,1.4-1.2,2.1c0,0.9,0.5,1.8,1.2,2.1
		c-1,0.7-1.7,2.9-1.7,8V362.3z"/>
	<path d="M43.9,361.6c0,1.4,0.5,1.7,0.9,1.7c0.5,0,0.8-0.5,0.8-1.5v-3.5h0.8l1.1,10c-1,0-2.8,1.4-2.9,2.1c-0.5-0.2-1.1-0.6-2-0.8
		c-0.8-0.2-1.8-0.3-2.9-0.3c-2.3,0-3.7,0.5-4.4,1.1c-0.3-0.9-2.7-2.4-3.9-2.4l1-10.1h0.9v3.7c0,1.2,0.2,1.7,0.8,1.7s0.7-0.6,0.7-1.8
		v-22.9c0-5.7-0.7-8.2-1.8-9.4c0.9-0.7,1.4-1.4,1.4-2.3c0-1-0.6-2-1.4-2.7c0.9-0.9,1.8-2.9,1.8-10.3v-21.9c0-1.6-0.1-1.8-0.6-1.8
		c-0.6,0-0.7,0.6-0.7,1.6v3.2h-1l-0.8-9.7c1,0,2.7-0.9,3-1.5c0.6,0.2,1.2,0.6,2,0.8c0.9,0.2,1.8,0.3,2.8,0.3c1.9,0,3.9-0.6,4.8-1.1
		c0.5,0.7,2.6,1.7,3.7,1.7l-1.6,9.6h-0.8v-3.7c0-1-0.2-1.4-0.8-1.4c-0.8,0-1,0.7-1,2.8V318c0,5,1.2,6.5,4.1,6.5c3,0,4.3-2.3,4.3-6.5
		v-26.4c0-1-0.1-1.2-0.7-1.2c-0.3,0-0.6,0.1-0.6,1.4l-0.1,4.1H50l-0.7-10.1c1.2,0,2.9-1,3.3-1.6c0.3,0.2,0.8,0.5,1.5,0.7
		s1.7,0.5,2.8,0.5c2.4,0,3.8-0.5,4.6-1.1c0.5,0.9,2,2,3,2l-0.9,9.4h-1v-3.7c0-1-0.2-1.2-0.6-1.2c-0.3,0-0.6,0.2-0.6,1.2v22.4
		c0,8.1,0.8,9.7,2.4,10.6c-0.9,0.7-1.2,1.6-1.2,2.5c0,1,0.5,2,1.2,2.4c-1.2,0.8-2.4,2.7-2.4,9.1v23.3c0,1.6,0.3,1.8,0.8,1.8
		c0.5,0,0.7-0.3,0.7-1.8v-3.4h0.9l1,9.7c-1,0-3,1-3.5,2.1c-0.5-0.3-1.1-0.7-2-0.8c-0.8-0.2-1.7-0.3-2.7-0.3c-1.9,0-3.6,0.5-4.3,1.1
		c-0.3-0.9-2.6-2.1-3.8-2.1l1.5-9.9h0.8v3.6c0,1.6,0.3,1.7,0.7,1.7c0.5,0,0.8-0.1,0.8-1.7v-26.1c0-5.6-2.1-6.5-4.3-6.5
		c-2.5,0-4.1,1.1-4.1,6.5V361.6z"/>
	<path d="M79.1,361.5c0,2.7,0.9,3.5,3.3,3.5c2.1,0,2.8-0.8,2.8-5.7v-8.1c0-2.6-0.1-4.8-0.8-6.2c3-1.2,3.9-2.3,3.9-9.2h0.8
		c0,7.4,0.8,8,3.9,9.5c-0.8,1-1.2,3.2-1.2,6v10c0,5.5,0.2,6.2,1,7.1c-0.9,0.2-2.7,1.2-3,1.9c-0.6-0.2-1-0.5-1.6-0.6
		c-0.6-0.1-1.1-0.2-1.8-0.2c-1.5,0-2.4,0.3-3.2,0.6c-0.9,0.2-1.8,0.6-3.5,0.6c-1.4,0-2.5-0.5-3.6-0.7c-1.1-0.2-2.5-0.5-3.8-0.5
		c-1,0-2,0.3-2.8,1.1c-0.5-1-2.3-2.1-3.4-2.4l1-10.1h1v3.6c0,1.4,0.1,1.8,0.7,1.8s0.8-0.5,0.8-1.7v-21.6c0-7.3-1.2-10-2-11.2
		c0.8-0.5,1.4-1.5,1.4-2.3c0-0.7-0.6-1.6-1.4-2.3c1-1,2-3.8,2-9v-23.3c0-0.9-0.1-1.2-0.6-1.2c-0.6,0-0.8,0.3-0.9,1.2v3.7h-0.9
		l-1-9.7c1.5-0.1,2.7-0.9,3.5-2c0.5,0.3,1,0.6,1.8,0.8s1.8,0.3,2.7,0.3c1.8,0,3-0.3,4.1-0.7c1-0.3,1.8-0.5,2.6-0.5
		c1.4,0,2.3,0.2,3.2,0.5c0.9,0.2,1.8,0.7,3.2,0.7c0.8,0,1.9-0.6,2.7-1.1c0.3,0.9,1.8,1.9,2.9,2c-0.7,0.6-1,2.1-1,5.4v10.8
		c0,2.9,0.1,4.8,0.8,6.1c-3.2,1.4-3.7,2.8-3.7,9.2H88c0-6.2-0.8-7.9-3.9-9.2c0.8-1,1.1-2.5,1.1-6.2v-6.9c0-3.9-0.9-5.6-3-5.6
		c-1.9,0-3,1.2-3,5.7v22.4c0,5,0.8,5.4,2,5.4c0.8,0,1.4-1,1.4-1.7c0-0.9-0.2-1.2-0.5-1.8c-0.2-0.7-0.5-1.6-0.5-2.5
		c0-1.8,1.9-3.2,2.9-3c-0.3,0.6-0.5,1.1-0.5,1.8c0,0.7,0.5,1.4,1.6,2.5c0.6,0.6,1.4,1.9,1.4,3c0,1.2-0.6,2.4-1.8,3.2l2.5,2.1
		l-2.6,1.9c1.1,0.9,1.9,2,1.9,3.6c0,1.4-0.6,2.3-1.4,3.2c-1.5,1.4-2.1,2-2.1,2.8c0,0.7,0.2,1.4,0.7,1.9c-1.4,0.2-2.8-0.9-2.8-2.9
		c0-1.1,0.3-2.1,0.7-2.9c0.3-0.7,0.5-1.2,0.5-2.1c0-1-0.9-1.7-1.6-1.7c-1.8,0-1.8,1.5-1.8,7.8V361.5z"/>
	<path d="M138.1,338.8c0.1-6.4-0.9-9-1.6-9.7c0.5-0.5,1-1.2,1-2.3c0-0.7-0.1-1.7-1-2.3c0.6-0.7,1.6-3.6,1.6-8.3v-11.7h-0.6
		l-1.6,13.6c-0.3,2.7-0.2,5.6,0,6.3c-0.8,0.5-1.4,1.4-1.4,2.1c0,0.9,0.5,2.1,1.2,2.5c-0.7,0.8-1.1,3.2-1.7,7.8l-3.5,31.6
		c-0.8,0-1.9,1-2.4,2.1c-0.6-1.1-1.9-2.1-2.6-2.1l-3.4-30.4c-0.8-7-1.2-8.2-1.7-8.9c0.7-0.6,1-1.4,1-2.3c0-0.9-0.6-1.7-1.2-2.4
		c0.3-0.7,0.3-1.8-0.1-6.2l-1.4-13.8h-0.7v11.9c0,5.4,1.1,7.6,1.6,8.1c-0.6,0.6-0.9,1.4-0.9,2.3c0,1,0.2,1.6,1,2.3
		c-0.9,1.2-1.7,6.4-1.7,11.5v21.9c0,1.2,0.3,1.5,0.9,1.5c0.6,0,0.8-0.1,0.8-1.2v-3.7h0.9l1.6,9.5c-1.2,0-2.8,0.9-3.3,2.1
		c-0.2-0.3-0.7-0.7-1.4-0.8c-0.7-0.2-1.4-0.3-2.1-0.3c-1.2,0-2.6,0.6-3.2,1.1c-0.6-0.9-2.6-2-3.7-2l1-9.9h0.9v4.1
		c0,0.9,0.2,1.1,0.7,1.1c0.6,0,0.7-0.1,0.7-1.4v-24.6c0-6.5-1-8-1.8-8.8c0.8-0.7,1.1-1.2,1.1-2.3c0-1-0.2-1.6-1.2-2.3
		c0.8-0.7,1.9-2.3,1.9-8.5v-22.8c0-2.3-0.2-2.6-0.7-2.6c-0.6,0-0.9,0.6-0.9,1.7v3h-1l-0.8-9.5c1.4,0,3.4-1.2,3.8-1.9
		c0.5,0.2,1.1,0.6,2,0.8c0.8,0.2,1.8,0.3,2.6,0.3c1.8,0,3.9-0.7,4.7-1.1c0.6,0.8,2.6,1.6,4.2,1.6l3.4,33h0.7l3.5-33
		c1.5,0,3.6-0.9,4.2-1.6c0.5,0.2,1.2,0.6,2.1,0.8c0.9,0.2,1.9,0.3,2.5,0.3c1.5,0,3.9-0.5,4.8-1.1c0.3,0.9,2,1.9,3.3,1.9l-0.9,9.7
		h-0.8v-3.2c0-1-0.1-1.5-0.7-1.5c-0.5,0-0.7,0.8-0.7,2V316c0,6.2,1.1,8.1,1.8,8.6c-0.7,0.5-1,1.5-1,2.3c0,0.7,0.5,1.7,1.4,2.3
		c-0.9,0.6-2.1,2.6-2.1,10.3v23.4c0,0.8,0.2,1,0.8,1s0.9-0.3,0.9-0.9v-4.1h0.8l1.2,9.6c-1.2,0-2.9,0.8-3.2,2.1
		c-0.5-0.5-1.2-0.7-2-0.9c-0.9-0.1-1.8-0.2-2.8-0.2c-1.8,0-3.8,0.3-4.8,1.1c-0.3-1-2.5-2.3-3.7-2.3l1-9.4h0.8v3.5
		c0,1.1,0.3,1.5,0.8,1.5c0.6,0,0.9-0.7,0.9-2.4V338.8z"/>
	<path d="M155.7,337.3c0-5.9-0.9-7.3-1.7-8c0.7-0.5,1.2-1.4,1.2-2.1c0-0.9-0.5-1.9-1.2-2.3c0.8-1.1,1.7-2.7,1.7-8v-24.1
		c0-1.5-0.2-1.9-0.7-1.9c-0.6,0-0.7,0.6-0.8,1.9v2.9h-0.8l-1-9.7c0.9,0.1,3.2-1,3.6-1.9c0.5,0.3,1,0.6,1.8,0.8
		c0.7,0.2,1.6,0.3,2.5,0.3c1.9,0,3.6-0.5,4.4-1.1c0.5,1.1,2.4,2.1,3.5,2l-1.2,10.3h-0.8v-4.3c0-1-0.2-1.4-0.7-1.4
		c-0.5,0-0.6,0.5-0.6,1.6v24.6c0,5.6,0.9,7.1,1.8,8c-0.8,0.3-1.2,1.4-1.2,2.3c0,0.9,0.6,1.7,1.2,2.1c-1,1-1.8,3.3-1.8,8v23.8
		c0,2.1,0.2,2.5,0.7,2.5c0.6,0,0.7-0.5,0.7-1.4v-2.8h1l0.6,9c-1.1-0.1-2.9,1.1-3.5,2.1c-0.5-0.3-0.9-0.7-1.7-0.8
		c-0.7-0.2-1.5-0.3-2.7-0.3c-2.4,0-3.3,0.5-4.3,1.1c-0.8-1.2-2.4-2.3-3.5-2.5l1.1-9.4h0.9v3.5c0,1.2,0.1,1.6,0.8,1.6
		c0.5,0,0.7-0.6,0.7-2.4V337.3z"/>
	<path d="M177.4,357.7c0,5.9,1.6,7.2,3.5,7.2c3.2,0,4.2-2.3,4.2-6.1c0-8.9-2.8-17.8-5.4-23.4c-1.5-3.3-2.6-4.5-3.8-4.8
		c0.6-0.9,0.6-2.3,0.3-2.9c-0.5-0.9-1.4-1.6-2.4-1.8c0.6-1.4,0.7-3.5-0.6-7.1c-1.4-4.1-3.7-13.4-3.7-21.8c0-6.8,3.4-12.8,10.9-12.8
		c1.4,0,2.4,0.3,3.5,0.6c1,0.2,2,0.6,3.2,0.6c0.9,0,1.9-0.7,2.4-1.1c0.6,1.5,2,2.3,3.3,2.1c-0.6,0.9-0.9,3.7-0.9,6.1v9.4
		c0,3.9,0.5,5.7,1.4,6.9c-2.8,1.1-3.7,2.7-3.7,9.4h-0.9c0-7-0.8-8.1-3.7-9.4c0.8-1.4,1.1-2.7,1.1-7.1v-6.1c0-3.8-1.8-5.7-4.3-5.7
		c-2.3,0-3.2,1.9-3.2,5c0,4.4,1.5,12.4,2.3,15.3c1.6,5.9,4.7,13.5,7.7,14.9c-0.8,0.8-1,2.1-0.7,2.8c0.3,0.8,1.4,1.2,2.3,1.2
		c-0.7,1.4-1,3.8,0.7,8.7c1.2,3.7,3.3,12.2,3.3,18.4c0,7.1-3.4,14.7-11.6,14.7c-1.8,0-3.2-0.2-4.3-0.6s-2.1-0.6-3.2-0.6
		c-1,0-1.5,0.5-2.1,1.1c-0.7-1.2-1.7-2-3.3-2.4c0.7-0.9,1.1-2.3,1.1-6v-12.1c0-3-0.5-5.2-1.1-6.1c3-0.9,4.1-2,4.1-8.7h0.8
		c0,6.4,1.2,7.8,3.8,8.7c-0.6,0.8-0.8,2.6-0.8,6.1V357.7z"/>
	<path d="M213.1,362.3c0,1,0.5,1.4,1,1.4s0.7-0.6,0.7-1.2v-3h1l0.8,9c-1.1,0-2.7,1.1-3.3,2.1c-0.5-0.5-1.4-0.7-2.3-0.9
		c-0.8-0.1-1.8-0.2-2.6-0.2c-1.5,0-3.5,0.3-4.4,1.1c-0.5-1-2.7-2-3.8-2l1.4-8.9h0.9v2.9c0,0.9,0.3,1.2,0.8,1.2
		c0.5,0,0.5-0.7,0.5-1.2v-24.8c0-4.3-0.8-6.9-1.8-7.8c0.7-0.5,1.1-1.4,1.1-2.1s-0.5-1.7-1.2-2.3c1-1,1.9-3,1.9-8.1v-25
		c0-2-0.6-2.6-1.6-2.6c-1.1,0-1.8,0.6-1.8,2.6v10.4c0,4.3,0.3,5,1,6.1c-3.2,1.2-3.9,2.7-3.9,9.5h-0.8c0-6-0.7-8.1-3.8-9.5
		c0.6-0.6,1.4-2.3,1.4-6.1v-16.7c1.1,0,2.7-1,3.3-2c0.3,0.3,0.8,0.6,1.4,0.8s1.1,0.3,1.7,0.3c1.1,0,2.4-0.6,2.9-1.1
		c0.5,0.3,1.1,0.6,1.9,0.8c0.8,0.2,1.8,0.3,2.8,0.3c2.6,0,4.5-0.5,5.3-1.1c0.3,0.2,0.8,0.6,1.2,0.8c0.6,0.2,1.1,0.3,1.7,0.3
		c1.1,0,2.5-0.5,3-1.1c0.6,1,2.1,2,3.3,2v16.7c0,3.8,0.8,5.5,1.4,6.1c-3.2,1.4-3.8,3.5-3.8,9.5h-0.8c0-6.8-0.8-8.2-3.9-9.5
		c0.7-1.1,1-1.8,1-6.1v-10.4c0-2-0.7-2.6-1.8-2.6c-1,0-1.6,0.6-1.6,2.6v25c0,5.1,1,7.3,1.7,8c-0.7,0.3-1.2,1.4-1.2,2.1
		c0,0.9,0.5,1.8,1.2,2.1c-1,0.7-1.7,2.9-1.7,8V362.3z"/>
	<path d="M227.5,337.3c0-5.9-0.9-7.3-1.7-8c0.7-0.5,1.2-1.4,1.2-2.1c0-0.9-0.5-1.9-1.2-2.3c0.8-1.1,1.7-2.7,1.7-8v-24.1
		c0-1.5-0.2-1.9-0.7-1.9c-0.6,0-0.7,0.6-0.8,1.9v2.9h-0.8l-1-9.7c0.9,0.1,3.2-1,3.6-1.9c0.5,0.3,1,0.6,1.8,0.8
		c0.7,0.2,1.6,0.3,2.5,0.3c1.9,0,3.6-0.5,4.4-1.1c0.5,1.1,2.4,2.1,3.5,2l-1.2,10.3H238v-4.3c0-1-0.2-1.4-0.7-1.4
		c-0.5,0-0.6,0.5-0.6,1.6v24.6c0,5.6,0.9,7.1,1.8,8c-0.8,0.3-1.2,1.4-1.2,2.3c0,0.9,0.6,1.7,1.2,2.1c-1,1-1.8,3.3-1.8,8v23.8
		c0,2.1,0.2,2.5,0.7,2.5c0.6,0,0.7-0.5,0.7-1.4v-2.8h1l0.6,9c-1.1-0.1-2.9,1.1-3.5,2.1c-0.5-0.3-0.9-0.7-1.7-0.8
		c-0.7-0.2-1.5-0.3-2.7-0.3c-2.4,0-3.3,0.5-4.3,1.1c-0.8-1.2-2.4-2.3-3.5-2.5l1.1-9.4h0.9v3.5c0,1.2,0.1,1.6,0.8,1.6
		c0.5,0,0.7-0.6,0.7-2.4V337.3z"/>
	<path d="M253.2,315.7c0,6.5,0.9,8,1.8,8.9c-1,0.6-1.5,1.6-1.5,2.5c0,0.9,0.5,1.8,1.5,2.6c-1.4,1.2-1.8,4.7-1.8,10.3v20.8
		c0,2.9,1.1,4.3,2.9,4.3c1.8,0,2.8-1.4,2.8-4.3V350c0-2.8-0.3-4.3-0.9-5c2.8-1.2,3.7-1.8,3.7-9.2h0.8c0,6.8,1,7.9,3.8,9.2
		c-0.6,0.8-0.8,1.9-0.8,5v8.2c0,7.7-2.6,12.3-10.5,12.3c-6.9,0-10.9-3.2-10.9-13.4v-17.2c0-5.2-0.5-8.8-1.8-10.3
		c1.1-0.8,1.5-1.8,1.5-2.6c0-0.7-0.5-1.8-1.5-2.5c1.2-1,1.8-4.1,1.8-8.9v-16.1c0-12.8,4.8-15.4,10.4-15.4c1.2,0,2.5,0.2,3.5,0.7
		s2.1,0.8,3.2,0.8c1.1,0,1.6-0.2,2.1-0.8c0.3,1.2,1.6,1.9,2.8,1.9c-0.6,0.9-1,3.7-1,6.9v9c0,3.7,0.6,5.6,1.2,6.3
		c-2.9,0.9-3.7,2.6-3.7,8.5h-0.9c0-6.4-1.5-7.6-3.8-8.6c0.7-1.5,1-4.1,1-6.2v-8.1c0-2.6-0.6-4.5-2.9-4.5c-2,0-2.7,1.7-2.7,4.5
		L253.2,315.7z"/>
	<path d="M275.4,357.7c0,5.9,1.6,7.2,3.5,7.2c3.2,0,4.2-2.3,4.2-6.1c0-8.9-2.8-17.8-5.4-23.4c-1.5-3.3-2.6-4.5-3.8-4.8
		c0.6-0.9,0.6-2.3,0.3-2.9c-0.5-0.9-1.4-1.6-2.4-1.8c0.6-1.4,0.7-3.5-0.6-7.1c-1.4-4.1-3.7-13.4-3.7-21.8c0-6.8,3.4-12.8,10.9-12.8
		c1.4,0,2.4,0.3,3.5,0.6c1,0.2,2,0.6,3.2,0.6c0.9,0,1.9-0.7,2.4-1.1c0.6,1.5,2,2.3,3.3,2.1c-0.6,0.9-0.9,3.7-0.9,6.1v9.4
		c0,3.9,0.5,5.7,1.4,6.9c-2.8,1.1-3.7,2.7-3.7,9.4h-0.9c0-7-0.8-8.1-3.7-9.4c0.8-1.4,1.1-2.7,1.1-7.1v-6.1c0-3.8-1.8-5.7-4.3-5.7
		c-2.3,0-3.2,1.9-3.2,5c0,4.4,1.5,12.4,2.3,15.3c1.6,5.9,4.7,13.5,7.7,14.9c-0.8,0.8-1,2.1-0.7,2.8c0.3,0.8,1.4,1.2,2.3,1.2
		c-0.7,1.4-1,3.8,0.7,8.7c1.2,3.7,3.3,12.2,3.3,18.4c0,7.1-3.4,14.7-11.6,14.7c-1.8,0-3.2-0.2-4.3-0.6s-2.1-0.6-3.2-0.6
		c-1,0-1.5,0.5-2.1,1.1c-0.7-1.2-1.7-2-3.3-2.4c0.7-0.9,1.1-2.3,1.1-6v-12.1c0-3-0.5-5.2-1.1-6.1c3-0.9,4.1-2,4.1-8.7h0.8
		c0,6.4,1.2,7.8,3.8,8.7c-0.6,0.8-0.8,2.6-0.8,6.1V357.7z"/>
</g>
<g>
	<path id="XMLID_14_" d="M238.9,83c-1.7,1.1-5.9,3.3-11,5.4c1.1,5,1.7,10.2,2.2,15.5c0.5,4.5,1.9,9,3.5,13.3
		c2.9,7.8,1.9,15.5-0.7,23c-3.5,10.4-7.5,20.6-10.9,31c-0.7,2.1-0.4,4.7,0.1,6.9c1.3,5.8-0.1,10.5-5.2,15c0.3-1.8,0.5-2.7,0.6-3.5
		c-1.3-0.6-2.4-1.1-4.1-2c0.4,5-1.8,10.2,2.9,14.2c7.2,6.2,10.2,15.3,15.2,23c-16.2,10.4-29.9,17.9-39.4,22.8
		c-10.6,5.5-47.6,24.6-51.5,18.9c-0.5-0.7-0.1-1.3,0.3-3.9c1.6-9.1-0.8-19.8-1.3-20.4c-4.4-4.5-7.6-9.7-10.3-15.4
		c-0.5-1.1-3.1-1.9-4.5-1.6c-3.6,0.7-7,2.7-10.6,3.1c-6.9,0.7-14,1.5-20.8,0.7c-8.1-1-11.9-7.4-10.1-15.4c0.9-4,0.8-7.3-2-10.2
		c-2.5-2.6-3-5.4-0.5-9c-5.1,0.2-6.5-2.7-7-6.6c-0.3-1.8-1.2-3.5-1.7-5.3c-0.8-3.5-2.8-5.2-6.4-6c-7.8-1.8-10-7.4-5.5-14
		c3.7-5.5,7.8-10.7,11.7-16c2.3-3,3.1-5.3,2.6-7.7c-5.7,1.9-12.1,2.4-18,2.4c-4-0.1-9.7-2.5-11.3-5.6c-1.3-2.4,1.5-8.6,4.2-11.2
		c6.5-6.2,13.8-12.2,21.2-17.4c1.6-1.1,2.6-1.9,3.1-3.9l0,0c0.1,0,0.3,0,0.3-0.3c0.1-0.5,0.1-0.8,0.1-1.4s-0.2-1.1-0.3-1.8
		c-3.2-12.6-6-25.1-9.2-37.7c-0.7-2.7-1.2-4.9-1.5-7c-0.3-2.3-0.3-4.3,0-6c0.9-4.6,4.3-7.5,11.6-11.8c0.6-0.4,1.3-0.7,1.9-1.1
		c0.9-0.5,1.8-1,2.7-1.4c1.2-0.6,2.4-1.2,3.6-1.8c0.7-0.4,1.5-0.7,2.2-1.1c9.4-5,18.8-10,28.2-15c-0.3-0.8,20.9-12.3,32.3-15.1
		C160.9-2.1,172,3.7,180.3,17c3.1,4.9,6.2,9.8,9,14.9s5.3,10.4,8.3,15.4c0.9,1.5,1.9,3.1,2.9,4.6c3,4.3,7.8,9.7,13.1,9.8
		c14.8,0.4,32.2,9.8,32.9,10.1C249.6,73.1,241.7,81.2,238.9,83z"/>
	<path id="XMLID_4_" class="st2" d="M66.6,54.8l11.7,50.3c0,0,33.7-6.9,37.7-9.1L93,31C93,31,64,40,66.6,54.8z"/>
	<path id="XMLID_2_" class="st2" d="M76.7,103.9l0.8,3.7c4.5-0.8,8.9-1.3,13.3-2.5c2.8-0.7,22.6-5.5,25.5-6.2
		c0.2-0.1,0.5-0.1,0.8-0.2c0,0-74.3,26.9-68.1,37.8c0,0-1.5-2.2,0.1-6.2c1.1-2.9,2.7-5.2,12.1-12.8c2.3-1.9,4.2-3.4,5.6-4.4
		c1.5-1.3,2.9-2.2,3.7-2.7c2.3-1.5,3.5-2,4.7-3.4C76.2,105.7,76.3,104.7,76.7,103.9z"/>
	<path id="XMLID_5_" class="st2" d="M73.1,147.9l-11,15.3c-0.9,1.2-1.7,2.3-2.1,3.8c-0.9,3.1,0.7,5.7,3.3,7.3c1.4,0.9,3,1.2,4.6,1.6
		c0,0,3.4-3.2,7.1-3.9s4.5-5.5-2-4.8c0,0-6.1,3-6.6,6.5c0,0-7.5-1.5-4-7.7C65.9,159.7,73.1,147.9,73.1,147.9z"/>
	<path id="XMLID_7_" class="st2" d="M70.1,176.7c0,0,3.6,2.5,4.1,6.9l2.1,7.4c0,0,3.2-2.1,7.1-2.4c0,0-1.5-1-3.5-0.6
		C78,188.3,75.7,176.3,70.1,176.7z"/>
	<path id="XMLID_8_" class="st2" d="M86.2,199.6c0,0-2.2,2-4.3,2.4c0,0,2.3,1.7,2.9,3.4s1.1,3.7,0.6,6.3s-0.8,3.8-0.8,3.8
		s-0.2,1.4,0.1,1.8c0.2,0.4,1.2-6.3,3.6-8c2.3-1.7,0.8-4.6,0.6-4.6c-0.2,0-1.2-2.6-5.4-2.5C83.4,202.3,86,200.5,86.2,199.6z"/>
	<g id="XMLID_6_">
		<path class="st2" d="M94.7,180.6c-1.6-0.5-3.2-1.4-4.5-2.5s-2.5-2.4-3.5-3.9c-1-1.4-1.8-3-2.4-4.6s-1.1-3.3-1.2-5l2.6,4.3
			c0.9,1.4,1.8,2.8,2.7,4.1c0.9,1.3,1.9,2.6,2.9,3.9C92.3,178.2,93.5,179.3,94.7,180.6z"/>
	</g>
	<g id="XMLID_11_">
		<path class="st2" d="M100,185.2c0.7-0.3,1.4-0.2,2.1,0.2c0.7,0.3,1.3,1,1.5,1.9c0.2,0.8,0,1.6-0.4,2.3c-0.2,0.3-0.4,0.6-0.7,0.8
			c-0.3,0.2-0.5,0.4-0.9,0.6c0-0.4,0-0.7,0-1s0-0.6,0-0.9c0-0.5,0-1-0.1-1.3s-0.2-0.7-0.5-1.1C100.9,186.2,100.5,185.8,100,185.2z"
			/>
	</g>
	<path id="XMLID_13_" class="st2" d="M136.6,233.2c-2.4-4.5-2.6-8.2-2.6-8.2c3.9-1.3,6.8-5.8,6.8-5.8c-3.5,2.6-13.7,5-12.7,5
		s2.5,1.7,2.5,1.7s5.9,12.2,11.3,15L136.6,233.2z"/>
	<path id="XMLID_9_" class="st2" d="M84.7,141.6c0,0,7.5,1.1,17.1-2.8c0,0-2.1,3.4-7.8,4.7S84.7,141.6,84.7,141.6z"/>
	<g id="XMLID_12_">
		<path class="st2" d="M84.7,145.9c0.8,0.1,1.6,0.3,2.4,0.4c0.8,0.1,1.6,0.2,2.4,0.2c1.6,0,3.3,0,4.8-0.3c1.6-0.3,3.1-0.8,4.5-1.6
			l1-0.6c0.3-0.2,0.6-0.5,0.9-0.8l0.5-0.4c0.1-0.1,0.3-0.3,0.4-0.4c0.3-0.3,0.6-0.6,0.8-0.9c-0.9,1.4-2,2.7-3.4,3.6
			c-1.4,0.9-3,1.5-4.7,1.8s-3.4,0.3-5,0.1C87.9,146.8,86.2,146.5,84.7,145.9z"/>
	</g>
	<path id="XMLID_16_" class="st2" d="M48.9,136.3c0.9,0.5,1.7,1.2,2.7,1.7c4,2,8.6,1.5,12.9,1c2.1-0.2,4.3-0.5,6.4-0.9
		c1.6-0.3,3.4-0.7,4.8-1.6c0.1-0.1,0.2-0.1,0.3-0.2c3.4-2.7-1.1,8.2-2.8,10.6c1.2-1.6,2.3-3.4,3.2-5.2c1-2.1,1.9-4.4,2.6-6.6
		c0-0.1,0-0.2,0-0.2c-0.1-0.1-0.1-0.1-0.2-0.1c-1.5,0-3.2,0.8-4.5,1.3c-6.1,2.2-12.7,2.3-19,1.7C53,137.6,50.8,137.3,48.9,136.3z"/>
	<path id="XMLID_15_" class="st2" d="M86.3,224.4c1.8,2.1,4.4,3.1,7.1,3.5c1.5,0.2,3.1,0.1,4.6,0.1s3,0,4.4,0.1c2.5,0,5.1,0,7.6-0.3
		c2.8-0.3,5.7-0.8,8.3-1.8c-2.3,0-4.7,0-7,0c-4,0-8,0-11.9,0c-1.6,0-3.3,0.2-4.9-0.1c-0.9-0.2-1.7-0.4-2.5-0.6
		c-2.3-0.7-4.6-1.6-6.4-3.1c-0.3-0.2-0.8-0.5-0.9-0.8C84.7,221.3,85.9,223.9,86.3,224.4z"/>
	<path id="XMLID_19_" class="st2" d="M141.9,243.2c0,0,2.8,15.2,0,22.2c0,0,5.3,2.3,19-4.3c0,0-12.5,1.4-14.9,1
		C146,262,145.4,247.5,141.9,243.2z"/>
</g>
</svg>
