<?xml version="1.0" encoding="utf-8"?>
<!-- Generator: Adobe Illustrator 24.1.0, SVG Export Plug-In . SVG Version: 6.00 Build 0)  -->
<svg version="1.1" xmlns="http://www.w3.org/2000/svg" xmlns:xlink="http://www.w3.org/1999/xlink" x="0px" y="0px"
	 viewBox="0 0 336.6 356.3" style="enable-background:new 0 0 336.6 356.3;" xml:space="preserve">
<style type="text/css">
	.st0{fill-rule:evenodd;clip-rule:evenodd;fill:#ED2079;}
	.st1{fill-rule:evenodd;clip-rule:evenodd;fill:#F2F2F2;}
	.st2{fill:#ED2079;}
	.st3{display:none;}
	.st4{display:inline;}
	.st5{clip-path:url(#SVGID_2_);}
	.st6{clip-path:url(#SVGID_4_);fill:#565656;}
	.st7{display:inline;opacity:0.5;fill:#CCCCCC;}
	.st8{clip-path:url(#SVGID_6_);}
	.st9{clip-path:url(#SVGID_8_);fill:#565656;}
	.st10{fill:#555655;}
	.st11{fill:#999999;}
	.st12{fill:#989898;}
</style>
<g id="Your_design">
	<g id="Regal_Vector_Pack_14">
		<path d="M149.3,187.9c5.4,7.9,6.9,15.8,7.1,21.7c-0.7-1.9-1.8-3.7-3.5-5.3c-5.5-5.3-21.3-15.2-26.7-30.6
			c-2.4-7.8-2.5-17.7,3.5-28.8c15-27.4,15.8-27.7,3.4-50.9c0,0,4.2,11.9,3.4,17.3c0,0-0.6-6.8-7.4-14.4
			c-6.8-7.6-19.5-28.3-23.2-54.3c0,0-1.9,6.2-2.8,15.2C91,26.8,85,0,85,0c-5.4,18.7-5.3,36.1-2.1,51.7C79,40.4,75,24.7,73.5,5.2
			c0,0-2.2,24.4,5.1,49.1c-8.4-15.4-13.2-27.1-13.2-27.1c-3.1,21.1,0,38.3,6.4,52.3c-6.9-9.2-15-21.9-22.1-38.2
			c0,0,4.8,19.4,16.8,38.7c-10.6-11.4-17-20.4-17-20.4c-0.2,19.7,5.2,34,13.2,44.6c-8.4-7.7-18.2-18.4-28-32.6
			c0,0,8.9,19.3,25.2,36.4c-13.3-7.4-21.8-14-21.8-14c2.8,18,10.7,29.3,20.7,36.7C49,125.8,37.3,118.9,25,109
			c0,0,12.6,14.1,31.3,25.3c-14.6-3.1-24.3-6.6-24.3-6.6c5.1,13.4,13.3,21.2,22.9,25.8c-9.1-1.9-19.5-4.8-30.8-9.2
			c0,0,15.2,9.1,35.4,14.4c-16.4,0.9-28.1,0.1-28.1,0.1c7.1,10.1,16.1,15.2,25.8,17.5c-9.4-0.2-20.4-1.2-32.6-3.5
			c0,0,17,6.3,38.1,7.8c-15.3,3.8-26.4,5.3-26.4,5.3c10.4,8.8,22,11.4,33.5,10.9c-10.1,2.1-22.4,3.7-36.6,3.9c0,0,15.5,2.4,34.5,0.5
			c-12.3,5-21.3,7.6-21.3,7.6c11.2,5.9,22.2,7.1,32.5,5.5c-8.1,3.4-18.6,6.9-31.2,9.3c0,0,16.9-0.3,34.6-6.7
			c-11.9,7.1-21.1,10.9-21.1,10.9c13.1,4.6,24.5,4.1,34.4,0.8c-7,3.7-17.1,8.1-30.3,11.2c0,0,16.4-0.9,31.9-8.3
			c-9.5,8.1-17.3,12.4-17.3,12.4c13.1,3.3,23.5,2,31.8-2.1c-5.4,4.1-12.4,8.6-20.9,12.8c0,0,12.8-3.8,25.2-12.3
			c-7.4,10.3-14.4,15.8-14.4,15.8c13.8,2.7,23.3-0.1,29.9-6c-3.9,5.1-9,10.7-15.3,16.5c0,0,9.3-5.9,18.1-15.7
			c-4.3,11.9-9.2,18.4-9.2,18.4c13.9,1.9,21.7-2.7,25.9-11c-1.8,6.6-4.6,14.5-9,23.1c0,0,6.1-8.2,10.7-19.9
			c-0.9,12.7-3.2,20-3.3,20.3c2-0.2,5.7-1,9.2-3.8c-1.7,23.7-10.5,35.2-10.5,35.2c17.5-20.4,18.9-40.4,18.9-40.4
			c0,16.7-5.7,30.8-5.7,30.8C196.5,233.5,149.3,187.9,149.3,187.9z"/>
		<path d="M207.1,187.9c-5.4,7.9-6.9,15.8-7.1,21.7c0.7-1.9,1.8-3.7,3.5-5.3c5.5-5.3,21.3-15.2,26.7-30.6c2.4-7.8,2.5-17.7-3.5-28.8
			c-15-27.4-15.8-27.7-3.4-50.9c0,0-4.2,11.9-3.4,17.3c0,0,0.6-6.8,7.4-14.4c6.8-7.6,19.5-28.3,23.2-54.3c0,0,1.9,6.2,2.8,15.2
			C265.3,26.8,271.4,0,271.4,0c5.4,18.7,5.3,36.1,2.2,51.7c3.9-11.3,7.9-26.9,9.4-46.4c0,0,2.2,24.4-5.1,49.1
			c8.4-15.4,13.2-27.1,13.2-27.1c3.1,21.1,0,38.3-6.4,52.3c6.9-9.2,15-21.9,22.1-38.2c0,0-4.8,19.4-16.8,38.7
			c10.6-11.4,17-20.4,17-20.4c0.2,19.7-5.2,34-13.2,44.6c8.4-7.7,18.2-18.4,28-32.6c0,0-8.9,19.3-25.2,36.4
			c13.3-7.4,21.8-14,21.8-14c-2.8,18-10.7,29.3-20.7,36.7c9.8-4.9,21.4-11.8,33.8-21.7c0,0-12.6,14.1-31.3,25.3
			c14.6-3.1,24.3-6.6,24.3-6.6c-5.1,13.4-13.3,21.2-22.9,25.8c9.1-1.9,19.5-4.8,30.8-9.2c0,0-15.2,9.1-35.4,14.4
			c16.4,0.9,28.1,0.1,28.1,0.1c-7.1,10.1-16.1,15.2-25.8,17.5c9.4-0.2,20.4-1.2,32.6-3.5c0,0-17,6.3-38.1,7.8
			c15.3,3.8,26.4,5.3,26.4,5.3c-10.4,8.8-22,11.4-33.5,10.9c10.1,2.1,22.4,3.7,36.6,3.9c0,0-15.5,2.4-34.5,0.5
			c12.4,5,21.3,7.6,21.3,7.6c-11.2,5.9-22.2,7.1-32.5,5.5c8.1,3.4,18.6,6.9,31.2,9.3c0,0-16.9-0.3-34.6-6.7
			c11.9,7.1,21.1,10.9,21.1,10.9c-13.1,4.6-24.5,4.1-34.4,0.8c7,3.7,17.1,8.1,30.3,11.2c0,0-16.4-0.9-31.8-8.3
			c9.5,8.1,17.3,12.4,17.3,12.4c-13.1,3.3-23.5,2-31.8-2.1c5.4,4.1,12.4,8.6,20.9,12.8c0,0-12.8-3.8-25.2-12.3
			c7.4,10.3,14.4,15.8,14.4,15.8c-13.8,2.7-23.3-0.1-29.9-6c3.9,5.1,9,10.7,15.3,16.5c0,0-9.3-5.9-18.1-15.7
			c4.3,11.9,9.2,18.4,9.2,18.4c-13.9,1.9-21.7-2.7-25.9-11c1.8,6.6,4.6,14.5,9,23.1c0,0-6.1-8.2-10.7-19.9c0.9,12.7,3.2,20,3.3,20.3
			c-2-0.2-5.7-1-9.2-3.8c1.7,23.7,10.5,35.2,10.5,35.2c-17.5-20.4-18.9-40.4-18.9-40.4c0,16.7,5.7,30.8,5.7,30.8
			C159.9,233.5,207.1,187.9,207.1,187.9z"/>
	</g>
	<polygon points="247.6,75.5 251.3,47.9 209.2,42.3 209.2,42.3 205.9,41.8 205.5,41.8 205.5,41.8 157.7,35.4 157.7,35.4 101.3,27.8 
		97.6,55.4 109.6,57 101.2,119.6 133.5,124 141.9,61.3 146.7,62 138.3,124.6 194.8,132.2 240.6,138.4 244.3,110.8 229.3,108.8 
		230,103.4 242.8,105.2 246.4,78.4 233.6,76.7 234,73.7 	"/>
	<path d="M278.6,119.1l0.2,5.9c-1.3-1.1-2.8-2.1-4.5-3.1c-5-2.7-11.1-3.9-18.2-3.6c-5.3,0.2-10,1.3-14.1,3.3
		c-4.3,2.1-7.7,4.9-10.1,8.5l-0.4-9.2l-39.2,1.5l-7,0.3l-39.8,1.6l0.4,9.9c-0.1-0.2-0.2-0.3-0.3-0.5c-3.2-4.2-7.4-6.8-12.3-7.7
		c-3.9-0.7-10.8-0.8-21-0.4l-15.8,0.6l-4.7,0.2l-41.5,1.6l0.3,6.4c-2.3-2.1-5.3-3.6-9.1-4.5c-3.6-0.9-8.4-1.2-14.6-1l-26.7,1l3.6,91
		l32.5-1.3L34.9,188c5.2-0.2,9.3-1.2,12.8-2.9c1.8-0.9,3.3-2,4.7-3.2l1.5,37.2l41.5-1.6l6.1-0.2l47.7-1.9l4-0.2l28.5-1.1l-1.3-33.2
		l7.2-0.3l1.3,33.2l47.6-1.9l-0.3-7.1c1.7,1.8,3.8,3.3,6.2,4.5c4.9,2.5,10.9,3.6,18,3.3c6.9-0.3,12.9-2.1,17.7-5.5
		c5-3.5,8.2-7.7,9.6-12.5c1.2-4.1,1.6-10.5,1.3-19.4l-0.4-9.1l-28,1.1l0-0.9l28-1.1l-0.5-13.5c-0.1-1.8-0.2-3.5-0.3-5.1l4.1-0.2
		l2.5,63.2l32.5-1.3l-2.5-63.2l12.2-0.5l-1.1-27.8L278.6,119.1z M83.8,154.6l9-0.4l0.1,3l-9,0.4L83.8,154.6z M85.2,190l-0.2-5.4
		l9-0.4l0.2,5.4L85.2,190z M147.1,168.7c0-0.1,0.1-0.1,0.1-0.2l0,0.3C147.2,168.9,147.2,168.8,147.1,168.7z M179.2,153.8l-0.1-3
		l7.2-0.3l0.1,3L179.2,153.8z M218.9,149.3l8.5-0.3c0,0.9,0,1.9,0.1,3l-8.4,0.3L218.9,149.3z M220.1,179.3l8.4-0.3
		c0.1,1.9,0.2,3.7,0.4,5.4l-8.6,0.3L220.1,179.3z"/>
	<g id="Dot_Pattern_Vector_Pack_11">
		<path class="st0" d="M145,48.4c0.2-1.3,0.8-1.9,1.2-2.8c0.3-0.2,0.6-0.5,0.9-0.7l1.1-8.2l-44.5-6l-2.1,15.7l12.1,1.6l-1.3,9.6
			c1.1,0.2,1.8,1.3,1.7,2.4c-0.1,1.4-1.2,1.9-2.3,1.8l-1.5,11.1c0.2,0.1,0.4,0.1,0.6,0.2c1.1,0.9,1.9,2,2.2,3.3c0,1-0.2,2.2-0.6,3.1
			c-0.8,1.1-1.9,1.9-3.4,2.1l-3.9,29.1l12.4,1.7c0.5-0.3,1.2-0.4,2-0.2c0-0.1,0.1-0.1,0.2-0.1c0.7,0.2,1.2,0.5,1.6,0.9l4.2,0.6
			l4.1-30.3c-0.5,0.5-1.1,1-1.8,1.4c-1,0.5-2.8,0.6-4.4-0.4c-0.5-0.5-1-1.1-1.4-1.9c-0.5-1-0.6-2.8,0.4-4.4c1-0.9,1.9-1.9,3.7-1.7
			c0.9-0.3,1.8,0.4,2.6,0.7c0.6,0.6,1.1,1.3,1.5,2.2c0,0,0,0.1,0,0.1L134,51c-0.1,0-0.1,0.1-0.2,0.1c-3.5,0.4-5.7-1.9-6.4-4.3
			c-0.1-1.3,0.2-2.8,0.8-4c1.3-1.2,2.5-2.6,4.8-2.3c0.9-0.3,1.9,0.5,2.7,0.7c2,1.5,3.3,4.4,1.6,7.5c-0.8,1-1.9,1.7-3.1,2.2l11.9,1.6
			l0-0.1C145.4,51.3,144.8,50.1,145,48.4z M120.5,43.2c-0.9,3.2-3,4.6-6.3,4.4c-3.1-0.9-4.4-3-4.3-6.1c0.2-0.7,0.5-1.3,0.7-1.9
			c1.3-1.4,2.6-2.7,5.1-2.4c0-0.1,0.1-0.1,0.2-0.1c0.8,0.2,1.4,0.5,2.1,0.7C119.6,39,120.7,40.7,120.5,43.2z M124.1,98
			c-0.2,1-0.7,1.3-1.5,1.3c-1-0.2-1.3-0.7-1.3-1.5C121.4,95.9,124.3,96.3,124.1,98z M130,63.1c-0.1,0.6-0.5,0.8-1.1,0.6
			c0-0.2-0.1-0.3-0.2-0.4C128.6,62.3,130,62.3,130,63.1z"/>
		<path class="st0" d="M198,56.5l1.7-12.8L179.3,41l-3.8,28l-6.1-0.8l1.6-12c-0.2,0.2-0.4,0.4-0.7,0.6c-1,0.7-2.9,1.3-5,0.5
			c-0.3-0.1-0.5-0.6-0.9-0.5c-0.9-0.9-1.5-1.8-2-2.9c-0.2-1.2,0.2-3.2,0.8-4.3c1.1-0.9,2.1-2.1,3.9-2c0-0.1,0.1-0.1,0.2-0.1
			c1.3,0.2,2.3,0.5,3.2,0.9c0.5,0.5,0.9,1.1,1.3,1.7l1.3-9.8l-20.4-2.7l-0.9,6.8c0.4,0.2,0.8,0.4,1.1,0.5c0.9,0.7,1.5,1.7,2,2.6
			c0.5,1.6,0,3.9-1,5.2c-0.9,0.7-1.8,1.3-2.9,1.7c-0.2,0-0.4,0-0.6,0L149,65.9c0,0.1,0.1,0.1,0.1,0.2c0,0.6-0.1,1.1-0.3,1.5
			l-1.8,13.8c0.7,1,0.9,2.3,0.5,3.9c-0.3,0.8-0.8,1.4-1.3,1.9l-3.8,28.6l20.4,2.7l4.4-32.9l6.1,0.8l-4.4,32.9l20.4,2.7l1-7.2
			c-1.2-0.8-1.9-2.3-1.8-4c0.2-0.8,0.7-1.4,1-2c0.6-0.3,1.1-0.7,1.7-0.9l1.5-10.9c-0.7-0.8-1.1-1.8-1.2-3c0.1-1.6,0.8-2.4,1.4-3.2
			c0.2-0.1,0.5-0.3,0.7-0.4l4-29.7c-0.2-0.7-0.2-1.4-0.2-2.2C197.4,57.6,197.6,57,198,56.5z M159.8,108.1c-1,0.5-2.3,0.9-3.8,0.4
			c-0.9-0.3-1.5-1-2.1-1.5c-0.5-1.1-0.9-2.2-0.3-4.1c0.4-0.6,0.9-1.1,1.3-1.7c0.8-0.2,1.3-0.8,2.4-0.7c0-0.1,0.1-0.1,0.2-0.1
			c1.8,0.1,2.6,1,3.5,1.8c0.3,0.8,0.6,1.5,0.7,2.4C161.5,106.5,160.6,107.3,159.8,108.1z M165,88.1c-0.7,2.5-2.4,3.6-5,3.4
			c-3.1-0.7-4.4-4.1-2.5-6.9c1-0.7,1.8-1.7,3.5-1.4c0-0.1,0.1-0.1,0.2-0.1C164,83.6,165.2,85.4,165,88.1z M163.7,73.4
			c-2.3-0.5-3.2-2-3-4.1c0.1-1.2,0.8-1.6,1.2-2.3c0.7-0.3,1.3-0.8,2.2-0.7c0.1-0.2,0.4-0.1,0.6,0c2.2,0.5,3.2,2,3,4.1
			C167.2,72.6,165.8,73.6,163.7,73.4z M179,108.8c-0.7,2.5-2.4,3.6-5,3.4c-3.1-0.7-4.4-4.1-2.5-6.9c1-0.7,1.8-1.7,3.5-1.4
			c0-0.1,0.1-0.1,0.2-0.1C178.1,104.4,179.2,106.1,179,108.8z M182.4,91.4c-0.7,2.5-2.4,3.6-5,3.4c-3.1-0.7-4.4-4.1-2.5-6.9
			c1-0.7,1.8-1.7,3.5-1.4c0-0.1,0.1-0.1,0.2-0.1C181.4,87,182.6,88.7,182.4,91.4z M185.1,74.9c-1,1.7-2.5,2.7-5.2,1.9
			c-1.7-1-2.7-2.5-1.9-5.2c0.3-0.4,0.6-0.8,0.9-1.3c0.7-0.4,1.3-0.9,2.4-0.8c0-0.1,0.1-0.1,0.2-0.1
			C184.7,69.8,185.9,71.7,185.1,74.9z M189.1,58.9c-0.4,0.3-0.8,0.8-1.3,1.2c-1,0.7-2.9,1.3-5,0.5c-0.3-0.1-0.5-0.6-0.9-0.5
			c-0.9-0.9-1.5-1.8-2-2.9c-0.2-1.2,0.2-3.2,0.8-4.3c1.1-0.9,2.1-2.1,3.9-2c0-0.1,0.1-0.1,0.2-0.1c1.3,0.2,2.3,0.5,3.2,0.9
			c0.9,0.9,1.5,1.8,2,2.9C190.2,55.8,189.8,57.8,189.1,58.9z"/>
		<path class="st0" d="M223.1,126.6l9.6,1.3l2.1-15.7l-15-2l2.3-17.2l12.7,1.7l2-14.9l-12.7-1.7l2-14.9L232,64
			c0.6-1.5,1.7-2.4,2.9-3.2c1,0,1.5-0.6,2.8-0.3c0-0.1,0.1-0.1,0.2-0.1c0.8,0.2,1.4,0.5,2.1,0.7c0.1,0.1,0.2,0.1,0.3,0.2l1.3-9.8
			c-1.3,0.3-3.1-0.2-3.8-1.2c-0.3-0.4-0.5-1-0.5-1.6l-29.4-4L206.4,56c0.8,1,1.3,2.3,1.1,4c-0.4,1.5-1.1,2.6-2.1,3.3l-8,59.8l7.6,1
			l18-0.7L223.1,126.6z M227.7,118.2c-0.1,0.6-0.5,0.8-1.1,0.6c0-0.2-0.1-0.3-0.3-0.4C226.2,117.4,227.6,117.4,227.7,118.2z
			 M234.4,83.3c-0.1,0.6-0.5,0.8-1.1,0.6c0-0.2-0.1-0.3-0.3-0.4C233,82.4,234.4,82.5,234.4,83.3z M216.6,58.3
			c0.8-0.4,1.6-0.8,2.6-0.9c0.1,0,0.2,0,0.3,0.1c0-0.1,0.1-0.1,0.2-0.1c0.8,0.1,1.5,0.3,2.3,0.4c0.1,0.3,0.5,0.4,0.9,0.5
			c1.2,1.1,2,2.4,2.2,4.1c-0.2,0.8-0.3,1.6-0.5,2.5c-0.5,0.8-1.2,1.6-1.9,2.2c-0.6,0.2-1.4,0.8-2.2,0.8c-0.2,0-0.5,0.1-0.5,0.1
			c-2,0-3.8-1.2-4.7-2.3c-0.4-0.8-0.7-1.7-0.9-2.7C214.6,60.5,215.5,59.2,216.6,58.3z M211,116.9c-1.7,1-4.3-0.4-3.6-2.6
			c0.4-1,1-1.7,2.1-1.7c0.9-0.4,1.7,0.5,2.2,0.9c0.1,0.5,0.4,0.9,0.3,1.5C211.9,116.1,211.3,116.3,211,116.9z M217.3,98.2
			c-0.8,2.5-2.4,3.6-5,3.5c-2.6-0.7-3.8-2.4-3.7-5c0.3-1.4,1.1-2.2,1.9-3c0.9-0.3,1.5-0.9,2.8-0.6c0-0.1,0.1-0.1,0.2-0.1
			C216.3,93.7,217.5,95.4,217.3,98.2z M215.1,80.2c0.1-0.8,0.4-1.4,1.1-1.4c0.1-0.3,0.7,0.1,1,0c0.3,0.3,0.5,0.6,0.6,0.9
			C217.8,81.7,215.3,81.5,215.1,80.2z"/>
		<g>
			<path class="st1" d="M48.6,152.5c-0.2-4.9-0.6-8.6-1.2-10.9c-0.6-2.1-1.5-3.8-2.8-5.3c0.1,0.3,0.1,0.6,0.1,0.9
				c-0.4,2.4-4.2,1.6-3.7-0.7c0.3-0.9,0.8-1.5,1.7-1.4c0.1-0.2,0.3-0.1,0.5-0.1c0.1,0,0.2,0.1,0.3,0.1c-1.5-1.3-3.7-2.3-6.3-3
				c-3-0.8-7.4-1-13-0.8l-20.7,0.8L4,145.6c1.2-0.3,2.8,0.5,2.7,2.1c-0.3,1.2-1.2,1.7-2.3,1.8c-0.1,0-0.2-0.1-0.3-0.1l2.4,61.7
				l20.5-0.8l-1.3-31.8l5.5-0.2c4.5-0.2,8.1-0.9,10.8-2.3c2.7-1.3,4.6-3.2,5.5-5.5c0.9-2.3,1.3-6,1.1-11.1L48.6,152.5z M18.3,168.8
				c0-0.1-0.1-0.3-0.3-0.4c-0.1-1.1,1.3-1,1.3-0.2C19.3,168.8,18.9,169,18.3,168.8z M21.9,152.4c-1-0.3-1.4-0.9-1.4-1.9
				c0.4-1.9,3.3-1.4,3.1,0.4C23.4,152,22.7,152.3,21.9,152.4z M30.7,163.3c-0.7,1-2,1.5-3.9,1.5c-0.4,0-0.9,0-1.5,0l-0.8-20.1
				c2.7-0.1,4.4,0.2,5.3,1c0.9,0.8,1.4,2.5,1.5,5.2l0.3,6.5C31.7,160.4,31.4,162.4,30.7,163.3z M34.8,171.8c0.1-0.8,0.4-1.4,1.1-1.4
				c0.1-0.3,0.7,0.1,1,0c0.3,0.3,0.5,0.6,0.6,0.9C37.5,173.3,35,173.1,34.8,171.8z M38.1,154.4c0.1-0.8,0.4-1.4,1.1-1.4
				c0.1-0.3,0.7,0.1,1,0c0.3,0.3,0.5,0.6,0.6,0.9C40.9,155.9,38.4,155.7,38.1,154.4z"/>
			<path class="st1" d="M76.7,192.5L76,175.1l12.8-0.5l-0.6-15l-12.8,0.5l-0.6-15l1,0c-0.6-0.6-0.7-1.6-0.3-2.8
				c0.1,0.1,0.2,0,0.2-0.1c0.3-0.6,0.8-0.9,1.5-1c0.4-0.2,1.1,0.1,1.7,0.2c0.9,0.7,1.5,1.7,0.9,3.4c-0.1,0-0.2,0.1-0.2,0.2l8.9-0.4
				l-0.6-15.8l-34.3,1.3l3.1,79l35.6-1.4l-0.6-15.8L76.7,192.5z M56.4,158.1c0-0.2-0.1-0.3-0.2-0.4c-0.1-1.1,1.3-1,1.3-0.2
				C57.4,158.1,57,158.3,56.4,158.1z M62.8,141c-0.5,1.2-1.4,1.7-2.6,1.9c-2-0.4-2.8-1.6-2.5-3.5c0.5-1.1,1.2-1.8,2.4-1.8
				C62,137.5,63.2,139,62.8,141z M67.1,196.3c0-0.2-0.1-0.3-0.2-0.4c-0.1-1.1,1.3-1,1.3-0.2C68.1,196.3,67.7,196.4,67.1,196.3z
				 M70.5,178.9c0-0.1-0.1-0.3-0.2-0.4c-0.1-1.1,1.3-1,1.3-0.2C71.5,178.9,71.1,179.1,70.5,178.9z M84.5,199.6
				c0-0.2-0.1-0.3-0.2-0.4c-0.1-1.1,1.3-1,1.3-0.2C85.5,199.7,85.1,199.8,84.5,199.6z"/>
			<path class="st1" d="M142,174c0.1-0.3,0.2-0.6,0.4-0.8c0,0,0,0,0,0c-0.4-1.4-1.3-2.9-2.8-4.6c-1.5-1.6-4.3-2.9-8.4-3.7
				c4.5-0.6,7.4-2,8.9-4.2c1.4-2.2,2-6.3,1.8-12.5c-0.3-6.7-1.5-11.6-3.8-14.6c-2.3-3-5.2-4.8-8.6-5.4c-3.5-0.6-10-0.7-19.7-0.3
				l-14.5,0.6l0.6,16.3c0.1,0,0.3,0.1,0.4,0.1c0.5,0.4,0.9,1,1.1,1.7c0.1,1.3-0.5,2.1-1.4,2.4l2.3,58.6l20.5-0.8l-1.4-35.6
				c2.8-0.1,4.6,0.3,5.3,1.3c0.7,1,1.1,3.6,1.3,7.8l1,26.2l19.1-0.8l-0.8-20.8c-0.2-3.9-0.3-6.9-0.5-8.9
				C142.2,175.5,142,174.8,142,174z M113.6,131.6c0.1,0.1,0.2,0,0.2-0.1c0.3-0.6,0.8-0.9,1.5-1c0.4-0.2,1.1,0.1,1.7,0.2
				c0.9,0.7,1.5,1.6,0.9,3.4c-0.2,0-0.2,0.3-0.2,0.4c-0.4,0.2-0.8,0.4-1.1,0.7C114.3,135.4,112.7,134,113.6,131.6z M97.9,130
				c0-0.1-0.1-0.3-0.2-0.4c-0.1-1.1,1.3-1,1.3-0.2C98.9,130.1,98.6,130.2,97.9,130z M101.9,203c0-0.2-0.1-0.3-0.2-0.4
				c-0.1-1.1,1.3-1,1.3-0.2C102.9,203,102.5,203.2,101.9,203z M105.2,185.6c0-0.1-0.1-0.3-0.2-0.4c-0.1-1.1,1.3-1,1.3-0.2
				C106.2,185.6,105.9,185.8,105.2,185.6z M109.3,169.8c-1.9-0.2-2.6-1.3-2.1-3.1c0.1,0.1,0.2,0,0.2-0.1c0.3-0.5,0.7-0.8,1.3-0.9
				c0.5-0.3,1.3,0.2,1.9,0.4c0.2,0.5,0.6,0.9,0.7,1.4C111,169,110.2,169.5,109.3,169.8z M112.6,152.4c-1.9-0.2-2.6-1.3-2.1-3.1
				c0.1,0.1,0.2,0,0.2-0.1c0.3-0.5,0.7-0.8,1.3-0.9c0.5-0.3,1.3,0.2,1.9,0.4c0.2,0.5,0.6,0.9,0.7,1.4
				C114.4,151.6,113.6,152.1,112.6,152.4z M121.7,157.6c-0.9,0.7-2.5,1.1-4.8,1.1l-0.7-17.6c2.4-0.1,4,0.2,4.9,1
				c0.9,0.7,1.4,2.4,1.5,4.9l0.2,4.3C123,154.9,122.6,156.9,121.7,157.6z M131.3,133.6c0.7-0.3,1.2-0.7,2.2-0.5
				c1-0.3,1.9,0.7,2.5,1.1c1,1.3,0.7,3.9-0.8,4.8c-1.3,0.9-3.8,0.4-4.6-0.9C129.7,136.9,130,134.6,131.3,133.6z M124.7,170.7
				c0.3-0.9,0.8-1.5,1.7-1.4c0.1-0.2,0.3-0.1,0.5-0.1c1.1,0.3,1.6,1.1,1.5,2.2C128.1,173.8,124.2,173,124.7,170.7z M128.1,153.3
				c0.3-0.9,0.8-1.5,1.7-1.4c0.1-0.2,0.3-0.1,0.5-0.1c1.1,0.3,1.6,1.1,1.5,2.2C131.4,156.4,127.6,155.6,128.1,153.3z"/>
			<path class="st1" d="M180.3,163.4c0.3-0.9,0.8-1.5,1.7-1.4c0.1-0.2,0.3-0.1,0.5-0.1c0.5,0.2,0.9,0.4,1.2,0.8l-0.3-6.8l-12.7,0.5
				l-0.4-10.8c-0.9,0.8-2.4,1-3.9,0.4c-1.4-1-2.2-2.7-1.3-4.7c0.9-1,1.7-2,3.5-1.6c0-0.1,0.1-0.1,0.2-0.1c1.1,0.3,1.8,1,2.3,1.8
				l13.3-0.5l-0.6-15.8l-8.9,0.3c-0.2,2.8-2.4,4.3-5.1,3.2c-1-0.7-1.6-1.7-1.7-3l-19.1,0.8l0.4,10.3c0.4-0.2,0.9-0.3,1.5-0.2
				c1-0.3,1.9,0.7,2.5,1.1c1,1.3,0.7,3.9-0.8,4.8c-0.8,0.5-1.9,0.6-3,0.3l2.5,62.7l20.5-0.8l-1.3-33.2l12.7-0.5l-0.2-6.2
				C182.8,166.3,179.8,165.5,180.3,163.4z M161.1,179.8c-1.3-0.4-1.8-1.2-1.8-2.4c0.6-2.4,4.3-1.8,4,0.6
				C163.1,179.2,162.2,179.7,161.1,179.8z M163,160.5c0.1-1.2,0.6-1.7,1.5-1.8c1.2-0.3,2,0.7,2.1,1.5
				C166.6,162.8,163,162.4,163,160.5z"/>
			<path class="st1" d="M227.5,202.4l-0.6-15.8l-11.6,0.5c0.2,0.3,0.2,0.7,0.2,1.2c-0.4,2.4-4.2,1.6-3.7-0.7c0-0.1,0.1-0.2,0.1-0.3
				l-0.1,0l-0.7-17.4l3.8-0.2c0.4-0.8,0.9-1.4,1.9-1.3c1-0.1,1.7,0.4,2,1.1l5-0.2l-0.6-15l-2.3,0.1c-0.3,0.1-0.6,0.2-0.9,0.2
				c-0.2,0-0.3-0.1-0.5-0.2l-9.2,0.4l-0.6-15l13.7-0.5l0-0.2c-0.6,0-1.2-0.1-1.8-0.4c-1.2-1-2.2-2.7-1.1-4.9
				c0.8-0.7,1.4-1.5,2.7-1.5l-0.2-5.7l-18.1-2.4l-16.2,0.6l0,0.9c0.1,0,0.1,0,0.2,0c1-0.3,1.9,0.7,2.5,1.1c1,1.3,0.7,3.9-0.8,4.8
				c-0.5,0.3-1.1,0.5-1.7,0.5l2.8,71.6L227.5,202.4z M203.4,130.5c0.7-0.7,1.4-1.5,2.7-1.4c0-0.1,0.1-0.1,0.2-0.1
				c0.5,0.1,0.9,0.2,1.4,0.3c1.4,0.9,2.4,2.1,1.7,4.5c-0.2,0-0.2,0.3-0.2,0.4c-1.1,1.3-2.9,2-4.7,1c-0.6-0.3-1.4-1.4-1.5-2.2
				C202.8,132.2,203.1,131.3,203.4,130.5z M203.2,146.7c0.6-0.3,1.3,0.5,1.9,0.7c0.5,0.8,1,1.7,0.9,2.9c-0.6,1.8-1.8,2.6-3.7,2.5
				c-1.8-0.6-2.6-1.8-2.5-3.7C200.4,147.5,201.3,146.5,203.2,146.7z M201.6,167.3c-0.3,1.2-1.2,1.7-2.3,1.8
				c-1.2-0.4-1.8-1.2-1.8-2.4C198.1,164.2,201.8,164.9,201.6,167.3z M198.2,184.7c-0.3,1.2-1.2,1.7-2.3,1.8
				c-1.2-0.4-1.8-1.2-1.8-2.4C194.7,181.6,198.4,182.3,198.2,184.7z"/>
			<path class="st1" d="M275.4,129.3c-1.5-2.3-3.8-4.2-6.7-5.8c-4-2.2-9.1-3.2-15.1-2.9c-2.9,0.1-5.7,0.6-8.1,1.3
				c-0.2,0.6-0.6,0.8-1.2,0.8c-0.2,0-0.3-0.1-0.4-0.2c-0.7,0.3-1.3,0.5-2,0.8c-3.4,1.6-6,3.8-7.8,6.5c-1.8,2.7-2.9,5.5-3.2,8.4
				c-0.3,2.9-0.3,7.1-0.1,12.8l0.9,23.1c0.3,7.7,1.2,13.5,2.6,17.3c1.4,3.8,4.1,6.7,8.1,8.7c4,2,9,2.9,15,2.7
				c5.8-0.2,10.6-1.7,14.5-4.4c3.9-2.7,6.3-5.8,7.3-9.3c1-3.5,1.4-9.3,1-17.5l-0.1-3.1l-20.5,0.8l0.4,9.9c0.2,4.3,0,7.1-0.4,8.3
				c-0.4,1.2-1.4,1.8-2.9,1.9c-1.6,0.1-2.6-0.5-3.1-1.6c-0.5-1.2-0.8-3.6-1-7.5l0-0.7c-0.7,0.1-1.5-0.1-2.1-0.4
				c-0.6-0.7-1.3-1.5-0.9-2.9c0.4-1,1.1-1.7,2.2-1.6c0.2,0,0.4,0,0.6,0l-1.2-31c-0.2-4,0-6.6,0.4-7.8c0.4-1.2,1.5-1.9,3.1-1.9
				c1.5-0.1,2.5,0.4,3,1.4c0.3,0.6,0.5,1.8,0.7,3.5c0.2,0,0.4,0,0.6,0c0.8-0.3,1.6,0.5,2.2,0.8c0.8,0.9,1.4,2,1.2,3.6
				c-0.6,1.9-1.8,2.9-3.7,3l0.4,10.4l20.5-0.8l-0.3-7.5c-0.3-7.4-1.1-12.8-2.5-16.2c-0.1-0.2-0.2-0.5-0.3-0.7
				c-0.2-0.2-0.4-0.4-0.6-0.5C275.7,130.3,275.5,129.8,275.4,129.3z M232.3,172.6c0.5-0.4,0.8-1.1,1.6-1c0.3-0.3,1.1,0.1,1.6,0.1
				c0.5,0.4,0.9,1,1.1,1.7C236.9,177.5,230.6,176.3,232.3,172.6z M240.5,142.6c-2.2-0.5-3.2-2-3-4.1c0.1-1.2,0.8-1.6,1.2-2.3
				c0.7-0.3,1.2-0.8,2.2-0.7c0.1-0.2,0.4-0.1,0.6,0c2.3,0.5,3.2,2,3,4.1C244.1,141.8,242.7,142.7,240.5,142.6z M267.1,179.3
				c0.1,0.1,0.2,0,0.2-0.1c0.3-0.6,0.8-0.9,1.5-1c0.4-0.2,1.1,0.1,1.7,0.2c0.9,0.7,1.5,1.7,0.9,3.4c-0.2,0-0.2,0.3-0.2,0.4
				c-0.4,0.2-0.8,0.4-1.1,0.7C267.8,183.1,266.3,181.7,267.1,179.3z M266.9,198c-0.2,0.6-0.6,0.9-1.3,0.9c-0.3-0.3-0.5-0.6-0.6-0.9
				C265.3,196.7,266.7,196.9,266.9,198z M260.3,128c-1.4-1-2.1-2.7-1.3-4.7c0.9-1,1.7-2,3.5-1.6c0-0.1,0.1-0.1,0.2-0.1
				c1.6,0.5,2.4,1.6,2.8,2.9C265.4,127.5,263,129.1,260.3,128z M277.4,144.1c0.2,0.5,0.6,0.9,0.7,1.4c-0.1,1.6-0.9,2.1-1.9,2.3
				c-1.9-0.2-2.6-1.3-2.1-3.1c0.1,0.1,0.2,0,0.2-0.1c0.3-0.5,0.7-0.8,1.3-0.9C276.1,143.5,276.9,144,277.4,144.1z"/>
			<path class="st1" d="M315.4,136.4c-1,0.9-3,0.3-3-1.1c0.1-1.2,0.6-1.7,1.5-1.8c1.2-0.3,2,0.7,2.1,1.5c0,0.3,0,0.5-0.1,0.7
				l11.7-0.5l-0.6-15.8l-4.8,0.2c0,0,0,0.1,0,0.1c-1.3,2.1-3.1,3.6-6.6,2.6c-1.1-0.6-1.9-1.4-2.4-2.4l-31.1,1.2l0.2,4.3
				c0.2,0.2,0.4,0.4,0.6,0.6c0.3,0.8,0.6,1.5,0.7,2.4c-0.1,1.3-0.5,2-1.1,2.7l0.2,5.9l12.1-0.5l2.5,63.2l20.5-0.8L315.4,136.4z
				 M299.1,135.2c-1,0.5-2.3,0.9-3.7,0.4c-0.9-0.3-1.5-1-2.1-1.5c-0.5-1.1-0.9-2.2-0.3-4.1c0.4-0.6,0.9-1.1,1.3-1.7
				c0.8-0.2,1.3-0.8,2.4-0.7c0-0.1,0.1-0.1,0.2-0.1c1.8,0.1,2.6,1,3.5,1.8c0.3,0.8,0.6,1.5,0.7,2.4
				C300.8,133.6,299.9,134.4,299.1,135.2z M303.9,188.4c-0.6-0.2-0.8-0.6-0.9-1.1c0.2-1.5,2.3-1.2,2.2,0.1
				C305,188.1,304.5,188.4,303.9,188.4z M309.8,171.6c-0.6,0.3-1,1-1.7,1.1c-2.3,0.4-4.6-1.9-3.2-4.3c0.5-0.8,1.1-1.4,2.2-1.3
				c0.5-0.3,1.5,0.2,2,0.4c0.4,0.5,0.8,1.1,1.1,1.7C310.3,169.9,310.2,170.9,309.8,171.6z M313.5,154.1c-0.7,1.3-2.5,2.1-4.4,1.1
				c-1.3-0.8-1.9-2.1-1.3-4.2c0.7-0.8,1.3-1.6,2.5-1.6c0.4-0.2,1.7,0.1,2,0.4C313.8,150.5,314.5,152.3,313.5,154.1z"/>
		</g>
	</g>
	<g>
		<g>
			<path d="M221.8,352.2h-3.6V351l-0.1,0c-6.5-0.8-12.8-3-18.8-6.7l-0.3-0.2h-0.3l-1.5-1.1l-5.2-3.1l0.2-0.8
				c-5.4-4.8-9.3-11-11.8-18.4h-3.2l2.6-2.1l-0.1-0.4l-0.8-5.4c-0.5-1.6-0.7-3.4-0.8-5.3l0-0.3l0,0c0-0.4,0-0.9,0-1.3v-4.8l7.6-7.6
				h8.3l0.4-0.1c-10.8-9.3-13-21.1-13-29.2v-1.4c0-13.3,5.6-36.3,42.9-41.4l0.5-0.1l0.4,0v-0.4h6.9l4.9-0.3l0.3,0.3
				c12.8,0.1,24.4,3.9,34.6,11.4l0.8,0.6l0.7,0.7c3.3,3.4,5.8,6.4,7.4,9.4c3.4,4.6,4.8,11.8,6.2,18.8l0.2,1.1v9.8l4.2-1.4l-6.4,14.5
				v4.9c1.1,1.4,2,3,2.5,4.8h2.2l-0.7,12.3c-0.1,2.5-0.4,4.8-0.7,6.9l0.8,0.2l-1.7,4.5c-0.1,0.5-0.2,1-0.4,1.4l-5.3,19.2l-3.4-3.4
				c-0.1,0.1-0.2,0.2-0.3,0.4v0.3l-1.2,1c-0.5,0.4-1,0.9-1.5,1.2l-4.2,4.5l-0.8-0.8c-5.4,3.7-10.1,5.6-14.4,5.9
				c-1.8,1-4.1,1.9-7.1,2.4c-2.3,0.4-5.4,0.7-9.3,0.9l-0.3,1.3l-1.5-1.2c0,0-0.1,0-0.1,0v0h-0.5l-2.9,0.1v4L221.8,352.2z
				 M235.1,309.8l-1.2-1.4l-1.1-0.2c-2.2-0.4-5-0.9-7.7-2c0,0.2,0.1,0.4,0.1,0.6c0.1,0.1,0.2,0.3,0.2,0.4c2.5,1.3,3.7,1.7,3.9,1.8
				l1.3,0.2h0.5l0.6,0.1c0.9,0.1,1.7,0.2,2.5,0.4L235.1,309.8z M224.8,272.9"/>
			<path class="st2" d="M212.7,304.1l0.4,0.3v0.4l-0.8,1.1v0.4c1,0,1.5,1.2,1.5,3.6c1.1,2.5,2.3,4.5,3.6,5.9v0.3l-0.4-0.3h-0.3v0.7
				h0.3l0.4-0.4c4.6,2.7,8,4.1,10.2,4.4v1.1h0.8v-0.8h2.2c1.5,0.2,2.2,0.5,2.2,1.1v2.9c0,0.5-0.4,0.7-1.1,0.7l-0.4-0.3h-0.7v0.3
				c1,0.2,1.4,0.8,1.4,1.9l-1.1,1.8c0.8,0,1.1,0.3,1.1,0.8v0.7l-0.4,1.8l-0.4-0.3h-0.4l-0.3,0.3v1.5c1.1,0,1.8,0.5,2.2,1.4v2.2
				c0,0.5-0.5,0.8-1.5,0.8l1.1,1.4l-0.8,0.8h-1.8c0-0.6-0.9-1.5-2.6-2.9v-0.7h-2.2v0.3h1.1v1.9h-2.9c-1.3-2-2.1-2.9-2.6-2.9
				l-0.4,0.4v0.4c0.7,0,1.1,0.7,1.1,2.2h-0.3l-1.5,0.3c-4.9-0.6-9.6-2.2-14.2-5c0.4-1.7,1-2.6,1.9-2.6v-1.1
				c-1.3,0.2-2.4,0.8-3.3,1.8h-1.4c-5.5-4-9.3-9.5-11.4-16.7l-0.7-4.4l0.7-0.7v-0.4l-0.3,0.4h-0.4c-0.5-1.1-0.8-2.7-0.8-4.7l0.8-0.8
				h0.4l0.3,0.4l0.4-0.4h1.1l2.2,0.4l2.2-0.8h5.1v1.1h0.4c0.1-1,0.5-1.5,1.1-1.5h6.6L212.7,304.1z M191.1,307.3v2.6h0.4
				c0-0.5,0.4-0.8,1.1-0.8v-0.3l-0.8-1.5H191.1z M232.4,232.5l0.4,0.4v17.9c0,0.6-2.9,1.1-8.8,1.5c0.3-0.9,1.1-1.5,2.6-1.9l1.5,0.4
				h0.7v-0.7h-4v0.7h-2.6l0.4,1.8c-3.7,2.6-5.5,4.7-5.5,6.3l-0.3,1.8v2.2c0,5,6.2,8.5,18.6,10.6l0.3,0.3l-0.3,0.4v0.8l1.4-1.1
				c12.6,2.7,21.6,5.5,27,8.4l6.6,5.5v0.3h-1.1v-0.7c-1,0-1.4-0.5-1.4-1.5h-1.5l2.6,2.2l0.4,2.2h-0.8v0.8h0.4l1.1-0.4l-1.1,2.6h3.3
				c0,0.8,0.3,1.1,1.1,1.1c0,0.7,0.5,1.7,1.5,2.9c1.2,0.5,1.8,1.6,1.8,3.3l-1.1,0.8h-3.6c0,0.5-0.6,0.9-1.8,1.4h-2.6v0.8
				c1.2,0,2,0.3,2.6,0.8c0-0.5,0.5-0.8,1.4-0.8l1.1-1.1c0.3,1.3,0.7,1.9,1.1,1.9l0.4-0.4l0.4,0.4c0-1.7,0.8-2.6,2.2-2.6l0.4,0.3v2.6
				l-0.4,0.4c0,0.5-0.7,0.8-2.2,0.8c0,1.2-0.3,1.8-0.8,1.8c-1,0-1.4,0.6-1.4,1.8h-2.9v0.4l0.4,1.8h0.4v-0.7l-0.4-0.4l2.9-1.1h1.8
				v0.8h0.8l1.4-0.8V307h0.8c-0.3,4.4-0.8,7.9-1.5,10.6l-0.4-0.4h-0.7v0.4h0.7c-0.3,2.9-1,4.4-2.2,4.4l-1.1-0.4v0.8l1.4,0.4
				c-0.6,1.5-1.5,2.9-2.9,4.4l-0.4-0.4H270c0,1.6-0.7,2.8-2.2,3.6l-0.4-0.3h-0.4l0.8-2.6l-4.1-3.3h0.8v-0.4l-0.8-0.8l-1.8,0.4v-3.2
				c0-0.6,0.5-1,1.5-1.1v-0.4c0-0.6-1-0.9-2.9-1.1l0.8,1.1v2.6h-0.4l-1.1-0.4l0.8,1.1v0.8l-1.5,1.4l-0.3-0.4l-0.4,0.4h-0.8l-0.4-0.4
				h-0.4c0-1.7,0.7-2.6,2.2-2.6v-0.4l-2.2-1.4h-2.2l0.4,0.4v0.4l-0.8,0.7c-1.8,0-2.7-0.4-2.9-1.1l0.4-0.4l-0.8-0.8
				c0-1,1-1.4,2.9-1.4l0.3-0.4v-0.4c-1.1,0-1.8-0.6-2.2-1.8c1-1.7,1.5-3.9,1.5-6.6l1.8,0.4c0.5-1.3,1-1.9,1.4-1.9v-0.3l-0.7-0.8
				h-1.1l-1.1,0.8h-0.4l-2.6-3.3v-0.4h0.4l2.6,0.4c0-0.8,0.5-1.1,1.4-1.1v-0.3l0.4,0.3h1.4l0.8-0.7v-0.8c-1.3,0-2.3-0.5-2.9-1.4H254
				l-1.1,0.7h-5.5l-1.1-0.7l-1.4,0.4c-1.7-0.6-2.6-1.1-2.6-1.5v-0.4c0.6,0,1.3-0.5,2.2-1.4c-1.2-1.1-2.8-1.7-4.7-1.8v0.4l-2.2-0.8
				l-0.4,0.4l-3.7-4.4c-0.5,1.5-1.5,2.2-2.9,2.2c0,0.8-0.9,1.4-2.6,1.8v0.8h-1.5c-22.4-3.8-33.5-13.9-33.5-30.4v-1.4
				c0-16.9,11-26.9,32.9-29.9L232.4,232.5z M194.8,313.5h1.1v-0.7h-0.3L194.8,313.5z M195.6,309.9h1.8v-0.8h-1.1L195.6,309.9z
				 M196.3,318.6v0.4h0.8V318L196.3,318.6z M198.8,307.7l-0.4,0.4v0.8h1.1v-0.4L198.8,307.7z M199.2,246.4l0.8,0.8h0.3v-0.8H199.2z
				 M200.6,276.7l1.1,1.1l0.4-1.1l-0.4-0.4L200.6,276.7z M200.6,310.6v1.4h0.8v-1.4H200.6z M202.5,319.4l0.3,2.2h0.8v-0.4l-0.4-1.8
				H202.5z M203.2,282.9l0.8,0.7h0.8v-0.7H203.2z M204,310.6l0.8,0.7h1.1l-0.4-1.4L204,310.6z M204.3,306.3l0.7,0.7l0.8-0.7v-0.8
				H205L204.3,306.3z M205,327.8v0.4h1.5l-0.4-0.4v-0.3L205,327.8z M205.8,277v1.4l0.8,0.8V277H205.8z M207.9,316.5v0.8l0.8,1.4h0.8
				V318l-0.8-1.5H207.9z M208.7,247.1v0.7c1.2,0,1.8,0.3,1.8,0.8h0.8l-1.1-1.4H208.7z M209.1,308.5v0.7c1,0,1.4,0.5,1.4,1.5h1.1
				v-0.8l-0.8-0.8h-0.4l0.4-0.3v-1.1h-1.1L209.1,308.5z M209.8,280.7l-0.3,0.4v0.4h1.8V281L209.8,280.7z M209.8,240.6l0.8,0.7h0.4
				l0.8-0.7v-0.8L209.8,240.6z M210.1,269.3v0.4l4.4,0.8L212,269L210.1,269.3z M210.5,334.4v0.3c1.7,0,2.6,0.8,2.6,2.3h0.8v-0.8
				l0.4-0.4l-0.4-0.4l-2.9-1.1H210.5z M212.7,319.4c0,0.8-0.4,1.1-1.1,1.1v0.7l1.8-1.8H212.7z M213.1,327.5h0.4l0.4-0.4h0.4l1.1,1.1
				h0.4v-0.4l-0.4-1.1h-1.4L213.1,327.5z M213.5,330.3l0.8,0.8h0.3l-0.7-0.8H213.5z M215.6,322.3c0,0.5,0.5,0.7,1.4,0.7l-0.3,0.4
				v0.4l1.4,0.8v-0.4l-1.1-1.8H215.6z M216.4,332.5l-0.4,0.4v1.1l0.4-0.4h0.4l1.4,0.4L216.4,332.5z M217.4,271.9v0.8h1.1v-0.8H217.4
				z M220,280.7l-0.4,0.4v0.4h1.5V281L220,280.7z M220.4,328.1v1.1l1.4,1.1h0.8v-1.4h-0.4l-0.4,0.4c-0.7,0-1.1-0.4-1.1-1.1H220.4z
				 M222.9,339.1v0.3l-0.4,0.4v0.4l-1.1-0.4v-0.4L222.9,339.1z M223.3,334.7v1.5h0.7v-0.8L223.3,334.7z M224.4,327.8v0.4l0.8,0.8
				h0.4l1.1-0.4v-0.4l-1.8-0.4H224.4z M224.4,339.8h1.5v0.8h-0.4l-1.1-0.4V339.8z M228.4,288.7l-2.9-0.8l1.4,2.2h1.5
				c0-0.6,0.5-1,1.4-1.1v-0.8l1.1-0.7l-0.3-1.1L228.4,288.7z M231.3,293.8h2.6l1.1,1.1v1.9c-4.6-0.9-6.9-1.6-6.9-2.2h3.2V293.8z
				 M228.4,334v1.4l0.7,0.8l0.4-0.4h0.8v0.8h0.4v-0.8L228.4,334z M229.1,324.1v1.1h1.1v-0.4l-0.8-0.8H229.1z M230.3,284.3v1.8h0.4
				v-1.8H230.3z M234.3,275.6v0.4l0.4,1.8c-0.5,0-1,0.7-1.4,2.2h-1.9l0.4,1.4l-0.4,1.1c2.5-1.8,3.7-3.6,3.7-5.5v-1.4H234.3z
				 M233.2,291.7h1.1l1.1,1.1v1.1H235l-1.8-0.8V291.7z M236.8,232.5c10.5,0,19.9,3,28.1,9.1c3.9,4,5.9,6.7,5.9,8.1
				c1.3,0,2.8,4.7,4.7,14.2v1.1l-12.4,1.5v-0.4l-10.2,1.1c-1-5.9-2.7-9.8-5.1-11.7c-2-1.7-5.8-3-11.3-4v-0.8l0.4-2.2l-0.4-3.6v-11.7
				l0.4-0.4V232.5z M246.3,319c1.5,0,3,0.6,4.4,1.8c2.4,0,3.6,0.9,3.6,2.6l1.1,0.4l0.4-0.4l0.8,1.1l-0.4,0.4v0.4
				c1.5,1.2,2.2,2.1,2.2,2.9h0.7c0-1,1-1.6,2.9-1.8l0.4,0.4l-0.4,0.4v0.7l0.4,0.4c-0.1,1.3-0.5,1.9-1.1,1.9v1.4
				c0,1.2-0.6,1.8-1.9,1.8c0,0.6,0.6,0.9,1.9,1.1V334l0.3-0.4h0.4v-2.6h0.8v-0.4l-0.4-0.4c0.2-1.2,1-1.8,2.6-1.8
				c0.4,1.7,0.9,2.6,1.4,2.6v0.4c-5,3.9-8.9,5.8-11.7,5.8v-0.7l-4,0.7v-0.3l0.4-1.1h-0.4l-1.1,0.4v0.4l0.7,1.1v0.8
				c0,1.1-4.5,1.8-13.5,2.2l-0.4-0.4v-4.4l0.4-0.4v-0.4l1.8,0.4h0.8c0.5,0,0.8-0.6,0.8-1.8l1.1-1.1v-0.7h-0.4l-0.4,0.4h-0.3
				c0-1.2-0.5-2.7-1.5-4.4l0.4-1.1l-2.6-2.2v-2.2c0-0.6,0.6-0.9,1.8-1.1l1.9,0.4c0-1,1.2-1.4,3.6-1.4v2.2h-3.6l1.1,2.2h0.4v-0.8h2.9
				l-0.4-0.4V323h0.8l1.1,0.8l0.4-0.4l0.4,2.2h0.7v-1.1l-0.3-1.8l0.3-0.4c-0.7,0-1.2-0.6-1.4-1.8h-1.1v-0.4L246.3,319z M236.4,326.3
				h0.8l0.4,1.1l-0.4,1.1h-0.8V326.3z M237.6,329.3l1.8,0.4v2.9h-2.2l-0.8-0.7V330C236.4,329.5,236.8,329.3,237.6,329.3z
				 M238.6,339.1v0.3l2.6,0.4l-0.4-1.1L238.6,339.1z M240.8,336.6v1.8l1.8-0.8C242.6,337.1,242,336.7,240.8,336.6z M241.2,283.2h1.4
				v-0.7h-0.7L241.2,283.2z M242.3,289.5l-0.4,0.4v0.3h1.1L242.3,289.5z M245.2,285.8l-0.7,0.8v0.8h1.1v-1.5H245.2z M244.9,331.1
				c0.3,1,0.7,1.4,1.1,1.4h0.8v-0.3l-1.1-1.1H244.9z M245.9,235.4v0.4l1.1,0.3v-0.7H245.9z M249.2,322l0.4,1.1l0.7-0.7v-1.1h-0.4
				L249.2,322z M250.7,325.3v0.7h1.8l-0.7-0.7H250.7z M251.4,295.3l-0.4,1.1h0.8l0.7-0.8l-0.4-0.4H251.4z M252.5,330v1.8l2.6-0.4
				v-0.4c-1.2,0-1.8-0.4-1.8-1.1H252.5z M261.3,283.6l0.7,1.8l-1.4,0.8l-0.4-0.4H259l-0.7,0.8v0.4l0.7,1.1v1.5l-0.7,1.4h-1.8
				l-1.1-0.8v1.5h-2.6v0.4l1.8,0.7l1.1-1.1h0.4l1.1,0.8c0.3-1,1-1.5,2.2-1.5v1.8h-1.1v1.1l1.4,1.4l0.8-0.7V292l0.8-0.8h0.3l1.1,0.4
				v-2.6h-2.6v-0.4l0.4-1.8h0.4l1.8,0.4c0-1,0.3-1.5,0.8-1.5C263.3,285,262.6,284.2,261.3,283.6z M253.6,238l1.4-1.1h-0.4L253.6,238
				z M253.6,312.1v0.4c0,0.7,0.9,1.1,2.6,1.1c0,1,0.2,1.5,0.7,1.5h0.8l0.8-0.8l-4.1-2.2H253.6z M255.1,335.4h2.2v-0.8l-0.7-0.7h-0.4
				L255.1,335.4z M256.6,329.6c0,0.7-0.4,1.1-1.1,1.1v0.4h1.4l0.4-1.4H256.6z M256.6,309.9l0.7,0.8h0.4l-0.8-0.8H256.6z
				 M264.5,303.3v0.8h-1.8c-0.5,0.4-1.9,0.8-4.4,1.1l-0.4-0.4v0.8h3.3c0,1.5,0.2,2.2,0.7,2.2h0.8l-0.8-1.1v-0.3l0.8-0.8h2.6l1.1,0.8
				v-1.5l-0.3-0.4v-0.3l0.7-0.8H264.5z M258.4,250.1v0.7h1.4v-0.7H258.4z M260.9,295.7c0,1.2-0.6,1.8-1.9,1.8v1.1h0.4l3.3-2.6
				L260.9,295.7z M259,315.8v0.7l1.5,0.8h0.4v-0.8L259,315.8z M263.1,246.4v0.8h-2.2v0.7h1.8l1.8-0.3l0.8,1.1l1.1-0.4v-1.1l-0.7-0.8
				H263.1z M261.3,313.5v0.4c0,0.5,0.7,1.1,2.2,1.9v-1.5c-1.3,0-1.9-0.3-1.9-0.8H261.3z M262.4,310.6v0.7h1.8v-2.2
				c-0.5,0-0.7,0.5-0.7,1.5H262.4z M263.5,288.3l-0.4,1.1h1.1v-1.1H263.5z M263.1,325.6h1.4v1.5l-1.1,0.4l-0.4-0.4V325.6z
				 M263.8,292.4v0.7l1.5,0.4v-0.8L263.8,292.4z M263.8,299v0.7h1.9l-0.8-0.7H263.8z M264.2,312.1v1.4h0.8v-1.4H264.2z M264.2,322.3
				v0.4h0.8v0.3l1.8-1.4c1.2,0,1.8-0.6,1.8-1.8h0.4c0-0.8-0.5-1.1-1.4-1.1V318h-0.4c-0.5,0-0.8,1.2-0.8,3.6L264.2,322.3z
				 M265.3,317.2v0.4l1.1,0.4v-0.8H265.3z M265.7,290.9v0.8l2.2-0.4v-0.4H265.7z M266.1,293.8l0.7,0.8h0.4l-0.8-0.8H266.1z
				 M267.1,307l0.8,1.5l1.1-1.5H267.1z M267.5,312.8v0.7l0.8,0.8h0.3v-1.4H267.5z M267.5,325.3v0.7h1.1v-0.7H267.5z M267.9,296.8
				v0.7l1.4,0.4h1.1v-0.4C269.3,297.5,268.4,297.2,267.9,296.8z M268.5,314.6v1.4h0.4l0.8-0.7L268.5,314.6z M270.8,288.7h0.3
				c1,0.5,1.5,1.2,1.5,2.2h-1.8l-0.8-0.8v-0.7L270.8,288.7z M270.4,305.5v0.8h0.4l0.7-0.8H270.4z M271.9,255.1v1.9l1.1,0.7v-0.4
				l-0.8-2.2H271.9z"/>
		</g>
		<g>
			<path d="M159.3,345.5h-7.2c-8.5,4.7-18.9,7.2-31,7.7l-12,0.4v-47.6c-10.1-0.9-18.9-3.4-26.3-7.4h-7.2l-9.7,9.7v-10.7h-0.5v-16.7
				c-5.2-9.3-7.8-19.2-7.8-29.3v-1.9c0-11.7,2.8-21.9,8.3-30.3l-0.9-2.8l6.7-5.6l3.1-3.3c6.8-7.2,18-11.6,34.2-13.3V193l9.3,0.7
				l9-0.6l0,1.4c15.4,1.8,26.2,6.2,32.9,13.2l3.1,3.3l6.7,5.6l-0.9,2.8c5.5,8.4,8.3,18.5,8.3,30.3v49c0,10.1-2.6,20-7.8,29.3v16.7
				h-0.5v10.7L159.3,345.5z M111.9,251.8c1.3,5.2,3.1,5.3,4.7,5.5l6.5,0.7v-7.4c0-3.8-0.9-6.2-5.4-7.9c-4.9,1.8-5.8,4.1-5.8,8V251.8
				z"/>
			<path class="st2" d="M78,279.7l-0.5,0.5v-0.5l0.5-0.5c-5.8-8.8-8.7-18.1-8.7-27.7v-1.9c0-11,2.9-20.1,8.7-27.1h0.9v-0.5l-0.5-1.5
				l3.4-2.8h0.5v0.9h0.9l0.5-1.4l-0.5-1.5c5.4-5.7,16.2-9.2,32.3-10.2l-0.1,23.8h-1.2v0.5l0.5,1.5c-9.7,3.2-14.5,9.6-14.5,19.3v2.5
				c2,9.7,7,15,15.2,15.8l-0.1,25.8C98.2,294.2,85.8,289.2,78,279.7z M79.4,286.9h-0.9c0-0.6-0.5-0.9-1.4-0.9v-1.4H78
				c0.6,0,0.9,0.5,0.9,1.4h0.5V285h1.4L79.4,286.9z M83.7,249.7v-0.9h-2.9v-1h-0.5v1l1.5,0.9H83.7z M88.1,260.3l-0.9-0.9l-0.5,0.5
				v0.5H88.1z M97.8,264.1l-0.5-2.8h-0.9l0.5,0.5v0.5l-0.9,1.9H97.8z M120.7,315.7c7.4-1.1,12.1-6.3,14-15.6v-49.5
				c0-9.6-4.7-16-14-19.2v-25.8c15.3,1.1,25.7,4.5,31,10.1l-0.5,1.5l0.5,1.4h0.9v-0.9h0.5l3.4,2.8L156,222v0.5h0.9
				c5.8,7,8.7,16,8.7,27.1v49c0,9.6-2.9,18.8-8.7,27.7l0.5,0.5v0.5l-0.5-0.5c-7.7,9.3-19.8,14.3-36.3,14.9V315.7z M151.1,290.8
				l-2.2-3V287l1.1-0.8h-2.2l-1,4.5H151.1z M148.2,307.2v-0.5l-0.5-0.5l-0.9,0.9H148.2z M153.1,249.6l1.5-0.9v-1h-0.5v1h-2.9v0.9
				H153.1z M154.1,332h1.4v0.9h0.5c0-0.9,0.3-1.4,0.9-1.4h0.9v1.4c-0.9,0-1.4,0.3-1.4,0.9h-0.9L154.1,332z"/>
		</g>
		<g>
			<path d="M181.5,250.7c-3.4,0-6.6-1.3-8.9-3.6c-3.8-3.8-4.6-9.8-2.2-16.2c0.3-0.8,0.6-1.6,0.9-2.4c0.8-2,1.6-3.8,1.5-5
				c0-0.4-0.3-1.4-0.5-2.2c-0.7-2.5-1.7-5.9-0.7-9.9c1.3-5.3,6-8.9,11.6-8.9c2.9,0,5.9,0.9,8.4,2.6c4,2.7,5.5,7,6,8.4
				c3,8.7,2.4,18.4-1.7,26.9c-2,4-4.4,6.8-7.5,8.6C186.3,250.1,183.9,250.7,181.5,250.7C181.5,250.7,181.5,250.7,181.5,250.7z"/>
			<g>
				<path class="st2" d="M186.1,241c0.1-0.1,0.2-0.3,0.3-0.4l-0.3-0.3h-0.7v0.4h0.7C186.2,240.8,186.2,240.9,186.1,241z"/>
				<path class="st2" d="M181.1,220.5c-0.4,0-0.7,0-1-0.1c0,0.2,0.1,0.3,0.1,0.5h0.9V220.5z"/>
				<path class="st2" d="M178.6,231.5l1.1-1.5h-0.5C178.9,230.5,178.7,231,178.6,231.5L178.6,231.5z"/>
				<path class="st2" d="M178.2,241.7V241h-0.4c-0.1,0-0.1,0-0.2,0.1C177.8,241.3,177.9,241.5,178.2,241.7c0.3,0.4,0.9,0.7,1.4,0.9
					C179.5,242,179.1,241.7,178.2,241.7z"/>
				<polygon class="st2" points="179.2,237.3 179.2,235.9 178.2,235.9 178.2,236.6 178.9,237.3 				"/>
				<path class="st2" d="M190.3,216c-0.6-1.7-1.5-3.5-3-4.5c-2-1.3-4.5-1.7-6.2-0.8l0.1,0v0.3h-0.6c-0.3,0.2-0.5,0.5-0.8,0.8
					l0.2,1.4h-0.8v0.8h0.4l1.1-0.4l-1.1,2.6h3.3c0,0.8,0.3,1.1,1.1,1.1c0,0.7,0.5,1.7,1.5,2.9c1.2,0.5,1.8,1.6,1.8,3.3l-1.1,0.8
					h-3.6c0,0.5-0.6,0.9-1.8,1.4h-0.3c-0.1,0.4-0.2,0.8-0.2,1.1c0.2,0.1,0.4,0.2,0.6,0.4c0-0.5,0.5-0.8,1.4-0.8l1.1-1.1
					c0.3,1.3,0.7,1.9,1.1,1.9l0.4-0.4l0.4,0.4c0-1.7,0.8-2.6,2.2-2.6l0.4,0.3v2.6l-0.4,0.4c0,0.5-0.7,0.8-2.2,0.8
					c0,1.2-0.3,1.8-0.8,1.8c-1,0-1.4,0.6-1.4,1.8H180v0.4l0.4,1.8h0.4v-0.7l-0.4-0.4l2.9-1.1h1.8v0.8h0.8l1.4-0.8V230h0.8
					c-0.2,4.3-0.7,7.7-1.5,10.4c0.9-1,1.7-2.3,2.3-3.5C192.1,230.5,192.7,222.8,190.3,216z M181.5,214l-0.8-0.8v-0.7l0.8-0.8h0.3
					c1,0.5,1.5,1.2,1.5,2.2H181.5z"/>
				<polygon class="st2" points="181.1,228.6 181.1,229.3 181.5,229.3 182.2,228.6 				"/>
				<polygon class="st2" points="179.2,239.1 179.6,239.1 180.4,238.5 179.2,237.7 				"/>
			</g>
		</g>
	</g>
</g>
<g id="_x39_9d_logo" class="st3">
	<g class="st4">
		<defs>
			<path id="SVGID_1_" d="M-95.4,112.7C-79.7,85.4-45.1,76.1-18,91.8c27.1,15.7,36.4,50.6,20.7,77.9c-15.7,27.3-50.3,36.6-77.4,20.9
				C-101.8,174.8-111.1,139.9-95.4,112.7z M121,112.7c15.7-27.3,50.3-36.6,77.4-20.9c27.1,15.7,36.4,50.6,20.7,77.9
				c-15.7,27.3-50.3,36.6-77.4,20.9C114.7,174.8,105.4,139.9,121,112.7z M424,284.8c-11.2,11.3-25.5,16.9-42.9,16.9
				c-8.4,0-16.2-1.5-23.6-4.5c-7.3-3-13.5-7.1-18.7-12.4c-5.1-5.3-9.2-11.6-12.1-19c-3-7.4-4.4-15.4-4.4-24.2
				c0-8.5,1.5-16.4,4.4-23.7c3-7.4,7.1-13.6,12.4-18.8c5.3-5.2,11.6-9.2,18.9-12.2c7.3-3,15.3-4.5,24-4.5c8.4,0,16.2,1.5,23.3,4.5
				c7.1,3,13.4,7.1,18.6,12.4c5.3,5.3,9.4,11.5,12.4,18.5c3,7,4.4,14.8,4.4,23.2C440.8,259,435.2,273.6,424,284.8z M61.9,202.3
				c10.5,18.9,26.1,35.3,46.2,47c16.8,9.8,35,15,53.1,16.3l-54,94.1H188l64.4-112.2c0.5,16.2,3.4,31.2,8.5,44.9
				c5.8,15.3,13.8,28.5,24.3,39.6c10.4,11.1,22.8,19.8,37.1,26.1c14.3,6.3,30,9.4,47.1,9.4c16.2,0,29.8-2.6,40.8-7.7
				c11-5.2,21.2-13.5,30.6-25.1v24.9h66.3v-336h-70v121.1c-9.6-9.4-19.9-16.4-30.8-20.9c-10.9-4.5-23.7-6.8-38.3-6.8
				c-16.5,0-31.8,3.1-45.9,9.4c-10.3,4.6-19.6,10.4-27.9,17.5c0.9-44-21.5-87.1-62-110.7C172.8-1.4,96.9,19,62.6,78.8
				c-0.2,0.4-0.5,0.9-0.7,1.3c-10.5-18.9-26.1-35.3-46.2-47C-43.6-1.4-119.5,19-153.8,78.8c-34.3,59.7-13.9,136.1,45.4,170.5
				c16.8,9.8,35,15,53.1,16.3l-54,94.1h80.8l89.6-156C61.4,203.2,61.7,202.7,61.9,202.3L61.9,202.3z"/>
		</defs>
		<clipPath id="SVGID_2_">
			<use xlink:href="#SVGID_1_"  style="overflow:visible;"/>
		</clipPath>
		<g class="st5">
			<defs>
				<rect id="SVGID_3_" x="-717.2" y="-694.2" width="1770.8" height="1770.8"/>
			</defs>
			<clipPath id="SVGID_4_">
				<use xlink:href="#SVGID_3_"  style="overflow:visible;"/>
			</clipPath>
			<rect x="-181.5" y="5.3" class="st6" width="699.6" height="373.2"/>
		</g>
	</g>
</g>
<g id="Guides">
</g>
<g id="TEMPLATE__x28_delete_x29_" class="st3">
	<path class="st7" d="M-331.7-308.4v1000h1000v-1000H-331.7z M468.3,491.6h-600v-600h600V491.6z"/>
	<g class="st4">
		<defs>
			<path id="SVGID_5_" d="M-84.2-13.5c2-3.5,6.4-4.6,9.8-2.6c3.4,2,4.6,6.4,2.6,9.9c-2,3.5-6.4,4.6-9.8,2.6
				C-85-5.6-86.2-10.1-84.2-13.5z M-55.6-13.5c2-3.5,6.4-4.6,9.8-2.6c3.4,2,4.6,6.4,2.6,9.9c-2,3.5-6.4,4.6-9.8,2.6
				C-56.4-5.6-57.6-10.1-55.6-13.5z M-12.3,8.3c-1.4,1.4-3.2,2.1-5.4,2.1c-1.1,0-2.1-0.2-3-0.6c-0.9-0.4-1.7-0.9-2.4-1.6
				c-0.7-0.7-1.2-1.5-1.5-2.4c-0.4-0.9-0.6-2-0.6-3.1c0-1.1,0.2-2.1,0.6-3c0.4-0.9,0.9-1.7,1.6-2.4c0.7-0.7,1.5-1.2,2.4-1.5
				c0.9-0.4,1.9-0.6,3-0.6c1.1,0,2.1,0.2,3,0.6c0.9,0.4,1.7,0.9,2.4,1.6c0.7,0.7,1.2,1.5,1.6,2.3c0.4,0.9,0.6,1.9,0.6,2.9
				C-10.2,5-10.9,6.9-12.3,8.3z M-10.7-24.8v15.3c-1.2-1.2-2.5-2.1-3.9-2.7c-1.4-0.6-3-0.9-4.9-0.9c-2.1,0-4,0.4-5.8,1.2
				c-1.8,0.8-3.3,1.9-4.6,3.3c-1.3,1.4-2.3,3.1-3.1,5c-0.7,1.9-1.1,4-1.1,6.3c0,2.3,0.4,4.5,1.1,6.4c0.7,1.9,1.8,3.6,3.1,5
				c1.3,1.4,2.9,2.5,4.7,3.3c1.8,0.8,3.8,1.2,6,1.2c2.1,0,3.8-0.3,5.2-1c1.4-0.7,2.7-1.7,3.9-3.2v3.2h8.4v-42.6H-10.7z M-63.7-16.5
				c0.2-0.4,0.4-0.9,0.7-1.3c4.3-7.6,14-10.2,21.5-5.8C-34-19.2-31.4-9.6-35.8-2l-11.4,19.8h-10.2l6.8-11.9
				c-2.3-0.2-4.6-0.8-6.7-2.1c-2.9-1.7-5.1-4.2-6.4-7.1c-0.2,0.4-0.4,0.9-0.7,1.3l-11.4,19.8H-86l6.8-11.9c-2.3-0.2-4.6-0.8-6.7-2.1
				c-7.5-4.4-10.1-14.1-5.8-21.6c4.3-7.6,14-10.2,21.5-5.8C-67.2-21.9-65-19.4-63.7-16.5z M9-0.2c0.4-1.7,1.1-2.9,2.3-3.8
				c1.2-0.9,2.6-1.3,4.3-1.3c1.7,0,3.2,0.5,4.4,1.4c1.2,0.9,2,2.2,2.3,3.7H9z M29.9-3.1c-0.8-2-1.9-3.7-3.3-5.1
				c-1.4-1.4-3-2.6-5-3.4c-1.9-0.8-4-1.2-6.2-1.2c-2.1,0-4.1,0.4-6,1.2c-1.9,0.8-3.5,2-4.9,3.4c-1.4,1.4-2.5,3.1-3.3,5
				C0.6-1.3,0.2,0.8,0.2,3c0,2.2,0.4,4.3,1.2,6.2c0.8,1.9,1.9,3.6,3.3,5c1.4,1.4,3,2.5,4.9,3.4c1.9,0.8,3.9,1.2,6.1,1.2
				c3.1,0,6-0.9,8.5-2.7c2.4-1.7,4.3-4.1,5.7-7.1h-9.2c-0.9,0.9-1.8,1.5-2.6,1.8c-0.8,0.3-1.7,0.5-2.8,0.5c-1.8,0-3.2-0.5-4.4-1.5
				c-1.2-1-1.9-2.3-2.1-4h22.1C31.3,2.7,31.1-0.3,29.9-3.1z M55.5-3.5c-0.4-5.8-5-9.3-11.3-9.3c-6,0-11.5,3.8-11.5,9.6
				c0,3.5,2,6.4,9.4,8.7c4.4,1.4,5.4,2.2,5.4,3.9c0,1.4-1.5,2.3-3.1,2.3c-1.8,0-3.1-0.9-3.4-2.7h-8.8c0.6,6,5.4,9.8,12,9.8
				c6.7,0,12-3.9,12-10.1c0-4.3-2.3-7.1-9.3-9c-4.1-1.1-5.5-1.9-5.5-3.5c0-1.1,1.1-2,2.6-2c1.4,0,2.7,0.5,2.7,2.2H55.5z M63.2-15
				c2.9,0,5.3-2.4,5.3-5.3s-2.4-5.3-5.3-5.3c-2.9,0-5.3,2.4-5.3,5.3S60.2-15,63.2-15z M67.6,17.8h-8.8v-29.7h8.8V17.8z M84.5-6.2
				c2.7,0,4.9,2.2,4.9,4.9s-2.2,4.9-4.9,4.9c-2.7,0-4.9-2.2-4.9-4.9C79.6-4,81.8-6.2,84.5-6.2z M90.7,23.9c-1,1.4-2.9,1.9-4.5,1.9
				c-1.9,0.1-4.5-0.3-5.7-1.9c-1.2-1.5-1-3.6,0.7-4.6c0.5-0.3,1-0.5,1.5-0.6H87c1.9,0,4.4,0.5,4.3,2.9
				C91.4,22.5,91.1,23.3,90.7,23.9z M82.1,12c-3.6-0.6-3.5-2-2.6-2.7C87.6,12.4,97.6,8.4,97.6-1c0-3.5-1.3-5.7-2.2-6.7
				c0.7-1.4,1.6-2.2,3.4-2.6l-3.7-6.5c-3.4,0.3-5.6,2.4-6.6,4.5c-2-0.8-6.1-0.9-9.3,0.3c-1.6,0.6-3,1.4-4.2,2.5
				c-1.2,1-2.1,2.3-2.8,3.8c-0.7,1.5-1,3.1-1,4.8c0,2.3,0.7,4.9,2,6.8c-3.6,3.5-3.4,8.7,0.3,12c-0.4,0.3-0.8,0.6-1.1,1
				c-3.3,3.6-1.8,8.7,2.1,11.3c4.8,3.5,13.4,3.7,18.7,1.3c9.3-3.8,9.6-17.6-1.2-19.4C89.1,11.5,85.7,12.5,82.1,12z M101,17.8h8.9
				V1.2c0-3.9,1.7-5.8,5-5.8c1.6,0,2.8,0.5,3.5,1.5c0.7,1,1.1,2.6,1.1,4.7v16.2h8.9V-0.8c0-1.2-0.1-2.2-0.1-3.1
				c-0.1-0.9-0.3-1.7-0.5-2.4c-0.2-0.7-0.5-1.3-0.9-1.9c-0.4-0.6-0.9-1.1-1.4-1.7c-0.9-0.9-2.1-1.7-3.5-2.2
				c-1.4-0.5-2.9-0.8-4.4-0.8c-1.9,0-3.5,0.3-4.7,1c-1.2,0.7-2.4,1.7-3.4,3.2v-3.1H101V17.8z M153.4-3.5c-0.4-5.8-5-9.3-11.3-9.3
				c-6,0-11.5,3.8-11.5,9.6c0,3.5,2,6.4,9.4,8.7c4.4,1.4,5.4,2.2,5.4,3.9c0,1.4-1.5,2.3-3.1,2.3c-1.8,0-3.1-0.9-3.4-2.7h-8.8
				c0.6,6,5.4,9.8,12,9.8c6.7,0,12-3.9,12-10.1c0-4.3-2.3-7.1-9.3-9c-4.1-1.1-5.5-1.9-5.5-3.5c0-1.1,1.1-2,2.6-2
				c1.4,0,2.7,0.5,2.7,2.2H153.4z"/>
		</defs>
		<clipPath id="SVGID_6_">
			<use xlink:href="#SVGID_5_"  style="overflow:visible;"/>
		</clipPath>
		<g class="st8">
			<defs>
				<rect id="SVGID_7_" x="-135.1" y="-165.9" width="330.7" height="330.7"/>
			</defs>
			<clipPath id="SVGID_8_">
				<use xlink:href="#SVGID_7_"  style="overflow:visible;"/>
			</clipPath>
			<rect x="-95.8" y="-27.8" class="st9" width="252.2" height="62.8"/>
		</g>
	</g>
	<g class="st4">
		<path class="st10" d="M-88.7,77.4h7v3.1H-92V63.7h3.3V77.4z"/>
		<path class="st10" d="M-67.4,74.4c0,3.8-2.7,6.4-6.4,6.4c-3.6,0-6.4-2.6-6.4-6.4c0-3.8,2.7-6.3,6.4-6.3
			C-70.1,68-67.4,70.6-67.4,74.4z M-76.9,74.4c0,2,1.3,3.5,3.2,3.5c1.9,0,3.1-1.5,3.1-3.5c0-2-1.2-3.5-3.1-3.5
			C-75.6,70.9-76.9,72.3-76.9,74.4z"/>
		<path class="st10" d="M-53.8,70.9h-1.8c0.1,0.4,0.2,0.9,0.2,1.4c0,2.4-2,4.2-4.8,4.2c-0.7,0-1.4-0.1-2-0.3
			c-0.2,0.2-0.3,0.5-0.3,0.9c0,0.6,0.5,1,1.2,1h2.9c2.5,0,4,1.2,4,3.5c0,2.7-2.1,4.2-5.4,4.2c-3.6,0-5.5-1.3-5.5-3.7
			c0-1.1,0.6-1.8,1.2-2.1c-0.7-0.5-1.4-1.4-1.4-2.6c0-1.2,0.5-2,1.2-2.6c-0.5-0.7-0.8-1.5-0.8-2.5c0-2.5,2.1-4.3,4.9-4.3
			c0.6,0,1.2,0.1,1.8,0.3h4.6V70.9z M-61,80.5c-0.7,0.1-1.2,0.6-1.2,1.4c0,1.1,1,1.7,2.5,1.7c1.4,0,2.3-0.6,2.3-1.7
			c0-0.9-0.7-1.3-1.7-1.3H-61z M-62,72.3c0,1.1,0.7,1.9,1.8,1.9s1.8-0.8,1.8-1.9c0-1.2-0.7-2-1.8-2C-61.3,70.4-62,71.2-62,72.3z"/>
		<path class="st10" d="M-40,74.4c0,3.8-2.7,6.4-6.4,6.4c-3.6,0-6.4-2.6-6.4-6.4c0-3.8,2.7-6.3,6.4-6.3C-42.7,68-40,70.6-40,74.4z
			 M-49.5,74.4c0,2,1.3,3.5,3.2,3.5c1.9,0,3.1-1.5,3.1-3.5c0-2-1.2-3.5-3.1-3.5C-48.2,70.9-49.5,72.3-49.5,74.4z"/>
		<path class="st10" d="M-28.5,68.3h2.8v2.8h-2.8l0,4.9c0,1.2,0.4,1.8,1.6,1.8c0.6,0,0.9-0.1,1.3-0.2v2.7c-0.4,0.1-1,0.3-2,0.3
			c-2.7,0-4-1.1-4-3.8l0-5.7h-2v-2.8h2l0-3h3.1L-28.5,68.3z"/>
		<path class="st10" d="M-12.1,74.4v1h-8.5c0.1,1.6,1.2,2.7,2.9,2.7c1.2,0,2.1-0.5,2.4-1.4h3c-0.7,2.6-2.6,4.1-5.6,4.1
			c-3.6,0-6-2.5-6-6.3c0-3.7,2.4-6.4,6-6.4C-14.6,68-12.1,70-12.1,74.4z M-20.6,73.2h5.3c0-1.5-1-2.5-2.6-2.5
			C-19.4,70.6-20.4,71.7-20.6,73.2z"/>
		<path class="st10" d="M7.7,72.6v7.9H4.6v-7.2c0-1.4-0.6-2.2-1.7-2.2c-1.2,0-2.1,0.9-2.1,2.8v6.6h-3.1v-7.2c0-1.4-0.6-2.2-1.7-2.2
			c-1.2,0-2.1,1-2.1,3v6.4h-3.1V68.3h2.7l0.2,1.6c0.6-1,1.7-1.8,3.2-1.8c1.7,0,2.9,0.8,3.5,2.1C0.9,69,2.1,68,3.8,68
			C6.4,68,7.7,69.8,7.7,72.6z"/>
		<path class="st10" d="M23.6,74.4c0,3.6-2.4,6.4-5.7,6.4c-1.8,0-3-0.7-3.6-1.6v6.5h-3.1V68.3h2.7l0.2,1.6c0.7-1,1.8-1.9,3.9-1.9
			C21.2,68,23.6,70.8,23.6,74.4z M14.2,74.3v0.1c0,2.1,1.6,3.3,3.1,3.3c1.7,0,3.1-1.3,3.1-3.4c0-2.1-1.3-3.4-3.1-3.4
			C15.7,71,14.2,72.1,14.2,74.3z"/>
		<path class="st10" d="M29.4,80.5h-3.1V62.9h3.1V80.5z"/>
		<path class="st10" d="M42.3,72.5v8h-2.7L39.5,79c-0.6,1-1.8,1.8-3.5,1.8c-2.2,0-3.7-1.3-3.7-3.5c0-2.4,1.6-3.3,3.8-3.6l3.1-0.6
			v-0.5c0-1.2-0.6-1.8-1.7-1.8c-1,0-1.8,0.6-1.8,1.6h-3c0.1-2.5,2-4.3,4.8-4.3S42.3,69.5,42.3,72.5z M36.8,75.6
			c-0.8,0.2-1.4,0.6-1.4,1.4c0,0.7,0.5,1.2,1.4,1.2c0.8,0,1.5-0.4,1.9-1.1c0.3-0.4,0.4-1,0.4-1.6v-0.4L36.8,75.6z"/>
		<path class="st10" d="M49.4,68.3h2.8v2.8h-2.8l0,4.9c0,1.2,0.4,1.8,1.6,1.8c0.6,0,0.9-0.1,1.3-0.2v2.7c-0.4,0.1-1,0.3-2,0.3
			c-2.7,0-4-1.1-4-3.8l0-5.7h-2v-2.8h2l0-3h3.1L49.4,68.3z"/>
		<path class="st10" d="M65.8,74.4v1h-8.5c0.1,1.6,1.2,2.7,2.9,2.7c1.2,0,2.1-0.5,2.4-1.4h3c-0.7,2.6-2.6,4.1-5.6,4.1
			c-3.6,0-6-2.5-6-6.3c0-3.7,2.4-6.4,6-6.4C63.3,68,65.8,70,65.8,74.4z M57.3,73.2h5.3c0-1.5-1-2.5-2.6-2.5
			C58.5,70.6,57.5,71.7,57.3,73.2z"/>
		<path class="st11" d="M78.8,64.1c-2,2.7-3,5-3,8.6c0,3.6,1,6,3,8.6l-2.2,1.5c-2.2-2.7-3.7-5.7-3.7-10.1s1.5-7.4,3.7-10.1
			L78.8,64.1z"/>
		<path class="st11" d="M86.8,80.5h-3.3V68.8H80V66c2.6,0,4-0.6,4.4-2.4h2.4V80.5z"/>
		<path class="st11" d="M101.6,72c0,5.4-2.1,8.7-6,8.7s-6-3.4-6-8.7c0-5.4,2.1-8.7,6-8.7S101.6,66.7,101.6,72z M93,72
			c0,3.6,0.9,5.7,2.6,5.7c1.8,0,2.6-2.1,2.6-5.7c0-3.5-0.9-5.6-2.6-5.6C93.8,66.4,93,68.5,93,72z"/>
		<path class="st11" d="M115.5,72c0,5.4-2.1,8.7-6,8.7s-6-3.4-6-8.7c0-5.4,2.1-8.7,6-8.7S115.5,66.7,115.5,72z M106.9,72
			c0,3.6,0.9,5.7,2.6,5.7c1.8,0,2.6-2.1,2.6-5.7c0-3.5-0.9-5.6-2.6-5.6C107.8,66.4,106.9,68.5,106.9,72z"/>
		<path class="st11" d="M129.5,72c0,5.4-2.1,8.7-6,8.7s-6-3.4-6-8.7c0-5.4,2.1-8.7,6-8.7S129.5,66.7,129.5,72z M120.9,72
			c0,3.6,0.9,5.7,2.6,5.7c1.8,0,2.6-2.1,2.6-5.7c0-3.5-0.9-5.6-2.6-5.6C121.8,66.4,120.9,68.5,120.9,72z"/>
		<path class="st11" d="M146.3,71.9l5.7,8.5h-3.9l-4-6.1l-4,6.1h-3.9l5.6-8.5l-5.5-8.3h3.9l3.9,5.8l3.9-5.8h3.9L146.3,71.9z"/>
		<path class="st11" d="M165.2,80.5h-3.3V68.8h-3.5V66c2.6,0,4-0.6,4.4-2.4h2.4V80.5z"/>
		<path class="st11" d="M180,72c0,5.4-2.1,8.7-6,8.7c-3.8,0-6-3.4-6-8.7c0-5.4,2.1-8.7,6-8.7C177.8,63.3,180,66.7,180,72z M171.4,72
			c0,3.6,0.9,5.7,2.6,5.7c1.8,0,2.6-2.1,2.6-5.7c0-3.5-0.9-5.6-2.6-5.6C172.2,66.4,171.4,68.5,171.4,72z"/>
		<path class="st11" d="M193.9,72c0,5.4-2.1,8.7-6,8.7c-3.8,0-6-3.4-6-8.7c0-5.4,2.1-8.7,6-8.7C191.8,63.3,193.9,66.7,193.9,72z
			 M185.3,72c0,3.6,0.9,5.7,2.6,5.7c1.8,0,2.6-2.1,2.6-5.7c0-3.5-0.9-5.6-2.6-5.6C186.2,66.4,185.3,68.5,185.3,72z"/>
		<path class="st11" d="M207.9,72c0,5.4-2.1,8.7-6,8.7c-3.8,0-6-3.4-6-8.7c0-5.4,2.1-8.7,6-8.7C205.8,63.3,207.9,66.7,207.9,72z
			 M199.3,72c0,3.6,0.9,5.7,2.6,5.7c1.8,0,2.6-2.1,2.6-5.7c0-3.5-0.9-5.6-2.6-5.6C200.2,66.4,199.3,68.5,199.3,72z"/>
		<path class="st11" d="M223.2,74.4c0,3.6-2.4,6.4-5.7,6.4c-1.8,0-3-0.7-3.6-1.6v6.5h-3.1V68.3h2.7l0.2,1.6c0.7-1,1.8-1.9,3.9-1.9
			C220.8,68,223.2,70.8,223.2,74.4z M213.8,74.3v0.1c0,2.1,1.6,3.3,3.1,3.3c1.7,0,3.1-1.3,3.1-3.4c0-2.1-1.3-3.4-3.1-3.4
			C215.3,71,213.8,72.1,213.8,74.3z"/>
		<path class="st11" d="M232.3,74.3l3.8,6.2h-3.6l-2.4-3.8l-2.4,3.8h-3.6l3.8-6.2l-3.7-6h3.6l2.2,3.6l2.2-3.6h3.6L232.3,74.3z"/>
		<path class="st11" d="M242.9,72.8c0,4.4-1.6,7.4-3.8,10.1l-2.2-1.5c2-2.7,3-5,3-8.6c0-3.6-1-6-3-8.6l2.2-1.5
			C241.4,65.4,242.9,68.3,242.9,72.8z"/>
	</g>
	<g class="st4">
		<path class="st12" d="M-90.1,134.8h4.5v1.3h-4.5V134.8z"/>
		<path class="st12" d="M-76.9,136v4.7h-1.5v-12.2h3.7c2.4,0,4.2,1.1,4.2,3.8c0,2.6-1.8,3.8-4.3,3.8H-76.9z M-74.8,134.8
			c1.8,0,2.8-0.9,2.8-2.6c0-1.8-1-2.6-2.8-2.6h-2.1v5.2H-74.8z"/>
		<path class="st12" d="M-68.4,128h1.4v12.6h-1.4V128z"/>
		<path class="st12" d="M-64.2,134.5c0-1.5,1.2-2.5,3.2-2.5c2.1,0,3.1,0.9,3.1,3.1v3.4c0,0.7,0.1,0.9,0.8,1v1.2h-0.2
			c-1.3,0-1.8-0.5-1.9-1.5h0c-0.4,1-1.5,1.6-2.7,1.6c-1.7,0-2.7-0.9-2.7-2.4c0-0.9,0.4-1.7,1.3-2.1c0.9-0.5,2.2-0.6,4.1-0.7v-0.4
			c0-1.5-0.6-2.1-1.8-2.1c-1.2,0-1.7,0.7-1.8,1.4H-64.2z M-59.3,136.8v-0.2c-1.8,0.1-2.9,0.2-3.4,0.6c-0.3,0.2-0.5,0.6-0.5,1
			c0,0.9,0.6,1.3,1.5,1.3C-60.6,139.6-59.3,138.9-59.3,136.8z"/>
		<path class="st12" d="M-49.8,134.8c-0.1-0.9-0.7-1.6-1.9-1.6c-1.5,0-2.3,1.3-2.3,3.3c0,2,0.6,3.3,2.3,3.3c1.6,0,2-1.2,2.1-1.8h1.3
			c-0.2,2-1.6,2.9-3.4,2.9c-2.4,0-3.7-1.7-3.7-4.4c0-2.6,1.4-4.5,3.8-4.5c1.7,0,3.2,0.8,3.3,2.8H-49.8z"/>
		<path class="st12" d="M-42.9,140.9c-2.6,0-3.8-1.9-3.8-4.4c0-2.5,1.3-4.5,3.8-4.5c2.5,0,3.5,2,3.5,4.1v0.7h-5.8
			c0.1,1.7,0.8,2.9,2.4,2.9c1.4,0,1.8-0.8,1.9-1.3h1.4C-39.9,139.9-41.1,140.9-42.9,140.9z M-40.9,135.6c0-1.4-0.6-2.5-2.1-2.5
			c-1.3,0-2.1,1.1-2.3,2.6L-40.9,135.6L-40.9,135.6z"/>
		<path class="st12" d="M-33.4,132.2h1.4l1.8,5.3c0.3,0.8,0.4,1.3,0.4,1.3h0c0,0,0.1-0.5,0.4-1.3l1.7-5.3h1.4l-3.1,9
			c-0.7,1.9-1.2,2.7-3.1,2.7c-0.3,0-0.6,0-0.9-0.1v-1.2c0.3,0.1,0.6,0.1,0.7,0.1c1.1,0,1.4-0.4,1.8-1.5l0.2-0.4L-33.4,132.2z"/>
		<path class="st12" d="M-24.9,136.4c0-2.6,1.4-4.4,3.8-4.4c2.5,0,3.8,1.8,3.8,4.4c0,2.6-1.4,4.4-3.8,4.4
			C-23.6,140.9-24.9,139.1-24.9,136.4z M-23.4,136.4c0,2.1,0.7,3.3,2.3,3.3c1.6,0,2.3-1.2,2.3-3.3c0-2-0.7-3.3-2.3-3.3
			C-22.6,133.1-23.4,134.4-23.4,136.4z"/>
		<path class="st12" d="M-13.5,137.4c0,0.6,0,1.3,0.3,1.7c0.3,0.4,0.7,0.6,1.3,0.6c1.6,0,2.3-1,2.3-2.9v-4.6h1.4v8.4h-1.4v-1.4h0
			c-0.4,0.9-1.3,1.6-2.7,1.6c-1.6,0-2.7-0.8-2.7-2.8v-5.9h1.4V137.4z"/>
		<path class="st12" d="M-5,132.2h1.4v1.6h0c0.4-0.9,1.4-1.7,2.7-1.7h0.1v1.5H-1c-1.5,0-2.5,0.9-2.5,2.5v4.6H-5V132.2z"/>
		<path class="st12" d="M5.9,128h1.4v12.6H5.9V128z"/>
		<path class="st12" d="M9.8,136.4c0-2.6,1.4-4.4,3.8-4.4c2.5,0,3.8,1.8,3.8,4.4c0,2.6-1.4,4.4-3.8,4.4
			C11.1,140.9,9.8,139.1,9.8,136.4z M11.3,136.4c0,2.1,0.7,3.3,2.3,3.3c1.6,0,2.3-1.2,2.3-3.3c0-2-0.7-3.3-2.3-3.3
			C12,133.1,11.3,134.4,11.3,136.4z"/>
		<path class="st12" d="M19.4,141.5h1.4c0.2,0.7,0.7,1.2,2.1,1.2c1.6,0,2.4-0.6,2.4-2.4V139h0c-0.4,0.8-1.4,1.6-2.7,1.6
			c-1.8,0-3.4-1.1-3.4-4.2c0-2.8,1.5-4.3,3.6-4.3c1.4,0,2.2,0.8,2.5,1.5h0v-1.3h1.4v8.2c0,2.4-1.6,3.4-3.8,3.4
			C21.2,143.8,19.6,143.2,19.4,141.5z M25.3,136c0-1.7-0.9-2.8-2.4-2.8c-1.5,0-2.2,1.3-2.2,3.2c0,1.9,0.5,3.1,2.3,3.1
			c1.4,0,2.3-1.2,2.3-2.6V136z"/>
		<path class="st12" d="M29.1,136.4c0-2.6,1.4-4.4,3.8-4.4c2.5,0,3.8,1.8,3.8,4.4c0,2.6-1.4,4.4-3.8,4.4
			C30.4,140.9,29.1,139.1,29.1,136.4z M30.6,136.4c0,2.1,0.7,3.3,2.3,3.3c1.6,0,2.3-1.2,2.3-3.3c0-2-0.7-3.3-2.3-3.3
			C31.3,133.1,30.6,134.4,30.6,136.4z"/>
		<path class="st12" d="M42.5,132.2H44l1.6,5.7c0.1,0.5,0.3,1.1,0.3,1.1h0c0,0,0.2-0.6,0.3-1.1l1.8-5.7h1.5l1.8,5.7
			c0.2,0.5,0.3,1.1,0.3,1.1h0c0,0,0.1-0.6,0.3-1.1l1.7-5.7h1.4l-2.6,8.4h-1.5l-1.5-5c-0.2-0.8-0.5-1.8-0.5-1.8h0c0,0-0.3,1-0.5,1.8
			l-1.6,5h-1.5L42.5,132.2z"/>
		<path class="st12" d="M57,128.7h1.5v1.6H57V128.7z M57,132.2h1.5v8.4H57V132.2z"/>
		<path class="st12" d="M63.4,129.8v2.4h2.1v1.1h-2.1v5c0,0.9,0.4,1.2,1.3,1.2c0.4,0,0.9-0.1,0.9-0.1v1.2c0,0-0.6,0.1-1.3,0.1
			c-1.6,0-2.3-0.8-2.3-2.2v-5.2h-1.5v-1.1h0.3c1.1,0,1.4-0.3,1.4-1.9v-0.6H63.4z"/>
		<path class="st12" d="M73,135.4c0-0.6,0-1.3-0.3-1.7c-0.3-0.4-0.8-0.6-1.3-0.6c-1.6,0-2.3,1-2.3,2.4v5.1h-1.4V128h1.4v5.6h0
			c0.4-0.8,1.3-1.6,2.6-1.6c1.6,0,2.7,0.8,2.7,2.8v5.9H73V135.4z"/>
		<path class="st12" d="M77.5,128.7H79v1.6h-1.5V128.7z M77.5,132.2H79v8.4h-1.5V132.2z"/>
		<path class="st12" d="M87.5,135.5c0-0.6,0-1.3-0.3-1.7c-0.3-0.4-0.8-0.6-1.3-0.6c-1.6,0-2.3,1-2.3,2.4v5.1h-1.4v-8.4h1.4v1.4h0
			c0.4-0.9,1.4-1.6,2.7-1.6c1.6,0,2.7,0.8,2.7,2.8v5.9h-1.4V135.5z"/>
		<path class="st12" d="M98.3,129.8v2.4h2.1v1.1h-2.1v5c0,0.9,0.4,1.2,1.3,1.2c0.4,0,0.9-0.1,0.9-0.1v1.2c0,0-0.6,0.1-1.3,0.1
			c-1.6,0-2.3-0.8-2.3-2.2v-5.2h-1.5v-1.1h0.3c1.1,0,1.4-0.3,1.4-1.9v-0.6H98.3z"/>
		<path class="st12" d="M107.9,135.4c0-0.6,0-1.3-0.3-1.7c-0.3-0.4-0.8-0.6-1.3-0.6c-1.6,0-2.3,1-2.3,2.4v5.1h-1.4V128h1.4v5.6h0
			c0.4-0.8,1.3-1.6,2.6-1.6c1.6,0,2.7,0.8,2.7,2.8v5.9h-1.4V135.4z"/>
		<path class="st12" d="M115.4,140.9c-2.6,0-3.8-1.9-3.8-4.4c0-2.5,1.3-4.5,3.8-4.5c2.5,0,3.5,2,3.5,4.1v0.7h-5.8
			c0.1,1.7,0.8,2.9,2.4,2.9c1.4,0,1.8-0.8,1.9-1.3h1.4C118.5,139.9,117.3,140.9,115.4,140.9z M117.4,135.6c0-1.4-0.6-2.5-2.1-2.5
			c-1.3,0-2.1,1.1-2.3,2.6L117.4,135.6L117.4,135.6z"/>
		<path class="st12" d="M130.8,134.8c-0.1-0.9-0.7-1.6-1.9-1.6c-1.5,0-2.3,1.3-2.3,3.3c0,2,0.6,3.3,2.3,3.3c1.6,0,2-1.2,2.1-1.8h1.3
			c-0.2,2-1.6,2.9-3.4,2.9c-2.4,0-3.7-1.7-3.7-4.4c0-2.6,1.4-4.5,3.8-4.5c1.7,0,3.2,0.8,3.3,2.8H130.8z"/>
		<path class="st12" d="M134.6,132.2h1.4v1.6h0c0.4-0.9,1.4-1.7,2.7-1.7h0.1v1.5h-0.3c-1.5,0-2.5,0.9-2.5,2.5v4.6h-1.4V132.2z"/>
		<path class="st12" d="M140.1,136.4c0-2.6,1.4-4.4,3.8-4.4c2.5,0,3.8,1.8,3.8,4.4c0,2.6-1.4,4.4-3.8,4.4
			C141.4,140.9,140.1,139.1,140.1,136.4z M141.6,136.4c0,2.1,0.7,3.3,2.3,3.3c1.6,0,2.3-1.2,2.3-3.3c0-2-0.7-3.3-2.3-3.3
			C142.3,133.1,141.6,134.4,141.6,136.4z"/>
		<path class="st12" d="M150.1,132.2h1.4v1.4h0c0.5-0.9,1.4-1.6,2.7-1.6c1.8,0,3.4,1.1,3.4,4.3c0,3.1-1.6,4.5-3.5,4.5
			c-1.2,0-2.2-0.7-2.5-1.4h0v4.2h-1.4V132.2z M153.9,139.7c1.5,0,2.2-1.2,2.2-3.4c0-1.8-0.5-3.2-2.3-3.2c-1.5,0-2.4,1.3-2.4,2.7v0.9
			C151.5,138.4,152.3,139.7,153.9,139.7z"/>
		<path class="st12" d="M160,132.2h1.4v1.4h0c0.5-0.9,1.4-1.6,2.7-1.6c1.8,0,3.4,1.1,3.4,4.3c0,3.1-1.6,4.5-3.5,4.5
			c-1.2,0-2.2-0.7-2.5-1.4h0v4.2H160V132.2z M163.8,139.7c1.5,0,2.2-1.2,2.2-3.4c0-1.8-0.5-3.2-2.3-3.2c-1.5,0-2.4,1.3-2.4,2.7v0.9
			C161.4,138.4,162.2,139.7,163.8,139.7z"/>
		<path class="st12" d="M169.9,128.7h1.5v1.6h-1.5V128.7z M170,132.2h1.5v8.4H170V132.2z"/>
		<path class="st12" d="M179.9,135.5c0-0.6,0-1.3-0.3-1.7c-0.3-0.4-0.8-0.6-1.3-0.6c-1.6,0-2.3,1-2.3,2.4v5.1h-1.4v-8.4h1.4v1.4h0
			c0.4-0.9,1.4-1.6,2.7-1.6c1.6,0,2.7,0.8,2.7,2.8v5.9h-1.4V135.5z"/>
		<path class="st12" d="M183.9,141.5h1.4c0.2,0.7,0.7,1.2,2.1,1.2c1.6,0,2.4-0.6,2.4-2.4V139h0c-0.4,0.8-1.4,1.6-2.7,1.6
			c-1.8,0-3.4-1.1-3.4-4.2c0-2.8,1.5-4.3,3.6-4.3c1.4,0,2.2,0.8,2.5,1.5h0v-1.3h1.4v8.2c0,2.4-1.6,3.4-3.8,3.4
			C185.8,143.8,184.1,143.2,183.9,141.5z M189.8,136c0-1.7-0.9-2.8-2.4-2.8c-1.5,0-2.2,1.3-2.2,3.2c0,1.9,0.5,3.1,2.3,3.1
			c1.4,0,2.3-1.2,2.3-2.6V136z"/>
		<path class="st12" d="M198.3,141.5h1.4c0.2,0.7,0.7,1.2,2.1,1.2c1.6,0,2.4-0.6,2.4-2.4V139h0c-0.4,0.8-1.4,1.6-2.7,1.6
			c-1.8,0-3.4-1.1-3.4-4.2c0-2.8,1.5-4.3,3.6-4.3c1.4,0,2.2,0.8,2.5,1.5h0v-1.3h1.4v8.2c0,2.4-1.6,3.4-3.8,3.4
			C200.2,143.8,198.5,143.2,198.3,141.5z M204.2,136c0-1.7-0.9-2.8-2.4-2.8c-1.5,0-2.2,1.3-2.2,3.2c0,1.9,0.5,3.1,2.3,3.1
			c1.4,0,2.3-1.2,2.3-2.6V136z"/>
		<path class="st12" d="M210.1,137.4c0,0.6,0,1.3,0.3,1.7c0.3,0.4,0.7,0.6,1.3,0.6c1.6,0,2.3-1,2.3-2.9v-4.6h1.4v8.4h-1.4v-1.4h0
			c-0.4,0.9-1.3,1.6-2.7,1.6c-1.6,0-2.7-0.8-2.7-2.8v-5.9h1.4V137.4z"/>
		<path class="st12" d="M218.6,128.7h1.5v1.6h-1.5V128.7z M218.6,132.2h1.5v8.4h-1.5V132.2z"/>
		<path class="st12" d="M230,140.7h-1.4v-1.4h0c-0.4,0.8-1.4,1.6-2.7,1.6c-1.8,0-3.4-1.1-3.4-4.4c0-2.9,1.5-4.5,3.6-4.5
			c1.3,0,2.1,0.7,2.4,1.5h0V128h1.4V140.7z M228.6,136.1c0-1.8-0.9-2.9-2.3-2.9c-1.6,0-2.4,1.3-2.4,3.3c0,1.9,0.6,3.3,2.2,3.3
			c1.5,0,2.4-1.2,2.4-2.7V136.1z"/>
		<path class="st12" d="M236.2,140.9c-2.6,0-3.8-1.9-3.8-4.4c0-2.5,1.3-4.5,3.8-4.5c2.5,0,3.5,2,3.5,4.1v0.7h-5.8
			c0.1,1.7,0.8,2.9,2.4,2.9c1.4,0,1.8-0.8,1.9-1.3h1.4C239.3,139.9,238,140.9,236.2,140.9z M238.2,135.6c0-1.4-0.6-2.5-2.1-2.5
			c-1.3,0-2.1,1.1-2.3,2.6L238.2,135.6L238.2,135.6z"/>
		<path class="st12" d="M246.3,134.3c-0.1-0.8-0.7-1.2-1.7-1.2s-1.6,0.6-1.6,1.4c0,0.7,0.4,1,1.3,1.2l1.3,0.2c1.8,0.3,2.4,1,2.4,2.4
			c0,1.7-1.4,2.6-3.3,2.6c-1.7,0-3.2-0.8-3.3-2.6h1.4c0.1,0.7,0.4,1.5,1.9,1.5c1.2,0,1.9-0.5,1.9-1.4c0-0.7-0.2-1-1.3-1.2l-1.3-0.2
			c-1.5-0.2-2.3-0.9-2.3-2.3c0-1.5,1.1-2.6,3.1-2.6c1.8,0,2.9,0.8,3,2.3H246.3z"/>
		<path class="st12" d="M249.8,138.7h2v2h-2V138.7z"/>
		<path class="st12" d="M-90.1,164.8h4.5v1.3h-4.5V164.8z"/>
		<path class="st12" d="M-73.5,158.2c3,0,5.5,2,5.5,6.3c0,4.4-2.5,6.3-5.5,6.3c-3,0-5.5-2-5.5-6.3
			C-78.9,160.2-76.4,158.2-73.5,158.2z M-69.5,164.6c0-3.4-1.6-5.2-4-5.2c-2.3,0-3.9,1.7-3.9,5.2c0,3.3,1.6,5.1,3.9,5.1
			C-71.2,169.7-69.5,167.9-69.5,164.6z"/>
		<path class="st12" d="M-63.8,167.4c0,0.6,0,1.3,0.3,1.7c0.3,0.4,0.7,0.6,1.3,0.6c1.6,0,2.3-1,2.3-2.9v-4.6h1.4v8.4h-1.4v-1.4h0
			c-0.4,0.9-1.3,1.6-2.7,1.6c-1.6,0-2.7-0.8-2.7-2.8v-5.9h1.4V167.4z"/>
		<path class="st12" d="M-53.5,159.8v2.4h2.1v1.1h-2.1v5c0,0.9,0.4,1.2,1.3,1.2c0.4,0,0.9-0.1,0.9-0.1v1.2c0,0-0.6,0.1-1.3,0.1
			c-1.6,0-2.3-0.8-2.3-2.2v-5.2h-1.5v-1.1h0.3c1.1,0,1.4-0.3,1.4-1.9v-0.6H-53.5z"/>
		<path class="st12" d="M-49.3,158h1.4v12.6h-1.4V158z"/>
		<path class="st12" d="M-44.8,158.7h1.5v1.6h-1.5V158.7z M-44.8,162.2h1.5v8.4h-1.5V162.2z"/>
		<path class="st12" d="M-34.8,165.5c0-0.6,0-1.3-0.3-1.7c-0.3-0.4-0.8-0.6-1.3-0.6c-1.6,0-2.3,1-2.3,2.4v5.1h-1.4v-8.4h1.4v1.4h0
			c0.4-0.9,1.4-1.6,2.7-1.6c1.6,0,2.7,0.8,2.7,2.8v5.9h-1.4V165.5z"/>
		<path class="st12" d="M-27.2,170.9c-2.6,0-3.8-1.9-3.8-4.4c0-2.5,1.3-4.5,3.8-4.5c2.5,0,3.5,2,3.5,4.1v0.7h-5.8
			c0.1,1.7,0.8,2.9,2.4,2.9c1.4,0,1.8-0.8,1.9-1.3h1.4C-24.1,169.9-25.4,170.9-27.2,170.9z M-25.2,165.6c0-1.4-0.6-2.5-2.1-2.5
			c-1.3,0-2.1,1.1-2.3,2.6L-25.2,165.6L-25.2,165.6z"/>
		<path class="st12" d="M-17.1,164.5c0-1.5,1.2-2.5,3.2-2.5c2.1,0,3.1,0.9,3.1,3.1v3.4c0,0.7,0.1,0.9,0.8,1v1.2h-0.2
			c-1.3,0-1.8-0.5-1.9-1.5h0c-0.4,1-1.5,1.6-2.7,1.6c-1.7,0-2.7-0.9-2.7-2.4c0-0.9,0.4-1.7,1.3-2.1c0.9-0.5,2.2-0.6,4.1-0.7v-0.4
			c0-1.5-0.6-2.1-1.8-2.1c-1.2,0-1.7,0.7-1.8,1.4H-17.1z M-12.2,166.8v-0.2c-1.8,0.1-2.9,0.2-3.4,0.6c-0.3,0.2-0.5,0.6-0.5,1
			c0,0.9,0.6,1.3,1.5,1.3C-13.5,169.6-12.2,168.9-12.2,166.8z"/>
		<path class="st12" d="M-7.8,158h1.4v12.6h-1.4V158z"/>
		<path class="st12" d="M-3.2,158h1.4v12.6h-1.4V158z"/>
		<path class="st12" d="M7.7,170.7H6.3v-7.3H4.7v-1.1h1.5v-1.9c0-1.7,1-2.3,2.6-2.3c0.3,0,0.6,0,0.9,0.1v1.2c-0.2,0-0.4-0.1-0.8-0.1
			c-0.8,0-1.2,0.3-1.2,1.3v1.7h2v1.1h-2V170.7z"/>
		<path class="st12" d="M10.9,166.4c0-2.6,1.4-4.4,3.8-4.4c2.5,0,3.8,1.8,3.8,4.4c0,2.6-1.4,4.4-3.8,4.4
			C12.2,170.9,10.9,169.1,10.9,166.4z M12.4,166.4c0,2.1,0.7,3.3,2.3,3.3c1.6,0,2.3-1.2,2.3-3.3c0-2-0.7-3.3-2.3-3.3
			C13.1,163.1,12.4,164.4,12.4,166.4z"/>
		<path class="st12" d="M26.3,165.5c0-0.6,0-1.3-0.3-1.7c-0.3-0.4-0.8-0.6-1.3-0.6c-1.6,0-2.3,1-2.3,2.4v5.1h-1.4v-8.4h1.4v1.4h0
			c0.4-0.9,1.4-1.6,2.7-1.6c1.6,0,2.7,0.8,2.7,2.8v5.9h-1.4V165.5z"/>
		<path class="st12" d="M32.6,159.8v2.4h2.1v1.1h-2.1v5c0,0.9,0.4,1.2,1.3,1.2c0.4,0,0.9-0.1,0.9-0.1v1.2c0,0-0.6,0.1-1.3,0.1
			c-1.6,0-2.3-0.8-2.3-2.2v-5.2h-1.5v-1.1h0.3c1.1,0,1.4-0.3,1.4-1.9v-0.6H32.6z"/>
		<path class="st12" d="M41,164.3c-0.1-0.8-0.7-1.2-1.7-1.2s-1.6,0.6-1.6,1.4c0,0.7,0.4,1,1.3,1.2l1.3,0.2c1.8,0.3,2.4,1,2.4,2.4
			c0,1.7-1.4,2.6-3.3,2.6c-1.7,0-3.2-0.8-3.3-2.6h1.4c0.1,0.7,0.4,1.5,1.9,1.5c1.2,0,1.9-0.5,1.9-1.4c0-0.7-0.2-1-1.3-1.2l-1.3-0.2
			c-1.5-0.2-2.3-0.9-2.3-2.3c0-1.5,1.1-2.6,3.1-2.6c1.8,0,2.9,0.8,3,2.3H41z"/>
		<path class="st12" d="M50.9,167.4c0,0.6,0,1.3,0.3,1.7c0.3,0.4,0.7,0.6,1.3,0.6c1.6,0,2.3-1,2.3-2.9v-4.6h1.4v8.4h-1.4v-1.4h0
			c-0.4,0.9-1.3,1.6-2.7,1.6c-1.6,0-2.7-0.8-2.7-2.8v-5.9h1.4V167.4z"/>
		<path class="st12" d="M63.6,164.3c-0.1-0.8-0.7-1.2-1.7-1.2s-1.6,0.6-1.6,1.4c0,0.7,0.4,1,1.3,1.2l1.3,0.2c1.8,0.3,2.4,1,2.4,2.4
			c0,1.7-1.4,2.6-3.3,2.6c-1.7,0-3.2-0.8-3.3-2.6H60c0.1,0.7,0.4,1.5,1.9,1.5c1.2,0,1.9-0.5,1.9-1.4c0-0.7-0.2-1-1.3-1.2l-1.3-0.2
			c-1.5-0.2-2.3-0.9-2.3-2.3c0-1.5,1.1-2.6,3.1-2.6c1.8,0,2.9,0.8,3,2.3H63.6z"/>
		<path class="st12" d="M70.8,170.9c-2.6,0-3.8-1.9-3.8-4.4c0-2.5,1.3-4.5,3.8-4.5c2.5,0,3.5,2,3.5,4.1v0.7h-5.8
			c0.1,1.7,0.8,2.9,2.4,2.9c1.4,0,1.8-0.8,1.9-1.3h1.4C73.8,169.9,72.6,170.9,70.8,170.9z M72.8,165.6c0-1.4-0.6-2.5-2.1-2.5
			c-1.3,0-2.1,1.1-2.3,2.6L72.8,165.6L72.8,165.6z"/>
		<path class="st12" d="M83.5,170.7h-1.4v-1.4h0c-0.4,0.8-1.4,1.6-2.7,1.6c-1.8,0-3.4-1.1-3.4-4.4c0-2.9,1.5-4.5,3.6-4.5
			c1.3,0,2.1,0.7,2.4,1.5h0V158h1.4V170.7z M82.1,166.1c0-1.8-0.9-2.9-2.3-2.9c-1.6,0-2.4,1.3-2.4,3.3c0,1.9,0.6,3.3,2.2,3.3
			c1.5,0,2.4-1.2,2.4-2.7V166.1z"/>
		<path class="st12" d="M91.2,158.7h1.5v1.6h-1.5V158.7z M91.2,162.2h1.5v8.4h-1.5V162.2z"/>
		<path class="st12" d="M101.2,165.5c0-0.6,0-1.3-0.3-1.7c-0.3-0.4-0.8-0.6-1.3-0.6c-1.6,0-2.3,1-2.3,2.4v5.1h-1.4v-8.4h1.4v1.4h0
			c0.4-0.9,1.4-1.6,2.7-1.6c1.6,0,2.7,0.8,2.7,2.8v5.9h-1.4V165.5z"/>
		<path class="st12" d="M109.3,162.2h1.4l1.8,5.3c0.3,0.8,0.4,1.3,0.4,1.3h0c0,0,0.1-0.5,0.4-1.3l1.7-5.3h1.4l-3.1,9
			c-0.7,1.9-1.2,2.7-3.1,2.7c-0.3,0-0.6,0-0.9-0.1v-1.2c0.3,0.1,0.6,0.1,0.7,0.1c1.1,0,1.4-0.4,1.8-1.5l0.2-0.4L109.3,162.2z"/>
		<path class="st12" d="M117.9,166.4c0-2.6,1.4-4.4,3.8-4.4c2.5,0,3.8,1.8,3.8,4.4c0,2.6-1.4,4.4-3.8,4.4
			C119.2,170.9,117.9,169.1,117.9,166.4z M119.4,166.4c0,2.1,0.7,3.3,2.3,3.3c1.6,0,2.3-1.2,2.3-3.3c0-2-0.7-3.3-2.3-3.3
			C120.1,163.1,119.4,164.4,119.4,166.4z"/>
		<path class="st12" d="M129.3,167.4c0,0.6,0,1.3,0.3,1.7c0.3,0.4,0.7,0.6,1.3,0.6c1.6,0,2.3-1,2.3-2.9v-4.6h1.4v8.4h-1.4v-1.4h0
			c-0.4,0.9-1.3,1.6-2.7,1.6c-1.6,0-2.7-0.8-2.7-2.8v-5.9h1.4V167.4z"/>
		<path class="st12" d="M137.8,162.2h1.4v1.6h0c0.4-0.9,1.4-1.7,2.7-1.7h0.1v1.5h-0.3c-1.5,0-2.5,0.9-2.5,2.5v4.6h-1.4V162.2z"/>
		<path class="st12" d="M155.4,170.7h-1.4v-1.4h0c-0.4,0.8-1.4,1.6-2.7,1.6c-1.8,0-3.4-1.1-3.4-4.4c0-2.9,1.5-4.5,3.6-4.5
			c1.3,0,2.1,0.7,2.4,1.5h0V158h1.4V170.7z M154,166.1c0-1.8-0.9-2.9-2.3-2.9c-1.6,0-2.4,1.3-2.4,3.3c0,1.9,0.6,3.3,2.2,3.3
			c1.5,0,2.4-1.2,2.4-2.7V166.1z"/>
		<path class="st12" d="M161.7,170.9c-2.6,0-3.8-1.9-3.8-4.4c0-2.5,1.3-4.5,3.8-4.5c2.5,0,3.5,2,3.5,4.1v0.7h-5.8
			c0.1,1.7,0.8,2.9,2.4,2.9c1.4,0,1.8-0.8,1.9-1.3h1.4C164.7,169.9,163.5,170.9,161.7,170.9z M163.7,165.6c0-1.4-0.6-2.5-2.1-2.5
			c-1.3,0-2.1,1.1-2.3,2.6L163.7,165.6L163.7,165.6z"/>
		<path class="st12" d="M171.7,164.3c-0.1-0.8-0.7-1.2-1.7-1.2s-1.6,0.6-1.6,1.4c0,0.7,0.4,1,1.3,1.2l1.3,0.2c1.8,0.3,2.4,1,2.4,2.4
			c0,1.7-1.4,2.6-3.3,2.6c-1.7,0-3.2-0.8-3.3-2.6h1.4c0.1,0.7,0.4,1.5,1.9,1.5c1.2,0,1.9-0.5,1.9-1.4c0-0.7-0.2-1-1.3-1.2l-1.3-0.2
			c-1.5-0.2-2.3-0.9-2.3-2.3c0-1.5,1.1-2.6,3.1-2.6c1.8,0,2.9,0.8,3,2.3H171.7z"/>
		<path class="st12" d="M175.8,158.7h1.5v1.6h-1.5V158.7z M175.9,162.2h1.5v8.4h-1.5V162.2z"/>
		<path class="st12" d="M179.9,171.5h1.4c0.2,0.7,0.7,1.2,2.1,1.2c1.6,0,2.4-0.6,2.4-2.4V169h0c-0.4,0.8-1.4,1.6-2.7,1.6
			c-1.8,0-3.4-1.1-3.4-4.2c0-2.8,1.5-4.3,3.6-4.3c1.4,0,2.2,0.8,2.5,1.5h0v-1.3h1.4v8.2c0,2.4-1.6,3.4-3.8,3.4
			C181.8,173.8,180.1,173.2,179.9,171.5z M185.8,166c0-1.7-0.9-2.8-2.4-2.8c-1.5,0-2.2,1.3-2.2,3.2c0,1.9,0.5,3.1,2.3,3.1
			c1.4,0,2.3-1.2,2.3-2.6V166z"/>
		<path class="st12" d="M195.8,165.5c0-0.6,0-1.3-0.3-1.7c-0.3-0.4-0.8-0.6-1.3-0.6c-1.6,0-2.3,1-2.3,2.4v5.1h-1.4v-8.4h1.4v1.4h0
			c0.4-0.9,1.4-1.6,2.7-1.6c1.6,0,2.7,0.8,2.7,2.8v5.9h-1.4V165.5z"/>
		<path class="st12" d="M199.7,168.7h2v2h-2V168.7z"/>
		<path class="st12" d="M-90.1,194.8h4.5v1.3h-4.5V194.8z"/>
		<path class="st12" d="M-78.4,188.4h7.8v1.3h-6.3v4.1h5.8v1.3h-5.8v4.2h6.4v1.3h-7.9V188.4z"/>
		<path class="st12" d="M-65.9,196.3l-2.7-4.1h1.7l1.8,2.9h0l1.9-2.9h1.6l-2.7,4l2.9,4.4h-1.7l-2.1-3.3h0l-2.1,3.3h-1.6L-65.9,196.3
			z"/>
		<path class="st12" d="M-59.3,192.2h1.4v1.4h0c0.5-0.9,1.4-1.6,2.7-1.6c1.8,0,3.4,1.1,3.4,4.3c0,3.1-1.6,4.5-3.5,4.5
			c-1.2,0-2.2-0.7-2.5-1.4h0v4.2h-1.4V192.2z M-55.5,199.7c1.5,0,2.2-1.2,2.2-3.4c0-1.8-0.5-3.2-2.3-3.2c-1.5,0-2.4,1.3-2.4,2.7v0.9
			C-58,198.4-57.1,199.7-55.5,199.7z"/>
		<path class="st12" d="M-50,196.4c0-2.6,1.4-4.4,3.8-4.4c2.5,0,3.8,1.8,3.8,4.4c0,2.6-1.4,4.4-3.8,4.4
			C-48.7,200.9-50,199.1-50,196.4z M-48.5,196.4c0,2.1,0.7,3.3,2.3,3.3c1.6,0,2.3-1.2,2.3-3.3c0-2-0.7-3.3-2.3-3.3
			C-47.8,193.1-48.5,194.4-48.5,196.4z"/>
		<path class="st12" d="M-40,192.2h1.4v1.6h0c0.4-0.9,1.4-1.7,2.7-1.7h0.1v1.5h-0.3c-1.5,0-2.5,0.9-2.5,2.5v4.6H-40V192.2z"/>
		<path class="st12" d="M-31.6,189.8v2.4h2.1v1.1h-2.1v5c0,0.9,0.4,1.2,1.3,1.2c0.4,0,0.9-0.1,0.9-0.1v1.2c0,0-0.6,0.1-1.3,0.1
			c-1.6,0-2.3-0.8-2.3-2.2v-5.2h-1.5v-1.1h0.3c1.1,0,1.4-0.3,1.4-1.9v-0.6H-31.6z"/>
		<path class="st12" d="M-23.2,194.5c0-1.5,1.2-2.5,3.2-2.5c2.1,0,3.1,0.9,3.1,3.1v3.4c0,0.7,0.1,0.9,0.8,1v1.2h-0.2
			c-1.3,0-1.8-0.5-1.9-1.5h0c-0.4,1-1.5,1.6-2.7,1.6c-1.7,0-2.7-0.9-2.7-2.4c0-0.9,0.4-1.7,1.3-2.1c0.9-0.5,2.2-0.6,4.1-0.7v-0.4
			c0-1.5-0.6-2.1-1.8-2.1c-1.2,0-1.7,0.7-1.8,1.4H-23.2z M-18.3,196.8v-0.2c-1.8,0.1-2.9,0.2-3.4,0.6c-0.3,0.2-0.5,0.6-0.5,1
			c0,0.9,0.6,1.3,1.5,1.3C-19.6,199.6-18.3,198.9-18.3,196.8z"/>
		<path class="st12" d="M-8.5,195.5c0-0.6,0-1.3-0.3-1.7c-0.3-0.4-0.8-0.6-1.3-0.6c-1.6,0-2.3,1-2.3,2.4v5.1h-1.4v-8.4h1.4v1.4h0
			c0.4-0.9,1.4-1.6,2.7-1.6c1.6,0,2.7,0.8,2.7,2.8v5.9h-1.4V195.5z"/>
		<path class="st12" d="M2.8,200.7H1.4v-1.4h0c-0.4,0.8-1.4,1.6-2.7,1.6c-1.8,0-3.4-1.1-3.4-4.4c0-2.9,1.5-4.5,3.6-4.5
			c1.3,0,2.1,0.7,2.4,1.5h0V188h1.4V200.7z M1.4,196.1c0-1.8-0.9-2.9-2.3-2.9c-1.6,0-2.4,1.3-2.4,3.3c0,1.9,0.6,3.3,2.2,3.3
			c1.5,0,2.4-1.2,2.4-2.7V196.1z"/>
		<path class="st12" d="M14.6,194.3c-0.1-0.8-0.7-1.2-1.7-1.2s-1.6,0.6-1.6,1.4c0,0.7,0.4,1,1.3,1.2l1.3,0.2c1.8,0.3,2.4,1,2.4,2.4
			c0,1.7-1.4,2.6-3.3,2.6c-1.7,0-3.2-0.8-3.3-2.6h1.4c0.1,0.7,0.4,1.5,1.9,1.5c1.2,0,1.9-0.5,1.9-1.4c0-0.7-0.2-1-1.3-1.2l-1.3-0.2
			c-1.5-0.2-2.3-0.9-2.3-2.3c0-1.5,1.1-2.6,3.1-2.6c1.8,0,2.9,0.8,3,2.3H14.6z"/>
		<path class="st12" d="M20,197.4c0,0.6,0,1.3,0.3,1.7c0.3,0.4,0.7,0.6,1.3,0.6c1.6,0,2.3-1,2.3-2.9v-4.6h1.4v8.4h-1.4v-1.4h0
			c-0.4,0.9-1.3,1.6-2.7,1.6c-1.6,0-2.7-0.8-2.7-2.8v-5.9H20V197.4z"/>
		<path class="st12" d="M28.5,188h1.4v5.6h0c0.5-0.9,1.4-1.6,2.7-1.6c1.8,0,3.4,1.1,3.4,4.3c0,3.1-1.6,4.5-3.5,4.5
			c-1.3,0-2.2-0.7-2.6-1.6h0v1.3h-1.4V188z M34.5,196.3c0-1.8-0.5-3.2-2.3-3.2c-1.5,0-2.4,1.3-2.4,2.7v0.9c0,1.7,0.8,3,2.4,3
			C33.8,199.7,34.5,198.5,34.5,196.3z"/>
		<path class="st12" d="M38.4,192.2h1.4v1.4h0c0.4-0.9,1.4-1.6,2.7-1.6c1.3,0,2.2,0.6,2.5,1.7h0c0.3-0.9,1.4-1.7,2.8-1.7
			c1.6,0,2.7,0.8,2.7,2.8v5.9h-1.4v-5.2c0-0.6,0-1.3-0.3-1.7c-0.3-0.4-0.8-0.5-1.3-0.5c-1.6,0-2.3,1-2.3,2.4v5.1h-1.4v-5.2
			c0-0.6,0-1.2-0.3-1.7c-0.3-0.4-0.8-0.6-1.3-0.6c-1.6,0-2.3,1-2.3,2.4v5.1h-1.4V192.2z"/>
		<path class="st12" d="M53.6,188.7h1.5v1.6h-1.5V188.7z M53.6,192.2H55v8.4h-1.5V192.2z"/>
		<path class="st12" d="M60,189.8v2.4h2.1v1.1H60v5c0,0.9,0.4,1.2,1.3,1.2c0.4,0,0.9-0.1,0.9-0.1v1.2c0,0-0.6,0.1-1.3,0.1
			c-1.6,0-2.3-0.8-2.3-2.2v-5.2H57v-1.1h0.3c1.1,0,1.4-0.3,1.4-1.9v-0.6H60z"/>
		<path class="st12" d="M68.7,188h1.4v12.6h-1.4V188z"/>
		<path class="st12" d="M72.5,196.4c0-2.6,1.4-4.4,3.8-4.4c2.5,0,3.8,1.8,3.8,4.4c0,2.6-1.4,4.4-3.8,4.4
			C73.8,200.9,72.5,199.1,72.5,196.4z M74,196.4c0,2.1,0.7,3.3,2.3,3.3c1.6,0,2.3-1.2,2.3-3.3c0-2-0.7-3.3-2.3-3.3
			C74.8,193.1,74,194.4,74,196.4z"/>
		<path class="st12" d="M82.1,201.5h1.4c0.2,0.7,0.7,1.2,2.1,1.2c1.6,0,2.4-0.6,2.4-2.4V199h0c-0.4,0.8-1.4,1.6-2.7,1.6
			c-1.8,0-3.4-1.1-3.4-4.2c0-2.8,1.5-4.3,3.6-4.3c1.4,0,2.2,0.8,2.5,1.5h0v-1.3h1.4v8.2c0,2.4-1.6,3.4-3.8,3.4
			C84,203.8,82.3,203.2,82.1,201.5z M88,196c0-1.7-0.9-2.8-2.4-2.8c-1.5,0-2.2,1.3-2.2,3.2c0,1.9,0.5,3.1,2.3,3.1
			c1.4,0,2.3-1.2,2.3-2.6V196z"/>
		<path class="st12" d="M91.8,196.4c0-2.6,1.4-4.4,3.8-4.4c2.5,0,3.8,1.8,3.8,4.4c0,2.6-1.4,4.4-3.8,4.4
			C93.1,200.9,91.8,199.1,91.8,196.4z M93.3,196.4c0,2.1,0.7,3.3,2.3,3.3c1.6,0,2.3-1.2,2.3-3.3c0-2-0.7-3.3-2.3-3.3
			C94.1,193.1,93.3,194.4,93.3,196.4z"/>
		<path class="st12" d="M106.1,194.3c-0.1-0.8-0.7-1.2-1.7-1.2s-1.6,0.6-1.6,1.4c0,0.7,0.4,1,1.3,1.2l1.3,0.2c1.8,0.3,2.4,1,2.4,2.4
			c0,1.7-1.4,2.6-3.3,2.6c-1.7,0-3.2-0.8-3.3-2.6h1.4c0.1,0.7,0.4,1.5,1.9,1.5c1.2,0,1.9-0.5,1.9-1.4c0-0.7-0.2-1-1.3-1.2l-1.3-0.2
			c-1.5-0.2-2.3-0.9-2.3-2.3c0-1.5,1.1-2.6,3.1-2.6c1.8,0,2.9,0.8,3,2.3H106.1z"/>
		<path class="st12" d="M114.3,194.5c0-1.5,1.2-2.5,3.2-2.5c2.1,0,3.1,0.9,3.1,3.1v3.4c0,0.7,0.1,0.9,0.8,1v1.2h-0.2
			c-1.3,0-1.8-0.5-1.9-1.5h0c-0.4,1-1.5,1.6-2.7,1.6c-1.7,0-2.7-0.9-2.7-2.4c0-0.9,0.4-1.7,1.3-2.1c0.9-0.5,2.2-0.6,4.1-0.7v-0.4
			c0-1.5-0.6-2.1-1.8-2.1c-1.2,0-1.7,0.7-1.8,1.4H114.3z M119.2,196.8v-0.2c-1.8,0.1-2.9,0.2-3.4,0.6c-0.3,0.2-0.5,0.6-0.5,1
			c0,0.9,0.6,1.3,1.5,1.3C117.9,199.6,119.2,198.9,119.2,196.8z"/>
		<path class="st12" d="M125.4,189.8v2.4h2.1v1.1h-2.1v5c0,0.9,0.4,1.2,1.3,1.2c0.4,0,0.9-0.1,0.9-0.1v1.2c0,0-0.6,0.1-1.3,0.1
			c-1.6,0-2.3-0.8-2.3-2.2v-5.2h-1.5v-1.1h0.3c1.1,0,1.4-0.3,1.4-1.9v-0.6H125.4z"/>
		<path class="st12" d="M135.9,191.9h-2.4v-1h0.4c0.8,0,1.4-0.2,1.7-0.6c0.4-0.4,0.5-0.8,0.5-1.6h1.2v11.9h-1.5V191.9z"/>
		<path class="st12" d="M144.9,188.6c2.6,0,4.3,2,4.3,6.1c0,4.1-1.7,6.1-4.3,6.1c-2.6,0-4.2-2-4.2-6.1
			C140.6,190.6,142.3,188.6,144.9,188.6z M147.6,194.8c0-3.3-1-5-2.7-5c-1.7,0-2.7,1.6-2.7,5c0,3.3,1,4.9,2.7,4.9
			C146.5,199.7,147.6,198,147.6,194.8z"/>
		<path class="st12" d="M155.8,188.6c2.6,0,4.3,2,4.3,6.1c0,4.1-1.7,6.1-4.3,6.1c-2.6,0-4.2-2-4.2-6.1
			C151.6,190.6,153.3,188.6,155.8,188.6z M158.6,194.8c0-3.3-1-5-2.7-5c-1.7,0-2.7,1.6-2.7,5c0,3.3,1,4.9,2.7,4.9
			C157.5,199.7,158.6,198,158.6,194.8z"/>
		<path class="st12" d="M166.8,188.6c2.6,0,4.3,2,4.3,6.1c0,4.1-1.7,6.1-4.3,6.1c-2.6,0-4.2-2-4.2-6.1
			C162.6,190.6,164.2,188.6,166.8,188.6z M169.5,194.8c0-3.3-1-5-2.7-5c-1.7,0-2.7,1.6-2.7,5c0,3.3,1,4.9,2.7,4.9
			C168.5,199.7,169.5,198,169.5,194.8z"/>
		<path class="st12" d="M173.8,192.2h1.4v1.4h0c0.5-0.9,1.4-1.6,2.7-1.6c1.8,0,3.4,1.1,3.4,4.3c0,3.1-1.6,4.5-3.5,4.5
			c-1.2,0-2.2-0.7-2.5-1.4h0v4.2h-1.4V192.2z M177.6,199.7c1.5,0,2.2-1.2,2.2-3.4c0-1.8-0.5-3.2-2.3-3.2c-1.5,0-2.4,1.3-2.4,2.7v0.9
			C175.2,198.4,176,199.7,177.6,199.7z"/>
		<path class="st12" d="M185.3,196.3l-2.7-4.1h1.7l1.8,2.9h0l1.9-2.9h1.6l-2.7,4l2.9,4.4h-1.7l-2.1-3.3h0l-2.1,3.3h-1.6L185.3,196.3
			z"/>
		<path class="st12" d="M200.6,194.3c-0.1-0.8-0.7-1.2-1.7-1.2s-1.6,0.6-1.6,1.4c0,0.7,0.4,1,1.3,1.2l1.3,0.2c1.8,0.3,2.4,1,2.4,2.4
			c0,1.7-1.4,2.6-3.3,2.6c-1.7,0-3.2-0.8-3.3-2.6h1.4c0.1,0.7,0.4,1.5,1.9,1.5c1.2,0,1.9-0.5,1.9-1.4c0-0.7-0.2-1-1.3-1.2l-1.3-0.2
			c-1.5-0.2-2.3-0.9-2.3-2.3c0-1.5,1.1-2.6,3.1-2.6c1.8,0,2.9,0.8,3,2.3H200.6z"/>
		<path class="st12" d="M211.4,203.7H210v-4.3h0c-0.4,0.8-1.3,1.5-2.6,1.5c-1.8,0-3.4-1.1-3.4-4.4c0-2.9,1.5-4.5,3.6-4.5
			c1.3,0,2.1,0.7,2.4,1.5h0v-1.3h1.4V203.7z M210,197v-0.9c0-1.8-0.9-2.9-2.3-2.9c-1.6,0-2.4,1.3-2.4,3.3c0,1.9,0.6,3.3,2.2,3.3
			C209.1,199.7,210,198.5,210,197z"/>
		<path class="st12" d="M215.9,197.4c0,0.6,0,1.3,0.3,1.7c0.3,0.4,0.7,0.6,1.3,0.6c1.6,0,2.3-1,2.3-2.9v-4.6h1.4v8.4h-1.4v-1.4h0
			c-0.4,0.9-1.3,1.6-2.7,1.6c-1.6,0-2.7-0.8-2.7-2.8v-5.9h1.4V197.4z"/>
		<path class="st12" d="M224,194.5c0-1.5,1.2-2.5,3.2-2.5c2.1,0,3.1,0.9,3.1,3.1v3.4c0,0.7,0.1,0.9,0.8,1v1.2h-0.2
			c-1.3,0-1.8-0.5-1.9-1.5h0c-0.4,1-1.5,1.6-2.7,1.6c-1.7,0-2.7-0.9-2.7-2.4c0-0.9,0.4-1.7,1.3-2.1c0.9-0.5,2.2-0.6,4.1-0.7v-0.4
			c0-1.5-0.6-2.1-1.8-2.1c-1.2,0-1.7,0.7-1.8,1.4H224z M228.9,196.8v-0.2c-1.8,0.1-2.9,0.2-3.4,0.6c-0.3,0.2-0.5,0.6-0.5,1
			c0,0.9,0.6,1.3,1.5,1.3C227.6,199.6,228.9,198.9,228.9,196.8z"/>
		<path class="st12" d="M233.3,192.2h1.4v1.6h0c0.4-0.9,1.4-1.7,2.7-1.7h0.1v1.5h-0.3c-1.5,0-2.5,0.9-2.5,2.5v4.6h-1.4V192.2z"/>
		<path class="st12" d="M242.7,200.9c-2.6,0-3.8-1.9-3.8-4.4c0-2.5,1.3-4.5,3.8-4.5c2.5,0,3.5,2,3.5,4.1v0.7h-5.8
			c0.1,1.7,0.8,2.9,2.4,2.9c1.4,0,1.8-0.8,1.9-1.3h1.4C245.7,199.9,244.5,200.9,242.7,200.9z M244.7,195.6c0-1.4-0.6-2.5-2.1-2.5
			c-1.3,0-2.1,1.1-2.3,2.6L244.7,195.6L244.7,195.6z"/>
		<path class="st12" d="M254.9,189.8v2.4h2.1v1.1h-2.1v5c0,0.9,0.4,1.2,1.3,1.2c0.4,0,0.9-0.1,0.9-0.1v1.2c0,0-0.6,0.1-1.3,0.1
			c-1.6,0-2.3-0.8-2.3-2.2v-5.2h-1.5v-1.1h0.3c1.1,0,1.4-0.3,1.4-1.9v-0.6H254.9z"/>
		<path class="st12" d="M258.5,196.4c0-2.6,1.4-4.4,3.8-4.4c2.5,0,3.8,1.8,3.8,4.4c0,2.6-1.4,4.4-3.8,4.4
			C259.7,200.9,258.5,199.1,258.5,196.4z M259.9,196.4c0,2.1,0.7,3.3,2.3,3.3c1.6,0,2.3-1.2,2.3-3.3c0-2-0.7-3.3-2.3-3.3
			C260.7,193.1,259.9,194.4,259.9,196.4z"/>
		<path class="st12" d="M268.1,192.2h2v2h-2V192.2z M268.1,200.7v-2h2v2H268.1z"/>
		<path class="st12" d="M-72.1,224.8h4.5v1.3h-4.5V224.8z"/>
		<path class="st12" d="M-61.6,230.7v-1.3h0.3c2.6,0,3-0.7,3-2.5v-8.5h1.5v8.7c0,2.6-1.4,3.6-4.1,3.6H-61.6z"/>
		<path class="st12" d="M-51.9,226v4.7h-1.5v-12.2h3.7c2.4,0,4.2,1.1,4.2,3.8c0,2.6-1.8,3.8-4.3,3.8H-51.9z M-49.8,224.8
			c1.8,0,2.8-0.9,2.8-2.6c0-1.8-1-2.6-2.8-2.6h-2.1v5.2H-49.8z"/>
		<path class="st12" d="M-42,224.6c0,3.2,1.4,5.1,3.9,5.1c2.3,0,3.7-1.3,3.7-3.7v-0.2H-38v-1.3h5v6.2h-1.3v-1.8h-0.1
			c-0.6,1.1-1.8,2-3.8,2c-3.1,0-5.4-2-5.4-6.3c0-4,2.4-6.4,5.6-6.4c2.5,0,4.3,1.3,4.6,3.4h-1.6c-0.2-1.4-1.5-2.2-3.1-2.2
			C-40.6,219.4-42,221.5-42,224.6z"/>
		<path class="st12" d="M-29.9,228.7h1.8l-1.3,3.8h-1L-29.9,228.7z"/>
		<path class="st12" d="M-19.8,226v4.7h-1.5v-12.2h3.7c2.4,0,4.2,1.1,4.2,3.8c0,2.6-1.8,3.8-4.3,3.8H-19.8z M-17.7,224.8
			c1.8,0,2.8-0.9,2.8-2.6c0-1.8-1-2.6-2.8-2.6h-2.1v5.2H-17.7z"/>
		<path class="st12" d="M-10.9,218.4H-9l5.4,9.1c0.4,0.7,0.6,1.2,0.6,1.2h0v-10.3h1.4v12.2h-1.9l-5.4-9.1c-0.5-0.8-0.6-1.2-0.6-1.2
			h0v10.3h-1.4V218.4z"/>
		<path class="st12" d="M3,224.6c0,3.2,1.4,5.1,3.9,5.1c2.3,0,3.7-1.3,3.7-3.7v-0.2H7v-1.3h5v6.2h-1.3v-1.8h-0.1
			c-0.6,1.1-1.8,2-3.8,2c-3.1,0-5.4-2-5.4-6.3c0-4,2.4-6.4,5.6-6.4c2.5,0,4.3,1.3,4.6,3.4h-1.6c-0.2-1.4-1.5-2.2-3.1-2.2
			C4.4,219.4,3,221.5,3,224.6z"/>
		<path class="st12" d="M15,222.2h2v2h-2V222.2z M15,230.7v-2h2v2H15z"/>
		<path class="st12" d="M28.3,224.3c-0.1-0.8-0.7-1.2-1.7-1.2s-1.6,0.6-1.6,1.4c0,0.7,0.4,1,1.3,1.2l1.3,0.2c1.8,0.3,2.4,1,2.4,2.4
			c0,1.7-1.4,2.6-3.3,2.6c-1.7,0-3.2-0.8-3.3-2.6h1.4c0.1,0.7,0.4,1.5,1.9,1.5c1.2,0,1.9-0.5,1.9-1.4c0-0.7-0.2-1-1.3-1.2l-1.3-0.2
			c-1.5-0.2-2.3-0.9-2.3-2.3c0-1.5,1.1-2.6,3.1-2.6c1.8,0,2.9,0.8,3,2.3H28.3z"/>
		<path class="st12" d="M35.4,230.9c-2.6,0-3.8-1.9-3.8-4.4c0-2.5,1.3-4.5,3.8-4.5c2.5,0,3.5,2,3.5,4.1v0.7h-5.8
			c0.1,1.7,0.8,2.9,2.4,2.9c1.4,0,1.8-0.8,1.9-1.3h1.4C38.5,229.9,37.2,230.9,35.4,230.9z M37.4,225.6c0-1.4-0.6-2.5-2.1-2.5
			c-1.3,0-2.1,1.1-2.3,2.6L37.4,225.6L37.4,225.6z"/>
		<path class="st12" d="M43.1,219.8v2.4h2.1v1.1h-2.1v5c0,0.9,0.4,1.2,1.3,1.2c0.4,0,0.9-0.1,0.9-0.1v1.2c0,0-0.6,0.1-1.3,0.1
			c-1.6,0-2.3-0.8-2.3-2.2v-5.2h-1.5v-1.1h0.3c1.1,0,1.4-0.3,1.4-1.9v-0.6H43.1z"/>
		<path class="st12" d="M53.6,219.8v2.4h2.1v1.1h-2.1v5c0,0.9,0.4,1.2,1.3,1.2c0.4,0,0.9-0.1,0.9-0.1v1.2c0,0-0.6,0.1-1.3,0.1
			c-1.6,0-2.3-0.8-2.3-2.2v-5.2h-1.5v-1.1h0.3c1.1,0,1.4-0.3,1.4-1.9v-0.6H53.6z"/>
		<path class="st12" d="M57.2,226.4c0-2.6,1.4-4.4,3.8-4.4c2.5,0,3.8,1.8,3.8,4.4c0,2.6-1.4,4.4-3.8,4.4
			C58.5,230.9,57.2,229.1,57.2,226.4z M58.7,226.4c0,2.1,0.7,3.3,2.3,3.3c1.6,0,2.3-1.2,2.3-3.3c0-2-0.7-3.3-2.3-3.3
			C59.4,223.1,58.7,224.4,58.7,226.4z"/>
		<path class="st12" d="M71.7,222.2H73v1.4h0c0.4-0.9,1.4-1.6,2.7-1.6c1.3,0,2.2,0.6,2.5,1.7h0c0.3-0.9,1.4-1.7,2.8-1.7
			c1.6,0,2.7,0.8,2.7,2.8v5.9h-1.4v-5.2c0-0.6,0-1.3-0.3-1.7c-0.3-0.4-0.8-0.5-1.3-0.5c-1.6,0-2.3,1-2.3,2.4v5.1H77v-5.2
			c0-0.6,0-1.2-0.3-1.7c-0.3-0.4-0.8-0.6-1.3-0.6c-1.6,0-2.3,1-2.3,2.4v5.1h-1.4V222.2z"/>
		<path class="st12" d="M86.6,224.5c0-1.5,1.2-2.5,3.2-2.5c2.1,0,3.1,0.9,3.1,3.1v3.4c0,0.7,0.1,0.9,0.8,1v1.2h-0.2
			c-1.3,0-1.8-0.5-1.9-1.5h0c-0.4,1-1.5,1.6-2.7,1.6c-1.7,0-2.7-0.9-2.7-2.4c0-0.9,0.4-1.7,1.3-2.1c0.9-0.5,2.2-0.6,4.1-0.7v-0.4
			c0-1.5-0.6-2.1-1.8-2.1c-1.2,0-1.7,0.7-1.8,1.4H86.6z M91.4,226.8v-0.2c-1.8,0.1-2.9,0.2-3.4,0.6c-0.3,0.2-0.5,0.6-0.5,1
			c0,0.9,0.6,1.3,1.5,1.3C90.1,229.6,91.4,228.9,91.4,226.8z"/>
		<path class="st12" d="M97.6,226.3l-2.7-4.1h1.7l1.8,2.9h0l1.9-2.9h1.6l-2.7,4l2.9,4.4h-1.7l-2.1-3.3h0l-2.1,3.3h-1.6L97.6,226.3z"
			/>
		<path class="st12" d="M104.1,218.7h1.5v1.6h-1.5V218.7z M104.2,222.2h1.5v8.4h-1.5V222.2z"/>
		<path class="st12" d="M108.8,222.2h1.4v1.4h0c0.4-0.9,1.4-1.6,2.7-1.6c1.3,0,2.2,0.6,2.5,1.7h0c0.3-0.9,1.4-1.7,2.8-1.7
			c1.6,0,2.7,0.8,2.7,2.8v5.9h-1.4v-5.2c0-0.6,0-1.3-0.3-1.7c-0.3-0.4-0.8-0.5-1.3-0.5c-1.6,0-2.3,1-2.3,2.4v5.1h-1.4v-5.2
			c0-0.6,0-1.2-0.3-1.7c-0.3-0.4-0.8-0.6-1.3-0.6c-1.6,0-2.3,1-2.3,2.4v5.1h-1.4V222.2z"/>
		<path class="st12" d="M125.4,227.4c0,0.6,0,1.3,0.3,1.7c0.3,0.4,0.7,0.6,1.3,0.6c1.6,0,2.3-1,2.3-2.9v-4.6h1.4v8.4h-1.4v-1.4h0
			c-0.4,0.9-1.3,1.6-2.7,1.6c-1.6,0-2.7-0.8-2.7-2.8v-5.9h1.4V227.4z"/>
		<path class="st12" d="M133.8,222.2h1.4v1.4h0c0.4-0.9,1.4-1.6,2.7-1.6c1.3,0,2.2,0.6,2.5,1.7h0c0.3-0.9,1.4-1.7,2.8-1.7
			c1.6,0,2.7,0.8,2.7,2.8v5.9h-1.4v-5.2c0-0.6,0-1.3-0.3-1.7c-0.3-0.4-0.8-0.5-1.3-0.5c-1.6,0-2.3,1-2.3,2.4v5.1h-1.4v-5.2
			c0-0.6,0-1.2-0.3-1.7c-0.3-0.4-0.8-0.6-1.3-0.6c-1.6,0-2.3,1-2.3,2.4v5.1h-1.4V222.2z"/>
		<path class="st12" d="M160.3,233.7h-1.4v-4.3h0c-0.4,0.8-1.3,1.5-2.6,1.5c-1.8,0-3.4-1.1-3.4-4.4c0-2.9,1.5-4.5,3.6-4.5
			c1.3,0,2.1,0.7,2.4,1.5h0v-1.3h1.4V233.7z M158.9,227v-0.9c0-1.8-0.9-2.9-2.3-2.9c-1.6,0-2.4,1.3-2.4,3.3c0,1.9,0.6,3.3,2.2,3.3
			C158,229.7,158.9,228.5,158.9,227z"/>
		<path class="st12" d="M164.8,227.4c0,0.6,0,1.3,0.3,1.7c0.3,0.4,0.7,0.6,1.3,0.6c1.6,0,2.3-1,2.3-2.9v-4.6h1.4v8.4h-1.4v-1.4h0
			c-0.4,0.9-1.3,1.6-2.7,1.6c-1.6,0-2.7-0.8-2.7-2.8v-5.9h1.4V227.4z"/>
		<path class="st12" d="M172.9,224.5c0-1.5,1.2-2.5,3.2-2.5c2.1,0,3.1,0.9,3.1,3.1v3.4c0,0.7,0.1,0.9,0.8,1v1.2h-0.2
			c-1.3,0-1.8-0.5-1.9-1.5h0c-0.4,1-1.5,1.6-2.7,1.6c-1.7,0-2.7-0.9-2.7-2.4c0-0.9,0.4-1.7,1.3-2.1c0.9-0.5,2.2-0.6,4.1-0.7v-0.4
			c0-1.5-0.6-2.1-1.8-2.1c-1.2,0-1.7,0.7-1.8,1.4H172.9z M177.8,226.8v-0.2c-1.8,0.1-2.9,0.2-3.4,0.6c-0.3,0.2-0.5,0.6-0.5,1
			c0,0.9,0.6,1.3,1.5,1.3C176.5,229.6,177.8,228.9,177.8,226.8z"/>
		<path class="st12" d="M182.2,218h1.4v12.6h-1.4V218z"/>
		<path class="st12" d="M186.8,218.7h1.5v1.6h-1.5V218.7z M186.8,222.2h1.5v8.4h-1.5V222.2z"/>
		<path class="st12" d="M193.2,219.8v2.4h2.1v1.1h-2.1v5c0,0.9,0.4,1.2,1.3,1.2c0.4,0,0.9-0.1,0.9-0.1v1.2c0,0-0.6,0.1-1.3,0.1
			c-1.6,0-2.3-0.8-2.3-2.2v-5.2h-1.5v-1.1h0.3c1.1,0,1.4-0.3,1.4-1.9v-0.6H193.2z"/>
		<path class="st12" d="M196.7,222.2h1.4l1.8,5.3c0.3,0.8,0.4,1.3,0.4,1.3h0c0,0,0.1-0.5,0.4-1.3l1.7-5.3h1.4l-3.1,9
			c-0.7,1.9-1.2,2.7-3.1,2.7c-0.3,0-0.6,0-0.9-0.1v-1.2c0.3,0.1,0.6,0.1,0.7,0.1c1.1,0,1.4-0.4,1.8-1.5l0.2-0.4L196.7,222.2z"/>
		<path class="st12" d="M204.5,228.7h2v2h-2V228.7z"/>
		<path class="st12" d="M-72.1,254.8h4.5v1.3h-4.5V254.8z"/>
		<path class="st12" d="M-58.8,256v4.7h-1.5v-12.2h3.7c2.4,0,4.2,1.1,4.2,3.8c0,2.6-1.8,3.8-4.3,3.8H-58.8z M-56.8,254.8
			c1.8,0,2.8-0.9,2.8-2.6c0-1.8-1-2.6-2.8-2.6h-2.1v5.2H-56.8z"/>
		<path class="st12" d="M-49.9,248.4h3.8c3.3,0,5.9,1.6,5.9,6c0,4.3-2.4,6.3-5.7,6.3h-3.9V248.4z M-46.2,259.4
			c2.6,0,4.4-1.3,4.4-4.9c0-3.4-1.8-4.7-4.3-4.7h-2.4v9.7H-46.2z"/>
		<path class="st12" d="M-35.9,260.7h-1.5v-12.2h7.3v1.3h-5.8v4.4h5.3v1.3h-5.3V260.7z"/>
		<path class="st12" d="M-72.1,284.8h4.5v1.3h-4.5V284.8z"/>
		<path class="st12" d="M-60.3,278.4h7.8v1.3h-6.3v4.1h5.8v1.3h-5.8v4.2h6.4v1.3h-7.9V278.4z"/>
		<path class="st12" d="M-47.8,286v4.7h-1.5v-12.2h3.7c2.4,0,4.2,1.1,4.2,3.8c0,2.6-1.8,3.8-4.3,3.8H-47.8z M-45.8,284.8
			c1.8,0,2.8-0.9,2.8-2.6c0-1.8-1-2.6-2.8-2.6h-2.1v5.2H-45.8z"/>
		<path class="st12" d="M-32.4,281.7c-0.1-1.2-0.8-2.3-2.5-2.3c-1.7,0-2.6,0.9-2.6,2.1c0,1.1,0.6,1.8,2,2l1.7,0.3
			c2.4,0.4,3.2,1.6,3.2,3.3c0,2.2-1.5,3.7-4.5,3.7c-2.8,0-4.4-1.5-4.6-3.7h1.6c0.2,1.3,1.1,2.5,3.1,2.5c2.2,0,2.9-1.1,2.9-2.4
			c0-1.1-0.6-1.8-2.1-2l-1.7-0.3c-2.4-0.4-3.2-1.7-3.2-3.3c0-2,1.6-3.4,4.1-3.4c2.6,0,3.9,1.4,4,3.5H-32.4z"/>
		<path class="st12" d="M-28.1,282.2h2v2h-2V282.2z M-28.1,290.7v-2h2v2H-28.1z"/>
		<path class="st12" d="M-16,290.9c-2.6,0-3.8-1.9-3.8-4.4c0-2.5,1.3-4.5,3.8-4.5c2.5,0,3.5,2,3.5,4.1v0.7h-5.8
			c0.1,1.7,0.8,2.9,2.4,2.9c1.4,0,1.8-0.8,1.9-1.3h1.4C-12.9,289.9-14.1,290.9-16,290.9z M-14,285.6c0-1.4-0.6-2.5-2.1-2.5
			c-1.3,0-2.1,1.1-2.3,2.6L-14,285.6L-14,285.6z"/>
		<path class="st12" d="M-8.5,286.3l-2.7-4.1h1.7l1.8,2.9h0l1.9-2.9h1.6l-2.7,4l2.9,4.4h-1.7l-2.1-3.3h0l-2.1,3.3h-1.6L-8.5,286.3z"
			/>
		<path class="st12" d="M-1.9,282.2h1.4v1.4h0c0.5-0.9,1.4-1.6,2.7-1.6c1.8,0,3.4,1.1,3.4,4.3c0,3.1-1.6,4.5-3.5,4.5
			c-1.2,0-2.2-0.7-2.5-1.4h0v4.2h-1.4V282.2z M1.9,289.7c1.5,0,2.2-1.2,2.2-3.4c0-1.8-0.5-3.2-2.3-3.2c-1.5,0-2.4,1.3-2.4,2.7v0.9
			C-0.5,288.4,0.3,289.7,1.9,289.7z"/>
		<path class="st12" d="M7.4,286.4c0-2.6,1.4-4.4,3.8-4.4c2.5,0,3.8,1.8,3.8,4.4c0,2.6-1.4,4.4-3.8,4.4
			C8.7,290.9,7.4,289.1,7.4,286.4z M8.9,286.4c0,2.1,0.7,3.3,2.3,3.3c1.6,0,2.3-1.2,2.3-3.3c0-2-0.7-3.3-2.3-3.3
			C9.6,283.1,8.9,284.4,8.9,286.4z"/>
		<path class="st12" d="M17.4,282.2h1.4v1.6h0c0.4-0.9,1.4-1.7,2.7-1.7h0.1v1.5h-0.3c-1.5,0-2.5,0.9-2.5,2.5v4.6h-1.4V282.2z"/>
		<path class="st12" d="M25.8,279.8v2.4h2.1v1.1h-2.1v5c0,0.9,0.4,1.2,1.3,1.2c0.4,0,0.9-0.1,0.9-0.1v1.2c0,0-0.6,0.1-1.3,0.1
			c-1.6,0-2.3-0.8-2.3-2.2v-5.2h-1.5v-1.1h0.3c1.1,0,1.4-0.3,1.4-1.9v-0.6H25.8z"/>
		<path class="st12" d="M38.9,285.5h-2.7v5.2h-1.5v-12.2h4.4c0.9,0,1.7,0.2,2.4,0.5c1,0.5,1.6,1.5,1.6,2.9c0,2.3-1.5,3.1-2.6,3.4v0
			l2.7,5.4h-1.7L38.9,285.5z M39,284.2c1.4,0,2.5-0.7,2.5-2.4c0-1.5-1-2.2-2.4-2.2h-2.9v4.6H39z"/>
		<path class="st12" d="M46.8,284.6c0,3.2,1.4,5.1,3.9,5.1c2.3,0,3.7-1.3,3.7-3.7v-0.2h-3.5v-1.3h5v6.2h-1.3v-1.8h-0.1
			c-0.6,1.1-1.8,2-3.8,2c-3.1,0-5.4-2-5.4-6.3c0-4,2.4-6.4,5.6-6.4c2.5,0,4.3,1.3,4.6,3.4h-1.6c-0.2-1.4-1.5-2.2-3.1-2.2
			C48.2,279.4,46.8,281.5,46.8,284.6z"/>
		<path class="st12" d="M59.2,290.7v-12.2h4.8c2.1,0,3.8,1,3.8,3c0,1.5-0.8,2.4-2.2,2.7v0c1.5,0.3,2.6,1.5,2.6,2.9
			c0,2.8-2.1,3.6-4.5,3.6H59.2z M63.8,283.6c1.3,0,2.5-0.5,2.5-2c0-1.3-0.9-1.9-2.3-1.9h-3.2v4H63.8z M63.7,289.5c1.8,0,3-0.6,3-2.4
			c0-1.6-1.2-2.2-3.1-2.2h-2.8v4.7H63.7z"/>
		<path class="st12" d="M77.5,292.7c-0.9-1.8-2.1-4.1-2.1-7.3c0-3.2,1.2-5.5,2.1-7.3h1.1c-0.9,2-1.7,4.1-1.7,7.3
			c0,3.3,0.8,5.4,1.7,7.3H77.5z"/>
		<path class="st12" d="M87.5,290.7h-1.4v-1.4h0c-0.4,0.8-1.4,1.6-2.7,1.6c-1.8,0-3.4-1.1-3.4-4.4c0-2.9,1.5-4.5,3.6-4.5
			c1.3,0,2.1,0.7,2.4,1.5h0V278h1.4V290.7z M86.1,286.1c0-1.8-0.9-2.9-2.3-2.9c-1.6,0-2.4,1.3-2.4,3.3c0,1.9,0.6,3.3,2.2,3.3
			c1.5,0,2.4-1.2,2.4-2.7V286.1z"/>
		<path class="st12" d="M90.6,278.7h1.5v1.6h-1.5V278.7z M90.6,282.2h1.5v8.4h-1.5V282.2z"/>
		<path class="st12" d="M94.7,291.5h1.4c0.2,0.7,0.7,1.2,2.1,1.2c1.6,0,2.4-0.6,2.4-2.4V289h0c-0.4,0.8-1.4,1.6-2.7,1.6
			c-1.8,0-3.4-1.1-3.4-4.2c0-2.8,1.5-4.3,3.6-4.3c1.4,0,2.2,0.8,2.5,1.5h0v-1.3h1.4v8.2c0,2.4-1.6,3.4-3.8,3.4
			C96.6,293.8,94.9,293.2,94.7,291.5z M100.6,286c0-1.7-0.9-2.8-2.4-2.8c-1.5,0-2.2,1.3-2.2,3.2c0,1.9,0.5,3.1,2.3,3.1
			c1.4,0,2.3-1.2,2.3-2.6V286z"/>
		<path class="st12" d="M105.1,278.7h1.5v1.6h-1.5V278.7z M105.2,282.2h1.5v8.4h-1.5V282.2z"/>
		<path class="st12" d="M111.6,279.8v2.4h2.1v1.1h-2.1v5c0,0.9,0.4,1.2,1.3,1.2c0.4,0,0.9-0.1,0.9-0.1v1.2c0,0-0.6,0.1-1.3,0.1
			c-1.6,0-2.3-0.8-2.3-2.2v-5.2h-1.5v-1.1h0.3c1.1,0,1.4-0.3,1.4-1.9v-0.6H111.6z"/>
		<path class="st12" d="M116.1,284.5c0-1.5,1.2-2.5,3.2-2.5c2.1,0,3.1,0.9,3.1,3.1v3.4c0,0.7,0.1,0.9,0.8,1v1.2H123
			c-1.3,0-1.8-0.5-1.9-1.5h0c-0.4,1-1.5,1.6-2.7,1.6c-1.7,0-2.7-0.9-2.7-2.4c0-0.9,0.4-1.7,1.3-2.1c0.9-0.5,2.2-0.6,4.1-0.7v-0.4
			c0-1.5-0.6-2.1-1.8-2.1c-1.2,0-1.7,0.7-1.8,1.4H116.1z M121,286.8v-0.2c-1.8,0.1-2.9,0.2-3.4,0.6c-0.3,0.2-0.5,0.6-0.5,1
			c0,0.9,0.6,1.3,1.5,1.3C119.7,289.6,121,288.9,121,286.8z"/>
		<path class="st12" d="M125.4,278h1.4v12.6h-1.4V278z"/>
		<path class="st12" d="M130.8,285.4c0-3.3-0.8-5.4-1.7-7.3h1.1c0.9,1.8,2.1,4.1,2.1,7.3c0,3.2-1.2,5.5-2.1,7.3h-1.1
			C130,290.8,130.8,288.6,130.8,285.4z"/>
		<path class="st12" d="M139.7,284.5c0-1.5,1.2-2.5,3.2-2.5c2.1,0,3.1,0.9,3.1,3.1v3.4c0,0.7,0.1,0.9,0.8,1v1.2h-0.2
			c-1.3,0-1.8-0.5-1.9-1.5h0c-0.4,1-1.5,1.6-2.7,1.6c-1.7,0-2.7-0.9-2.7-2.4c0-0.9,0.4-1.7,1.3-2.1c0.9-0.5,2.2-0.6,4.1-0.7v-0.4
			c0-1.5-0.6-2.1-1.8-2.1c-1.2,0-1.7,0.7-1.8,1.4H139.7z M144.6,286.8v-0.2c-1.8,0.1-2.9,0.2-3.4,0.6c-0.3,0.2-0.5,0.6-0.5,1
			c0,0.9,0.6,1.3,1.5,1.3C143.2,289.6,144.6,288.9,144.6,286.8z"/>
		<path class="st12" d="M154.4,285.5c0-0.6,0-1.3-0.3-1.7c-0.3-0.4-0.8-0.6-1.3-0.6c-1.6,0-2.3,1-2.3,2.4v5.1H149v-8.4h1.4v1.4h0
			c0.4-0.9,1.4-1.6,2.7-1.6c1.6,0,2.7,0.8,2.7,2.8v5.9h-1.4V285.5z"/>
		<path class="st12" d="M165.7,290.7h-1.4v-1.4h0c-0.4,0.8-1.4,1.6-2.7,1.6c-1.8,0-3.4-1.1-3.4-4.4c0-2.9,1.5-4.5,3.6-4.5
			c1.3,0,2.1,0.7,2.4,1.5h0V278h1.4V290.7z M164.2,286.1c0-1.8-0.9-2.9-2.3-2.9c-1.6,0-2.4,1.3-2.4,3.3c0,1.9,0.6,3.3,2.2,3.3
			c1.5,0,2.4-1.2,2.4-2.7V286.1z"/>
		<path class="st12" d="M174.5,284.6c0,3.2,1.4,5.1,3.9,5.1c2.2,0,3.1-1.5,3.2-2.8h1.5c-0.2,2.3-2,4.1-4.7,4.1
			c-3.2,0-5.4-2.1-5.4-6.3c0-4,2.3-6.3,5.5-6.3c2.1,0,4.4,1.1,4.7,3.8h-1.6c-0.2-1.2-1.2-2.6-3.1-2.6
			C175.9,279.4,174.5,281.5,174.5,284.6z"/>
		<path class="st12" d="M186,278.4h2.3l3.1,8.8c0.4,1.1,0.5,1.6,0.5,1.6h0c0,0,0.2-0.5,0.5-1.6l3.2-8.8h2.2v12.2h-1.5v-10.5h0
			c0,0-0.2,0.6-0.7,1.9l-3.1,8.6h-1.4l-3-8.6c-0.4-1.3-0.7-1.9-0.7-1.9h0v10.5H186V278.4z"/>
		<path class="st12" d="M204.2,285.4l-4.3-7h1.7l3.3,5.7h0l3.4-5.7h1.6l-4.3,6.9v5.3h-1.5V285.4z"/>
		<path class="st12" d="M213.4,290.7h-1.5v-12.2h1.5v6.3l5.7-6.3h1.8l-4.7,5.1l5,7.1h-1.8l-4.3-6l-1.8,2V290.7z"/>
		<path class="st12" d="M230,292.7c-0.9-1.8-2.1-4.1-2.1-7.3c0-3.2,1.2-5.5,2.1-7.3h1.1c-0.9,2-1.7,4.1-1.7,7.3
			c0,3.3,0.8,5.4,1.7,7.3H230z"/>
		<path class="st12" d="M233.3,282.2h1.4v1.4h0c0.5-0.9,1.4-1.6,2.7-1.6c1.8,0,3.4,1.1,3.4,4.3c0,3.1-1.6,4.5-3.5,4.5
			c-1.2,0-2.2-0.7-2.5-1.4h0v4.2h-1.4V282.2z M237.2,289.7c1.5,0,2.2-1.2,2.2-3.4c0-1.8-0.5-3.2-2.3-3.2c-1.5,0-2.4,1.3-2.4,2.7v0.9
			C234.7,288.4,235.6,289.7,237.2,289.7z"/>
		<path class="st12" d="M243.3,282.2h1.4v1.6h0c0.4-0.9,1.4-1.7,2.7-1.7h0.1v1.5h-0.3c-1.5,0-2.5,0.9-2.5,2.5v4.6h-1.4V282.2z"/>
		<path class="st12" d="M249.7,278.7h1.5v1.6h-1.5V278.7z M249.7,282.2h1.5v8.4h-1.5V282.2z"/>
		<path class="st12" d="M259.7,285.5c0-0.6,0-1.3-0.3-1.7c-0.3-0.4-0.8-0.6-1.3-0.6c-1.6,0-2.3,1-2.3,2.4v5.1h-1.4v-8.4h1.4v1.4h0
			c0.4-0.9,1.4-1.6,2.7-1.6c1.6,0,2.7,0.8,2.7,2.8v5.9h-1.4V285.5z"/>
		<path class="st12" d="M266,279.8v2.4h2.1v1.1H266v5c0,0.9,0.4,1.2,1.3,1.2c0.4,0,0.9-0.1,0.9-0.1v1.2c0,0-0.6,0.1-1.3,0.1
			c-1.6,0-2.3-0.8-2.3-2.2v-5.2H263v-1.1h0.3c1.1,0,1.4-0.3,1.4-1.9v-0.6H266z"/>
		<path class="st12" d="M271.3,285.4c0-3.3-0.8-5.4-1.7-7.3h1.1c0.9,1.8,2.1,4.1,2.1,7.3c0,3.2-1.2,5.5-2.1,7.3h-1.1
			C270.5,290.8,271.3,288.6,271.3,285.4z"/>
		<path class="st12" d="M279.3,282.2h1.5l1.8,5.4c0.2,0.7,0.4,1.3,0.4,1.3h0c0,0,0.2-0.6,0.4-1.3l1.9-5.4h1.4l-2.9,8.4h-1.5
			L279.3,282.2z"/>
		<path class="st12" d="M291.8,290.9c-2.6,0-3.8-1.9-3.8-4.4c0-2.5,1.3-4.5,3.8-4.5c2.5,0,3.5,2,3.5,4.1v0.7h-5.8
			c0.1,1.7,0.8,2.9,2.4,2.9c1.4,0,1.8-0.8,1.9-1.3h1.4C294.8,289.9,293.6,290.9,291.8,290.9z M293.8,285.6c0-1.4-0.6-2.5-2.1-2.5
			c-1.3,0-2.1,1.1-2.3,2.6L293.8,285.6L293.8,285.6z"/>
		<path class="st12" d="M297.6,282.2h1.4v1.6h0c0.4-0.9,1.4-1.7,2.7-1.7h0.1v1.5h-0.3c-1.5,0-2.5,0.9-2.5,2.5v4.6h-1.4V282.2z"/>
		<path class="st12" d="M308,284.3c-0.1-0.8-0.7-1.2-1.7-1.2s-1.6,0.6-1.6,1.4c0,0.7,0.4,1,1.3,1.2l1.3,0.2c1.8,0.3,2.4,1,2.4,2.4
			c0,1.7-1.4,2.6-3.3,2.6c-1.7,0-3.2-0.8-3.3-2.6h1.4c0.1,0.7,0.4,1.5,1.9,1.5c1.2,0,1.9-0.5,1.9-1.4c0-0.7-0.2-1-1.3-1.2l-1.3-0.2
			c-1.5-0.2-2.3-0.9-2.3-2.3c0-1.5,1.1-2.6,3.1-2.6c1.8,0,2.9,0.8,3,2.3H308z"/>
		<path class="st12" d="M312.1,278.7h1.5v1.6h-1.5V278.7z M312.1,282.2h1.5v8.4h-1.5V282.2z"/>
		<path class="st12" d="M316,286.4c0-2.6,1.4-4.4,3.8-4.4c2.5,0,3.8,1.8,3.8,4.4c0,2.6-1.4,4.4-3.8,4.4
			C317.3,290.9,316,289.1,316,286.4z M317.5,286.4c0,2.1,0.7,3.3,2.3,3.3c1.6,0,2.3-1.2,2.3-3.3c0-2-0.7-3.3-2.3-3.3
			C318.3,283.1,317.5,284.4,317.5,286.4z"/>
		<path class="st12" d="M331.4,285.5c0-0.6,0-1.3-0.3-1.7c-0.3-0.4-0.8-0.6-1.3-0.6c-1.6,0-2.3,1-2.3,2.4v5.1H326v-8.4h1.4v1.4h0
			c0.4-0.9,1.4-1.6,2.7-1.6c1.6,0,2.7,0.8,2.7,2.8v5.9h-1.4V285.5z"/>
		<path class="st12" d="M340.1,284.3c-0.1-0.8-0.7-1.2-1.7-1.2s-1.6,0.6-1.6,1.4c0,0.7,0.4,1,1.3,1.2l1.3,0.2c1.8,0.3,2.4,1,2.4,2.4
			c0,1.7-1.4,2.6-3.3,2.6c-1.7,0-3.2-0.8-3.3-2.6h1.4c0.1,0.7,0.4,1.5,1.9,1.5c1.2,0,1.9-0.5,1.9-1.4c0-0.7-0.2-1-1.3-1.2l-1.3-0.2
			c-1.5-0.2-2.3-0.9-2.3-2.3c0-1.5,1.1-2.6,3.1-2.6c1.8,0,2.9,0.8,3,2.3H340.1z"/>
		<path class="st12" d="M343.6,288.7h2v2h-2V288.7z"/>
	</g>
</g>
</svg>
