<?xml version="1.0" encoding="utf-8"?>
<!-- Generator: Adobe Illustrator 24.1.0, SVG Export Plug-In . SVG Version: 6.00 Build 0)  -->
<svg version="1.1" xmlns="http://www.w3.org/2000/svg" xmlns:xlink="http://www.w3.org/1999/xlink" x="0px" y="0px"
	 viewBox="0 0 600 305.5" style="enable-background:new 0 0 600 305.5;" xml:space="preserve">
<style type="text/css">
	.st0{display:none;fill:#F2F2F2;}
	.st1{fill:url(#SVGID_1_);}
	.st2{fill:#333333;}
	.st3{fill:url(#SVGID_2_);}
	.st4{fill:url(#SVGID_3_);}
	.st5{fill:url(#SVGID_4_);}
	.st6{fill:url(#SVGID_5_);}
	.st7{fill:url(#SVGID_6_);}
	.st8{display:none;}
	.st9{display:inline;}
	.st10{clip-path:url(#SVGID_8_);}
	.st11{clip-path:url(#SVGID_10_);fill:#565656;}
	.st12{display:inline;opacity:0.5;fill:#CCCCCC;}
	.st13{clip-path:url(#SVGID_12_);}
	.st14{clip-path:url(#SVGID_14_);fill:#565656;}
	.st15{fill:#555655;}
	.st16{fill:#999999;}
	.st17{fill:#989898;}
</style>
<g id="Your_design">
	<rect x="-200" y="-347.4" class="st0" width="1000" height="1000"/>
	<radialGradient id="SVGID_1_" cx="208.0918" cy="124.426" r="124.1568" gradientUnits="userSpaceOnUse">
		<stop  offset="0" style="stop-color:#333333"/>
		<stop  offset="0.4" style="stop-color:#E6E6E6"/>
		<stop  offset="0.9" style="stop-color:#333333"/>
	</radialGradient>
	<path class="st1" d="M301.3,59c1.6-4.5,1.1-8.9-0.9-13.2c-2.1-4.4-4.6-8.6-7.2-12.7c-0.3-0.5-0.7-1.3-1.4-1
		c-0.8,0.3-0.6,1.2-0.5,1.8c0.4,2.5,0.5,5.1,0.3,7.6c-0.3,4.8-1.8,6.5-6.4,7.6c-1.2,0.3-2.4,0.4-3.6,0.6c-0.8,0.1-1.5-0.1-2.1-0.7
		c-1.4-1.4-2.9-2.6-4.3-3.8c-1.2-1-1.5-2-1.3-3.5c0.4-2.9,0.5-5.9,0.6-8.9c0.2-5-1.5-9-4.9-12.6c-3.1-3.4-6.6-6.4-10.1-9.3
		c-0.1-0.1-0.3-0.2-0.4-0.3c-0.6-0.3-1.1-1.1-1.8-0.5c-0.5,0.5-0.1,1.2,0.2,1.8c0.9,2,1.6,4.1,2.2,6.2c1.4,4.5,0.4,7-3.4,9.7
		c-2.6,1.9-5,2.7-8.3,1c-2.7-1.4-5.2-2.2-5.3-5.8c-0.1-2.1-1.1-4.2-1.8-6.4c-1.5-4.8-4.2-8.6-8.8-10.9c-4.4-2.2-8.9-4.2-13.6-5.7
		c-0.1,0-0.1,0-0.1,0c0,0,0,0-0.1,0c-0.5-0.1-1.2-0.5-1.6,0c-0.4,0.6,0.2,1.1,0.6,1.5c1.1,1.2,2.1,2.4,3.2,3.7
		c1,1.3,1.9,2.7,2.6,4.1c1.1,2,1.1,4.2-0.1,6.1c-1.1,1.8-2.3,3.5-3.8,5c-0.7,0.7-1.5,1-2.5,0.9c-1.7-0.1-3.4-0.3-5-0.2
		c-1.3,0-2.2-0.5-2.8-1.6c-1.5-2.5-3.2-5-4.9-7.4c-3.4-4.9-8.1-7.4-13.9-8.4c-3.7-0.6-7.4-1.4-11.2-1.2c-0.2,0-0.5,0.1-0.7,0.1
		c-0.4,1.1,0.6,1.4,1.2,1.9c2.2,1.6,4,3.5,5.8,5.5c1.9,2.2,2.4,4.7,1.4,7.5c-0.7,1.9-1.5,3.8-2.6,5.5c-1.3,2.2-3,2.4-4.9,0.8
		c-3.1-2.7-6.2-5.4-9.7-7.6c-3.2-1.9-6.5-2.5-10.2-2.1c-0.1,0-0.2,0-0.4,0c-3.2,0.4-6.3,1-9.4,1.7c-1.8,0.4-3.6,0.9-5.4,1.5
		c-0.2,0.1-0.3,0.1-0.5,0.1c-0.5,0.2-1.1,0.3-1.1,0.9c0,0.7,0.7,0.7,1.1,0.8c0.9,0.2,1.8,0.4,2.7,0.6c0.6,0.1,1.1,0.3,1.7,0.4
		c1.2,0.3,2.4,0.7,3.5,1.2c0.6,0.3,1.2,0.6,1.8,0.9c2.2,1.2,3.4,3,3.4,5.5c0,2.1,0,4.2-0.5,6.2c-0.1,0.5-0.1,1.1-0.6,1.4
		c-1.8,1.5-3.8,2.7-5.8,3.7c-0.7,0.4-1.5-0.2-2.1-0.5c-2.7-1.2-5.5-2.3-8.3-3.2c-1-0.3-2.1-0.6-3.2-0.9c-0.4-0.1-0.8-0.2-1.2-0.3
		c-2.6-0.5-5.1-0.2-7.5,0.8c-5.6,2.3-10.5,5.6-15.4,9.1c-0.2,0.1-0.4,0.3-0.5,0.5c-0.3,0.4-0.6,0.7-0.3,1.2c0.3,0.4,0.7,0.3,1.1,0.2
		c2.5-0.4,5-0.6,7.4-0.6c5,0,6.7,1,8.2,4.9c0.2,0.5,0.4,1,0.6,1.6c0,0,0,0.1,0.1,0.2c1.5,4.3,0.1,7.6-2.9,10.6
		c-0.7,0.7-1.6,0.6-2.4,0.5c-0.1,0-0.3,0-0.4,0h-0.1c-2.9-0.2-5.7-0.4-8.6-0.3h0l5.3,8L210.4,208l88.8-133.2c0,0,0,0,0,0
		c-0.1-0.2-0.2-0.3-0.3-0.4c-1.9-3.2-2.3-5.9-0.3-9.1C299.9,63.4,300.5,61.1,301.3,59z M188,128.1c-1.7-11.5,6.2-22.1,17.7-23.8
		c11.5-1.7,22.2,6.2,23.8,17.7c1.7,11.4-6.2,22-17.6,23.7C200.4,147.4,189.7,139.6,188,128.1z"/>
	<polygon class="st2" points="417.4,-0.4 386.5,45.4 231.6,274.2 210.4,305.5 170.8,247.9 114.2,165.6 0,-0.4 71.5,-0.4 114,63.4 
		114,63.4 119.3,71.4 210.4,208 299.2,74.7 346.7,3.6 349.3,-0.4 	"/>
	<linearGradient id="SVGID_2_" gradientUnits="userSpaceOnUse" x1="324.9713" y1="248.7207" x2="324.9713" y2="123.5339">
		<stop  offset="0" style="stop-color:#333333"/>
		<stop  offset="1" style="stop-color:#666766"/>
	</linearGradient>
	<path class="st3" d="M318.1,165.6v85h13.8v-85H318.1z"/>
	<linearGradient id="SVGID_3_" gradientUnits="userSpaceOnUse" x1="389.5421" y1="248.7113" x2="389.5421" y2="123.5386">
		<stop  offset="0" style="stop-color:#333333"/>
		<stop  offset="1" style="stop-color:#666766"/>
	</linearGradient>
	<path class="st4" d="M410,165.6v56.8l-19.4-22.2l-30.1-34.6h-4.8v85h13.2V194l14.8,17.3l34.7,40.5h5v-86.2H410z"/>
	<linearGradient id="SVGID_4_" gradientUnits="userSpaceOnUse" x1="474.8961" y1="248.7207" x2="474.8961" y2="123.5339">
		<stop  offset="0" style="stop-color:#333333"/>
		<stop  offset="1" style="stop-color:#666766"/>
	</linearGradient>
	<path class="st5" d="M502.6,177.7v-12h-55.4v85H502v-12h-41v-25.9h29.9v-11.5H461v-23.6H502.6z"/>
	<linearGradient id="SVGID_5_" gradientUnits="userSpaceOnUse" x1="562.9" y1="248.7164" x2="562.9" y2="123.5363">
		<stop  offset="0" style="stop-color:#333333"/>
		<stop  offset="1" style="stop-color:#666766"/>
	</linearGradient>
	<path class="st6" d="M583.3,250.6l-13.9-20.5h-29.2l0,20.5h-14.4v-84.5h14.4l59.8,84.5H583.3z M540.2,188.5v30.8h21.4L540.2,188.5z
		"/>
	
		<radialGradient id="SVGID_6_" cx="247.7269" cy="137.105" r="137.9239" gradientTransform="matrix(1 0 0 0.3702 0 86.3469)" gradientUnits="userSpaceOnUse">
		<stop  offset="0" style="stop-color:#FFFFFF"/>
		<stop  offset="2.360821e-03" style="stop-color:#FFFFFF;stop-opacity:0.9976"/>
		<stop  offset="1" style="stop-color:#FFFFFF;stop-opacity:0"/>
	</radialGradient>
	<path class="st7" d="M386.5,45.4L231.6,274.2c-22.4-4.2-43.1-13.4-60.9-26.4l-56.6-82.2c-3.4-12.5-5.2-25.7-5.2-39.3
		c0-19.4,3.7-37.9,10.3-54.9c1-2.6,2.1-5.2,3.3-7.7c1.8-3.8,3.7-7.6,5.7-11.3c3.3-5.7,6.9-11.3,10.8-16.5c3.7-5,7.8-9.7,12.1-14.2
		c2.5-2.6,5.1-5.1,7.7-7.4c3.6-0.4,7,0.2,10.2,2.1c3.6,2.1,6.6,4.9,9.7,7.6c1.9,1.6,3.5,1.4,4.9-0.8c1.1-1.7,1.9-3.6,2.6-5.5
		c0.9-2.7,0.5-5.2-1.4-7.5c-1.7-2-3.6-3.9-5.8-5.5c-0.6-0.4-1.5-0.8-1.2-1.9c0.2,0,0.5-0.1,0.7-0.1c3.8-0.1,7.5,0.6,11.2,1.2
		c5.7,1,10.5,3.5,13.9,8.4c1.7,2.4,3.4,4.9,4.9,7.4c0.7,1.1,1.5,1.7,2.8,1.6c1.7,0,3.4,0.1,5,0.2c1,0.1,1.8-0.2,2.5-0.9
		c1.5-1.5,2.7-3.2,3.8-5c1.2-2,1.2-4.1,0.1-6.1c-0.8-1.4-1.6-2.8-2.6-4.1c-1-1.2-2.1-2.5-3.2-3.7c-0.3-0.4-1-0.9-0.6-1.5
		c0.4-0.6,1.1-0.2,1.6,0c0,0,0.1,0,0.1,0c0,0,0,0,0.1,0c4.7,1.5,9.2,3.5,13.6,5.7c4.7,2.3,7.3,6.1,8.8,10.9c0.6,2.1,1.6,4.2,1.8,6.4
		c0.2,3.7,2.6,4.5,5.3,5.8c3.3,1.6,5.7,0.8,8.3-1c3.8-2.7,4.8-5.3,3.4-9.7c-0.6-2.1-1.3-4.2-2.2-6.2c-0.3-0.6-0.7-1.3-0.2-1.8
		c0.7-0.6,1.2,0.2,1.8,0.5c0.2,0.1,0.3,0.2,0.4,0.3c3.6,2.9,7,5.9,10.1,9.3c3.3,3.6,5.1,7.6,4.9,12.6c-0.1,3-0.2,5.9-0.6,8.9
		c-0.2,1.5,0.1,2.5,1.3,3.5c1.5,1.2,3,2.4,4.3,3.8c0.6,0.6,1.3,0.8,2.1,0.7c1.2-0.2,2.4-0.3,3.6-0.6c4.6-1.1,6.1-2.9,6.4-7.6
		c0.2-2.5,0.1-5.1-0.3-7.6c-0.1-0.6-0.4-1.5,0.5-1.8c0.7-0.3,1.1,0.5,1.4,1c2.7,4.1,5.1,8.3,7.2,12.7c2,4.3,2.5,8.6,0.9,13.2
		c-0.7,2.2-1.4,4.4-2.6,6.3c-2,3.2-1.6,5.8,0.3,9.1c0.1,0.2,0.2,0.3,0.3,0.4l47.5-71.2C362.5,14.8,376,29,386.5,45.4z"/>
	<path class="st2" d="M269,276.5h-1l-6.1-15.9h1.5l5.2,13.7l5.1-13.7h1.4L269,276.5z"/>
	<path class="st2" d="M278.9,256.5v-2.4h1.7v2.4H278.9z M279.1,276.5v-15.9h1.4v15.9H279.1z"/>
	<path class="st2" d="M295.4,276.5v-9.7c0-2.9-0.6-5.3-4-5.3c-2.3,0-3.9,2.1-4.4,3.5v11.5h-1.4v-12.5c0-1.3-0.2-2-0.3-3.4h1.1
		l0.5,2.5c0.6-0.8,1.9-2.8,4.7-2.8c4,0,5.2,2.6,5.2,6.2v10H295.4z"/>
	<path class="st2" d="M302.6,268.9c0,3.8,1.1,6.8,5,6.8c1.8,0,3.3-0.6,4.9-1.4l0.4,1.3c-1.8,0.9-3.7,1.3-5.6,1.3
		c-4.6,0-6.3-3.7-6.3-8.1c0-3.7,1.4-8.4,6.2-8.4c5.1,0,6.2,3.9,6.2,8.6H302.6z M307.3,261.5c-3.1,0-4.5,2.5-4.7,6.3h9.6
		C312.1,263.6,310.7,261.5,307.3,261.5z"/>
	<path class="st2" d="M407.8,268.9c0,3.8,1.1,6.8,5,6.8c1.8,0,3.3-0.6,4.9-1.4l0.4,1.3c-1.8,0.9-3.7,1.3-5.6,1.3
		c-4.6,0-6.3-3.7-6.3-8.1c0-3.7,1.4-8.4,6.2-8.4c5.1,0,6.2,3.9,6.2,8.6H407.8z M412.5,261.5c-3.1,0-4.5,2.5-4.7,6.3h9.6
		C417.3,263.6,415.9,261.5,412.5,261.5z"/>
	<path class="st2" d="M327.7,276.5c0-0.4-0.5-1.5-0.6-2c-0.8,1.3-2.4,2.4-4.6,2.4c-2.8,0-5.6-1.3-5.6-4.5c0-3.2,1.7-5.3,8.4-5.3h1.6
		v-1.5c0-2.6-1-4.1-3.6-4.1c-2.2,0-3.7,0.6-5.2,1.4l-0.5-1.2c1.7-0.7,3.3-1.2,5.7-1.2c3.1,0,5.1,1.6,5.1,5.1v6.2
		c0,1.2,0.2,2.8,0.4,4.9H327.7z M327.1,268.2h-1.2c-5.6,0-7.4,1.2-7.4,4.1c0,2,1.4,3.4,4,3.4c2,0,3.7-1,4.5-2.5V268.2z"/>
	<path class="st2" d="M339.5,276.9c-4.7,0-6.6-3.3-6.6-8.2c0-5.1,1.9-8.4,6.7-8.4c1.4,0,3.4,0.6,4.5,1l-0.5,1.2
		c-1.2-0.6-2.9-1.1-4.1-1.1c-4,0-5.1,3.2-5.1,7.3c0,3.7,1.1,7,5.1,7c1.1,0,2.8-0.4,4.2-1.1l0.5,1.2
		C343,276.5,340.7,276.9,339.5,276.9z"/>
	<path class="st2" d="M358,276.5c0-0.4-0.5-1.5-0.6-2c-0.8,1.3-2.4,2.4-4.6,2.4c-2.8,0-5.6-1.3-5.6-4.5c0-3.2,1.7-5.3,8.4-5.3h1.6
		v-1.5c0-2.6-1-4.1-3.6-4.1c-2.2,0-3.7,0.6-5.2,1.4l-0.5-1.2c1.7-0.7,3.3-1.2,5.7-1.2c3.1,0,5.1,1.6,5.1,5.1v6.2
		c0,1.2,0.2,2.8,0.4,4.9H358z M357.3,268.2h-1.2c-5.6,0-7.4,1.2-7.4,4.1c0,2,1.4,3.4,4,3.4c2,0,3.7-1,4.5-2.5V268.2z"/>
	<path class="st2" d="M361,281.4l-0.4-1.3c2.4-0.5,3.2-1.4,3.2-3.5v-16h1.4v15.7C365.2,279.1,364.1,280.6,361,281.4z M363.7,256.5
		v-2.4h1.7v2.4H363.7z"/>
	<path class="st2" d="M380.1,276.5v-9.7c0-2.9-0.6-5.3-4-5.3c-2.3,0-3.9,2.1-4.4,3.5v11.5h-1.4v-12.5c0-1.3-0.2-2-0.3-3.4h1.1
		l0.5,2.5c0.6-0.8,1.9-2.8,4.7-2.8c4,0,5.2,2.6,5.2,6.2v10H380.1z"/>
	<path class="st2" d="M386.5,256.5v-2.4h1.7v2.4H386.5z M386.6,276.5v-15.9h1.4v15.9H386.6z"/>
	<path class="st2" d="M398.9,276.9c-4.7,0-6.6-3.3-6.6-8.2c0-5.1,1.9-8.4,6.7-8.4c1.4,0,3.4,0.6,4.5,1l-0.5,1.2
		c-1.2-0.6-2.9-1.1-4.1-1.1c-4,0-5.1,3.2-5.1,7.3c0,3.7,1.1,7,5.1,7c1.1,0,2.8-0.4,4.2-1.1l0.5,1.2
		C402.4,276.5,400.1,276.9,398.9,276.9z"/>
	<path class="st2" d="M436.3,272.2c-3.8,0-7-2.3-7-6.7c0-3.6,2.7-6.7,6.5-6.7c1.3,0,2,0.3,2.6,0.5v7.4l1.5-0.2l0.5,1.2l-3.3,0.5
		v-8.2c-0.2-0.1-0.8-0.2-1.2-0.2c-3.1,0-5,2.2-5,5.4c0,3.8,2.2,5.7,5.5,5.7c4.9,0,8.2-2.4,8.2-7.7c0-5.8-4-8.4-8.6-8.4
		c-6.1,0-10.7,3.6-10.7,10.6c0,7,4.4,10.5,10.5,10.5c2.9,0,4.5-0.3,7.4-1.3l0.5,1.2c-2.6,1-5.4,1.2-8,1.2c-7.4,0-11.9-4.4-11.9-11.7
		c0-7.4,5.2-11.7,12.2-11.7c5.2,0,10.2,3.2,10.2,9.5C446.1,269.3,441.9,272.2,436.3,272.2z"/>
	<path class="st2" d="M457,279.1c-0.9,2.4-1.7,3.1-4.2,4.1l-0.4-1.3c1.9-0.5,2.7-1.3,3.1-2.3l1.4-3.7l-6.4-15.2l1.5,0l5.6,13.6
		l4.7-13.6h1.4L457,279.1z"/>
	<path class="st2" d="M477.1,276.5c0-0.4-0.5-1.5-0.6-2c-0.8,1.3-2.4,2.4-4.6,2.4c-2.8,0-5.6-1.3-5.6-4.5c0-3.2,1.7-5.3,8.4-5.3h1.6
		v-1.5c0-2.6-1-4.1-3.6-4.1c-2.2,0-3.7,0.6-5.2,1.4l-0.5-1.2c1.7-0.7,3.3-1.2,5.7-1.2c3.1,0,5.1,1.6,5.1,5.1v6.2
		c0,1.2,0.2,2.8,0.4,4.9H477.1z M476.4,268.2h-1.2c-5.6,0-7.4,1.2-7.4,4.1c0,2,1.4,3.4,4,3.4c2,0,3.7-1,4.5-2.5V268.2z"/>
	<path class="st2" d="M492.9,276.5V267c0-3.3-0.7-5.6-4-5.6c-2.5,0-4.2,2.4-4.5,3.6v11.5H483v-22.8h1.4v9.4c0.7-1.4,2.6-2.8,4.7-2.8
		c4.1,0,5.2,2.9,5.2,5.9v10.3H492.9z"/>
	<path class="st2" d="M505.1,276.9c-5.1,0-6.6-3.7-6.6-8.4c0-4.4,1.5-8.2,6.6-8.2s6.6,3.6,6.6,8.2
		C511.6,273.1,510.1,276.9,505.1,276.9z M505.1,261.5c-3.8,0-5.1,3.2-5.1,7c0,3.9,1,7.2,5.1,7.2c4.2,0,5-3.3,5-7.2
		C510.1,264.6,509.1,261.5,505.1,261.5z"/>
	<path class="st2" d="M521.6,276.9c-5.1,0-6.6-3.7-6.6-8.4c0-4.4,1.5-8.2,6.6-8.2c5.1,0,6.6,3.6,6.6,8.2
		C528.2,273.1,526.7,276.9,521.6,276.9z M521.6,261.5c-3.8,0-5.1,3.2-5.1,7c0,3.9,1,7.2,5.1,7.2c4.2,0,5-3.3,5-7.2
		C526.7,264.6,525.7,261.5,521.6,261.5z"/>
	<path class="st2" d="M534.4,276.9v-2.4h1.9v2.4H534.4z"/>
	<path class="st2" d="M546.2,276.9c-4.7,0-6.6-3.3-6.6-8.2c0-5.1,1.9-8.4,6.7-8.4c1.4,0,3.4,0.6,4.5,1l-0.5,1.2
		c-1.2-0.6-2.9-1.1-4.1-1.1c-4,0-5.1,3.2-5.1,7.3c0,3.7,1.1,7,5.1,7c1.1,0,2.8-0.4,4.2-1.1l0.5,1.2
		C549.7,276.5,547.4,276.9,546.2,276.9z"/>
	<path class="st2" d="M560.6,276.9c-5.1,0-6.6-3.7-6.6-8.4c0-4.4,1.5-8.2,6.6-8.2s6.6,3.6,6.6,8.2
		C567.1,273.1,565.6,276.9,560.6,276.9z M560.6,261.5c-3.8,0-5.1,3.2-5.1,7c0,3.9,1,7.2,5.1,7.2c4.2,0,5-3.3,5-7.2
		C565.6,264.6,564.6,261.5,560.6,261.5z"/>
	<path class="st2" d="M590.9,276.5v-10.1c0-2.4-0.5-5-4.1-5c-2.1,0-3.8,2.1-4.4,3.7v11.3H581v-10.1c0-3-1.3-5-4-5
		c-2.1,0-3.8,1.9-4.3,3.5v11.5h-1.4v-12.2c0-1.3-0.2-2.5-0.3-3.6h1.1l0.5,2.5c0.7-1.1,2.1-2.8,4.6-2.8c2.8,0,4.2,1.7,4.8,3.5
		c0.9-1.5,2.3-3.5,4.9-3.5c3.5,0,5.4,1.8,5.4,6.1v10.1H590.9z"/>
	<g>
		<path class="st2" d="M242.9,299.4v5.7h-1.4v-5.7h-5.4v-1.2h5.4v-5.7h1.4v5.7h5.4v1.2H242.9z"/>
		<path class="st2" d="M254.6,305.5c-2,0-2.8-0.1-4.5-0.7l0.5-1.3c1.4,0.5,2.1,0.9,4,0.9c2.1,0,4.5-0.8,4.5-3.9
			c0-3.7-2.5-4.5-5.8-4.5v-1c2.9,0,5.3-0.7,5.3-3.9c0-2.9-1.7-3.5-3.7-3.5c-1.4,0-2.7,0.6-4,1.3l-0.5-1.3c1.3-0.7,3.1-1.1,4.6-1.1
			c3.1,0,5.2,1.4,5.2,4.6c0,2.9-1.8,4.1-4,4.4c2.1,0.3,4.4,1.6,4.4,5C260.6,304.3,257.7,305.5,254.6,305.5z"/>
		<path class="st2" d="M269.7,305.5c-2.3,0-5.7-0.8-5.7-4.8c0-2.7,1.8-4.4,4.4-5.3c-0.8-0.4-3.8-1.5-3.8-4.4c0-3.1,2.2-4.6,5.3-4.6
			s5.3,1.2,5.3,4.6c0,2.8-3,4.2-4,4.4c2.9,1,4.5,2.7,4.5,5.2C275.6,304.9,272,305.5,269.7,305.5z M269.8,296.1
			c-1.9,0.5-4.4,1.7-4.4,4.7c0,2.6,1.9,3.7,4.3,3.7c2.4,0,4.5-1,4.5-3.7C274.2,297.9,271.6,296.6,269.8,296.1z M269.8,287.6
			c-2.2,0-3.9,0.9-3.9,3.5c0,2.1,2.3,3.5,3.8,3.9c1.6-0.3,4.1-1.8,4.1-3.9C273.8,288.4,272.1,287.6,269.8,287.6z"/>
		<path class="st2" d="M281.6,305.1H280l7.4-17.1h-9.6v-1.1h10.3l0.5,1.3L281.6,305.1z"/>
		<path class="st2" d="M304.5,305.5c-4.9,0-5.8-4.5-5.8-8.9c0-4.8,2.2-10.1,6.8-10.1c1.1,0,2.3,0.2,3.5,0.5l-0.5,1.3
			c-1-0.4-1.7-0.7-2.8-0.7c-3.4,0-5.7,3.5-5.7,9.1c0.8-1.8,2.4-3.4,4.5-3.4c3.5,0,5.3,2.5,5.3,6C309.9,302.4,308,305.5,304.5,305.5z
			 M304.6,294.3c-2.7,0-3.9,2.3-4.3,3.4c0,5,1.4,6.7,4.3,6.7c2.4,0,3.9-2.1,3.9-5.2C308.4,296.3,307.3,294.3,304.6,294.3z"/>
		<path class="st2" d="M317.5,305.5c-1.8,0-2.9-0.1-4.6-0.6l0.5-1.3c1.3,0.5,2.6,0.8,4.1,0.8c2.9,0,4.6-1.8,4.6-5
			c0-3-1.5-4.8-3.9-4.8c-1.4,0-2.7,0.6-3.8,1.1l-1.3-0.5v-8.3h9.5v1.1h-8.1v6.3c1-0.2,1.9-0.8,3.6-0.8c3.6,0,5.3,2.4,5.3,5.9
			C323.5,303.3,321.3,305.5,317.5,305.5z"/>
		<path class="st2" d="M339,305.5c-4.9,0-5.8-4.5-5.8-8.9c0-4.8,2.2-10.1,6.8-10.1c1.1,0,2.3,0.2,3.5,0.5l-0.5,1.3
			c-1-0.4-1.7-0.7-2.8-0.7c-3.4,0-5.7,3.5-5.7,9.1c0.8-1.8,2.4-3.4,4.5-3.4c3.5,0,5.3,2.5,5.3,6C344.4,302.4,342.5,305.5,339,305.5z
			 M339.1,294.3c-2.7,0-3.9,2.3-4.3,3.4c0,5,1.4,6.7,4.3,6.7c2.4,0,3.9-2.1,3.9-5.2C342.9,296.3,341.8,294.3,339.1,294.3z"/>
		<path class="st2" d="M353,305.1v-16.4l-3.5,3.1l-0.5-1.3l4.1-3.6h1.3v18.2H353z"/>
		<path class="st2" d="M365.1,305.5c-1.1,0-2.2-0.2-3.5-0.5l0.5-1.3c1,0.4,1.6,0.7,2.8,0.7c3.4,0,5.7-3.5,5.7-9.1
			c-0.8,1.8-2.4,3.4-4.5,3.4c-3.5,0-5.3-2.5-5.3-6c0-3.2,1.9-6.3,5.3-6.3c4.9,0,5.8,4.5,5.8,8.9
			C371.9,300.2,369.8,305.5,365.1,305.5z M366.1,287.6c-2.4,0-3.9,2.1-3.9,5.2c0,3,1.1,4.9,3.8,4.9c2.7,0,3.9-2.3,4.3-3.4
			C370.4,289.4,369,287.6,366.1,287.6z"/>
		<path class="st2" d="M385.8,305.5c-1.1,0-2.2-0.2-3.5-0.5l0.5-1.3c1,0.4,1.6,0.7,2.8,0.7c3.4,0,5.7-3.5,5.7-9.1
			c-0.8,1.8-2.4,3.4-4.5,3.4c-3.5,0-5.3-2.5-5.3-6c0-3.2,1.9-6.3,5.3-6.3c4.9,0,5.8,4.5,5.8,8.9
			C392.6,300.2,390.5,305.5,385.8,305.5z M386.8,287.6c-2.4,0-3.9,2.1-3.9,5.2c0,3,1.1,4.9,3.8,4.9c2.7,0,3.9-2.3,4.3-3.4
			C391.1,289.4,389.7,287.6,386.8,287.6z"/>
		<path class="st2" d="M401.1,305.5c-4.9,0-5.8-4.5-5.8-8.9c0-4.8,2.2-10.1,6.8-10.1c1.1,0,2.3,0.2,3.5,0.5l-0.5,1.3
			c-1-0.4-1.7-0.7-2.8-0.7c-3.4,0-5.7,3.5-5.7,9.1c0.8-1.8,2.4-3.4,4.5-3.4c3.5,0,5.3,2.5,5.3,6
			C406.5,302.4,404.6,305.5,401.1,305.5z M401.2,294.3c-2.7,0-3.9,2.3-4.3,3.4c0,5,1.4,6.7,4.3,6.7c2.4,0,3.9-2.1,3.9-5.2
			C405,296.3,403.9,294.3,401.2,294.3z"/>
		<path class="st2" d="M414.6,305.5c-5.5,0-5.7-5.4-5.7-9.7c0-4,0.7-9.3,5.8-9.3c5.5,0,5.8,4.9,5.8,9.3S420.2,305.5,414.6,305.5z
			 M414.6,287.6c-3.8,0-4.3,4.7-4.3,8.2c0,4.2,0.3,8.6,4.3,8.6c4.4,0,4.4-4.6,4.4-8.6C419,291.7,418.8,287.6,414.6,287.6z"/>
	</g>
</g>
<g id="_x39_9d_logo" class="st8">
	<g class="st9">
		<defs>
			<path id="SVGID_7_" d="M36.3,73.7C52,46.4,86.6,37,113.8,52.8c27.1,15.7,36.4,50.6,20.7,77.9c-15.7,27.3-50.3,36.6-77.4,20.9
				C30,135.8,20.7,100.9,36.3,73.7z M252.7,73.7c15.7-27.3,50.3-36.6,77.4-20.9c27.1,15.7,36.4,50.6,20.7,77.9
				c-15.7,27.3-50.3,36.6-77.4,20.9C246.4,135.8,237.1,100.9,252.7,73.7z M555.7,245.8c-11.2,11.3-25.5,16.9-42.9,16.9
				c-8.4,0-16.2-1.5-23.6-4.5c-7.3-3-13.5-7.1-18.7-12.4c-5.1-5.3-9.2-11.6-12.1-19c-3-7.4-4.4-15.4-4.4-24.2
				c0-8.5,1.5-16.4,4.4-23.7c3-7.4,7.1-13.6,12.4-18.8c5.3-5.2,11.6-9.2,18.9-12.2c7.3-3,15.3-4.5,24-4.5c8.4,0,16.2,1.5,23.3,4.5
				c7.1,3,13.4,7.1,18.6,12.4c5.3,5.3,9.4,11.5,12.4,18.5c3,7,4.4,14.8,4.4,23.2C572.5,220,566.9,234.6,555.7,245.8z M193.6,163.3
				c10.5,18.9,26.1,35.3,46.2,47c16.8,9.8,35,15,53.1,16.3l-54,94.1h80.8l64.4-112.2c0.5,16.2,3.4,31.2,8.5,44.9
				c5.8,15.3,13.8,28.5,24.3,39.6c10.4,11.1,22.8,19.8,37.1,26.1c14.3,6.3,30,9.4,47.1,9.4c16.2,0,29.8-2.6,40.8-7.7
				c11-5.2,21.2-13.5,30.6-25.1v24.9h66.3v-336h-70v121.1c-9.6-9.4-19.9-16.4-30.8-20.9c-10.9-4.5-23.7-6.8-38.3-6.8
				c-16.5,0-31.8,3.1-45.9,9.4c-10.3,4.6-19.6,10.4-27.9,17.5c0.9-44-21.5-87.1-62-110.7c-59.4-34.5-135.3-14-169.5,45.7
				c-0.2,0.4-0.5,0.9-0.7,1.3c-10.5-18.9-26.1-35.3-46.2-47C88.1-40.4,12.2-20-22.1,39.8C-56.3,99.5-36,175.8,23.4,210.3
				c16.8,9.8,35,15,53.1,16.3l-54,94.1h80.8l89.6-156C193.1,164.2,193.4,163.7,193.6,163.3L193.6,163.3z"/>
		</defs>
		<clipPath id="SVGID_8_">
			<use xlink:href="#SVGID_7_"  style="overflow:visible;"/>
		</clipPath>
		<g class="st10">
			<defs>
				<rect id="SVGID_9_" x="-585.5" y="-733.2" width="1770.8" height="1770.8"/>
			</defs>
			<clipPath id="SVGID_10_">
				<use xlink:href="#SVGID_9_"  style="overflow:visible;"/>
			</clipPath>
			<rect x="-49.8" y="-33.7" class="st11" width="699.6" height="373.2"/>
		</g>
	</g>
</g>
<g id="Guides">
</g>
<g id="TEMPLATE__x28_delete_x29_" class="st8">
	<path class="st12" d="M-200-347.4v1000H800v-1000H-200z M600,452.6H0v-600h600V452.6z"/>
	<g class="st9">
		<defs>
			<path id="SVGID_11_" d="M47.5-52.5c2-3.5,6.4-4.6,9.8-2.6c3.4,2,4.6,6.4,2.6,9.9c-2,3.5-6.4,4.6-9.8,2.6
				C46.7-44.6,45.5-49.1,47.5-52.5z M76.1-52.5c2-3.5,6.4-4.6,9.8-2.6c3.4,2,4.6,6.4,2.6,9.9c-2,3.5-6.4,4.6-9.8,2.6
				C75.3-44.6,74.1-49.1,76.1-52.5z M119.4-30.7c-1.4,1.4-3.2,2.1-5.4,2.1c-1.1,0-2.1-0.2-3-0.6c-0.9-0.4-1.7-0.9-2.4-1.6
				c-0.7-0.7-1.2-1.5-1.5-2.4c-0.4-0.9-0.6-2-0.6-3.1c0-1.1,0.2-2.1,0.6-3c0.4-0.9,0.9-1.7,1.6-2.4c0.7-0.7,1.5-1.2,2.4-1.5
				c0.9-0.4,1.9-0.6,3-0.6c1.1,0,2.1,0.2,3,0.6c0.9,0.4,1.7,0.9,2.4,1.6c0.7,0.7,1.2,1.5,1.6,2.3c0.4,0.9,0.6,1.9,0.6,2.9
				C121.5-34,120.8-32.1,119.4-30.7z M121-63.8v15.3c-1.2-1.2-2.5-2.1-3.9-2.7c-1.4-0.6-3-0.9-4.9-0.9c-2.1,0-4,0.4-5.8,1.2
				c-1.8,0.8-3.3,1.9-4.6,3.3c-1.3,1.4-2.3,3.1-3.1,5c-0.7,1.9-1.1,4-1.1,6.3c0,2.3,0.4,4.5,1.1,6.4c0.7,1.9,1.8,3.6,3.1,5
				c1.3,1.4,2.9,2.5,4.7,3.3c1.8,0.8,3.8,1.2,6,1.2c2.1,0,3.8-0.3,5.2-1c1.4-0.7,2.7-1.7,3.9-3.2v3.2h8.4v-42.6H121z M68-55.5
				c0.2-0.4,0.4-0.9,0.7-1.3c4.3-7.6,14-10.2,21.5-5.8c7.5,4.4,10.1,14.1,5.8,21.6L84.6-21.2H74.4l6.8-11.9
				c-2.3-0.2-4.6-0.8-6.7-2.1c-2.9-1.7-5.1-4.2-6.4-7.1c-0.2,0.4-0.4,0.9-0.7,1.3L56-21.2H45.8l6.8-11.9c-2.3-0.2-4.6-0.8-6.7-2.1
				c-7.5-4.4-10.1-14.1-5.8-21.6c4.3-7.6,14-10.2,21.5-5.8C64.5-60.9,66.7-58.4,68-55.5z M140.7-39.2c0.4-1.7,1.1-2.9,2.3-3.8
				c1.2-0.9,2.6-1.3,4.3-1.3c1.7,0,3.2,0.5,4.4,1.4c1.2,0.9,2,2.2,2.3,3.7H140.7z M161.6-42.1c-0.8-2-1.9-3.7-3.3-5.1
				c-1.4-1.4-3-2.6-5-3.4c-1.9-0.8-4-1.2-6.2-1.2c-2.1,0-4.1,0.4-6,1.2c-1.9,0.8-3.5,2-4.9,3.4c-1.4,1.4-2.5,3.1-3.3,5
				c-0.8,1.9-1.2,4-1.2,6.2c0,2.2,0.4,4.3,1.2,6.2c0.8,1.9,1.9,3.6,3.3,5c1.4,1.4,3,2.5,4.9,3.4c1.9,0.8,3.9,1.2,6.1,1.2
				c3.1,0,6-0.9,8.5-2.7c2.4-1.7,4.3-4.1,5.7-7.1h-9.2c-0.9,0.9-1.8,1.5-2.6,1.8c-0.8,0.3-1.7,0.5-2.8,0.5c-1.8,0-3.2-0.5-4.4-1.5
				c-1.2-1-1.9-2.3-2.1-4h22.1C163-36.3,162.8-39.3,161.6-42.1z M187.2-42.5c-0.4-5.8-5-9.3-11.3-9.3c-6,0-11.5,3.8-11.5,9.6
				c0,3.5,2,6.4,9.4,8.7c4.4,1.4,5.4,2.2,5.4,3.9c0,1.4-1.5,2.3-3.1,2.3c-1.8,0-3.1-0.9-3.4-2.7H164c0.6,6,5.4,9.8,12,9.8
				c6.7,0,12-3.9,12-10.1c0-4.3-2.3-7.1-9.3-9c-4.1-1.1-5.5-1.9-5.5-3.5c0-1.1,1.1-2,2.6-2c1.4,0,2.7,0.5,2.7,2.2H187.2z M194.9-54
				c2.9,0,5.3-2.4,5.3-5.3s-2.4-5.3-5.3-5.3c-2.9,0-5.3,2.4-5.3,5.3S192-54,194.9-54z M199.3-21.2h-8.8v-29.7h8.8V-21.2z
				 M216.2-45.2c2.7,0,4.9,2.2,4.9,4.9s-2.2,4.9-4.9,4.9c-2.7,0-4.9-2.2-4.9-4.9C211.3-43,213.5-45.2,216.2-45.2z M222.4-15.1
				c-1,1.4-2.9,1.9-4.5,1.9c-1.9,0.1-4.5-0.3-5.7-1.9c-1.2-1.5-1-3.6,0.7-4.6c0.5-0.3,1-0.5,1.5-0.6h4.4c1.9,0,4.4,0.5,4.3,2.9
				C223.1-16.5,222.8-15.7,222.4-15.1z M213.8-27.1c-3.6-0.6-3.5-2-2.6-2.7c8.2,3.1,18.1-0.8,18.2-10.3c0-3.5-1.3-5.7-2.2-6.7
				c0.7-1.4,1.6-2.2,3.4-2.6l-3.7-6.5c-3.4,0.3-5.6,2.4-6.6,4.5c-2-0.8-6.1-0.9-9.3,0.3c-1.6,0.6-3,1.4-4.2,2.5
				c-1.2,1-2.1,2.3-2.8,3.8c-0.7,1.5-1,3.1-1,4.8c0,2.3,0.7,4.9,2,6.8c-3.6,3.5-3.4,8.7,0.3,12c-0.4,0.3-0.8,0.6-1.1,1
				c-3.3,3.6-1.8,8.7,2.1,11.3c4.8,3.5,13.4,3.7,18.7,1.3c9.3-3.8,9.6-17.6-1.2-19.4C220.8-27.5,217.4-26.5,213.8-27.1z M232.8-21.2
				h8.9v-16.6c0-3.9,1.7-5.8,5-5.8c1.6,0,2.8,0.5,3.5,1.5c0.7,1,1.1,2.6,1.1,4.7v16.2h8.9v-18.6c0-1.2-0.1-2.2-0.1-3.1
				c-0.1-0.9-0.3-1.7-0.5-2.4c-0.2-0.7-0.5-1.3-0.9-1.9c-0.4-0.6-0.9-1.1-1.4-1.7c-0.9-0.9-2.1-1.7-3.5-2.2
				c-1.4-0.5-2.9-0.8-4.4-0.8c-1.9,0-3.5,0.3-4.7,1c-1.2,0.7-2.4,1.7-3.4,3.2v-3.1h-8.4V-21.2z M285.1-42.5c-0.4-5.8-5-9.3-11.3-9.3
				c-6,0-11.5,3.8-11.5,9.6c0,3.5,2,6.4,9.4,8.7c4.4,1.4,5.4,2.2,5.4,3.9c0,1.4-1.5,2.3-3.1,2.3c-1.8,0-3.1-0.9-3.4-2.7H262
				c0.6,6,5.4,9.8,12,9.8c6.7,0,12-3.9,12-10.1c0-4.3-2.3-7.1-9.3-9c-4.1-1.1-5.5-1.9-5.5-3.5c0-1.1,1.1-2,2.6-2
				c1.4,0,2.7,0.5,2.7,2.2H285.1z"/>
		</defs>
		<clipPath id="SVGID_12_">
			<use xlink:href="#SVGID_11_"  style="overflow:visible;"/>
		</clipPath>
		<g class="st13">
			<defs>
				<rect id="SVGID_13_" x="-3.3" y="-204.9" width="330.7" height="330.7"/>
			</defs>
			<clipPath id="SVGID_14_">
				<use xlink:href="#SVGID_13_"  style="overflow:visible;"/>
			</clipPath>
			<rect x="35.9" y="-66.8" class="st14" width="252.2" height="62.8"/>
		</g>
	</g>
	<g class="st9">
		<path class="st15" d="M43,38.4h7v3.1H39.7V24.7H43V38.4z"/>
		<path class="st15" d="M64.3,35.4c0,3.8-2.7,6.4-6.4,6.4c-3.6,0-6.4-2.6-6.4-6.4c0-3.8,2.7-6.3,6.4-6.3
			C61.6,29,64.3,31.6,64.3,35.4z M54.8,35.4c0,2,1.3,3.5,3.2,3.5c1.9,0,3.1-1.5,3.1-3.5c0-2-1.2-3.5-3.1-3.5
			C56.1,31.9,54.8,33.3,54.8,35.4z"/>
		<path class="st15" d="M77.9,31.9h-1.8c0.1,0.4,0.2,0.9,0.2,1.4c0,2.4-2,4.2-4.8,4.2c-0.7,0-1.4-0.1-2-0.3
			c-0.2,0.2-0.3,0.5-0.3,0.9c0,0.6,0.5,1,1.2,1h2.9c2.5,0,4,1.2,4,3.5c0,2.7-2.1,4.2-5.4,4.2c-3.6,0-5.5-1.3-5.5-3.7
			c0-1.1,0.6-1.8,1.2-2.1c-0.7-0.5-1.4-1.4-1.4-2.6c0-1.2,0.5-2,1.2-2.6c-0.5-0.7-0.8-1.5-0.8-2.5c0-2.5,2.1-4.3,4.9-4.3
			c0.6,0,1.2,0.1,1.8,0.3h4.6V31.9z M70.7,41.5c-0.7,0.1-1.2,0.6-1.2,1.4c0,1.1,1,1.7,2.5,1.7c1.4,0,2.3-0.6,2.3-1.7
			c0-0.9-0.7-1.3-1.7-1.3H70.7z M69.7,33.3c0,1.1,0.7,1.9,1.8,1.9s1.8-0.8,1.8-1.9c0-1.2-0.7-2-1.8-2C70.4,31.4,69.7,32.2,69.7,33.3
			z"/>
		<path class="st15" d="M91.8,35.4c0,3.8-2.7,6.4-6.4,6.4c-3.6,0-6.4-2.6-6.4-6.4c0-3.8,2.7-6.3,6.4-6.3C89,29,91.8,31.6,91.8,35.4z
			 M82.2,35.4c0,2,1.3,3.5,3.2,3.5c1.9,0,3.1-1.5,3.1-3.5c0-2-1.2-3.5-3.1-3.5C83.5,31.9,82.2,33.3,82.2,35.4z"/>
		<path class="st15" d="M103.3,29.3h2.8v2.8h-2.8l0,4.9c0,1.2,0.4,1.8,1.6,1.8c0.6,0,0.9-0.1,1.3-0.2v2.7c-0.4,0.1-1,0.3-2,0.3
			c-2.7,0-4-1.1-4-3.8l0-5.7h-2v-2.8h2l0-3h3.1L103.3,29.3z"/>
		<path class="st15" d="M119.6,35.4v1h-8.5c0.1,1.6,1.2,2.7,2.9,2.7c1.2,0,2.1-0.5,2.4-1.4h3c-0.7,2.6-2.6,4.1-5.6,4.1
			c-3.6,0-6-2.5-6-6.3c0-3.7,2.4-6.4,6-6.4C117.2,29,119.6,31,119.6,35.4z M111.1,34.2h5.3c0-1.5-1-2.5-2.6-2.5
			C112.3,31.6,111.3,32.7,111.1,34.2z"/>
		<path class="st15" d="M139.4,33.6v7.9h-3.1v-7.2c0-1.4-0.6-2.2-1.7-2.2c-1.2,0-2.1,0.9-2.1,2.8v6.6h-3.1v-7.2
			c0-1.4-0.6-2.2-1.7-2.2c-1.2,0-2.1,1-2.1,3v6.4h-3.1V29.3h2.7l0.2,1.6c0.6-1,1.7-1.8,3.2-1.8c1.7,0,2.9,0.8,3.5,2.1
			c0.6-1.2,1.8-2.1,3.5-2.1C138.1,29,139.4,30.8,139.4,33.6z"/>
		<path class="st15" d="M155.3,35.4c0,3.6-2.4,6.4-5.7,6.4c-1.8,0-3-0.7-3.6-1.6v6.5h-3.1V29.3h2.7l0.2,1.6c0.7-1,1.8-1.9,3.9-1.9
			C152.9,29,155.3,31.8,155.3,35.4z M145.9,35.3v0.1c0,2.1,1.6,3.3,3.1,3.3c1.7,0,3.1-1.3,3.1-3.4c0-2.1-1.3-3.4-3.1-3.4
			C147.4,32,145.9,33.1,145.9,35.3z"/>
		<path class="st15" d="M161.1,41.5H158V23.9h3.1V41.5z"/>
		<path class="st15" d="M174,33.5v8h-2.7l-0.2-1.5c-0.6,1-1.8,1.8-3.5,1.8c-2.2,0-3.7-1.3-3.7-3.5c0-2.4,1.6-3.3,3.8-3.6l3.1-0.6
			v-0.5c0-1.2-0.6-1.8-1.7-1.8c-1,0-1.8,0.6-1.8,1.6h-3c0.1-2.5,2-4.3,4.8-4.3S174,30.5,174,33.5z M168.5,36.6
			c-0.8,0.2-1.4,0.6-1.4,1.4c0,0.7,0.5,1.2,1.4,1.2c0.8,0,1.5-0.4,1.9-1.1c0.3-0.4,0.4-1,0.4-1.6v-0.4L168.5,36.6z"/>
		<path class="st15" d="M181.2,29.3h2.8v2.8h-2.8l0,4.9c0,1.2,0.4,1.8,1.6,1.8c0.6,0,0.9-0.1,1.3-0.2v2.7c-0.4,0.1-1,0.3-2,0.3
			c-2.7,0-4-1.1-4-3.8l0-5.7h-2v-2.8h2l0-3h3.1L181.2,29.3z"/>
		<path class="st15" d="M197.5,35.4v1H189c0.1,1.6,1.2,2.7,2.9,2.7c1.2,0,2.1-0.5,2.4-1.4h3c-0.7,2.6-2.6,4.1-5.6,4.1
			c-3.6,0-6-2.5-6-6.3c0-3.7,2.4-6.4,6-6.4C195.1,29,197.5,31,197.5,35.4z M189,34.2h5.3c0-1.5-1-2.5-2.6-2.5
			C190.2,31.6,189.2,32.7,189,34.2z"/>
		<path class="st16" d="M210.6,25.1c-2,2.7-3,5-3,8.6c0,3.6,1,6,3,8.6l-2.2,1.5c-2.2-2.7-3.7-5.7-3.7-10.1s1.5-7.4,3.7-10.1
			L210.6,25.1z"/>
		<path class="st16" d="M218.5,41.5h-3.3V29.8h-3.5V27c2.6,0,4-0.6,4.4-2.4h2.4V41.5z"/>
		<path class="st16" d="M233.3,33c0,5.4-2.1,8.7-6,8.7s-6-3.4-6-8.7c0-5.4,2.1-8.7,6-8.7S233.3,27.7,233.3,33z M224.7,33
			c0,3.6,0.9,5.7,2.6,5.7c1.8,0,2.6-2.1,2.6-5.7c0-3.5-0.9-5.6-2.6-5.6C225.6,27.4,224.7,29.5,224.7,33z"/>
		<path class="st16" d="M247.3,33c0,5.4-2.1,8.7-6,8.7s-6-3.4-6-8.7c0-5.4,2.1-8.7,6-8.7S247.3,27.7,247.3,33z M238.7,33
			c0,3.6,0.9,5.7,2.6,5.7c1.8,0,2.6-2.1,2.6-5.7c0-3.5-0.9-5.6-2.6-5.6C239.5,27.4,238.7,29.5,238.7,33z"/>
		<path class="st16" d="M261.2,33c0,5.4-2.1,8.7-6,8.7s-6-3.4-6-8.7c0-5.4,2.1-8.7,6-8.7S261.2,27.7,261.2,33z M252.6,33
			c0,3.6,0.9,5.7,2.6,5.7c1.8,0,2.6-2.1,2.6-5.7c0-3.5-0.9-5.6-2.6-5.6C253.5,27.4,252.6,29.5,252.6,33z"/>
		<path class="st16" d="M278,32.9l5.7,8.5h-3.9l-4-6.1l-4,6.1h-3.9l5.6-8.5l-5.5-8.3h3.9l3.9,5.8l3.9-5.8h3.9L278,32.9z"/>
		<path class="st16" d="M297,41.5h-3.3V29.8h-3.5V27c2.6,0,4-0.6,4.4-2.4h2.4V41.5z"/>
		<path class="st16" d="M311.7,33c0,5.4-2.1,8.7-6,8.7c-3.8,0-6-3.4-6-8.7c0-5.4,2.1-8.7,6-8.7C309.6,24.3,311.7,27.7,311.7,33z
			 M303.1,33c0,3.6,0.9,5.7,2.6,5.7c1.8,0,2.6-2.1,2.6-5.7c0-3.5-0.9-5.6-2.6-5.6C304,27.4,303.1,29.5,303.1,33z"/>
		<path class="st16" d="M325.7,33c0,5.4-2.1,8.7-6,8.7c-3.8,0-6-3.4-6-8.7c0-5.4,2.1-8.7,6-8.7C323.5,24.3,325.7,27.7,325.7,33z
			 M317.1,33c0,3.6,0.9,5.7,2.6,5.7c1.8,0,2.6-2.1,2.6-5.7c0-3.5-0.9-5.6-2.6-5.6C317.9,27.4,317.1,29.5,317.1,33z"/>
		<path class="st16" d="M339.6,33c0,5.4-2.1,8.7-6,8.7c-3.8,0-6-3.4-6-8.7c0-5.4,2.1-8.7,6-8.7C337.5,24.3,339.6,27.7,339.6,33z
			 M331,33c0,3.6,0.9,5.7,2.6,5.7c1.8,0,2.6-2.1,2.6-5.7c0-3.5-0.9-5.6-2.6-5.6C331.9,27.4,331,29.5,331,33z"/>
		<path class="st16" d="M354.9,35.4c0,3.6-2.4,6.4-5.7,6.4c-1.8,0-3-0.7-3.6-1.6v6.5h-3.1V29.3h2.7l0.2,1.6c0.7-1,1.8-1.9,3.9-1.9
			C352.5,29,354.9,31.8,354.9,35.4z M345.5,35.3v0.1c0,2.1,1.6,3.3,3.1,3.3c1.7,0,3.1-1.3,3.1-3.4c0-2.1-1.3-3.4-3.1-3.4
			C347.1,32,345.5,33.1,345.5,35.3z"/>
		<path class="st16" d="M364,35.3l3.8,6.2h-3.6l-2.4-3.8l-2.4,3.8h-3.6l3.8-6.2l-3.7-6h3.6l2.2,3.6l2.2-3.6h3.6L364,35.3z"/>
		<path class="st16" d="M374.6,33.8c0,4.4-1.6,7.4-3.8,10.1l-2.2-1.5c2-2.7,3-5,3-8.6c0-3.6-1-6-3-8.6l2.2-1.5
			C373.1,26.4,374.6,29.3,374.6,33.8z"/>
	</g>
	<g class="st9">
		<path class="st17" d="M41.6,95.8h4.5v1.3h-4.5V95.8z"/>
		<path class="st17" d="M54.8,97v4.7h-1.5V89.4H57c2.4,0,4.2,1.1,4.2,3.8c0,2.6-1.8,3.8-4.3,3.8H54.8z M56.9,95.8
			c1.8,0,2.8-0.9,2.8-2.6c0-1.8-1-2.6-2.8-2.6h-2.1v5.2H56.9z"/>
		<path class="st17" d="M63.3,89h1.4v12.6h-1.4V89z"/>
		<path class="st17" d="M67.5,95.5c0-1.5,1.2-2.5,3.2-2.5c2.1,0,3.1,0.9,3.1,3.1v3.4c0,0.7,0.1,0.9,0.8,1v1.2h-0.2
			c-1.3,0-1.8-0.5-1.9-1.5h0c-0.4,1-1.5,1.6-2.7,1.6c-1.7,0-2.7-0.9-2.7-2.4c0-0.9,0.4-1.7,1.3-2.1c0.9-0.5,2.2-0.6,4.1-0.7v-0.4
			c0-1.5-0.6-2.1-1.8-2.1c-1.2,0-1.7,0.7-1.8,1.4H67.5z M72.4,97.8v-0.2c-1.8,0.1-2.9,0.2-3.4,0.6c-0.3,0.2-0.5,0.6-0.5,1
			c0,0.9,0.6,1.3,1.5,1.3C71.1,100.6,72.4,99.9,72.4,97.8z"/>
		<path class="st17" d="M81.9,95.8c-0.1-0.9-0.7-1.6-1.9-1.6c-1.5,0-2.3,1.3-2.3,3.3c0,2,0.6,3.3,2.3,3.3c1.6,0,2-1.2,2.1-1.8h1.3
			c-0.2,2-1.6,2.9-3.4,2.9c-2.4,0-3.7-1.7-3.7-4.4c0-2.6,1.4-4.5,3.8-4.5c1.7,0,3.2,0.8,3.3,2.8H81.9z"/>
		<path class="st17" d="M88.8,101.9c-2.6,0-3.8-1.9-3.8-4.4c0-2.5,1.3-4.5,3.8-4.5c2.5,0,3.5,2,3.5,4.1v0.7h-5.8
			c0.1,1.7,0.8,2.9,2.4,2.9c1.4,0,1.8-0.8,1.9-1.3h1.4C91.9,100.9,90.6,101.9,88.8,101.9z M90.8,96.6c0-1.4-0.6-2.5-2.1-2.5
			c-1.3,0-2.1,1.1-2.3,2.6L90.8,96.6L90.8,96.6z"/>
		<path class="st17" d="M98.3,93.2h1.4l1.8,5.3c0.3,0.8,0.4,1.3,0.4,1.3h0c0,0,0.1-0.5,0.4-1.3l1.7-5.3h1.4l-3.1,9
			c-0.7,1.9-1.2,2.7-3.1,2.7c-0.3,0-0.6,0-0.9-0.1v-1.2c0.3,0.1,0.6,0.1,0.7,0.1c1.1,0,1.4-0.4,1.8-1.5l0.2-0.4L98.3,93.2z"/>
		<path class="st17" d="M106.9,97.4c0-2.6,1.4-4.4,3.8-4.4c2.5,0,3.8,1.8,3.8,4.4c0,2.6-1.4,4.4-3.8,4.4
			C108.1,101.9,106.9,100.1,106.9,97.4z M108.4,97.4c0,2.1,0.7,3.3,2.3,3.3c1.6,0,2.3-1.2,2.3-3.3c0-2-0.7-3.3-2.3-3.3
			C109.1,94.1,108.4,95.4,108.4,97.4z"/>
		<path class="st17" d="M118.2,98.4c0,0.6,0,1.3,0.3,1.7c0.3,0.4,0.7,0.6,1.3,0.6c1.6,0,2.3-1,2.3-2.9v-4.6h1.4v8.4h-1.4v-1.4h0
			c-0.4,0.9-1.3,1.6-2.7,1.6c-1.6,0-2.7-0.8-2.7-2.8v-5.9h1.4V98.4z"/>
		<path class="st17" d="M126.7,93.2h1.4v1.6h0c0.4-0.9,1.4-1.7,2.7-1.7h0.1v1.5h-0.3c-1.5,0-2.5,0.9-2.5,2.5v4.6h-1.4V93.2z"/>
		<path class="st17" d="M137.7,89h1.4v12.6h-1.4V89z"/>
		<path class="st17" d="M141.5,97.4c0-2.6,1.4-4.4,3.8-4.4c2.5,0,3.8,1.8,3.8,4.4c0,2.6-1.4,4.4-3.8,4.4
			C142.8,101.9,141.5,100.1,141.5,97.4z M143,97.4c0,2.1,0.7,3.3,2.3,3.3c1.6,0,2.3-1.2,2.3-3.3c0-2-0.7-3.3-2.3-3.3
			C143.7,94.1,143,95.4,143,97.4z"/>
		<path class="st17" d="M151.1,102.5h1.4c0.2,0.7,0.7,1.2,2.1,1.2c1.6,0,2.4-0.6,2.4-2.4V100h0c-0.4,0.8-1.4,1.6-2.7,1.6
			c-1.8,0-3.4-1.1-3.4-4.2c0-2.8,1.5-4.3,3.6-4.3c1.4,0,2.2,0.8,2.5,1.5h0v-1.3h1.4v8.2c0,2.4-1.6,3.4-3.8,3.4
			C152.9,104.8,151.3,104.2,151.1,102.5z M157,97c0-1.7-0.9-2.8-2.4-2.8c-1.5,0-2.2,1.3-2.2,3.2c0,1.9,0.5,3.1,2.3,3.1
			c1.4,0,2.3-1.2,2.3-2.6V97z"/>
		<path class="st17" d="M160.8,97.4c0-2.6,1.4-4.4,3.8-4.4c2.5,0,3.8,1.8,3.8,4.4c0,2.6-1.4,4.4-3.8,4.4
			C162.1,101.9,160.8,100.1,160.8,97.4z M162.3,97.4c0,2.1,0.7,3.3,2.3,3.3c1.6,0,2.3-1.2,2.3-3.3c0-2-0.7-3.3-2.3-3.3
			C163,94.1,162.3,95.4,162.3,97.4z"/>
		<path class="st17" d="M174.2,93.2h1.5l1.6,5.7c0.1,0.5,0.3,1.1,0.3,1.1h0c0,0,0.2-0.6,0.3-1.1l1.8-5.7h1.5l1.8,5.7
			c0.2,0.5,0.3,1.1,0.3,1.1h0c0,0,0.1-0.6,0.3-1.1l1.7-5.7h1.4l-2.6,8.4h-1.5l-1.5-5c-0.2-0.8-0.5-1.8-0.5-1.8h0c0,0-0.3,1-0.5,1.8
			l-1.6,5h-1.5L174.2,93.2z"/>
		<path class="st17" d="M188.7,89.7h1.5v1.6h-1.5V89.7z M188.8,93.2h1.5v8.4h-1.5V93.2z"/>
		<path class="st17" d="M195.2,90.8v2.4h2.1v1.1h-2.1v5c0,0.9,0.4,1.2,1.3,1.2c0.4,0,0.9-0.1,0.9-0.1v1.2c0,0-0.6,0.1-1.3,0.1
			c-1.6,0-2.3-0.8-2.3-2.2v-5.2h-1.5v-1.1h0.3c1.1,0,1.4-0.3,1.4-1.9v-0.6H195.2z"/>
		<path class="st17" d="M204.7,96.4c0-0.6,0-1.3-0.3-1.7c-0.3-0.4-0.8-0.6-1.3-0.6c-1.6,0-2.3,1-2.3,2.4v5.1h-1.4V89h1.4v5.6h0
			c0.4-0.8,1.3-1.6,2.6-1.6c1.6,0,2.7,0.8,2.7,2.8v5.9h-1.4V96.4z"/>
		<path class="st17" d="M209.2,89.7h1.5v1.6h-1.5V89.7z M209.2,93.2h1.5v8.4h-1.5V93.2z"/>
		<path class="st17" d="M219.2,96.5c0-0.6,0-1.3-0.3-1.7c-0.3-0.4-0.8-0.6-1.3-0.6c-1.6,0-2.3,1-2.3,2.4v5.1h-1.4v-8.4h1.4v1.4h0
			c0.4-0.9,1.4-1.6,2.7-1.6c1.6,0,2.7,0.8,2.7,2.8v5.9h-1.4V96.5z"/>
		<path class="st17" d="M230,90.8v2.4h2.1v1.1H230v5c0,0.9,0.4,1.2,1.3,1.2c0.4,0,0.9-0.1,0.9-0.1v1.2c0,0-0.6,0.1-1.3,0.1
			c-1.6,0-2.3-0.8-2.3-2.2v-5.2h-1.5v-1.1h0.3c1.1,0,1.4-0.3,1.4-1.9v-0.6H230z"/>
		<path class="st17" d="M239.6,96.4c0-0.6,0-1.3-0.3-1.7c-0.3-0.4-0.8-0.6-1.3-0.6c-1.6,0-2.3,1-2.3,2.4v5.1h-1.4V89h1.4v5.6h0
			c0.4-0.8,1.3-1.6,2.6-1.6c1.6,0,2.7,0.8,2.7,2.8v5.9h-1.4V96.4z"/>
		<path class="st17" d="M247.2,101.9c-2.6,0-3.8-1.9-3.8-4.4c0-2.5,1.3-4.5,3.8-4.5c2.5,0,3.5,2,3.5,4.1v0.7h-5.8
			c0.1,1.7,0.8,2.9,2.4,2.9c1.4,0,1.8-0.8,1.9-1.3h1.4C250.2,100.9,249,101.9,247.2,101.9z M249.2,96.6c0-1.4-0.6-2.5-2.1-2.5
			c-1.3,0-2.1,1.1-2.3,2.6L249.2,96.6L249.2,96.6z"/>
		<path class="st17" d="M262.5,95.8c-0.1-0.9-0.7-1.6-1.9-1.6c-1.5,0-2.3,1.3-2.3,3.3c0,2,0.6,3.3,2.3,3.3c1.6,0,2-1.2,2.1-1.8h1.3
			c-0.2,2-1.6,2.9-3.4,2.9c-2.4,0-3.7-1.7-3.7-4.4c0-2.6,1.4-4.5,3.8-4.5c1.7,0,3.2,0.8,3.3,2.8H262.5z"/>
		<path class="st17" d="M266.3,93.2h1.4v1.6h0c0.4-0.9,1.4-1.7,2.7-1.7h0.1v1.5h-0.3c-1.5,0-2.5,0.9-2.5,2.5v4.6h-1.4V93.2z"/>
		<path class="st17" d="M271.8,97.4c0-2.6,1.4-4.4,3.8-4.4c2.5,0,3.8,1.8,3.8,4.4c0,2.6-1.4,4.4-3.8,4.4
			C273.1,101.9,271.8,100.1,271.8,97.4z M273.3,97.4c0,2.1,0.7,3.3,2.3,3.3c1.6,0,2.3-1.2,2.3-3.3c0-2-0.7-3.3-2.3-3.3
			C274.1,94.1,273.3,95.4,273.3,97.4z"/>
		<path class="st17" d="M281.8,93.2h1.4v1.4h0c0.5-0.9,1.4-1.6,2.7-1.6c1.8,0,3.4,1.1,3.4,4.3c0,3.1-1.6,4.5-3.5,4.5
			c-1.2,0-2.2-0.7-2.5-1.4h0v4.2h-1.4V93.2z M285.6,100.7c1.5,0,2.2-1.2,2.2-3.4c0-1.8-0.5-3.2-2.3-3.2c-1.5,0-2.4,1.3-2.4,2.7v0.9
			C283.2,99.4,284,100.7,285.6,100.7z"/>
		<path class="st17" d="M291.7,93.2h1.4v1.4h0c0.5-0.9,1.4-1.6,2.7-1.6c1.8,0,3.4,1.1,3.4,4.3c0,3.1-1.6,4.5-3.5,4.5
			c-1.2,0-2.2-0.7-2.5-1.4h0v4.2h-1.4V93.2z M295.5,100.7c1.5,0,2.2-1.2,2.2-3.4c0-1.8-0.5-3.2-2.3-3.2c-1.5,0-2.4,1.3-2.4,2.7v0.9
			C293.1,99.4,293.9,100.7,295.5,100.7z"/>
		<path class="st17" d="M301.6,89.7h1.5v1.6h-1.5V89.7z M301.7,93.2h1.5v8.4h-1.5V93.2z"/>
		<path class="st17" d="M311.7,96.5c0-0.6,0-1.3-0.3-1.7c-0.3-0.4-0.8-0.6-1.3-0.6c-1.6,0-2.3,1-2.3,2.4v5.1h-1.4v-8.4h1.4v1.4h0
			c0.4-0.9,1.4-1.6,2.7-1.6c1.6,0,2.7,0.8,2.7,2.8v5.9h-1.4V96.5z"/>
		<path class="st17" d="M315.6,102.5h1.4c0.2,0.7,0.7,1.2,2.1,1.2c1.6,0,2.4-0.6,2.4-2.4V100h0c-0.4,0.8-1.4,1.6-2.7,1.6
			c-1.8,0-3.4-1.1-3.4-4.2c0-2.8,1.5-4.3,3.6-4.3c1.4,0,2.2,0.8,2.5,1.5h0v-1.3h1.4v8.2c0,2.4-1.6,3.4-3.8,3.4
			C317.5,104.8,315.8,104.2,315.6,102.5z M321.5,97c0-1.7-0.9-2.8-2.4-2.8c-1.5,0-2.2,1.3-2.2,3.2c0,1.9,0.5,3.1,2.3,3.1
			c1.4,0,2.3-1.2,2.3-2.6V97z"/>
		<path class="st17" d="M330.1,102.5h1.4c0.2,0.7,0.7,1.2,2.1,1.2c1.6,0,2.4-0.6,2.4-2.4V100h0c-0.4,0.8-1.4,1.6-2.7,1.6
			c-1.8,0-3.4-1.1-3.4-4.2c0-2.8,1.5-4.3,3.6-4.3c1.4,0,2.2,0.8,2.5,1.5h0v-1.3h1.4v8.2c0,2.4-1.6,3.4-3.8,3.4
			C331.9,104.8,330.3,104.2,330.1,102.5z M336,97c0-1.7-0.9-2.8-2.4-2.8c-1.5,0-2.2,1.3-2.2,3.2c0,1.9,0.5,3.1,2.3,3.1
			c1.4,0,2.3-1.2,2.3-2.6V97z"/>
		<path class="st17" d="M341.8,98.4c0,0.6,0,1.3,0.3,1.7c0.3,0.4,0.7,0.6,1.3,0.6c1.6,0,2.3-1,2.3-2.9v-4.6h1.4v8.4h-1.4v-1.4h0
			c-0.4,0.9-1.3,1.6-2.7,1.6c-1.6,0-2.7-0.8-2.7-2.8v-5.9h1.4V98.4z"/>
		<path class="st17" d="M350.3,89.7h1.5v1.6h-1.5V89.7z M350.3,93.2h1.5v8.4h-1.5V93.2z"/>
		<path class="st17" d="M361.7,101.7h-1.4v-1.4h0c-0.4,0.8-1.4,1.6-2.7,1.6c-1.8,0-3.4-1.1-3.4-4.4c0-2.9,1.5-4.5,3.6-4.5
			c1.3,0,2.1,0.7,2.4,1.5h0V89h1.4V101.7z M360.3,97.1c0-1.8-0.9-2.9-2.3-2.9c-1.6,0-2.4,1.3-2.4,3.3c0,1.9,0.6,3.3,2.2,3.3
			c1.5,0,2.4-1.2,2.4-2.7V97.1z"/>
		<path class="st17" d="M367.9,101.9c-2.6,0-3.8-1.9-3.8-4.4c0-2.5,1.3-4.5,3.8-4.5c2.5,0,3.5,2,3.5,4.1v0.7h-5.8
			c0.1,1.7,0.8,2.9,2.4,2.9c1.4,0,1.8-0.8,1.9-1.3h1.4C371,100.9,369.7,101.9,367.9,101.9z M369.9,96.6c0-1.4-0.6-2.5-2.1-2.5
			c-1.3,0-2.1,1.1-2.3,2.6L369.9,96.6L369.9,96.6z"/>
		<path class="st17" d="M378,95.3c-0.1-0.8-0.7-1.2-1.7-1.2s-1.6,0.6-1.6,1.4c0,0.7,0.4,1,1.3,1.2l1.3,0.2c1.8,0.3,2.4,1,2.4,2.4
			c0,1.7-1.4,2.6-3.3,2.6c-1.7,0-3.2-0.8-3.3-2.6h1.4c0.1,0.7,0.4,1.5,1.9,1.5c1.2,0,1.9-0.5,1.9-1.4c0-0.7-0.2-1-1.3-1.2l-1.3-0.2
			c-1.5-0.2-2.3-0.9-2.3-2.3c0-1.5,1.1-2.6,3.1-2.6c1.8,0,2.9,0.8,3,2.3H378z"/>
		<path class="st17" d="M381.5,99.7h2v2h-2V99.7z"/>
		<path class="st17" d="M41.6,125.8h4.5v1.3h-4.5V125.8z"/>
		<path class="st17" d="M58.2,119.2c3,0,5.5,2,5.5,6.3c0,4.4-2.5,6.3-5.5,6.3c-3,0-5.5-2-5.5-6.3C52.8,121.2,55.3,119.2,58.2,119.2z
			 M62.2,125.6c0-3.4-1.6-5.2-4-5.2c-2.3,0-3.9,1.7-3.9,5.2c0,3.3,1.6,5.1,3.9,5.1C60.5,130.7,62.2,128.9,62.2,125.6z"/>
		<path class="st17" d="M67.9,128.4c0,0.6,0,1.3,0.3,1.7c0.3,0.4,0.7,0.6,1.3,0.6c1.6,0,2.3-1,2.3-2.9v-4.6h1.4v8.4h-1.4v-1.4h0
			c-0.4,0.9-1.3,1.6-2.7,1.6c-1.6,0-2.7-0.8-2.7-2.8v-5.9h1.4V128.4z"/>
		<path class="st17" d="M78.2,120.8v2.4h2.1v1.1h-2.1v5c0,0.9,0.4,1.2,1.3,1.2c0.4,0,0.9-0.1,0.9-0.1v1.2c0,0-0.6,0.1-1.3,0.1
			c-1.6,0-2.3-0.8-2.3-2.2v-5.2h-1.5v-1.1h0.3c1.1,0,1.4-0.3,1.4-1.9v-0.6H78.2z"/>
		<path class="st17" d="M82.4,119h1.4v12.6h-1.4V119z"/>
		<path class="st17" d="M86.9,119.7h1.5v1.6h-1.5V119.7z M87,123.2h1.5v8.4H87V123.2z"/>
		<path class="st17" d="M96.9,126.5c0-0.6,0-1.3-0.3-1.7c-0.3-0.4-0.8-0.6-1.3-0.6c-1.6,0-2.3,1-2.3,2.4v5.1h-1.4v-8.4h1.4v1.4h0
			c0.4-0.9,1.4-1.6,2.7-1.6c1.6,0,2.7,0.8,2.7,2.8v5.9h-1.4V126.5z"/>
		<path class="st17" d="M104.5,131.9c-2.6,0-3.8-1.9-3.8-4.4c0-2.5,1.3-4.5,3.8-4.5c2.5,0,3.5,2,3.5,4.1v0.7h-5.8
			c0.1,1.7,0.8,2.9,2.4,2.9c1.4,0,1.8-0.8,1.9-1.3h1.4C107.6,130.9,106.3,131.9,104.5,131.9z M106.5,126.6c0-1.4-0.6-2.5-2.1-2.5
			c-1.3,0-2.1,1.1-2.3,2.6L106.5,126.6L106.5,126.6z"/>
		<path class="st17" d="M114.6,125.5c0-1.5,1.2-2.5,3.2-2.5c2.1,0,3.1,0.9,3.1,3.1v3.4c0,0.7,0.1,0.9,0.8,1v1.2h-0.2
			c-1.3,0-1.8-0.5-1.9-1.5h0c-0.4,1-1.5,1.6-2.7,1.6c-1.7,0-2.7-0.9-2.7-2.4c0-0.9,0.4-1.7,1.3-2.1c0.9-0.5,2.2-0.6,4.1-0.7v-0.4
			c0-1.5-0.6-2.1-1.8-2.1c-1.2,0-1.7,0.7-1.8,1.4H114.6z M119.5,127.8v-0.2c-1.8,0.1-2.9,0.2-3.4,0.6c-0.3,0.2-0.5,0.6-0.5,1
			c0,0.9,0.6,1.3,1.5,1.3C118.2,130.6,119.5,129.9,119.5,127.8z"/>
		<path class="st17" d="M124,119h1.4v12.6H124V119z"/>
		<path class="st17" d="M128.5,119h1.4v12.6h-1.4V119z"/>
		<path class="st17" d="M139.4,131.7H138v-7.3h-1.5v-1.1h1.5v-1.9c0-1.7,1-2.3,2.6-2.3c0.3,0,0.6,0,0.9,0.1v1.2
			c-0.2,0-0.4-0.1-0.8-0.1c-0.8,0-1.2,0.3-1.2,1.3v1.7h2v1.1h-2V131.7z"/>
		<path class="st17" d="M142.6,127.4c0-2.6,1.4-4.4,3.8-4.4c2.5,0,3.8,1.8,3.8,4.4c0,2.6-1.4,4.4-3.8,4.4
			C143.9,131.9,142.6,130.1,142.6,127.4z M144.1,127.4c0,2.1,0.7,3.3,2.3,3.3c1.6,0,2.3-1.2,2.3-3.3c0-2-0.7-3.3-2.3-3.3
			C144.9,124.1,144.1,125.4,144.1,127.4z"/>
		<path class="st17" d="M158,126.5c0-0.6,0-1.3-0.3-1.7c-0.3-0.4-0.8-0.6-1.3-0.6c-1.6,0-2.3,1-2.3,2.4v5.1h-1.4v-8.4h1.4v1.4h0
			c0.4-0.9,1.4-1.6,2.7-1.6c1.6,0,2.7,0.8,2.7,2.8v5.9H158V126.5z"/>
		<path class="st17" d="M164.3,120.8v2.4h2.1v1.1h-2.1v5c0,0.9,0.4,1.2,1.3,1.2c0.4,0,0.9-0.1,0.9-0.1v1.2c0,0-0.6,0.1-1.3,0.1
			c-1.6,0-2.3-0.8-2.3-2.2v-5.2h-1.5v-1.1h0.3c1.1,0,1.4-0.3,1.4-1.9v-0.6H164.3z"/>
		<path class="st17" d="M172.7,125.3c-0.1-0.8-0.7-1.2-1.7-1.2s-1.6,0.6-1.6,1.4c0,0.7,0.4,1,1.3,1.2l1.3,0.2c1.8,0.3,2.4,1,2.4,2.4
			c0,1.7-1.4,2.6-3.3,2.6c-1.7,0-3.2-0.8-3.3-2.6h1.4c0.1,0.7,0.4,1.5,1.9,1.5c1.2,0,1.9-0.5,1.9-1.4c0-0.7-0.2-1-1.3-1.2l-1.3-0.2
			c-1.5-0.2-2.3-0.9-2.3-2.3c0-1.5,1.1-2.6,3.1-2.6c1.8,0,2.9,0.8,3,2.3H172.7z"/>
		<path class="st17" d="M182.7,128.4c0,0.6,0,1.3,0.3,1.7c0.3,0.4,0.7,0.6,1.3,0.6c1.6,0,2.3-1,2.3-2.9v-4.6h1.4v8.4h-1.4v-1.4h0
			c-0.4,0.9-1.3,1.6-2.7,1.6c-1.6,0-2.7-0.8-2.7-2.8v-5.9h1.4V128.4z"/>
		<path class="st17" d="M195.3,125.3c-0.1-0.8-0.7-1.2-1.7-1.2s-1.6,0.6-1.6,1.4c0,0.7,0.4,1,1.3,1.2l1.3,0.2c1.8,0.3,2.4,1,2.4,2.4
			c0,1.7-1.4,2.6-3.3,2.6c-1.7,0-3.2-0.8-3.3-2.6h1.4c0.1,0.7,0.4,1.5,1.9,1.5c1.2,0,1.9-0.5,1.9-1.4c0-0.7-0.2-1-1.3-1.2l-1.3-0.2
			c-1.5-0.2-2.3-0.9-2.3-2.3c0-1.5,1.1-2.6,3.1-2.6c1.8,0,2.9,0.8,3,2.3H195.3z"/>
		<path class="st17" d="M202.5,131.9c-2.6,0-3.8-1.9-3.8-4.4c0-2.5,1.3-4.5,3.8-4.5c2.5,0,3.5,2,3.5,4.1v0.7h-5.8
			c0.1,1.7,0.8,2.9,2.4,2.9c1.4,0,1.8-0.8,1.9-1.3h1.4C205.6,130.9,204.3,131.9,202.5,131.9z M204.5,126.6c0-1.4-0.6-2.5-2.1-2.5
			c-1.3,0-2.1,1.1-2.3,2.6L204.5,126.6L204.5,126.6z"/>
		<path class="st17" d="M215.2,131.7h-1.4v-1.4h0c-0.4,0.8-1.4,1.6-2.7,1.6c-1.8,0-3.4-1.1-3.4-4.4c0-2.9,1.5-4.5,3.6-4.5
			c1.3,0,2.1,0.7,2.4,1.5h0V119h1.4V131.7z M213.8,127.1c0-1.8-0.9-2.9-2.3-2.9c-1.6,0-2.4,1.3-2.4,3.3c0,1.9,0.6,3.3,2.2,3.3
			c1.5,0,2.4-1.2,2.4-2.7V127.1z"/>
		<path class="st17" d="M222.9,119.7h1.5v1.6h-1.5V119.7z M222.9,123.2h1.5v8.4h-1.5V123.2z"/>
		<path class="st17" d="M232.9,126.5c0-0.6,0-1.3-0.3-1.7c-0.3-0.4-0.8-0.6-1.3-0.6c-1.6,0-2.3,1-2.3,2.4v5.1h-1.4v-8.4h1.4v1.4h0
			c0.4-0.9,1.4-1.6,2.7-1.6c1.6,0,2.7,0.8,2.7,2.8v5.9h-1.4V126.5z"/>
		<path class="st17" d="M241.1,123.2h1.4l1.8,5.3c0.3,0.8,0.4,1.3,0.4,1.3h0c0,0,0.1-0.5,0.4-1.3l1.7-5.3h1.4l-3.1,9
			c-0.7,1.9-1.2,2.7-3.1,2.7c-0.3,0-0.6,0-0.9-0.1v-1.2c0.3,0.1,0.6,0.1,0.7,0.1c1.1,0,1.4-0.4,1.8-1.5l0.2-0.4L241.1,123.2z"/>
		<path class="st17" d="M249.6,127.4c0-2.6,1.4-4.4,3.8-4.4c2.5,0,3.8,1.8,3.8,4.4c0,2.6-1.4,4.4-3.8,4.4
			C250.9,131.9,249.6,130.1,249.6,127.4z M251.1,127.4c0,2.1,0.7,3.3,2.3,3.3c1.6,0,2.3-1.2,2.3-3.3c0-2-0.7-3.3-2.3-3.3
			C251.8,124.1,251.1,125.4,251.1,127.4z"/>
		<path class="st17" d="M261,128.4c0,0.6,0,1.3,0.3,1.7c0.3,0.4,0.7,0.6,1.3,0.6c1.6,0,2.3-1,2.3-2.9v-4.6h1.4v8.4h-1.4v-1.4h0
			c-0.4,0.9-1.3,1.6-2.7,1.6c-1.6,0-2.7-0.8-2.7-2.8v-5.9h1.4V128.4z"/>
		<path class="st17" d="M269.5,123.2h1.4v1.6h0c0.4-0.9,1.4-1.7,2.7-1.7h0.1v1.5h-0.3c-1.5,0-2.5,0.9-2.5,2.5v4.6h-1.4V123.2z"/>
		<path class="st17" d="M287.2,131.7h-1.4v-1.4h0c-0.4,0.8-1.4,1.6-2.7,1.6c-1.8,0-3.4-1.1-3.4-4.4c0-2.9,1.5-4.5,3.6-4.5
			c1.3,0,2.1,0.7,2.4,1.5h0V119h1.4V131.7z M285.8,127.1c0-1.8-0.9-2.9-2.3-2.9c-1.6,0-2.4,1.3-2.4,3.3c0,1.9,0.6,3.3,2.2,3.3
			c1.5,0,2.4-1.2,2.4-2.7V127.1z"/>
		<path class="st17" d="M293.4,131.9c-2.6,0-3.8-1.9-3.8-4.4c0-2.5,1.3-4.5,3.8-4.5c2.5,0,3.5,2,3.5,4.1v0.7h-5.8
			c0.1,1.7,0.8,2.9,2.4,2.9c1.4,0,1.8-0.8,1.9-1.3h1.4C296.4,130.9,295.2,131.9,293.4,131.9z M295.4,126.6c0-1.4-0.6-2.5-2.1-2.5
			c-1.3,0-2.1,1.1-2.3,2.6L295.4,126.6L295.4,126.6z"/>
		<path class="st17" d="M303.5,125.3c-0.1-0.8-0.7-1.2-1.7-1.2s-1.6,0.6-1.6,1.4c0,0.7,0.4,1,1.3,1.2l1.3,0.2c1.8,0.3,2.4,1,2.4,2.4
			c0,1.7-1.4,2.6-3.3,2.6c-1.7,0-3.2-0.8-3.3-2.6h1.4c0.1,0.7,0.4,1.5,1.9,1.5c1.2,0,1.9-0.5,1.9-1.4c0-0.7-0.2-1-1.3-1.2l-1.3-0.2
			c-1.5-0.2-2.3-0.9-2.3-2.3c0-1.5,1.1-2.6,3.1-2.6c1.8,0,2.9,0.8,3,2.3H303.5z"/>
		<path class="st17" d="M307.5,119.7h1.5v1.6h-1.5V119.7z M307.6,123.2h1.5v8.4h-1.5V123.2z"/>
		<path class="st17" d="M311.7,132.5h1.4c0.2,0.7,0.7,1.2,2.1,1.2c1.6,0,2.4-0.6,2.4-2.4V130h0c-0.4,0.8-1.4,1.6-2.7,1.6
			c-1.8,0-3.4-1.1-3.4-4.2c0-2.8,1.5-4.3,3.6-4.3c1.4,0,2.2,0.8,2.5,1.5h0v-1.3h1.4v8.2c0,2.4-1.6,3.4-3.8,3.4
			C313.5,134.8,311.8,134.2,311.7,132.5z M317.6,127c0-1.7-0.9-2.8-2.4-2.8c-1.5,0-2.2,1.3-2.2,3.2c0,1.9,0.5,3.1,2.3,3.1
			c1.4,0,2.3-1.2,2.3-2.6V127z"/>
		<path class="st17" d="M327.5,126.5c0-0.6,0-1.3-0.3-1.7c-0.3-0.4-0.8-0.6-1.3-0.6c-1.6,0-2.3,1-2.3,2.4v5.1h-1.4v-8.4h1.4v1.4h0
			c0.4-0.9,1.4-1.6,2.7-1.6c1.6,0,2.7,0.8,2.7,2.8v5.9h-1.4V126.5z"/>
		<path class="st17" d="M331.4,129.7h2v2h-2V129.7z"/>
		<path class="st17" d="M41.6,155.8h4.5v1.3h-4.5V155.8z"/>
		<path class="st17" d="M53.3,149.4h7.8v1.3h-6.3v4.1h5.8v1.3h-5.8v4.2h6.4v1.3h-7.9V149.4z"/>
		<path class="st17" d="M65.9,157.3l-2.7-4.1h1.7l1.8,2.9h0l1.9-2.9h1.6l-2.7,4l2.9,4.4h-1.7l-2.1-3.3h0l-2.1,3.3H63L65.9,157.3z"/>
		<path class="st17" d="M72.4,153.2h1.4v1.4h0c0.5-0.9,1.4-1.6,2.7-1.6c1.8,0,3.4,1.1,3.4,4.3c0,3.1-1.6,4.5-3.5,4.5
			c-1.2,0-2.2-0.7-2.5-1.4h0v4.2h-1.4V153.2z M76.2,160.7c1.5,0,2.2-1.2,2.2-3.4c0-1.8-0.5-3.2-2.3-3.2c-1.5,0-2.4,1.3-2.4,2.7v0.9
			C73.8,159.4,74.6,160.7,76.2,160.7z"/>
		<path class="st17" d="M81.7,157.4c0-2.6,1.4-4.4,3.8-4.4c2.5,0,3.8,1.8,3.8,4.4c0,2.6-1.4,4.4-3.8,4.4
			C83,161.9,81.7,160.1,81.7,157.4z M83.2,157.4c0,2.1,0.7,3.3,2.3,3.3c1.6,0,2.3-1.2,2.3-3.3c0-2-0.7-3.3-2.3-3.3
			C84,154.1,83.2,155.4,83.2,157.4z"/>
		<path class="st17" d="M91.7,153.2h1.4v1.6h0c0.4-0.9,1.4-1.7,2.7-1.7h0.1v1.5h-0.3c-1.5,0-2.5,0.9-2.5,2.5v4.6h-1.4V153.2z"/>
		<path class="st17" d="M100.1,150.8v2.4h2.1v1.1h-2.1v5c0,0.9,0.4,1.2,1.3,1.2c0.4,0,0.9-0.1,0.9-0.1v1.2c0,0-0.6,0.1-1.3,0.1
			c-1.6,0-2.3-0.8-2.3-2.2v-5.2h-1.5v-1.1h0.3c1.1,0,1.4-0.3,1.4-1.9v-0.6H100.1z"/>
		<path class="st17" d="M108.5,155.5c0-1.5,1.2-2.5,3.2-2.5c2.1,0,3.1,0.9,3.1,3.1v3.4c0,0.7,0.1,0.9,0.8,1v1.2h-0.2
			c-1.3,0-1.8-0.5-1.9-1.5h0c-0.4,1-1.5,1.6-2.7,1.6c-1.7,0-2.7-0.9-2.7-2.4c0-0.9,0.4-1.7,1.3-2.1c0.9-0.5,2.2-0.6,4.1-0.7v-0.4
			c0-1.5-0.6-2.1-1.8-2.1c-1.2,0-1.7,0.7-1.8,1.4H108.5z M113.4,157.8v-0.2c-1.8,0.1-2.9,0.2-3.4,0.6c-0.3,0.2-0.5,0.6-0.5,1
			c0,0.9,0.6,1.3,1.5,1.3C112.1,160.6,113.4,159.9,113.4,157.8z"/>
		<path class="st17" d="M123.2,156.5c0-0.6,0-1.3-0.3-1.7c-0.3-0.4-0.8-0.6-1.3-0.6c-1.6,0-2.3,1-2.3,2.4v5.1h-1.4v-8.4h1.4v1.4h0
			c0.4-0.9,1.4-1.6,2.7-1.6c1.6,0,2.7,0.8,2.7,2.8v5.9h-1.4V156.5z"/>
		<path class="st17" d="M134.5,161.7h-1.4v-1.4h0c-0.4,0.8-1.4,1.6-2.7,1.6c-1.8,0-3.4-1.1-3.4-4.4c0-2.9,1.5-4.5,3.6-4.5
			c1.3,0,2.1,0.7,2.4,1.5h0V149h1.4V161.7z M133.1,157.1c0-1.8-0.9-2.9-2.3-2.9c-1.6,0-2.4,1.3-2.4,3.3c0,1.9,0.6,3.3,2.2,3.3
			c1.5,0,2.4-1.2,2.4-2.7V157.1z"/>
		<path class="st17" d="M146.3,155.3c-0.1-0.8-0.7-1.2-1.7-1.2s-1.6,0.6-1.6,1.4c0,0.7,0.4,1,1.3,1.2l1.3,0.2c1.8,0.3,2.4,1,2.4,2.4
			c0,1.7-1.4,2.6-3.3,2.6c-1.7,0-3.2-0.8-3.3-2.6h1.4c0.1,0.7,0.4,1.5,1.9,1.5c1.2,0,1.9-0.5,1.9-1.4c0-0.7-0.2-1-1.3-1.2l-1.3-0.2
			c-1.5-0.2-2.3-0.9-2.3-2.3c0-1.5,1.1-2.6,3.1-2.6c1.8,0,2.9,0.8,3,2.3H146.3z"/>
		<path class="st17" d="M151.7,158.4c0,0.6,0,1.3,0.3,1.7c0.3,0.4,0.7,0.6,1.3,0.6c1.6,0,2.3-1,2.3-2.9v-4.6h1.4v8.4h-1.4v-1.4h0
			c-0.4,0.9-1.3,1.6-2.7,1.6c-1.6,0-2.7-0.8-2.7-2.8v-5.9h1.4V158.4z"/>
		<path class="st17" d="M160.2,149h1.4v5.6h0c0.5-0.9,1.4-1.6,2.7-1.6c1.8,0,3.4,1.1,3.4,4.3c0,3.1-1.6,4.5-3.5,4.5
			c-1.3,0-2.2-0.7-2.6-1.6h0v1.3h-1.4V149z M166.2,157.3c0-1.8-0.5-3.2-2.3-3.2c-1.5,0-2.4,1.3-2.4,2.7v0.9c0,1.7,0.8,3,2.4,3
			C165.5,160.7,166.2,159.5,166.2,157.3z"/>
		<path class="st17" d="M170.1,153.2h1.4v1.4h0c0.4-0.9,1.4-1.6,2.7-1.6c1.3,0,2.2,0.6,2.5,1.7h0c0.3-0.9,1.4-1.7,2.8-1.7
			c1.6,0,2.7,0.8,2.7,2.8v5.9h-1.4v-5.2c0-0.6,0-1.3-0.3-1.7c-0.3-0.4-0.8-0.5-1.3-0.5c-1.6,0-2.3,1-2.3,2.4v5.1h-1.4v-5.2
			c0-0.6,0-1.2-0.3-1.7c-0.3-0.4-0.8-0.6-1.3-0.6c-1.6,0-2.3,1-2.3,2.4v5.1h-1.4V153.2z"/>
		<path class="st17" d="M185.3,149.7h1.5v1.6h-1.5V149.7z M185.3,153.2h1.5v8.4h-1.5V153.2z"/>
		<path class="st17" d="M191.7,150.8v2.4h2.1v1.1h-2.1v5c0,0.9,0.4,1.2,1.3,1.2c0.4,0,0.9-0.1,0.9-0.1v1.2c0,0-0.6,0.1-1.3,0.1
			c-1.6,0-2.3-0.8-2.3-2.2v-5.2h-1.5v-1.1h0.3c1.1,0,1.4-0.3,1.4-1.9v-0.6H191.7z"/>
		<path class="st17" d="M200.4,149h1.4v12.6h-1.4V149z"/>
		<path class="st17" d="M204.3,157.4c0-2.6,1.4-4.4,3.8-4.4c2.5,0,3.8,1.8,3.8,4.4c0,2.6-1.4,4.4-3.8,4.4
			C205.5,161.9,204.3,160.1,204.3,157.4z M205.7,157.4c0,2.1,0.7,3.3,2.3,3.3c1.6,0,2.3-1.2,2.3-3.3c0-2-0.7-3.3-2.3-3.3
			C206.5,154.1,205.7,155.4,205.7,157.4z"/>
		<path class="st17" d="M213.9,162.5h1.4c0.2,0.7,0.7,1.2,2.1,1.2c1.6,0,2.4-0.6,2.4-2.4V160h0c-0.4,0.8-1.4,1.6-2.7,1.6
			c-1.8,0-3.4-1.1-3.4-4.2c0-2.8,1.5-4.3,3.6-4.3c1.4,0,2.2,0.8,2.5,1.5h0v-1.3h1.4v8.2c0,2.4-1.6,3.4-3.8,3.4
			C215.7,164.8,214,164.2,213.9,162.5z M219.8,157c0-1.7-0.9-2.8-2.4-2.8c-1.5,0-2.2,1.3-2.2,3.2c0,1.9,0.5,3.1,2.3,3.1
			c1.4,0,2.3-1.2,2.3-2.6V157z"/>
		<path class="st17" d="M223.5,157.4c0-2.6,1.4-4.4,3.8-4.4c2.5,0,3.8,1.8,3.8,4.4c0,2.6-1.4,4.4-3.8,4.4
			C224.8,161.9,223.5,160.1,223.5,157.4z M225,157.4c0,2.1,0.7,3.3,2.3,3.3c1.6,0,2.3-1.2,2.3-3.3c0-2-0.7-3.3-2.3-3.3
			C225.8,154.1,225,155.4,225,157.4z"/>
		<path class="st17" d="M237.8,155.3c-0.1-0.8-0.7-1.2-1.7-1.2s-1.6,0.6-1.6,1.4c0,0.7,0.4,1,1.3,1.2l1.3,0.2c1.8,0.3,2.4,1,2.4,2.4
			c0,1.7-1.4,2.6-3.3,2.6c-1.7,0-3.2-0.8-3.3-2.6h1.4c0.1,0.7,0.4,1.5,1.9,1.5c1.2,0,1.9-0.5,1.9-1.4c0-0.7-0.2-1-1.3-1.2l-1.3-0.2
			c-1.5-0.2-2.3-0.9-2.3-2.3c0-1.5,1.1-2.6,3.1-2.6c1.8,0,2.9,0.8,3,2.3H237.8z"/>
		<path class="st17" d="M246,155.5c0-1.5,1.2-2.5,3.2-2.5c2.1,0,3.1,0.9,3.1,3.1v3.4c0,0.7,0.1,0.9,0.8,1v1.2h-0.2
			c-1.3,0-1.8-0.5-1.9-1.5h0c-0.4,1-1.5,1.6-2.7,1.6c-1.7,0-2.7-0.9-2.7-2.4c0-0.9,0.4-1.7,1.3-2.1c0.9-0.5,2.2-0.6,4.1-0.7v-0.4
			c0-1.5-0.6-2.1-1.8-2.1c-1.2,0-1.7,0.7-1.8,1.4H246z M250.9,157.8v-0.2c-1.8,0.1-2.9,0.2-3.4,0.6c-0.3,0.2-0.5,0.6-0.5,1
			c0,0.9,0.6,1.3,1.5,1.3C249.6,160.6,250.9,159.9,250.9,157.8z"/>
		<path class="st17" d="M257.1,150.8v2.4h2.1v1.1h-2.1v5c0,0.9,0.4,1.2,1.3,1.2c0.4,0,0.9-0.1,0.9-0.1v1.2c0,0-0.6,0.1-1.3,0.1
			c-1.6,0-2.3-0.8-2.3-2.2v-5.2h-1.5v-1.1h0.3c1.1,0,1.4-0.3,1.4-1.9v-0.6H257.1z"/>
		<path class="st17" d="M267.6,152.9h-2.4v-1h0.4c0.8,0,1.4-0.2,1.7-0.6c0.4-0.4,0.5-0.8,0.5-1.6h1.2v11.9h-1.5V152.9z"/>
		<path class="st17" d="M276.6,149.6c2.6,0,4.3,2,4.3,6.1c0,4.1-1.7,6.1-4.3,6.1c-2.6,0-4.2-2-4.2-6.1
			C272.3,151.6,274,149.6,276.6,149.6z M279.3,155.8c0-3.3-1-5-2.7-5c-1.7,0-2.7,1.6-2.7,5c0,3.3,1,4.9,2.7,4.9
			C278.3,160.7,279.3,159,279.3,155.8z"/>
		<path class="st17" d="M287.5,149.6c2.6,0,4.3,2,4.3,6.1c0,4.1-1.7,6.1-4.3,6.1c-2.6,0-4.2-2-4.2-6.1
			C283.3,151.6,285,149.6,287.5,149.6z M290.3,155.8c0-3.3-1-5-2.7-5c-1.7,0-2.7,1.6-2.7,5c0,3.3,1,4.9,2.7,4.9
			C289.2,160.7,290.3,159,290.3,155.8z"/>
		<path class="st17" d="M298.5,149.6c2.6,0,4.3,2,4.3,6.1c0,4.1-1.7,6.1-4.3,6.1c-2.6,0-4.2-2-4.2-6.1
			C294.3,151.6,295.9,149.6,298.5,149.6z M301.2,155.8c0-3.3-1-5-2.7-5c-1.7,0-2.7,1.6-2.7,5c0,3.3,1,4.9,2.7,4.9
			C300.2,160.7,301.2,159,301.2,155.8z"/>
		<path class="st17" d="M305.5,153.2h1.4v1.4h0c0.5-0.9,1.4-1.6,2.7-1.6c1.8,0,3.4,1.1,3.4,4.3c0,3.1-1.6,4.5-3.5,4.5
			c-1.2,0-2.2-0.7-2.5-1.4h0v4.2h-1.4V153.2z M309.4,160.7c1.5,0,2.2-1.2,2.2-3.4c0-1.8-0.5-3.2-2.3-3.2c-1.5,0-2.4,1.3-2.4,2.7v0.9
			C306.9,159.4,307.8,160.7,309.4,160.7z"/>
		<path class="st17" d="M317,157.3l-2.7-4.1h1.7l1.8,2.9h0l1.9-2.9h1.6l-2.7,4l2.9,4.4h-1.7l-2.1-3.3h0l-2.1,3.3h-1.6L317,157.3z"/>
		<path class="st17" d="M332.3,155.3c-0.1-0.8-0.7-1.2-1.7-1.2s-1.6,0.6-1.6,1.4c0,0.7,0.4,1,1.3,1.2l1.3,0.2c1.8,0.3,2.4,1,2.4,2.4
			c0,1.7-1.4,2.6-3.3,2.6c-1.7,0-3.2-0.8-3.3-2.6h1.4c0.1,0.7,0.4,1.5,1.9,1.5c1.2,0,1.9-0.5,1.9-1.4c0-0.7-0.2-1-1.3-1.2l-1.3-0.2
			c-1.5-0.2-2.3-0.9-2.3-2.3c0-1.5,1.1-2.6,3.1-2.6c1.8,0,2.9,0.8,3,2.3H332.3z"/>
		<path class="st17" d="M343.2,164.7h-1.4v-4.3h0c-0.4,0.8-1.3,1.5-2.6,1.5c-1.8,0-3.4-1.1-3.4-4.4c0-2.9,1.5-4.5,3.6-4.5
			c1.3,0,2.1,0.7,2.4,1.5h0v-1.3h1.4V164.7z M341.8,158v-0.9c0-1.8-0.9-2.9-2.3-2.9c-1.6,0-2.4,1.3-2.4,3.3c0,1.9,0.6,3.3,2.2,3.3
			C340.8,160.7,341.8,159.5,341.8,158z"/>
		<path class="st17" d="M347.6,158.4c0,0.6,0,1.3,0.3,1.7c0.3,0.4,0.7,0.6,1.3,0.6c1.6,0,2.3-1,2.3-2.9v-4.6h1.4v8.4h-1.4v-1.4h0
			c-0.4,0.9-1.3,1.6-2.7,1.6c-1.6,0-2.7-0.8-2.7-2.8v-5.9h1.4V158.4z"/>
		<path class="st17" d="M355.7,155.5c0-1.5,1.2-2.5,3.2-2.5c2.1,0,3.1,0.9,3.1,3.1v3.4c0,0.7,0.1,0.9,0.8,1v1.2h-0.2
			c-1.3,0-1.8-0.5-1.9-1.5h0c-0.4,1-1.5,1.6-2.7,1.6c-1.7,0-2.7-0.9-2.7-2.4c0-0.9,0.4-1.7,1.3-2.1c0.9-0.5,2.2-0.6,4.1-0.7v-0.4
			c0-1.5-0.6-2.1-1.8-2.1c-1.2,0-1.7,0.7-1.8,1.4H355.7z M360.6,157.8v-0.2c-1.8,0.1-2.9,0.2-3.4,0.6c-0.3,0.2-0.5,0.6-0.5,1
			c0,0.9,0.6,1.3,1.5,1.3C359.3,160.6,360.6,159.9,360.6,157.8z"/>
		<path class="st17" d="M365.1,153.2h1.4v1.6h0c0.4-0.9,1.4-1.7,2.7-1.7h0.1v1.5H369c-1.5,0-2.5,0.9-2.5,2.5v4.6h-1.4V153.2z"/>
		<path class="st17" d="M374.4,161.9c-2.6,0-3.8-1.9-3.8-4.4c0-2.5,1.3-4.5,3.8-4.5c2.5,0,3.5,2,3.5,4.1v0.7H372
			c0.1,1.7,0.8,2.9,2.4,2.9c1.4,0,1.8-0.8,1.9-1.3h1.4C377.4,160.9,376.2,161.9,374.4,161.9z M376.4,156.6c0-1.4-0.6-2.5-2.1-2.5
			c-1.3,0-2.1,1.1-2.3,2.6L376.4,156.6L376.4,156.6z"/>
		<path class="st17" d="M386.6,150.8v2.4h2.1v1.1h-2.1v5c0,0.9,0.4,1.2,1.3,1.2c0.4,0,0.9-0.1,0.9-0.1v1.2c0,0-0.6,0.1-1.3,0.1
			c-1.6,0-2.3-0.8-2.3-2.2v-5.2h-1.5v-1.1h0.3c1.1,0,1.4-0.3,1.4-1.9v-0.6H386.6z"/>
		<path class="st17" d="M390.2,157.4c0-2.6,1.4-4.4,3.8-4.4c2.5,0,3.8,1.8,3.8,4.4c0,2.6-1.4,4.4-3.8,4.4
			C391.5,161.9,390.2,160.1,390.2,157.4z M391.7,157.4c0,2.1,0.7,3.3,2.3,3.3c1.6,0,2.3-1.2,2.3-3.3c0-2-0.7-3.3-2.3-3.3
			C392.4,154.1,391.7,155.4,391.7,157.4z"/>
		<path class="st17" d="M399.8,153.2h2v2h-2V153.2z M399.8,161.7v-2h2v2H399.8z"/>
		<path class="st17" d="M59.6,185.8h4.5v1.3h-4.5V185.8z"/>
		<path class="st17" d="M70.1,191.7v-1.3h0.3c2.6,0,3-0.7,3-2.5v-8.5H75v8.7c0,2.6-1.4,3.6-4.1,3.6H70.1z"/>
		<path class="st17" d="M79.8,187v4.7h-1.5v-12.2H82c2.4,0,4.2,1.1,4.2,3.8c0,2.6-1.8,3.8-4.3,3.8H79.8z M81.9,185.8
			c1.8,0,2.8-0.9,2.8-2.6c0-1.8-1-2.6-2.8-2.6h-2.1v5.2H81.9z"/>
		<path class="st17" d="M89.7,185.6c0,3.2,1.4,5.1,3.9,5.1c2.3,0,3.7-1.3,3.7-3.7v-0.2h-3.5v-1.3h5v6.2h-1.3v-1.8h-0.1
			c-0.6,1.1-1.8,2-3.8,2c-3.1,0-5.4-2-5.4-6.3c0-4,2.4-6.4,5.6-6.4c2.5,0,4.3,1.3,4.6,3.4h-1.6c-0.2-1.4-1.5-2.2-3.1-2.2
			C91.1,180.4,89.7,182.5,89.7,185.6z"/>
		<path class="st17" d="M101.8,189.7h1.8l-1.3,3.8h-1L101.8,189.7z"/>
		<path class="st17" d="M112,187v4.7h-1.5v-12.2h3.7c2.4,0,4.2,1.1,4.2,3.8c0,2.6-1.8,3.8-4.3,3.8H112z M114,185.8
			c1.8,0,2.8-0.9,2.8-2.6c0-1.8-1-2.6-2.8-2.6H112v5.2H114z"/>
		<path class="st17" d="M120.8,179.4h1.9l5.4,9.1c0.4,0.7,0.6,1.2,0.6,1.2h0v-10.3h1.4v12.2h-1.9l-5.4-9.1c-0.5-0.8-0.6-1.2-0.6-1.2
			h0v10.3h-1.4V179.4z"/>
		<path class="st17" d="M134.7,185.6c0,3.2,1.4,5.1,3.9,5.1c2.3,0,3.7-1.3,3.7-3.7v-0.2h-3.5v-1.3h5v6.2h-1.3v-1.8h-0.1
			c-0.6,1.1-1.8,2-3.8,2c-3.1,0-5.4-2-5.4-6.3c0-4,2.4-6.4,5.6-6.4c2.5,0,4.3,1.3,4.6,3.4h-1.6c-0.2-1.4-1.5-2.2-3.1-2.2
			C136.1,180.4,134.7,182.5,134.7,185.6z"/>
		<path class="st17" d="M146.7,183.2h2v2h-2V183.2z M146.7,191.7v-2h2v2H146.7z"/>
		<path class="st17" d="M160,185.3c-0.1-0.8-0.7-1.2-1.7-1.2s-1.6,0.6-1.6,1.4c0,0.7,0.4,1,1.3,1.2l1.3,0.2c1.8,0.3,2.4,1,2.4,2.4
			c0,1.7-1.4,2.6-3.3,2.6c-1.7,0-3.2-0.8-3.3-2.6h1.4c0.1,0.7,0.4,1.5,1.9,1.5c1.2,0,1.9-0.5,1.9-1.4c0-0.7-0.2-1-1.3-1.2l-1.3-0.2
			c-1.5-0.2-2.3-0.9-2.3-2.3c0-1.5,1.1-2.6,3.1-2.6c1.8,0,2.9,0.8,3,2.3H160z"/>
		<path class="st17" d="M167.2,191.9c-2.6,0-3.8-1.9-3.8-4.4c0-2.5,1.3-4.5,3.8-4.5c2.5,0,3.5,2,3.5,4.1v0.7h-5.8
			c0.1,1.7,0.8,2.9,2.4,2.9c1.4,0,1.8-0.8,1.9-1.3h1.4C170.2,190.9,169,191.9,167.2,191.9z M169.2,186.6c0-1.4-0.6-2.5-2.1-2.5
			c-1.3,0-2.1,1.1-2.3,2.6L169.2,186.6L169.2,186.6z"/>
		<path class="st17" d="M174.8,180.8v2.4h2.1v1.1h-2.1v5c0,0.9,0.4,1.2,1.3,1.2c0.4,0,0.9-0.1,0.9-0.1v1.2c0,0-0.6,0.1-1.3,0.1
			c-1.6,0-2.3-0.8-2.3-2.2v-5.2h-1.5v-1.1h0.3c1.1,0,1.4-0.3,1.4-1.9v-0.6H174.8z"/>
		<path class="st17" d="M185.3,180.8v2.4h2.1v1.1h-2.1v5c0,0.9,0.4,1.2,1.3,1.2c0.4,0,0.9-0.1,0.9-0.1v1.2c0,0-0.6,0.1-1.3,0.1
			c-1.6,0-2.3-0.8-2.3-2.2v-5.2h-1.5v-1.1h0.3c1.1,0,1.4-0.3,1.4-1.9v-0.6H185.3z"/>
		<path class="st17" d="M188.9,187.4c0-2.6,1.4-4.4,3.8-4.4c2.5,0,3.8,1.8,3.8,4.4c0,2.6-1.4,4.4-3.8,4.4
			C190.2,191.9,188.9,190.1,188.9,187.4z M190.4,187.4c0,2.1,0.7,3.3,2.3,3.3c1.6,0,2.3-1.2,2.3-3.3c0-2-0.7-3.3-2.3-3.3
			C191.2,184.1,190.4,185.4,190.4,187.4z"/>
		<path class="st17" d="M203.4,183.2h1.4v1.4h0c0.4-0.9,1.4-1.6,2.7-1.6c1.3,0,2.2,0.6,2.5,1.7h0c0.3-0.9,1.4-1.7,2.8-1.7
			c1.6,0,2.7,0.8,2.7,2.8v5.9h-1.4v-5.2c0-0.6,0-1.3-0.3-1.7c-0.3-0.4-0.8-0.5-1.3-0.5c-1.6,0-2.3,1-2.3,2.4v5.1h-1.4v-5.2
			c0-0.6,0-1.2-0.3-1.7c-0.3-0.4-0.8-0.6-1.3-0.6c-1.6,0-2.3,1-2.3,2.4v5.1h-1.4V183.2z"/>
		<path class="st17" d="M218.3,185.5c0-1.5,1.2-2.5,3.2-2.5c2.1,0,3.1,0.9,3.1,3.1v3.4c0,0.7,0.1,0.9,0.8,1v1.2h-0.2
			c-1.3,0-1.8-0.5-1.9-1.5h0c-0.4,1-1.5,1.6-2.7,1.6c-1.7,0-2.7-0.9-2.7-2.4c0-0.9,0.4-1.7,1.3-2.1c0.9-0.5,2.2-0.6,4.1-0.7v-0.4
			c0-1.5-0.6-2.1-1.8-2.1c-1.2,0-1.7,0.7-1.8,1.4H218.3z M223.2,187.8v-0.2c-1.8,0.1-2.9,0.2-3.4,0.6c-0.3,0.2-0.5,0.6-0.5,1
			c0,0.9,0.6,1.3,1.5,1.3C221.8,190.6,223.2,189.9,223.2,187.8z"/>
		<path class="st17" d="M229.3,187.3l-2.7-4.1h1.7l1.8,2.9h0l1.9-2.9h1.6l-2.7,4l2.9,4.4h-1.7l-2.1-3.3h0l-2.1,3.3h-1.6L229.3,187.3
			z"/>
		<path class="st17" d="M235.8,179.7h1.5v1.6h-1.5V179.7z M235.9,183.2h1.5v8.4h-1.5V183.2z"/>
		<path class="st17" d="M240.5,183.2h1.4v1.4h0c0.4-0.9,1.4-1.6,2.7-1.6c1.3,0,2.2,0.6,2.5,1.7h0c0.3-0.9,1.4-1.7,2.8-1.7
			c1.6,0,2.7,0.8,2.7,2.8v5.9h-1.4v-5.2c0-0.6,0-1.3-0.3-1.7c-0.3-0.4-0.8-0.5-1.3-0.5c-1.6,0-2.3,1-2.3,2.4v5.1h-1.4v-5.2
			c0-0.6,0-1.2-0.3-1.7c-0.3-0.4-0.8-0.6-1.3-0.6c-1.6,0-2.3,1-2.3,2.4v5.1h-1.4V183.2z"/>
		<path class="st17" d="M257.1,188.4c0,0.6,0,1.3,0.3,1.7c0.3,0.4,0.7,0.6,1.3,0.6c1.6,0,2.3-1,2.3-2.9v-4.6h1.4v8.4H261v-1.4h0
			c-0.4,0.9-1.3,1.6-2.7,1.6c-1.6,0-2.7-0.8-2.7-2.8v-5.9h1.4V188.4z"/>
		<path class="st17" d="M265.6,183.2h1.4v1.4h0c0.4-0.9,1.4-1.6,2.7-1.6c1.3,0,2.2,0.6,2.5,1.7h0c0.3-0.9,1.4-1.7,2.8-1.7
			c1.6,0,2.7,0.8,2.7,2.8v5.9h-1.4v-5.2c0-0.6,0-1.3-0.3-1.7c-0.3-0.4-0.8-0.5-1.3-0.5c-1.6,0-2.3,1-2.3,2.4v5.1h-1.4v-5.2
			c0-0.6,0-1.2-0.3-1.7c-0.3-0.4-0.8-0.6-1.3-0.6c-1.6,0-2.3,1-2.3,2.4v5.1h-1.4V183.2z"/>
		<path class="st17" d="M292,194.7h-1.4v-4.3h0c-0.4,0.8-1.3,1.5-2.6,1.5c-1.8,0-3.4-1.1-3.4-4.4c0-2.9,1.5-4.5,3.6-4.5
			c1.3,0,2.1,0.7,2.4,1.5h0v-1.3h1.4V194.7z M290.6,188v-0.9c0-1.8-0.9-2.9-2.3-2.9c-1.6,0-2.4,1.3-2.4,3.3c0,1.9,0.6,3.3,2.2,3.3
			C289.7,190.7,290.6,189.5,290.6,188z"/>
		<path class="st17" d="M296.5,188.4c0,0.6,0,1.3,0.3,1.7c0.3,0.4,0.7,0.6,1.3,0.6c1.6,0,2.3-1,2.3-2.9v-4.6h1.4v8.4h-1.4v-1.4h0
			c-0.4,0.9-1.3,1.6-2.7,1.6c-1.6,0-2.7-0.8-2.7-2.8v-5.9h1.4V188.4z"/>
		<path class="st17" d="M304.6,185.5c0-1.5,1.2-2.5,3.2-2.5c2.1,0,3.1,0.9,3.1,3.1v3.4c0,0.7,0.1,0.9,0.8,1v1.2h-0.2
			c-1.3,0-1.8-0.5-1.9-1.5h0c-0.4,1-1.5,1.6-2.7,1.6c-1.7,0-2.7-0.9-2.7-2.4c0-0.9,0.4-1.7,1.3-2.1c0.9-0.5,2.2-0.6,4.1-0.7v-0.4
			c0-1.5-0.6-2.1-1.8-2.1c-1.2,0-1.7,0.7-1.8,1.4H304.6z M309.5,187.8v-0.2c-1.8,0.1-2.9,0.2-3.4,0.6c-0.3,0.2-0.5,0.6-0.5,1
			c0,0.9,0.6,1.3,1.5,1.3C308.2,190.6,309.5,189.9,309.5,187.8z"/>
		<path class="st17" d="M313.9,179h1.4v12.6h-1.4V179z"/>
		<path class="st17" d="M318.5,179.7h1.5v1.6h-1.5V179.7z M318.5,183.2h1.5v8.4h-1.5V183.2z"/>
		<path class="st17" d="M324.9,180.8v2.4h2.1v1.1h-2.1v5c0,0.9,0.4,1.2,1.3,1.2c0.4,0,0.9-0.1,0.9-0.1v1.2c0,0-0.6,0.1-1.3,0.1
			c-1.6,0-2.3-0.8-2.3-2.2v-5.2H322v-1.1h0.3c1.1,0,1.4-0.3,1.4-1.9v-0.6H324.9z"/>
		<path class="st17" d="M328.5,183.2h1.4l1.8,5.3c0.3,0.8,0.4,1.3,0.4,1.3h0c0,0,0.1-0.5,0.4-1.3l1.7-5.3h1.4l-3.1,9
			c-0.7,1.9-1.2,2.7-3.1,2.7c-0.3,0-0.6,0-0.9-0.1v-1.2c0.3,0.1,0.6,0.1,0.7,0.1c1.1,0,1.4-0.4,1.8-1.5l0.2-0.4L328.5,183.2z"/>
		<path class="st17" d="M336.2,189.7h2v2h-2V189.7z"/>
		<path class="st17" d="M59.6,215.8h4.5v1.3h-4.5V215.8z"/>
		<path class="st17" d="M72.9,217v4.7h-1.5v-12.2h3.7c2.4,0,4.2,1.1,4.2,3.8c0,2.6-1.8,3.8-4.3,3.8H72.9z M74.9,215.8
			c1.8,0,2.8-0.9,2.8-2.6c0-1.8-1-2.6-2.8-2.6h-2.1v5.2H74.9z"/>
		<path class="st17" d="M81.8,209.4h3.8c3.3,0,5.9,1.6,5.9,6c0,4.3-2.4,6.3-5.7,6.3h-3.9V209.4z M85.5,220.4c2.6,0,4.4-1.3,4.4-4.9
			c0-3.4-1.8-4.7-4.3-4.7h-2.4v9.7H85.5z"/>
		<path class="st17" d="M95.8,221.7h-1.5v-12.2h7.3v1.3h-5.8v4.4h5.3v1.3h-5.3V221.7z"/>
		<path class="st17" d="M59.6,245.8h4.5v1.3h-4.5V245.8z"/>
		<path class="st17" d="M71.4,239.4h7.8v1.3h-6.3v4.1h5.8v1.3h-5.8v4.2h6.4v1.3h-7.9V239.4z"/>
		<path class="st17" d="M83.9,247v4.7h-1.5v-12.2h3.7c2.4,0,4.2,1.1,4.2,3.8c0,2.6-1.8,3.8-4.3,3.8H83.9z M85.9,245.8
			c1.8,0,2.8-0.9,2.8-2.6c0-1.8-1-2.6-2.8-2.6h-2.1v5.2H85.9z"/>
		<path class="st17" d="M99.3,242.7c-0.1-1.2-0.8-2.3-2.5-2.3c-1.7,0-2.6,0.9-2.6,2.1c0,1.1,0.6,1.8,2,2l1.7,0.3
			c2.4,0.4,3.2,1.6,3.2,3.3c0,2.2-1.5,3.7-4.5,3.7c-2.8,0-4.4-1.5-4.6-3.7h1.6c0.2,1.3,1.1,2.5,3.1,2.5c2.2,0,2.9-1.1,2.9-2.4
			c0-1.1-0.6-1.8-2.1-2l-1.7-0.3c-2.4-0.4-3.2-1.7-3.2-3.3c0-2,1.6-3.4,4.1-3.4c2.6,0,3.9,1.4,4,3.5H99.3z"/>
		<path class="st17" d="M103.6,243.2h2v2h-2V243.2z M103.6,251.7v-2h2v2H103.6z"/>
		<path class="st17" d="M115.8,251.9c-2.6,0-3.8-1.9-3.8-4.4c0-2.5,1.3-4.5,3.8-4.5c2.5,0,3.5,2,3.5,4.1v0.7h-5.8
			c0.1,1.7,0.8,2.9,2.4,2.9c1.4,0,1.8-0.8,1.9-1.3h1.4C118.8,250.9,117.6,251.9,115.8,251.9z M117.8,246.6c0-1.4-0.6-2.5-2.1-2.5
			c-1.3,0-2.1,1.1-2.3,2.6L117.8,246.6L117.8,246.6z"/>
		<path class="st17" d="M123.3,247.3l-2.7-4.1h1.7l1.8,2.9h0l1.9-2.9h1.6l-2.7,4l2.9,4.4h-1.7l-2.1-3.3h0l-2.1,3.3h-1.6L123.3,247.3
			z"/>
		<path class="st17" d="M129.8,243.2h1.4v1.4h0c0.5-0.9,1.4-1.6,2.7-1.6c1.8,0,3.4,1.1,3.4,4.3c0,3.1-1.6,4.5-3.5,4.5
			c-1.2,0-2.2-0.7-2.5-1.4h0v4.2h-1.4V243.2z M133.6,250.7c1.5,0,2.2-1.2,2.2-3.4c0-1.8-0.5-3.2-2.3-3.2c-1.5,0-2.4,1.3-2.4,2.7v0.9
			C131.2,249.4,132,250.7,133.6,250.7z"/>
		<path class="st17" d="M139.1,247.4c0-2.6,1.4-4.4,3.8-4.4c2.5,0,3.8,1.8,3.8,4.4c0,2.6-1.4,4.4-3.8,4.4
			C140.4,251.9,139.1,250.1,139.1,247.4z M140.6,247.4c0,2.1,0.7,3.3,2.3,3.3c1.6,0,2.3-1.2,2.3-3.3c0-2-0.7-3.3-2.3-3.3
			C141.4,244.1,140.6,245.4,140.6,247.4z"/>
		<path class="st17" d="M149.1,243.2h1.4v1.6h0c0.4-0.9,1.4-1.7,2.7-1.7h0.1v1.5H153c-1.5,0-2.5,0.9-2.5,2.5v4.6h-1.4V243.2z"/>
		<path class="st17" d="M157.5,240.8v2.4h2.1v1.1h-2.1v5c0,0.9,0.4,1.2,1.3,1.2c0.4,0,0.9-0.1,0.9-0.1v1.2c0,0-0.6,0.1-1.3,0.1
			c-1.6,0-2.3-0.8-2.3-2.2v-5.2h-1.5v-1.1h0.3c1.1,0,1.4-0.3,1.4-1.9v-0.6H157.5z"/>
		<path class="st17" d="M170.6,246.5h-2.7v5.2h-1.5v-12.2h4.4c0.9,0,1.7,0.2,2.4,0.5c1,0.5,1.6,1.5,1.6,2.9c0,2.3-1.5,3.1-2.6,3.4v0
			l2.7,5.4h-1.7L170.6,246.5z M170.7,245.2c1.4,0,2.5-0.7,2.5-2.4c0-1.5-1-2.2-2.4-2.2h-2.9v4.6H170.7z"/>
		<path class="st17" d="M178.5,245.6c0,3.2,1.4,5.1,3.9,5.1c2.3,0,3.7-1.3,3.7-3.7v-0.2h-3.5v-1.3h5v6.2h-1.3v-1.8h-0.1
			c-0.6,1.1-1.8,2-3.8,2c-3.1,0-5.4-2-5.4-6.3c0-4,2.4-6.4,5.6-6.4c2.5,0,4.3,1.3,4.6,3.4h-1.6c-0.2-1.4-1.5-2.2-3.1-2.2
			C179.9,240.4,178.5,242.5,178.5,245.6z"/>
		<path class="st17" d="M191,251.7v-12.2h4.8c2.1,0,3.8,1,3.8,3c0,1.5-0.8,2.4-2.2,2.7v0c1.5,0.3,2.6,1.5,2.6,2.9
			c0,2.8-2.1,3.6-4.5,3.6H191z M195.5,244.6c1.3,0,2.5-0.5,2.5-2c0-1.3-0.9-1.9-2.3-1.9h-3.2v4H195.5z M195.4,250.5
			c1.8,0,3-0.6,3-2.4c0-1.6-1.2-2.2-3.1-2.2h-2.8v4.7H195.4z"/>
		<path class="st17" d="M209.2,253.7c-0.9-1.8-2.1-4.1-2.1-7.3c0-3.2,1.2-5.5,2.1-7.3h1.1c-0.9,2-1.7,4.1-1.7,7.3
			c0,3.3,0.8,5.4,1.7,7.3H209.2z"/>
		<path class="st17" d="M219.2,251.7h-1.4v-1.4h0c-0.4,0.8-1.4,1.6-2.7,1.6c-1.8,0-3.4-1.1-3.4-4.4c0-2.9,1.5-4.5,3.6-4.5
			c1.3,0,2.1,0.7,2.4,1.5h0V239h1.4V251.7z M217.8,247.1c0-1.8-0.9-2.9-2.3-2.9c-1.6,0-2.4,1.3-2.4,3.3c0,1.9,0.6,3.3,2.2,3.3
			c1.5,0,2.4-1.2,2.4-2.7V247.1z"/>
		<path class="st17" d="M222.3,239.7h1.5v1.6h-1.5V239.7z M222.4,243.2h1.5v8.4h-1.5V243.2z"/>
		<path class="st17" d="M226.4,252.5h1.4c0.2,0.7,0.7,1.2,2.1,1.2c1.6,0,2.4-0.6,2.4-2.4V250h0c-0.4,0.8-1.4,1.6-2.7,1.6
			c-1.8,0-3.4-1.1-3.4-4.2c0-2.8,1.5-4.3,3.6-4.3c1.4,0,2.2,0.8,2.5,1.5h0v-1.3h1.4v8.2c0,2.4-1.6,3.4-3.8,3.4
			C228.3,254.8,226.6,254.2,226.4,252.5z M232.4,247c0-1.7-0.9-2.8-2.4-2.8c-1.5,0-2.2,1.3-2.2,3.2c0,1.9,0.5,3.1,2.3,3.1
			c1.4,0,2.3-1.2,2.3-2.6V247z"/>
		<path class="st17" d="M236.9,239.7h1.5v1.6h-1.5V239.7z M236.9,243.2h1.5v8.4h-1.5V243.2z"/>
		<path class="st17" d="M243.3,240.8v2.4h2.1v1.1h-2.1v5c0,0.9,0.4,1.2,1.3,1.2c0.4,0,0.9-0.1,0.9-0.1v1.2c0,0-0.6,0.1-1.3,0.1
			c-1.6,0-2.3-0.8-2.3-2.2v-5.2h-1.5v-1.1h0.3c1.1,0,1.4-0.3,1.4-1.9v-0.6H243.3z"/>
		<path class="st17" d="M247.8,245.5c0-1.5,1.2-2.5,3.2-2.5c2.1,0,3.1,0.9,3.1,3.1v3.4c0,0.7,0.1,0.9,0.8,1v1.2h-0.2
			c-1.3,0-1.8-0.5-1.9-1.5h0c-0.4,1-1.5,1.6-2.7,1.6c-1.7,0-2.7-0.9-2.7-2.4c0-0.9,0.4-1.7,1.3-2.1c0.9-0.5,2.2-0.6,4.1-0.7v-0.4
			c0-1.5-0.6-2.1-1.8-2.1c-1.2,0-1.7,0.7-1.8,1.4H247.8z M252.7,247.8v-0.2c-1.8,0.1-2.9,0.2-3.4,0.6c-0.3,0.2-0.5,0.6-0.5,1
			c0,0.9,0.6,1.3,1.5,1.3C251.4,250.6,252.7,249.9,252.7,247.8z"/>
		<path class="st17" d="M257.1,239h1.4v12.6h-1.4V239z"/>
		<path class="st17" d="M262.5,246.4c0-3.3-0.8-5.4-1.7-7.3h1.1c0.9,1.8,2.1,4.1,2.1,7.3c0,3.2-1.2,5.5-2.1,7.3h-1.1
			C261.7,251.8,262.5,249.6,262.5,246.4z"/>
		<path class="st17" d="M271.4,245.5c0-1.5,1.2-2.5,3.2-2.5c2.1,0,3.1,0.9,3.1,3.1v3.4c0,0.7,0.1,0.9,0.8,1v1.2h-0.2
			c-1.3,0-1.8-0.5-1.9-1.5h0c-0.4,1-1.5,1.6-2.7,1.6c-1.7,0-2.7-0.9-2.7-2.4c0-0.9,0.4-1.7,1.3-2.1c0.9-0.5,2.2-0.6,4.1-0.7v-0.4
			c0-1.5-0.6-2.1-1.8-2.1c-1.2,0-1.7,0.7-1.8,1.4H271.4z M276.3,247.8v-0.2c-1.8,0.1-2.9,0.2-3.4,0.6c-0.3,0.2-0.5,0.6-0.5,1
			c0,0.9,0.6,1.3,1.5,1.3C275,250.6,276.3,249.9,276.3,247.8z"/>
		<path class="st17" d="M286.1,246.5c0-0.6,0-1.3-0.3-1.7c-0.3-0.4-0.8-0.6-1.3-0.6c-1.6,0-2.3,1-2.3,2.4v5.1h-1.4v-8.4h1.4v1.4h0
			c0.4-0.9,1.4-1.6,2.7-1.6c1.6,0,2.7,0.8,2.7,2.8v5.9h-1.4V246.5z"/>
		<path class="st17" d="M297.4,251.7H296v-1.4h0c-0.4,0.8-1.4,1.6-2.7,1.6c-1.8,0-3.4-1.1-3.4-4.4c0-2.9,1.5-4.5,3.6-4.5
			c1.3,0,2.1,0.7,2.4,1.5h0V239h1.4V251.7z M296,247.1c0-1.8-0.9-2.9-2.3-2.9c-1.6,0-2.4,1.3-2.4,3.3c0,1.9,0.6,3.3,2.2,3.3
			c1.5,0,2.4-1.2,2.4-2.7V247.1z"/>
		<path class="st17" d="M306.2,245.6c0,3.2,1.4,5.1,3.9,5.1c2.2,0,3.1-1.5,3.2-2.8h1.5c-0.2,2.3-2,4.1-4.7,4.1
			c-3.2,0-5.4-2.1-5.4-6.3c0-4,2.3-6.3,5.5-6.3c2.1,0,4.4,1.1,4.7,3.8h-1.6c-0.2-1.2-1.2-2.6-3.1-2.6
			C307.6,240.4,306.2,242.5,306.2,245.6z"/>
		<path class="st17" d="M317.7,239.4h2.3l3.1,8.8c0.4,1.1,0.5,1.6,0.5,1.6h0c0,0,0.2-0.5,0.5-1.6l3.2-8.8h2.2v12.2H328v-10.5h0
			c0,0-0.2,0.6-0.7,1.9l-3.1,8.6h-1.4l-3-8.6c-0.4-1.3-0.7-1.9-0.7-1.9h0v10.5h-1.4V239.4z"/>
		<path class="st17" d="M335.9,246.4l-4.3-7h1.7l3.3,5.7h0l3.4-5.7h1.6l-4.3,6.9v5.3h-1.5V246.4z"/>
		<path class="st17" d="M345.1,251.7h-1.5v-12.2h1.5v6.3l5.7-6.3h1.8l-4.7,5.1l5,7.1h-1.8l-4.3-6l-1.8,2V251.7z"/>
		<path class="st17" d="M361.7,253.7c-0.9-1.8-2.1-4.1-2.1-7.3c0-3.2,1.2-5.5,2.1-7.3h1.1c-0.9,2-1.7,4.1-1.7,7.3
			c0,3.3,0.8,5.4,1.7,7.3H361.7z"/>
		<path class="st17" d="M365.1,243.2h1.4v1.4h0c0.5-0.9,1.4-1.6,2.7-1.6c1.8,0,3.4,1.1,3.4,4.3c0,3.1-1.6,4.5-3.5,4.5
			c-1.2,0-2.2-0.7-2.5-1.4h0v4.2h-1.4V243.2z M368.9,250.7c1.5,0,2.2-1.2,2.2-3.4c0-1.8-0.5-3.2-2.3-3.2c-1.5,0-2.4,1.3-2.4,2.7v0.9
			C366.5,249.4,367.3,250.7,368.9,250.7z"/>
		<path class="st17" d="M375,243.2h1.4v1.6h0c0.4-0.9,1.4-1.7,2.7-1.7h0.1v1.5h-0.3c-1.5,0-2.5,0.9-2.5,2.5v4.6H375V243.2z"/>
		<path class="st17" d="M381.4,239.7h1.5v1.6h-1.5V239.7z M381.4,243.2h1.5v8.4h-1.5V243.2z"/>
		<path class="st17" d="M391.4,246.5c0-0.6,0-1.3-0.3-1.7c-0.3-0.4-0.8-0.6-1.3-0.6c-1.6,0-2.3,1-2.3,2.4v5.1H386v-8.4h1.4v1.4h0
			c0.4-0.9,1.4-1.6,2.7-1.6c1.6,0,2.7,0.8,2.7,2.8v5.9h-1.4V246.5z"/>
		<path class="st17" d="M397.7,240.8v2.4h2.1v1.1h-2.1v5c0,0.9,0.4,1.2,1.3,1.2c0.4,0,0.9-0.1,0.9-0.1v1.2c0,0-0.6,0.1-1.3,0.1
			c-1.6,0-2.3-0.8-2.3-2.2v-5.2h-1.5v-1.1h0.3c1.1,0,1.4-0.3,1.4-1.9v-0.6H397.7z"/>
		<path class="st17" d="M403,246.4c0-3.3-0.8-5.4-1.7-7.3h1.1c0.9,1.8,2.1,4.1,2.1,7.3c0,3.2-1.2,5.5-2.1,7.3h-1.1
			C402.2,251.8,403,249.6,403,246.4z"/>
		<path class="st17" d="M411.1,243.2h1.5l1.8,5.4c0.2,0.7,0.4,1.3,0.4,1.3h0c0,0,0.2-0.6,0.4-1.3l1.9-5.4h1.4l-2.9,8.4H414
			L411.1,243.2z"/>
		<path class="st17" d="M423.5,251.9c-2.6,0-3.8-1.9-3.8-4.4c0-2.5,1.3-4.5,3.8-4.5c2.5,0,3.5,2,3.5,4.1v0.7h-5.8
			c0.1,1.7,0.8,2.9,2.4,2.9c1.4,0,1.8-0.8,1.9-1.3h1.4C426.6,250.9,425.3,251.9,423.5,251.9z M425.5,246.6c0-1.4-0.6-2.5-2.1-2.5
			c-1.3,0-2.1,1.1-2.3,2.6L425.5,246.6L425.5,246.6z"/>
		<path class="st17" d="M429.3,243.2h1.4v1.6h0c0.4-0.9,1.4-1.7,2.7-1.7h0.1v1.5h-0.3c-1.5,0-2.5,0.9-2.5,2.5v4.6h-1.4V243.2z"/>
		<path class="st17" d="M439.7,245.3c-0.1-0.8-0.7-1.2-1.7-1.2s-1.6,0.6-1.6,1.4c0,0.7,0.4,1,1.3,1.2l1.3,0.2c1.8,0.3,2.4,1,2.4,2.4
			c0,1.7-1.4,2.6-3.3,2.6c-1.7,0-3.2-0.8-3.3-2.6h1.4c0.1,0.7,0.4,1.5,1.9,1.5c1.2,0,1.9-0.5,1.9-1.4c0-0.7-0.2-1-1.3-1.2l-1.3-0.2
			c-1.5-0.2-2.3-0.9-2.3-2.3c0-1.5,1.1-2.6,3.1-2.6c1.8,0,2.9,0.8,3,2.3H439.7z"/>
		<path class="st17" d="M443.8,239.7h1.5v1.6h-1.5V239.7z M443.9,243.2h1.5v8.4h-1.5V243.2z"/>
		<path class="st17" d="M447.7,247.4c0-2.6,1.4-4.4,3.8-4.4c2.5,0,3.8,1.8,3.8,4.4c0,2.6-1.4,4.4-3.8,4.4
			C449,251.9,447.7,250.1,447.7,247.4z M449.2,247.4c0,2.1,0.7,3.3,2.3,3.3c1.6,0,2.3-1.2,2.3-3.3c0-2-0.7-3.3-2.3-3.3
			C450,244.1,449.2,245.4,449.2,247.4z"/>
		<path class="st17" d="M463.1,246.5c0-0.6,0-1.3-0.3-1.7c-0.3-0.4-0.8-0.6-1.3-0.6c-1.6,0-2.3,1-2.3,2.4v5.1h-1.4v-8.4h1.4v1.4h0
			c0.4-0.9,1.4-1.6,2.7-1.6c1.6,0,2.7,0.8,2.7,2.8v5.9h-1.4V246.5z"/>
		<path class="st17" d="M471.8,245.3c-0.1-0.8-0.7-1.2-1.7-1.2s-1.6,0.6-1.6,1.4c0,0.7,0.4,1,1.3,1.2l1.3,0.2c1.8,0.3,2.4,1,2.4,2.4
			c0,1.7-1.4,2.6-3.3,2.6c-1.7,0-3.2-0.8-3.3-2.6h1.4c0.1,0.7,0.4,1.5,1.9,1.5c1.2,0,1.9-0.5,1.9-1.4c0-0.7-0.2-1-1.3-1.2l-1.3-0.2
			c-1.5-0.2-2.3-0.9-2.3-2.3c0-1.5,1.1-2.6,3.1-2.6c1.8,0,2.9,0.8,3,2.3H471.8z"/>
		<path class="st17" d="M475.3,249.7h2v2h-2V249.7z"/>
	</g>
</g>
</svg>
