<?xml version="1.0" encoding="utf-8"?>
<!-- Generator: Adobe Illustrator 24.1.0, SVG Export Plug-In . SVG Version: 6.00 Build 0)  -->
<svg version="1.1" id="Layer_1" xmlns="http://www.w3.org/2000/svg" xmlns:xlink="http://www.w3.org/1999/xlink" x="0px" y="0px"
	 viewBox="0 0 32 32" style="enable-background:new 0 0 32 32;" xml:space="preserve">
<style type="text/css">
	.st0{fill:#4B5A73;}
	.st1{fill:#283955;}
</style>
<path class="st0" d="M16,0C7.2,0,0,7.2,0,16s7.2,16,16,16s16-7.2,16-16S24.8,0,16,0z M16,30.1C8.2,30.1,1.9,23.8,1.9,16
	S8.2,1.9,16,1.9S30.1,8.2,30.1,16S23.8,30.1,16,30.1z"/>
<path class="st1" d="M22.6,22.2h4.1c-2.1,3.7-6.1,6.2-10.7,6.2c-6.7,0-12.2-5.4-12.3-12h4.2l2.8,9.2l3.4-12.8l2.6,7.5l2.7-7.6
	L22.6,22.2z"/>
<path class="st1" d="M28.3,16c0,1.5-0.3,3-0.8,4.4h-3.7L19.5,7.2l-2.8,7.8l-2.8-8.2L10.6,19l-1.4-4.5H3.8C4.5,8.4,9.7,3.7,16,3.7
	C22.8,3.7,28.3,9.2,28.3,16z"/>
</svg>
