<?xml version="1.0" encoding="utf-8"?>
<!-- Generator: Adobe Illustrator 24.1.0, SVG Export Plug-In . SVG Version: 6.00 Build 0)  -->
<svg version="1.1" id="Layer_1" xmlns="http://www.w3.org/2000/svg" xmlns:xlink="http://www.w3.org/1999/xlink" x="0px" y="0px"
	 viewBox="0 0 32 32" style="enable-background:new 0 0 32 32;" xml:space="preserve">
<style type="text/css">
	.st0{fill:#0179CB;}
	.st1{fill:#182232;}
	.st2{fill:url(#SVGID_1_);}
	.st3{fill:#0394E5;}
</style>
<path class="st0" d="M32,16c0,5-2.3,9.5-5.9,12.4c-1.5,1.3-3.3,2.2-5.2,2.8C19.3,31.7,17.7,32,16,32c-5.7,0-10.7-3-13.5-7.5
	c-0.8-1.2-1.4-2.6-1.8-4C0.2,19.1,0,17.6,0,16c0-1.8,0.3-3.5,0.8-5.1C1.3,9.5,2,8.2,2.8,7C5.7,2.8,10.5,0,16,0
	c1.7,0,3.3,0.3,4.8,0.8c1.9,0.6,3.7,1.6,5.2,2.8C29.7,6.5,32,11,32,16z"/>
<path class="st1" d="M29.5,16c0,4.2-1.9,8-5,10.5c-1.3,1.1-2.8,1.9-4.4,2.4c-1.3,0.4-2.7,0.6-4.1,0.6c-4.8,0-9-2.5-11.4-6.3
	c-0.7-1-1.2-2.2-1.5-3.4c-0.4-1.2-0.5-2.5-0.5-3.8c0-1.5,0.2-2.9,0.7-4.3c0.4-1.2,1-2.3,1.6-3.3C7.3,4.8,11.4,2.5,16,2.5
	c1.4,0,2.8,0.2,4.1,0.6c1.6,0.5,3.1,1.3,4.4,2.4C27.5,8,29.5,11.8,29.5,16z"/>
<g>
	
		<linearGradient id="SVGID_1_" gradientUnits="userSpaceOnUse" x1="5.3559" y1="18" x2="19.1182" y2="18" gradientTransform="matrix(1 0 0 -1 0 34)">
		<stop  offset="0" style="stop-color:#0394E5"/>
		<stop  offset="1" style="stop-color:#0179CB"/>
	</linearGradient>
	<path class="st2" d="M19.1,12V5.7l-7.8,7.8L6.8,9.9c-0.5,0.8-1,1.7-1.3,2.7L9,15.8L5.4,19c0.3,1,0.7,1.9,1.2,2.7l4.7-3.8l7.8,8.4
		v-6.9l-4.9-3.8L19.1,12z"/>
	<path class="st3" d="M22.6,7.6v16.8c-1,0.8-2.2,1.5-3.5,1.9v-2.8V5.7C20.3,6.1,21.5,6.7,22.6,7.6z"/>
</g>
</svg>
