<?xml version="1.0" encoding="utf-8"?>
<!-- Generator: Adobe Illustrator 24.1.0, SVG Export Plug-In . SVG Version: 6.00 Build 0)  -->
<svg version="1.1" id="Layer_1" xmlns="http://www.w3.org/2000/svg" xmlns:xlink="http://www.w3.org/1999/xlink" x="0px" y="0px"
	 viewBox="0 0 508.52 142.1" style="enable-background:new 0 0 508.52 142.1;" xml:space="preserve">
<style type="text/css">
	.st0{display:none;}
	.st1{fill:url(#SVGID_1_);}
	.st2{fill:url(#SVGID_2_);}
	.st3{fill:#333333;}
	.st4{fill:#F27AAA;}
	.st5{fill:#3BB54A;}
	.st6{fill:#29AAE2;}
	.st7{fill:url(#SVGID_3_);}
	.st8{fill:url(#SVGID_4_);}
	.st9{fill:url(#SVGID_5_);}
	.st10{fill:url(#SVGID_6_);}
	.st11{fill:url(#SVGID_7_);}
	.st12{fill:url(#SVGID_8_);}
	.st13{fill:url(#SVGID_9_);}
	.st14{display:inline;}
	.st15{clip-path:url(#SVGID_11_);}
	.st16{clip-path:url(#SVGID_13_);fill:#565656;}
	.st17{display:inline;opacity:0.5;fill:#CCCCCC;enable-background:new    ;}
	.st18{clip-path:url(#SVGID_15_);}
	.st19{clip-path:url(#SVGID_17_);fill:#565656;}
	.st20{fill:#555655;}
	.st21{fill:#999999;}
	.st22{fill:#989898;}
</style>
<g id="Your_design">
	<g class="st0">
		
			<text transform="matrix(1.082 0 0 1 -203.6118 -218.2529)" style="display:inline;fill:#333333; font-family:'Exo-Bold'; font-size:86.6563px;">ORK</text>
		
			<text transform="matrix(1 0 0 1 235.3817 -325.9952)" style="display:inline;fill:#333333; font-family:'MontserratAlternates-Bold'; font-size:92.2447px; letter-spacing:-1;">ORK</text>
		
			<text transform="matrix(1 0 0 1 490.834 -319.6721)" style="display:inline;fill:#333333; font-family:'MyriadPro-Bold'; font-size:92.2447px;">ORK</text>
		
			<text transform="matrix(1.4242 0 0 1 42.5728 -207.9927)" style="display:inline;fill:#333333; font-family:'Oswald-Medium'; font-size:77.0788px;">ORK</text>
		
			<text transform="matrix(1 0 0 1 25.932 -325.9952)" style="display:inline;fill:#333333; font-family:'Lato-Black'; font-size:90px;">ORK</text>
		
			<text transform="matrix(1 0 0 1 286.3861 -198.8136)" style="display:inline;fill:#333333; font-family:'Titillium-Bold'; font-size:90px;">ORK</text>
		
			<text transform="matrix(1 0 0 1 -203.6118 -325.9952)" style="display:inline;fill:#333333; font-family:'Tahoma-Bold'; font-size:90px;">ORK</text>
		
			<text transform="matrix(1 0 0 1 485.1545 -198.8136)" style="display:inline;fill:#333333; font-family:'Raleway-Black'; font-size:90px;">ORK</text>
	</g>
	<g>
		
			<linearGradient id="SVGID_1_" gradientUnits="userSpaceOnUse" x1="185.103" y1="-1009.9011" x2="367.3094" y2="-1116.522" gradientTransform="matrix(0.9962 -0.0872 -0.0872 -0.9962 42.9566 -956.1854)">
			<stop  offset="0" style="stop-color:#4F284D"/>
			<stop  offset="0.5" style="stop-color:#A0278A"/>
			<stop  offset="1" style="stop-color:#ED2079"/>
		</linearGradient>
		<path class="st1" d="M508.49,117.2l-0.77-8.75l-7.35-84.03c-0.45-5.15-4.99-8.97-10.15-8.52l-52.51,4.59l-1.04-11.94
			c-0.45-5.15-5-8.97-10.15-8.51l-44.51,3.89c-5.16,0.45-8.97,5-8.52,10.15l1.05,11.94l-52.51,4.6c-5.16,0.45-8.97,5-8.52,10.15
			l8.12,92.78c0.45,5.15,4.99,8.97,10.15,8.51l92.83-8.12l75.36-6.59C505.13,126.9,508.94,122.35,508.49,117.2z M384.32,18.26
			c-0.19-2.23,1.45-4.19,3.68-4.39l34.35-3c2.22-0.2,4.18,1.45,4.37,3.68l0.6,6.85l-42.4,3.71L384.32,18.26z"/>
		
			<linearGradient id="SVGID_2_" gradientUnits="userSpaceOnUse" x1="297.3261" y1="-1070.2632" x2="335.8924" y2="-1140.446" gradientTransform="matrix(0.9962 -0.0872 -0.0872 -0.9962 42.9566 -956.1854)">
			<stop  offset="0" style="stop-color:#333333"/>
			<stop  offset="9.987009e-03" style="stop-color:#41363E"/>
			<stop  offset="0.0283" style="stop-color:#573750"/>
			<stop  offset="0.0467" style="stop-color:#69335E"/>
			<stop  offset="0.0649" style="stop-color:#752C67"/>
			<stop  offset="0.0827" style="stop-color:#7D276C"/>
			<stop  offset="0.1" style="stop-color:#7F256E"/>
			<stop  offset="0.1899" style="stop-color:#8F2370"/>
			<stop  offset="0.3551" style="stop-color:#AA2073"/>
			<stop  offset="0.5204" style="stop-color:#C01D76"/>
			<stop  offset="0.6838" style="stop-color:#D11A78"/>
			<stop  offset="0.8447" style="stop-color:#DC197A"/>
			<stop  offset="1" style="stop-color:#E0187A"/>
		</linearGradient>
		<path class="st2" d="M507.72,108.45l0.77,8.75c0.45,5.15-3.36,9.7-8.52,10.15l-75.36,6.59l-32.04-21.43l18.77-29.6l31.39-5.01
			L507.72,108.45z"/>
		<polygon class="st3" points="442.73,77.91 387.32,52.54 392.57,112.51 		"/>
	</g>
	<g>
		<g>
			<g>
				<g>
					<path class="st4" d="M58.14,79.3l-12.33,23.13L0,16.53l0,0c15.18,0,29.13,8.37,36.27,21.76L58.14,79.3z"/>
					<polygon class="st5" points="104.83,79.3 92.5,102.42 81.49,81.77 69.16,58.65 81.49,35.52 93.82,58.65 					"/>
					<polygon class="st6" points="81.49,81.77 70.48,102.42 58.14,125.91 45.81,102.42 58.14,79.3 69.16,58.65 					"/>
					<path class="st3" d="M162.98,16.53c-15.18,0-29.13,8.37-36.28,21.76l-21.87,41L92.5,102.42l12.34,23.49l12.33-23.49L147.79,45
						h16.83l2.48,7.54h8.14L162.98,16.53z M151.25,38.53l7.33-13.75l4.19,13.75H151.25z"/>
				</g>
				
					<linearGradient id="SVGID_3_" gradientUnits="userSpaceOnUse" x1="27.7" y1="-859.2764" x2="56.4228" y2="-875.1213" gradientTransform="matrix(1 0 0 -1 0 -792)">
					<stop  offset="0" style="stop-color:#F27AAA"/>
					<stop  offset="0.316" style="stop-color:#EE78A7"/>
					<stop  offset="0.506" style="stop-color:#E671A0"/>
					<stop  offset="0.6628" style="stop-color:#DC6694"/>
					<stop  offset="0.8014" style="stop-color:#CE5684"/>
					<stop  offset="0.9268" style="stop-color:#BE4473"/>
					<stop  offset="1" style="stop-color:#B33668"/>
				</linearGradient>
				<polygon class="st7" points="29.17,71.22 42.74,50.42 58.14,79.3 45.81,102.42 				"/>
				
					<linearGradient id="SVGID_4_" gradientUnits="userSpaceOnUse" x1="77.2166" y1="-860.8455" x2="102.5952" y2="-874.8275" gradientTransform="matrix(1 0 0 -1 0 -792)">
					<stop  offset="0" style="stop-color:#3BB54A"/>
					<stop  offset="0.3367" style="stop-color:#3AB149"/>
					<stop  offset="0.5393" style="stop-color:#35A848"/>
					<stop  offset="0.7062" style="stop-color:#2B9B45"/>
					<stop  offset="0.8532" style="stop-color:#1D8B42"/>
					<stop  offset="0.9869" style="stop-color:#02783D"/>
					<stop  offset="1" style="stop-color:#00763D"/>
				</linearGradient>
				<polygon class="st8" points="75.86,71.22 89.43,50.42 104.83,79.3 92.5,102.42 				"/>
			</g>
			<g>
				<path class="st3" d="M174.35,16.53V23h10.73v29.55h7.82V23h10.78v-6.47H174.35z"/>
				<path class="st3" d="M217.69,23.56c1.13-0.6,2.75-0.9,4.86-0.9c2.12,0,4.14,0.09,6.08,0.25s3.44,0.35,4.49,0.58v-5.6
					c-1.51-0.45-3.33-0.85-5.44-1.19c-2.12-0.34-4.37-0.51-6.77-0.51c-3.2,0-5.83,0.51-7.87,1.53c-2.05,1.03-3.62,2.87-4.73,5.53
					s-1.67,6.39-1.67,11.19c0,5,0.54,8.83,1.61,11.51c1.08,2.68,2.62,4.5,4.63,5.45c2.01,0.96,4.65,1.44,7.93,1.44
					c5.07,0,9.18-0.47,12.31-1.41v-5.55c-2.75,0.32-6.27,0.49-10.57,0.49c-2.22,0-3.89-0.33-5.02-0.98
					c-1.13-0.65-1.92-1.8-2.38-3.45c-0.46-1.66-0.69-4.14-0.69-7.45c0-3.34,0.26-5.85,0.77-7.52S216.56,24.16,217.69,23.56z"/>
				<path class="st3" d="M261.19,16.53v14.99h-14.75V16.53h-7.82v36.02h7.82V37.99h14.75v14.56h7.88V16.53H261.19z"/>
			</g>
		</g>
		<g>
			<g>
				<linearGradient id="SVGID_5_" gradientUnits="userSpaceOnUse" x1="130.87" y1="94.51" x2="320.4919" y2="94.51">
					<stop  offset="0" style="stop-color:#333333"/>
					<stop  offset="0.5" style="stop-color:#92298D"/>
					<stop  offset="1" style="stop-color:#ED2079"/>
				</linearGradient>
				<path class="st9" d="M193.47,82.72c-1.53-3.9-3.71-7.38-6.53-10.44s-6.21-5.52-10.17-7.38c-3.96-1.86-8.37-2.79-13.23-2.79
					c-4.74,0-9.1,0.89-13.09,2.65c-3.99,1.77-7.44,4.14-10.35,7.11s-5.18,6.41-6.8,10.31c-1.62,3.9-2.43,7.95-2.43,12.15
					c0,4.14,0.78,8.16,2.34,12.06c1.56,3.9,3.75,7.36,6.57,10.39s6.21,5.48,10.17,7.34c3.96,1.86,8.37,2.79,13.23,2.79
					c4.74,0,9.11-0.9,13.1-2.7c3.99-1.8,7.42-4.19,10.3-7.16c2.88-2.97,5.13-6.39,6.75-10.26s2.43-7.9,2.43-12.1
					C195.76,90.61,195,86.62,193.47,82.72z M177.09,100.54c-0.57,2.04-1.44,3.86-2.61,5.44c-1.17,1.59-2.69,2.88-4.55,3.87
					s-4.05,1.49-6.57,1.49s-4.69-0.48-6.52-1.44s-3.35-2.22-4.55-3.78s-2.1-3.34-2.7-5.36c-0.6-2.01-0.9-4.09-0.9-6.25
					c0-2.1,0.29-4.15,0.86-6.17c0.57-2,1.45-3.81,2.65-5.4c1.2-1.58,2.72-2.86,4.55-3.82s4-1.44,6.52-1.44
					c2.46,0,4.61,0.46,6.44,1.39s3.36,2.16,4.59,3.69s2.14,3.3,2.74,5.31c0.6,2.02,0.9,4.1,0.9,6.26
					C177.94,96.43,177.66,98.5,177.09,100.54z"/>
				<linearGradient id="SVGID_6_" gradientUnits="userSpaceOnUse" x1="130.84" y1="94.42" x2="320.4619" y2="94.42">
					<stop  offset="0" style="stop-color:#333333"/>
					<stop  offset="0.5" style="stop-color:#92298D"/>
					<stop  offset="1" style="stop-color:#ED2079"/>
				</linearGradient>
				<path class="st10" d="M244.9,102.88c2.88-2.04,5.13-4.67,6.75-7.88c1.62-3.2,2.43-6.67,2.43-10.39c0-2.7-0.54-5.39-1.62-8.06
					s-2.56-5.04-4.45-7.11s-4.16-3.74-6.8-5.04c-2.64-1.29-5.52-1.93-8.64-1.93h-29.34v63.9h17.55v-19.62h6.57l11.25,19.62h19.8
					L244.9,102.88z M220.78,91.45V77.77h10.62c1.08,0,2.16,0.58,3.24,1.75s1.62,2.87,1.62,5.09c0,2.16-0.46,3.84-1.39,5.04
					s-1.94,1.8-3.02,1.8C231.85,91.45,220.78,91.45,220.78,91.45z"/>
				<linearGradient id="SVGID_7_" gradientUnits="userSpaceOnUse" x1="130.84" y1="94.42" x2="320.4619" y2="94.42">
					<stop  offset="0" style="stop-color:#333333"/>
					<stop  offset="0.5" style="stop-color:#92298D"/>
					<stop  offset="1" style="stop-color:#ED2079"/>
				</linearGradient>
				<path class="st11" d="M297.55,91.09l23.22-28.62h-19.8l-5.51,6.89l-13.93,17.41v-24.3h-17.55v63.9h17.55v-18.45l4.86-5.04
					l15.84,23.49h20.16L297.55,91.09z"/>
			</g>
			
				<linearGradient id="SVGID_8_" gradientUnits="userSpaceOnUse" x1="238.1895" y1="-896.958" x2="246.8428" y2="-918.3848" gradientTransform="matrix(1 0 0 -1 0 -792)">
				<stop  offset="0" style="stop-color:#503A4F"/>
				<stop  offset="0.0695" style="stop-color:#5B3A5A"/>
				<stop  offset="0.1954" style="stop-color:#6B3969"/>
				<stop  offset="0.3346" style="stop-color:#773674"/>
				<stop  offset="0.4919" style="stop-color:#7F337B"/>
				<stop  offset="0.6827" style="stop-color:#843080"/>
				<stop  offset="1" style="stop-color:#862F81"/>
			</linearGradient>
			<path class="st12" d="M258.4,126.37h-19.8l-11.25-19.62c0,0,11.14-0.21,17.55-3.87L258.4,126.37z"/>
			
				<linearGradient id="SVGID_9_" gradientUnits="userSpaceOnUse" x1="290.1143" y1="-891.1603" x2="313.3804" y2="-913.9362" gradientTransform="matrix(1 0 0 -1 0 -792)">
				<stop  offset="0" style="stop-color:#7E3379"/>
				<stop  offset="0.0911" style="stop-color:#8F307B"/>
				<stop  offset="0.2141" style="stop-color:#A22C7D"/>
				<stop  offset="0.35" style="stop-color:#B1287F"/>
				<stop  offset="0.5037" style="stop-color:#BC2481"/>
				<stop  offset="0.6901" style="stop-color:#C32282"/>
				<stop  offset="1" style="stop-color:#C52182"/>
			</linearGradient>
			<polygon class="st13" points="322.39,126.37 302.23,126.37 286.39,102.88 297.55,91.09 			"/>
		</g>
		<g>
			<path class="st6" d="M282.22,34.95c3.98,0,7.4-4.32,7.4-7.84c0-1.59-1.39-2.73-3.05-2.73c-3.61,0-8.05,3.17-8.05,6.78
				C278.52,33.27,280,34.95,282.22,34.95z"/>
			<path class="st6" d="M298.65,61.27c-2.13,0-2.78-1.15-2.78-3.08c0-5.29,5.27-12.51,8.42-16.39c10.18,0.62,10.92-2.64,15.26-11.01
				l-5.74-0.44c0.93-1.23,3.61-4.14,3.61-5.73c0-1.41-1.76-1.67-2.96-1.67c-5.37,0-7.4,4.14-10.18,7.75
				c-9.9,0.35-10.64,1.76-15.63,9.52l-1.02,1.59c4.9-0.71,3.15-0.35,8.79-0.35c-2.56,4.15-6.05,7.7-9.96,10.93
				c-3.69,2.57-8.45,7.15-13.31,7.15c-4.26,0-5.64-1.94-4.9-5.55c3.89-2.55,13.04-10.4,13.04-14.8c0-1.94-2.5-2.47-4.07-2.47
				c-5.55,0-17.11,10.48-17.11,21.23c0,4.49,2.5,10.48,7.96,10.48c6.8,0,14.62-7.4,18.89-12.27l1.14-0.87l0.18,0.18
				c-1.2,2.56-2.41,5.9-2.41,8.81c0,3.52,2.22,5.9,5.83,5.9c7.86,0,17.85-9.43,23.31-14.18l-0.46-3.88
				C304.94,58.63,301.61,61.27,298.65,61.27z"/>
		</g>
	</g>
</g>
<g id="_x39_9d_logo" class="st0">
	<g class="st14">
		<g>
			<g>
				<g>
					<defs>
						<path id="SVGID_10_" d="M-6.92-7.85C8.74-35.11,43.4-44.46,70.52-28.71c27.11,15.74,36.39,50.62,20.75,77.88
							C75.61,76.45,40.95,85.79,13.82,70.05C-13.28,54.3-22.58,19.42-6.92-7.85z M209.51-7.85c15.66-27.27,50.32-36.62,77.44-20.87
							c27.11,15.74,36.39,50.62,20.75,77.88c-15.66,27.28-50.32,36.62-77.44,20.88C203.15,54.3,193.85,19.42,209.51-7.85z
							 M512.49,164.29c-11.19,11.27-25.5,16.91-42.92,16.91c-8.39,0-16.25-1.49-23.56-4.47c-7.31-2.97-13.52-7.1-18.66-12.44
							c-5.13-5.31-9.17-11.64-12.13-18.99c-2.96-7.36-4.43-15.42-4.43-24.16c0-8.45,1.47-16.36,4.43-23.71s7.08-13.6,12.37-18.77
							c5.28-5.16,11.59-9.23,18.89-12.19C453.79,63.49,461.8,62,470.5,62c8.39,0,16.18,1.49,23.34,4.47
							c7.14,2.97,13.37,7.12,18.65,12.44c5.29,5.3,9.42,11.49,12.37,18.52c2.96,7.05,4.44,14.78,4.44,23.23
							C529.3,138.5,523.69,153.05,512.49,164.29z M150.38,81.8c10.55,18.93,26.14,35.34,46.17,46.98
							c16.82,9.76,34.98,14.98,53.13,16.27l-53.98,94.06h80.82l64.38-112.16c0.55,16.2,3.39,31.16,8.53,44.87
							c5.76,15.31,13.85,28.52,24.27,39.64c10.42,11.12,22.79,19.78,37.09,26.05c14.32,6.26,30.02,9.38,47.11,9.38
							c16.18,0,29.78-2.57,40.83-7.74c11.04-5.16,21.23-13.53,30.56-25.12v24.88h66.25V-97.05h-70V24
							c-9.64-9.41-19.9-16.36-30.78-20.91c-10.89-4.54-23.65-6.8-38.27-6.8c-16.48,0-31.8,3.14-45.95,9.39
							c-10.32,4.56-19.6,10.41-27.85,17.55c0.86-44-21.48-87.12-62.05-110.68c-59.36-34.48-135.27-14.03-169.53,45.68
							c-0.25,0.43-0.49,0.86-0.73,1.29c-10.54-18.93-26.13-35.33-46.17-46.97C44.87-121.92-31.04-101.47-65.31-41.76
							C-99.59,17.96-79.24,94.3-19.88,128.78c16.82,9.76,34.98,14.98,53.13,16.27l-53.98,94.06h80.82l89.57-156.03
							C149.9,82.66,150.14,82.23,150.38,81.8L150.38,81.8z"/>
					</defs>
					<clipPath id="SVGID_11_">
						<use xlink:href="#SVGID_10_"  style="overflow:visible;"/>
					</clipPath>
					<g class="st15">
						<g>
							<g>
								<g>
									<defs>
										<rect id="SVGID_12_" x="-628.7" y="-814.74" width="1770.84" height="1770.84"/>
									</defs>
									<clipPath id="SVGID_13_">
										<use xlink:href="#SVGID_12_"  style="overflow:visible;"/>
									</clipPath>
									<rect x="-93.02" y="-115.26" class="st16" width="699.65" height="373.22"/>
								</g>
							</g>
						</g>
					</g>
				</g>
			</g>
		</g>
	</g>
</g>
<g id="Guides">
</g>
<g id="TEMPLATE__x28_delete_x29_" class="st0">
	<path class="st17" d="M-243.24-428.95v1000h1000v-1000H-243.24z M556.76,371.05h-600v-600h600V371.05z"/>
	<g class="st14">
		<g>
			<g>
				<g>
					<defs>
						<path id="SVGID_14_" d="M4.28-134.03c1.99-3.46,6.38-4.64,9.82-2.65c3.44,2,4.61,6.42,2.63,9.88
							c-1.99,3.46-6.38,4.64-9.82,2.65C3.47-126.15,2.29-130.58,4.28-134.03z M32.88-134.03c1.99-3.46,6.38-4.64,9.82-2.65
							c3.44,2,4.61,6.42,2.63,9.88c-1.99,3.46-6.38,4.64-9.82,2.65C32.07-126.15,30.89-130.58,32.88-134.03z M76.15-112.21
							c-1.42,1.43-3.23,2.14-5.44,2.14c-1.06,0-2.06-0.19-2.99-0.57s-1.71-0.9-2.37-1.58c-0.65-0.67-1.16-1.48-1.54-2.41
							c-0.38-0.93-0.56-1.96-0.56-3.06c0-1.07,0.19-2.07,0.56-3.01c0.38-0.93,0.9-1.72,1.57-2.38c0.67-0.65,1.47-1.17,2.4-1.55
							c0.93-0.38,1.94-0.57,3.05-0.57c1.06,0,2.05,0.19,2.96,0.57c0.91,0.38,1.7,0.9,2.36,1.58c0.67,0.67,1.19,1.46,1.57,2.35
							s0.56,1.87,0.56,2.94C78.28-115.48,77.57-113.63,76.15-112.21z M77.81-145.34V-130c-1.22-1.19-2.52-2.07-3.9-2.65
							c-1.38-0.58-3-0.86-4.85-0.86c-2.09,0-4.03,0.4-5.83,1.19c-1.8,0.79-3.34,1.89-4.65,3.3c-1.3,1.41-2.32,3.08-3.08,5.03
							c-0.75,1.94-1.12,4.04-1.12,6.31c0,2.34,0.37,4.48,1.09,6.43c0.73,1.94,1.76,3.62,3.08,5.03c1.32,1.41,2.89,2.51,4.7,3.3
							c1.82,0.79,3.81,1.19,5.97,1.19c2.05,0,3.78-0.33,5.18-0.98s2.69-1.72,3.88-3.18v3.15h8.4v-42.6H77.81z M24.8-137.03
							c0.2-0.44,0.43-0.88,0.67-1.3c4.34-7.57,13.97-10.16,21.5-5.79c7.53,4.37,10.1,14.05,5.76,21.62l-11.36,19.78H31.12
							l6.85-11.93c-2.3-0.16-4.6-0.83-6.74-2.06c-2.94-1.71-5.12-4.22-6.43-7.1c-0.2,0.44-0.43,0.88-0.67,1.3l-11.36,19.78H2.53
							l6.85-11.93c-2.3-0.16-4.6-0.83-6.74-2.06c-7.53-4.37-10.11-14.05-5.76-21.62c4.34-7.57,13.97-10.16,21.5-5.79
							C21.31-142.42,23.49-139.91,24.8-137.03z M97.45-120.72c0.35-1.66,1.11-2.94,2.27-3.83c1.16-0.89,2.61-1.33,4.34-1.33
							s3.2,0.48,4.4,1.43c1.2,0.95,1.96,2.19,2.27,3.74L97.45-120.72L97.45-120.72z M118.4-123.63c-0.79-1.98-1.88-3.69-3.28-5.13
							c-1.39-1.44-3.05-2.58-4.96-3.41c-1.91-0.83-3.96-1.25-6.17-1.25c-2.12,0-4.12,0.42-5.99,1.25c-1.87,0.83-3.49,1.96-4.87,3.38
							c-1.38,1.42-2.47,3.11-3.28,5.05s-1.21,4.02-1.21,6.23c0,2.21,0.4,4.28,1.21,6.2s1.91,3.59,3.3,5.02
							c1.4,1.42,3.04,2.54,4.93,3.35s3.92,1.22,6.08,1.22c3.15,0,5.98-0.91,8.5-2.73c2.41-1.74,4.3-4.11,5.66-7.12h-9.2
							c-0.94,0.91-1.81,1.52-2.6,1.84s-1.73,0.48-2.83,0.48c-1.77,0-3.25-0.51-4.43-1.51c-1.18-1.01-1.87-2.35-2.06-4h22.13
							C119.81-117.78,119.53-120.78,118.4-123.63z M143.95-124.04c-0.43-5.81-4.95-9.32-11.34-9.32c-5.97,0-11.45,3.78-11.45,9.64
							c0,3.46,1.97,6.39,9.43,8.68c4.42,1.38,5.43,2.24,5.43,3.89c0,1.38-1.54,2.29-3.09,2.29c-1.76,0-3.09-0.85-3.36-2.72h-8.79
							c0.64,6.02,5.38,9.8,12.04,9.8c6.71,0,12.04-3.89,12.04-10.07c0-4.31-2.29-7.14-9.32-9c-4.1-1.07-5.54-1.86-5.54-3.46
							c0-1.12,1.07-1.97,2.56-1.97c1.44,0,2.66,0.53,2.72,2.24H143.95z M151.65-135.53c2.93,0,5.3-2.39,5.3-5.33
							s-2.37-5.33-5.3-5.33c-2.93,0-5.3,2.39-5.3,5.33S148.72-135.53,151.65-135.53z M156.07-102.74h-8.85v-29.68h8.85V-102.74z
							 M172.98-126.72c2.69,0,4.87,2.19,4.87,4.9s-2.18,4.9-4.87,4.9s-4.87-2.19-4.87-4.9S170.29-126.72,172.98-126.72z
							 M179.14-96.63c-1.01,1.38-2.93,1.86-4.54,1.94c-1.89,0.09-4.45-0.34-5.74-1.89c-1.24-1.49-0.95-3.57,0.73-4.59
							c0.48-0.3,0.99-0.47,1.54-0.55h4.4c1.92,0,4.36,0.54,4.34,2.93C179.86-98.05,179.58-97.24,179.14-96.63z M170.56-108.56
							c-3.59-0.56-3.51-2-2.64-2.69c8.16,3.11,18.12-0.84,18.18-10.3c-0.02-3.47-1.25-5.68-2.2-6.7c0.75-1.43,1.6-2.15,3.44-2.59
							l-3.73-6.45c-3.36,0.29-5.58,2.36-6.59,4.5c-1.99-0.81-6.06-0.91-9.3,0.25c-1.56,0.55-3,1.35-4.25,2.45
							c-1.19,1.05-2.13,2.3-2.79,3.75c-0.7,1.51-1,3.13-1.01,4.78c0.02,2.26,0.72,4.94,2.04,6.77c-3.56,3.52-3.36,8.75,0.33,12.05
							c-0.39,0.3-0.75,0.63-1.08,0.99c-3.33,3.63-1.75,8.68,2.07,11.34c4.83,3.46,13.41,3.67,18.69,1.32
							c9.27-3.77,9.61-17.59-1.16-19.4C177.56-109,174.15-108,170.56-108.56z M189.52-102.74h8.85v-16.56
							c0-3.88,1.67-5.81,5.02-5.81c1.61,0,2.78,0.49,3.51,1.48c0.73,0.99,1.09,2.55,1.09,4.69v16.2h8.85v-18.58
							c0-1.19-0.05-2.23-0.15-3.12c-0.1-0.89-0.26-1.68-0.47-2.37c-0.22-0.69-0.51-1.33-0.88-1.9c-0.37-0.57-0.86-1.14-1.44-1.69
							c-0.94-0.95-2.1-1.69-3.48-2.23c-1.38-0.53-2.85-0.8-4.42-0.8c-1.89,0-3.45,0.33-4.69,0.98s-2.37,1.71-3.39,3.18v-3.15h-8.38
							v29.68H189.52z M241.89-124.04c-0.43-5.81-4.95-9.32-11.34-9.32c-5.97,0-11.45,3.78-11.45,9.64c0,3.46,1.97,6.39,9.43,8.68
							c4.42,1.38,5.43,2.24,5.43,3.89c0,1.38-1.54,2.29-3.09,2.29c-1.76,0-3.09-0.85-3.36-2.72h-8.79c0.64,6.02,5.38,9.8,12.04,9.8
							c6.71,0,12.04-3.89,12.04-10.07c0-4.31-2.29-7.14-9.32-9c-4.1-1.07-5.54-1.86-5.54-3.46c0-1.12,1.07-1.97,2.56-1.97
							c1.44,0,2.66,0.53,2.72,2.24H241.89z"/>
					</defs>
					<clipPath id="SVGID_15_">
						<use xlink:href="#SVGID_14_"  style="overflow:visible;"/>
					</clipPath>
					<g class="st18">
						<g>
							<g>
								<g>
									<defs>
										<rect id="SVGID_16_" x="-46.58" y="-286.39" width="330.71" height="330.71"/>
									</defs>
									<clipPath id="SVGID_17_">
										<use xlink:href="#SVGID_16_"  style="overflow:visible;"/>
									</clipPath>
									<rect x="-7.31" y="-148.32" class="st19" width="252.17" height="62.85"/>
								</g>
							</g>
						</g>
					</g>
				</g>
			</g>
		</g>
	</g>
	<g class="st14">
		<path class="st20" d="M-0.25-43.13h6.98v3.07h-10.3v-16.8h3.31v13.73H-0.25z"/>
		<path class="st20" d="M21.09-46.15c0,3.77-2.74,6.36-6.41,6.36c-3.65,0-6.36-2.59-6.36-6.36s2.71-6.34,6.36-6.34
			C18.35-52.49,21.09-49.92,21.09-46.15z M11.54-46.15c0,1.99,1.3,3.5,3.17,3.5c1.9,0,3.14-1.51,3.14-3.5c0-2.02-1.25-3.5-3.14-3.5
			C12.83-49.66,11.54-48.17,11.54-46.15z"/>
		<path class="st20" d="M34.65-49.58h-1.8c0.14,0.43,0.24,0.91,0.24,1.42c0,2.45-1.99,4.22-4.8,4.22c-0.74,0-1.42-0.1-2.02-0.31
			c-0.17,0.22-0.29,0.5-0.29,0.89c0,0.62,0.46,1.01,1.22,1.01h2.86c2.5,0,3.98,1.2,3.98,3.5c0,2.74-2.14,4.22-5.38,4.22
			c-3.62,0-5.52-1.34-5.52-3.74c0-1.06,0.62-1.75,1.22-2.14c-0.74-0.5-1.42-1.44-1.42-2.62c0-1.15,0.53-1.97,1.25-2.57
			c-0.53-0.67-0.84-1.51-0.84-2.47c0-2.52,2.06-4.32,4.92-4.32c0.62,0,1.22,0.1,1.75,0.26h4.61v2.65
			C34.63-49.58,34.65-49.58,34.65-49.58z M27.45-40.01c-0.7,0.1-1.25,0.58-1.25,1.39c0,1.1,0.98,1.66,2.5,1.66
			c1.42,0,2.3-0.58,2.3-1.7c0-0.91-0.67-1.34-1.73-1.34L27.45-40.01L27.45-40.01z M26.44-48.17c0,1.13,0.74,1.92,1.82,1.92
			s1.8-0.79,1.8-1.92c0-1.18-0.72-1.97-1.8-1.97C27.16-50.14,26.44-49.34,26.44-48.17z"/>
		<path class="st20" d="M48.52-46.15c0,3.77-2.74,6.36-6.41,6.36c-3.65,0-6.36-2.59-6.36-6.36s2.71-6.34,6.36-6.34
			C45.79-52.49,48.52-49.92,48.52-46.15z M38.97-46.15c0,1.99,1.3,3.5,3.17,3.5c1.9,0,3.14-1.51,3.14-3.5c0-2.02-1.25-3.5-3.14-3.5
			C40.27-49.66,38.97-48.17,38.97-46.15z"/>
		<path class="st20" d="M60.02-52.22h2.78v2.83h-2.81l-0.05,4.92c0,1.25,0.38,1.75,1.58,1.75c0.6,0,0.94-0.07,1.27-0.17v2.74
			c-0.38,0.14-1.01,0.26-1.97,0.26c-2.66,0-4.03-1.08-4.01-3.84l0.05-5.66h-1.99v-2.83h1.99l0.02-2.95h3.14L60.02-52.22z"/>
		<path class="st20" d="M76.34-46.15v0.96h-8.47c0.1,1.61,1.22,2.74,2.93,2.74c1.2,0,2.11-0.5,2.45-1.42h3.02
			c-0.74,2.57-2.62,4.08-5.57,4.08c-3.6,0-6.05-2.5-6.05-6.34c0-3.67,2.42-6.36,6.05-6.36C73.91-52.49,76.34-50.47,76.34-46.15z
			 M67.89-47.35h5.3c-0.02-1.54-1.03-2.54-2.57-2.54C69.06-49.9,68.03-48.84,67.89-47.35z"/>
		<path class="st20" d="M96.19-47.95v7.9h-3.12v-7.22c0-1.42-0.55-2.18-1.7-2.18c-1.15,0-2.09,0.91-2.14,2.83v6.58H86.1v-7.22
			c0-1.42-0.58-2.18-1.7-2.18c-1.2,0-2.14,0.96-2.14,2.98v6.43h-3.1V-52.2h2.66l0.24,1.58c0.55-1.03,1.66-1.85,3.24-1.85
			c1.73,0,2.9,0.79,3.48,2.14c0.58-1.15,1.78-2.14,3.5-2.14C94.89-52.49,96.19-50.71,96.19-47.95z"/>
		<path class="st20" d="M112.05-46.15c0,3.58-2.4,6.36-5.66,6.36c-1.75,0-3.02-0.72-3.65-1.61v6.5h-3.12v-17.33h2.69l0.22,1.63
			c0.67-0.98,1.8-1.9,3.86-1.9C109.65-52.49,112.05-49.73,112.05-46.15z M102.66-46.2v0.14c0.02,2.14,1.56,3.34,3.07,3.34
			c1.7,0,3.07-1.34,3.07-3.43s-1.34-3.41-3.07-3.41C104.2-49.56,102.66-48.38,102.66-46.2z"/>
		<path class="st20" d="M117.88-40.05h-3.12v-17.52h3.12V-40.05z"/>
		<path class="st20" d="M130.79-48.05v7.99h-2.66l-0.19-1.49c-0.65,0.98-1.75,1.75-3.48,1.75c-2.16,0-3.7-1.32-3.7-3.5
			c0-2.38,1.61-3.29,3.77-3.65l3.14-0.58v-0.46c0-1.2-0.6-1.85-1.7-1.85c-1.03,0-1.82,0.62-1.82,1.61h-3.02
			c0.14-2.47,1.97-4.27,4.85-4.27C128.85-52.49,130.79-51.02,130.79-48.05z M125.25-44.93c-0.82,0.19-1.37,0.55-1.37,1.37
			c0,0.72,0.5,1.2,1.42,1.2c0.77,0,1.51-0.38,1.94-1.1c0.26-0.41,0.43-1.01,0.43-1.61v-0.36L125.25-44.93z"/>
		<path class="st20" d="M137.92-52.22h2.78v2.83h-2.81l-0.05,4.92c0,1.25,0.38,1.75,1.58,1.75c0.6,0,0.94-0.07,1.27-0.17v2.74
			c-0.38,0.14-1.01,0.26-1.97,0.26c-2.66,0-4.03-1.08-4.01-3.84l0.05-5.66h-1.99v-2.83h1.99l0.02-2.95h3.14L137.92-52.22z"/>
		<path class="st20" d="M154.24-46.15v0.96h-8.47c0.1,1.61,1.22,2.74,2.93,2.74c1.2,0,2.11-0.5,2.45-1.42h3.02
			c-0.74,2.57-2.62,4.08-5.57,4.08c-3.6,0-6.05-2.5-6.05-6.34c0-3.67,2.42-6.36,6.05-6.36C151.82-52.49,154.24-50.47,154.24-46.15z
			 M145.79-47.35h5.3c-0.02-1.54-1.03-2.54-2.57-2.54C146.97-49.9,145.94-48.84,145.79-47.35z"/>
		<path class="st21" d="M167.32-56.38c-2.02,2.66-3,4.99-3,8.62c0,3.62,0.98,5.95,3,8.62l-2.21,1.49c-2.21-2.71-3.74-5.69-3.74-10.1
			s1.54-7.39,3.74-10.1L167.32-56.38z"/>
		<path class="st21" d="M175.31-40.05H172V-51.7h-3.53v-2.78c2.59,0,3.98-0.58,4.42-2.38h2.42V-40.05z"/>
		<path class="st21" d="M190.05-48.48c0,5.38-2.14,8.74-5.98,8.74s-5.95-3.36-5.95-8.74c0-5.35,2.11-8.69,5.95-8.69
			S190.05-53.83,190.05-48.48z M181.45-48.48c0,3.55,0.86,5.66,2.62,5.66c1.75,0,2.62-2.11,2.62-5.66c0-3.53-0.86-5.62-2.62-5.62
			C182.32-54.1,181.45-52.01,181.45-48.48z"/>
		<path class="st21" d="M204.02-48.48c0,5.38-2.14,8.74-5.98,8.74s-5.95-3.36-5.95-8.74c0-5.35,2.11-8.69,5.95-8.69
			S204.02-53.83,204.02-48.48z M195.42-48.48c0,3.55,0.86,5.66,2.62,5.66c1.75,0,2.62-2.11,2.62-5.66c0-3.53-0.86-5.62-2.62-5.62
			C196.29-54.1,195.42-52.01,195.42-48.48z"/>
		<path class="st21" d="M217.98-48.48c0,5.38-2.14,8.74-5.98,8.74s-5.95-3.36-5.95-8.74c0-5.35,2.11-8.69,5.95-8.69
			S217.98-53.83,217.98-48.48z M209.39-48.48c0,3.55,0.86,5.66,2.62,5.66c1.75,0,2.62-2.11,2.62-5.66c0-3.53-0.86-5.62-2.62-5.62
			S209.39-52.01,209.39-48.48z"/>
		<path class="st21" d="M234.76-48.58l5.67,8.52h-3.89l-4.03-6.07l-4.03,6.07h-3.86l5.64-8.52l-5.5-8.28h3.89l3.86,5.83l3.86-5.83
			h3.89L234.76-48.58z"/>
		<path class="st21" d="M253.72-40.05h-3.31V-51.7h-3.53v-2.78c2.59,0,3.98-0.58,4.42-2.38h2.42V-40.05z"/>
		<path class="st21" d="M268.45-48.48c0,5.38-2.14,8.74-5.98,8.74s-5.95-3.36-5.95-8.74c0-5.35,2.11-8.69,5.95-8.69
			C266.32-57.17,268.45-53.83,268.45-48.48z M259.86-48.48c0,3.55,0.86,5.66,2.62,5.66c1.75,0,2.62-2.11,2.62-5.66
			c0-3.53-0.86-5.62-2.62-5.62C260.72-54.1,259.86-52.01,259.86-48.48z"/>
		<path class="st21" d="M282.42-48.48c0,5.38-2.14,8.74-5.98,8.74s-5.95-3.36-5.95-8.74c0-5.35,2.11-8.69,5.95-8.69
			C280.29-57.17,282.42-53.83,282.42-48.48z M273.83-48.48c0,3.55,0.86,5.66,2.62,5.66c1.75,0,2.62-2.11,2.62-5.66
			c0-3.53-0.86-5.62-2.62-5.62C274.69-54.1,273.83-52.01,273.83-48.48z"/>
		<path class="st21" d="M296.39-48.48c0,5.38-2.14,8.74-5.98,8.74s-5.95-3.36-5.95-8.74c0-5.35,2.11-8.69,5.95-8.69
			C294.25-57.17,296.39-53.83,296.39-48.48z M287.8-48.48c0,3.55,0.86,5.66,2.62,5.66c1.75,0,2.62-2.11,2.62-5.66
			c0-3.53-0.86-5.62-2.62-5.62C288.66-54.1,287.8-52.01,287.8-48.48z"/>
		<path class="st21" d="M311.68-46.15c0,3.58-2.4,6.36-5.66,6.36c-1.75,0-3.02-0.72-3.65-1.61v6.5h-3.12v-17.33h2.69l0.22,1.63
			c0.67-0.98,1.8-1.9,3.86-1.9C309.28-52.49,311.68-49.73,311.68-46.15z M302.29-46.2v0.14c0.02,2.14,1.56,3.34,3.07,3.34
			c1.7,0,3.07-1.34,3.07-3.43s-1.34-3.41-3.07-3.41C303.83-49.56,302.29-48.38,302.29-46.2z"/>
		<path class="st21" d="M320.77-46.25l3.84,6.19h-3.62l-2.38-3.84l-2.35,3.84h-3.62l3.82-6.19l-3.67-5.98h3.63l2.21,3.55l2.23-3.55
			h3.62L320.77-46.25z"/>
		<path class="st21" d="M331.4-47.76c0,4.42-1.56,7.39-3.77,10.1l-2.18-1.49c1.99-2.66,2.98-4.99,2.98-8.62
			c0-3.62-0.98-5.95-2.98-8.62l2.18-1.49C329.84-55.15,331.4-52.18,331.4-47.76z"/>
	</g>
	<g class="st14">
		<path class="st22" d="M-1.64,14.25h4.45v1.3h-4.45C-1.64,15.55-1.64,14.25-1.64,14.25z"/>
		<path class="st22" d="M11.6,15.47v4.67h-1.49V7.9h3.68c2.37,0,4.21,1.12,4.21,3.76c0,2.59-1.82,3.81-4.34,3.81
			C13.66,15.47,11.6,15.47,11.6,15.47z M13.66,14.27c1.78,0,2.8-0.86,2.8-2.61c0-1.82-1.02-2.56-2.75-2.56H11.6v5.17H13.66z"/>
		<path class="st22" d="M20.09,7.53h1.44v12.61h-1.44V7.53z"/>
		<path class="st22" d="M24.28,14.01c0.03-1.49,1.17-2.51,3.19-2.51c2.1,0,3.12,0.88,3.12,3.14v3.44c0,0.67,0.14,0.94,0.77,0.96
			v1.17h-0.18c-1.34,0-1.79-0.48-1.94-1.49h-0.03c-0.45,0.99-1.46,1.57-2.71,1.57c-1.68,0-2.67-0.91-2.67-2.42
			c0-0.93,0.4-1.7,1.26-2.13c0.88-0.46,2.19-0.62,4.08-0.69v-0.37c0-1.52-0.58-2.11-1.76-2.11c-1.25,0-1.71,0.72-1.76,1.44H24.28z
			 M29.18,16.32v-0.19c-1.82,0.08-2.86,0.22-3.41,0.62c-0.32,0.24-0.46,0.59-0.46,1.04c0,0.86,0.56,1.33,1.47,1.33
			C27.85,19.12,29.18,18.4,29.18,16.32z"/>
		<path class="st22" d="M38.65,14.25c-0.1-0.86-0.7-1.65-1.92-1.65c-1.52,0-2.32,1.33-2.32,3.3c0,1.95,0.59,3.31,2.29,3.31
			c1.6,0,2.02-1.18,2.07-1.82h1.34c-0.21,1.95-1.6,2.95-3.42,2.95c-2.43,0-3.75-1.7-3.75-4.37c0-2.58,1.41-4.47,3.78-4.47
			c1.68,0,3.2,0.77,3.34,2.75C40.06,14.25,38.65,14.25,38.65,14.25z"/>
		<path class="st22" d="M45.56,20.35c-2.58,0-3.81-1.87-3.81-4.39c0-2.5,1.34-4.47,3.76-4.47c2.53,0,3.52,1.95,3.52,4.08v0.74h-5.81
			c0.1,1.74,0.8,2.93,2.39,2.93c1.41,0,1.78-0.82,1.92-1.31h1.39C48.62,19.39,47.37,20.35,45.56,20.35z M47.56,15.09
			c-0.03-1.41-0.59-2.5-2.06-2.5c-1.34,0-2.08,1.06-2.26,2.59h4.32V15.09z"/>
		<path class="st22" d="M55.08,11.71h1.44l1.76,5.28c0.27,0.8,0.42,1.31,0.42,1.31h0.05c0,0,0.14-0.51,0.42-1.33l1.73-5.27h1.44
			l-3.07,8.96c-0.67,1.94-1.23,2.66-3.06,2.66c-0.32,0-0.64-0.05-0.86-0.1v-1.18c0.27,0.06,0.59,0.08,0.74,0.08
			c1.07,0,1.42-0.4,1.79-1.54l0.16-0.45L55.08,11.71z"/>
		<path class="st22" d="M63.63,15.92c0-2.61,1.44-4.42,3.79-4.42c2.51,0,3.76,1.81,3.76,4.42c0,2.64-1.42,4.43-3.79,4.43
			C64.91,20.35,63.63,18.56,63.63,15.92z M65.11,15.92c0,2.06,0.69,3.31,2.32,3.31c1.57,0,2.26-1.25,2.26-3.31
			c0-2.05-0.67-3.31-2.29-3.31C65.87,12.6,65.11,13.87,65.11,15.92z"/>
		<path class="st22" d="M75,16.89c0,0.61,0,1.31,0.3,1.71c0.29,0.38,0.74,0.56,1.3,0.56c1.57,0,2.3-1.04,2.3-2.9V11.7h1.44v8.44
			h-1.38V18.7h-0.03c-0.38,0.86-1.31,1.65-2.66,1.65c-1.62,0-2.71-0.78-2.71-2.77v-5.87H75V16.89z"/>
		<path class="st22" d="M83.5,11.71h1.36v1.58h0.03c0.38-0.88,1.44-1.75,2.67-1.75h0.14v1.5h-0.27c-1.5,0-2.5,0.86-2.5,2.5v4.59
			H83.5V11.71z"/>
		<path class="st22" d="M94.42,7.53h1.44v12.61h-1.44V7.53z"/>
		<path class="st22" d="M98.26,15.92c0-2.61,1.44-4.42,3.79-4.42c2.51,0,3.76,1.81,3.76,4.42c0,2.64-1.42,4.43-3.79,4.43
			C99.55,20.35,98.26,18.56,98.26,15.92z M99.75,15.92c0,2.06,0.69,3.31,2.32,3.31c1.57,0,2.26-1.25,2.26-3.31
			c0-2.05-0.67-3.31-2.29-3.31C100.5,12.6,99.75,13.87,99.75,15.92z"/>
		<path class="st22" d="M107.86,20.99h1.39c0.16,0.72,0.71,1.18,2.08,1.18c1.6,0,2.4-0.59,2.4-2.45v-1.25h-0.02
			c-0.43,0.83-1.42,1.55-2.69,1.55c-1.76,0-3.38-1.1-3.38-4.23c0-2.79,1.47-4.31,3.55-4.31c1.36,0,2.18,0.75,2.53,1.54h0.03v-1.33
			h1.38v8.23c0,2.37-1.55,3.39-3.84,3.39C109.7,23.33,108.06,22.74,107.86,20.99z M113.77,15.47c0-1.68-0.94-2.83-2.4-2.83
			c-1.52,0-2.24,1.26-2.24,3.17c0,1.86,0.53,3.14,2.31,3.14c1.36,0,2.34-1.18,2.34-2.63L113.77,15.47L113.77,15.47z"/>
		<path class="st22" d="M117.56,15.92c0-2.61,1.44-4.42,3.79-4.42c2.51,0,3.76,1.81,3.76,4.42c0,2.64-1.42,4.43-3.79,4.43
			C118.84,20.35,117.56,18.56,117.56,15.92z M119.05,15.92c0,2.06,0.69,3.31,2.32,3.31c1.57,0,2.26-1.25,2.26-3.31
			c0-2.05-0.67-3.31-2.29-3.31C119.8,12.6,119.05,13.87,119.05,15.92z"/>
		<path class="st22" d="M130.98,11.71h1.47l1.63,5.68c0.14,0.53,0.27,1.07,0.27,1.07h0.03c0,0,0.16-0.56,0.32-1.06l1.79-5.7h1.47
			l1.78,5.7c0.16,0.5,0.3,1.06,0.3,1.06h0.03c0,0,0.13-0.56,0.27-1.06l1.67-5.7h1.39l-2.61,8.44h-1.52l-1.54-4.96
			c-0.24-0.78-0.53-1.79-0.53-1.79h-0.02c0,0-0.29,1.02-0.53,1.79l-1.55,4.96h-1.52L130.98,11.71z"/>
		<path class="st22" d="M145.48,8.23H147v1.55h-1.52V8.23z M145.51,11.71h1.46v8.44h-1.46V11.71z"/>
		<path class="st22" d="M151.91,9.26v2.45h2.08v1.1h-2.08v4.98c0,0.9,0.37,1.25,1.28,1.25c0.43,0,0.93-0.08,0.93-0.08v1.22
			c0,0-0.59,0.1-1.33,0.1c-1.65,0-2.31-0.8-2.31-2.24v-5.22h-1.54v-1.06h0.26c1.14,0,1.39-0.27,1.39-1.89V9.26H151.91z"/>
		<path class="st22" d="M161.47,14.93c0-0.61,0-1.26-0.3-1.66c-0.29-0.4-0.77-0.56-1.33-0.56c-1.57,0-2.29,1.01-2.29,2.38v5.06
			h-1.44V7.53h1.44v5.57h0.03c0.37-0.82,1.26-1.6,2.64-1.6c1.62,0,2.69,0.77,2.69,2.77v5.87h-1.44V14.93z"/>
		<path class="st22" d="M165.96,8.23h1.52v1.55h-1.52V8.23z M165.99,11.71h1.46v8.44h-1.46V11.71z"/>
		<path class="st22" d="M175.98,14.94c0-0.61,0-1.28-0.3-1.68c-0.29-0.4-0.77-0.56-1.33-0.56c-1.57,0-2.29,1.01-2.29,2.38v5.06
			h-1.44V11.7h1.36v1.42h0.03c0.4-0.86,1.38-1.63,2.72-1.63c1.62,0,2.69,0.77,2.69,2.77v5.87h-1.44V14.94z"/>
		<path class="st22" d="M186.79,9.26v2.45h2.08v1.1h-2.08v4.98c0,0.9,0.37,1.25,1.28,1.25c0.43,0,0.93-0.08,0.93-0.08v1.22
			c0,0-0.59,0.1-1.33,0.1c-1.65,0-2.31-0.8-2.31-2.24v-5.22h-1.54v-1.06h0.26c1.14,0,1.39-0.27,1.39-1.89V9.26H186.79z"/>
		<path class="st22" d="M196.34,14.93c0-0.61,0-1.26-0.3-1.66c-0.29-0.4-0.77-0.56-1.33-0.56c-1.57,0-2.29,1.01-2.29,2.38v5.06
			h-1.44V7.53h1.44v5.57h0.03c0.37-0.82,1.26-1.6,2.64-1.6c1.62,0,2.69,0.77,2.69,2.77v5.87h-1.44V14.93z"/>
		<path class="st22" d="M203.93,20.35c-2.58,0-3.81-1.87-3.81-4.39c0-2.5,1.34-4.47,3.76-4.47c2.53,0,3.52,1.95,3.52,4.08v0.74
			h-5.81c0.1,1.74,0.8,2.93,2.38,2.93c1.41,0,1.78-0.82,1.92-1.31h1.39C206.98,19.39,205.74,20.35,203.93,20.35z M205.93,15.09
			c-0.03-1.41-0.59-2.5-2.06-2.5c-1.34,0-2.08,1.06-2.26,2.59h4.32L205.93,15.09L205.93,15.09z"/>
		<path class="st22" d="M219.3,14.25c-0.1-0.86-0.7-1.65-1.92-1.65c-1.52,0-2.32,1.33-2.32,3.3c0,1.95,0.59,3.31,2.29,3.31
			c1.6,0,2.02-1.18,2.07-1.82h1.34c-0.21,1.95-1.6,2.95-3.42,2.95c-2.43,0-3.75-1.7-3.75-4.37c0-2.58,1.41-4.47,3.78-4.47
			c1.68,0,3.2,0.77,3.34,2.75C220.71,14.25,219.3,14.25,219.3,14.25z"/>
		<path class="st22" d="M223.08,11.71h1.36v1.58h0.03c0.38-0.88,1.44-1.75,2.67-1.75h0.14v1.5h-0.27c-1.5,0-2.5,0.86-2.5,2.5v4.59
			h-1.44v-8.42C223.07,11.71,223.08,11.71,223.08,11.71z"/>
		<path class="st22" d="M228.58,15.92c0-2.61,1.44-4.42,3.79-4.42c2.51,0,3.76,1.81,3.76,4.42c0,2.64-1.42,4.43-3.79,4.43
			C229.86,20.35,228.58,18.56,228.58,15.92z M230.07,15.92c0,2.06,0.69,3.31,2.32,3.31c1.57,0,2.26-1.25,2.26-3.31
			c0-2.05-0.67-3.31-2.29-3.31C230.82,12.6,230.07,13.87,230.07,15.92z"/>
		<path class="st22" d="M238.57,11.71h1.39v1.41h0.03c0.5-0.9,1.41-1.62,2.69-1.62c1.79,0,3.39,1.1,3.39,4.31
			c0,3.07-1.58,4.55-3.49,4.55c-1.23,0-2.23-0.69-2.54-1.44h-0.03v4.24h-1.44V11.71z M242.38,19.22c1.5,0,2.24-1.2,2.24-3.41
			c0-1.79-0.53-3.15-2.26-3.15c-1.49,0-2.4,1.26-2.4,2.69v0.9C239.96,17.9,240.77,19.22,242.38,19.22z"/>
		<path class="st22" d="M248.5,11.71h1.39v1.41h0.03c0.5-0.9,1.41-1.62,2.69-1.62c1.79,0,3.39,1.1,3.39,4.31
			c0,3.07-1.58,4.55-3.49,4.55c-1.23,0-2.23-0.69-2.54-1.44h-0.03v4.24h-1.44V11.71z M252.31,19.22c1.5,0,2.24-1.2,2.24-3.41
			c0-1.79-0.53-3.15-2.26-3.15c-1.49,0-2.4,1.26-2.4,2.69v0.9C249.89,17.9,250.71,19.22,252.31,19.22z"/>
		<path class="st22" d="M258.41,8.23h1.52v1.55h-1.52V8.23z M258.44,11.71h1.46v8.44h-1.46V11.71z"/>
		<path class="st22" d="M268.42,14.94c0-0.61,0-1.28-0.3-1.68c-0.29-0.4-0.77-0.56-1.33-0.56c-1.57,0-2.29,1.01-2.29,2.38v5.06
			h-1.44V11.7h1.36v1.42h0.03c0.4-0.86,1.38-1.63,2.72-1.63c1.62,0,2.69,0.77,2.69,2.77v5.87h-1.44V14.94z"/>
		<path class="st22" d="M272.4,20.99h1.39c0.16,0.72,0.71,1.18,2.08,1.18c1.6,0,2.4-0.59,2.4-2.45v-1.25h-0.02
			c-0.43,0.83-1.42,1.55-2.69,1.55c-1.76,0-3.38-1.1-3.38-4.23c0-2.79,1.47-4.31,3.55-4.31c1.36,0,2.18,0.75,2.53,1.54h0.03v-1.33
			h1.38v8.23c0,2.37-1.55,3.39-3.84,3.39C274.25,23.33,272.6,22.74,272.4,20.99z M278.31,15.47c0-1.68-0.94-2.83-2.4-2.83
			c-1.52,0-2.24,1.26-2.24,3.17c0,1.86,0.53,3.14,2.31,3.14c1.36,0,2.34-1.18,2.34-2.63v-0.85
			C278.32,15.47,278.31,15.47,278.31,15.47z"/>
		<path class="st22" d="M286.82,20.99h1.39c0.16,0.72,0.71,1.18,2.08,1.18c1.6,0,2.4-0.59,2.4-2.45v-1.25h-0.02
			c-0.43,0.83-1.42,1.55-2.69,1.55c-1.76,0-3.38-1.1-3.38-4.23c0-2.79,1.47-4.31,3.55-4.31c1.36,0,2.18,0.75,2.53,1.54h0.03v-1.33
			h1.38v8.23c0,2.37-1.55,3.39-3.84,3.39C288.66,23.33,287.01,22.74,286.82,20.99z M292.73,15.47c0-1.68-0.94-2.83-2.4-2.83
			c-1.52,0-2.24,1.26-2.24,3.17c0,1.86,0.53,3.14,2.31,3.14c1.36,0,2.34-1.18,2.34-2.63v-0.85
			C292.74,15.47,292.73,15.47,292.73,15.47z"/>
		<path class="st22" d="M298.58,16.89c0,0.61,0,1.31,0.3,1.71c0.29,0.38,0.74,0.56,1.3,0.56c1.57,0,2.3-1.04,2.3-2.9V11.7h1.44v8.44
			h-1.38V18.7h-0.03c-0.38,0.86-1.31,1.65-2.66,1.65c-1.62,0-2.71-0.78-2.71-2.77v-5.87h1.42v5.18H298.58z"/>
		<path class="st22" d="M307.04,8.23h1.52v1.55h-1.52V8.23z M307.08,11.71h1.46v8.44h-1.46V11.71z"/>
		<path class="st22" d="M318.47,20.14h-1.38v-1.39h-0.05c-0.45,0.83-1.36,1.6-2.66,1.6c-1.79,0-3.44-1.12-3.44-4.37
			c0-2.9,1.5-4.48,3.63-4.48c1.26,0,2.08,0.7,2.42,1.49h0.03V7.53h1.44L318.47,20.14L318.47,20.14z M317.06,15.6
			c0-1.79-0.94-2.95-2.29-2.95c-1.62,0-2.35,1.28-2.35,3.27c0,1.9,0.56,3.3,2.24,3.3c1.49,0,2.4-1.18,2.4-2.72L317.06,15.6
			L317.06,15.6z"/>
		<path class="st22" d="M324.69,20.35c-2.58,0-3.81-1.87-3.81-4.39c0-2.5,1.34-4.47,3.76-4.47c2.53,0,3.52,1.95,3.52,4.08v0.74
			h-5.81c0.1,1.74,0.8,2.93,2.38,2.93c1.41,0,1.78-0.82,1.92-1.31h1.39C327.75,19.39,326.5,20.35,324.69,20.35z M326.69,15.09
			c-0.03-1.41-0.59-2.5-2.06-2.5c-1.34,0-2.08,1.06-2.26,2.59h4.32V15.09z"/>
		<path class="st22" d="M334.76,13.82c-0.08-0.75-0.69-1.23-1.68-1.23s-1.65,0.58-1.65,1.36c0,0.69,0.42,1.01,1.26,1.15l1.3,0.19
			c1.76,0.27,2.4,0.99,2.4,2.45c0,1.7-1.38,2.61-3.3,2.61c-1.75,0-3.19-0.78-3.3-2.59h1.41c0.06,0.66,0.43,1.49,1.92,1.49
			c1.15,0,1.87-0.54,1.87-1.42c0-0.67-0.18-1.04-1.33-1.23l-1.3-0.19c-1.5-0.24-2.3-0.86-2.3-2.34c0-1.49,1.14-2.56,3.06-2.56
			c1.83,0,2.87,0.85,3.01,2.32h-1.37L334.76,13.82L334.76,13.82z"/>
		<path class="st22" d="M338.31,18.19h1.95v1.95h-1.95V18.19z"/>
		<path class="st22" d="M-1.64,44.25h4.45v1.3h-4.45C-1.64,45.55-1.64,44.25-1.64,44.25z"/>
		<path class="st22" d="M15,37.72c2.98,0,5.52,1.95,5.52,6.34c0,4.37-2.53,6.34-5.52,6.34c-3.01,0-5.47-1.97-5.47-6.34
			C9.53,39.68,12.09,37.72,15,37.72z M18.96,44.08c0-3.36-1.6-5.17-3.95-5.17c-2.29,0-3.91,1.71-3.91,5.17
			c0,3.35,1.57,5.12,3.91,5.12C17.31,49.2,18.96,47.37,18.96,44.08z"/>
		<path class="st22" d="M24.67,46.89c0,0.61,0,1.31,0.3,1.71c0.29,0.38,0.74,0.56,1.3,0.56c1.57,0,2.3-1.04,2.3-2.9V41.7h1.44v8.44
			h-1.38V48.7H28.6c-0.38,0.86-1.31,1.65-2.66,1.65c-1.62,0-2.71-0.78-2.71-2.77V41.7h1.42v5.19H24.67z"/>
		<path class="st22" d="M34.94,39.26v2.45h2.08v1.1h-2.08v4.98c0,0.9,0.37,1.25,1.28,1.25c0.43,0,0.93-0.08,0.93-0.08v1.22
			c0,0-0.59,0.1-1.33,0.1c-1.65,0-2.31-0.8-2.31-2.24v-5.22h-1.54v-1.06h0.26c1.14,0,1.39-0.27,1.39-1.89v-0.61
			C33.62,39.26,34.94,39.26,34.94,39.26z"/>
		<path class="st22" d="M39.13,37.53h1.44v12.61h-1.44V37.53z"/>
		<path class="st22" d="M43.69,38.23h1.52v1.55h-1.52V38.23z M43.72,41.71h1.46v8.44h-1.46V41.71z"/>
		<path class="st22" d="M53.71,44.94c0-0.61,0-1.28-0.3-1.68c-0.29-0.4-0.77-0.56-1.33-0.56c-1.57,0-2.29,1.01-2.29,2.39v5.06h-1.44
			v-8.44h1.36v1.42h0.03c0.4-0.86,1.38-1.63,2.72-1.63c1.62,0,2.69,0.77,2.69,2.77v5.87h-1.44V44.94z"/>
		<path class="st22" d="M61.29,50.35c-2.58,0-3.81-1.87-3.81-4.39c0-2.5,1.34-4.47,3.76-4.47c2.53,0,3.52,1.95,3.52,4.08v0.74h-5.81
			c0.1,1.74,0.8,2.93,2.39,2.93c1.41,0,1.78-0.82,1.92-1.31h1.39C64.35,49.39,63.1,50.35,61.29,50.35z M63.29,45.09
			c-0.03-1.41-0.59-2.5-2.06-2.5c-1.34,0-2.08,1.06-2.26,2.59h4.32V45.09z"/>
		<path class="st22" d="M71.38,44.01c0.03-1.49,1.17-2.51,3.19-2.51c2.1,0,3.12,0.88,3.12,3.14v3.44c0,0.67,0.14,0.94,0.77,0.96
			v1.17h-0.18c-1.34,0-1.79-0.48-1.94-1.49h-0.03c-0.45,0.99-1.46,1.57-2.71,1.57c-1.68,0-2.67-0.91-2.67-2.42
			c0-0.93,0.4-1.7,1.26-2.13c0.88-0.46,2.19-0.63,4.08-0.69v-0.37c0-1.52-0.58-2.11-1.76-2.11c-1.25,0-1.71,0.72-1.76,1.44
			C72.75,44.01,71.38,44.01,71.38,44.01z M76.28,46.32v-0.19c-1.82,0.08-2.86,0.22-3.41,0.62c-0.32,0.24-0.46,0.59-0.46,1.04
			c0,0.86,0.56,1.33,1.47,1.33C74.95,49.12,76.28,48.4,76.28,46.32z"/>
		<path class="st22" d="M80.71,37.53h1.44v12.61h-1.44V37.53z"/>
		<path class="st22" d="M85.31,37.53h1.44v12.61h-1.44V37.53z"/>
		<path class="st22" d="M96.19,50.14h-1.44v-7.33h-1.54v-1.1h1.54v-1.89c0-1.73,0.99-2.34,2.56-2.34c0.32,0,0.64,0.03,0.9,0.08v1.18
			c-0.16-0.03-0.42-0.06-0.78-0.06c-0.83,0-1.23,0.3-1.23,1.31v1.71h2.02v1.1H96.2L96.19,50.14L96.19,50.14z"/>
		<path class="st22" d="M99.38,45.92c0-2.61,1.44-4.42,3.79-4.42c2.51,0,3.76,1.81,3.76,4.42c0,2.64-1.42,4.43-3.79,4.43
			C100.67,50.35,99.38,48.56,99.38,45.92z M100.87,45.92c0,2.06,0.69,3.31,2.32,3.31c1.57,0,2.26-1.25,2.26-3.31
			c0-2.05-0.67-3.31-2.29-3.31C101.63,42.6,100.87,43.87,100.87,45.92z"/>
		<path class="st22" d="M114.73,44.94c0-0.61,0-1.28-0.3-1.68c-0.29-0.4-0.77-0.56-1.33-0.56c-1.57,0-2.29,1.01-2.29,2.39v5.06
			h-1.44v-8.44h1.36v1.42h0.03c0.4-0.86,1.38-1.63,2.72-1.63c1.62,0,2.69,0.77,2.69,2.77v5.87h-1.44
			C114.73,50.14,114.73,44.94,114.73,44.94z"/>
		<path class="st22" d="M121.03,39.26v2.45h2.08v1.1h-2.08v4.98c0,0.9,0.37,1.25,1.28,1.25c0.43,0,0.93-0.08,0.93-0.08v1.22
			c0,0-0.59,0.1-1.33,0.1c-1.65,0-2.31-0.8-2.31-2.24v-5.22h-1.54v-1.06h0.26c1.14,0,1.39-0.27,1.39-1.89v-0.61
			C119.71,39.26,121.03,39.26,121.03,39.26z"/>
		<path class="st22" d="M129.46,43.82c-0.08-0.75-0.69-1.23-1.68-1.23s-1.65,0.58-1.65,1.36c0,0.69,0.42,1.01,1.26,1.15l1.3,0.19
			c1.76,0.27,2.4,0.99,2.4,2.45c0,1.7-1.38,2.61-3.3,2.61c-1.75,0-3.19-0.78-3.3-2.59h1.41c0.06,0.66,0.43,1.49,1.92,1.49
			c1.15,0,1.87-0.54,1.87-1.42c0-0.67-0.18-1.04-1.33-1.23l-1.3-0.19c-1.5-0.24-2.3-0.86-2.3-2.34c0-1.49,1.14-2.56,3.06-2.56
			c1.83,0,2.87,0.85,3.01,2.32h-1.37L129.46,43.82L129.46,43.82z"/>
		<path class="st22" d="M139.42,46.89c0,0.61,0,1.31,0.3,1.71c0.29,0.38,0.74,0.56,1.3,0.56c1.57,0,2.3-1.04,2.3-2.9V41.7h1.44v8.44
			h-1.38V48.7h-0.03c-0.38,0.86-1.31,1.65-2.66,1.65c-1.62,0-2.71-0.78-2.71-2.77V41.7h1.42v5.19H139.42z"/>
		<path class="st22" d="M152.07,43.82c-0.08-0.75-0.69-1.23-1.68-1.23s-1.65,0.58-1.65,1.36c0,0.69,0.42,1.01,1.26,1.15l1.3,0.19
			c1.76,0.27,2.4,0.99,2.4,2.45c0,1.7-1.38,2.61-3.3,2.61c-1.75,0-3.19-0.78-3.3-2.59h1.41c0.06,0.66,0.43,1.49,1.92,1.49
			c1.15,0,1.87-0.54,1.87-1.42c0-0.67-0.18-1.04-1.33-1.23l-1.3-0.19c-1.5-0.24-2.3-0.86-2.3-2.34c0-1.49,1.14-2.56,3.06-2.56
			c1.83,0,2.87,0.85,3.01,2.32h-1.37L152.07,43.82L152.07,43.82z"/>
		<path class="st22" d="M159.26,50.35c-2.58,0-3.81-1.87-3.81-4.39c0-2.5,1.34-4.47,3.76-4.47c2.53,0,3.52,1.95,3.52,4.08v0.74
			h-5.81c0.1,1.74,0.8,2.93,2.39,2.93c1.41,0,1.78-0.82,1.92-1.31h1.39C162.31,49.39,161.06,50.35,159.26,50.35z M161.26,45.09
			c-0.03-1.41-0.59-2.5-2.06-2.5c-1.34,0-2.08,1.06-2.26,2.59h4.32L161.26,45.09L161.26,45.09z"/>
		<path class="st22" d="M172.01,50.14h-1.38v-1.39h-0.05c-0.45,0.83-1.36,1.6-2.66,1.6c-1.79,0-3.44-1.12-3.44-4.37
			c0-2.9,1.5-4.48,3.63-4.48c1.26,0,2.08,0.7,2.42,1.49h0.03v-5.46H172L172.01,50.14C172,50.14,172.01,50.14,172.01,50.14z
			 M170.6,45.6c0-1.79-0.94-2.95-2.29-2.95c-1.62,0-2.35,1.28-2.35,3.27c0,1.9,0.56,3.3,2.24,3.3c1.49,0,2.4-1.18,2.4-2.72V45.6z"/>
		<path class="st22" d="M179.65,38.23h1.52v1.55h-1.52V38.23z M179.69,41.71h1.46v8.44h-1.46V41.71z"/>
		<path class="st22" d="M189.67,44.94c0-0.61,0-1.28-0.3-1.68c-0.29-0.4-0.77-0.56-1.33-0.56c-1.57,0-2.29,1.01-2.29,2.39v5.06
			h-1.44v-8.44h1.36v1.42h0.03c0.4-0.86,1.38-1.63,2.72-1.63c1.62,0,2.69,0.77,2.69,2.77v5.87h-1.44V44.94z"/>
		<path class="st22" d="M197.81,41.71h1.44l1.76,5.28c0.27,0.8,0.42,1.31,0.42,1.31h0.05c0,0,0.14-0.51,0.42-1.33l1.73-5.27h1.44
			L202,50.66c-0.67,1.94-1.23,2.66-3.06,2.66c-0.32,0-0.64-0.05-0.86-0.1v-1.18c0.27,0.06,0.59,0.08,0.74,0.08
			c1.07,0,1.42-0.4,1.79-1.54l0.16-0.45L197.81,41.71z"/>
		<path class="st22" d="M206.36,45.92c0-2.61,1.44-4.42,3.79-4.42c2.51,0,3.76,1.81,3.76,4.42c0,2.64-1.42,4.43-3.79,4.43
			C207.64,50.35,206.36,48.56,206.36,45.92z M207.85,45.92c0,2.06,0.69,3.31,2.32,3.31c1.57,0,2.26-1.25,2.26-3.31
			c0-2.05-0.67-3.31-2.29-3.31C208.6,42.6,207.85,43.87,207.85,45.92z"/>
		<path class="st22" d="M217.73,46.89c0,0.61,0,1.31,0.3,1.71c0.29,0.38,0.74,0.56,1.3,0.56c1.57,0,2.3-1.04,2.3-2.9V41.7h1.44v8.44
			h-1.38V48.7h-0.03c-0.38,0.86-1.31,1.65-2.66,1.65c-1.62,0-2.71-0.78-2.71-2.77V41.7h1.42v5.19H217.73z"/>
		<path class="st22" d="M226.23,41.71h1.36v1.58h0.03c0.38-0.88,1.44-1.75,2.67-1.75h0.14v1.5h-0.27c-1.5,0-2.5,0.86-2.5,2.5v4.59
			h-1.44v-8.42H226.23z"/>
		<path class="st22" d="M243.93,50.14h-1.38v-1.39h-0.05c-0.45,0.83-1.36,1.6-2.66,1.6c-1.79,0-3.44-1.12-3.44-4.37
			c0-2.9,1.5-4.48,3.63-4.48c1.26,0,2.08,0.7,2.42,1.49h0.03v-5.46h1.44v12.61C243.92,50.14,243.93,50.14,243.93,50.14z
			 M242.52,45.6c0-1.79-0.94-2.95-2.29-2.95c-1.62,0-2.35,1.28-2.35,3.27c0,1.9,0.56,3.3,2.24,3.3c1.49,0,2.4-1.18,2.4-2.72V45.6z"
			/>
		<path class="st22" d="M250.15,50.35c-2.58,0-3.81-1.87-3.81-4.39c0-2.5,1.34-4.47,3.76-4.47c2.53,0,3.52,1.95,3.52,4.08v0.74
			h-5.81c0.1,1.74,0.8,2.93,2.38,2.93c1.41,0,1.78-0.82,1.92-1.31h1.39C253.21,49.39,251.96,50.35,250.15,50.35z M252.15,45.09
			c-0.03-1.41-0.59-2.5-2.06-2.5c-1.34,0-2.08,1.06-2.26,2.59h4.32L252.15,45.09L252.15,45.09z"/>
		<path class="st22" d="M260.21,43.82c-0.08-0.75-0.69-1.23-1.68-1.23s-1.65,0.58-1.65,1.36c0,0.69,0.42,1.01,1.26,1.15l1.3,0.19
			c1.76,0.27,2.4,0.99,2.4,2.45c0,1.7-1.38,2.61-3.3,2.61c-1.75,0-3.19-0.78-3.3-2.59h1.41c0.06,0.66,0.43,1.49,1.92,1.49
			c1.15,0,1.87-0.54,1.87-1.42c0-0.67-0.18-1.04-1.33-1.23l-1.3-0.19c-1.5-0.24-2.3-0.86-2.3-2.34c0-1.49,1.14-2.56,3.06-2.56
			c1.83,0,2.87,0.85,3.01,2.32h-1.37L260.21,43.82L260.21,43.82z"/>
		<path class="st22" d="M264.31,38.23h1.52v1.55h-1.52V38.23z M264.34,41.71h1.46v8.44h-1.46V41.71z"/>
		<path class="st22" d="M268.42,50.99h1.39c0.16,0.72,0.71,1.18,2.08,1.18c1.6,0,2.4-0.59,2.4-2.45v-1.25h-0.02
			c-0.43,0.83-1.42,1.55-2.69,1.55c-1.76,0-3.38-1.1-3.38-4.23c0-2.79,1.47-4.31,3.55-4.31c1.36,0,2.18,0.75,2.53,1.54h0.03v-1.33
			h1.38v8.23c0,2.37-1.55,3.39-3.84,3.39C270.26,53.33,268.61,52.74,268.42,50.99z M274.33,45.47c0-1.68-0.94-2.83-2.4-2.83
			c-1.52,0-2.24,1.26-2.24,3.17c0,1.86,0.53,3.14,2.31,3.14c1.36,0,2.34-1.18,2.34-2.63v-0.85
			C274.34,45.47,274.33,45.47,274.33,45.47z"/>
		<path class="st22" d="M284.23,44.94c0-0.61,0-1.28-0.3-1.68c-0.29-0.4-0.77-0.56-1.33-0.56c-1.57,0-2.29,1.01-2.29,2.39v5.06
			h-1.44v-8.44h1.36v1.42h0.03c0.4-0.86,1.38-1.63,2.72-1.63c1.62,0,2.69,0.77,2.69,2.77v5.87h-1.44V44.94z"/>
		<path class="st22" d="M288.18,48.19h1.95v1.95h-1.95V48.19z"/>
		<path class="st22" d="M-1.64,74.25h4.45v1.3h-4.45C-1.64,75.55-1.64,74.25-1.64,74.25z"/>
		<path class="st22" d="M10.11,67.9h7.83v1.33H11.6v4.08h5.83v1.3H11.6v4.21h6.42v1.33h-7.91C10.11,80.15,10.11,67.9,10.11,67.9z"/>
		<path class="st22" d="M22.62,75.79l-2.67-4.08h1.7l1.84,2.95h0.03l1.89-2.95h1.57l-2.66,4l2.93,4.43h-1.71l-2.1-3.3h-0.05
			l-2.08,3.3h-1.57L22.62,75.79z"/>
		<path class="st22" d="M29.13,71.71h1.39v1.41h0.03c0.5-0.9,1.41-1.62,2.69-1.62c1.79,0,3.39,1.1,3.39,4.31
			c0,3.07-1.58,4.55-3.49,4.55c-1.23,0-2.23-0.69-2.54-1.44h-0.03v4.24h-1.44C29.13,83.16,29.13,71.71,29.13,71.71z M32.94,79.21
			c1.5,0,2.24-1.2,2.24-3.41c0-1.79-0.53-3.15-2.26-3.15c-1.49,0-2.4,1.26-2.4,2.69v0.9C30.52,77.9,31.34,79.21,32.94,79.21z"/>
		<path class="st22" d="M38.47,75.92c0-2.61,1.44-4.42,3.79-4.42c2.51,0,3.76,1.81,3.76,4.42c0,2.64-1.42,4.43-3.79,4.43
			C39.75,80.35,38.47,78.56,38.47,75.92z M39.96,75.92c0,2.06,0.69,3.31,2.32,3.31c1.57,0,2.26-1.25,2.26-3.31
			c0-2.05-0.67-3.31-2.29-3.31C40.71,72.6,39.96,73.87,39.96,75.92z"/>
		<path class="st22" d="M48.46,71.71h1.36v1.58h0.03c0.38-0.88,1.44-1.75,2.67-1.75h0.14v1.5H52.4c-1.5,0-2.5,0.86-2.5,2.5v4.59
			h-1.44C48.46,80.13,48.46,71.71,48.46,71.71z"/>
		<path class="st22" d="M56.89,69.26v2.45h2.08v1.1h-2.08v4.98c0,0.9,0.37,1.25,1.28,1.25c0.43,0,0.93-0.08,0.93-0.08v1.22
			c0,0-0.59,0.1-1.33,0.1c-1.65,0-2.31-0.8-2.31-2.24v-5.22h-1.54v-1.06h0.26c1.14,0,1.39-0.27,1.39-1.89v-0.61H56.89z"/>
		<path class="st22" d="M65.27,74.01c0.03-1.49,1.17-2.51,3.19-2.51c2.1,0,3.12,0.88,3.12,3.14v3.44c0,0.67,0.14,0.94,0.77,0.96
			v1.17h-0.18c-1.34,0-1.79-0.48-1.94-1.49H70.2c-0.45,0.99-1.46,1.57-2.71,1.57c-1.68,0-2.67-0.91-2.67-2.42
			c0-0.93,0.4-1.7,1.26-2.13c0.88-0.46,2.19-0.63,4.08-0.69v-0.37c0-1.52-0.58-2.11-1.76-2.11c-1.25,0-1.71,0.72-1.76,1.44H65.27z
			 M70.17,76.32v-0.19c-1.82,0.08-2.86,0.22-3.41,0.62c-0.32,0.24-0.46,0.59-0.46,1.04c0,0.86,0.56,1.33,1.47,1.33
			C68.84,79.12,70.17,78.4,70.17,76.32z"/>
		<path class="st22" d="M79.96,74.94c0-0.61,0-1.28-0.3-1.68c-0.29-0.4-0.77-0.56-1.33-0.56c-1.57,0-2.29,1.01-2.29,2.39v5.06H74.6
			v-8.44h1.36v1.42h0.03c0.4-0.86,1.38-1.63,2.72-1.63c1.62,0,2.69,0.77,2.69,2.77v5.87h-1.44V74.94z"/>
		<path class="st22" d="M91.26,80.14h-1.38v-1.39h-0.05c-0.45,0.83-1.36,1.6-2.66,1.6c-1.79,0-3.44-1.12-3.44-4.37
			c0-2.9,1.5-4.48,3.63-4.48c1.26,0,2.08,0.7,2.42,1.49h0.03v-5.46h1.44v12.61C91.25,80.14,91.26,80.14,91.26,80.14z M89.85,75.6
			c0-1.79-0.94-2.95-2.29-2.95c-1.62,0-2.35,1.28-2.35,3.27c0,1.9,0.56,3.3,2.24,3.3c1.49,0,2.4-1.18,2.4-2.72V75.6z"/>
		<path class="st22" d="M103.1,73.82c-0.08-0.75-0.69-1.23-1.68-1.23s-1.65,0.58-1.65,1.36c0,0.69,0.42,1.01,1.26,1.15l1.3,0.19
			c1.76,0.27,2.4,0.99,2.4,2.45c0,1.7-1.38,2.61-3.3,2.61c-1.75,0-3.19-0.78-3.3-2.59h1.41c0.06,0.66,0.43,1.49,1.92,1.49
			c1.15,0,1.87-0.54,1.87-1.42c0-0.67-0.18-1.04-1.33-1.23l-1.3-0.19c-1.5-0.24-2.3-0.86-2.3-2.34c0-1.49,1.14-2.56,3.06-2.56
			c1.83,0,2.87,0.85,3.01,2.32h-1.37C103.1,73.83,103.1,73.82,103.1,73.82z"/>
		<path class="st22" d="M108.46,76.89c0,0.61,0,1.31,0.3,1.71c0.29,0.38,0.74,0.56,1.3,0.56c1.57,0,2.3-1.04,2.3-2.9V71.7h1.44v8.44
			h-1.38V78.7h-0.03c-0.38,0.86-1.31,1.65-2.66,1.65c-1.62,0-2.71-0.78-2.71-2.77V71.7h1.42v5.19H108.46z"/>
		<path class="st22" d="M116.95,67.53h1.44v5.57h0.02c0.46-0.91,1.39-1.6,2.66-1.6c1.79,0,3.39,1.1,3.39,4.31
			c0,3.07-1.57,4.55-3.47,4.55c-1.33,0-2.21-0.74-2.64-1.55h-0.03v1.34h-1.36V67.53H116.95z M123,75.81c0-1.79-0.53-3.15-2.26-3.15
			c-1.52,0-2.4,1.26-2.4,2.69v0.9c0,1.66,0.82,2.98,2.42,2.98C122.27,79.21,123,78.01,123,75.81z"/>
		<path class="st22" d="M126.89,71.71h1.36v1.42h0.03c0.38-0.86,1.36-1.63,2.71-1.63c1.28,0,2.24,0.58,2.54,1.75h0.03
			c0.32-0.88,1.36-1.75,2.75-1.75c1.58,0,2.67,0.77,2.67,2.77v5.87h-1.44v-5.22c0-0.61,0-1.26-0.3-1.68
			c-0.29-0.4-0.75-0.54-1.31-0.54c-1.57,0-2.27,1.01-2.27,2.39v5.06h-1.44v-5.22c0-0.61,0-1.25-0.3-1.67
			c-0.29-0.4-0.75-0.56-1.31-0.56c-1.57,0-2.27,1.01-2.27,2.35v5.09h-1.44L126.89,71.71L126.89,71.71z"/>
		<path class="st22" d="M142.04,68.23h1.52v1.55h-1.52V68.23z M142.07,71.71h1.46v8.44h-1.46V71.71z"/>
		<path class="st22" d="M148.47,69.26v2.45h2.08v1.1h-2.08v4.98c0,0.9,0.37,1.25,1.28,1.25c0.43,0,0.93-0.08,0.93-0.08v1.22
			c0,0-0.59,0.1-1.33,0.1c-1.65,0-2.31-0.8-2.31-2.24v-5.22h-1.54v-1.06h0.26c1.14,0,1.39-0.27,1.39-1.89v-0.61H148.47z"/>
		<path class="st22" d="M157.18,67.53h1.44v12.61h-1.44V67.53z"/>
		<path class="st22" d="M161.01,75.92c0-2.61,1.44-4.42,3.79-4.42c2.51,0,3.76,1.81,3.76,4.42c0,2.64-1.42,4.43-3.79,4.43
			C162.3,80.35,161.01,78.56,161.01,75.92z M162.5,75.92c0,2.06,0.69,3.31,2.32,3.31c1.57,0,2.26-1.25,2.26-3.31
			c0-2.05-0.67-3.31-2.29-3.31C163.26,72.6,162.5,73.87,162.5,75.92z"/>
		<path class="st22" d="M170.61,80.99H172c0.16,0.72,0.71,1.18,2.08,1.18c1.6,0,2.4-0.59,2.4-2.45v-1.25h-0.02
			c-0.43,0.83-1.42,1.55-2.69,1.55c-1.76,0-3.38-1.1-3.38-4.23c0-2.79,1.47-4.31,3.55-4.31c1.36,0,2.18,0.75,2.53,1.54h0.03v-1.33
			h1.38v8.23c0,2.37-1.55,3.39-3.84,3.39C172.46,83.33,170.81,82.74,170.61,80.99z M176.52,75.47c0-1.68-0.94-2.83-2.4-2.83
			c-1.52,0-2.24,1.26-2.24,3.17c0,1.86,0.53,3.14,2.31,3.14c1.36,0,2.34-1.18,2.34-2.63L176.52,75.47L176.52,75.47z"/>
		<path class="st22" d="M180.31,75.92c0-2.61,1.44-4.42,3.79-4.42c2.51,0,3.76,1.81,3.76,4.42c0,2.64-1.42,4.43-3.79,4.43
			C181.59,80.35,180.31,78.56,180.31,75.92z M181.8,75.92c0,2.06,0.69,3.31,2.32,3.31c1.57,0,2.26-1.25,2.26-3.31
			c0-2.05-0.67-3.31-2.29-3.31C182.55,72.6,181.8,73.87,181.8,75.92z"/>
		<path class="st22" d="M194.54,73.82c-0.08-0.75-0.69-1.23-1.68-1.23s-1.65,0.58-1.65,1.36c0,0.69,0.42,1.01,1.26,1.15l1.3,0.19
			c1.76,0.27,2.4,0.99,2.4,2.45c0,1.7-1.38,2.61-3.3,2.61c-1.75,0-3.19-0.78-3.3-2.59h1.41c0.06,0.66,0.43,1.49,1.92,1.49
			c1.15,0,1.87-0.54,1.87-1.42c0-0.67-0.18-1.04-1.33-1.23l-1.3-0.19c-1.5-0.24-2.3-0.86-2.3-2.34c0-1.49,1.14-2.56,3.06-2.56
			c1.83,0,2.87,0.85,3.01,2.32h-1.37L194.54,73.82L194.54,73.82z"/>
		<path class="st22" d="M202.77,74.01c0.03-1.49,1.17-2.51,3.19-2.51c2.1,0,3.12,0.88,3.12,3.14v3.44c0,0.67,0.14,0.94,0.77,0.96
			v1.17h-0.18c-1.34,0-1.79-0.48-1.94-1.49h-0.03c-0.45,0.99-1.46,1.57-2.71,1.57c-1.68,0-2.67-0.91-2.67-2.42
			c0-0.93,0.4-1.7,1.26-2.13c0.88-0.46,2.19-0.63,4.08-0.69v-0.37c0-1.52-0.58-2.11-1.76-2.11c-1.25,0-1.71,0.72-1.76,1.44H202.77z
			 M207.67,76.32v-0.19c-1.82,0.08-2.86,0.22-3.41,0.62c-0.32,0.24-0.46,0.59-0.46,1.04c0,0.86,0.56,1.33,1.47,1.33
			C206.34,79.12,207.67,78.4,207.67,76.32z"/>
		<path class="st22" d="M213.88,69.26v2.45h2.08v1.1h-2.08v4.98c0,0.9,0.37,1.25,1.28,1.25c0.43,0,0.93-0.08,0.93-0.08v1.22
			c0,0-0.59,0.1-1.33,0.1c-1.65,0-2.31-0.8-2.31-2.24v-5.22h-1.54v-1.06h0.26c1.14,0,1.39-0.27,1.39-1.89v-0.61H213.88z"/>
		<path class="st22" d="M224.36,71.4h-2.37v-1.02h0.35c0.8,0,1.38-0.21,1.74-0.58c0.35-0.35,0.51-0.83,0.53-1.57h1.2v11.91h-1.46
			L224.36,71.4L224.36,71.4z"/>
		<path class="st22" d="M233.35,68.11c2.59,0,4.27,2.02,4.27,6.15c0,4.11-1.67,6.15-4.27,6.15c-2.63,0-4.24-2.03-4.24-6.15
			C229.11,70.12,230.79,68.11,233.35,68.11z M236.07,74.28c0-3.3-1.02-4.98-2.72-4.98c-1.66,0-2.69,1.6-2.69,4.98
			c0,3.28,0.99,4.93,2.69,4.93C235.02,79.21,236.07,77.5,236.07,74.28z"/>
		<path class="st22" d="M244.31,68.11c2.59,0,4.27,2.02,4.27,6.15c0,4.11-1.67,6.15-4.27,6.15c-2.63,0-4.24-2.03-4.24-6.15
			C240.07,70.12,241.75,68.11,244.31,68.11z M247.03,74.28c0-3.3-1.02-4.98-2.72-4.98c-1.66,0-2.69,1.6-2.69,4.98
			c0,3.28,0.99,4.93,2.69,4.93C245.98,79.21,247.03,77.5,247.03,74.28z"/>
		<path class="st22" d="M255.27,68.11c2.59,0,4.27,2.02,4.27,6.15c0,4.11-1.67,6.15-4.27,6.15c-2.63,0-4.24-2.03-4.24-6.15
			C251.03,70.12,252.71,68.11,255.27,68.11z M257.99,74.28c0-3.3-1.02-4.98-2.72-4.98c-1.66,0-2.69,1.6-2.69,4.98
			c0,3.28,0.99,4.93,2.69,4.93C256.94,79.21,257.99,77.5,257.99,74.28z"/>
		<path class="st22" d="M262.31,71.71h1.39v1.41h0.03c0.5-0.9,1.41-1.62,2.69-1.62c1.79,0,3.39,1.1,3.39,4.31
			c0,3.07-1.58,4.55-3.49,4.55c-1.23,0-2.23-0.69-2.54-1.44h-0.03v4.24h-1.44L262.31,71.71L262.31,71.71z M266.12,79.21
			c1.5,0,2.24-1.2,2.24-3.41c0-1.79-0.53-3.15-2.26-3.15c-1.49,0-2.4,1.26-2.4,2.69v0.9C263.7,77.9,264.52,79.21,266.12,79.21z"/>
		<path class="st22" d="M273.77,75.79l-2.67-4.08h1.7l1.84,2.95h0.03l1.89-2.95h1.57l-2.66,4l2.93,4.43h-1.71l-2.1-3.3h-0.05
			l-2.08,3.3h-1.57L273.77,75.79z"/>
		<path class="st22" d="M289.03,73.82c-0.08-0.75-0.69-1.23-1.68-1.23s-1.65,0.58-1.65,1.36c0,0.69,0.42,1.01,1.26,1.15l1.3,0.19
			c1.76,0.27,2.4,0.99,2.4,2.45c0,1.7-1.38,2.61-3.3,2.61c-1.75,0-3.19-0.78-3.3-2.59h1.41c0.06,0.66,0.43,1.49,1.92,1.49
			c1.15,0,1.87-0.54,1.87-1.42c0-0.67-0.18-1.04-1.33-1.23l-1.3-0.19c-1.5-0.24-2.3-0.86-2.3-2.34c0-1.49,1.14-2.56,3.06-2.56
			c1.83,0,2.87,0.85,3.01,2.32h-1.37L289.03,73.82L289.03,73.82z"/>
		<path class="st22" d="M299.93,83.15h-1.44v-4.29h-0.05c-0.4,0.75-1.3,1.49-2.59,1.49c-1.79,0-3.44-1.09-3.44-4.37
			c0-2.9,1.5-4.48,3.63-4.48c1.26,0,2.11,0.7,2.45,1.49h0.03v-1.28h1.41L299.93,83.15L299.93,83.15z M298.52,76.49v-0.9
			c0-1.79-0.94-2.95-2.29-2.95c-1.58,0-2.35,1.28-2.35,3.27c0,1.9,0.56,3.3,2.24,3.3C297.61,79.21,298.52,78.03,298.52,76.49z"/>
		<path class="st22" d="M304.41,76.89c0,0.61,0,1.31,0.3,1.71c0.29,0.38,0.74,0.56,1.3,0.56c1.57,0,2.3-1.04,2.3-2.9V71.7h1.44v8.44
			h-1.38V78.7h-0.03c-0.38,0.86-1.31,1.65-2.66,1.65c-1.62,0-2.71-0.78-2.71-2.77V71.7h1.42v5.19H304.41z"/>
		<path class="st22" d="M312.5,74.01c0.03-1.49,1.17-2.51,3.19-2.51c2.1,0,3.12,0.88,3.12,3.14v3.44c0,0.67,0.14,0.94,0.77,0.96
			v1.17h-0.18c-1.34,0-1.79-0.48-1.94-1.49h-0.03c-0.45,0.99-1.46,1.57-2.71,1.57c-1.68,0-2.67-0.91-2.67-2.42
			c0-0.93,0.4-1.7,1.26-2.13c0.88-0.46,2.19-0.63,4.08-0.69v-0.37c0-1.52-0.58-2.11-1.76-2.11c-1.25,0-1.71,0.72-1.76,1.44H312.5z
			 M317.4,76.32v-0.19c-1.82,0.08-2.86,0.22-3.41,0.62c-0.32,0.24-0.46,0.59-0.46,1.04c0,0.86,0.56,1.33,1.47,1.33
			C316.07,79.12,317.4,78.4,317.4,76.32z"/>
		<path class="st22" d="M321.83,71.71h1.36v1.58h0.03c0.38-0.88,1.44-1.75,2.67-1.75h0.14v1.5h-0.27c-1.5,0-2.5,0.86-2.5,2.5v4.59
			h-1.44L321.83,71.71L321.83,71.71z"/>
		<path class="st22" d="M331.14,80.35c-2.58,0-3.81-1.87-3.81-4.39c0-2.5,1.34-4.47,3.76-4.47c2.53,0,3.52,1.95,3.52,4.08v0.74
			h-5.81c0.1,1.74,0.8,2.93,2.38,2.93c1.41,0,1.78-0.82,1.92-1.31h1.39C334.2,79.39,332.95,80.35,331.14,80.35z M333.14,75.09
			c-0.03-1.41-0.59-2.5-2.06-2.5c-1.34,0-2.08,1.06-2.26,2.59h4.32V75.09z"/>
		<path class="st22" d="M343.33,69.26v2.45h2.08v1.1h-2.08v4.98c0,0.9,0.37,1.25,1.28,1.25c0.43,0,0.93-0.08,0.93-0.08v1.22
			c0,0-0.59,0.1-1.33,0.1c-1.65,0-2.31-0.8-2.31-2.24v-5.22h-1.54v-1.06h0.26c1.14,0,1.39-0.27,1.39-1.89v-0.61H343.33z"/>
		<path class="st22" d="M346.93,75.92c0-2.61,1.44-4.42,3.79-4.42c2.51,0,3.76,1.81,3.76,4.42c0,2.64-1.42,4.43-3.79,4.43
			C348.21,80.35,346.93,78.56,346.93,75.92z M348.42,75.92c0,2.06,0.69,3.31,2.32,3.31c1.57,0,2.26-1.25,2.26-3.31
			c0-2.05-0.67-3.31-2.29-3.31C349.17,72.6,348.42,73.87,348.42,75.92z"/>
		<path class="st22" d="M356.6,71.71h1.97v1.97h-1.97V71.71z M356.6,80.14v-1.97h1.97v1.97H356.6z"/>
		<path class="st22" d="M16.41,104.25h4.45v1.3h-4.45V104.25z"/>
		<path class="st22" d="M26.91,110.19v-1.26h0.34c2.56,0,2.99-0.67,2.99-2.48V97.9h1.49v8.68c0,2.64-1.44,3.62-4.15,3.62h-0.67
			V110.19z"/>
		<path class="st22" d="M36.59,105.47v4.67H35.1V97.9h3.68c2.37,0,4.21,1.12,4.21,3.76c0,2.59-1.82,3.81-4.34,3.81H36.59z
			 M38.65,104.27c1.78,0,2.8-0.86,2.8-2.61c0-1.83-1.02-2.56-2.75-2.56h-2.11v5.17H38.65z"/>
		<path class="st22" d="M46.47,104.12c0,3.25,1.38,5.06,3.86,5.06c2.32,0,3.7-1.33,3.7-3.73v-0.18h-3.54v-1.31h4.99v6.18h-1.3v-1.76
			h-0.06c-0.58,1.07-1.84,2.02-3.83,2.02c-3.09,0-5.39-2.02-5.39-6.32c0-4,2.42-6.35,5.59-6.35c2.51,0,4.32,1.26,4.63,3.42h-1.55
			c-0.21-1.39-1.47-2.24-3.07-2.24C47.84,98.91,46.47,100.99,46.47,104.12z"/>
		<path class="st22" d="M58.57,108.17h1.79l-1.3,3.84h-1.04L58.57,108.17z"/>
		<path class="st22" d="M68.71,105.47v4.67h-1.49V97.9h3.68c2.37,0,4.21,1.12,4.21,3.76c0,2.59-1.82,3.81-4.34,3.81H68.71z
			 M70.78,104.27c1.78,0,2.8-0.86,2.8-2.61c0-1.83-1.02-2.56-2.75-2.56h-2.11v5.17H70.78z"/>
		<path class="st22" d="M77.61,97.9h1.9l5.44,9.11c0.42,0.67,0.62,1.2,0.62,1.2h0.05V97.9h1.41v12.25h-1.91l-5.43-9.09
			c-0.48-0.8-0.64-1.18-0.64-1.18h-0.03v10.28H77.6L77.61,97.9L77.61,97.9z"/>
		<path class="st22" d="M91.48,104.12c0,3.25,1.38,5.06,3.86,5.06c2.32,0,3.7-1.33,3.7-3.73v-0.18H95.5v-1.31h4.99v6.18h-1.3v-1.76
			h-0.06c-0.58,1.07-1.84,2.02-3.83,2.02c-3.09,0-5.39-2.02-5.39-6.32c0-4,2.42-6.35,5.59-6.35c2.51,0,4.32,1.26,4.63,3.42h-1.55
			c-0.21-1.39-1.47-2.24-3.07-2.24C92.84,98.91,91.48,100.99,91.48,104.12z"/>
		<path class="st22" d="M103.5,101.71h1.97v1.97h-1.97V101.71z M103.5,110.14v-1.97h1.97v1.97H103.5z"/>
		<path class="st22" d="M116.73,103.82c-0.08-0.75-0.69-1.23-1.68-1.23s-1.65,0.58-1.65,1.36c0,0.69,0.42,1.01,1.26,1.15l1.3,0.19
			c1.76,0.27,2.4,0.99,2.4,2.45c0,1.7-1.38,2.61-3.3,2.61c-1.75,0-3.19-0.78-3.3-2.59h1.41c0.06,0.66,0.43,1.49,1.92,1.49
			c1.15,0,1.87-0.54,1.87-1.42c0-0.67-0.18-1.04-1.33-1.23l-1.3-0.19c-1.5-0.24-2.3-0.86-2.3-2.34c0-1.49,1.14-2.56,3.06-2.56
			c1.83,0,2.87,0.85,3.01,2.32h-1.37C116.73,103.83,116.73,103.82,116.73,103.82z"/>
		<path class="st22" d="M123.91,110.35c-2.58,0-3.81-1.87-3.81-4.39c0-2.5,1.34-4.47,3.76-4.47c2.53,0,3.52,1.95,3.52,4.08v0.74
			h-5.81c0.1,1.74,0.8,2.93,2.38,2.93c1.41,0,1.78-0.82,1.92-1.31h1.39C126.97,109.39,125.72,110.35,123.91,110.35z M125.91,105.09
			c-0.03-1.41-0.59-2.5-2.06-2.5c-1.34,0-2.08,1.06-2.26,2.59h4.32V105.09z"/>
		<path class="st22" d="M131.59,99.26v2.45h2.08v1.1h-2.08v4.98c0,0.9,0.37,1.25,1.28,1.25c0.43,0,0.93-0.08,0.93-0.08v1.22
			c0,0-0.59,0.1-1.33,0.1c-1.65,0-2.31-0.8-2.31-2.24v-5.22h-1.54v-1.06h0.26c1.14,0,1.39-0.27,1.39-1.89v-0.61H131.59z"/>
		<path class="st22" d="M142.07,99.26v2.45h2.08v1.1h-2.08v4.98c0,0.9,0.37,1.25,1.28,1.25c0.43,0,0.93-0.08,0.93-0.08v1.22
			c0,0-0.59,0.1-1.33,0.1c-1.65,0-2.31-0.8-2.31-2.24v-5.22h-1.54v-1.06h0.26c1.14,0,1.39-0.27,1.39-1.89v-0.61H142.07z"/>
		<path class="st22" d="M145.67,105.92c0-2.61,1.44-4.42,3.79-4.42c2.51,0,3.76,1.81,3.76,4.42c0,2.64-1.42,4.43-3.79,4.43
			C146.95,110.35,145.67,108.56,145.67,105.92z M147.16,105.92c0,2.06,0.69,3.31,2.32,3.31c1.57,0,2.26-1.25,2.26-3.31
			c0-2.05-0.67-3.31-2.29-3.31C147.91,102.6,147.16,103.87,147.16,105.92z"/>
		<path class="st22" d="M160.17,101.71h1.36v1.42h0.03c0.38-0.86,1.36-1.63,2.71-1.63c1.28,0,2.24,0.58,2.54,1.75h0.03
			c0.32-0.88,1.36-1.75,2.75-1.75c1.58,0,2.67,0.77,2.67,2.77v5.87h-1.44v-5.22c0-0.61,0-1.26-0.3-1.68
			c-0.29-0.4-0.75-0.54-1.31-0.54c-1.57,0-2.27,1.01-2.27,2.39v5.06h-1.44v-5.22c0-0.61,0-1.25-0.3-1.67
			c-0.29-0.4-0.75-0.56-1.31-0.56c-1.57,0-2.27,1.01-2.27,2.35v5.09h-1.44L160.17,101.71L160.17,101.71z"/>
		<path class="st22" d="M175.03,104.01c0.03-1.49,1.17-2.51,3.19-2.51c2.1,0,3.12,0.88,3.12,3.14v3.44c0,0.67,0.14,0.94,0.77,0.96
			v1.17h-0.18c-1.34,0-1.79-0.48-1.94-1.49h-0.03c-0.45,0.99-1.46,1.57-2.71,1.57c-1.68,0-2.67-0.91-2.67-2.42
			c0-0.93,0.4-1.7,1.26-2.13c0.88-0.46,2.19-0.63,4.08-0.69v-0.37c0-1.52-0.58-2.11-1.76-2.11c-1.25,0-1.71,0.72-1.76,1.44H175.03z
			 M179.93,106.32v-0.19c-1.82,0.08-2.86,0.22-3.41,0.62c-0.32,0.24-0.46,0.59-0.46,1.04c0,0.86,0.56,1.33,1.47,1.33
			C178.6,109.12,179.93,108.4,179.93,106.32z"/>
		<path class="st22" d="M186.04,105.79l-2.67-4.08h1.7l1.84,2.95h0.03l1.89-2.95h1.57l-2.66,4l2.93,4.43h-1.71l-2.1-3.3h-0.05
			l-2.08,3.3h-1.57L186.04,105.79z"/>
		<path class="st22" d="M192.6,98.23h1.52v1.55h-1.52V98.23z M192.63,101.71h1.46v8.44h-1.46V101.71z"/>
		<path class="st22" d="M197.25,101.71h1.36v1.42h0.03c0.38-0.86,1.36-1.63,2.71-1.63c1.28,0,2.24,0.58,2.54,1.75h0.03
			c0.32-0.88,1.36-1.75,2.75-1.75c1.58,0,2.67,0.77,2.67,2.77v5.87h-1.44v-5.22c0-0.61,0-1.26-0.3-1.68
			c-0.29-0.4-0.75-0.54-1.31-0.54c-1.57,0-2.27,1.01-2.27,2.39v5.06h-1.44v-5.22c0-0.61,0-1.25-0.3-1.67
			c-0.29-0.4-0.75-0.56-1.31-0.56c-1.57,0-2.27,1.01-2.27,2.35v5.09h-1.44L197.25,101.71L197.25,101.71z"/>
		<path class="st22" d="M213.83,106.89c0,0.61,0,1.31,0.3,1.71c0.29,0.38,0.74,0.56,1.3,0.56c1.57,0,2.3-1.04,2.3-2.9v-4.56h1.44
			v8.44h-1.38v-1.44h-0.03c-0.38,0.86-1.31,1.65-2.66,1.65c-1.62,0-2.71-0.78-2.71-2.77v-5.88h1.42v5.19
			C213.81,106.89,213.83,106.89,213.83,106.89z"/>
		<path class="st22" d="M222.33,101.71h1.36v1.42h0.03c0.38-0.86,1.36-1.63,2.71-1.63c1.28,0,2.24,0.58,2.54,1.75H229
			c0.32-0.88,1.36-1.75,2.75-1.75c1.58,0,2.67,0.77,2.67,2.77v5.87h-1.44v-5.22c0-0.61,0-1.26-0.3-1.68
			c-0.29-0.4-0.75-0.54-1.31-0.54c-1.57,0-2.27,1.01-2.27,2.39v5.06h-1.44v-5.22c0-0.61,0-1.25-0.3-1.67
			c-0.29-0.4-0.75-0.56-1.31-0.56c-1.57,0-2.27,1.01-2.27,2.35v5.09h-1.44L222.33,101.71L222.33,101.71z"/>
		<path class="st22" d="M248.79,113.15h-1.44v-4.29h-0.05c-0.4,0.75-1.3,1.49-2.59,1.49c-1.79,0-3.44-1.09-3.44-4.37
			c0-2.9,1.5-4.48,3.63-4.48c1.26,0,2.11,0.7,2.45,1.49h0.03v-1.28h1.41V113.15z M247.38,106.49v-0.9c0-1.79-0.94-2.95-2.29-2.95
			c-1.58,0-2.35,1.28-2.35,3.27c0,1.9,0.56,3.3,2.24,3.3C246.47,109.21,247.38,108.03,247.38,106.49z"/>
		<path class="st22" d="M253.27,106.89c0,0.61,0,1.31,0.3,1.71c0.29,0.38,0.74,0.56,1.3,0.56c1.57,0,2.3-1.04,2.3-2.9v-4.56h1.44
			v8.44h-1.38v-1.44h-0.03c-0.38,0.86-1.31,1.65-2.66,1.65c-1.62,0-2.71-0.78-2.71-2.77v-5.88h1.42v5.19
			C253.25,106.89,253.27,106.89,253.27,106.89z"/>
		<path class="st22" d="M261.37,104.01c0.03-1.49,1.17-2.51,3.19-2.51c2.1,0,3.12,0.88,3.12,3.14v3.44c0,0.67,0.14,0.94,0.77,0.96
			v1.17h-0.18c-1.34,0-1.79-0.48-1.94-1.49h-0.03c-0.45,0.99-1.46,1.57-2.71,1.57c-1.68,0-2.67-0.91-2.67-2.42
			c0-0.93,0.4-1.7,1.26-2.13c0.88-0.46,2.19-0.63,4.08-0.69v-0.37c0-1.52-0.58-2.11-1.76-2.11c-1.25,0-1.71,0.72-1.76,1.44H261.37z
			 M266.26,106.32v-0.19c-1.82,0.08-2.86,0.22-3.41,0.62c-0.32,0.24-0.46,0.59-0.46,1.04c0,0.86,0.56,1.33,1.47,1.33
			C264.93,109.12,266.26,108.4,266.26,106.32z"/>
		<path class="st22" d="M270.69,97.53h1.44v12.61h-1.44V97.53z"/>
		<path class="st22" d="M275.25,98.23h1.52v1.55h-1.52V98.23z M275.29,101.71h1.46v8.44h-1.46V101.71z"/>
		<path class="st22" d="M281.69,99.26v2.45h2.08v1.1h-2.08v4.98c0,0.9,0.37,1.25,1.28,1.25c0.43,0,0.93-0.08,0.93-0.08v1.22
			c0,0-0.59,0.1-1.33,0.1c-1.65,0-2.31-0.8-2.31-2.24v-5.22h-1.54v-1.06h0.26c1.14,0,1.39-0.27,1.39-1.89v-0.61H281.69z"/>
		<path class="st22" d="M285.22,101.71h1.44l1.76,5.28c0.27,0.8,0.42,1.31,0.42,1.31h0.05c0,0,0.14-0.51,0.42-1.33l1.73-5.27h1.44
			l-3.07,8.96c-0.67,1.94-1.23,2.66-3.06,2.66c-0.32,0-0.64-0.05-0.86-0.1v-1.18c0.27,0.06,0.59,0.08,0.74,0.08
			c1.07,0,1.42-0.4,1.79-1.54l0.16-0.45L285.22,101.71z"/>
		<path class="st22" d="M292.98,108.19h1.95v1.95h-1.95V108.19z"/>
		<path class="st22" d="M16.41,134.25h4.45v1.3h-4.45V134.25z"/>
		<path class="st22" d="M29.64,135.47v4.67h-1.49V127.9h3.68c2.37,0,4.21,1.12,4.21,3.76c0,2.59-1.82,3.81-4.34,3.81H29.64z
			 M31.71,134.27c1.78,0,2.8-0.86,2.8-2.61c0-1.83-1.02-2.56-2.75-2.56h-2.11v5.17H31.71z"/>
		<path class="st22" d="M38.54,127.9h3.76c3.35,0,5.92,1.63,5.92,5.97c0,4.31-2.4,6.27-5.75,6.27h-3.94L38.54,127.9L38.54,127.9z
			 M42.3,138.86c2.59,0,4.37-1.34,4.37-4.95c0-3.43-1.81-4.74-4.27-4.74h-2.37v9.68L42.3,138.86L42.3,138.86z"/>
		<path class="st22" d="M52.6,140.14h-1.49V127.9h7.31v1.33H52.6v4.42h5.33v1.3H52.6V140.14z"/>
		<path class="st22" d="M16.41,164.25h4.45v1.3h-4.45V164.25z"/>
		<path class="st22" d="M28.15,157.9h7.83v1.33h-6.34v4.08h5.83v1.3h-5.83v4.21h6.42v1.33h-7.91
			C28.15,170.15,28.15,157.9,28.15,157.9z"/>
		<path class="st22" d="M40.63,165.47v4.67h-1.49V157.9h3.68c2.37,0,4.21,1.12,4.21,3.76c0,2.59-1.82,3.81-4.34,3.81L40.63,165.47
			L40.63,165.47z M42.7,164.27c1.78,0,2.8-0.86,2.8-2.61c0-1.83-1.02-2.56-2.75-2.56h-2.11v5.17H42.7z"/>
		<path class="st22" d="M56.06,161.18c-0.14-1.2-0.83-2.27-2.54-2.27c-1.67,0-2.56,0.94-2.56,2.11c0,1.12,0.61,1.76,2.05,2.03
			l1.73,0.3c2.39,0.43,3.22,1.6,3.22,3.35c0,2.24-1.52,3.68-4.45,3.68c-2.83,0-4.45-1.52-4.58-3.68h1.55
			c0.18,1.31,1.09,2.48,3.06,2.48c2.18,0,2.9-1.06,2.9-2.35c0-1.06-0.58-1.79-2.08-2.05l-1.71-0.3c-2.4-0.45-3.25-1.73-3.25-3.33
			c0-1.98,1.63-3.42,4.15-3.42c2.59,0,3.94,1.38,4.05,3.46L56.06,161.18L56.06,161.18z"/>
		<path class="st22" d="M60.39,161.71h1.97v1.97h-1.97V161.71z M60.39,170.14v-1.97h1.97v1.97H60.39z"/>
		<path class="st22" d="M72.52,170.35c-2.58,0-3.81-1.87-3.81-4.39c0-2.5,1.34-4.47,3.76-4.47c2.53,0,3.52,1.95,3.52,4.08v0.74
			h-5.81c0.1,1.74,0.8,2.93,2.38,2.93c1.41,0,1.78-0.82,1.92-1.31h1.39C75.58,169.39,74.33,170.35,72.52,170.35z M74.52,165.09
			c-0.03-1.41-0.59-2.5-2.06-2.5c-1.34,0-2.08,1.06-2.26,2.59h4.32V165.09z"/>
		<path class="st22" d="M80.03,165.79l-2.67-4.08h1.7l1.84,2.95h0.03l1.89-2.95h1.57l-2.66,4l2.93,4.43h-1.71l-2.1-3.3H80.8
			l-2.08,3.3h-1.57L80.03,165.79z"/>
		<path class="st22" d="M86.54,161.71h1.39v1.41h0.03c0.5-0.9,1.41-1.62,2.69-1.62c1.79,0,3.39,1.1,3.39,4.31
			c0,3.07-1.58,4.55-3.49,4.55c-1.23,0-2.23-0.69-2.54-1.44h-0.03v4.24h-1.44V161.71z M90.35,169.21c1.5,0,2.24-1.2,2.24-3.41
			c0-1.79-0.53-3.15-2.26-3.15c-1.49,0-2.4,1.26-2.4,2.69v0.9C87.93,167.9,88.75,169.21,90.35,169.21z"/>
		<path class="st22" d="M95.88,165.92c0-2.61,1.44-4.42,3.79-4.42c2.51,0,3.76,1.81,3.76,4.42c0,2.64-1.42,4.43-3.79,4.43
			C97.16,170.35,95.88,168.56,95.88,165.92z M97.37,165.92c0,2.06,0.69,3.31,2.32,3.31c1.57,0,2.26-1.25,2.26-3.31
			c0-2.05-0.67-3.31-2.29-3.31C98.12,162.6,97.37,163.87,97.37,165.92z"/>
		<path class="st22" d="M105.87,161.71h1.36v1.58h0.03c0.38-0.88,1.44-1.75,2.67-1.75h0.14v1.5h-0.27c-1.5,0-2.5,0.86-2.5,2.5v4.59
			h-1.44v-8.42H105.87z"/>
		<path class="st22" d="M114.3,159.26v2.45h2.08v1.1h-2.08v4.98c0,0.9,0.37,1.25,1.28,1.25c0.43,0,0.93-0.08,0.93-0.08v1.22
			c0,0-0.59,0.1-1.33,0.1c-1.65,0-2.31-0.8-2.31-2.24v-5.22h-1.54v-1.06h0.26c1.14,0,1.39-0.27,1.39-1.89v-0.61H114.3z"/>
		<path class="st22" d="M127.37,164.96h-2.72v5.19h-1.49V157.9h4.43c0.9,0,1.7,0.19,2.37,0.54c0.98,0.54,1.58,1.49,1.58,2.9
			c0,2.3-1.5,3.09-2.63,3.38v0.03l2.71,5.39h-1.73L127.37,164.96z M127.47,163.72c1.44,0,2.51-0.69,2.51-2.37
			c0-1.5-1.04-2.24-2.45-2.24h-2.88v4.61H127.47z"/>
		<path class="st22" d="M135.3,164.12c0,3.25,1.38,5.06,3.86,5.06c2.32,0,3.7-1.33,3.7-3.73v-0.18h-3.54v-1.31h4.99v6.18h-1.3v-1.76
			h-0.06c-0.58,1.07-1.84,2.02-3.83,2.02c-3.09,0-5.39-2.02-5.39-6.32c0-4,2.42-6.35,5.59-6.35c2.51,0,4.32,1.26,4.63,3.42h-1.55
			c-0.21-1.39-1.47-2.24-3.07-2.24C136.67,158.91,135.3,160.99,135.3,164.12z"/>
		<path class="st22" d="M147.72,170.14V157.9h4.82c2.1,0,3.78,0.98,3.78,2.98c0,1.49-0.83,2.42-2.24,2.74v0.03
			c1.54,0.26,2.63,1.47,2.63,2.95c0,2.75-2.07,3.55-4.53,3.55L147.72,170.14L147.72,170.14z M152.27,163.05c1.3,0,2.5-0.46,2.5-2.03
			c0-1.33-0.95-1.92-2.31-1.92h-3.25v3.95H152.27z M152.19,168.94c1.79,0,2.96-0.61,2.96-2.45c0-1.62-1.15-2.21-3.09-2.21h-2.85
			v4.66H152.19z"/>
		<path class="st22" d="M165.94,172.22c-0.91-1.81-2.13-4.11-2.13-7.35c0-3.25,1.22-5.54,2.13-7.35h1.09
			c-0.91,1.95-1.75,4.08-1.75,7.35c0,3.25,0.83,5.38,1.75,7.35H165.94z"/>
		<path class="st22" d="M175.96,170.14h-1.38v-1.39h-0.05c-0.45,0.83-1.36,1.6-2.66,1.6c-1.79,0-3.44-1.12-3.44-4.37
			c0-2.9,1.5-4.48,3.63-4.48c1.26,0,2.08,0.7,2.42,1.49h0.03v-5.46h1.44v12.61L175.96,170.14L175.96,170.14z M174.55,165.6
			c0-1.79-0.94-2.95-2.29-2.95c-1.62,0-2.35,1.28-2.35,3.27c0,1.9,0.56,3.3,2.24,3.3c1.49,0,2.4-1.18,2.4-2.72V165.6z"/>
		<path class="st22" d="M179.1,158.23h1.52v1.55h-1.52V158.23z M179.13,161.71h1.46v8.44h-1.46V161.71z"/>
		<path class="st22" d="M183.21,170.99h1.39c0.16,0.72,0.71,1.18,2.08,1.18c1.6,0,2.4-0.59,2.4-2.45v-1.25h-0.02
			c-0.43,0.83-1.42,1.55-2.69,1.55c-1.76,0-3.38-1.1-3.38-4.23c0-2.79,1.47-4.31,3.55-4.31c1.36,0,2.18,0.75,2.53,1.54h0.03v-1.33
			h1.38v8.23c0,2.37-1.55,3.39-3.84,3.39C185.05,173.33,183.4,172.74,183.21,170.99z M189.11,165.47c0-1.68-0.94-2.83-2.4-2.83
			c-1.52,0-2.24,1.26-2.24,3.17c0,1.86,0.53,3.14,2.31,3.14c1.36,0,2.34-1.18,2.34-2.63L189.11,165.47L189.11,165.47z"/>
		<path class="st22" d="M193.62,158.23h1.52v1.55h-1.52V158.23z M193.66,161.71h1.46v8.44h-1.46V161.71z"/>
		<path class="st22" d="M200.06,159.26v2.45h2.08v1.1h-2.08v4.98c0,0.9,0.37,1.25,1.28,1.25c0.43,0,0.93-0.08,0.93-0.08v1.22
			c0,0-0.59,0.1-1.33,0.1c-1.65,0-2.31-0.8-2.31-2.24v-5.22h-1.54v-1.06h0.26c1.14,0,1.39-0.27,1.39-1.89v-0.61H200.06z"/>
		<path class="st22" d="M204.57,164.01c0.03-1.49,1.17-2.51,3.19-2.51c2.1,0,3.12,0.88,3.12,3.14v3.44c0,0.67,0.14,0.94,0.77,0.96
			v1.17h-0.18c-1.34,0-1.79-0.48-1.94-1.49h-0.03c-0.45,0.99-1.46,1.57-2.71,1.57c-1.68,0-2.67-0.91-2.67-2.42
			c0-0.93,0.4-1.7,1.26-2.13c0.88-0.46,2.19-0.63,4.08-0.69v-0.37c0-1.52-0.58-2.11-1.76-2.11c-1.25,0-1.71,0.72-1.76,1.44
			L204.57,164.01L204.57,164.01z M209.46,166.32v-0.19c-1.82,0.08-2.86,0.22-3.41,0.62c-0.32,0.24-0.46,0.59-0.46,1.04
			c0,0.86,0.56,1.33,1.47,1.33C208.14,169.12,209.46,168.4,209.46,166.32z"/>
		<path class="st22" d="M213.89,157.53h1.44v12.61h-1.44V157.53z"/>
		<path class="st22" d="M219.3,164.88c0-3.26-0.83-5.39-1.75-7.35h1.09c0.91,1.81,2.13,4.1,2.13,7.35c0,3.23-1.22,5.54-2.13,7.35
			h-1.09C218.47,170.26,219.3,168.13,219.3,164.88z"/>
		<path class="st22" d="M228.15,164.01c0.03-1.49,1.17-2.51,3.19-2.51c2.1,0,3.12,0.88,3.12,3.14v3.44c0,0.67,0.14,0.94,0.77,0.96
			v1.17h-0.18c-1.34,0-1.79-0.48-1.94-1.49h-0.03c-0.45,0.99-1.46,1.57-2.71,1.57c-1.68,0-2.67-0.91-2.67-2.42
			c0-0.93,0.4-1.7,1.26-2.13c0.88-0.46,2.19-0.63,4.08-0.69v-0.37c0-1.52-0.58-2.11-1.76-2.11c-1.25,0-1.71,0.72-1.76,1.44
			L228.15,164.01L228.15,164.01z M233.05,166.32v-0.19c-1.82,0.08-2.86,0.22-3.41,0.62c-0.32,0.24-0.46,0.59-0.46,1.04
			c0,0.86,0.56,1.33,1.47,1.33C231.72,169.12,233.05,168.4,233.05,166.32z"/>
		<path class="st22" d="M242.84,164.94c0-0.61,0-1.28-0.3-1.68c-0.29-0.4-0.77-0.56-1.33-0.56c-1.57,0-2.29,1.01-2.29,2.39v5.06
			h-1.44v-8.44h1.36v1.42h0.03c0.4-0.86,1.38-1.63,2.72-1.63c1.62,0,2.69,0.77,2.69,2.77v5.87h-1.44V164.94z"/>
		<path class="st22" d="M254.14,170.14h-1.38v-1.39h-0.05c-0.45,0.83-1.36,1.6-2.66,1.6c-1.79,0-3.44-1.12-3.44-4.37
			c0-2.9,1.5-4.48,3.63-4.48c1.26,0,2.08,0.7,2.42,1.49h0.03v-5.46h1.44v12.61L254.14,170.14L254.14,170.14z M252.73,165.6
			c0-1.79-0.94-2.95-2.29-2.95c-1.62,0-2.35,1.28-2.35,3.27c0,1.9,0.56,3.3,2.24,3.3c1.49,0,2.4-1.18,2.4-2.72V165.6z"/>
		<path class="st22" d="M262.98,164.04c0,3.17,1.41,5.12,3.86,5.12c2.16,0,3.06-1.46,3.22-2.85h1.52c-0.19,2.3-1.97,4.07-4.74,4.07
			c-3.18,0-5.44-2.07-5.44-6.34c0-3.99,2.29-6.34,5.47-6.34c2.08,0,4.43,1.1,4.71,3.84h-1.57c-0.21-1.25-1.17-2.63-3.14-2.63
			C264.36,158.92,262.98,160.99,262.98,164.04z"/>
		<path class="st22" d="M274.44,157.9h2.26l3.1,8.77c0.38,1.07,0.54,1.6,0.54,1.6h0.03c0,0,0.16-0.53,0.54-1.6l3.15-8.77h2.24v12.25
			h-1.52v-10.52h-0.05c0,0-0.19,0.63-0.66,1.92l-3.09,8.6h-1.41l-3.01-8.6c-0.43-1.28-0.66-1.92-0.66-1.92h-0.05v10.52h-1.44V157.9
			H274.44z"/>
		<path class="st22" d="M292.65,164.91l-4.32-7.01h1.73l3.31,5.65h0.03l3.44-5.65h1.58l-4.31,6.92v5.33h-1.47v-5.24H292.65z"/>
		<path class="st22" d="M301.91,170.14h-1.49V157.9h1.49v6.29l5.73-6.29h1.79l-4.71,5.14l5.04,7.11h-1.79l-4.27-5.99l-1.79,1.97
			L301.91,170.14L301.91,170.14z"/>
		<path class="st22" d="M318.5,172.22c-0.91-1.81-2.13-4.11-2.13-7.35c0-3.25,1.22-5.54,2.13-7.35h1.09
			c-0.91,1.95-1.75,4.08-1.75,7.35c0,3.25,0.83,5.38,1.75,7.35H318.5z"/>
		<path class="st22" d="M321.83,161.71h1.39v1.41h0.03c0.5-0.9,1.41-1.62,2.69-1.62c1.79,0,3.39,1.1,3.39,4.31
			c0,3.07-1.58,4.55-3.49,4.55c-1.23,0-2.23-0.69-2.54-1.44h-0.03v4.24h-1.44L321.83,161.71L321.83,161.71z M325.64,169.21
			c1.5,0,2.24-1.2,2.24-3.41c0-1.79-0.53-3.15-2.26-3.15c-1.49,0-2.4,1.26-2.4,2.69v0.9C323.22,167.9,324.04,169.21,325.64,169.21z"
			/>
		<path class="st22" d="M331.76,161.71h1.36v1.58h0.03c0.38-0.88,1.44-1.75,2.67-1.75h0.14v1.5h-0.27c-1.5,0-2.5,0.86-2.5,2.5v4.59
			h-1.44L331.76,161.71L331.76,161.71z"/>
		<path class="st22" d="M338.15,158.23h1.52v1.55h-1.52V158.23z M338.18,161.71h1.46v8.44h-1.46V161.71z"/>
		<path class="st22" d="M348.17,164.94c0-0.61,0-1.28-0.3-1.68c-0.29-0.4-0.77-0.56-1.33-0.56c-1.57,0-2.29,1.01-2.29,2.39v5.06
			h-1.44v-8.44h1.36v1.42h0.03c0.4-0.86,1.38-1.63,2.72-1.63c1.62,0,2.69,0.77,2.69,2.77v5.87h-1.44V164.94z"/>
		<path class="st22" d="M354.47,159.26v2.45h2.08v1.1h-2.08v4.98c0,0.9,0.37,1.25,1.28,1.25c0.43,0,0.93-0.08,0.93-0.08v1.22
			c0,0-0.59,0.1-1.33,0.1c-1.65,0-2.31-0.8-2.31-2.24v-5.22h-1.54v-1.06h0.26c1.14,0,1.39-0.27,1.39-1.89v-0.61H354.47z"/>
		<path class="st22" d="M359.8,164.88c0-3.26-0.83-5.39-1.75-7.35h1.09c0.91,1.81,2.13,4.1,2.13,7.35c0,3.23-1.22,5.54-2.13,7.35
			h-1.09C358.96,170.26,359.8,168.13,359.8,164.88z"/>
		<path class="st22" d="M367.83,161.71h1.47l1.82,5.43c0.24,0.69,0.42,1.33,0.42,1.33h0.03c0,0,0.18-0.64,0.42-1.33l1.87-5.43h1.38
			l-2.93,8.44h-1.52L367.83,161.71z"/>
		<path class="st22" d="M380.26,170.35c-2.58,0-3.81-1.87-3.81-4.39c0-2.5,1.34-4.47,3.76-4.47c2.53,0,3.52,1.95,3.52,4.08v0.74
			h-5.81c0.1,1.74,0.8,2.93,2.39,2.93c1.41,0,1.78-0.82,1.92-1.31h1.39C383.32,169.39,382.07,170.35,380.26,170.35z M382.26,165.09
			c-0.03-1.41-0.59-2.5-2.06-2.5c-1.34,0-2.08,1.06-2.26,2.59h4.32V165.09z"/>
		<path class="st22" d="M386.08,161.71h1.36v1.58h0.03c0.38-0.88,1.44-1.75,2.67-1.75h0.14v1.5h-0.27c-1.5,0-2.5,0.86-2.5,2.5v4.59
			h-1.44L386.08,161.71L386.08,161.71z"/>
		<path class="st22" d="M396.5,163.82c-0.08-0.75-0.69-1.23-1.68-1.23s-1.65,0.58-1.65,1.36c0,0.69,0.42,1.01,1.26,1.15l1.3,0.19
			c1.76,0.27,2.4,0.99,2.4,2.45c0,1.7-1.38,2.61-3.3,2.61c-1.75,0-3.19-0.78-3.3-2.59h1.41c0.06,0.66,0.43,1.49,1.92,1.49
			c1.15,0,1.87-0.54,1.87-1.42c0-0.67-0.18-1.04-1.33-1.23l-1.3-0.19c-1.5-0.24-2.3-0.86-2.3-2.34c0-1.49,1.14-2.56,3.06-2.56
			c1.83,0,2.87,0.85,3.01,2.32h-1.37L396.5,163.82L396.5,163.82z"/>
		<path class="st22" d="M400.59,158.23h1.52v1.55h-1.52V158.23z M400.63,161.71h1.46v8.44h-1.46V161.71z"/>
		<path class="st22" d="M404.5,165.92c0-2.61,1.44-4.42,3.79-4.42c2.51,0,3.76,1.81,3.76,4.42c0,2.64-1.42,4.43-3.79,4.43
			C405.78,170.35,404.5,168.56,404.5,165.92z M405.99,165.92c0,2.06,0.69,3.31,2.32,3.31c1.57,0,2.26-1.25,2.26-3.31
			c0-2.05-0.67-3.31-2.29-3.31C406.74,162.6,405.99,163.87,405.99,165.92z"/>
		<path class="st22" d="M419.84,164.94c0-0.61,0-1.28-0.3-1.68c-0.29-0.4-0.77-0.56-1.33-0.56c-1.57,0-2.29,1.01-2.29,2.39v5.06
			h-1.44v-8.44h1.36v1.42h0.03c0.4-0.86,1.38-1.63,2.72-1.63c1.62,0,2.69,0.77,2.69,2.77v5.87h-1.44V164.94z"/>
		<path class="st22" d="M428.53,163.82c-0.08-0.75-0.69-1.23-1.68-1.23s-1.65,0.58-1.65,1.36c0,0.69,0.42,1.01,1.26,1.15l1.3,0.19
			c1.76,0.27,2.4,0.99,2.4,2.45c0,1.7-1.38,2.61-3.3,2.61c-1.75,0-3.19-0.78-3.3-2.59h1.41c0.06,0.66,0.43,1.49,1.92,1.49
			c1.15,0,1.87-0.54,1.87-1.42c0-0.67-0.18-1.04-1.33-1.23l-1.3-0.19c-1.5-0.24-2.3-0.86-2.3-2.34c0-1.49,1.14-2.56,3.06-2.56
			c1.83,0,2.87,0.85,3.01,2.32h-1.37L428.53,163.82L428.53,163.82z"/>
		<path class="st22" d="M432.08,168.19h1.95v1.95h-1.95V168.19z"/>
	</g>
</g>
</svg>
