<?xml version="1.0" encoding="utf-8"?>
<!-- Generator: Adobe Illustrator 24.1.0, SVG Export Plug-In . SVG Version: 6.00 Build 0)  -->
<svg version="1.1" id="Layer_1" xmlns="http://www.w3.org/2000/svg" xmlns:xlink="http://www.w3.org/1999/xlink" x="0px" y="0px"
	 viewBox="0 0 32 32" style="enable-background:new 0 0 32 32;" xml:space="preserve">
<style type="text/css">
	.st0{fill:url(#SVGID_1_);}
	.st1{fill:url(#SVGID_2_);}
	.st2{fill:#F8D543;}
	.st3{fill:#CF8725;}
	.st4{fill:#AC521D;}
	.st5{fill:#F7D663;}
	.st6{fill:#AB511C;}
</style>
<linearGradient id="SVGID_1_" gradientUnits="userSpaceOnUse" x1="3.5868" y1="1072.0961" x2="28.5868" y2="1051.7627" gradientTransform="matrix(1 0 0 1 0 -1046)">
	<stop  offset="0" style="stop-color:#804D00"/>
	<stop  offset="0.5" style="stop-color:#FFDF38"/>
	<stop  offset="1" style="stop-color:#804D00"/>
</linearGradient>
<circle class="st0" cx="16" cy="16" r="16"/>
<linearGradient id="SVGID_2_" gradientUnits="userSpaceOnUse" x1="6.311" y1="1051.3671" x2="25.6443" y2="1072.3671" gradientTransform="matrix(1 0 0 1 0 -1046)">
	<stop  offset="0" style="stop-color:#374D7D"/>
	<stop  offset="0.1416" style="stop-color:#2D3F66"/>
	<stop  offset="0.3605" style="stop-color:#202D49"/>
	<stop  offset="0.5785" style="stop-color:#172035"/>
	<stop  offset="0.793" style="stop-color:#121928"/>
	<stop  offset="1" style="stop-color:#101624"/>
</linearGradient>
<circle class="st1" cx="16.1" cy="16" r="14.3"/>
<g>
	<g>
		<path class="st2" d="M10.3,22.9L7.8,12.3L7.1,9.6L6.9,9.1L5.8,7.9V7.7L9.2,9l2.9,16l-2.7,1.2C9.6,26,11,25.3,10.3,22.9z"/>
		<path class="st3" d="M13.3,19.5L13,25h-0.9L9.2,9l2.5-1.3c0,0-0.7,1.7,0.3,6L13.3,19.5z"/>
		<polygon class="st4" points="15.4,26.2 9.4,26.2 9.4,26.2 9.4,26.2 12.1,25 13,25 		"/>
		<path class="st3" d="M15.2,22.7c0,0-0.4,2.1,0.2,3.5L13,25l3.1-12.3v6.7L15.2,22.7z"/>
		<polygon class="st2" points="16.1,8.3 16.1,12.7 13,25 13.3,19.5 		"/>
		<polygon class="st5" points="11.7,7.7 9.2,9 5.8,7.7 		"/>
	</g>
	<path class="st3" d="M21.8,22.9l2.5-10.6l0.8-2.7l0.2-0.5l1.1-1.2V7.7L22.9,9L20,25l2.7,1.2C22.5,26,21.1,25.3,21.8,22.9z"/>
	<path class="st2" d="M18.9,19.5l0.3,5.5H20l2.9-16l-2.5-1.3c0,0,0.7,1.7-0.3,6L18.9,19.5z"/>
	<polygon class="st6" points="16.8,26.2 22.8,26.2 22.7,26.2 22.7,26.2 20,25 19.2,25 	"/>
	<path class="st2" d="M16.9,22.7c0,0,0.5,2.1-0.1,3.5l2.4-1.2l-3.1-12.3v6.6L16.9,22.7z"/>
	<polygon class="st3" points="16.1,8.3 16.1,12.7 19.2,25 18.9,19.5 	"/>
	<polygon class="st5" points="20.4,7.7 22.9,9 26.4,7.7 	"/>
</g>
</svg>
