<?xml version="1.0" encoding="utf-8"?>
<!-- Generator: Adobe Illustrator 24.1.0, SVG Export Plug-In . SVG Version: 6.00 Build 0)  -->
<svg version="1.1" id="Layer_1" xmlns="http://www.w3.org/2000/svg" xmlns:xlink="http://www.w3.org/1999/xlink" x="0px" y="0px"
	 viewBox="0 0 32 32" style="enable-background:new 0 0 32 32;" xml:space="preserve">
<style type="text/css">
	.st0{fill:#FB7A24;}
	.st1{fill:#FFFFFF;}
</style>
<circle class="st0" cx="16" cy="16" r="16"/>
<path class="st1" d="M16,11.7c0.1-0.9,0.4-1.7,1-2.4c1.2-1.5,2.7-2.3,4.7-2.1c2.3,0.2,4.4,2.1,4.7,4.4c0.2,1.5-0.1,3-0.7,4.4
	c-0.1,0.3-0.1,0.6,0,0.9c1.8,3.2-0.1,7.2-3.6,7.7c-3.1,0.5-5.6-1.7-6-4.1c0-0.1,0-0.1,0-0.1c-0.5,2-1.6,3.5-3.7,4.1
	c-2.9,0.9-5.9-0.8-6.6-3.7c-0.4-1.7-0.1-3.3,0.6-4.9c0.1-0.3,0.1-0.5,0-0.7c-1.8-3-0.1-6.9,3.3-7.7c3.4-0.8,6,1.8,6.3,4.1
	C16,11.6,16,11.7,16,11.7z M16.7,17.7c0.8,0,1.6,0,2.4,0c0.3,0,0.4,0,0.4,0.4c0,0.5,0,1,0,1.6c0,0.8,0.8,1.5,1.6,1.5
	c0.9,0,1.6-0.6,1.7-1.4c0.1-0.7,0.1-1.4,0.1-2.1c0-0.7-0.3-1.2-1-1.5c-0.4-0.1-0.4-0.1-0.1-0.5c0.8-1,1.2-2.2,1.1-3.5
	c-0.1-0.8-0.8-1.5-1.7-1.4c-0.9,0-1.6,0.7-1.6,1.6c0,0.2,0,0.4-0.1,0.6c-0.1,0.6-0.4,1.1-1.1,1.3c-0.2,0.1-0.5,0.1-0.8,0.1
	c-1.1,0-2.3,0-3.4,0c-0.3,0-0.5,0-0.8,0.1c-2,0.4-3.4,1.5-4,3.5c-0.2,0.6-0.4,1.3-0.3,1.9c0.2,0.9,0.8,1.4,1.7,1.4
	c0.8,0,1.5-0.5,1.6-1.4c0.1-0.3,0.1-0.5,0.1-0.8c0.1-0.8,0.7-1.3,1.5-1.3C15,17.7,15.9,17.7,16.7,17.7z M11.4,14.2
	C11.4,14.2,11.4,14.2,11.4,14.2c0.3,0,0.6,0,0.8,0c0.2,0,0.3-0.1,0.3-0.3c0-0.5,0-1,0-1.5c0-1.1-1.3-1.9-2.3-1.5
	c-0.8,0.3-1.2,1.1-1,2c0.2,0.8,0.6,1.2,1.3,1.2C10.8,14.3,11.1,14.2,11.4,14.2z"/>
</svg>
